<?xml version="1.0" encoding="utf-8" standalone="no"?>
<!DOCTYPE svg PUBLIC "-//W3C//DTD SVG 1.1//EN"
  "http://www.w3.org/Graphics/SVG/1.1/DTD/svg11.dtd">
<!-- Created with matplotlib (https://matplotlib.org/) -->
<svg height="576pt" version="1.1" viewBox="0 0 576 576" width="576pt" xmlns="http://www.w3.org/2000/svg" xmlns:xlink="http://www.w3.org/1999/xlink">
 <defs>
  <style type="text/css">
*{stroke-linecap:butt;stroke-linejoin:round;}
  </style>
 </defs>
 <g id="figure_1">
  <g id="patch_1">
   <path d="M 0 576 
L 576 576 
L 576 0 
L 0 0 
z
" style="fill:none;"/>
  </g>
  <g id="axes_1">
   <g id="patch_2">
    <path d="M 512.64 286.56 
C 512.64 258.006041 507.015493 229.729733 496.088366 203.349314 
C 485.161238 176.968896 469.143997 152.9974 448.953299 132.806701 
C 428.7626 112.616003 404.791104 96.598762 378.410686 85.671634 
C 352.030267 74.744507 323.753959 69.12 295.2 69.12 
C 266.646041 69.12 238.369733 74.744507 211.989314 85.671634 
C 185.608896 96.598762 161.6374 112.616003 141.446701 132.806701 
C 121.256003 152.9974 105.238762 176.968896 94.311634 203.349314 
C 83.384507 229.729733 77.76 258.006041 77.76 286.56 
C 77.76 315.113959 83.384507 343.390267 94.311634 369.770686 
C 105.238762 396.151104 121.256003 420.1226 141.446701 440.313299 
C 161.6374 460.503997 185.608896 476.521238 211.989314 487.448366 
C 238.369733 498.375493 266.646041 504 295.2 504 
C 323.753959 504 352.030267 498.375493 378.410686 487.448366 
C 404.791104 476.521238 428.7626 460.503997 448.953299 440.313299 
C 469.143997 420.1226 485.161238 396.151104 496.088366 369.770686 
C 507.015493 343.390267 512.64 315.113959 512.64 286.56 
M 295.2 286.56 
C 295.2 286.56 295.2 286.56 295.2 286.56 
C 295.2 286.56 295.2 286.56 295.2 286.56 
C 295.2 286.56 295.2 286.56 295.2 286.56 
C 295.2 286.56 295.2 286.56 295.2 286.56 
C 295.2 286.56 295.2 286.56 295.2 286.56 
C 295.2 286.56 295.2 286.56 295.2 286.56 
C 295.2 286.56 295.2 286.56 295.2 286.56 
C 295.2 286.56 295.2 286.56 295.2 286.56 
C 295.2 286.56 295.2 286.56 295.2 286.56 
C 295.2 286.56 295.2 286.56 295.2 286.56 
C 295.2 286.56 295.2 286.56 295.2 286.56 
C 295.2 286.56 295.2 286.56 295.2 286.56 
C 295.2 286.56 295.2 286.56 295.2 286.56 
C 295.2 286.56 295.2 286.56 295.2 286.56 
C 295.2 286.56 295.2 286.56 295.2 286.56 
C 295.2 286.56 295.2 286.56 295.2 286.56 
M 512.64 286.56 
z
" style="fill:none;"/>
   </g>
   <g id="PolyCollection_1">
    <defs>
     <path d="M 298.866391 -375.165814 
L 297.149597 -335.024546 
L 302.25896 -371.813681 
L 302.814141 -348.493774 
L 306.301836 -353.740084 
L 311.21418 -363.22853 
L 316.316279 -369.965526 
L 308.960757 -334.051279 
L 314.997343 -345.062474 
L 329.917945 -375.193995 
L 319.46983 -342.720425 
L 314.308125 -327.041081 
L 333.072792 -356.686977 
L 324.759548 -337.046491 
L 317.545732 -322.215169 
L 322.249011 -325.68321 
L 328.072458 -329.769073 
L 316.824132 -313.767907 
L 322.703268 -317.839383 
L 329.310287 -321.774835 
L 329.686256 -319.440017 
L 336.746461 -322.572197 
L 332.002452 -316.298903 
L 319.538946 -305.655782 
L 324.141737 -306.984651 
L 333.858718 -310.671297 
L 339.346733 -311.284115 
L 334.436858 -306.808993 
L 332.744716 -304.175215 
L 330.95839 -301.738356 
L 323.786126 -297.924212 
L 337.314381 -300.00405 
L 353.223188 -301.384915 
L 341.162522 -296.870864 
L 332.040715 -293.790407 
L 352.786461 -293.755509 
L 312.060808 -289.980693 
L 341.645696 -288.943677 
L 342.528384 -286.908909 
L 336.051437 -285.499111 
L 355.972905 -280.943069 
L 342.774566 -280.701426 
L 396.954396 -266.215223 
L 375.968735 -267.334897 
L 367.70234 -266.2247 
L 353.909487 -267.834366 
L 346.065309 -268.211526 
L 330.361871 -272.967449 
L 344.370199 -263.787939 
L 320.254774 -274.974619 
L 333.201001 -265.278238 
L 329.907633 -265.229458 
L 329.635875 -263.162282 
L 322.117748 -267.016226 
L 339.552449 -249.160279 
L 326.462523 -258.509766 
L 334.028348 -247.592994 
L 334.333887 -243.47111 
L 325.86949 -250.127149 
L 323.6228 -249.607711 
L 318.185951 -254.127406 
L 322.333407 -243.582285 
L 324.008827 -235.628952 
L 323.231306 -231.232393 
L 316.103484 -240.821639 
L 305.622097 -262.027169 
L 308.861619 -248.29338 
L 317.226799 -212.208296 
L 300.752792 -266.256396 
L 302.7248 -250.801743 
L 298.033306 -270.642246 
L 300.197005 -242.854601 
L 297.752164 -249.687991 
L 296.670863 -220.626511 
L 294.228964 -244.010647 
L 293.188034 -258.10201 
L 289.34112 -234.819628 
L 288.382176 -244.206696 
L 285.349431 -238.859408 
L 286.900312 -254.787759 
L 281.38136 -240.988242 
L 277.836172 -237.142916 
L 274.035471 -233.771775 
L 283.690924 -262.671618 
L 262.168752 -220.849908 
L 255.667044 -215.597708 
L 254.425685 -220.528015 
L 265.0622 -243.140247 
L 245.461252 -219.735109 
L 233.71579 -210.628139 
L 226.383455 -208.60417 
L 245.130243 -235.477636 
L 221.107925 -216.13545 
L 237.055547 -236.634746 
L 227.179152 -232.775375 
L 219.887624 -231.969779 
L 232.833573 -245.935881 
L 230.414873 -248.248379 
L 221.87987 -247.108603 
L 218.401259 -249.374146 
L 224.422937 -256.282527 
L 223.98963 -259.72058 
L 231.781409 -266.101372 
L 216.849709 -264.352182 
L 184.979728 -259.274486 
L 203.510793 -268.512537 
L 188.844604 -269.904468 
L 228.578217 -280.125312 
L 238.840982 -284.003113 
L 210.35635 -284.902617 
L 200.227213 -288.425112 
L 184.456259 -292.991336 
L 192.464664 -297.138949 
L 196.426358 -301.103875 
L 200.520618 -304.747028 
L 182.646824 -312.610704 
L 155.433207 -324.499364 
L 152.819752 -331.69771 
L 189.024776 -325.956764 
L 189.69109 -330.849196 
L 220.162012 -322.657091 
L 221.033043 -326.138335 
L 202.410316 -340.399925 
L 211.624968 -340.103676 
L 193.621992 -357.116175 
L 219.623682 -344.596569 
L 214.596279 -353.719323 
L 211.366958 -362.367392 
L 234.9312 -346.571788 
L 261.033808 -324.719398 
L 256.373082 -333.121643 
L 244.291519 -351.896293 
L 212.209779 -400.639335 
L 255.612354 -347.504412 
L 252.982289 -357.432822 
L 267.071126 -339.385665 
L 267.627053 -343.698209 
L 268.472848 -348.115073 
L 278.05114 -331.798015 
L 270.058165 -360.07832 
L 273.993646 -358.18931 
L 275.985075 -362.714837 
L 285.507326 -334.100929 
L 282.933261 -360.48702 
L 287.249467 -351.102766 
L 291.451835 -333.178759 
L 292.892054 -343.403308 
L 295.2 -357.718412 
L 295.2 -395.757855 
L 295.2 -395.757855 
L 291.946068 -365.521891 
L 288.551575 -367.022991 
L 283.81494 -377.740278 
L 277.212977 -393.618003 
L 281.142423 -354.213089 
L 269.371959 -387.933515 
L 261.714885 -397.996078 
L 257.054736 -396.612662 
L 267.586497 -357.645887 
L 251.020434 -386.428981 
L 255.555305 -367.453065 
L 247.816955 -373.573394 
L 230.874408 -393.03819 
L 226.018024 -390.911322 
L 152.764754 -480.290253 
L 217.657779 -384.57149 
L 238.907698 -352.770813 
L 249.193509 -336.945479 
L 210.287878 -369.932417 
L 177.481932 -391.844393 
L 183.890987 -378.205976 
L 176.168183 -376.310951 
L 158.639978 -380.422883 
L 171.936424 -364.163104 
L 170.294828 -358.037692 
L 186.172822 -343.387418 
L 189.965563 -336.024164 
L 157.817885 -343.358507 
L 141.646263 -342.25162 
L 106.956079 -345.309808 
L 115.193213 -334.593239 
L 144.687826 -320.425114 
L 162.061203 -310.964848 
L 166.92855 -304.587181 
L 157.16509 -299.784286 
L 145.149802 -294.251818 
L 176.288466 -288.1693 
L 178.187881 -283.182269 
L 215.20482 -281.722961 
L 205.275046 -276.867191 
L 152.253191 -263.183298 
L 164.301465 -259.563264 
L 143.534788 -247.931673 
L 196.28721 -257.768055 
L 198.509525 -253.857012 
L 195.360451 -247.772283 
L 195.327281 -242.651862 
L 193.841441 -236.561304 
L 192.76547 -230.299397 
L 205.852689 -232.631274 
L 205.384449 -226.78856 
L 193.503994 -211.836659 
L 204.174507 -213.611403 
L 215.032887 -216.634349 
L 183.804979 -179.228996 
L 218.600532 -206.885407 
L 197.130819 -174.242359 
L 209.562142 -179.667443 
L 216.955179 -179.78612 
L 242.896129 -209.087208 
L 237.94493 -192.674169 
L 230.564973 -168.710384 
L 236.654982 -167.870017 
L 272.354488 -236.304772 
L 262.376895 -203.106681 
L 265.515398 -200.034709 
L 266.55729 -189.011188 
L 275.137151 -205.675086 
L 272.463192 -172.691297 
L 283.610221 -212.546844 
L 284.8916 -193.338244 
L 291.453642 -231.087449 
L 293.585815 -213.92127 
L 298.598814 -130.428407 
L 298.870541 -232.268359 
L 305.045088 -197.657545 
L 299.403806 -261.54957 
L 308.956753 -218.801983 
L 306.433199 -242.539982 
L 331.827676 -161.013812 
L 315.949207 -226.946696 
L 312.358197 -244.309471 
L 334.549179 -197.919723 
L 336.773365 -203.112018 
L 337.546971 -210.341502 
L 344.09842 -206.797602 
L 335.47864 -227.561192 
L 335.399969 -233.102948 
L 338.302724 -234.189947 
L 368.826739 -202.953843 
L 347.645082 -232.917645 
L 340.380644 -244.739581 
L 353.405918 -236.578925 
L 333.285913 -257.71261 
L 346.50256 -250.291461 
L 344.311347 -255.182051 
L 351.041538 -253.934884 
L 347.477276 -259.257701 
L 378.406879 -246.031024 
L 342.175057 -267.433235 
L 362.921444 -261.176672 
L 372.767487 -260.894448 
L 392.965936 -258.135279 
L 407.109703 -258.812116 
L 456.311127 -252.667437 
L 375.942746 -274.609041 
L 393.451385 -275.703036 
L 356.731839 -283.504097 
L 385.812851 -284.594084 
L 374.862304 -288.588721 
L 328.566173 -290.509988 
L 388.528606 -296.434012 
L 353.948559 -296.377437 
L 376.802575 -302.632871 
L 406.553695 -312.363773 
L 367.818451 -307.655748 
L 354.543028 -307.052699 
L 355.235762 -310.088054 
L 354.811694 -312.835866 
L 364.656811 -320.18647 
L 384.593488 -333.67253 
L 372.90081 -332.113143 
L 335.676701 -313.977214 
L 349.999122 -325.949822 
L 350.839185 -330.046193 
L 353.614384 -336.023917 
L 356.22918 -342.530033 
L 355.141701 -346.261715 
L 335.061955 -330.600741 
L 324.246854 -322.118729 
L 344.145221 -349.487697 
L 342.872438 -353.316723 
L 325.115948 -333.318637 
L 339.048278 -360.058895 
L 351.726763 -389.808992 
L 328.104423 -354.189518 
L 328.99651 -363.634687 
L 350.335916 -425.626779 
L 333.315144 -396.528037 
L 316.048688 -357.029787 
L 324.245426 -400.202797 
L 319.33473 -400.645584 
L 313.071161 -392.946946 
L 306.493674 -377.031504 
L 305.369675 -408.113791 
L 298.866391 -375.165814 
z
" id="mf8faf23516" style="stroke:#dcdcdc;stroke-opacity:0.3;"/>
    </defs>
    <g clip-path="url(#p42a76606b5)">
     <use style="fill:#dcdcdc;fill-opacity:0.3;stroke:#dcdcdc;stroke-opacity:0.3;" x="0" xlink:href="#mf8faf23516" y="576"/>
    </g>
   </g>
   <g id="matplotlib.axis_1">
    <g id="xtick_1">
     <g id="line2d_1">
      <path clip-path="url(#p42a76606b5)" d="M 295.2 286.56 
L 304.491155 69.318595 
" style="fill:none;stroke:#000000;stroke-linecap:square;stroke-width:0.25;"/>
     </g>
     <g id="text_1">
      <!-- 1 -->
      <defs>
       <path d="M 12.40625 8.296875 
L 28.515625 8.296875 
L 28.515625 63.921875 
L 10.984375 60.40625 
L 10.984375 69.390625 
L 28.421875 72.90625 
L 38.28125 72.90625 
L 38.28125 8.296875 
L 54.390625 8.296875 
L 54.390625 0 
L 12.40625 0 
z
" id="DejaVuSans-49"/>
      </defs>
      <g transform="translate(299.849818 63.243185)scale(0.16 -0.16)">
       <use xlink:href="#DejaVuSans-49"/>
      </g>
     </g>
    </g>
    <g id="xtick_2">
     <g id="line2d_2">
      <path clip-path="url(#p42a76606b5)" d="M 295.2 286.56 
L 341.316991 74.066761 
" style="fill:none;stroke:#000000;stroke-linecap:square;stroke-width:0.25;"/>
     </g>
     <g id="text_2">
      <!-- 5 -->
      <defs>
       <path d="M 10.796875 72.90625 
L 49.515625 72.90625 
L 49.515625 64.59375 
L 19.828125 64.59375 
L 19.828125 46.734375 
Q 21.96875 47.46875 24.109375 47.828125 
Q 26.265625 48.1875 28.421875 48.1875 
Q 40.625 48.1875 47.75 41.5 
Q 54.890625 34.8125 54.890625 23.390625 
Q 54.890625 11.625 47.5625 5.09375 
Q 40.234375 -1.421875 26.90625 -1.421875 
Q 22.3125 -1.421875 17.546875 -0.640625 
Q 12.796875 0.140625 7.71875 1.703125 
L 7.71875 11.625 
Q 12.109375 9.234375 16.796875 8.0625 
Q 21.484375 6.890625 26.703125 6.890625 
Q 35.15625 6.890625 40.078125 11.328125 
Q 45.015625 15.765625 45.015625 23.390625 
Q 45.015625 31 40.078125 35.4375 
Q 35.15625 39.890625 26.703125 39.890625 
Q 22.75 39.890625 18.8125 39.015625 
Q 14.890625 38.140625 10.796875 36.28125 
z
" id="DejaVuSans-53"/>
      </defs>
      <g transform="translate(338.453943 68.220636)scale(0.16 -0.16)">
       <use xlink:href="#DejaVuSans-53"/>
      </g>
     </g>
    </g>
    <g id="xtick_3">
     <g id="line2d_3">
      <path clip-path="url(#p42a76606b5)" d="M 295.2 286.56 
L 385.335659 88.681965 
" style="fill:none;stroke:#000000;stroke-linecap:square;stroke-width:0.25;"/>
     </g>
     <g id="text_3">
      <!-- 10 -->
      <defs>
       <path d="M 31.78125 66.40625 
Q 24.171875 66.40625 20.328125 58.90625 
Q 16.5 51.421875 16.5 36.375 
Q 16.5 21.390625 20.328125 13.890625 
Q 24.171875 6.390625 31.78125 6.390625 
Q 39.453125 6.390625 43.28125 13.890625 
Q 47.125 21.390625 47.125 36.375 
Q 47.125 51.421875 43.28125 58.90625 
Q 39.453125 66.40625 31.78125 66.40625 
z
M 31.78125 74.21875 
Q 44.046875 74.21875 50.515625 64.515625 
Q 56.984375 54.828125 56.984375 36.375 
Q 56.984375 17.96875 50.515625 8.265625 
Q 44.046875 -1.421875 31.78125 -1.421875 
Q 19.53125 -1.421875 13.0625 8.265625 
Q 6.59375 17.96875 6.59375 36.375 
Q 6.59375 54.828125 13.0625 64.515625 
Q 19.53125 74.21875 31.78125 74.21875 
z
" id="DejaVuSans-48"/>
      </defs>
      <g transform="translate(379.508236 83.541597)scale(0.16 -0.16)">
       <use xlink:href="#DejaVuSans-49"/>
       <use x="63.623047" xlink:href="#DejaVuSans-48"/>
      </g>
     </g>
    </g>
    <g id="xtick_4">
     <g id="line2d_4">
      <path clip-path="url(#p42a76606b5)" d="M 295.2 286.56 
L 425.253154 112.300622 
" style="fill:none;stroke:#000000;stroke-linecap:square;stroke-width:0.25;"/>
     </g>
     <g id="text_4">
      <!-- 15 -->
      <g transform="translate(421.353314 108.300779)scale(0.16 -0.16)">
       <use xlink:href="#DejaVuSans-49"/>
       <use x="63.623047" xlink:href="#DejaVuSans-53"/>
      </g>
     </g>
    </g>
    <g id="xtick_5">
     <g id="line2d_5">
      <path clip-path="url(#p42a76606b5)" d="M 295.2 286.56 
L 459.253229 143.848082 
" style="fill:none;stroke:#000000;stroke-linecap:square;stroke-width:0.25;"/>
     </g>
     <g id="text_5">
      <!-- 20 -->
      <defs>
       <path d="M 19.1875 8.296875 
L 53.609375 8.296875 
L 53.609375 0 
L 7.328125 0 
L 7.328125 8.296875 
Q 12.9375 14.109375 22.625 23.890625 
Q 32.328125 33.6875 34.8125 36.53125 
Q 39.546875 41.84375 41.421875 45.53125 
Q 43.3125 49.21875 43.3125 52.78125 
Q 43.3125 58.59375 39.234375 62.25 
Q 35.15625 65.921875 28.609375 65.921875 
Q 23.96875 65.921875 18.8125 64.3125 
Q 13.671875 62.703125 7.8125 59.421875 
L 7.8125 69.390625 
Q 13.765625 71.78125 18.9375 73 
Q 24.125 74.21875 28.421875 74.21875 
Q 39.75 74.21875 46.484375 68.546875 
Q 53.21875 62.890625 53.21875 53.421875 
Q 53.21875 48.921875 51.53125 44.890625 
Q 49.859375 40.875 45.40625 35.40625 
Q 44.1875 33.984375 37.640625 27.21875 
Q 31.109375 20.453125 19.1875 8.296875 
z
" id="DejaVuSans-50"/>
      </defs>
      <g transform="translate(456.995225 141.37164)scale(0.16 -0.16)">
       <use xlink:href="#DejaVuSans-50"/>
       <use x="63.623047" xlink:href="#DejaVuSans-48"/>
      </g>
     </g>
    </g>
    <g id="xtick_6">
     <g id="line2d_6">
      <path clip-path="url(#p42a76606b5)" d="M 295.2 286.56 
L 485.788881 181.888934 
" style="fill:none;stroke:#000000;stroke-linecap:square;stroke-width:0.25;"/>
     </g>
     <g id="text_6">
      <!-- 25 -->
      <g transform="translate(484.812263 181.249454)scale(0.16 -0.16)">
       <use xlink:href="#DejaVuSans-50"/>
       <use x="63.623047" xlink:href="#DejaVuSans-53"/>
      </g>
     </g>
    </g>
    <g id="xtick_7">
     <g id="line2d_7">
      <path clip-path="url(#p42a76606b5)" d="M 295.2 286.56 
L 503.652738 224.692322 
" style="fill:none;stroke:#000000;stroke-linecap:square;stroke-width:0.25;"/>
     </g>
     <g id="text_7">
      <!-- 30 -->
      <defs>
       <path d="M 40.578125 39.3125 
Q 47.65625 37.796875 51.625 33 
Q 55.609375 28.21875 55.609375 21.1875 
Q 55.609375 10.40625 48.1875 4.484375 
Q 40.765625 -1.421875 27.09375 -1.421875 
Q 22.515625 -1.421875 17.65625 -0.515625 
Q 12.796875 0.390625 7.625 2.203125 
L 7.625 11.71875 
Q 11.71875 9.328125 16.59375 8.109375 
Q 21.484375 6.890625 26.8125 6.890625 
Q 36.078125 6.890625 40.9375 10.546875 
Q 45.796875 14.203125 45.796875 21.1875 
Q 45.796875 27.640625 41.28125 31.265625 
Q 36.765625 34.90625 28.71875 34.90625 
L 20.21875 34.90625 
L 20.21875 43.015625 
L 29.109375 43.015625 
Q 36.375 43.015625 40.234375 45.921875 
Q 44.09375 48.828125 44.09375 54.296875 
Q 44.09375 59.90625 40.109375 62.90625 
Q 36.140625 65.921875 28.71875 65.921875 
Q 24.65625 65.921875 20.015625 65.03125 
Q 15.375 64.15625 9.8125 62.3125 
L 9.8125 71.09375 
Q 15.4375 72.65625 20.34375 73.4375 
Q 25.25 74.21875 29.59375 74.21875 
Q 40.828125 74.21875 47.359375 69.109375 
Q 53.90625 64.015625 53.90625 55.328125 
Q 53.90625 49.265625 50.4375 45.09375 
Q 46.96875 40.921875 40.578125 39.3125 
z
" id="DejaVuSans-51"/>
      </defs>
      <g transform="translate(503.53875 226.119782)scale(0.16 -0.16)">
       <use xlink:href="#DejaVuSans-51"/>
       <use x="63.623047" xlink:href="#DejaVuSans-48"/>
      </g>
     </g>
    </g>
    <g id="xtick_8">
     <g id="line2d_8">
      <path clip-path="url(#p42a76606b5)" d="M 295.2 286.56 
L 512.031994 270.310688 
" style="fill:none;stroke:#000000;stroke-linecap:square;stroke-width:0.25;"/>
     </g>
     <g id="text_8">
      <!-- 35 -->
      <g transform="translate(512.322634 273.941022)scale(0.16 -0.16)">
       <use xlink:href="#DejaVuSans-51"/>
       <use x="63.623047" xlink:href="#DejaVuSans-53"/>
      </g>
     </g>
    </g>
    <g id="xtick_9">
     <g id="line2d_9">
      <path clip-path="url(#p42a76606b5)" d="M 295.2 286.56 
L 510.545392 316.668399 
" style="fill:none;stroke:#000000;stroke-linecap:square;stroke-width:0.25;"/>
     </g>
     <g id="text_9">
      <!-- 40 -->
      <defs>
       <path d="M 37.796875 64.3125 
L 12.890625 25.390625 
L 37.796875 25.390625 
z
M 35.203125 72.90625 
L 47.609375 72.90625 
L 47.609375 25.390625 
L 58.015625 25.390625 
L 58.015625 17.1875 
L 47.609375 17.1875 
L 47.609375 0 
L 37.796875 0 
L 37.796875 17.1875 
L 4.890625 17.1875 
L 4.890625 26.703125 
z
" id="DejaVuSans-52"/>
      </defs>
      <g transform="translate(510.764245 322.537309)scale(0.16 -0.16)">
       <use xlink:href="#DejaVuSans-52"/>
       <use x="63.623047" xlink:href="#DejaVuSans-48"/>
      </g>
     </g>
    </g>
    <g id="xtick_10">
     <g id="line2d_10">
      <path clip-path="url(#p42a76606b5)" d="M 295.2 286.56 
L 499.260574 361.656177 
" style="fill:none;stroke:#000000;stroke-linecap:square;stroke-width:0.25;"/>
     </g>
     <g id="text_10">
      <!-- 45 -->
      <g transform="translate(498.934492 369.697511)scale(0.16 -0.16)">
       <use xlink:href="#DejaVuSans-52"/>
       <use x="63.623047" xlink:href="#DejaVuSans-53"/>
      </g>
     </g>
    </g>
    <g id="xtick_11">
     <g id="line2d_11">
      <path clip-path="url(#p42a76606b5)" d="M 295.2 286.56 
L 478.690998 403.227079 
" style="fill:none;stroke:#000000;stroke-linecap:square;stroke-width:0.25;"/>
     </g>
     <g id="text_11">
      <!-- 50 -->
      <g transform="translate(477.371628 413.275837)scale(0.16 -0.16)">
       <use xlink:href="#DejaVuSans-53"/>
       <use x="63.623047" xlink:href="#DejaVuSans-48"/>
      </g>
     </g>
    </g>
    <g id="xtick_12">
     <g id="line2d_12">
      <path clip-path="url(#p42a76606b5)" d="M 295.2 286.56 
L 449.77258 439.489628 
" style="fill:none;stroke:#000000;stroke-linecap:square;stroke-width:0.25;"/>
     </g>
     <g id="text_12">
      <!-- 55 -->
      <g transform="translate(447.056764 451.289475)scale(0.16 -0.16)">
       <use xlink:href="#DejaVuSans-53"/>
       <use x="63.623047" xlink:href="#DejaVuSans-53"/>
      </g>
     </g>
    </g>
    <g id="xtick_13">
     <g id="line2d_13">
      <path clip-path="url(#p42a76606b5)" d="M 295.2 286.56 
L 413.821109 468.793878 
" style="fill:none;stroke:#000000;stroke-linecap:square;stroke-width:0.25;"/>
     </g>
     <g id="text_13">
      <!-- 60 -->
      <defs>
       <path d="M 33.015625 40.375 
Q 26.375 40.375 22.484375 35.828125 
Q 18.609375 31.296875 18.609375 23.390625 
Q 18.609375 15.53125 22.484375 10.953125 
Q 26.375 6.390625 33.015625 6.390625 
Q 39.65625 6.390625 43.53125 10.953125 
Q 47.40625 15.53125 47.40625 23.390625 
Q 47.40625 31.296875 43.53125 35.828125 
Q 39.65625 40.375 33.015625 40.375 
z
M 52.59375 71.296875 
L 52.59375 62.3125 
Q 48.875 64.0625 45.09375 64.984375 
Q 41.3125 65.921875 37.59375 65.921875 
Q 27.828125 65.921875 22.671875 59.328125 
Q 17.53125 52.734375 16.796875 39.40625 
Q 19.671875 43.65625 24.015625 45.921875 
Q 28.375 48.1875 33.59375 48.1875 
Q 44.578125 48.1875 50.953125 41.515625 
Q 57.328125 34.859375 57.328125 23.390625 
Q 57.328125 12.15625 50.6875 5.359375 
Q 44.046875 -1.421875 33.015625 -1.421875 
Q 20.359375 -1.421875 13.671875 8.265625 
Q 6.984375 17.96875 6.984375 36.375 
Q 6.984375 53.65625 15.1875 63.9375 
Q 23.390625 74.21875 37.203125 74.21875 
Q 40.921875 74.21875 44.703125 73.484375 
Q 48.484375 72.75 52.59375 71.296875 
z
" id="DejaVuSans-54"/>
      </defs>
      <g transform="translate(409.369225 482.008803)scale(0.16 -0.16)">
       <use xlink:href="#DejaVuSans-54"/>
       <use x="63.623047" xlink:href="#DejaVuSans-48"/>
      </g>
     </g>
    </g>
    <g id="xtick_14">
     <g id="line2d_14">
      <path clip-path="url(#p42a76606b5)" d="M 295.2 286.56 
L 372.472376 489.806484 
" style="fill:none;stroke:#000000;stroke-linecap:square;stroke-width:0.25;"/>
     </g>
     <g id="text_14">
      <!-- 65 -->
      <g transform="translate(366.023796 504.036091)scale(0.16 -0.16)">
       <use xlink:href="#DejaVuSans-54"/>
       <use x="63.623047" xlink:href="#DejaVuSans-53"/>
      </g>
     </g>
    </g>
    <g id="xtick_15">
     <g id="line2d_15">
      <path clip-path="url(#p42a76606b5)" d="M 295.2 286.56 
L 327.60775 501.571375 
" style="fill:none;stroke:#000000;stroke-linecap:square;stroke-width:0.25;"/>
     </g>
     <g id="text_15">
      <!-- 70 -->
      <defs>
       <path d="M 8.203125 72.90625 
L 55.078125 72.90625 
L 55.078125 68.703125 
L 28.609375 0 
L 18.3125 0 
L 43.21875 64.59375 
L 8.203125 64.59375 
z
" id="DejaVuSans-55"/>
      </defs>
      <g transform="translate(318.992694 516.369099)scale(0.16 -0.16)">
       <use xlink:href="#DejaVuSans-55"/>
       <use x="63.623047" xlink:href="#DejaVuSans-48"/>
      </g>
     </g>
    </g>
    <g id="xtick_16">
     <g id="line2d_16">
      <path clip-path="url(#p42a76606b5)" d="M 295.2 286.56 
L 281.268571 503.553246 
" style="fill:none;stroke:#000000;stroke-linecap:square;stroke-width:0.25;"/>
     </g>
     <g id="text_16">
      <!-- 75 -->
      <g transform="translate(270.415834 518.446673)scale(0.16 -0.16)">
       <use xlink:href="#DejaVuSans-55"/>
       <use x="63.623047" xlink:href="#DejaVuSans-53"/>
      </g>
     </g>
    </g>
    <g id="xtick_17">
     <g id="line2d_17">
      <path clip-path="url(#p42a76606b5)" d="M 295.2 286.56 
L 235.563272 495.661923 
" style="fill:none;stroke:#000000;stroke-linecap:square;stroke-width:0.25;"/>
     </g>
     <g id="text_17">
      <!-- 80 -->
      <defs>
       <path d="M 31.78125 34.625 
Q 24.75 34.625 20.71875 30.859375 
Q 16.703125 27.09375 16.703125 20.515625 
Q 16.703125 13.921875 20.71875 10.15625 
Q 24.75 6.390625 31.78125 6.390625 
Q 38.8125 6.390625 42.859375 10.171875 
Q 46.921875 13.96875 46.921875 20.515625 
Q 46.921875 27.09375 42.890625 30.859375 
Q 38.875 34.625 31.78125 34.625 
z
M 21.921875 38.8125 
Q 15.578125 40.375 12.03125 44.71875 
Q 8.5 49.078125 8.5 55.328125 
Q 8.5 64.0625 14.71875 69.140625 
Q 20.953125 74.21875 31.78125 74.21875 
Q 42.671875 74.21875 48.875 69.140625 
Q 55.078125 64.0625 55.078125 55.328125 
Q 55.078125 49.078125 51.53125 44.71875 
Q 48 40.375 41.703125 38.8125 
Q 48.828125 37.15625 52.796875 32.3125 
Q 56.78125 27.484375 56.78125 20.515625 
Q 56.78125 9.90625 50.3125 4.234375 
Q 43.84375 -1.421875 31.78125 -1.421875 
Q 19.734375 -1.421875 13.25 4.234375 
Q 6.78125 9.90625 6.78125 20.515625 
Q 6.78125 27.484375 10.78125 32.3125 
Q 14.796875 37.15625 21.921875 38.8125 
z
M 18.3125 54.390625 
Q 18.3125 48.734375 21.84375 45.5625 
Q 25.390625 42.390625 31.78125 42.390625 
Q 38.140625 42.390625 41.71875 45.5625 
Q 45.3125 48.734375 45.3125 54.390625 
Q 45.3125 60.0625 41.71875 63.234375 
Q 38.140625 66.40625 31.78125 66.40625 
Q 25.390625 66.40625 21.84375 63.234375 
Q 18.3125 60.0625 18.3125 54.390625 
z
" id="DejaVuSans-56"/>
      </defs>
      <g transform="translate(222.503464 510.174284)scale(0.16 -0.16)">
       <use xlink:href="#DejaVuSans-56"/>
       <use x="63.623047" xlink:href="#DejaVuSans-48"/>
      </g>
     </g>
    </g>
    <g id="xtick_18">
     <g id="line2d_18">
      <path clip-path="url(#p42a76606b5)" d="M 295.2 286.56 
L 192.571445 478.256461 
" style="fill:none;stroke:#000000;stroke-linecap:square;stroke-width:0.25;"/>
     </g>
     <g id="text_18">
      <!-- 85 -->
      <g transform="translate(177.435596 491.928327)scale(0.16 -0.16)">
       <use xlink:href="#DejaVuSans-56"/>
       <use x="63.623047" xlink:href="#DejaVuSans-53"/>
      </g>
     </g>
    </g>
    <g id="xtick_19">
     <g id="line2d_19">
      <path clip-path="url(#p42a76606b5)" d="M 295.2 286.56 
L 154.249218 452.128809 
" style="fill:none;stroke:#000000;stroke-linecap:square;stroke-width:0.25;"/>
     </g>
     <g id="text_19">
      <!-- 90 -->
      <defs>
       <path d="M 10.984375 1.515625 
L 10.984375 10.5 
Q 14.703125 8.734375 18.5 7.8125 
Q 22.3125 6.890625 25.984375 6.890625 
Q 35.75 6.890625 40.890625 13.453125 
Q 46.046875 20.015625 46.78125 33.40625 
Q 43.953125 29.203125 39.59375 26.953125 
Q 35.25 24.703125 29.984375 24.703125 
Q 19.046875 24.703125 12.671875 31.3125 
Q 6.296875 37.9375 6.296875 49.421875 
Q 6.296875 60.640625 12.9375 67.421875 
Q 19.578125 74.21875 30.609375 74.21875 
Q 43.265625 74.21875 49.921875 64.515625 
Q 56.59375 54.828125 56.59375 36.375 
Q 56.59375 19.140625 48.40625 8.859375 
Q 40.234375 -1.421875 26.421875 -1.421875 
Q 22.703125 -1.421875 18.890625 -0.6875 
Q 15.09375 0.046875 10.984375 1.515625 
z
M 30.609375 32.421875 
Q 37.25 32.421875 41.125 36.953125 
Q 45.015625 41.5 45.015625 49.421875 
Q 45.015625 57.28125 41.125 61.84375 
Q 37.25 66.40625 30.609375 66.40625 
Q 23.96875 66.40625 20.09375 61.84375 
Q 16.21875 57.28125 16.21875 49.421875 
Q 16.21875 41.5 20.09375 36.953125 
Q 23.96875 32.421875 30.609375 32.421875 
z
" id="DejaVuSans-57"/>
      </defs>
      <g transform="translate(137.26282 464.538992)scale(0.16 -0.16)">
       <use xlink:href="#DejaVuSans-57"/>
       <use x="63.623047" xlink:href="#DejaVuSans-48"/>
      </g>
     </g>
    </g>
    <g id="xtick_20">
     <g id="line2d_20">
      <path clip-path="url(#p42a76606b5)" d="M 295.2 286.56 
L 122.340252 418.467775 
" style="fill:none;stroke:#000000;stroke-linecap:square;stroke-width:0.25;"/>
     </g>
     <g id="text_20">
      <!-- 95 -->
      <g transform="translate(103.812996 429.252494)scale(0.16 -0.16)">
       <use xlink:href="#DejaVuSans-57"/>
       <use x="63.623047" xlink:href="#DejaVuSans-53"/>
      </g>
     </g>
    </g>
    <g id="xtick_21">
     <g id="line2d_21">
      <path clip-path="url(#p42a76606b5)" d="M 295.2 286.56 
L 98.296406 378.804936 
" style="fill:none;stroke:#000000;stroke-linecap:square;stroke-width:0.25;"/>
     </g>
     <g id="text_21">
      <!-- 100 -->
      <g transform="translate(73.518092 387.674369)scale(0.16 -0.16)">
       <use xlink:href="#DejaVuSans-49"/>
       <use x="63.623047" xlink:href="#DejaVuSans-48"/>
       <use x="127.246094" xlink:href="#DejaVuSans-48"/>
      </g>
     </g>
    </g>
    <g id="xtick_22">
     <g id="line2d_22">
      <path clip-path="url(#p42a76606b5)" d="M 295.2 286.56 
L 83.211675 334.944952 
" style="fill:none;stroke:#000000;stroke-linecap:square;stroke-width:0.25;"/>
     </g>
     <g id="text_22">
      <!-- 105 -->
      <g transform="translate(57.704932 341.696422)scale(0.16 -0.16)">
       <use xlink:href="#DejaVuSans-49"/>
       <use x="63.623047" xlink:href="#DejaVuSans-48"/>
       <use x="127.246094" xlink:href="#DejaVuSans-53"/>
      </g>
     </g>
    </g>
    <g id="xtick_23">
     <g id="line2d_23">
      <path clip-path="url(#p42a76606b5)" d="M 295.2 286.56 
L 77.772414 288.883452 
" style="fill:none;stroke:#000000;stroke-linecap:square;stroke-width:0.25;"/>
     </g>
     <g id="text_23">
      <!-- 110 -->
      <g transform="translate(52.003013 293.41065)scale(0.16 -0.16)">
       <use xlink:href="#DejaVuSans-49"/>
       <use x="63.623047" xlink:href="#DejaVuSans-49"/>
       <use x="127.246094" xlink:href="#DejaVuSans-48"/>
      </g>
     </g>
    </g>
    <g id="xtick_24">
     <g id="line2d_24">
      <path clip-path="url(#p42a76606b5)" d="M 295.2 286.56 
L 82.22611 242.716235 
" style="fill:none;stroke:#000000;stroke-linecap:square;stroke-width:0.25;"/>
     </g>
     <g id="text_24">
      <!-- 115 -->
      <g transform="translate(56.671775 245.014056)scale(0.16 -0.16)">
       <use xlink:href="#DejaVuSans-49"/>
       <use x="63.623047" xlink:href="#DejaVuSans-49"/>
       <use x="127.246094" xlink:href="#DejaVuSans-53"/>
      </g>
     </g>
    </g>
    <g id="xtick_25">
     <g id="line2d_25">
      <path clip-path="url(#p42a76606b5)" d="M 295.2 286.56 
L 96.370119 198.54391 
" style="fill:none;stroke:#000000;stroke-linecap:square;stroke-width:0.25;"/>
     </g>
     <g id="text_25">
      <!-- 120 -->
      <g transform="translate(71.498787 198.708685)scale(0.16 -0.16)">
       <use xlink:href="#DejaVuSans-49"/>
       <use x="63.623047" xlink:href="#DejaVuSans-50"/>
       <use x="127.246094" xlink:href="#DejaVuSans-48"/>
      </g>
     </g>
    </g>
    <g id="xtick_26">
     <g id="line2d_26">
      <path clip-path="url(#p42a76606b5)" d="M 295.2 286.56 
L 119.56089 158.376317 
" style="fill:none;stroke:#000000;stroke-linecap:square;stroke-width:0.25;"/>
     </g>
     <g id="text_26">
      <!-- 125 -->
      <g transform="translate(95.80942 156.601432)scale(0.16 -0.16)">
       <use xlink:href="#DejaVuSans-49"/>
       <use x="63.623047" xlink:href="#DejaVuSans-50"/>
       <use x="127.246094" xlink:href="#DejaVuSans-53"/>
      </g>
     </g>
    </g>
    <g id="xtick_27">
     <g id="line2d_27">
      <path clip-path="url(#p42a76606b5)" d="M 295.2 286.56 
L 150.743241 124.041083 
" style="fill:none;stroke:#000000;stroke-linecap:square;stroke-width:0.25;"/>
     </g>
     <g id="text_27">
      <!-- 130 -->
      <g transform="translate(128.497542 120.608177)scale(0.16 -0.16)">
       <use xlink:href="#DejaVuSans-49"/>
       <use x="63.623047" xlink:href="#DejaVuSans-51"/>
       <use x="127.246094" xlink:href="#DejaVuSans-48"/>
      </g>
     </g>
    </g>
    <g id="xtick_28">
     <g id="line2d_28">
      <path clip-path="url(#p42a76606b5)" d="M 295.2 286.56 
L 188.498375 97.100461 
" style="fill:none;stroke:#000000;stroke-linecap:square;stroke-width:0.25;"/>
     </g>
     <g id="text_28">
      <!-- 135 -->
      <g transform="translate(168.075841 92.366615)scale(0.16 -0.16)">
       <use xlink:href="#DejaVuSans-49"/>
       <use x="63.623047" xlink:href="#DejaVuSans-51"/>
       <use x="127.246094" xlink:href="#DejaVuSans-53"/>
      </g>
     </g>
    </g>
    <g id="xtick_29">
     <g id="line2d_29">
      <path clip-path="url(#p42a76606b5)" d="M 295.2 286.56 
L 231.108435 78.780249 
" style="fill:none;stroke:#000000;stroke-linecap:square;stroke-width:0.25;"/>
     </g>
     <g id="text_29">
      <!-- 140 -->
      <g transform="translate(212.743506 73.161735)scale(0.16 -0.16)">
       <use xlink:href="#DejaVuSans-49"/>
       <use x="63.623047" xlink:href="#DejaVuSans-52"/>
       <use x="127.246094" xlink:href="#DejaVuSans-48"/>
      </g>
     </g>
    </g>
    <g id="xtick_30">
     <g id="line2d_30">
      <path clip-path="url(#p42a76606b5)" d="M 295.2 286.56 
L 276.634661 69.914017 
" style="fill:none;stroke:#000000;stroke-linecap:square;stroke-width:0.25;"/>
     </g>
     <g id="text_30">
      <!-- 145 -->
      <g transform="translate(260.468156 63.86736)scale(0.16 -0.16)">
       <use xlink:href="#DejaVuSans-49"/>
       <use x="63.623047" xlink:href="#DejaVuSans-52"/>
       <use x="127.246094" xlink:href="#DejaVuSans-53"/>
      </g>
     </g>
    </g>
   </g>
   <g id="matplotlib.axis_2">
    <g id="ytick_1">
     <g id="line2d_31">
      <path clip-path="url(#p42a76606b5)" d="M 295.2 286.56 
L 295.2 286.56 
" style="fill:none;stroke:#000000;stroke-linecap:square;stroke-width:0.25;"/>
     </g>
     <g id="text_31">
      <!-- 0 -->
      <g transform="translate(295.2 283.2325)scale(0.16 -0.16)">
       <use xlink:href="#DejaVuSans-48"/>
      </g>
     </g>
    </g>
    <g id="ytick_2">
     <g id="line2d_32">
      <path clip-path="url(#p42a76606b5)" d="M 295.2 243.072 
L 298.23357 243.177935 
L 301.25236 243.495222 
L 304.241664 244.022317 
L 307.186917 244.756651 
L 310.073772 245.694647 
L 312.888163 246.831735 
L 315.616379 248.162375 
L 318.245129 249.680084 
L 320.761605 251.377469 
L 323.153548 253.246259 
L 325.409303 255.277351 
L 327.517882 257.460848 
L 329.469012 259.786114 
L 331.253186 262.241819 
L 332.861713 264.816 
L 334.286755 267.496116 
L 335.521371 270.269108 
L 336.559546 273.121469 
L 337.396221 276.039301 
L 338.02732 279.008388 
L 338.449768 282.014266 
L 338.661508 285.042291 
L 338.661508 288.077709 
L 338.449768 291.105734 
L 338.02732 294.111612 
L 337.396221 297.080699 
L 336.559546 299.998531 
L 335.521371 302.850892 
L 334.286755 305.623884 
L 332.861713 308.304 
L 331.253186 310.878181 
L 329.469012 313.333886 
L 327.517882 315.659152 
L 325.409303 317.842649 
L 323.153548 319.873741 
L 320.761605 321.742531 
L 318.245129 323.439916 
L 315.616379 324.957625 
L 312.888163 326.288265 
L 310.073772 327.425353 
L 307.186917 328.363349 
L 304.241664 329.097683 
L 301.25236 329.624778 
L 298.23357 329.942065 
L 295.2 330.048 
L 292.16643 329.942065 
L 289.14764 329.624778 
L 286.158336 329.097683 
L 283.213083 328.363349 
L 280.326228 327.425353 
L 277.511837 326.288265 
L 274.783621 324.957625 
L 272.154871 323.439916 
L 269.638395 321.742531 
L 267.246452 319.873741 
L 264.990697 317.842649 
L 262.882118 315.659152 
L 260.930988 313.333886 
L 259.146814 310.878181 
L 257.538287 308.304 
L 256.113245 305.623884 
L 254.878629 302.850892 
L 253.840454 299.998531 
L 253.003779 297.080699 
L 252.37268 294.111612 
L 251.950232 291.105734 
L 251.738492 288.077709 
L 251.738492 285.042291 
L 251.950232 282.014266 
L 252.37268 279.008388 
L 253.003779 276.039301 
L 253.840454 273.121469 
L 254.878629 270.269108 
L 256.113245 267.496116 
L 257.538287 264.816 
L 259.146814 262.241819 
L 260.930988 259.786114 
L 262.882118 257.460848 
L 264.990697 255.277351 
L 267.246452 253.246259 
L 269.638395 251.377469 
L 272.154871 249.680084 
L 274.783621 248.162375 
L 277.511837 246.831735 
L 280.326228 245.694647 
L 283.213083 244.756651 
L 286.158336 244.022317 
L 289.14764 243.495222 
L 292.16643 243.177935 
L 295.2 243.072 
L 295.2 243.072 
" style="fill:none;stroke:#000000;stroke-linecap:square;stroke-width:0.25;"/>
     </g>
     <g id="text_32">
      <!-- 5 -->
      <g transform="translate(338.681377 282.47353)scale(0.16 -0.16)">
       <use xlink:href="#DejaVuSans-53"/>
      </g>
     </g>
    </g>
    <g id="ytick_3">
     <g id="line2d_33">
      <path clip-path="url(#p42a76606b5)" d="M 295.2 199.584 
L 301.267139 199.795869 
L 307.30472 200.430444 
L 313.283327 201.484634 
L 319.173835 202.953303 
L 324.947544 204.829295 
L 330.576326 207.10347 
L 336.032759 209.76475 
L 341.290258 212.800169 
L 346.32321 216.194938 
L 351.107095 219.932519 
L 355.618606 223.994702 
L 359.835764 228.361696 
L 363.738023 233.012228 
L 367.306372 237.923638 
L 370.523426 243.072 
L 373.373511 248.432231 
L 375.842743 253.978217 
L 377.919092 259.682938 
L 379.592441 265.518601 
L 380.854639 271.456776 
L 381.699536 277.468532 
L 382.123017 283.524581 
L 382.123017 289.595419 
L 381.699536 295.651468 
L 380.854639 301.663224 
L 379.592441 307.601399 
L 377.919092 313.437062 
L 375.842743 319.141783 
L 373.373511 324.687769 
L 370.523426 330.048 
L 367.306372 335.196362 
L 363.738023 340.107772 
L 359.835764 344.758304 
L 355.618606 349.125298 
L 351.107095 353.187481 
L 346.32321 356.925062 
L 341.290258 360.319831 
L 336.032759 363.35525 
L 330.576326 366.01653 
L 324.947544 368.290705 
L 319.173835 370.166697 
L 313.283327 371.635366 
L 307.30472 372.689556 
L 301.267139 373.324131 
L 295.2 373.536 
L 289.132861 373.324131 
L 283.09528 372.689556 
L 277.116673 371.635366 
L 271.226165 370.166697 
L 265.452456 368.290705 
L 259.823674 366.01653 
L 254.367241 363.35525 
L 249.109742 360.319831 
L 244.07679 356.925062 
L 239.292905 353.187481 
L 234.781394 349.125298 
L 230.564236 344.758304 
L 226.661977 340.107772 
L 223.093628 335.196362 
L 219.876574 330.048 
L 217.026489 324.687769 
L 214.557257 319.141783 
L 212.480908 313.437062 
L 210.807559 307.601399 
L 209.545361 301.663224 
L 208.700464 295.651468 
L 208.276983 289.595419 
L 208.276983 283.524581 
L 208.700464 277.468532 
L 209.545361 271.456776 
L 210.807559 265.518601 
L 212.480908 259.682938 
L 214.557257 253.978217 
L 217.026489 248.432231 
L 219.876574 243.072 
L 223.093628 237.923638 
L 226.661977 233.012228 
L 230.564236 228.361696 
L 234.781394 223.994702 
L 239.292905 219.932519 
L 244.07679 216.194938 
L 249.109742 212.800169 
L 254.367241 209.76475 
L 259.823674 207.10347 
L 265.452456 204.829295 
L 271.226165 202.953303 
L 277.116673 201.484634 
L 283.09528 200.430444 
L 289.132861 199.795869 
L 295.2 199.584 
L 295.2 199.584 
" style="fill:none;stroke:#000000;stroke-linecap:square;stroke-width:0.25;"/>
     </g>
     <g id="text_33">
      <!-- 10 -->
      <g transform="translate(382.162753 281.714559)scale(0.16 -0.16)">
       <use xlink:href="#DejaVuSans-49"/>
       <use x="63.623047" xlink:href="#DejaVuSans-48"/>
      </g>
     </g>
    </g>
    <g id="ytick_4">
     <g id="line2d_34">
      <path clip-path="url(#p42a76606b5)" d="M 295.2 156.096 
L 299.753128 156.175475 
L 304.300709 156.413804 
L 308.837201 156.810695 
L 313.357079 157.365667 
L 317.854836 158.078041 
L 322.324991 158.946951 
L 326.762098 159.971338 
L 331.160752 161.149954 
L 335.515593 162.481363 
L 339.821316 163.963942 
L 344.072675 165.595886 
L 348.264489 167.375205 
L 352.391653 169.299734 
L 356.449138 171.367125 
L 360.432 173.574862 
L 364.335387 175.920253 
L 368.154543 178.400442 
L 371.884815 181.012407 
L 375.521659 183.752965 
L 379.060643 186.618778 
L 382.497455 189.606353 
L 385.82791 192.712052 
L 389.047948 195.93209 
L 392.153647 199.262545 
L 395.141222 202.699357 
L 398.007035 206.238341 
L 400.747593 209.875185 
L 403.359558 213.605457 
L 405.839747 217.424613 
L 408.185138 221.328 
L 410.392875 225.310862 
L 412.460266 229.368347 
L 414.384795 233.495511 
L 416.164114 237.687325 
L 417.796058 241.938684 
L 419.278637 246.244407 
L 420.610046 250.599248 
L 421.788662 254.997902 
L 422.813049 259.435009 
L 423.681959 263.905164 
L 424.394333 268.402921 
L 424.949305 272.922799 
L 425.346196 277.459291 
L 425.584525 282.006872 
L 425.664 286.56 
L 425.584525 291.113128 
L 425.346196 295.660709 
L 424.949305 300.197201 
L 424.394333 304.717079 
L 423.681959 309.214836 
L 422.813049 313.684991 
L 421.788662 318.122098 
L 420.610046 322.520752 
L 419.278637 326.875593 
L 417.796058 331.181316 
L 416.164114 335.432675 
L 414.384795 339.624489 
L 412.460266 343.751653 
L 410.392875 347.809138 
L 408.185138 351.792 
L 405.839747 355.695387 
L 403.359558 359.514543 
L 400.747593 363.244815 
L 398.007035 366.881659 
L 395.141222 370.420643 
L 392.153647 373.857455 
L 389.047948 377.18791 
L 385.82791 380.407948 
L 382.497455 383.513647 
L 379.060643 386.501222 
L 375.521659 389.367035 
L 371.884815 392.107593 
L 368.154543 394.719558 
L 364.335387 397.199747 
L 360.432 399.545138 
L 356.449138 401.752875 
L 352.391653 403.820266 
L 348.264489 405.744795 
L 344.072675 407.524114 
L 339.821316 409.156058 
L 335.515593 410.638637 
L 331.160752 411.970046 
L 326.762098 413.148662 
L 322.324991 414.173049 
L 317.854836 415.041959 
L 313.357079 415.754333 
L 308.837201 416.309305 
L 304.300709 416.706196 
L 299.753128 416.944525 
L 295.2 417.024 
L 290.646872 416.944525 
L 286.099291 416.706196 
L 281.562799 416.309305 
L 277.042921 415.754333 
L 272.545164 415.041959 
L 268.075009 414.173049 
L 263.637902 413.148662 
L 259.239248 411.970046 
L 254.884407 410.638637 
L 250.578684 409.156058 
L 246.327325 407.524114 
L 242.135511 405.744795 
L 238.008347 403.820266 
L 233.950862 401.752875 
L 229.968 399.545138 
L 226.064613 397.199747 
L 222.245457 394.719558 
L 218.515185 392.107593 
L 214.878341 389.367035 
L 211.339357 386.501222 
L 207.902545 383.513647 
L 204.57209 380.407948 
L 201.352052 377.18791 
L 198.246353 373.857455 
L 195.258778 370.420643 
L 192.392965 366.881659 
L 189.652407 363.244815 
L 187.040442 359.514543 
L 184.560253 355.695387 
L 182.214862 351.792 
L 180.007125 347.809138 
L 177.939734 343.751653 
L 176.015205 339.624489 
L 174.235886 335.432675 
L 172.603942 331.181316 
L 171.121363 326.875593 
L 169.789954 322.520752 
L 168.611338 318.122098 
L 167.586951 313.684991 
L 166.718041 309.214836 
L 166.005667 304.717079 
L 165.450695 300.197201 
L 165.053804 295.660709 
L 164.815475 291.113128 
L 164.736 286.56 
L 164.815475 282.006872 
L 165.053804 277.459291 
L 165.450695 272.922799 
L 166.005667 268.402921 
L 166.718041 263.905164 
L 167.586951 259.435009 
L 168.611338 254.997902 
L 169.789954 250.599248 
L 171.121363 246.244407 
L 172.603942 241.938684 
L 174.235886 237.687325 
L 176.015205 233.495511 
L 177.939734 229.368347 
L 180.007125 225.310862 
L 182.214862 221.328 
L 184.560253 217.424613 
L 187.040442 213.605457 
L 189.652407 209.875185 
L 192.392965 206.238341 
L 195.258778 202.699357 
L 198.246353 199.262545 
L 201.352052 195.93209 
L 204.57209 192.712052 
L 207.902545 189.606353 
L 211.339357 186.618778 
L 214.878341 183.752965 
L 218.515185 181.012407 
L 222.245457 178.400442 
L 226.064613 175.920253 
L 229.968 173.574862 
L 233.950862 171.367125 
L 238.008347 169.299734 
L 242.135511 167.375205 
L 246.327325 165.595886 
L 250.578684 163.963942 
L 254.884407 162.481363 
L 259.239248 161.149954 
L 263.637902 159.971338 
L 268.075009 158.946951 
L 272.545164 158.078041 
L 277.042921 157.365667 
L 281.562799 156.810695 
L 286.099291 156.413804 
L 290.646872 156.175475 
L 295.2 156.096 
L 295.2 156.096 
" style="fill:none;stroke:#000000;stroke-linecap:square;stroke-width:0.25;"/>
     </g>
     <g id="text_34">
      <!-- 15 -->
      <g transform="translate(425.64413 280.955589)scale(0.16 -0.16)">
       <use xlink:href="#DejaVuSans-49"/>
       <use x="63.623047" xlink:href="#DejaVuSans-53"/>
      </g>
     </g>
    </g>
    <g id="ytick_5">
     <g id="line2d_35">
      <path clip-path="url(#p42a76606b5)" d="M 295.2 112.608 
L 301.270837 112.713967 
L 307.334278 113.031738 
L 313.382935 113.560927 
L 319.409439 114.300889 
L 325.406448 115.250722 
L 331.366654 116.409269 
L 337.282798 117.775118 
L 343.147669 119.346605 
L 348.954124 121.121817 
L 354.695088 123.098589 
L 360.363566 125.274514 
L 365.952653 127.646941 
L 371.455538 130.212978 
L 376.865517 132.9695 
L 382.176 135.913149 
L 387.380516 139.040338 
L 392.472724 142.347256 
L 397.44642 145.829876 
L 402.295545 149.483953 
L 407.01419 153.305037 
L 411.596607 157.288471 
L 416.037213 161.429403 
L 420.330597 165.722787 
L 424.471529 170.163393 
L 428.454963 174.74581 
L 432.276047 179.464455 
L 435.930124 184.31358 
L 439.412744 189.287276 
L 442.719662 194.379484 
L 445.846851 199.584 
L 448.7905 204.894483 
L 451.547022 210.304462 
L 454.113059 215.807347 
L 456.485486 221.396434 
L 458.661411 227.064912 
L 460.638183 232.805876 
L 462.413395 238.612331 
L 463.984882 244.477202 
L 465.350731 250.393346 
L 466.509278 256.353552 
L 467.459111 262.350561 
L 468.199073 268.377065 
L 468.728262 274.425722 
L 469.046033 280.489163 
L 469.152 286.56 
L 469.046033 292.630837 
L 468.728262 298.694278 
L 468.199073 304.742935 
L 467.459111 310.769439 
L 466.509278 316.766448 
L 465.350731 322.726654 
L 463.984882 328.642798 
L 462.413395 334.507669 
L 460.638183 340.314124 
L 458.661411 346.055088 
L 456.485486 351.723566 
L 454.113059 357.312653 
L 451.547022 362.815538 
L 448.7905 368.225517 
L 445.846851 373.536 
L 442.719662 378.740516 
L 439.412744 383.832724 
L 435.930124 388.80642 
L 432.276047 393.655545 
L 428.454963 398.37419 
L 424.471529 402.956607 
L 420.330597 407.397213 
L 416.037213 411.690597 
L 411.596607 415.831529 
L 407.01419 419.814963 
L 402.295545 423.636047 
L 397.44642 427.290124 
L 392.472724 430.772744 
L 387.380516 434.079662 
L 382.176 437.206851 
L 376.865517 440.1505 
L 371.455538 442.907022 
L 365.952653 445.473059 
L 360.363566 447.845486 
L 354.695088 450.021411 
L 348.954124 451.998183 
L 343.147669 453.773395 
L 337.282798 455.344882 
L 331.366654 456.710731 
L 325.406448 457.869278 
L 319.409439 458.819111 
L 313.382935 459.559073 
L 307.334278 460.088262 
L 301.270837 460.406033 
L 295.2 460.512 
L 289.129163 460.406033 
L 283.065722 460.088262 
L 277.017065 459.559073 
L 270.990561 458.819111 
L 264.993552 457.869278 
L 259.033346 456.710731 
L 253.117202 455.344882 
L 247.252331 453.773395 
L 241.445876 451.998183 
L 235.704912 450.021411 
L 230.036434 447.845486 
L 224.447347 445.473059 
L 218.944462 442.907022 
L 213.534483 440.1505 
L 208.224 437.206851 
L 203.019484 434.079662 
L 197.927276 430.772744 
L 192.95358 427.290124 
L 188.104455 423.636047 
L 183.38581 419.814963 
L 178.803393 415.831529 
L 174.362787 411.690597 
L 170.069403 407.397213 
L 165.928471 402.956607 
L 161.945037 398.37419 
L 158.123953 393.655545 
L 154.469876 388.80642 
L 150.987256 383.832724 
L 147.680338 378.740516 
L 144.553149 373.536 
L 141.6095 368.225517 
L 138.852978 362.815538 
L 136.286941 357.312653 
L 133.914514 351.723566 
L 131.738589 346.055088 
L 129.761817 340.314124 
L 127.986605 334.507669 
L 126.415118 328.642798 
L 125.049269 322.726654 
L 123.890722 316.766448 
L 122.940889 310.769439 
L 122.200927 304.742935 
L 121.671738 298.694278 
L 121.353967 292.630837 
L 121.248 286.56 
L 121.353967 280.489163 
L 121.671738 274.425722 
L 122.200927 268.377065 
L 122.940889 262.350561 
L 123.890722 256.353552 
L 125.049269 250.393346 
L 126.415118 244.477202 
L 127.986605 238.612331 
L 129.761817 232.805876 
L 131.738589 227.064912 
L 133.914514 221.396434 
L 136.286941 215.807347 
L 138.852978 210.304462 
L 141.6095 204.894483 
L 144.553149 199.584 
L 147.680338 194.379484 
L 150.987256 189.287276 
L 154.469876 184.31358 
L 158.123953 179.464455 
L 161.945037 174.74581 
L 165.928471 170.163393 
L 170.069403 165.722787 
L 174.362787 161.429403 
L 178.803393 157.288471 
L 183.38581 153.305037 
L 188.104455 149.483953 
L 192.95358 145.829876 
L 197.927276 142.347256 
L 203.019484 139.040338 
L 208.224 135.913149 
L 213.534483 132.9695 
L 218.944462 130.212978 
L 224.447347 127.646941 
L 230.036434 125.274514 
L 235.704912 123.098589 
L 241.445876 121.121817 
L 247.252331 119.346605 
L 253.117202 117.775118 
L 259.033346 116.409269 
L 264.993552 115.250722 
L 270.990561 114.300889 
L 277.017065 113.560927 
L 283.065722 113.031738 
L 289.129163 112.713967 
L 295.2 112.608 
L 295.2 112.608 
" style="fill:none;stroke:#000000;stroke-linecap:square;stroke-width:0.25;"/>
     </g>
     <g id="text_35">
      <!-- 20 -->
      <g transform="translate(469.125506 280.196619)scale(0.16 -0.16)">
       <use xlink:href="#DejaVuSans-50"/>
       <use x="63.623047" xlink:href="#DejaVuSans-48"/>
      </g>
     </g>
    </g>
   </g>
   <g id="line2d_36">
    <path clip-path="url(#p42a76606b5)" d="M 298.007994 220.90482 
L 303.814317 186.036264 
L 304.653907 213.237361 
L 309.686498 202.656485 
L 315.274455 194.062943 
L 320.280853 190.915839 
L 312.504723 230.459467 
L 324.156243 205.204745 
L 340.126931 175.589613 
L 324.23317 222.822444 
L 321.206274 235.3847 
L 342.399777 202.752016 
L 331.903913 227.447307 
L 321.33084 248.233097 
L 332.560724 236.500033 
L 336.108839 236.371615 
L 320.535493 258.056682 
L 328.882612 251.779938 
L 342.225994 241.981725 
L 342.957718 245.014975 
L 345.180423 246.701943 
L 341.420819 252.827452 
L 329.909219 265.519068 
L 353.379764 254.60778 
L 361.97011 253.521677 
L 349.546834 262.502269 
L 343.778205 267.494459 
L 343.097076 270.086795 
L 339.164577 273.511544 
L 352.566416 272.170101 
L 379.888441 269.125656 
L 358.982548 276.248132 
L 342.994637 280.916078 
L 370.657534 280.90524 
L 320.31349 285.754659 
L 358.254 287.233801 
L 364.170618 290.248503 
L 346.391638 291.498396 
L 374.712145 297.676947 
L 359.358656 298.344766 
L 426.632762 316.55867 
L 391.539219 312.926493 
L 380.334138 313.820011 
L 363.338487 311.635593 
L 354.493377 311.305901 
L 336.268464 305.799658 
L 361.388539 321.090519 
L 333.866025 308.88384 
L 342.121269 316.393439 
L 337.10949 315.794246 
L 338.069218 319.273128 
L 327.701831 313.635582 
L 346.479184 333.130398 
L 333.421583 324.375326 
L 340.836715 335.744681 
L 351.580313 352.787524 
L 332.086107 333.841452 
L 329.511385 334.644671 
L 326.832296 335.155701 
L 333.215913 350.810057 
L 330.777899 353.014773 
L 330.002335 358.827794 
L 325.326331 356.629319 
L 308.990147 322.83168 
L 312.405413 338.379962 
L 324.527238 389.388946 
L 303.592996 321.601811 
L 305.840776 341.198137 
L 298.718556 309.904092 
L 302.621047 355.743927 
L 298.311352 335.021825 
L 297.634839 400.472541 
L 293.90739 347.034042 
L 292.320838 331.405271 
L 287.11636 361.921064 
L 285.996199 347.62323 
L 278.906311 370.224647 
L 281.018731 345.768578 
L 273.969325 361.000285 
L 271.675785 357.411187 
L 268.206183 357.560772 
L 278.022706 326.511805 
L 249.411867 381.640037 
L 243.116008 383.845954 
L 246.185308 369.398908 
L 253.979165 349.886272 
L 231.208215 376.239386 
L 221.638966 380.852209 
L 211.757137 384.576735 
L 231.865387 354.818479 
L 202.456452 378.317777 
L 226.044217 349.365453 
L 215.67683 352.806611 
L 206.695809 354.096781 
L 219.109011 339.63778 
L 218.133781 335.560173 
L 207.32267 337.296 
L 206.12135 333.032275 
L 209.875109 326.532806 
L 209.67504 322.253568 
L 215.145467 316.020808 
L 206.568459 314.939881 
L 164.257258 322.39692 
L 183.906129 311.9621 
L 170.548897 309.456117 
L 216.926631 297.503749 
L 227.022901 293.136963 
L 194.272116 291.957557 
L 188.257839 287.702794 
L 164.80303 282.378423 
L 174.814877 277.538382 
L 181.677454 273.154472 
L 181.29091 268.144062 
L 163.667325 259.482091 
L 135.31321 246.453699 
L 129.887916 237.496241 
L 165.335519 241.895808 
L 173.754487 238.896149 
L 205.063787 246.659372 
L 203.602932 241.237124 
L 186.352572 226.781191 
L 191.780696 223.86661 
L 176.130985 207.230471 
L 197.895933 215.54624 
L 199.243633 210.037351 
L 194.424445 198.894107 
L 222.609539 217.747897 
L 255.113658 245.167561 
L 247.64039 233.053772 
L 230.974649 207.766109 
L 182.487267 135.535206 
L 240.815189 206.792133 
L 241.928349 200.764494 
L 257.444041 219.520471 
L 261.591179 220.424363 
L 259.746641 208.727973 
L 272.818819 231.278049 
L 263.556451 197.654509 
L 267.854266 197.907306 
L 272.678517 200.675824 
L 283.324875 231.842991 
L 280.073119 198.947488 
L 285.532203 211.578478 
L 290.001705 225.899125 
L 292.419061 221.5374 
L 295.2 199.261867 
L 295.2 199.261867 
" style="fill:none;stroke:#d3d3d3;stroke-linecap:square;stroke-width:4;"/>
   </g>
   <g id="patch_3">
    <path d="M 295.2 69.12 
C 266.646041 69.12 238.369733 74.744507 211.989314 85.671634 
C 185.608896 96.598762 161.6374 112.616003 141.446701 132.806701 
C 121.256003 152.9974 105.238762 176.968896 94.311634 203.349314 
C 83.384507 229.729733 77.76 258.006041 77.76 286.56 
C 77.76 315.113959 83.384507 343.390267 94.311634 369.770686 
C 105.238762 396.151104 121.256003 420.1226 141.446701 440.313299 
C 161.6374 460.503997 185.608896 476.521238 211.989314 487.448366 
C 238.369733 498.375493 266.646041 504 295.2 504 
C 323.753959 504 352.030267 498.375493 378.410686 487.448366 
C 404.791104 476.521238 428.7626 460.503997 448.953299 440.313299 
C 469.143997 420.1226 485.161238 396.151104 496.088366 369.770686 
C 507.015493 343.390267 512.64 315.113959 512.64 286.56 
C 512.64 258.006041 507.015493 229.729733 496.088366 203.349314 
C 485.161238 176.968896 469.143997 152.9974 448.953299 132.806701 
C 428.7626 112.616003 404.791104 96.598762 378.410686 85.671634 
C 352.030267 74.744507 323.753959 69.12 295.2 69.12 
" style="fill:none;stroke:#000000;stroke-linecap:square;stroke-linejoin:miter;stroke-width:2;"/>
   </g>
   <g id="text_36">
    <!-- Non-corrected error -->
    <defs>
     <path d="M 9.8125 72.90625 
L 23.09375 72.90625 
L 55.421875 11.921875 
L 55.421875 72.90625 
L 64.984375 72.90625 
L 64.984375 0 
L 51.703125 0 
L 19.390625 60.984375 
L 19.390625 0 
L 9.8125 0 
z
" id="DejaVuSans-78"/>
     <path d="M 30.609375 48.390625 
Q 23.390625 48.390625 19.1875 42.75 
Q 14.984375 37.109375 14.984375 27.296875 
Q 14.984375 17.484375 19.15625 11.84375 
Q 23.34375 6.203125 30.609375 6.203125 
Q 37.796875 6.203125 41.984375 11.859375 
Q 46.1875 17.53125 46.1875 27.296875 
Q 46.1875 37.015625 41.984375 42.703125 
Q 37.796875 48.390625 30.609375 48.390625 
z
M 30.609375 56 
Q 42.328125 56 49.015625 48.375 
Q 55.71875 40.765625 55.71875 27.296875 
Q 55.71875 13.875 49.015625 6.21875 
Q 42.328125 -1.421875 30.609375 -1.421875 
Q 18.84375 -1.421875 12.171875 6.21875 
Q 5.515625 13.875 5.515625 27.296875 
Q 5.515625 40.765625 12.171875 48.375 
Q 18.84375 56 30.609375 56 
z
" id="DejaVuSans-111"/>
     <path d="M 54.890625 33.015625 
L 54.890625 0 
L 45.90625 0 
L 45.90625 32.71875 
Q 45.90625 40.484375 42.875 44.328125 
Q 39.84375 48.1875 33.796875 48.1875 
Q 26.515625 48.1875 22.3125 43.546875 
Q 18.109375 38.921875 18.109375 30.90625 
L 18.109375 0 
L 9.078125 0 
L 9.078125 54.6875 
L 18.109375 54.6875 
L 18.109375 46.1875 
Q 21.34375 51.125 25.703125 53.5625 
Q 30.078125 56 35.796875 56 
Q 45.21875 56 50.046875 50.171875 
Q 54.890625 44.34375 54.890625 33.015625 
z
" id="DejaVuSans-110"/>
     <path d="M 4.890625 31.390625 
L 31.203125 31.390625 
L 31.203125 23.390625 
L 4.890625 23.390625 
z
" id="DejaVuSans-45"/>
     <path d="M 48.78125 52.59375 
L 48.78125 44.1875 
Q 44.96875 46.296875 41.140625 47.34375 
Q 37.3125 48.390625 33.40625 48.390625 
Q 24.65625 48.390625 19.8125 42.84375 
Q 14.984375 37.3125 14.984375 27.296875 
Q 14.984375 17.28125 19.8125 11.734375 
Q 24.65625 6.203125 33.40625 6.203125 
Q 37.3125 6.203125 41.140625 7.25 
Q 44.96875 8.296875 48.78125 10.40625 
L 48.78125 2.09375 
Q 45.015625 0.34375 40.984375 -0.53125 
Q 36.96875 -1.421875 32.421875 -1.421875 
Q 20.0625 -1.421875 12.78125 6.34375 
Q 5.515625 14.109375 5.515625 27.296875 
Q 5.515625 40.671875 12.859375 48.328125 
Q 20.21875 56 33.015625 56 
Q 37.15625 56 41.109375 55.140625 
Q 45.0625 54.296875 48.78125 52.59375 
z
" id="DejaVuSans-99"/>
     <path d="M 41.109375 46.296875 
Q 39.59375 47.171875 37.8125 47.578125 
Q 36.03125 48 33.890625 48 
Q 26.265625 48 22.1875 43.046875 
Q 18.109375 38.09375 18.109375 28.8125 
L 18.109375 0 
L 9.078125 0 
L 9.078125 54.6875 
L 18.109375 54.6875 
L 18.109375 46.1875 
Q 20.953125 51.171875 25.484375 53.578125 
Q 30.03125 56 36.53125 56 
Q 37.453125 56 38.578125 55.875 
Q 39.703125 55.765625 41.0625 55.515625 
z
" id="DejaVuSans-114"/>
     <path d="M 56.203125 29.59375 
L 56.203125 25.203125 
L 14.890625 25.203125 
Q 15.484375 15.921875 20.484375 11.0625 
Q 25.484375 6.203125 34.421875 6.203125 
Q 39.59375 6.203125 44.453125 7.46875 
Q 49.3125 8.734375 54.109375 11.28125 
L 54.109375 2.78125 
Q 49.265625 0.734375 44.1875 -0.34375 
Q 39.109375 -1.421875 33.890625 -1.421875 
Q 20.796875 -1.421875 13.15625 6.1875 
Q 5.515625 13.8125 5.515625 26.8125 
Q 5.515625 40.234375 12.765625 48.109375 
Q 20.015625 56 32.328125 56 
Q 43.359375 56 49.78125 48.890625 
Q 56.203125 41.796875 56.203125 29.59375 
z
M 47.21875 32.234375 
Q 47.125 39.59375 43.09375 43.984375 
Q 39.0625 48.390625 32.421875 48.390625 
Q 24.90625 48.390625 20.390625 44.140625 
Q 15.875 39.890625 15.1875 32.171875 
z
" id="DejaVuSans-101"/>
     <path d="M 18.3125 70.21875 
L 18.3125 54.6875 
L 36.8125 54.6875 
L 36.8125 47.703125 
L 18.3125 47.703125 
L 18.3125 18.015625 
Q 18.3125 11.328125 20.140625 9.421875 
Q 21.96875 7.515625 27.59375 7.515625 
L 36.8125 7.515625 
L 36.8125 0 
L 27.59375 0 
Q 17.1875 0 13.234375 3.875 
Q 9.28125 7.765625 9.28125 18.015625 
L 9.28125 47.703125 
L 2.6875 47.703125 
L 2.6875 54.6875 
L 9.28125 54.6875 
L 9.28125 70.21875 
z
" id="DejaVuSans-116"/>
     <path d="M 45.40625 46.390625 
L 45.40625 75.984375 
L 54.390625 75.984375 
L 54.390625 0 
L 45.40625 0 
L 45.40625 8.203125 
Q 42.578125 3.328125 38.25 0.953125 
Q 33.9375 -1.421875 27.875 -1.421875 
Q 17.96875 -1.421875 11.734375 6.484375 
Q 5.515625 14.40625 5.515625 27.296875 
Q 5.515625 40.1875 11.734375 48.09375 
Q 17.96875 56 27.875 56 
Q 33.9375 56 38.25 53.625 
Q 42.578125 51.265625 45.40625 46.390625 
z
M 14.796875 27.296875 
Q 14.796875 17.390625 18.875 11.75 
Q 22.953125 6.109375 30.078125 6.109375 
Q 37.203125 6.109375 41.296875 11.75 
Q 45.40625 17.390625 45.40625 27.296875 
Q 45.40625 37.203125 41.296875 42.84375 
Q 37.203125 48.484375 30.078125 48.484375 
Q 22.953125 48.484375 18.875 42.84375 
Q 14.796875 37.203125 14.796875 27.296875 
z
" id="DejaVuSans-100"/>
     <path id="DejaVuSans-32"/>
    </defs>
    <g transform="translate(199.938 41.376)scale(0.192 -0.192)">
     <use xlink:href="#DejaVuSans-78"/>
     <use x="74.804688" xlink:href="#DejaVuSans-111"/>
     <use x="135.986328" xlink:href="#DejaVuSans-110"/>
     <use x="199.365234" xlink:href="#DejaVuSans-45"/>
     <use x="235.449219" xlink:href="#DejaVuSans-99"/>
     <use x="290.429688" xlink:href="#DejaVuSans-111"/>
     <use x="351.611328" xlink:href="#DejaVuSans-114"/>
     <use x="392.708984" xlink:href="#DejaVuSans-114"/>
     <use x="433.791016" xlink:href="#DejaVuSans-101"/>
     <use x="495.314453" xlink:href="#DejaVuSans-99"/>
     <use x="550.294922" xlink:href="#DejaVuSans-116"/>
     <use x="589.503906" xlink:href="#DejaVuSans-101"/>
     <use x="651.027344" xlink:href="#DejaVuSans-100"/>
     <use x="714.503906" xlink:href="#DejaVuSans-32"/>
     <use x="746.291016" xlink:href="#DejaVuSans-101"/>
     <use x="807.814453" xlink:href="#DejaVuSans-114"/>
     <use x="848.912109" xlink:href="#DejaVuSans-114"/>
     <use x="889.994141" xlink:href="#DejaVuSans-111"/>
     <use x="951.175781" xlink:href="#DejaVuSans-114"/>
    </g>
   </g>
  </g>
 </g>
 <defs>
  <clipPath id="p42a76606b5">
   <path d="M 512.64 286.56 
C 512.64 258.006041 507.015493 229.729733 496.088366 203.349314 
C 485.161238 176.968896 469.143997 152.9974 448.953299 132.806701 
C 428.7626 112.616003 404.791104 96.598762 378.410686 85.671634 
C 352.030267 74.744507 323.753959 69.12 295.2 69.12 
C 266.646041 69.12 238.369733 74.744507 211.989314 85.671634 
C 185.608896 96.598762 161.6374 112.616003 141.446701 132.806701 
C 121.256003 152.9974 105.238762 176.968896 94.311634 203.349314 
C 83.384507 229.729733 77.76 258.006041 77.76 286.56 
C 77.76 315.113959 83.384507 343.390267 94.311634 369.770686 
C 105.238762 396.151104 121.256003 420.1226 141.446701 440.313299 
C 161.6374 460.503997 185.608896 476.521238 211.989314 487.448366 
C 238.369733 498.375493 266.646041 504 295.2 504 
C 323.753959 504 352.030267 498.375493 378.410686 487.448366 
C 404.791104 476.521238 428.7626 460.503997 448.953299 440.313299 
C 469.143997 420.1226 485.161238 396.151104 496.088366 369.770686 
C 507.015493 343.390267 512.64 315.113959 512.64 286.56 
M 295.2 286.56 
C 295.2 286.56 295.2 286.56 295.2 286.56 
C 295.2 286.56 295.2 286.56 295.2 286.56 
C 295.2 286.56 295.2 286.56 295.2 286.56 
C 295.2 286.56 295.2 286.56 295.2 286.56 
C 295.2 286.56 295.2 286.56 295.2 286.56 
C 295.2 286.56 295.2 286.56 295.2 286.56 
C 295.2 286.56 295.2 286.56 295.2 286.56 
C 295.2 286.56 295.2 286.56 295.2 286.56 
C 295.2 286.56 295.2 286.56 295.2 286.56 
C 295.2 286.56 295.2 286.56 295.2 286.56 
C 295.2 286.56 295.2 286.56 295.2 286.56 
C 295.2 286.56 295.2 286.56 295.2 286.56 
C 295.2 286.56 295.2 286.56 295.2 286.56 
C 295.2 286.56 295.2 286.56 295.2 286.56 
C 295.2 286.56 295.2 286.56 295.2 286.56 
C 295.2 286.56 295.2 286.56 295.2 286.56 
M 512.64 286.56 
z
"/>
  </clipPath>
 </defs>
</svg>
