<?xml version="1.0" encoding="utf-8" standalone="no"?>
<!DOCTYPE svg PUBLIC "-//W3C//DTD SVG 1.1//EN"
  "http://www.w3.org/Graphics/SVG/1.1/DTD/svg11.dtd">
<!-- Created with matplotlib (https://matplotlib.org/) -->
<svg height="576pt" version="1.1" viewBox="0 0 576 576" width="576pt" xmlns="http://www.w3.org/2000/svg" xmlns:xlink="http://www.w3.org/1999/xlink">
 <defs>
  <style type="text/css">
*{stroke-linecap:butt;stroke-linejoin:round;}
  </style>
 </defs>
 <g id="figure_1">
  <g id="patch_1">
   <path d="M 0 576 
L 576 576 
L 576 0 
L 0 0 
z
" style="fill:none;"/>
  </g>
  <g id="axes_1">
   <g id="patch_2">
    <path d="M 512.64 286.56 
C 512.64 258.006041 507.015493 229.729733 496.088366 203.349314 
C 485.161238 176.968896 469.143997 152.9974 448.953299 132.806701 
C 428.7626 112.616003 404.791104 96.598762 378.410686 85.671634 
C 352.030267 74.744507 323.753959 69.12 295.2 69.12 
C 266.646041 69.12 238.369733 74.744507 211.989314 85.671634 
C 185.608896 96.598762 161.6374 112.616003 141.446701 132.806701 
C 121.256003 152.9974 105.238762 176.968896 94.311634 203.349314 
C 83.384507 229.729733 77.76 258.006041 77.76 286.56 
C 77.76 315.113959 83.384507 343.390267 94.311634 369.770686 
C 105.238762 396.151104 121.256003 420.1226 141.446701 440.313299 
C 161.6374 460.503997 185.608896 476.521238 211.989314 487.448366 
C 238.369733 498.375493 266.646041 504 295.2 504 
C 323.753959 504 352.030267 498.375493 378.410686 487.448366 
C 404.791104 476.521238 428.7626 460.503997 448.953299 440.313299 
C 469.143997 420.1226 485.161238 396.151104 496.088366 369.770686 
C 507.015493 343.390267 512.64 315.113959 512.64 286.56 
M 295.2 286.56 
C 295.2 286.56 295.2 286.56 295.2 286.56 
C 295.2 286.56 295.2 286.56 295.2 286.56 
C 295.2 286.56 295.2 286.56 295.2 286.56 
C 295.2 286.56 295.2 286.56 295.2 286.56 
C 295.2 286.56 295.2 286.56 295.2 286.56 
C 295.2 286.56 295.2 286.56 295.2 286.56 
C 295.2 286.56 295.2 286.56 295.2 286.56 
C 295.2 286.56 295.2 286.56 295.2 286.56 
C 295.2 286.56 295.2 286.56 295.2 286.56 
C 295.2 286.56 295.2 286.56 295.2 286.56 
C 295.2 286.56 295.2 286.56 295.2 286.56 
C 295.2 286.56 295.2 286.56 295.2 286.56 
C 295.2 286.56 295.2 286.56 295.2 286.56 
C 295.2 286.56 295.2 286.56 295.2 286.56 
C 295.2 286.56 295.2 286.56 295.2 286.56 
C 295.2 286.56 295.2 286.56 295.2 286.56 
M 512.64 286.56 
z
" style="fill:none;"/>
   </g>
   <g id="PolyCollection_1">
    <defs>
     <path d="M 299.131821 -381.371988 
L 297.957811 -353.921823 
L 300.417838 -350.328933 
L 302.701778 -347.622309 
L 303.846077 -339.516716 
L 307.686948 -346.976104 
L 313.839954 -360.522224 
L 316.865657 -359.678336 
L 315.025797 -345.142418 
L 321.704937 -354.907708 
L 316.315874 -335.796433 
L 326.858551 -351.737885 
L 319.879845 -333.261564 
L 326.354482 -339.615177 
L 320.486385 -326.528315 
L 320.180966 -322.912218 
L 316.806107 -315.947123 
L 323.182352 -320.921127 
L 320.822895 -315.897742 
L 346.216884 -337.801437 
L 324.156333 -314.629469 
L 320.142069 -309.330636 
L 317.18085 -305.481907 
L 348.187921 -324.743113 
L 336.272554 -314.338423 
L 353.441926 -321.42636 
L 357.585806 -320.308938 
L 335.416594 -307.242693 
L 339.424682 -306.796909 
L 354.98674 -310.002408 
L 340.954575 -303.019718 
L 358.517402 -305.322656 
L 353.628447 -301.468343 
L 352.191145 -298.653886 
L 357.559497 -296.803841 
L 339.220242 -292.738861 
L 350.526826 -291.214224 
L 360.855738 -288.738396 
L 336.329169 -287.240439 
L 328.197011 -286.256818 
L 359.211182 -280.490311 
L 354.813245 -278.490142 
L 346.733777 -277.677752 
L 333.470218 -278.966058 
L 345.287826 -273.401843 
L 352.901933 -268.205155 
L 341.875397 -269.960172 
L 334.780343 -270.897493 
L 330.984979 -270.770999 
L 326.322909 -271.47118 
L 324.365074 -270.896289 
L 325.815083 -268.084243 
L 322.24113 -268.805148 
L 319.932368 -268.836753 
L 335.636366 -252.716762 
L 330.341125 -254.67239 
L 343.349996 -237.546646 
L 327.977863 -250.937257 
L 335.04568 -238.3649 
L 330.212743 -240.372432 
L 330.908604 -234.581995 
L 319.373314 -248.585087 
L 332.645103 -219.497538 
L 327.581765 -222.198571 
L 312.946553 -248.164186 
L 313.928847 -240.178252 
L 312.555666 -237.1675 
L 308.679961 -242.175741 
L 318.82368 -190.808169 
L 306.007038 -233.948142 
L 303.838853 -232.124956 
L 301.695938 -228.880552 
L 299.554024 -221.622556 
L 296.661754 -221.052695 
L 293.79967 -223.926373 
L 290.32489 -213.506232 
L 289.880592 -239.84894 
L 286.246735 -230.038965 
L 277.497861 -198.543259 
L 273.123335 -197.267149 
L 274.094132 -215.43732 
L 276.463078 -233.007376 
L 265.613785 -211.620544 
L 242.323175 -166.456452 
L 250.715327 -197.066624 
L 245.163393 -195.978288 
L 242.643911 -200.615837 
L 251.687242 -222.592719 
L 230.175434 -198.313253 
L 234.977015 -212.244806 
L 241.610193 -226.490363 
L 229.167283 -218.273656 
L 221.404201 -216.428577 
L 246.500493 -245.212396 
L 228.815327 -234.138387 
L 217.138231 -229.871741 
L 233.628268 -246.490225 
L 242.081204 -255.666055 
L 248.763792 -262.630043 
L 233.319133 -257.156791 
L 227.471736 -257.710821 
L 255.990789 -273.076161 
L 247.334741 -271.825142 
L 244.591829 -273.235228 
L 231.392242 -271.976844 
L 235.459811 -275.804692 
L 232.668561 -277.954124 
L 228.697775 -280.142027 
L 210.94089 -281.311625 
L 219.394691 -285.385982 
L 242.064087 -288.872185 
L 213.544378 -292.058537 
L 242.672143 -293.376419 
L 214.79871 -298.934341 
L 199.110286 -304.97504 
L 199.371301 -309.167728 
L 214.337434 -309.723717 
L 233.071979 -307.879271 
L 200.267293 -322.090134 
L 195.044001 -328.748333 
L 208.165902 -327.967413 
L 222.287769 -325.517487 
L 242.366847 -318.455871 
L 189.826002 -353.318337 
L 206.964212 -348.226944 
L 201.333652 -357.944868 
L 252.834924 -323.225021 
L 228.701541 -347.287826 
L 229.885658 -351.354708 
L 235.654804 -350.925303 
L 236.736378 -355.213624 
L 228.657063 -371.077186 
L 237.334604 -366.974359 
L 228.457034 -387.333951 
L 254.147419 -355.556347 
L 256.3027 -358.506094 
L 258.301203 -362.049671 
L 262.323675 -361.614572 
L 270.435018 -350.609984 
L 271.893522 -354.921715 
L 275.46726 -353.41197 
L 278.041944 -354.871103 
L 280.928473 -355.198908 
L 283.556836 -356.875373 
L 290.029802 -329.539035 
L 293.527811 -308.953408 
L 293.926747 -319.210595 
L 295.2 -344.228287 
L 295.2 -368.981313 
L 295.2 -368.981313 
L 293.069756 -339.248362 
L 291.979676 -327.01918 
L 287.357173 -350.267421 
L 279.170837 -382.278384 
L 274.217649 -386.120368 
L 264.518652 -406.441278 
L 267.167657 -380.318623 
L 260.825456 -386.018474 
L 255.012928 -388.702844 
L 250.011007 -388.645013 
L 240.682804 -396.719262 
L 234.864789 -396.571277 
L 233.787491 -388.346588 
L 205.583971 -420.882574 
L 218.305557 -392.471548 
L 205.783439 -399.139343 
L 216.636068 -377.827177 
L 212.119937 -375.226986 
L 189.713258 -389.436121 
L 201.444358 -370.999185 
L 227.064142 -343.776534 
L 169.207509 -381.390941 
L 175.698358 -369.057766 
L 144.150792 -381.006918 
L 202.599176 -340.296204 
L 189.929485 -341.528595 
L 179.789128 -340.528969 
L 149.766185 -346.518566 
L 133.520493 -345.04631 
L 194.414189 -319.3527 
L 170.615367 -320.691042 
L 163.258728 -316.602025 
L 162.077847 -310.962157 
L 170.218714 -304.198656 
L 223.148021 -294.839549 
L 179.201268 -293.159854 
L 214.534322 -288.577999 
L 185.973025 -283.598613 
L 168.910914 -277.257044 
L 192.656092 -275.102879 
L 209.738806 -273.742349 
L 213.912166 -270.886582 
L 210.653336 -266.300939 
L 215.64169 -263.965374 
L 225.910482 -263.940817 
L 231.479686 -262.846531 
L 192.140304 -241.158834 
L 208.638609 -244.280978 
L 228.651069 -251.017957 
L 214.478304 -238.115605 
L 203.91037 -225.760306 
L 196.001955 -213.742832 
L 206.547903 -215.588556 
L 215.126669 -216.719519 
L 184.281565 -179.700518 
L 204.193248 -191.358048 
L 218.410334 -199.238488 
L 208.835906 -178.736537 
L 209.928072 -169.938189 
L 224.309288 -180.53283 
L 218.87107 -160.437758 
L 225.65203 -159.533661 
L 229.302567 -152.602571 
L 224.686595 -125.436417 
L 250.873507 -172.849775 
L 266.431711 -202.794498 
L 260.008798 -166.050465 
L 264.153183 -159.81564 
L 268.011364 -149.8321 
L 278.713181 -180.057106 
L 286.025177 -203.906202 
L 288.186957 -180.206198 
L 293.042332 -188.494734 
L 297.213124 -195.257134 
L 301.619614 -189.449334 
L 306.711013 -182.126683 
L 312.141665 -177.039399 
L 312.241868 -201.933609 
L 329.710713 -145.353439 
L 316.309341 -215.425143 
L 321.695298 -209.640384 
L 325.925474 -208.623998 
L 321.541836 -228.172849 
L 342.066926 -192.119825 
L 346.015454 -194.523505 
L 341.086021 -211.888807 
L 347.745501 -208.716 
L 359.542923 -199.268522 
L 361.014715 -205.077199 
L 341.948052 -234.527078 
L 365.905219 -213.237897 
L 344.558552 -240.60608 
L 353.715394 -236.297868 
L 331.218717 -259.434683 
L 335.919891 -258.367004 
L 340.675905 -257.717977 
L 333.839219 -264.872447 
L 342.139551 -262.339438 
L 343.46804 -264.258595 
L 382.564563 -248.511654 
L 382.616277 -252.957096 
L 389.576895 -254.70843 
L 371.432828 -265.030195 
L 352.5654 -273.740013 
L 370.412927 -272.27314 
L 394.320022 -271.233473 
L 401.55095 -274.5706 
L 357.434492 -283.436313 
L 367.435402 -285.576898 
L 412.183435 -288.189904 
L 378.048209 -292.096781 
L 366.483359 -294.781949 
L 404.512505 -302.348377 
L 392.758876 -305.212562 
L 380.090453 -306.915931 
L 390.87323 -313.438852 
L 358.396723 -308.196456 
L 392.756312 -322.992469 
L 385.143694 -324.740299 
L 370.746581 -322.88223 
L 410.551483 -346.516729 
L 390.81528 -341.951737 
L 365.016638 -331.763256 
L 387.700662 -351.068409 
L 328.754564 -313.928552 
L 342.338541 -327.031732 
L 336.700212 -325.541544 
L 374.818502 -364.914331 
L 337.576219 -333.196925 
L 339.30845 -339.063552 
L 327.253073 -328.763823 
L 349.291352 -361.917483 
L 338.973693 -353.644215 
L 347.202821 -373.192018 
L 334.54113 -359.294159 
L 338.736357 -375.111101 
L 334.024339 -374.67246 
L 333.507234 -384.059609 
L 328.964085 -384.303334 
L 330.603702 -404.215982 
L 320.943319 -387.610433 
L 315.917286 -384.899029 
L 308.962377 -369.14952 
L 306.671462 -378.410392 
L 303.349206 -384.536174 
L 299.131821 -381.371988 
z
" id="m7c1d205bfd" style="stroke:#dcdcdc;stroke-opacity:0.3;"/>
    </defs>
    <g clip-path="url(#pd8d5a11a7d)">
     <use style="fill:#dcdcdc;fill-opacity:0.3;stroke:#dcdcdc;stroke-opacity:0.3;" x="0" xlink:href="#m7c1d205bfd" y="576"/>
    </g>
   </g>
   <g id="matplotlib.axis_1">
    <g id="xtick_1">
     <g id="line2d_1">
      <path clip-path="url(#pd8d5a11a7d)" d="M 295.2 286.56 
L 304.491155 69.318595 
" style="fill:none;stroke:#000000;stroke-linecap:square;stroke-width:0.25;"/>
     </g>
     <g id="text_1">
      <!-- 1 -->
      <defs>
       <path d="M 12.40625 8.296875 
L 28.515625 8.296875 
L 28.515625 63.921875 
L 10.984375 60.40625 
L 10.984375 69.390625 
L 28.421875 72.90625 
L 38.28125 72.90625 
L 38.28125 8.296875 
L 54.390625 8.296875 
L 54.390625 0 
L 12.40625 0 
z
" id="DejaVuSans-49"/>
      </defs>
      <g transform="translate(299.849818 63.243185)scale(0.16 -0.16)">
       <use xlink:href="#DejaVuSans-49"/>
      </g>
     </g>
    </g>
    <g id="xtick_2">
     <g id="line2d_2">
      <path clip-path="url(#pd8d5a11a7d)" d="M 295.2 286.56 
L 341.316991 74.066761 
" style="fill:none;stroke:#000000;stroke-linecap:square;stroke-width:0.25;"/>
     </g>
     <g id="text_2">
      <!-- 5 -->
      <defs>
       <path d="M 10.796875 72.90625 
L 49.515625 72.90625 
L 49.515625 64.59375 
L 19.828125 64.59375 
L 19.828125 46.734375 
Q 21.96875 47.46875 24.109375 47.828125 
Q 26.265625 48.1875 28.421875 48.1875 
Q 40.625 48.1875 47.75 41.5 
Q 54.890625 34.8125 54.890625 23.390625 
Q 54.890625 11.625 47.5625 5.09375 
Q 40.234375 -1.421875 26.90625 -1.421875 
Q 22.3125 -1.421875 17.546875 -0.640625 
Q 12.796875 0.140625 7.71875 1.703125 
L 7.71875 11.625 
Q 12.109375 9.234375 16.796875 8.0625 
Q 21.484375 6.890625 26.703125 6.890625 
Q 35.15625 6.890625 40.078125 11.328125 
Q 45.015625 15.765625 45.015625 23.390625 
Q 45.015625 31 40.078125 35.4375 
Q 35.15625 39.890625 26.703125 39.890625 
Q 22.75 39.890625 18.8125 39.015625 
Q 14.890625 38.140625 10.796875 36.28125 
z
" id="DejaVuSans-53"/>
      </defs>
      <g transform="translate(338.453943 68.220636)scale(0.16 -0.16)">
       <use xlink:href="#DejaVuSans-53"/>
      </g>
     </g>
    </g>
    <g id="xtick_3">
     <g id="line2d_3">
      <path clip-path="url(#pd8d5a11a7d)" d="M 295.2 286.56 
L 385.335659 88.681965 
" style="fill:none;stroke:#000000;stroke-linecap:square;stroke-width:0.25;"/>
     </g>
     <g id="text_3">
      <!-- 10 -->
      <defs>
       <path d="M 31.78125 66.40625 
Q 24.171875 66.40625 20.328125 58.90625 
Q 16.5 51.421875 16.5 36.375 
Q 16.5 21.390625 20.328125 13.890625 
Q 24.171875 6.390625 31.78125 6.390625 
Q 39.453125 6.390625 43.28125 13.890625 
Q 47.125 21.390625 47.125 36.375 
Q 47.125 51.421875 43.28125 58.90625 
Q 39.453125 66.40625 31.78125 66.40625 
z
M 31.78125 74.21875 
Q 44.046875 74.21875 50.515625 64.515625 
Q 56.984375 54.828125 56.984375 36.375 
Q 56.984375 17.96875 50.515625 8.265625 
Q 44.046875 -1.421875 31.78125 -1.421875 
Q 19.53125 -1.421875 13.0625 8.265625 
Q 6.59375 17.96875 6.59375 36.375 
Q 6.59375 54.828125 13.0625 64.515625 
Q 19.53125 74.21875 31.78125 74.21875 
z
" id="DejaVuSans-48"/>
      </defs>
      <g transform="translate(379.508236 83.541597)scale(0.16 -0.16)">
       <use xlink:href="#DejaVuSans-49"/>
       <use x="63.623047" xlink:href="#DejaVuSans-48"/>
      </g>
     </g>
    </g>
    <g id="xtick_4">
     <g id="line2d_4">
      <path clip-path="url(#pd8d5a11a7d)" d="M 295.2 286.56 
L 425.253154 112.300622 
" style="fill:none;stroke:#000000;stroke-linecap:square;stroke-width:0.25;"/>
     </g>
     <g id="text_4">
      <!-- 15 -->
      <g transform="translate(421.353314 108.300779)scale(0.16 -0.16)">
       <use xlink:href="#DejaVuSans-49"/>
       <use x="63.623047" xlink:href="#DejaVuSans-53"/>
      </g>
     </g>
    </g>
    <g id="xtick_5">
     <g id="line2d_5">
      <path clip-path="url(#pd8d5a11a7d)" d="M 295.2 286.56 
L 459.253229 143.848082 
" style="fill:none;stroke:#000000;stroke-linecap:square;stroke-width:0.25;"/>
     </g>
     <g id="text_5">
      <!-- 20 -->
      <defs>
       <path d="M 19.1875 8.296875 
L 53.609375 8.296875 
L 53.609375 0 
L 7.328125 0 
L 7.328125 8.296875 
Q 12.9375 14.109375 22.625 23.890625 
Q 32.328125 33.6875 34.8125 36.53125 
Q 39.546875 41.84375 41.421875 45.53125 
Q 43.3125 49.21875 43.3125 52.78125 
Q 43.3125 58.59375 39.234375 62.25 
Q 35.15625 65.921875 28.609375 65.921875 
Q 23.96875 65.921875 18.8125 64.3125 
Q 13.671875 62.703125 7.8125 59.421875 
L 7.8125 69.390625 
Q 13.765625 71.78125 18.9375 73 
Q 24.125 74.21875 28.421875 74.21875 
Q 39.75 74.21875 46.484375 68.546875 
Q 53.21875 62.890625 53.21875 53.421875 
Q 53.21875 48.921875 51.53125 44.890625 
Q 49.859375 40.875 45.40625 35.40625 
Q 44.1875 33.984375 37.640625 27.21875 
Q 31.109375 20.453125 19.1875 8.296875 
z
" id="DejaVuSans-50"/>
      </defs>
      <g transform="translate(456.995225 141.37164)scale(0.16 -0.16)">
       <use xlink:href="#DejaVuSans-50"/>
       <use x="63.623047" xlink:href="#DejaVuSans-48"/>
      </g>
     </g>
    </g>
    <g id="xtick_6">
     <g id="line2d_6">
      <path clip-path="url(#pd8d5a11a7d)" d="M 295.2 286.56 
L 485.788881 181.888934 
" style="fill:none;stroke:#000000;stroke-linecap:square;stroke-width:0.25;"/>
     </g>
     <g id="text_6">
      <!-- 25 -->
      <g transform="translate(484.812263 181.249454)scale(0.16 -0.16)">
       <use xlink:href="#DejaVuSans-50"/>
       <use x="63.623047" xlink:href="#DejaVuSans-53"/>
      </g>
     </g>
    </g>
    <g id="xtick_7">
     <g id="line2d_7">
      <path clip-path="url(#pd8d5a11a7d)" d="M 295.2 286.56 
L 503.652738 224.692322 
" style="fill:none;stroke:#000000;stroke-linecap:square;stroke-width:0.25;"/>
     </g>
     <g id="text_7">
      <!-- 30 -->
      <defs>
       <path d="M 40.578125 39.3125 
Q 47.65625 37.796875 51.625 33 
Q 55.609375 28.21875 55.609375 21.1875 
Q 55.609375 10.40625 48.1875 4.484375 
Q 40.765625 -1.421875 27.09375 -1.421875 
Q 22.515625 -1.421875 17.65625 -0.515625 
Q 12.796875 0.390625 7.625 2.203125 
L 7.625 11.71875 
Q 11.71875 9.328125 16.59375 8.109375 
Q 21.484375 6.890625 26.8125 6.890625 
Q 36.078125 6.890625 40.9375 10.546875 
Q 45.796875 14.203125 45.796875 21.1875 
Q 45.796875 27.640625 41.28125 31.265625 
Q 36.765625 34.90625 28.71875 34.90625 
L 20.21875 34.90625 
L 20.21875 43.015625 
L 29.109375 43.015625 
Q 36.375 43.015625 40.234375 45.921875 
Q 44.09375 48.828125 44.09375 54.296875 
Q 44.09375 59.90625 40.109375 62.90625 
Q 36.140625 65.921875 28.71875 65.921875 
Q 24.65625 65.921875 20.015625 65.03125 
Q 15.375 64.15625 9.8125 62.3125 
L 9.8125 71.09375 
Q 15.4375 72.65625 20.34375 73.4375 
Q 25.25 74.21875 29.59375 74.21875 
Q 40.828125 74.21875 47.359375 69.109375 
Q 53.90625 64.015625 53.90625 55.328125 
Q 53.90625 49.265625 50.4375 45.09375 
Q 46.96875 40.921875 40.578125 39.3125 
z
" id="DejaVuSans-51"/>
      </defs>
      <g transform="translate(503.53875 226.119782)scale(0.16 -0.16)">
       <use xlink:href="#DejaVuSans-51"/>
       <use x="63.623047" xlink:href="#DejaVuSans-48"/>
      </g>
     </g>
    </g>
    <g id="xtick_8">
     <g id="line2d_8">
      <path clip-path="url(#pd8d5a11a7d)" d="M 295.2 286.56 
L 512.031994 270.310688 
" style="fill:none;stroke:#000000;stroke-linecap:square;stroke-width:0.25;"/>
     </g>
     <g id="text_8">
      <!-- 35 -->
      <g transform="translate(512.322634 273.941022)scale(0.16 -0.16)">
       <use xlink:href="#DejaVuSans-51"/>
       <use x="63.623047" xlink:href="#DejaVuSans-53"/>
      </g>
     </g>
    </g>
    <g id="xtick_9">
     <g id="line2d_9">
      <path clip-path="url(#pd8d5a11a7d)" d="M 295.2 286.56 
L 510.545392 316.668399 
" style="fill:none;stroke:#000000;stroke-linecap:square;stroke-width:0.25;"/>
     </g>
     <g id="text_9">
      <!-- 40 -->
      <defs>
       <path d="M 37.796875 64.3125 
L 12.890625 25.390625 
L 37.796875 25.390625 
z
M 35.203125 72.90625 
L 47.609375 72.90625 
L 47.609375 25.390625 
L 58.015625 25.390625 
L 58.015625 17.1875 
L 47.609375 17.1875 
L 47.609375 0 
L 37.796875 0 
L 37.796875 17.1875 
L 4.890625 17.1875 
L 4.890625 26.703125 
z
" id="DejaVuSans-52"/>
      </defs>
      <g transform="translate(510.764245 322.537309)scale(0.16 -0.16)">
       <use xlink:href="#DejaVuSans-52"/>
       <use x="63.623047" xlink:href="#DejaVuSans-48"/>
      </g>
     </g>
    </g>
    <g id="xtick_10">
     <g id="line2d_10">
      <path clip-path="url(#pd8d5a11a7d)" d="M 295.2 286.56 
L 499.260574 361.656177 
" style="fill:none;stroke:#000000;stroke-linecap:square;stroke-width:0.25;"/>
     </g>
     <g id="text_10">
      <!-- 45 -->
      <g transform="translate(498.934492 369.697511)scale(0.16 -0.16)">
       <use xlink:href="#DejaVuSans-52"/>
       <use x="63.623047" xlink:href="#DejaVuSans-53"/>
      </g>
     </g>
    </g>
    <g id="xtick_11">
     <g id="line2d_11">
      <path clip-path="url(#pd8d5a11a7d)" d="M 295.2 286.56 
L 478.690998 403.227079 
" style="fill:none;stroke:#000000;stroke-linecap:square;stroke-width:0.25;"/>
     </g>
     <g id="text_11">
      <!-- 50 -->
      <g transform="translate(477.371628 413.275837)scale(0.16 -0.16)">
       <use xlink:href="#DejaVuSans-53"/>
       <use x="63.623047" xlink:href="#DejaVuSans-48"/>
      </g>
     </g>
    </g>
    <g id="xtick_12">
     <g id="line2d_12">
      <path clip-path="url(#pd8d5a11a7d)" d="M 295.2 286.56 
L 449.77258 439.489628 
" style="fill:none;stroke:#000000;stroke-linecap:square;stroke-width:0.25;"/>
     </g>
     <g id="text_12">
      <!-- 55 -->
      <g transform="translate(447.056764 451.289475)scale(0.16 -0.16)">
       <use xlink:href="#DejaVuSans-53"/>
       <use x="63.623047" xlink:href="#DejaVuSans-53"/>
      </g>
     </g>
    </g>
    <g id="xtick_13">
     <g id="line2d_13">
      <path clip-path="url(#pd8d5a11a7d)" d="M 295.2 286.56 
L 413.821109 468.793878 
" style="fill:none;stroke:#000000;stroke-linecap:square;stroke-width:0.25;"/>
     </g>
     <g id="text_13">
      <!-- 60 -->
      <defs>
       <path d="M 33.015625 40.375 
Q 26.375 40.375 22.484375 35.828125 
Q 18.609375 31.296875 18.609375 23.390625 
Q 18.609375 15.53125 22.484375 10.953125 
Q 26.375 6.390625 33.015625 6.390625 
Q 39.65625 6.390625 43.53125 10.953125 
Q 47.40625 15.53125 47.40625 23.390625 
Q 47.40625 31.296875 43.53125 35.828125 
Q 39.65625 40.375 33.015625 40.375 
z
M 52.59375 71.296875 
L 52.59375 62.3125 
Q 48.875 64.0625 45.09375 64.984375 
Q 41.3125 65.921875 37.59375 65.921875 
Q 27.828125 65.921875 22.671875 59.328125 
Q 17.53125 52.734375 16.796875 39.40625 
Q 19.671875 43.65625 24.015625 45.921875 
Q 28.375 48.1875 33.59375 48.1875 
Q 44.578125 48.1875 50.953125 41.515625 
Q 57.328125 34.859375 57.328125 23.390625 
Q 57.328125 12.15625 50.6875 5.359375 
Q 44.046875 -1.421875 33.015625 -1.421875 
Q 20.359375 -1.421875 13.671875 8.265625 
Q 6.984375 17.96875 6.984375 36.375 
Q 6.984375 53.65625 15.1875 63.9375 
Q 23.390625 74.21875 37.203125 74.21875 
Q 40.921875 74.21875 44.703125 73.484375 
Q 48.484375 72.75 52.59375 71.296875 
z
" id="DejaVuSans-54"/>
      </defs>
      <g transform="translate(409.369225 482.008803)scale(0.16 -0.16)">
       <use xlink:href="#DejaVuSans-54"/>
       <use x="63.623047" xlink:href="#DejaVuSans-48"/>
      </g>
     </g>
    </g>
    <g id="xtick_14">
     <g id="line2d_14">
      <path clip-path="url(#pd8d5a11a7d)" d="M 295.2 286.56 
L 372.472376 489.806484 
" style="fill:none;stroke:#000000;stroke-linecap:square;stroke-width:0.25;"/>
     </g>
     <g id="text_14">
      <!-- 65 -->
      <g transform="translate(366.023796 504.036091)scale(0.16 -0.16)">
       <use xlink:href="#DejaVuSans-54"/>
       <use x="63.623047" xlink:href="#DejaVuSans-53"/>
      </g>
     </g>
    </g>
    <g id="xtick_15">
     <g id="line2d_15">
      <path clip-path="url(#pd8d5a11a7d)" d="M 295.2 286.56 
L 327.60775 501.571375 
" style="fill:none;stroke:#000000;stroke-linecap:square;stroke-width:0.25;"/>
     </g>
     <g id="text_15">
      <!-- 70 -->
      <defs>
       <path d="M 8.203125 72.90625 
L 55.078125 72.90625 
L 55.078125 68.703125 
L 28.609375 0 
L 18.3125 0 
L 43.21875 64.59375 
L 8.203125 64.59375 
z
" id="DejaVuSans-55"/>
      </defs>
      <g transform="translate(318.992694 516.369099)scale(0.16 -0.16)">
       <use xlink:href="#DejaVuSans-55"/>
       <use x="63.623047" xlink:href="#DejaVuSans-48"/>
      </g>
     </g>
    </g>
    <g id="xtick_16">
     <g id="line2d_16">
      <path clip-path="url(#pd8d5a11a7d)" d="M 295.2 286.56 
L 281.268571 503.553246 
" style="fill:none;stroke:#000000;stroke-linecap:square;stroke-width:0.25;"/>
     </g>
     <g id="text_16">
      <!-- 75 -->
      <g transform="translate(270.415834 518.446673)scale(0.16 -0.16)">
       <use xlink:href="#DejaVuSans-55"/>
       <use x="63.623047" xlink:href="#DejaVuSans-53"/>
      </g>
     </g>
    </g>
    <g id="xtick_17">
     <g id="line2d_17">
      <path clip-path="url(#pd8d5a11a7d)" d="M 295.2 286.56 
L 235.563272 495.661923 
" style="fill:none;stroke:#000000;stroke-linecap:square;stroke-width:0.25;"/>
     </g>
     <g id="text_17">
      <!-- 80 -->
      <defs>
       <path d="M 31.78125 34.625 
Q 24.75 34.625 20.71875 30.859375 
Q 16.703125 27.09375 16.703125 20.515625 
Q 16.703125 13.921875 20.71875 10.15625 
Q 24.75 6.390625 31.78125 6.390625 
Q 38.8125 6.390625 42.859375 10.171875 
Q 46.921875 13.96875 46.921875 20.515625 
Q 46.921875 27.09375 42.890625 30.859375 
Q 38.875 34.625 31.78125 34.625 
z
M 21.921875 38.8125 
Q 15.578125 40.375 12.03125 44.71875 
Q 8.5 49.078125 8.5 55.328125 
Q 8.5 64.0625 14.71875 69.140625 
Q 20.953125 74.21875 31.78125 74.21875 
Q 42.671875 74.21875 48.875 69.140625 
Q 55.078125 64.0625 55.078125 55.328125 
Q 55.078125 49.078125 51.53125 44.71875 
Q 48 40.375 41.703125 38.8125 
Q 48.828125 37.15625 52.796875 32.3125 
Q 56.78125 27.484375 56.78125 20.515625 
Q 56.78125 9.90625 50.3125 4.234375 
Q 43.84375 -1.421875 31.78125 -1.421875 
Q 19.734375 -1.421875 13.25 4.234375 
Q 6.78125 9.90625 6.78125 20.515625 
Q 6.78125 27.484375 10.78125 32.3125 
Q 14.796875 37.15625 21.921875 38.8125 
z
M 18.3125 54.390625 
Q 18.3125 48.734375 21.84375 45.5625 
Q 25.390625 42.390625 31.78125 42.390625 
Q 38.140625 42.390625 41.71875 45.5625 
Q 45.3125 48.734375 45.3125 54.390625 
Q 45.3125 60.0625 41.71875 63.234375 
Q 38.140625 66.40625 31.78125 66.40625 
Q 25.390625 66.40625 21.84375 63.234375 
Q 18.3125 60.0625 18.3125 54.390625 
z
" id="DejaVuSans-56"/>
      </defs>
      <g transform="translate(222.503464 510.174284)scale(0.16 -0.16)">
       <use xlink:href="#DejaVuSans-56"/>
       <use x="63.623047" xlink:href="#DejaVuSans-48"/>
      </g>
     </g>
    </g>
    <g id="xtick_18">
     <g id="line2d_18">
      <path clip-path="url(#pd8d5a11a7d)" d="M 295.2 286.56 
L 192.571445 478.256461 
" style="fill:none;stroke:#000000;stroke-linecap:square;stroke-width:0.25;"/>
     </g>
     <g id="text_18">
      <!-- 85 -->
      <g transform="translate(177.435596 491.928327)scale(0.16 -0.16)">
       <use xlink:href="#DejaVuSans-56"/>
       <use x="63.623047" xlink:href="#DejaVuSans-53"/>
      </g>
     </g>
    </g>
    <g id="xtick_19">
     <g id="line2d_19">
      <path clip-path="url(#pd8d5a11a7d)" d="M 295.2 286.56 
L 154.249218 452.128809 
" style="fill:none;stroke:#000000;stroke-linecap:square;stroke-width:0.25;"/>
     </g>
     <g id="text_19">
      <!-- 90 -->
      <defs>
       <path d="M 10.984375 1.515625 
L 10.984375 10.5 
Q 14.703125 8.734375 18.5 7.8125 
Q 22.3125 6.890625 25.984375 6.890625 
Q 35.75 6.890625 40.890625 13.453125 
Q 46.046875 20.015625 46.78125 33.40625 
Q 43.953125 29.203125 39.59375 26.953125 
Q 35.25 24.703125 29.984375 24.703125 
Q 19.046875 24.703125 12.671875 31.3125 
Q 6.296875 37.9375 6.296875 49.421875 
Q 6.296875 60.640625 12.9375 67.421875 
Q 19.578125 74.21875 30.609375 74.21875 
Q 43.265625 74.21875 49.921875 64.515625 
Q 56.59375 54.828125 56.59375 36.375 
Q 56.59375 19.140625 48.40625 8.859375 
Q 40.234375 -1.421875 26.421875 -1.421875 
Q 22.703125 -1.421875 18.890625 -0.6875 
Q 15.09375 0.046875 10.984375 1.515625 
z
M 30.609375 32.421875 
Q 37.25 32.421875 41.125 36.953125 
Q 45.015625 41.5 45.015625 49.421875 
Q 45.015625 57.28125 41.125 61.84375 
Q 37.25 66.40625 30.609375 66.40625 
Q 23.96875 66.40625 20.09375 61.84375 
Q 16.21875 57.28125 16.21875 49.421875 
Q 16.21875 41.5 20.09375 36.953125 
Q 23.96875 32.421875 30.609375 32.421875 
z
" id="DejaVuSans-57"/>
      </defs>
      <g transform="translate(137.26282 464.538992)scale(0.16 -0.16)">
       <use xlink:href="#DejaVuSans-57"/>
       <use x="63.623047" xlink:href="#DejaVuSans-48"/>
      </g>
     </g>
    </g>
    <g id="xtick_20">
     <g id="line2d_20">
      <path clip-path="url(#pd8d5a11a7d)" d="M 295.2 286.56 
L 122.340252 418.467775 
" style="fill:none;stroke:#000000;stroke-linecap:square;stroke-width:0.25;"/>
     </g>
     <g id="text_20">
      <!-- 95 -->
      <g transform="translate(103.812996 429.252494)scale(0.16 -0.16)">
       <use xlink:href="#DejaVuSans-57"/>
       <use x="63.623047" xlink:href="#DejaVuSans-53"/>
      </g>
     </g>
    </g>
    <g id="xtick_21">
     <g id="line2d_21">
      <path clip-path="url(#pd8d5a11a7d)" d="M 295.2 286.56 
L 98.296406 378.804936 
" style="fill:none;stroke:#000000;stroke-linecap:square;stroke-width:0.25;"/>
     </g>
     <g id="text_21">
      <!-- 100 -->
      <g transform="translate(73.518092 387.674369)scale(0.16 -0.16)">
       <use xlink:href="#DejaVuSans-49"/>
       <use x="63.623047" xlink:href="#DejaVuSans-48"/>
       <use x="127.246094" xlink:href="#DejaVuSans-48"/>
      </g>
     </g>
    </g>
    <g id="xtick_22">
     <g id="line2d_22">
      <path clip-path="url(#pd8d5a11a7d)" d="M 295.2 286.56 
L 83.211675 334.944952 
" style="fill:none;stroke:#000000;stroke-linecap:square;stroke-width:0.25;"/>
     </g>
     <g id="text_22">
      <!-- 105 -->
      <g transform="translate(57.704932 341.696422)scale(0.16 -0.16)">
       <use xlink:href="#DejaVuSans-49"/>
       <use x="63.623047" xlink:href="#DejaVuSans-48"/>
       <use x="127.246094" xlink:href="#DejaVuSans-53"/>
      </g>
     </g>
    </g>
    <g id="xtick_23">
     <g id="line2d_23">
      <path clip-path="url(#pd8d5a11a7d)" d="M 295.2 286.56 
L 77.772414 288.883452 
" style="fill:none;stroke:#000000;stroke-linecap:square;stroke-width:0.25;"/>
     </g>
     <g id="text_23">
      <!-- 110 -->
      <g transform="translate(52.003013 293.41065)scale(0.16 -0.16)">
       <use xlink:href="#DejaVuSans-49"/>
       <use x="63.623047" xlink:href="#DejaVuSans-49"/>
       <use x="127.246094" xlink:href="#DejaVuSans-48"/>
      </g>
     </g>
    </g>
    <g id="xtick_24">
     <g id="line2d_24">
      <path clip-path="url(#pd8d5a11a7d)" d="M 295.2 286.56 
L 82.22611 242.716235 
" style="fill:none;stroke:#000000;stroke-linecap:square;stroke-width:0.25;"/>
     </g>
     <g id="text_24">
      <!-- 115 -->
      <g transform="translate(56.671775 245.014056)scale(0.16 -0.16)">
       <use xlink:href="#DejaVuSans-49"/>
       <use x="63.623047" xlink:href="#DejaVuSans-49"/>
       <use x="127.246094" xlink:href="#DejaVuSans-53"/>
      </g>
     </g>
    </g>
    <g id="xtick_25">
     <g id="line2d_25">
      <path clip-path="url(#pd8d5a11a7d)" d="M 295.2 286.56 
L 96.370119 198.54391 
" style="fill:none;stroke:#000000;stroke-linecap:square;stroke-width:0.25;"/>
     </g>
     <g id="text_25">
      <!-- 120 -->
      <g transform="translate(71.498787 198.708685)scale(0.16 -0.16)">
       <use xlink:href="#DejaVuSans-49"/>
       <use x="63.623047" xlink:href="#DejaVuSans-50"/>
       <use x="127.246094" xlink:href="#DejaVuSans-48"/>
      </g>
     </g>
    </g>
    <g id="xtick_26">
     <g id="line2d_26">
      <path clip-path="url(#pd8d5a11a7d)" d="M 295.2 286.56 
L 119.56089 158.376317 
" style="fill:none;stroke:#000000;stroke-linecap:square;stroke-width:0.25;"/>
     </g>
     <g id="text_26">
      <!-- 125 -->
      <g transform="translate(95.80942 156.601432)scale(0.16 -0.16)">
       <use xlink:href="#DejaVuSans-49"/>
       <use x="63.623047" xlink:href="#DejaVuSans-50"/>
       <use x="127.246094" xlink:href="#DejaVuSans-53"/>
      </g>
     </g>
    </g>
    <g id="xtick_27">
     <g id="line2d_27">
      <path clip-path="url(#pd8d5a11a7d)" d="M 295.2 286.56 
L 150.743241 124.041083 
" style="fill:none;stroke:#000000;stroke-linecap:square;stroke-width:0.25;"/>
     </g>
     <g id="text_27">
      <!-- 130 -->
      <g transform="translate(128.497542 120.608177)scale(0.16 -0.16)">
       <use xlink:href="#DejaVuSans-49"/>
       <use x="63.623047" xlink:href="#DejaVuSans-51"/>
       <use x="127.246094" xlink:href="#DejaVuSans-48"/>
      </g>
     </g>
    </g>
    <g id="xtick_28">
     <g id="line2d_28">
      <path clip-path="url(#pd8d5a11a7d)" d="M 295.2 286.56 
L 188.498375 97.100461 
" style="fill:none;stroke:#000000;stroke-linecap:square;stroke-width:0.25;"/>
     </g>
     <g id="text_28">
      <!-- 135 -->
      <g transform="translate(168.075841 92.366615)scale(0.16 -0.16)">
       <use xlink:href="#DejaVuSans-49"/>
       <use x="63.623047" xlink:href="#DejaVuSans-51"/>
       <use x="127.246094" xlink:href="#DejaVuSans-53"/>
      </g>
     </g>
    </g>
    <g id="xtick_29">
     <g id="line2d_29">
      <path clip-path="url(#pd8d5a11a7d)" d="M 295.2 286.56 
L 231.108435 78.780249 
" style="fill:none;stroke:#000000;stroke-linecap:square;stroke-width:0.25;"/>
     </g>
     <g id="text_29">
      <!-- 140 -->
      <g transform="translate(212.743506 73.161735)scale(0.16 -0.16)">
       <use xlink:href="#DejaVuSans-49"/>
       <use x="63.623047" xlink:href="#DejaVuSans-52"/>
       <use x="127.246094" xlink:href="#DejaVuSans-48"/>
      </g>
     </g>
    </g>
    <g id="xtick_30">
     <g id="line2d_30">
      <path clip-path="url(#pd8d5a11a7d)" d="M 295.2 286.56 
L 276.634661 69.914017 
" style="fill:none;stroke:#000000;stroke-linecap:square;stroke-width:0.25;"/>
     </g>
     <g id="text_30">
      <!-- 145 -->
      <g transform="translate(260.468156 63.86736)scale(0.16 -0.16)">
       <use xlink:href="#DejaVuSans-49"/>
       <use x="63.623047" xlink:href="#DejaVuSans-52"/>
       <use x="127.246094" xlink:href="#DejaVuSans-53"/>
      </g>
     </g>
    </g>
   </g>
   <g id="matplotlib.axis_2">
    <g id="ytick_1">
     <g id="line2d_31">
      <path clip-path="url(#pd8d5a11a7d)" d="M 295.2 286.56 
L 295.2 286.56 
" style="fill:none;stroke:#000000;stroke-linecap:square;stroke-width:0.25;"/>
     </g>
     <g id="text_31">
      <!-- 0 -->
      <g transform="translate(295.2 283.2325)scale(0.16 -0.16)">
       <use xlink:href="#DejaVuSans-48"/>
      </g>
     </g>
    </g>
    <g id="ytick_2">
     <g id="line2d_32">
      <path clip-path="url(#pd8d5a11a7d)" d="M 295.2 243.072 
L 298.23357 243.177935 
L 301.25236 243.495222 
L 304.241664 244.022317 
L 307.186917 244.756651 
L 310.073772 245.694647 
L 312.888163 246.831735 
L 315.616379 248.162375 
L 318.245129 249.680084 
L 320.761605 251.377469 
L 323.153548 253.246259 
L 325.409303 255.277351 
L 327.517882 257.460848 
L 329.469012 259.786114 
L 331.253186 262.241819 
L 332.861713 264.816 
L 334.286755 267.496116 
L 335.521371 270.269108 
L 336.559546 273.121469 
L 337.396221 276.039301 
L 338.02732 279.008388 
L 338.449768 282.014266 
L 338.661508 285.042291 
L 338.661508 288.077709 
L 338.449768 291.105734 
L 338.02732 294.111612 
L 337.396221 297.080699 
L 336.559546 299.998531 
L 335.521371 302.850892 
L 334.286755 305.623884 
L 332.861713 308.304 
L 331.253186 310.878181 
L 329.469012 313.333886 
L 327.517882 315.659152 
L 325.409303 317.842649 
L 323.153548 319.873741 
L 320.761605 321.742531 
L 318.245129 323.439916 
L 315.616379 324.957625 
L 312.888163 326.288265 
L 310.073772 327.425353 
L 307.186917 328.363349 
L 304.241664 329.097683 
L 301.25236 329.624778 
L 298.23357 329.942065 
L 295.2 330.048 
L 292.16643 329.942065 
L 289.14764 329.624778 
L 286.158336 329.097683 
L 283.213083 328.363349 
L 280.326228 327.425353 
L 277.511837 326.288265 
L 274.783621 324.957625 
L 272.154871 323.439916 
L 269.638395 321.742531 
L 267.246452 319.873741 
L 264.990697 317.842649 
L 262.882118 315.659152 
L 260.930988 313.333886 
L 259.146814 310.878181 
L 257.538287 308.304 
L 256.113245 305.623884 
L 254.878629 302.850892 
L 253.840454 299.998531 
L 253.003779 297.080699 
L 252.37268 294.111612 
L 251.950232 291.105734 
L 251.738492 288.077709 
L 251.738492 285.042291 
L 251.950232 282.014266 
L 252.37268 279.008388 
L 253.003779 276.039301 
L 253.840454 273.121469 
L 254.878629 270.269108 
L 256.113245 267.496116 
L 257.538287 264.816 
L 259.146814 262.241819 
L 260.930988 259.786114 
L 262.882118 257.460848 
L 264.990697 255.277351 
L 267.246452 253.246259 
L 269.638395 251.377469 
L 272.154871 249.680084 
L 274.783621 248.162375 
L 277.511837 246.831735 
L 280.326228 245.694647 
L 283.213083 244.756651 
L 286.158336 244.022317 
L 289.14764 243.495222 
L 292.16643 243.177935 
L 295.2 243.072 
L 295.2 243.072 
" style="fill:none;stroke:#000000;stroke-linecap:square;stroke-width:0.25;"/>
     </g>
     <g id="text_32">
      <!-- 5 -->
      <g transform="translate(338.681377 282.47353)scale(0.16 -0.16)">
       <use xlink:href="#DejaVuSans-53"/>
      </g>
     </g>
    </g>
    <g id="ytick_3">
     <g id="line2d_33">
      <path clip-path="url(#pd8d5a11a7d)" d="M 295.2 199.584 
L 301.267139 199.795869 
L 307.30472 200.430444 
L 313.283327 201.484634 
L 319.173835 202.953303 
L 324.947544 204.829295 
L 330.576326 207.10347 
L 336.032759 209.76475 
L 341.290258 212.800169 
L 346.32321 216.194938 
L 351.107095 219.932519 
L 355.618606 223.994702 
L 359.835764 228.361696 
L 363.738023 233.012228 
L 367.306372 237.923638 
L 370.523426 243.072 
L 373.373511 248.432231 
L 375.842743 253.978217 
L 377.919092 259.682938 
L 379.592441 265.518601 
L 380.854639 271.456776 
L 381.699536 277.468532 
L 382.123017 283.524581 
L 382.123017 289.595419 
L 381.699536 295.651468 
L 380.854639 301.663224 
L 379.592441 307.601399 
L 377.919092 313.437062 
L 375.842743 319.141783 
L 373.373511 324.687769 
L 370.523426 330.048 
L 367.306372 335.196362 
L 363.738023 340.107772 
L 359.835764 344.758304 
L 355.618606 349.125298 
L 351.107095 353.187481 
L 346.32321 356.925062 
L 341.290258 360.319831 
L 336.032759 363.35525 
L 330.576326 366.01653 
L 324.947544 368.290705 
L 319.173835 370.166697 
L 313.283327 371.635366 
L 307.30472 372.689556 
L 301.267139 373.324131 
L 295.2 373.536 
L 289.132861 373.324131 
L 283.09528 372.689556 
L 277.116673 371.635366 
L 271.226165 370.166697 
L 265.452456 368.290705 
L 259.823674 366.01653 
L 254.367241 363.35525 
L 249.109742 360.319831 
L 244.07679 356.925062 
L 239.292905 353.187481 
L 234.781394 349.125298 
L 230.564236 344.758304 
L 226.661977 340.107772 
L 223.093628 335.196362 
L 219.876574 330.048 
L 217.026489 324.687769 
L 214.557257 319.141783 
L 212.480908 313.437062 
L 210.807559 307.601399 
L 209.545361 301.663224 
L 208.700464 295.651468 
L 208.276983 289.595419 
L 208.276983 283.524581 
L 208.700464 277.468532 
L 209.545361 271.456776 
L 210.807559 265.518601 
L 212.480908 259.682938 
L 214.557257 253.978217 
L 217.026489 248.432231 
L 219.876574 243.072 
L 223.093628 237.923638 
L 226.661977 233.012228 
L 230.564236 228.361696 
L 234.781394 223.994702 
L 239.292905 219.932519 
L 244.07679 216.194938 
L 249.109742 212.800169 
L 254.367241 209.76475 
L 259.823674 207.10347 
L 265.452456 204.829295 
L 271.226165 202.953303 
L 277.116673 201.484634 
L 283.09528 200.430444 
L 289.132861 199.795869 
L 295.2 199.584 
L 295.2 199.584 
" style="fill:none;stroke:#000000;stroke-linecap:square;stroke-width:0.25;"/>
     </g>
     <g id="text_33">
      <!-- 10 -->
      <g transform="translate(382.162753 281.714559)scale(0.16 -0.16)">
       <use xlink:href="#DejaVuSans-49"/>
       <use x="63.623047" xlink:href="#DejaVuSans-48"/>
      </g>
     </g>
    </g>
    <g id="ytick_4">
     <g id="line2d_34">
      <path clip-path="url(#pd8d5a11a7d)" d="M 295.2 156.096 
L 299.753128 156.175475 
L 304.300709 156.413804 
L 308.837201 156.810695 
L 313.357079 157.365667 
L 317.854836 158.078041 
L 322.324991 158.946951 
L 326.762098 159.971338 
L 331.160752 161.149954 
L 335.515593 162.481363 
L 339.821316 163.963942 
L 344.072675 165.595886 
L 348.264489 167.375205 
L 352.391653 169.299734 
L 356.449138 171.367125 
L 360.432 173.574862 
L 364.335387 175.920253 
L 368.154543 178.400442 
L 371.884815 181.012407 
L 375.521659 183.752965 
L 379.060643 186.618778 
L 382.497455 189.606353 
L 385.82791 192.712052 
L 389.047948 195.93209 
L 392.153647 199.262545 
L 395.141222 202.699357 
L 398.007035 206.238341 
L 400.747593 209.875185 
L 403.359558 213.605457 
L 405.839747 217.424613 
L 408.185138 221.328 
L 410.392875 225.310862 
L 412.460266 229.368347 
L 414.384795 233.495511 
L 416.164114 237.687325 
L 417.796058 241.938684 
L 419.278637 246.244407 
L 420.610046 250.599248 
L 421.788662 254.997902 
L 422.813049 259.435009 
L 423.681959 263.905164 
L 424.394333 268.402921 
L 424.949305 272.922799 
L 425.346196 277.459291 
L 425.584525 282.006872 
L 425.664 286.56 
L 425.584525 291.113128 
L 425.346196 295.660709 
L 424.949305 300.197201 
L 424.394333 304.717079 
L 423.681959 309.214836 
L 422.813049 313.684991 
L 421.788662 318.122098 
L 420.610046 322.520752 
L 419.278637 326.875593 
L 417.796058 331.181316 
L 416.164114 335.432675 
L 414.384795 339.624489 
L 412.460266 343.751653 
L 410.392875 347.809138 
L 408.185138 351.792 
L 405.839747 355.695387 
L 403.359558 359.514543 
L 400.747593 363.244815 
L 398.007035 366.881659 
L 395.141222 370.420643 
L 392.153647 373.857455 
L 389.047948 377.18791 
L 385.82791 380.407948 
L 382.497455 383.513647 
L 379.060643 386.501222 
L 375.521659 389.367035 
L 371.884815 392.107593 
L 368.154543 394.719558 
L 364.335387 397.199747 
L 360.432 399.545138 
L 356.449138 401.752875 
L 352.391653 403.820266 
L 348.264489 405.744795 
L 344.072675 407.524114 
L 339.821316 409.156058 
L 335.515593 410.638637 
L 331.160752 411.970046 
L 326.762098 413.148662 
L 322.324991 414.173049 
L 317.854836 415.041959 
L 313.357079 415.754333 
L 308.837201 416.309305 
L 304.300709 416.706196 
L 299.753128 416.944525 
L 295.2 417.024 
L 290.646872 416.944525 
L 286.099291 416.706196 
L 281.562799 416.309305 
L 277.042921 415.754333 
L 272.545164 415.041959 
L 268.075009 414.173049 
L 263.637902 413.148662 
L 259.239248 411.970046 
L 254.884407 410.638637 
L 250.578684 409.156058 
L 246.327325 407.524114 
L 242.135511 405.744795 
L 238.008347 403.820266 
L 233.950862 401.752875 
L 229.968 399.545138 
L 226.064613 397.199747 
L 222.245457 394.719558 
L 218.515185 392.107593 
L 214.878341 389.367035 
L 211.339357 386.501222 
L 207.902545 383.513647 
L 204.57209 380.407948 
L 201.352052 377.18791 
L 198.246353 373.857455 
L 195.258778 370.420643 
L 192.392965 366.881659 
L 189.652407 363.244815 
L 187.040442 359.514543 
L 184.560253 355.695387 
L 182.214862 351.792 
L 180.007125 347.809138 
L 177.939734 343.751653 
L 176.015205 339.624489 
L 174.235886 335.432675 
L 172.603942 331.181316 
L 171.121363 326.875593 
L 169.789954 322.520752 
L 168.611338 318.122098 
L 167.586951 313.684991 
L 166.718041 309.214836 
L 166.005667 304.717079 
L 165.450695 300.197201 
L 165.053804 295.660709 
L 164.815475 291.113128 
L 164.736 286.56 
L 164.815475 282.006872 
L 165.053804 277.459291 
L 165.450695 272.922799 
L 166.005667 268.402921 
L 166.718041 263.905164 
L 167.586951 259.435009 
L 168.611338 254.997902 
L 169.789954 250.599248 
L 171.121363 246.244407 
L 172.603942 241.938684 
L 174.235886 237.687325 
L 176.015205 233.495511 
L 177.939734 229.368347 
L 180.007125 225.310862 
L 182.214862 221.328 
L 184.560253 217.424613 
L 187.040442 213.605457 
L 189.652407 209.875185 
L 192.392965 206.238341 
L 195.258778 202.699357 
L 198.246353 199.262545 
L 201.352052 195.93209 
L 204.57209 192.712052 
L 207.902545 189.606353 
L 211.339357 186.618778 
L 214.878341 183.752965 
L 218.515185 181.012407 
L 222.245457 178.400442 
L 226.064613 175.920253 
L 229.968 173.574862 
L 233.950862 171.367125 
L 238.008347 169.299734 
L 242.135511 167.375205 
L 246.327325 165.595886 
L 250.578684 163.963942 
L 254.884407 162.481363 
L 259.239248 161.149954 
L 263.637902 159.971338 
L 268.075009 158.946951 
L 272.545164 158.078041 
L 277.042921 157.365667 
L 281.562799 156.810695 
L 286.099291 156.413804 
L 290.646872 156.175475 
L 295.2 156.096 
L 295.2 156.096 
" style="fill:none;stroke:#000000;stroke-linecap:square;stroke-width:0.25;"/>
     </g>
     <g id="text_34">
      <!-- 15 -->
      <g transform="translate(425.64413 280.955589)scale(0.16 -0.16)">
       <use xlink:href="#DejaVuSans-49"/>
       <use x="63.623047" xlink:href="#DejaVuSans-53"/>
      </g>
     </g>
    </g>
    <g id="ytick_5">
     <g id="line2d_35">
      <path clip-path="url(#pd8d5a11a7d)" d="M 295.2 112.608 
L 301.270837 112.713967 
L 307.334278 113.031738 
L 313.382935 113.560927 
L 319.409439 114.300889 
L 325.406448 115.250722 
L 331.366654 116.409269 
L 337.282798 117.775118 
L 343.147669 119.346605 
L 348.954124 121.121817 
L 354.695088 123.098589 
L 360.363566 125.274514 
L 365.952653 127.646941 
L 371.455538 130.212978 
L 376.865517 132.9695 
L 382.176 135.913149 
L 387.380516 139.040338 
L 392.472724 142.347256 
L 397.44642 145.829876 
L 402.295545 149.483953 
L 407.01419 153.305037 
L 411.596607 157.288471 
L 416.037213 161.429403 
L 420.330597 165.722787 
L 424.471529 170.163393 
L 428.454963 174.74581 
L 432.276047 179.464455 
L 435.930124 184.31358 
L 439.412744 189.287276 
L 442.719662 194.379484 
L 445.846851 199.584 
L 448.7905 204.894483 
L 451.547022 210.304462 
L 454.113059 215.807347 
L 456.485486 221.396434 
L 458.661411 227.064912 
L 460.638183 232.805876 
L 462.413395 238.612331 
L 463.984882 244.477202 
L 465.350731 250.393346 
L 466.509278 256.353552 
L 467.459111 262.350561 
L 468.199073 268.377065 
L 468.728262 274.425722 
L 469.046033 280.489163 
L 469.152 286.56 
L 469.046033 292.630837 
L 468.728262 298.694278 
L 468.199073 304.742935 
L 467.459111 310.769439 
L 466.509278 316.766448 
L 465.350731 322.726654 
L 463.984882 328.642798 
L 462.413395 334.507669 
L 460.638183 340.314124 
L 458.661411 346.055088 
L 456.485486 351.723566 
L 454.113059 357.312653 
L 451.547022 362.815538 
L 448.7905 368.225517 
L 445.846851 373.536 
L 442.719662 378.740516 
L 439.412744 383.832724 
L 435.930124 388.80642 
L 432.276047 393.655545 
L 428.454963 398.37419 
L 424.471529 402.956607 
L 420.330597 407.397213 
L 416.037213 411.690597 
L 411.596607 415.831529 
L 407.01419 419.814963 
L 402.295545 423.636047 
L 397.44642 427.290124 
L 392.472724 430.772744 
L 387.380516 434.079662 
L 382.176 437.206851 
L 376.865517 440.1505 
L 371.455538 442.907022 
L 365.952653 445.473059 
L 360.363566 447.845486 
L 354.695088 450.021411 
L 348.954124 451.998183 
L 343.147669 453.773395 
L 337.282798 455.344882 
L 331.366654 456.710731 
L 325.406448 457.869278 
L 319.409439 458.819111 
L 313.382935 459.559073 
L 307.334278 460.088262 
L 301.270837 460.406033 
L 295.2 460.512 
L 289.129163 460.406033 
L 283.065722 460.088262 
L 277.017065 459.559073 
L 270.990561 458.819111 
L 264.993552 457.869278 
L 259.033346 456.710731 
L 253.117202 455.344882 
L 247.252331 453.773395 
L 241.445876 451.998183 
L 235.704912 450.021411 
L 230.036434 447.845486 
L 224.447347 445.473059 
L 218.944462 442.907022 
L 213.534483 440.1505 
L 208.224 437.206851 
L 203.019484 434.079662 
L 197.927276 430.772744 
L 192.95358 427.290124 
L 188.104455 423.636047 
L 183.38581 419.814963 
L 178.803393 415.831529 
L 174.362787 411.690597 
L 170.069403 407.397213 
L 165.928471 402.956607 
L 161.945037 398.37419 
L 158.123953 393.655545 
L 154.469876 388.80642 
L 150.987256 383.832724 
L 147.680338 378.740516 
L 144.553149 373.536 
L 141.6095 368.225517 
L 138.852978 362.815538 
L 136.286941 357.312653 
L 133.914514 351.723566 
L 131.738589 346.055088 
L 129.761817 340.314124 
L 127.986605 334.507669 
L 126.415118 328.642798 
L 125.049269 322.726654 
L 123.890722 316.766448 
L 122.940889 310.769439 
L 122.200927 304.742935 
L 121.671738 298.694278 
L 121.353967 292.630837 
L 121.248 286.56 
L 121.353967 280.489163 
L 121.671738 274.425722 
L 122.200927 268.377065 
L 122.940889 262.350561 
L 123.890722 256.353552 
L 125.049269 250.393346 
L 126.415118 244.477202 
L 127.986605 238.612331 
L 129.761817 232.805876 
L 131.738589 227.064912 
L 133.914514 221.396434 
L 136.286941 215.807347 
L 138.852978 210.304462 
L 141.6095 204.894483 
L 144.553149 199.584 
L 147.680338 194.379484 
L 150.987256 189.287276 
L 154.469876 184.31358 
L 158.123953 179.464455 
L 161.945037 174.74581 
L 165.928471 170.163393 
L 170.069403 165.722787 
L 174.362787 161.429403 
L 178.803393 157.288471 
L 183.38581 153.305037 
L 188.104455 149.483953 
L 192.95358 145.829876 
L 197.927276 142.347256 
L 203.019484 139.040338 
L 208.224 135.913149 
L 213.534483 132.9695 
L 218.944462 130.212978 
L 224.447347 127.646941 
L 230.036434 125.274514 
L 235.704912 123.098589 
L 241.445876 121.121817 
L 247.252331 119.346605 
L 253.117202 117.775118 
L 259.033346 116.409269 
L 264.993552 115.250722 
L 270.990561 114.300889 
L 277.017065 113.560927 
L 283.065722 113.031738 
L 289.129163 112.713967 
L 295.2 112.608 
L 295.2 112.608 
" style="fill:none;stroke:#000000;stroke-linecap:square;stroke-width:0.25;"/>
     </g>
     <g id="text_35">
      <!-- 20 -->
      <g transform="translate(469.125506 280.196619)scale(0.16 -0.16)">
       <use xlink:href="#DejaVuSans-50"/>
       <use x="63.623047" xlink:href="#DejaVuSans-48"/>
      </g>
     </g>
    </g>
   </g>
   <g id="line2d_36">
    <path clip-path="url(#pd8d5a11a7d)" d="M 298.544816 208.353094 
L 301.883522 208.567446 
L 304.68662 212.983649 
L 306.404227 221.666882 
L 311.802117 210.062434 
L 317.391637 201.933671 
L 323.734679 194.052841 
L 321.994941 211.277124 
L 327.606086 206.516342 
L 325.170107 220.765554 
L 332.797454 212.575507 
L 327.210487 229.722138 
L 336.778651 219.596402 
L 329.730039 235.913735 
L 334.736159 233.585149 
L 322.02959 253.644527 
L 331.245401 246.007661 
L 329.199557 251.452666 
L 360.517693 224.642116 
L 330.428272 255.914493 
L 331.240305 257.818816 
L 322.967707 266.29477 
L 367.944292 238.094239 
L 350.644596 252.94916 
L 372.128603 244.310952 
L 384.068644 242.587167 
L 353.081588 260.937538 
L 362.284188 260.231396 
L 373.871526 259.502562 
L 349.675649 270.391913 
L 374.695316 266.619246 
L 366.85945 271.807863 
L 372.475011 274.066776 
L 381.036001 276.423891 
L 352.851801 282.239595 
L 364.287517 284.344498 
L 386.519586 287.53585 
L 351.882285 289.591331 
L 342.815752 291.153434 
L 380.381066 298.469545 
L 374.566633 301.138192 
L 358.573352 301.024554 
L 343.017809 299.646965 
L 358.360327 306.783981 
L 371.239414 314.543207 
L 362.245837 314.541366 
L 358.672453 316.295426 
L 337.226509 308.485203 
L 334.23123 309.094691 
L 329.102146 308.115632 
L 333.245494 313.09889 
L 325.575543 311.864282 
L 344.67588 331.492685 
L 337.449839 328.360765 
L 354.627607 350.607728 
L 334.962958 333.267832 
L 348.030197 354.27895 
L 344.877833 356.179523 
L 339.327053 354.351002 
L 330.229668 345.763053 
L 339.330279 368.989478 
L 334.824346 368.840802 
L 317.244194 337.831483 
L 319.92716 351.598875 
L 317.125482 352.596058 
L 312.494651 347.199558 
L 324.267196 407.919196 
L 309.124453 358.059125 
L 307.990259 371.417823 
L 304.203476 370.496382 
L 300.586819 370.464055 
L 296.937439 367.845086 
L 293.421001 369.789447 
L 289.255924 379.143785 
L 287.952884 354.122429 
L 282.479958 370.951965 
L 272.754613 401.81232 
L 268.638259 397.458606 
L 267.051465 385.256108 
L 271.447395 358.099063 
L 258.243646 383.76484 
L 233.504885 430.053566 
L 240.008947 401.165402 
L 235.407712 398.244025 
L 230.75749 395.473203 
L 237.998265 374.437225 
L 220.051753 391.874279 
L 221.906461 380.509329 
L 230.010263 363.135574 
L 216.680266 371.184148 
L 202.842883 377.935453 
L 230.813581 345.034042 
L 217.681615 351.136528 
L 206.570093 354.192714 
L 218.769319 339.874734 
L 228.279754 329.10917 
L 238.707431 319.176 
L 220.978871 325.281115 
L 209.80602 326.565172 
L 243.735238 308.038654 
L 236.622612 308.11702 
L 230.116759 307.399699 
L 221.022789 306.861108 
L 224.685989 302.654363 
L 221.203684 300.151764 
L 210.676934 298.377547 
L 189.925902 296.715666 
L 202.683858 291.507703 
L 228.299204 287.274908 
L 196.372823 283.390805 
L 232.910082 281.892016 
L 192.508712 274.433502 
L 180.594067 268.031401 
L 181.315015 263.115124 
L 192.4764 260.79262 
L 213.743084 262.384015 
L 166.893893 242.431778 
L 172.405093 238.36655 
L 193.977515 241.751809 
L 206.108627 242.476959 
L 222.483011 246.623963 
L 166.988397 208.837373 
L 191.331285 217.357645 
L 185.27058 206.332095 
L 239.949533 242.499223 
L 215.072949 216.856495 
L 209.799458 205.604585 
L 223.887371 212.923855 
L 226.686223 209.479599 
L 217.220251 190.891736 
L 227.82008 196.277046 
L 217.020503 171.891738 
L 243.967455 204.048532 
L 245.583745 198.461314 
L 249.492004 196.615534 
L 256.167341 200.870208 
L 262.723973 206.343586 
L 266.359489 205.529905 
L 271.317459 209.134703 
L 271.280298 195.343809 
L 277.573061 205.340362 
L 281.363837 206.423121 
L 288.693487 236.096772 
L 292.753744 258.013706 
L 295.2 219.3952 
L 295.2 219.3952 
" style="fill:none;stroke:#d3d3d3;stroke-linecap:square;stroke-width:4;"/>
   </g>
   <g id="patch_3">
    <path d="M 295.2 69.12 
C 266.646041 69.12 238.369733 74.744507 211.989314 85.671634 
C 185.608896 96.598762 161.6374 112.616003 141.446701 132.806701 
C 121.256003 152.9974 105.238762 176.968896 94.311634 203.349314 
C 83.384507 229.729733 77.76 258.006041 77.76 286.56 
C 77.76 315.113959 83.384507 343.390267 94.311634 369.770686 
C 105.238762 396.151104 121.256003 420.1226 141.446701 440.313299 
C 161.6374 460.503997 185.608896 476.521238 211.989314 487.448366 
C 238.369733 498.375493 266.646041 504 295.2 504 
C 323.753959 504 352.030267 498.375493 378.410686 487.448366 
C 404.791104 476.521238 428.7626 460.503997 448.953299 440.313299 
C 469.143997 420.1226 485.161238 396.151104 496.088366 369.770686 
C 507.015493 343.390267 512.64 315.113959 512.64 286.56 
C 512.64 258.006041 507.015493 229.729733 496.088366 203.349314 
C 485.161238 176.968896 469.143997 152.9974 448.953299 132.806701 
C 428.7626 112.616003 404.791104 96.598762 378.410686 85.671634 
C 352.030267 74.744507 323.753959 69.12 295.2 69.12 
" style="fill:none;stroke:#000000;stroke-linecap:square;stroke-linejoin:miter;stroke-width:2;"/>
   </g>
   <g id="text_36">
    <!-- Naives Non-corrected error -->
    <defs>
     <path d="M 9.8125 72.90625 
L 23.09375 72.90625 
L 55.421875 11.921875 
L 55.421875 72.90625 
L 64.984375 72.90625 
L 64.984375 0 
L 51.703125 0 
L 19.390625 60.984375 
L 19.390625 0 
L 9.8125 0 
z
" id="DejaVuSans-78"/>
     <path d="M 34.28125 27.484375 
Q 23.390625 27.484375 19.1875 25 
Q 14.984375 22.515625 14.984375 16.5 
Q 14.984375 11.71875 18.140625 8.90625 
Q 21.296875 6.109375 26.703125 6.109375 
Q 34.1875 6.109375 38.703125 11.40625 
Q 43.21875 16.703125 43.21875 25.484375 
L 43.21875 27.484375 
z
M 52.203125 31.203125 
L 52.203125 0 
L 43.21875 0 
L 43.21875 8.296875 
Q 40.140625 3.328125 35.546875 0.953125 
Q 30.953125 -1.421875 24.3125 -1.421875 
Q 15.921875 -1.421875 10.953125 3.296875 
Q 6 8.015625 6 15.921875 
Q 6 25.140625 12.171875 29.828125 
Q 18.359375 34.515625 30.609375 34.515625 
L 43.21875 34.515625 
L 43.21875 35.40625 
Q 43.21875 41.609375 39.140625 45 
Q 35.0625 48.390625 27.6875 48.390625 
Q 23 48.390625 18.546875 47.265625 
Q 14.109375 46.140625 10.015625 43.890625 
L 10.015625 52.203125 
Q 14.9375 54.109375 19.578125 55.046875 
Q 24.21875 56 28.609375 56 
Q 40.484375 56 46.34375 49.84375 
Q 52.203125 43.703125 52.203125 31.203125 
z
" id="DejaVuSans-97"/>
     <path d="M 9.421875 54.6875 
L 18.40625 54.6875 
L 18.40625 0 
L 9.421875 0 
z
M 9.421875 75.984375 
L 18.40625 75.984375 
L 18.40625 64.59375 
L 9.421875 64.59375 
z
" id="DejaVuSans-105"/>
     <path d="M 2.984375 54.6875 
L 12.5 54.6875 
L 29.59375 8.796875 
L 46.6875 54.6875 
L 56.203125 54.6875 
L 35.6875 0 
L 23.484375 0 
z
" id="DejaVuSans-118"/>
     <path d="M 56.203125 29.59375 
L 56.203125 25.203125 
L 14.890625 25.203125 
Q 15.484375 15.921875 20.484375 11.0625 
Q 25.484375 6.203125 34.421875 6.203125 
Q 39.59375 6.203125 44.453125 7.46875 
Q 49.3125 8.734375 54.109375 11.28125 
L 54.109375 2.78125 
Q 49.265625 0.734375 44.1875 -0.34375 
Q 39.109375 -1.421875 33.890625 -1.421875 
Q 20.796875 -1.421875 13.15625 6.1875 
Q 5.515625 13.8125 5.515625 26.8125 
Q 5.515625 40.234375 12.765625 48.109375 
Q 20.015625 56 32.328125 56 
Q 43.359375 56 49.78125 48.890625 
Q 56.203125 41.796875 56.203125 29.59375 
z
M 47.21875 32.234375 
Q 47.125 39.59375 43.09375 43.984375 
Q 39.0625 48.390625 32.421875 48.390625 
Q 24.90625 48.390625 20.390625 44.140625 
Q 15.875 39.890625 15.1875 32.171875 
z
" id="DejaVuSans-101"/>
     <path d="M 44.28125 53.078125 
L 44.28125 44.578125 
Q 40.484375 46.53125 36.375 47.5 
Q 32.28125 48.484375 27.875 48.484375 
Q 21.1875 48.484375 17.84375 46.4375 
Q 14.5 44.390625 14.5 40.28125 
Q 14.5 37.15625 16.890625 35.375 
Q 19.28125 33.59375 26.515625 31.984375 
L 29.59375 31.296875 
Q 39.15625 29.25 43.1875 25.515625 
Q 47.21875 21.78125 47.21875 15.09375 
Q 47.21875 7.46875 41.1875 3.015625 
Q 35.15625 -1.421875 24.609375 -1.421875 
Q 20.21875 -1.421875 15.453125 -0.5625 
Q 10.6875 0.296875 5.421875 2 
L 5.421875 11.28125 
Q 10.40625 8.6875 15.234375 7.390625 
Q 20.0625 6.109375 24.8125 6.109375 
Q 31.15625 6.109375 34.5625 8.28125 
Q 37.984375 10.453125 37.984375 14.40625 
Q 37.984375 18.0625 35.515625 20.015625 
Q 33.0625 21.96875 24.703125 23.78125 
L 21.578125 24.515625 
Q 13.234375 26.265625 9.515625 29.90625 
Q 5.8125 33.546875 5.8125 39.890625 
Q 5.8125 47.609375 11.28125 51.796875 
Q 16.75 56 26.8125 56 
Q 31.78125 56 36.171875 55.265625 
Q 40.578125 54.546875 44.28125 53.078125 
z
" id="DejaVuSans-115"/>
     <path id="DejaVuSans-32"/>
     <path d="M 30.609375 48.390625 
Q 23.390625 48.390625 19.1875 42.75 
Q 14.984375 37.109375 14.984375 27.296875 
Q 14.984375 17.484375 19.15625 11.84375 
Q 23.34375 6.203125 30.609375 6.203125 
Q 37.796875 6.203125 41.984375 11.859375 
Q 46.1875 17.53125 46.1875 27.296875 
Q 46.1875 37.015625 41.984375 42.703125 
Q 37.796875 48.390625 30.609375 48.390625 
z
M 30.609375 56 
Q 42.328125 56 49.015625 48.375 
Q 55.71875 40.765625 55.71875 27.296875 
Q 55.71875 13.875 49.015625 6.21875 
Q 42.328125 -1.421875 30.609375 -1.421875 
Q 18.84375 -1.421875 12.171875 6.21875 
Q 5.515625 13.875 5.515625 27.296875 
Q 5.515625 40.765625 12.171875 48.375 
Q 18.84375 56 30.609375 56 
z
" id="DejaVuSans-111"/>
     <path d="M 54.890625 33.015625 
L 54.890625 0 
L 45.90625 0 
L 45.90625 32.71875 
Q 45.90625 40.484375 42.875 44.328125 
Q 39.84375 48.1875 33.796875 48.1875 
Q 26.515625 48.1875 22.3125 43.546875 
Q 18.109375 38.921875 18.109375 30.90625 
L 18.109375 0 
L 9.078125 0 
L 9.078125 54.6875 
L 18.109375 54.6875 
L 18.109375 46.1875 
Q 21.34375 51.125 25.703125 53.5625 
Q 30.078125 56 35.796875 56 
Q 45.21875 56 50.046875 50.171875 
Q 54.890625 44.34375 54.890625 33.015625 
z
" id="DejaVuSans-110"/>
     <path d="M 4.890625 31.390625 
L 31.203125 31.390625 
L 31.203125 23.390625 
L 4.890625 23.390625 
z
" id="DejaVuSans-45"/>
     <path d="M 48.78125 52.59375 
L 48.78125 44.1875 
Q 44.96875 46.296875 41.140625 47.34375 
Q 37.3125 48.390625 33.40625 48.390625 
Q 24.65625 48.390625 19.8125 42.84375 
Q 14.984375 37.3125 14.984375 27.296875 
Q 14.984375 17.28125 19.8125 11.734375 
Q 24.65625 6.203125 33.40625 6.203125 
Q 37.3125 6.203125 41.140625 7.25 
Q 44.96875 8.296875 48.78125 10.40625 
L 48.78125 2.09375 
Q 45.015625 0.34375 40.984375 -0.53125 
Q 36.96875 -1.421875 32.421875 -1.421875 
Q 20.0625 -1.421875 12.78125 6.34375 
Q 5.515625 14.109375 5.515625 27.296875 
Q 5.515625 40.671875 12.859375 48.328125 
Q 20.21875 56 33.015625 56 
Q 37.15625 56 41.109375 55.140625 
Q 45.0625 54.296875 48.78125 52.59375 
z
" id="DejaVuSans-99"/>
     <path d="M 41.109375 46.296875 
Q 39.59375 47.171875 37.8125 47.578125 
Q 36.03125 48 33.890625 48 
Q 26.265625 48 22.1875 43.046875 
Q 18.109375 38.09375 18.109375 28.8125 
L 18.109375 0 
L 9.078125 0 
L 9.078125 54.6875 
L 18.109375 54.6875 
L 18.109375 46.1875 
Q 20.953125 51.171875 25.484375 53.578125 
Q 30.03125 56 36.53125 56 
Q 37.453125 56 38.578125 55.875 
Q 39.703125 55.765625 41.0625 55.515625 
z
" id="DejaVuSans-114"/>
     <path d="M 18.3125 70.21875 
L 18.3125 54.6875 
L 36.8125 54.6875 
L 36.8125 47.703125 
L 18.3125 47.703125 
L 18.3125 18.015625 
Q 18.3125 11.328125 20.140625 9.421875 
Q 21.96875 7.515625 27.59375 7.515625 
L 36.8125 7.515625 
L 36.8125 0 
L 27.59375 0 
Q 17.1875 0 13.234375 3.875 
Q 9.28125 7.765625 9.28125 18.015625 
L 9.28125 47.703125 
L 2.6875 47.703125 
L 2.6875 54.6875 
L 9.28125 54.6875 
L 9.28125 70.21875 
z
" id="DejaVuSans-116"/>
     <path d="M 45.40625 46.390625 
L 45.40625 75.984375 
L 54.390625 75.984375 
L 54.390625 0 
L 45.40625 0 
L 45.40625 8.203125 
Q 42.578125 3.328125 38.25 0.953125 
Q 33.9375 -1.421875 27.875 -1.421875 
Q 17.96875 -1.421875 11.734375 6.484375 
Q 5.515625 14.40625 5.515625 27.296875 
Q 5.515625 40.1875 11.734375 48.09375 
Q 17.96875 56 27.875 56 
Q 33.9375 56 38.25 53.625 
Q 42.578125 51.265625 45.40625 46.390625 
z
M 14.796875 27.296875 
Q 14.796875 17.390625 18.875 11.75 
Q 22.953125 6.109375 30.078125 6.109375 
Q 37.203125 6.109375 41.296875 11.75 
Q 45.40625 17.390625 45.40625 27.296875 
Q 45.40625 37.203125 41.296875 42.84375 
Q 37.203125 48.484375 30.078125 48.484375 
Q 22.953125 48.484375 18.875 42.84375 
Q 14.796875 37.203125 14.796875 27.296875 
z
" id="DejaVuSans-100"/>
    </defs>
    <g transform="translate(164.565 41.376)scale(0.192 -0.192)">
     <use xlink:href="#DejaVuSans-78"/>
     <use x="74.804688" xlink:href="#DejaVuSans-97"/>
     <use x="136.083984" xlink:href="#DejaVuSans-105"/>
     <use x="163.867188" xlink:href="#DejaVuSans-118"/>
     <use x="223.046875" xlink:href="#DejaVuSans-101"/>
     <use x="284.570312" xlink:href="#DejaVuSans-115"/>
     <use x="336.669922" xlink:href="#DejaVuSans-32"/>
     <use x="368.457031" xlink:href="#DejaVuSans-78"/>
     <use x="443.261719" xlink:href="#DejaVuSans-111"/>
     <use x="504.443359" xlink:href="#DejaVuSans-110"/>
     <use x="567.822266" xlink:href="#DejaVuSans-45"/>
     <use x="603.90625" xlink:href="#DejaVuSans-99"/>
     <use x="658.886719" xlink:href="#DejaVuSans-111"/>
     <use x="720.068359" xlink:href="#DejaVuSans-114"/>
     <use x="761.166016" xlink:href="#DejaVuSans-114"/>
     <use x="802.248047" xlink:href="#DejaVuSans-101"/>
     <use x="863.771484" xlink:href="#DejaVuSans-99"/>
     <use x="918.751953" xlink:href="#DejaVuSans-116"/>
     <use x="957.960938" xlink:href="#DejaVuSans-101"/>
     <use x="1019.484375" xlink:href="#DejaVuSans-100"/>
     <use x="1082.960938" xlink:href="#DejaVuSans-32"/>
     <use x="1114.748047" xlink:href="#DejaVuSans-101"/>
     <use x="1176.271484" xlink:href="#DejaVuSans-114"/>
     <use x="1217.369141" xlink:href="#DejaVuSans-114"/>
     <use x="1258.451172" xlink:href="#DejaVuSans-111"/>
     <use x="1319.632812" xlink:href="#DejaVuSans-114"/>
    </g>
   </g>
  </g>
 </g>
 <defs>
  <clipPath id="pd8d5a11a7d">
   <path d="M 512.64 286.56 
C 512.64 258.006041 507.015493 229.729733 496.088366 203.349314 
C 485.161238 176.968896 469.143997 152.9974 448.953299 132.806701 
C 428.7626 112.616003 404.791104 96.598762 378.410686 85.671634 
C 352.030267 74.744507 323.753959 69.12 295.2 69.12 
C 266.646041 69.12 238.369733 74.744507 211.989314 85.671634 
C 185.608896 96.598762 161.6374 112.616003 141.446701 132.806701 
C 121.256003 152.9974 105.238762 176.968896 94.311634 203.349314 
C 83.384507 229.729733 77.76 258.006041 77.76 286.56 
C 77.76 315.113959 83.384507 343.390267 94.311634 369.770686 
C 105.238762 396.151104 121.256003 420.1226 141.446701 440.313299 
C 161.6374 460.503997 185.608896 476.521238 211.989314 487.448366 
C 238.369733 498.375493 266.646041 504 295.2 504 
C 323.753959 504 352.030267 498.375493 378.410686 487.448366 
C 404.791104 476.521238 428.7626 460.503997 448.953299 440.313299 
C 469.143997 420.1226 485.161238 396.151104 496.088366 369.770686 
C 507.015493 343.390267 512.64 315.113959 512.64 286.56 
M 295.2 286.56 
C 295.2 286.56 295.2 286.56 295.2 286.56 
C 295.2 286.56 295.2 286.56 295.2 286.56 
C 295.2 286.56 295.2 286.56 295.2 286.56 
C 295.2 286.56 295.2 286.56 295.2 286.56 
C 295.2 286.56 295.2 286.56 295.2 286.56 
C 295.2 286.56 295.2 286.56 295.2 286.56 
C 295.2 286.56 295.2 286.56 295.2 286.56 
C 295.2 286.56 295.2 286.56 295.2 286.56 
C 295.2 286.56 295.2 286.56 295.2 286.56 
C 295.2 286.56 295.2 286.56 295.2 286.56 
C 295.2 286.56 295.2 286.56 295.2 286.56 
C 295.2 286.56 295.2 286.56 295.2 286.56 
C 295.2 286.56 295.2 286.56 295.2 286.56 
C 295.2 286.56 295.2 286.56 295.2 286.56 
C 295.2 286.56 295.2 286.56 295.2 286.56 
C 295.2 286.56 295.2 286.56 295.2 286.56 
M 512.64 286.56 
z
"/>
  </clipPath>
 </defs>
</svg>
