<?xml version="1.0" encoding="utf-8" standalone="no"?>
<!DOCTYPE svg PUBLIC "-//W3C//DTD SVG 1.1//EN"
  "http://www.w3.org/Graphics/SVG/1.1/DTD/svg11.dtd">
<!-- Created with matplotlib (https://matplotlib.org/) -->
<svg height="399.619pt" version="1.1" viewBox="0 0 634.2375 399.619" width="634.2375pt" xmlns="http://www.w3.org/2000/svg" xmlns:xlink="http://www.w3.org/1999/xlink">
 <defs>
  <style type="text/css">
*{stroke-linecap:butt;stroke-linejoin:round;}
  </style>
 </defs>
 <g id="figure_1">
  <g id="patch_1">
   <path d="M 0 399.619 
L 634.2375 399.619 
L 634.2375 0 
L 0 0 
z
" style="fill:#ffffff;"/>
  </g>
  <g id="axes_1">
   <g id="patch_2">
    <path d="M 69.0375 353.949 
L 627.0375 353.949 
L 627.0375 27.789 
L 69.0375 27.789 
z
" style="fill:#ffffff;"/>
   </g>
   <g id="patch_3">
    <path clip-path="url(#pa357e5d731)" d="M 87.6375 244.346953 
L 236.4375 244.346953 
L 236.4375 182.392042 
L 87.6375 182.392042 
z
" style="fill:#a9a9a9;"/>
   </g>
   <g id="patch_4">
    <path clip-path="url(#pa357e5d731)" d="M 273.6375 244.346953 
L 422.4375 244.346953 
L 422.4375 210.9851 
L 273.6375 210.9851 
z
" style="fill:#a9a9a9;"/>
   </g>
   <g id="patch_5">
    <path clip-path="url(#pa357e5d731)" d="M 459.6375 244.346953 
L 608.4375 244.346953 
L 608.4375 283.268526 
L 459.6375 283.268526 
z
" style="fill:#a9a9a9;"/>
   </g>
   <g id="matplotlib.axis_1">
    <g id="xtick_1">
     <g id="line2d_1">
      <defs>
       <path d="M 0 0 
L 0 -6 
" id="m6bcdabeec0" style="stroke:#000000;stroke-width:2;"/>
      </defs>
      <g>
       <use style="stroke:#000000;stroke-width:2;" x="162.0375" xlink:href="#m6bcdabeec0" y="353.949"/>
      </g>
     </g>
     <g id="text_1">
      <!-- 1 -->
      <defs>
       <path d="M 12.40625 8.296875 
L 28.515625 8.296875 
L 28.515625 63.921875 
L 10.984375 60.40625 
L 10.984375 69.390625 
L 28.421875 72.90625 
L 38.28125 72.90625 
L 38.28125 8.296875 
L 54.390625 8.296875 
L 54.390625 0 
L 12.40625 0 
z
" id="DejaVuSans-49"/>
      </defs>
      <g transform="translate(156.9475 369.6065)scale(0.16 -0.16)">
       <use xlink:href="#DejaVuSans-49"/>
      </g>
     </g>
    </g>
    <g id="xtick_2">
     <g id="line2d_2">
      <g>
       <use style="stroke:#000000;stroke-width:2;" x="348.0375" xlink:href="#m6bcdabeec0" y="353.949"/>
      </g>
     </g>
     <g id="text_2">
      <!-- 2 -->
      <defs>
       <path d="M 19.1875 8.296875 
L 53.609375 8.296875 
L 53.609375 0 
L 7.328125 0 
L 7.328125 8.296875 
Q 12.9375 14.109375 22.625 23.890625 
Q 32.328125 33.6875 34.8125 36.53125 
Q 39.546875 41.84375 41.421875 45.53125 
Q 43.3125 49.21875 43.3125 52.78125 
Q 43.3125 58.59375 39.234375 62.25 
Q 35.15625 65.921875 28.609375 65.921875 
Q 23.96875 65.921875 18.8125 64.3125 
Q 13.671875 62.703125 7.8125 59.421875 
L 7.8125 69.390625 
Q 13.765625 71.78125 18.9375 73 
Q 24.125 74.21875 28.421875 74.21875 
Q 39.75 74.21875 46.484375 68.546875 
Q 53.21875 62.890625 53.21875 53.421875 
Q 53.21875 48.921875 51.53125 44.890625 
Q 49.859375 40.875 45.40625 35.40625 
Q 44.1875 33.984375 37.640625 27.21875 
Q 31.109375 20.453125 19.1875 8.296875 
z
" id="DejaVuSans-50"/>
      </defs>
      <g transform="translate(342.9475 369.6065)scale(0.16 -0.16)">
       <use xlink:href="#DejaVuSans-50"/>
      </g>
     </g>
    </g>
    <g id="xtick_3">
     <g id="line2d_3">
      <g>
       <use style="stroke:#000000;stroke-width:2;" x="534.0375" xlink:href="#m6bcdabeec0" y="353.949"/>
      </g>
     </g>
     <g id="text_3">
      <!-- 3 -->
      <defs>
       <path d="M 40.578125 39.3125 
Q 47.65625 37.796875 51.625 33 
Q 55.609375 28.21875 55.609375 21.1875 
Q 55.609375 10.40625 48.1875 4.484375 
Q 40.765625 -1.421875 27.09375 -1.421875 
Q 22.515625 -1.421875 17.65625 -0.515625 
Q 12.796875 0.390625 7.625 2.203125 
L 7.625 11.71875 
Q 11.71875 9.328125 16.59375 8.109375 
Q 21.484375 6.890625 26.8125 6.890625 
Q 36.078125 6.890625 40.9375 10.546875 
Q 45.796875 14.203125 45.796875 21.1875 
Q 45.796875 27.640625 41.28125 31.265625 
Q 36.765625 34.90625 28.71875 34.90625 
L 20.21875 34.90625 
L 20.21875 43.015625 
L 29.109375 43.015625 
Q 36.375 43.015625 40.234375 45.921875 
Q 44.09375 48.828125 44.09375 54.296875 
Q 44.09375 59.90625 40.109375 62.90625 
Q 36.140625 65.921875 28.71875 65.921875 
Q 24.65625 65.921875 20.015625 65.03125 
Q 15.375 64.15625 9.8125 62.3125 
L 9.8125 71.09375 
Q 15.4375 72.65625 20.34375 73.4375 
Q 25.25 74.21875 29.59375 74.21875 
Q 40.828125 74.21875 47.359375 69.109375 
Q 53.90625 64.015625 53.90625 55.328125 
Q 53.90625 49.265625 50.4375 45.09375 
Q 46.96875 40.921875 40.578125 39.3125 
z
" id="DejaVuSans-51"/>
      </defs>
      <g transform="translate(528.9475 369.6065)scale(0.16 -0.16)">
       <use xlink:href="#DejaVuSans-51"/>
      </g>
     </g>
    </g>
    <g id="text_4">
     <!-- TYPE -->
     <defs>
      <path d="M -0.296875 72.90625 
L 61.375 72.90625 
L 61.375 64.59375 
L 35.5 64.59375 
L 35.5 0 
L 25.59375 0 
L 25.59375 64.59375 
L -0.296875 64.59375 
z
" id="DejaVuSans-84"/>
      <path d="M -0.203125 72.90625 
L 10.40625 72.90625 
L 30.609375 42.921875 
L 50.6875 72.90625 
L 61.28125 72.90625 
L 35.5 34.71875 
L 35.5 0 
L 25.59375 0 
L 25.59375 34.71875 
z
" id="DejaVuSans-89"/>
      <path d="M 19.671875 64.796875 
L 19.671875 37.40625 
L 32.078125 37.40625 
Q 38.96875 37.40625 42.71875 40.96875 
Q 46.484375 44.53125 46.484375 51.125 
Q 46.484375 57.671875 42.71875 61.234375 
Q 38.96875 64.796875 32.078125 64.796875 
z
M 9.8125 72.90625 
L 32.078125 72.90625 
Q 44.34375 72.90625 50.609375 67.359375 
Q 56.890625 61.8125 56.890625 51.125 
Q 56.890625 40.328125 50.609375 34.8125 
Q 44.34375 29.296875 32.078125 29.296875 
L 19.671875 29.296875 
L 19.671875 0 
L 9.8125 0 
z
" id="DejaVuSans-80"/>
      <path d="M 9.8125 72.90625 
L 55.90625 72.90625 
L 55.90625 64.59375 
L 19.671875 64.59375 
L 19.671875 43.015625 
L 54.390625 43.015625 
L 54.390625 34.71875 
L 19.671875 34.71875 
L 19.671875 8.296875 
L 56.78125 8.296875 
L 56.78125 0 
L 9.8125 0 
z
" id="DejaVuSans-69"/>
     </defs>
     <g transform="translate(328.38625 389.0915)scale(0.16 -0.16)">
      <use xlink:href="#DejaVuSans-84"/>
      <use x="61.083984" xlink:href="#DejaVuSans-89"/>
      <use x="122.167969" xlink:href="#DejaVuSans-80"/>
      <use x="182.470703" xlink:href="#DejaVuSans-69"/>
     </g>
    </g>
   </g>
   <g id="matplotlib.axis_2">
    <g id="ytick_1">
     <g id="line2d_4">
      <defs>
       <path d="M 0 0 
L 6 0 
" id="m3585991b31" style="stroke:#000000;stroke-width:2;"/>
      </defs>
      <g>
       <use style="stroke:#000000;stroke-width:2;" x="69.0375" xlink:href="#m3585991b31" y="334.291911"/>
      </g>
     </g>
     <g id="text_5">
      <!-- −0.2 -->
      <defs>
       <path d="M 10.59375 35.5 
L 73.1875 35.5 
L 73.1875 27.203125 
L 10.59375 27.203125 
z
" id="DejaVuSans-8722"/>
       <path d="M 31.78125 66.40625 
Q 24.171875 66.40625 20.328125 58.90625 
Q 16.5 51.421875 16.5 36.375 
Q 16.5 21.390625 20.328125 13.890625 
Q 24.171875 6.390625 31.78125 6.390625 
Q 39.453125 6.390625 43.28125 13.890625 
Q 47.125 21.390625 47.125 36.375 
Q 47.125 51.421875 43.28125 58.90625 
Q 39.453125 66.40625 31.78125 66.40625 
z
M 31.78125 74.21875 
Q 44.046875 74.21875 50.515625 64.515625 
Q 56.984375 54.828125 56.984375 36.375 
Q 56.984375 17.96875 50.515625 8.265625 
Q 44.046875 -1.421875 31.78125 -1.421875 
Q 19.53125 -1.421875 13.0625 8.265625 
Q 6.59375 17.96875 6.59375 36.375 
Q 6.59375 54.828125 13.0625 64.515625 
Q 19.53125 74.21875 31.78125 74.21875 
z
" id="DejaVuSans-48"/>
       <path d="M 10.6875 12.40625 
L 21 12.40625 
L 21 0 
L 10.6875 0 
z
" id="DejaVuSans-46"/>
      </defs>
      <g transform="translate(26.685 340.370661)scale(0.16 -0.16)">
       <use xlink:href="#DejaVuSans-8722"/>
       <use x="83.789062" xlink:href="#DejaVuSans-48"/>
       <use x="147.412109" xlink:href="#DejaVuSans-46"/>
       <use x="179.199219" xlink:href="#DejaVuSans-50"/>
      </g>
     </g>
    </g>
    <g id="ytick_2">
     <g id="line2d_5">
      <g>
       <use style="stroke:#000000;stroke-width:2;" x="69.0375" xlink:href="#m3585991b31" y="289.319432"/>
      </g>
     </g>
     <g id="text_6">
      <!-- −0.1 -->
      <g transform="translate(26.685 295.398182)scale(0.16 -0.16)">
       <use xlink:href="#DejaVuSans-8722"/>
       <use x="83.789062" xlink:href="#DejaVuSans-48"/>
       <use x="147.412109" xlink:href="#DejaVuSans-46"/>
       <use x="179.199219" xlink:href="#DejaVuSans-49"/>
      </g>
     </g>
    </g>
    <g id="ytick_3">
     <g id="line2d_6">
      <g>
       <use style="stroke:#000000;stroke-width:2;" x="69.0375" xlink:href="#m3585991b31" y="244.346953"/>
      </g>
     </g>
     <g id="text_7">
      <!-- 0.0 -->
      <g transform="translate(40.0925 250.425703)scale(0.16 -0.16)">
       <use xlink:href="#DejaVuSans-48"/>
       <use x="63.623047" xlink:href="#DejaVuSans-46"/>
       <use x="95.410156" xlink:href="#DejaVuSans-48"/>
      </g>
     </g>
    </g>
    <g id="ytick_4">
     <g id="line2d_7">
      <g>
       <use style="stroke:#000000;stroke-width:2;" x="69.0375" xlink:href="#m3585991b31" y="199.374474"/>
      </g>
     </g>
     <g id="text_8">
      <!-- 0.1 -->
      <g transform="translate(40.0925 205.453224)scale(0.16 -0.16)">
       <use xlink:href="#DejaVuSans-48"/>
       <use x="63.623047" xlink:href="#DejaVuSans-46"/>
       <use x="95.410156" xlink:href="#DejaVuSans-49"/>
      </g>
     </g>
    </g>
    <g id="ytick_5">
     <g id="line2d_8">
      <g>
       <use style="stroke:#000000;stroke-width:2;" x="69.0375" xlink:href="#m3585991b31" y="154.401995"/>
      </g>
     </g>
     <g id="text_9">
      <!-- 0.2 -->
      <g transform="translate(40.0925 160.480745)scale(0.16 -0.16)">
       <use xlink:href="#DejaVuSans-48"/>
       <use x="63.623047" xlink:href="#DejaVuSans-46"/>
       <use x="95.410156" xlink:href="#DejaVuSans-50"/>
      </g>
     </g>
    </g>
    <g id="ytick_6">
     <g id="line2d_9">
      <g>
       <use style="stroke:#000000;stroke-width:2;" x="69.0375" xlink:href="#m3585991b31" y="109.429516"/>
      </g>
     </g>
     <g id="text_10">
      <!-- 0.3 -->
      <g transform="translate(40.0925 115.508266)scale(0.16 -0.16)">
       <use xlink:href="#DejaVuSans-48"/>
       <use x="63.623047" xlink:href="#DejaVuSans-46"/>
       <use x="95.410156" xlink:href="#DejaVuSans-51"/>
      </g>
     </g>
    </g>
    <g id="ytick_7">
     <g id="line2d_10">
      <g>
       <use style="stroke:#000000;stroke-width:2;" x="69.0375" xlink:href="#m3585991b31" y="64.457037"/>
      </g>
     </g>
     <g id="text_11">
      <!-- 0.4 -->
      <defs>
       <path d="M 37.796875 64.3125 
L 12.890625 25.390625 
L 37.796875 25.390625 
z
M 35.203125 72.90625 
L 47.609375 72.90625 
L 47.609375 25.390625 
L 58.015625 25.390625 
L 58.015625 17.1875 
L 47.609375 17.1875 
L 47.609375 0 
L 37.796875 0 
L 37.796875 17.1875 
L 4.890625 17.1875 
L 4.890625 26.703125 
z
" id="DejaVuSans-52"/>
      </defs>
      <g transform="translate(40.0925 70.535787)scale(0.16 -0.16)">
       <use xlink:href="#DejaVuSans-48"/>
       <use x="63.623047" xlink:href="#DejaVuSans-46"/>
       <use x="95.410156" xlink:href="#DejaVuSans-52"/>
      </g>
     </g>
    </g>
    <g id="text_12">
     <!-- SLOPE -->
     <defs>
      <path d="M 53.515625 70.515625 
L 53.515625 60.890625 
Q 47.90625 63.578125 42.921875 64.890625 
Q 37.9375 66.21875 33.296875 66.21875 
Q 25.25 66.21875 20.875 63.09375 
Q 16.5 59.96875 16.5 54.203125 
Q 16.5 49.359375 19.40625 46.890625 
Q 22.3125 44.4375 30.421875 42.921875 
L 36.375 41.703125 
Q 47.40625 39.59375 52.65625 34.296875 
Q 57.90625 29 57.90625 20.125 
Q 57.90625 9.515625 50.796875 4.046875 
Q 43.703125 -1.421875 29.984375 -1.421875 
Q 24.8125 -1.421875 18.96875 -0.25 
Q 13.140625 0.921875 6.890625 3.21875 
L 6.890625 13.375 
Q 12.890625 10.015625 18.65625 8.296875 
Q 24.421875 6.59375 29.984375 6.59375 
Q 38.421875 6.59375 43.015625 9.90625 
Q 47.609375 13.234375 47.609375 19.390625 
Q 47.609375 24.75 44.3125 27.78125 
Q 41.015625 30.8125 33.5 32.328125 
L 27.484375 33.5 
Q 16.453125 35.6875 11.515625 40.375 
Q 6.59375 45.0625 6.59375 53.421875 
Q 6.59375 63.09375 13.40625 68.65625 
Q 20.21875 74.21875 32.171875 74.21875 
Q 37.3125 74.21875 42.625 73.28125 
Q 47.953125 72.359375 53.515625 70.515625 
z
" id="DejaVuSans-83"/>
      <path d="M 9.8125 72.90625 
L 19.671875 72.90625 
L 19.671875 8.296875 
L 55.171875 8.296875 
L 55.171875 0 
L 9.8125 0 
z
" id="DejaVuSans-76"/>
      <path d="M 39.40625 66.21875 
Q 28.65625 66.21875 22.328125 58.203125 
Q 16.015625 50.203125 16.015625 36.375 
Q 16.015625 22.609375 22.328125 14.59375 
Q 28.65625 6.59375 39.40625 6.59375 
Q 50.140625 6.59375 56.421875 14.59375 
Q 62.703125 22.609375 62.703125 36.375 
Q 62.703125 50.203125 56.421875 58.203125 
Q 50.140625 66.21875 39.40625 66.21875 
z
M 39.40625 74.21875 
Q 54.734375 74.21875 63.90625 63.9375 
Q 73.09375 53.65625 73.09375 36.375 
Q 73.09375 19.140625 63.90625 8.859375 
Q 54.734375 -1.421875 39.40625 -1.421875 
Q 24.03125 -1.421875 14.8125 8.828125 
Q 5.609375 19.09375 5.609375 36.375 
Q 5.609375 53.65625 14.8125 63.9375 
Q 24.03125 74.21875 39.40625 74.21875 
z
" id="DejaVuSans-79"/>
     </defs>
     <g transform="translate(19.3575 216.57775)rotate(-90)scale(0.16 -0.16)">
      <use xlink:href="#DejaVuSans-83"/>
      <use x="63.476562" xlink:href="#DejaVuSans-76"/>
      <use x="119.142578" xlink:href="#DejaVuSans-79"/>
      <use x="197.853516" xlink:href="#DejaVuSans-80"/>
      <use x="258.15625" xlink:href="#DejaVuSans-69"/>
     </g>
    </g>
   </g>
   <g id="LineCollection_1">
    <path clip-path="url(#pa357e5d731)" d="M 162.0375 231.401101 
L 162.0375 133.382983 
" style="fill:none;stroke:#000000;stroke-width:1.5;"/>
    <path clip-path="url(#pa357e5d731)" d="M 348.0375 248.678781 
L 348.0375 173.291419 
" style="fill:none;stroke:#000000;stroke-width:1.5;"/>
    <path clip-path="url(#pa357e5d731)" d="M 534.0375 308.898042 
L 534.0375 257.63901 
" style="fill:none;stroke:#000000;stroke-width:1.5;"/>
   </g>
   <g id="line2d_11">
    <defs>
     <path d="M 6 0 
L -6 -0 
" id="m2cddc8b12f" style="stroke:#000000;"/>
    </defs>
    <g clip-path="url(#pa357e5d731)">
     <use style="stroke:#000000;" x="162.0375" xlink:href="#m2cddc8b12f" y="231.401101"/>
     <use style="stroke:#000000;" x="348.0375" xlink:href="#m2cddc8b12f" y="248.678781"/>
     <use style="stroke:#000000;" x="534.0375" xlink:href="#m2cddc8b12f" y="308.898042"/>
    </g>
   </g>
   <g id="line2d_12">
    <g clip-path="url(#pa357e5d731)">
     <use style="stroke:#000000;" x="162.0375" xlink:href="#m2cddc8b12f" y="133.382983"/>
     <use style="stroke:#000000;" x="348.0375" xlink:href="#m2cddc8b12f" y="173.291419"/>
     <use style="stroke:#000000;" x="534.0375" xlink:href="#m2cddc8b12f" y="257.63901"/>
    </g>
   </g>
   <g id="patch_6">
    <path d="M 69.0375 353.949 
L 69.0375 27.789 
" style="fill:none;stroke:#000000;stroke-linecap:square;stroke-linejoin:miter;stroke-width:2;"/>
   </g>
   <g id="patch_7">
    <path d="M 627.0375 353.949 
L 627.0375 27.789 
" style="fill:none;stroke:#000000;stroke-linecap:square;stroke-linejoin:miter;stroke-width:2;"/>
   </g>
   <g id="patch_8">
    <path d="M 69.0375 353.949 
L 627.0375 353.949 
" style="fill:none;stroke:#000000;stroke-linecap:square;stroke-linejoin:miter;stroke-width:2;"/>
   </g>
   <g id="patch_9">
    <path d="M 69.0375 27.789 
L 627.0375 27.789 
" style="fill:none;stroke:#000000;stroke-linecap:square;stroke-linejoin:miter;stroke-width:2;"/>
   </g>
   <g id="PathCollection_1">
    <defs>
     <path d="M 0 5 
C 1.326016 5 2.597899 4.473168 3.535534 3.535534 
C 4.473168 2.597899 5 1.326016 5 0 
C 5 -1.326016 4.473168 -2.597899 3.535534 -3.535534 
C 2.597899 -4.473168 1.326016 -5 0 -5 
C -1.326016 -5 -2.597899 -4.473168 -3.535534 -3.535534 
C -4.473168 -2.597899 -5 -1.326016 -5 0 
C -5 1.326016 -4.473168 2.597899 -3.535534 3.535534 
C -2.597899 4.473168 -1.326016 5 0 5 
z
" id="C0_0_b140d6f34b"/>
    </defs>
    <g clip-path="url(#pa357e5d731)">
     <use style="fill:#1f77b4;fill-opacity:0.7;" x="162.0375" xlink:href="#C0_0_b140d6f34b" y="310.45158"/>
    </g>
    <g clip-path="url(#pa357e5d731)">
     <use style="fill:#1f77b4;fill-opacity:0.7;" x="162.0375" xlink:href="#C0_0_b140d6f34b" y="287.917308"/>
    </g>
    <g clip-path="url(#pa357e5d731)">
     <use style="fill:#1f77b4;fill-opacity:0.7;" x="162.0375" xlink:href="#C0_0_b140d6f34b" y="253.007799"/>
    </g>
    <g clip-path="url(#pa357e5d731)">
     <use style="fill:#1f77b4;fill-opacity:0.7;" x="162.0375" xlink:href="#C0_0_b140d6f34b" y="230.818548"/>
    </g>
    <g clip-path="url(#pa357e5d731)">
     <use style="fill:#1f77b4;fill-opacity:0.7;" x="154.906189" xlink:href="#C0_0_b140d6f34b" y="223.478761"/>
    </g>
    <g clip-path="url(#pa357e5d731)">
     <use style="fill:#1f77b4;fill-opacity:0.7;" x="162.0375" xlink:href="#C0_0_b140d6f34b" y="208.02691"/>
    </g>
    <g clip-path="url(#pa357e5d731)">
     <use style="fill:#1f77b4;fill-opacity:0.7;" x="162.0375" xlink:href="#C0_0_b140d6f34b" y="179.372067"/>
    </g>
    <g clip-path="url(#pa357e5d731)">
     <use style="fill:#1f77b4;fill-opacity:0.7;" x="162.0375" xlink:href="#C0_0_b140d6f34b" y="160.089196"/>
    </g>
    <g clip-path="url(#pa357e5d731)">
     <use style="fill:#1f77b4;fill-opacity:0.7;" x="155.07323" xlink:href="#C0_0_b140d6f34b" y="152.605339"/>
    </g>
    <g clip-path="url(#pa357e5d731)">
     <use style="fill:#1f77b4;fill-opacity:0.7;" x="162.0375" xlink:href="#C0_0_b140d6f34b" y="141.478603"/>
    </g>
    <g clip-path="url(#pa357e5d731)">
     <use style="fill:#1f77b4;fill-opacity:0.7;" x="162.0375" xlink:href="#C0_0_b140d6f34b" y="124.7608"/>
    </g>
    <g clip-path="url(#pa357e5d731)">
     <use style="fill:#1f77b4;fill-opacity:0.7;" x="162.0375" xlink:href="#C0_0_b140d6f34b" y="53.51549"/>
    </g>
    <g clip-path="url(#pa357e5d731)">
     <use style="fill:#1f77b4;fill-opacity:0.7;" x="155.656208" xlink:href="#C0_0_b140d6f34b" y="45.574146"/>
    </g>
   </g>
   <g id="PathCollection_2">
    <defs>
     <path d="M 0 5 
C 1.326016 5 2.597899 4.473168 3.535534 3.535534 
C 4.473168 2.597899 5 1.326016 5 0 
C 5 -1.326016 4.473168 -2.597899 3.535534 -3.535534 
C 2.597899 -4.473168 1.326016 -5 0 -5 
C -1.326016 -5 -2.597899 -4.473168 -3.535534 -3.535534 
C -4.473168 -2.597899 -5 -1.326016 -5 0 
C -5 1.326016 -4.473168 2.597899 -3.535534 3.535534 
C -2.597899 4.473168 -1.326016 5 0 5 
z
" id="C1_0_0f0cf07d93"/>
    </defs>
    <g clip-path="url(#pa357e5d731)">
     <use style="fill:#ff7f0e;fill-opacity:0.7;" x="348.0375" xlink:href="#C1_0_0f0cf07d93" y="319.109831"/>
    </g>
    <g clip-path="url(#pa357e5d731)">
     <use style="fill:#ff7f0e;fill-opacity:0.7;" x="339.254339" xlink:href="#C1_0_0f0cf07d93" y="313.630032"/>
    </g>
    <g clip-path="url(#pa357e5d731)">
     <use style="fill:#ff7f0e;fill-opacity:0.7;" x="348.0375" xlink:href="#C1_0_0f0cf07d93" y="281.903089"/>
    </g>
    <g clip-path="url(#pa357e5d731)">
     <use style="fill:#ff7f0e;fill-opacity:0.7;" x="348.0375" xlink:href="#C1_0_0f0cf07d93" y="244.653889"/>
    </g>
    <g clip-path="url(#pa357e5d731)">
     <use style="fill:#ff7f0e;fill-opacity:0.7;" x="348.0375" xlink:href="#C1_0_0f0cf07d93" y="225.423152"/>
    </g>
    <g clip-path="url(#pa357e5d731)">
     <use style="fill:#ff7f0e;fill-opacity:0.7;" x="348.0375" xlink:href="#C1_0_0f0cf07d93" y="205.324559"/>
    </g>
    <g clip-path="url(#pa357e5d731)">
     <use style="fill:#ff7f0e;fill-opacity:0.7;" x="348.0375" xlink:href="#C1_0_0f0cf07d93" y="190.574969"/>
    </g>
    <g clip-path="url(#pa357e5d731)">
     <use style="fill:#ff7f0e;fill-opacity:0.7;" x="341.571053" xlink:href="#C1_0_0f0cf07d93" y="182.696351"/>
    </g>
    <g clip-path="url(#pa357e5d731)">
     <use style="fill:#ff7f0e;fill-opacity:0.7;" x="348.523319" xlink:href="#C1_0_0f0cf07d93" y="175.202378"/>
    </g>
    <g clip-path="url(#pa357e5d731)">
     <use style="fill:#ff7f0e;fill-opacity:0.7;" x="338.403508" xlink:href="#C1_0_0f0cf07d93" y="172.535807"/>
    </g>
    <g clip-path="url(#pa357e5d731)">
     <use style="fill:#ff7f0e;fill-opacity:0.7;" x="348.0375" xlink:href="#C1_0_0f0cf07d93" y="158.486222"/>
    </g>
    <g clip-path="url(#pa357e5d731)">
     <use style="fill:#ff7f0e;fill-opacity:0.7;" x="348.0375" xlink:href="#C1_0_0f0cf07d93" y="148.278163"/>
    </g>
    <g clip-path="url(#pa357e5d731)">
     <use style="fill:#ff7f0e;fill-opacity:0.7;" x="348.0375" xlink:href="#C1_0_0f0cf07d93" y="124.987861"/>
    </g>
   </g>
   <g id="PathCollection_3">
    <defs>
     <path d="M 0 5 
C 1.326016 5 2.597899 4.473168 3.535534 3.535534 
C 4.473168 2.597899 5 1.326016 5 0 
C 5 -1.326016 4.473168 -2.597899 3.535534 -3.535534 
C 2.597899 -4.473168 1.326016 -5 0 -5 
C -1.326016 -5 -2.597899 -4.473168 -3.535534 -3.535534 
C -4.473168 -2.597899 -5 -1.326016 -5 0 
C -5 1.326016 -4.473168 2.597899 -3.535534 3.535534 
C -2.597899 4.473168 -1.326016 5 0 5 
z
" id="C2_0_dec0d1bd85"/>
    </defs>
    <g clip-path="url(#pa357e5d731)">
     <use style="fill:#2ca02c;fill-opacity:0.7;" x="534.0375" xlink:href="#C2_0_dec0d1bd85" y="334.384032"/>
    </g>
    <g clip-path="url(#pa357e5d731)">
     <use style="fill:#2ca02c;fill-opacity:0.7;" x="523.538011" xlink:href="#C2_0_dec0d1bd85" y="334.285409"/>
    </g>
    <g clip-path="url(#pa357e5d731)">
     <use style="fill:#2ca02c;fill-opacity:0.7;" x="534.0375" xlink:href="#C2_0_dec0d1bd85" y="304.055536"/>
    </g>
    <g clip-path="url(#pa357e5d731)">
     <use style="fill:#2ca02c;fill-opacity:0.7;" x="523.537558" xlink:href="#C2_0_dec0d1bd85" y="304.022269"/>
    </g>
    <g clip-path="url(#pa357e5d731)">
     <use style="fill:#2ca02c;fill-opacity:0.7;" x="544.132167" xlink:href="#C2_0_dec0d1bd85" y="301.30388"/>
    </g>
    <g clip-path="url(#pa357e5d731)">
     <use style="fill:#2ca02c;fill-opacity:0.7;" x="513.620455" xlink:href="#C2_0_dec0d1bd85" y="300.736753"/>
    </g>
    <g clip-path="url(#pa357e5d731)">
     <use style="fill:#2ca02c;fill-opacity:0.7;" x="554.426999" xlink:href="#C2_0_dec0d1bd85" y="299.336702"/>
    </g>
    <g clip-path="url(#pa357e5d731)">
     <use style="fill:#2ca02c;fill-opacity:0.7;" x="503.283752" xlink:href="#C2_0_dec0d1bd85" y="298.979983"/>
    </g>
    <g clip-path="url(#pa357e5d731)">
     <use style="fill:#2ca02c;fill-opacity:0.7;" x="534.0375" xlink:href="#C2_0_dec0d1bd85" y="287.442159"/>
    </g>
    <g clip-path="url(#pa357e5d731)">
     <use style="fill:#2ca02c;fill-opacity:0.7;" x="534.0375" xlink:href="#C2_0_dec0d1bd85" y="249.778698"/>
    </g>
    <g clip-path="url(#pa357e5d731)">
     <use style="fill:#2ca02c;fill-opacity:0.7;" x="526.38576" xlink:href="#C2_0_dec0d1bd85" y="242.930763"/>
    </g>
    <g clip-path="url(#pa357e5d731)">
     <use style="fill:#2ca02c;fill-opacity:0.7;" x="539.254708" xlink:href="#C2_0_dec0d1bd85" y="241.100488"/>
    </g>
    <g clip-path="url(#pa357e5d731)">
     <use style="fill:#2ca02c;fill-opacity:0.7;" x="534.0375" xlink:href="#C2_0_dec0d1bd85" y="184.134165"/>
    </g>
   </g>
   <g id="text_13">
    <!-- +-17 -->
    <defs>
     <path d="M 46 62.703125 
L 46 35.5 
L 73.1875 35.5 
L 73.1875 27.203125 
L 46 27.203125 
L 46 0 
L 37.796875 0 
L 37.796875 27.203125 
L 10.59375 27.203125 
L 10.59375 35.5 
L 37.796875 35.5 
L 37.796875 62.703125 
z
" id="DejaVuSans-43"/>
     <path d="M 4.890625 31.390625 
L 31.203125 31.390625 
L 31.203125 23.390625 
L 4.890625 23.390625 
z
" id="DejaVuSans-45"/>
     <path d="M 8.203125 72.90625 
L 55.078125 72.90625 
L 55.078125 68.703125 
L 28.609375 0 
L 18.3125 0 
L 43.21875 64.59375 
L 8.203125 64.59375 
z
" id="DejaVuSans-55"/>
    </defs>
    <g transform="translate(324.3135 21.789)scale(0.192 -0.192)">
     <use xlink:href="#DejaVuSans-43"/>
     <use x="83.789062" xlink:href="#DejaVuSans-45"/>
     <use x="119.873047" xlink:href="#DejaVuSans-49"/>
     <use x="183.496094" xlink:href="#DejaVuSans-55"/>
    </g>
   </g>
  </g>
 </g>
 <defs>
  <clipPath id="pa357e5d731">
   <rect height="326.16" width="558" x="69.0375" y="27.789"/>
  </clipPath>
 </defs>
</svg>
