<?xml version="1.0" encoding="utf-8" standalone="no"?>
<!DOCTYPE svg PUBLIC "-//W3C//DTD SVG 1.1//EN"
  "http://www.w3.org/Graphics/SVG/1.1/DTD/svg11.dtd">
<!-- Created with matplotlib (https://matplotlib.org/) -->
<svg height="383.347785pt" version="1.1" viewBox="0 0 619.135 383.347785" width="619.135pt" xmlns="http://www.w3.org/2000/svg" xmlns:xlink="http://www.w3.org/1999/xlink">
 <defs>
  <style type="text/css">
*{stroke-linecap:butt;stroke-linejoin:round;}
  </style>
 </defs>
 <g id="figure_1">
  <g id="patch_1">
   <path d="M 0 383.347785 
L 619.135 383.347785 
L 619.135 0 
L 0 0 
z
" style="fill:#ffffff;"/>
  </g>
  <g id="axes_1">
   <g id="patch_2">
    <path d="M 53.935 337.677785 
L 611.935 337.677785 
L 611.935 11.517785 
L 53.935 11.517785 
z
" style="fill:#ffffff;"/>
   </g>
   <g id="patch_3">
    <path clip-path="url(#pdb4d108498)" d="M 72.535 226.53084 
L 221.335 226.53084 
L 221.335 140.245479 
L 72.535 140.245479 
z
" style="fill:#a9a9a9;"/>
   </g>
   <g id="patch_4">
    <path clip-path="url(#pdb4d108498)" d="M 258.535 226.53084 
L 407.335 226.53084 
L 407.335 182.299712 
L 258.535 182.299712 
z
" style="fill:#a9a9a9;"/>
   </g>
   <g id="patch_5">
    <path clip-path="url(#pdb4d108498)" d="M 444.535 226.53084 
L 593.335 226.53084 
L 593.335 249.801134 
L 444.535 249.801134 
z
" style="fill:#a9a9a9;"/>
   </g>
   <g id="matplotlib.axis_1">
    <g id="xtick_1">
     <g id="line2d_1">
      <defs>
       <path d="M 0 0 
L 0 -6 
" id="mb0df0463df" style="stroke:#000000;stroke-width:2;"/>
      </defs>
      <g>
       <use style="stroke:#000000;stroke-width:2;" x="146.935" xlink:href="#mb0df0463df" y="337.677785"/>
      </g>
     </g>
     <g id="text_1">
      <!-- 1 -->
      <defs>
       <path d="M 12.40625 8.296875 
L 28.515625 8.296875 
L 28.515625 63.921875 
L 10.984375 60.40625 
L 10.984375 69.390625 
L 28.421875 72.90625 
L 38.28125 72.90625 
L 38.28125 8.296875 
L 54.390625 8.296875 
L 54.390625 0 
L 12.40625 0 
z
" id="DejaVuSans-49"/>
      </defs>
      <g transform="translate(141.845 353.335285)scale(0.16 -0.16)">
       <use xlink:href="#DejaVuSans-49"/>
      </g>
     </g>
    </g>
    <g id="xtick_2">
     <g id="line2d_2">
      <g>
       <use style="stroke:#000000;stroke-width:2;" x="332.935" xlink:href="#mb0df0463df" y="337.677785"/>
      </g>
     </g>
     <g id="text_2">
      <!-- 2 -->
      <defs>
       <path d="M 19.1875 8.296875 
L 53.609375 8.296875 
L 53.609375 0 
L 7.328125 0 
L 7.328125 8.296875 
Q 12.9375 14.109375 22.625 23.890625 
Q 32.328125 33.6875 34.8125 36.53125 
Q 39.546875 41.84375 41.421875 45.53125 
Q 43.3125 49.21875 43.3125 52.78125 
Q 43.3125 58.59375 39.234375 62.25 
Q 35.15625 65.921875 28.609375 65.921875 
Q 23.96875 65.921875 18.8125 64.3125 
Q 13.671875 62.703125 7.8125 59.421875 
L 7.8125 69.390625 
Q 13.765625 71.78125 18.9375 73 
Q 24.125 74.21875 28.421875 74.21875 
Q 39.75 74.21875 46.484375 68.546875 
Q 53.21875 62.890625 53.21875 53.421875 
Q 53.21875 48.921875 51.53125 44.890625 
Q 49.859375 40.875 45.40625 35.40625 
Q 44.1875 33.984375 37.640625 27.21875 
Q 31.109375 20.453125 19.1875 8.296875 
z
" id="DejaVuSans-50"/>
      </defs>
      <g transform="translate(327.845 353.335285)scale(0.16 -0.16)">
       <use xlink:href="#DejaVuSans-50"/>
      </g>
     </g>
    </g>
    <g id="xtick_3">
     <g id="line2d_3">
      <g>
       <use style="stroke:#000000;stroke-width:2;" x="518.935" xlink:href="#mb0df0463df" y="337.677785"/>
      </g>
     </g>
     <g id="text_3">
      <!-- 3 -->
      <defs>
       <path d="M 40.578125 39.3125 
Q 47.65625 37.796875 51.625 33 
Q 55.609375 28.21875 55.609375 21.1875 
Q 55.609375 10.40625 48.1875 4.484375 
Q 40.765625 -1.421875 27.09375 -1.421875 
Q 22.515625 -1.421875 17.65625 -0.515625 
Q 12.796875 0.390625 7.625 2.203125 
L 7.625 11.71875 
Q 11.71875 9.328125 16.59375 8.109375 
Q 21.484375 6.890625 26.8125 6.890625 
Q 36.078125 6.890625 40.9375 10.546875 
Q 45.796875 14.203125 45.796875 21.1875 
Q 45.796875 27.640625 41.28125 31.265625 
Q 36.765625 34.90625 28.71875 34.90625 
L 20.21875 34.90625 
L 20.21875 43.015625 
L 29.109375 43.015625 
Q 36.375 43.015625 40.234375 45.921875 
Q 44.09375 48.828125 44.09375 54.296875 
Q 44.09375 59.90625 40.109375 62.90625 
Q 36.140625 65.921875 28.71875 65.921875 
Q 24.65625 65.921875 20.015625 65.03125 
Q 15.375 64.15625 9.8125 62.3125 
L 9.8125 71.09375 
Q 15.4375 72.65625 20.34375 73.4375 
Q 25.25 74.21875 29.59375 74.21875 
Q 40.828125 74.21875 47.359375 69.109375 
Q 53.90625 64.015625 53.90625 55.328125 
Q 53.90625 49.265625 50.4375 45.09375 
Q 46.96875 40.921875 40.578125 39.3125 
z
" id="DejaVuSans-51"/>
      </defs>
      <g transform="translate(513.845 353.335285)scale(0.16 -0.16)">
       <use xlink:href="#DejaVuSans-51"/>
      </g>
     </g>
    </g>
    <g id="text_4">
     <!-- NTYPE -->
     <defs>
      <path d="M 9.8125 72.90625 
L 23.09375 72.90625 
L 55.421875 11.921875 
L 55.421875 72.90625 
L 64.984375 72.90625 
L 64.984375 0 
L 51.703125 0 
L 19.390625 60.984375 
L 19.390625 0 
L 9.8125 0 
z
" id="DejaVuSans-78"/>
      <path d="M -0.296875 72.90625 
L 61.375 72.90625 
L 61.375 64.59375 
L 35.5 64.59375 
L 35.5 0 
L 25.59375 0 
L 25.59375 64.59375 
L -0.296875 64.59375 
z
" id="DejaVuSans-84"/>
      <path d="M -0.203125 72.90625 
L 10.40625 72.90625 
L 30.609375 42.921875 
L 50.6875 72.90625 
L 61.28125 72.90625 
L 35.5 34.71875 
L 35.5 0 
L 25.59375 0 
L 25.59375 34.71875 
z
" id="DejaVuSans-89"/>
      <path d="M 19.671875 64.796875 
L 19.671875 37.40625 
L 32.078125 37.40625 
Q 38.96875 37.40625 42.71875 40.96875 
Q 46.484375 44.53125 46.484375 51.125 
Q 46.484375 57.671875 42.71875 61.234375 
Q 38.96875 64.796875 32.078125 64.796875 
z
M 9.8125 72.90625 
L 32.078125 72.90625 
Q 44.34375 72.90625 50.609375 67.359375 
Q 56.890625 61.8125 56.890625 51.125 
Q 56.890625 40.328125 50.609375 34.8125 
Q 44.34375 29.296875 32.078125 29.296875 
L 19.671875 29.296875 
L 19.671875 0 
L 9.8125 0 
z
" id="DejaVuSans-80"/>
      <path d="M 9.8125 72.90625 
L 55.90625 72.90625 
L 55.90625 64.59375 
L 19.671875 64.59375 
L 19.671875 43.015625 
L 54.390625 43.015625 
L 54.390625 34.71875 
L 19.671875 34.71875 
L 19.671875 8.296875 
L 56.78125 8.296875 
L 56.78125 0 
L 9.8125 0 
z
" id="DejaVuSans-69"/>
     </defs>
     <g transform="translate(307.29875 372.820285)scale(0.16 -0.16)">
      <use xlink:href="#DejaVuSans-78"/>
      <use x="74.804688" xlink:href="#DejaVuSans-84"/>
      <use x="135.888672" xlink:href="#DejaVuSans-89"/>
      <use x="196.972656" xlink:href="#DejaVuSans-80"/>
      <use x="257.275391" xlink:href="#DejaVuSans-69"/>
     </g>
    </g>
   </g>
   <g id="matplotlib.axis_2">
    <g id="ytick_1">
     <g id="line2d_4">
      <defs>
       <path d="M 0 0 
L 6 0 
" id="m4673565961" style="stroke:#000000;stroke-width:2;"/>
      </defs>
      <g>
       <use style="stroke:#000000;stroke-width:2;" x="53.935" xlink:href="#m4673565961" y="297.61487"/>
      </g>
     </g>
     <g id="text_5">
      <!-- −2 -->
      <defs>
       <path d="M 10.59375 35.5 
L 73.1875 35.5 
L 73.1875 27.203125 
L 10.59375 27.203125 
z
" id="DejaVuSans-8722"/>
      </defs>
      <g transform="translate(26.8475 303.69362)scale(0.16 -0.16)">
       <use xlink:href="#DejaVuSans-8722"/>
       <use x="83.789062" xlink:href="#DejaVuSans-50"/>
      </g>
     </g>
    </g>
    <g id="ytick_2">
     <g id="line2d_5">
      <g>
       <use style="stroke:#000000;stroke-width:2;" x="53.935" xlink:href="#m4673565961" y="226.53084"/>
      </g>
     </g>
     <g id="text_6">
      <!-- 0 -->
      <defs>
       <path d="M 31.78125 66.40625 
Q 24.171875 66.40625 20.328125 58.90625 
Q 16.5 51.421875 16.5 36.375 
Q 16.5 21.390625 20.328125 13.890625 
Q 24.171875 6.390625 31.78125 6.390625 
Q 39.453125 6.390625 43.28125 13.890625 
Q 47.125 21.390625 47.125 36.375 
Q 47.125 51.421875 43.28125 58.90625 
Q 39.453125 66.40625 31.78125 66.40625 
z
M 31.78125 74.21875 
Q 44.046875 74.21875 50.515625 64.515625 
Q 56.984375 54.828125 56.984375 36.375 
Q 56.984375 17.96875 50.515625 8.265625 
Q 44.046875 -1.421875 31.78125 -1.421875 
Q 19.53125 -1.421875 13.0625 8.265625 
Q 6.59375 17.96875 6.59375 36.375 
Q 6.59375 54.828125 13.0625 64.515625 
Q 19.53125 74.21875 31.78125 74.21875 
z
" id="DejaVuSans-48"/>
      </defs>
      <g transform="translate(40.255 232.60959)scale(0.16 -0.16)">
       <use xlink:href="#DejaVuSans-48"/>
      </g>
     </g>
    </g>
    <g id="ytick_3">
     <g id="line2d_6">
      <g>
       <use style="stroke:#000000;stroke-width:2;" x="53.935" xlink:href="#m4673565961" y="155.44681"/>
      </g>
     </g>
     <g id="text_7">
      <!-- 2 -->
      <g transform="translate(40.255 161.52556)scale(0.16 -0.16)">
       <use xlink:href="#DejaVuSans-50"/>
      </g>
     </g>
    </g>
    <g id="ytick_4">
     <g id="line2d_7">
      <g>
       <use style="stroke:#000000;stroke-width:2;" x="53.935" xlink:href="#m4673565961" y="84.36278"/>
      </g>
     </g>
     <g id="text_8">
      <!-- 4 -->
      <defs>
       <path d="M 37.796875 64.3125 
L 12.890625 25.390625 
L 37.796875 25.390625 
z
M 35.203125 72.90625 
L 47.609375 72.90625 
L 47.609375 25.390625 
L 58.015625 25.390625 
L 58.015625 17.1875 
L 47.609375 17.1875 
L 47.609375 0 
L 37.796875 0 
L 37.796875 17.1875 
L 4.890625 17.1875 
L 4.890625 26.703125 
z
" id="DejaVuSans-52"/>
      </defs>
      <g transform="translate(40.255 90.44153)scale(0.16 -0.16)">
       <use xlink:href="#DejaVuSans-52"/>
      </g>
     </g>
    </g>
    <g id="ytick_5">
     <g id="line2d_8">
      <g>
       <use style="stroke:#000000;stroke-width:2;" x="53.935" xlink:href="#m4673565961" y="13.27875"/>
      </g>
     </g>
     <g id="text_9">
      <!-- 6 -->
      <defs>
       <path d="M 33.015625 40.375 
Q 26.375 40.375 22.484375 35.828125 
Q 18.609375 31.296875 18.609375 23.390625 
Q 18.609375 15.53125 22.484375 10.953125 
Q 26.375 6.390625 33.015625 6.390625 
Q 39.65625 6.390625 43.53125 10.953125 
Q 47.40625 15.53125 47.40625 23.390625 
Q 47.40625 31.296875 43.53125 35.828125 
Q 39.65625 40.375 33.015625 40.375 
z
M 52.59375 71.296875 
L 52.59375 62.3125 
Q 48.875 64.0625 45.09375 64.984375 
Q 41.3125 65.921875 37.59375 65.921875 
Q 27.828125 65.921875 22.671875 59.328125 
Q 17.53125 52.734375 16.796875 39.40625 
Q 19.671875 43.65625 24.015625 45.921875 
Q 28.375 48.1875 33.59375 48.1875 
Q 44.578125 48.1875 50.953125 41.515625 
Q 57.328125 34.859375 57.328125 23.390625 
Q 57.328125 12.15625 50.6875 5.359375 
Q 44.046875 -1.421875 33.015625 -1.421875 
Q 20.359375 -1.421875 13.671875 8.265625 
Q 6.984375 17.96875 6.984375 36.375 
Q 6.984375 53.65625 15.1875 63.9375 
Q 23.390625 74.21875 37.203125 74.21875 
Q 40.921875 74.21875 44.703125 73.484375 
Q 48.484375 72.75 52.59375 71.296875 
z
" id="DejaVuSans-54"/>
      </defs>
      <g transform="translate(40.255 19.3575)scale(0.16 -0.16)">
       <use xlink:href="#DejaVuSans-54"/>
      </g>
     </g>
    </g>
    <g id="text_10">
     <!-- BOOTSTRAP_MEAN -->
     <defs>
      <path d="M 19.671875 34.8125 
L 19.671875 8.109375 
L 35.5 8.109375 
Q 43.453125 8.109375 47.28125 11.40625 
Q 51.125 14.703125 51.125 21.484375 
Q 51.125 28.328125 47.28125 31.5625 
Q 43.453125 34.8125 35.5 34.8125 
z
M 19.671875 64.796875 
L 19.671875 42.828125 
L 34.28125 42.828125 
Q 41.5 42.828125 45.03125 45.53125 
Q 48.578125 48.25 48.578125 53.8125 
Q 48.578125 59.328125 45.03125 62.0625 
Q 41.5 64.796875 34.28125 64.796875 
z
M 9.8125 72.90625 
L 35.015625 72.90625 
Q 46.296875 72.90625 52.390625 68.21875 
Q 58.5 63.53125 58.5 54.890625 
Q 58.5 48.1875 55.375 44.234375 
Q 52.25 40.28125 46.1875 39.3125 
Q 53.46875 37.75 57.5 32.78125 
Q 61.53125 27.828125 61.53125 20.40625 
Q 61.53125 10.640625 54.890625 5.3125 
Q 48.25 0 35.984375 0 
L 9.8125 0 
z
" id="DejaVuSans-66"/>
      <path d="M 39.40625 66.21875 
Q 28.65625 66.21875 22.328125 58.203125 
Q 16.015625 50.203125 16.015625 36.375 
Q 16.015625 22.609375 22.328125 14.59375 
Q 28.65625 6.59375 39.40625 6.59375 
Q 50.140625 6.59375 56.421875 14.59375 
Q 62.703125 22.609375 62.703125 36.375 
Q 62.703125 50.203125 56.421875 58.203125 
Q 50.140625 66.21875 39.40625 66.21875 
z
M 39.40625 74.21875 
Q 54.734375 74.21875 63.90625 63.9375 
Q 73.09375 53.65625 73.09375 36.375 
Q 73.09375 19.140625 63.90625 8.859375 
Q 54.734375 -1.421875 39.40625 -1.421875 
Q 24.03125 -1.421875 14.8125 8.828125 
Q 5.609375 19.09375 5.609375 36.375 
Q 5.609375 53.65625 14.8125 63.9375 
Q 24.03125 74.21875 39.40625 74.21875 
z
" id="DejaVuSans-79"/>
      <path d="M 53.515625 70.515625 
L 53.515625 60.890625 
Q 47.90625 63.578125 42.921875 64.890625 
Q 37.9375 66.21875 33.296875 66.21875 
Q 25.25 66.21875 20.875 63.09375 
Q 16.5 59.96875 16.5 54.203125 
Q 16.5 49.359375 19.40625 46.890625 
Q 22.3125 44.4375 30.421875 42.921875 
L 36.375 41.703125 
Q 47.40625 39.59375 52.65625 34.296875 
Q 57.90625 29 57.90625 20.125 
Q 57.90625 9.515625 50.796875 4.046875 
Q 43.703125 -1.421875 29.984375 -1.421875 
Q 24.8125 -1.421875 18.96875 -0.25 
Q 13.140625 0.921875 6.890625 3.21875 
L 6.890625 13.375 
Q 12.890625 10.015625 18.65625 8.296875 
Q 24.421875 6.59375 29.984375 6.59375 
Q 38.421875 6.59375 43.015625 9.90625 
Q 47.609375 13.234375 47.609375 19.390625 
Q 47.609375 24.75 44.3125 27.78125 
Q 41.015625 30.8125 33.5 32.328125 
L 27.484375 33.5 
Q 16.453125 35.6875 11.515625 40.375 
Q 6.59375 45.0625 6.59375 53.421875 
Q 6.59375 63.09375 13.40625 68.65625 
Q 20.21875 74.21875 32.171875 74.21875 
Q 37.3125 74.21875 42.625 73.28125 
Q 47.953125 72.359375 53.515625 70.515625 
z
" id="DejaVuSans-83"/>
      <path d="M 44.390625 34.1875 
Q 47.5625 33.109375 50.5625 29.59375 
Q 53.5625 26.078125 56.59375 19.921875 
L 66.609375 0 
L 56 0 
L 46.6875 18.703125 
Q 43.0625 26.03125 39.671875 28.421875 
Q 36.28125 30.8125 30.421875 30.8125 
L 19.671875 30.8125 
L 19.671875 0 
L 9.8125 0 
L 9.8125 72.90625 
L 32.078125 72.90625 
Q 44.578125 72.90625 50.734375 67.671875 
Q 56.890625 62.453125 56.890625 51.90625 
Q 56.890625 45.015625 53.6875 40.46875 
Q 50.484375 35.9375 44.390625 34.1875 
z
M 19.671875 64.796875 
L 19.671875 38.921875 
L 32.078125 38.921875 
Q 39.203125 38.921875 42.84375 42.21875 
Q 46.484375 45.515625 46.484375 51.90625 
Q 46.484375 58.296875 42.84375 61.546875 
Q 39.203125 64.796875 32.078125 64.796875 
z
" id="DejaVuSans-82"/>
      <path d="M 34.1875 63.1875 
L 20.796875 26.90625 
L 47.609375 26.90625 
z
M 28.609375 72.90625 
L 39.796875 72.90625 
L 67.578125 0 
L 57.328125 0 
L 50.6875 18.703125 
L 17.828125 18.703125 
L 11.1875 0 
L 0.78125 0 
z
" id="DejaVuSans-65"/>
      <path d="M 50.984375 -16.609375 
L 50.984375 -23.578125 
L -0.984375 -23.578125 
L -0.984375 -16.609375 
z
" id="DejaVuSans-95"/>
      <path d="M 9.8125 72.90625 
L 24.515625 72.90625 
L 43.109375 23.296875 
L 61.8125 72.90625 
L 76.515625 72.90625 
L 76.515625 0 
L 66.890625 0 
L 66.890625 64.015625 
L 48.09375 14.015625 
L 38.1875 14.015625 
L 19.390625 64.015625 
L 19.390625 0 
L 9.8125 0 
z
" id="DejaVuSans-77"/>
     </defs>
     <g transform="translate(19.075 250.796535)rotate(-90)scale(0.16 -0.16)">
      <use xlink:href="#DejaVuSans-66"/>
      <use x="68.587891" xlink:href="#DejaVuSans-79"/>
      <use x="147.298828" xlink:href="#DejaVuSans-79"/>
      <use x="226.009766" xlink:href="#DejaVuSans-84"/>
      <use x="287.09375" xlink:href="#DejaVuSans-83"/>
      <use x="350.570312" xlink:href="#DejaVuSans-84"/>
      <use x="411.654297" xlink:href="#DejaVuSans-82"/>
      <use x="481.074219" xlink:href="#DejaVuSans-65"/>
      <use x="549.482422" xlink:href="#DejaVuSans-80"/>
      <use x="609.785156" xlink:href="#DejaVuSans-95"/>
      <use x="659.785156" xlink:href="#DejaVuSans-77"/>
      <use x="746.064453" xlink:href="#DejaVuSans-69"/>
      <use x="809.248047" xlink:href="#DejaVuSans-65"/>
      <use x="877.65625" xlink:href="#DejaVuSans-78"/>
     </g>
    </g>
   </g>
   <g id="LineCollection_1">
    <path clip-path="url(#pdb4d108498)" d="M 146.935 183.678345 
L 146.935 96.812613 
" style="fill:none;stroke:#000000;stroke-width:1.5;"/>
    <path clip-path="url(#pdb4d108498)" d="M 332.935 224.848421 
L 332.935 139.751003 
" style="fill:none;stroke:#000000;stroke-width:1.5;"/>
    <path clip-path="url(#pdb4d108498)" d="M 518.935 275.394861 
L 518.935 224.207407 
" style="fill:none;stroke:#000000;stroke-width:1.5;"/>
   </g>
   <g id="line2d_9">
    <defs>
     <path d="M 6 0 
L -6 -0 
" id="m2d28e873d2" style="stroke:#000000;"/>
    </defs>
    <g clip-path="url(#pdb4d108498)">
     <use style="stroke:#000000;" x="146.935" xlink:href="#m2d28e873d2" y="183.678345"/>
     <use style="stroke:#000000;" x="332.935" xlink:href="#m2d28e873d2" y="224.848421"/>
     <use style="stroke:#000000;" x="518.935" xlink:href="#m2d28e873d2" y="275.394861"/>
    </g>
   </g>
   <g id="line2d_10">
    <g clip-path="url(#pdb4d108498)">
     <use style="stroke:#000000;" x="146.935" xlink:href="#m2d28e873d2" y="96.812613"/>
     <use style="stroke:#000000;" x="332.935" xlink:href="#m2d28e873d2" y="139.751003"/>
     <use style="stroke:#000000;" x="518.935" xlink:href="#m2d28e873d2" y="224.207407"/>
    </g>
   </g>
   <g id="patch_6">
    <path d="M 53.935 337.677785 
L 53.935 11.517785 
" style="fill:none;stroke:#000000;stroke-linecap:square;stroke-linejoin:miter;stroke-width:2;"/>
   </g>
   <g id="patch_7">
    <path d="M 611.935 337.677785 
L 611.935 11.517785 
" style="fill:none;stroke:#000000;stroke-linecap:square;stroke-linejoin:miter;stroke-width:2;"/>
   </g>
   <g id="patch_8">
    <path d="M 53.935 337.677785 
L 611.935 337.677785 
" style="fill:none;stroke:#000000;stroke-linecap:square;stroke-linejoin:miter;stroke-width:2;"/>
   </g>
   <g id="patch_9">
    <path d="M 53.935 11.517785 
L 611.935 11.517785 
" style="fill:none;stroke:#000000;stroke-linecap:square;stroke-linejoin:miter;stroke-width:2;"/>
   </g>
   <g id="PathCollection_1">
    <defs>
     <path d="M 0 5 
C 1.326016 5 2.597899 4.473168 3.535534 3.535534 
C 4.473168 2.597899 5 1.326016 5 0 
C 5 -1.326016 4.473168 -2.597899 3.535534 -3.535534 
C 2.597899 -4.473168 1.326016 -5 0 -5 
C -1.326016 -5 -2.597899 -4.473168 -3.535534 -3.535534 
C -4.473168 -2.597899 -5 -1.326016 -5 0 
C -5 1.326016 -4.473168 2.597899 -3.535534 3.535534 
C -2.597899 4.473168 -1.326016 5 0 5 
z
" id="C0_0_2fbfd3152a"/>
    </defs>
    <g clip-path="url(#pdb4d108498)">
     <use style="fill:#1f77b4;fill-opacity:0.7;" x="146.935" xlink:href="#C0_0_2fbfd3152a" y="265.312686"/>
    </g>
    <g clip-path="url(#pdb4d108498)">
     <use style="fill:#1f77b4;fill-opacity:0.7;" x="146.935" xlink:href="#C0_0_2fbfd3152a" y="222.391303"/>
    </g>
    <g clip-path="url(#pdb4d108498)">
     <use style="fill:#1f77b4;fill-opacity:0.7;" x="146.935" xlink:href="#C0_0_2fbfd3152a" y="202.533323"/>
    </g>
    <g clip-path="url(#pdb4d108498)">
     <use style="fill:#1f77b4;fill-opacity:0.7;" x="136.754298" xlink:href="#C0_0_2fbfd3152a" y="200.085999"/>
    </g>
    <g clip-path="url(#pdb4d108498)">
     <use style="fill:#1f77b4;fill-opacity:0.7;" x="146.935" xlink:href="#C0_0_2fbfd3152a" y="170.833162"/>
    </g>
    <g clip-path="url(#pdb4d108498)">
     <use style="fill:#1f77b4;fill-opacity:0.7;" x="146.935" xlink:href="#C0_0_2fbfd3152a" y="148.078105"/>
    </g>
    <g clip-path="url(#pdb4d108498)">
     <use style="fill:#1f77b4;fill-opacity:0.7;" x="136.942021" xlink:href="#C0_0_2fbfd3152a" y="145.00819"/>
    </g>
    <g clip-path="url(#pdb4d108498)">
     <use style="fill:#1f77b4;fill-opacity:0.7;" x="146.935" xlink:href="#C0_0_2fbfd3152a" y="127.703572"/>
    </g>
    <g clip-path="url(#pdb4d108498)">
     <use style="fill:#1f77b4;fill-opacity:0.7;" x="145.027126" xlink:href="#C0_0_2fbfd3152a" y="117.870036"/>
    </g>
    <g clip-path="url(#pdb4d108498)">
     <use style="fill:#1f77b4;fill-opacity:0.7;" x="146.935" xlink:href="#C0_0_2fbfd3152a" y="85.618488"/>
    </g>
    <g clip-path="url(#pdb4d108498)">
     <use style="fill:#1f77b4;fill-opacity:0.7;" x="146.935" xlink:href="#C0_0_2fbfd3152a" y="67.871449"/>
    </g>
    <g clip-path="url(#pdb4d108498)">
     <use style="fill:#1f77b4;fill-opacity:0.7;" x="146.935" xlink:href="#C0_0_2fbfd3152a" y="40.530263"/>
    </g>
    <g clip-path="url(#pdb4d108498)">
     <use style="fill:#1f77b4;fill-opacity:0.7;" x="146.935" xlink:href="#C0_0_2fbfd3152a" y="29.354652"/>
    </g>
   </g>
   <g id="PathCollection_2">
    <defs>
     <path d="M 0 5 
C 1.326016 5 2.597899 4.473168 3.535534 3.535534 
C 4.473168 2.597899 5 1.326016 5 0 
C 5 -1.326016 4.473168 -2.597899 3.535534 -3.535534 
C 2.597899 -4.473168 1.326016 -5 0 -5 
C -1.326016 -5 -2.597899 -4.473168 -3.535534 -3.535534 
C -4.473168 -2.597899 -5 -1.326016 -5 0 
C -5 1.326016 -4.473168 2.597899 -3.535534 3.535534 
C -2.597899 4.473168 -1.326016 5 0 5 
z
" id="C1_0_bdee575819"/>
    </defs>
    <g clip-path="url(#pdb4d108498)">
     <use style="fill:#ff7f0e;fill-opacity:0.7;" x="332.935" xlink:href="#C1_0_bdee575819" y="318.6526"/>
    </g>
    <g clip-path="url(#pdb4d108498)">
     <use style="fill:#ff7f0e;fill-opacity:0.7;" x="332.935" xlink:href="#C1_0_bdee575819" y="266.690659"/>
    </g>
    <g clip-path="url(#pdb4d108498)">
     <use style="fill:#ff7f0e;fill-opacity:0.7;" x="332.935" xlink:href="#C1_0_bdee575819" y="253.008037"/>
    </g>
    <g clip-path="url(#pdb4d108498)">
     <use style="fill:#ff7f0e;fill-opacity:0.7;" x="332.935" xlink:href="#C1_0_bdee575819" y="240.950719"/>
    </g>
    <g clip-path="url(#pdb4d108498)">
     <use style="fill:#ff7f0e;fill-opacity:0.7;" x="332.935" xlink:href="#C1_0_bdee575819" y="182.011254"/>
    </g>
    <g clip-path="url(#pdb4d108498)">
     <use style="fill:#ff7f0e;fill-opacity:0.7;" x="325.690161" xlink:href="#C1_0_bdee575819" y="174.773014"/>
    </g>
    <g clip-path="url(#pdb4d108498)">
     <use style="fill:#ff7f0e;fill-opacity:0.7;" x="333.915907" xlink:href="#C1_0_bdee575819" y="168.557891"/>
    </g>
    <g clip-path="url(#pdb4d108498)">
     <use style="fill:#ff7f0e;fill-opacity:0.7;" x="326.523445" xlink:href="#C1_0_bdee575819" y="161.456327"/>
    </g>
    <g clip-path="url(#pdb4d108498)">
     <use style="fill:#ff7f0e;fill-opacity:0.7;" x="340.441252" xlink:href="#C1_0_bdee575819" y="160.723443"/>
    </g>
    <g clip-path="url(#pdb4d108498)">
     <use style="fill:#ff7f0e;fill-opacity:0.7;" x="332.935" xlink:href="#C1_0_bdee575819" y="139.132015"/>
    </g>
    <g clip-path="url(#pdb4d108498)">
     <use style="fill:#ff7f0e;fill-opacity:0.7;" x="325.385829" xlink:href="#C1_0_bdee575819" y="132.18159"/>
    </g>
    <g clip-path="url(#pdb4d108498)">
     <use style="fill:#ff7f0e;fill-opacity:0.7;" x="332.935" xlink:href="#C1_0_bdee575819" y="110.615018"/>
    </g>
    <g clip-path="url(#pdb4d108498)">
     <use style="fill:#ff7f0e;fill-opacity:0.7;" x="332.935" xlink:href="#C1_0_bdee575819" y="61.143693"/>
    </g>
   </g>
   <g id="PathCollection_3">
    <defs>
     <path d="M 0 5 
C 1.326016 5 2.597899 4.473168 3.535534 3.535534 
C 4.473168 2.597899 5 1.326016 5 0 
C 5 -1.326016 4.473168 -2.597899 3.535534 -3.535534 
C 2.597899 -4.473168 1.326016 -5 0 -5 
C -1.326016 -5 -2.597899 -4.473168 -3.535534 -3.535534 
C -4.473168 -2.597899 -5 -1.326016 -5 0 
C -5 1.326016 -4.473168 2.597899 -3.535534 3.535534 
C -2.597899 4.473168 -1.326016 5 0 5 
z
" id="C2_0_6bcc42b319"/>
    </defs>
    <g clip-path="url(#pdb4d108498)">
     <use style="fill:#2ca02c;fill-opacity:0.7;" x="518.935" xlink:href="#C2_0_6bcc42b319" y="311.107714"/>
    </g>
    <g clip-path="url(#pdb4d108498)">
     <use style="fill:#2ca02c;fill-opacity:0.7;" x="518.935" xlink:href="#C2_0_6bcc42b319" y="299.114317"/>
    </g>
    <g clip-path="url(#pdb4d108498)">
     <use style="fill:#2ca02c;fill-opacity:0.7;" x="508.532966" xlink:href="#C2_0_6bcc42b319" y="297.751485"/>
    </g>
    <g clip-path="url(#pdb4d108498)">
     <use style="fill:#2ca02c;fill-opacity:0.7;" x="518.935" xlink:href="#C2_0_6bcc42b319" y="287.9998"/>
    </g>
    <g clip-path="url(#pdb4d108498)">
     <use style="fill:#2ca02c;fill-opacity:0.7;" x="518.935" xlink:href="#C2_0_6bcc42b319" y="271.690722"/>
    </g>
    <g clip-path="url(#pdb4d108498)">
     <use style="fill:#2ca02c;fill-opacity:0.7;" x="518.935" xlink:href="#C2_0_6bcc42b319" y="258.869386"/>
    </g>
    <g clip-path="url(#pdb4d108498)">
     <use style="fill:#2ca02c;fill-opacity:0.7;" x="508.957028" xlink:href="#C2_0_6bcc42b319" y="255.755513"/>
    </g>
    <g clip-path="url(#pdb4d108498)">
     <use style="fill:#2ca02c;fill-opacity:0.7;" x="518.935" xlink:href="#C2_0_6bcc42b319" y="234.759257"/>
    </g>
    <g clip-path="url(#pdb4d108498)">
     <use style="fill:#2ca02c;fill-opacity:0.7;" x="509.056771" xlink:href="#C2_0_6bcc42b319" y="231.369184"/>
    </g>
    <g clip-path="url(#pdb4d108498)">
     <use style="fill:#2ca02c;fill-opacity:0.7;" x="518.935" xlink:href="#C2_0_6bcc42b319" y="210.812772"/>
    </g>
    <g clip-path="url(#pdb4d108498)">
     <use style="fill:#2ca02c;fill-opacity:0.7;" x="508.754959" xlink:href="#C2_0_6bcc42b319" y="208.362955"/>
    </g>
    <g clip-path="url(#pdb4d108498)">
     <use style="fill:#2ca02c;fill-opacity:0.7;" x="518.935" xlink:href="#C2_0_6bcc42b319" y="191.138872"/>
    </g>
    <g clip-path="url(#pdb4d108498)">
     <use style="fill:#2ca02c;fill-opacity:0.7;" x="508.75663" xlink:href="#C2_0_6bcc42b319" y="188.682765"/>
    </g>
   </g>
  </g>
 </g>
 <defs>
  <clipPath id="pdb4d108498">
   <rect height="326.16" width="558" x="53.935" y="11.517785"/>
  </clipPath>
 </defs>
</svg>
