<?xml version="1.0" encoding="utf-8" standalone="no"?>
<!DOCTYPE svg PUBLIC "-//W3C//DTD SVG 1.1//EN"
  "http://www.w3.org/Graphics/SVG/1.1/DTD/svg11.dtd">
<!-- Created with matplotlib (https://matplotlib.org/) -->
<svg height="359.545pt" version="1.1" viewBox="0 0 599.4875 359.545" width="599.4875pt" xmlns="http://www.w3.org/2000/svg" xmlns:xlink="http://www.w3.org/1999/xlink">
 <defs>
  <style type="text/css">
*{stroke-linecap:butt;stroke-linejoin:round;}
  </style>
 </defs>
 <g id="figure_1">
  <g id="patch_1">
   <path d="M 0 359.545 
L 599.4875 359.545 
L 599.4875 0 
L 0 0 
z
" style="fill:#ffffff;"/>
  </g>
  <g id="axes_1">
   <g id="patch_2">
    <path d="M 34.2875 333.36 
L 592.2875 333.36 
L 592.2875 7.2 
L 34.2875 7.2 
z
" style="fill:#ffffff;"/>
   </g>
   <g id="patch_3">
    <path clip-path="url(#p496a1e9b0c)" d="M 59.651136 182.886189 
L 91.355682 182.886189 
L 91.355682 78.366899 
L 59.651136 78.366899 
z
" style="fill:#a9a9a9;"/>
   </g>
   <g id="patch_4">
    <path clip-path="url(#p496a1e9b0c)" d="M 99.281818 182.886189 
L 130.986364 182.886189 
L 130.986364 140.492811 
L 99.281818 140.492811 
z
" style="fill:#a9a9a9;"/>
   </g>
   <g id="patch_5">
    <path clip-path="url(#p496a1e9b0c)" d="M 138.9125 182.886189 
L 170.617045 182.886189 
L 170.617045 120.929148 
L 138.9125 120.929148 
z
" style="fill:#a9a9a9;"/>
   </g>
   <g id="patch_6">
    <path clip-path="url(#p496a1e9b0c)" d="M 178.543182 182.886189 
L 210.247727 182.886189 
L 210.247727 180.36928 
L 178.543182 180.36928 
z
" style="fill:#a9a9a9;"/>
   </g>
   <g id="patch_7">
    <path clip-path="url(#p496a1e9b0c)" d="M 218.173864 182.886189 
L 249.878409 182.886189 
L 249.878409 97.96132 
L 218.173864 97.96132 
z
" style="fill:#a9a9a9;"/>
   </g>
   <g id="patch_8">
    <path clip-path="url(#p496a1e9b0c)" d="M 257.804545 182.886189 
L 289.509091 182.886189 
L 289.509091 64.082006 
L 257.804545 64.082006 
z
" style="fill:#a9a9a9;"/>
   </g>
   <g id="patch_9">
    <path clip-path="url(#p496a1e9b0c)" d="M 297.435227 182.886189 
L 329.139773 182.886189 
L 329.139773 157.491091 
L 297.435227 157.491091 
z
" style="fill:#a9a9a9;"/>
   </g>
   <g id="patch_10">
    <path clip-path="url(#p496a1e9b0c)" d="M 337.065909 182.886189 
L 368.770455 182.886189 
L 368.770455 131.218245 
L 337.065909 131.218245 
z
" style="fill:#a9a9a9;"/>
   </g>
   <g id="patch_11">
    <path clip-path="url(#p496a1e9b0c)" d="M 376.696591 182.886189 
L 408.401136 182.886189 
L 408.401136 138.973246 
L 376.696591 138.973246 
z
" style="fill:#a9a9a9;"/>
   </g>
   <g id="patch_12">
    <path clip-path="url(#p496a1e9b0c)" d="M 416.327273 182.886189 
L 448.031818 182.886189 
L 448.031818 126.457704 
L 416.327273 126.457704 
z
" style="fill:#a9a9a9;"/>
   </g>
   <g id="patch_13">
    <path clip-path="url(#p496a1e9b0c)" d="M 455.957955 182.886189 
L 487.6625 182.886189 
L 487.6625 205.723761 
L 455.957955 205.723761 
z
" style="fill:#a9a9a9;"/>
   </g>
   <g id="patch_14">
    <path clip-path="url(#p496a1e9b0c)" d="M 495.588636 182.886189 
L 527.293182 182.886189 
L 527.293182 85.999777 
L 495.588636 85.999777 
z
" style="fill:#a9a9a9;"/>
   </g>
   <g id="patch_15">
    <path clip-path="url(#p496a1e9b0c)" d="M 535.219318 182.886189 
L 566.923864 182.886189 
L 566.923864 102.734863 
L 535.219318 102.734863 
z
" style="fill:#a9a9a9;"/>
   </g>
   <g id="matplotlib.axis_1">
    <g id="xtick_1">
     <g id="line2d_1">
      <defs>
       <path d="M 0 0 
L 0 -6 
" id="me8115af80a" style="stroke:#000000;stroke-width:2;"/>
      </defs>
      <g>
       <use style="stroke:#000000;stroke-width:2;" x="75.503409" xlink:href="#me8115af80a" y="333.36"/>
      </g>
     </g>
     <g id="text_1">
      <!-- S1 -->
      <defs>
       <path d="M 53.515625 70.515625 
L 53.515625 60.890625 
Q 47.90625 63.578125 42.921875 64.890625 
Q 37.9375 66.21875 33.296875 66.21875 
Q 25.25 66.21875 20.875 63.09375 
Q 16.5 59.96875 16.5 54.203125 
Q 16.5 49.359375 19.40625 46.890625 
Q 22.3125 44.4375 30.421875 42.921875 
L 36.375 41.703125 
Q 47.40625 39.59375 52.65625 34.296875 
Q 57.90625 29 57.90625 20.125 
Q 57.90625 9.515625 50.796875 4.046875 
Q 43.703125 -1.421875 29.984375 -1.421875 
Q 24.8125 -1.421875 18.96875 -0.25 
Q 13.140625 0.921875 6.890625 3.21875 
L 6.890625 13.375 
Q 12.890625 10.015625 18.65625 8.296875 
Q 24.421875 6.59375 29.984375 6.59375 
Q 38.421875 6.59375 43.015625 9.90625 
Q 47.609375 13.234375 47.609375 19.390625 
Q 47.609375 24.75 44.3125 27.78125 
Q 41.015625 30.8125 33.5 32.328125 
L 27.484375 33.5 
Q 16.453125 35.6875 11.515625 40.375 
Q 6.59375 45.0625 6.59375 53.421875 
Q 6.59375 63.09375 13.40625 68.65625 
Q 20.21875 74.21875 32.171875 74.21875 
Q 37.3125 74.21875 42.625 73.28125 
Q 47.953125 72.359375 53.515625 70.515625 
z
" id="DejaVuSans-83"/>
       <path d="M 12.40625 8.296875 
L 28.515625 8.296875 
L 28.515625 63.921875 
L 10.984375 60.40625 
L 10.984375 69.390625 
L 28.421875 72.90625 
L 38.28125 72.90625 
L 38.28125 8.296875 
L 54.390625 8.296875 
L 54.390625 0 
L 12.40625 0 
z
" id="DejaVuSans-49"/>
      </defs>
      <g transform="translate(65.334659 349.0175)scale(0.16 -0.16)">
       <use xlink:href="#DejaVuSans-83"/>
       <use x="63.476562" xlink:href="#DejaVuSans-49"/>
      </g>
     </g>
    </g>
    <g id="xtick_2">
     <g id="line2d_2">
      <g>
       <use style="stroke:#000000;stroke-width:2;" x="115.134091" xlink:href="#me8115af80a" y="333.36"/>
      </g>
     </g>
     <g id="text_2">
      <!-- S3 -->
      <defs>
       <path d="M 40.578125 39.3125 
Q 47.65625 37.796875 51.625 33 
Q 55.609375 28.21875 55.609375 21.1875 
Q 55.609375 10.40625 48.1875 4.484375 
Q 40.765625 -1.421875 27.09375 -1.421875 
Q 22.515625 -1.421875 17.65625 -0.515625 
Q 12.796875 0.390625 7.625 2.203125 
L 7.625 11.71875 
Q 11.71875 9.328125 16.59375 8.109375 
Q 21.484375 6.890625 26.8125 6.890625 
Q 36.078125 6.890625 40.9375 10.546875 
Q 45.796875 14.203125 45.796875 21.1875 
Q 45.796875 27.640625 41.28125 31.265625 
Q 36.765625 34.90625 28.71875 34.90625 
L 20.21875 34.90625 
L 20.21875 43.015625 
L 29.109375 43.015625 
Q 36.375 43.015625 40.234375 45.921875 
Q 44.09375 48.828125 44.09375 54.296875 
Q 44.09375 59.90625 40.109375 62.90625 
Q 36.140625 65.921875 28.71875 65.921875 
Q 24.65625 65.921875 20.015625 65.03125 
Q 15.375 64.15625 9.8125 62.3125 
L 9.8125 71.09375 
Q 15.4375 72.65625 20.34375 73.4375 
Q 25.25 74.21875 29.59375 74.21875 
Q 40.828125 74.21875 47.359375 69.109375 
Q 53.90625 64.015625 53.90625 55.328125 
Q 53.90625 49.265625 50.4375 45.09375 
Q 46.96875 40.921875 40.578125 39.3125 
z
" id="DejaVuSans-51"/>
      </defs>
      <g transform="translate(104.965341 349.0175)scale(0.16 -0.16)">
       <use xlink:href="#DejaVuSans-83"/>
       <use x="63.476562" xlink:href="#DejaVuSans-51"/>
      </g>
     </g>
    </g>
    <g id="xtick_3">
     <g id="line2d_3">
      <g>
       <use style="stroke:#000000;stroke-width:2;" x="154.764773" xlink:href="#me8115af80a" y="333.36"/>
      </g>
     </g>
     <g id="text_3">
      <!-- S4 -->
      <defs>
       <path d="M 37.796875 64.3125 
L 12.890625 25.390625 
L 37.796875 25.390625 
z
M 35.203125 72.90625 
L 47.609375 72.90625 
L 47.609375 25.390625 
L 58.015625 25.390625 
L 58.015625 17.1875 
L 47.609375 17.1875 
L 47.609375 0 
L 37.796875 0 
L 37.796875 17.1875 
L 4.890625 17.1875 
L 4.890625 26.703125 
z
" id="DejaVuSans-52"/>
      </defs>
      <g transform="translate(144.596023 349.0175)scale(0.16 -0.16)">
       <use xlink:href="#DejaVuSans-83"/>
       <use x="63.476562" xlink:href="#DejaVuSans-52"/>
      </g>
     </g>
    </g>
    <g id="xtick_4">
     <g id="line2d_4">
      <g>
       <use style="stroke:#000000;stroke-width:2;" x="194.395455" xlink:href="#me8115af80a" y="333.36"/>
      </g>
     </g>
     <g id="text_4">
      <!-- S6 -->
      <defs>
       <path d="M 33.015625 40.375 
Q 26.375 40.375 22.484375 35.828125 
Q 18.609375 31.296875 18.609375 23.390625 
Q 18.609375 15.53125 22.484375 10.953125 
Q 26.375 6.390625 33.015625 6.390625 
Q 39.65625 6.390625 43.53125 10.953125 
Q 47.40625 15.53125 47.40625 23.390625 
Q 47.40625 31.296875 43.53125 35.828125 
Q 39.65625 40.375 33.015625 40.375 
z
M 52.59375 71.296875 
L 52.59375 62.3125 
Q 48.875 64.0625 45.09375 64.984375 
Q 41.3125 65.921875 37.59375 65.921875 
Q 27.828125 65.921875 22.671875 59.328125 
Q 17.53125 52.734375 16.796875 39.40625 
Q 19.671875 43.65625 24.015625 45.921875 
Q 28.375 48.1875 33.59375 48.1875 
Q 44.578125 48.1875 50.953125 41.515625 
Q 57.328125 34.859375 57.328125 23.390625 
Q 57.328125 12.15625 50.6875 5.359375 
Q 44.046875 -1.421875 33.015625 -1.421875 
Q 20.359375 -1.421875 13.671875 8.265625 
Q 6.984375 17.96875 6.984375 36.375 
Q 6.984375 53.65625 15.1875 63.9375 
Q 23.390625 74.21875 37.203125 74.21875 
Q 40.921875 74.21875 44.703125 73.484375 
Q 48.484375 72.75 52.59375 71.296875 
z
" id="DejaVuSans-54"/>
      </defs>
      <g transform="translate(184.226705 349.0175)scale(0.16 -0.16)">
       <use xlink:href="#DejaVuSans-83"/>
       <use x="63.476562" xlink:href="#DejaVuSans-54"/>
      </g>
     </g>
    </g>
    <g id="xtick_5">
     <g id="line2d_5">
      <g>
       <use style="stroke:#000000;stroke-width:2;" x="234.026136" xlink:href="#me8115af80a" y="333.36"/>
      </g>
     </g>
     <g id="text_5">
      <!-- S7 -->
      <defs>
       <path d="M 8.203125 72.90625 
L 55.078125 72.90625 
L 55.078125 68.703125 
L 28.609375 0 
L 18.3125 0 
L 43.21875 64.59375 
L 8.203125 64.59375 
z
" id="DejaVuSans-55"/>
      </defs>
      <g transform="translate(223.857386 349.0175)scale(0.16 -0.16)">
       <use xlink:href="#DejaVuSans-83"/>
       <use x="63.476562" xlink:href="#DejaVuSans-55"/>
      </g>
     </g>
    </g>
    <g id="xtick_6">
     <g id="line2d_6">
      <g>
       <use style="stroke:#000000;stroke-width:2;" x="273.656818" xlink:href="#me8115af80a" y="333.36"/>
      </g>
     </g>
     <g id="text_6">
      <!-- S8 -->
      <defs>
       <path d="M 31.78125 34.625 
Q 24.75 34.625 20.71875 30.859375 
Q 16.703125 27.09375 16.703125 20.515625 
Q 16.703125 13.921875 20.71875 10.15625 
Q 24.75 6.390625 31.78125 6.390625 
Q 38.8125 6.390625 42.859375 10.171875 
Q 46.921875 13.96875 46.921875 20.515625 
Q 46.921875 27.09375 42.890625 30.859375 
Q 38.875 34.625 31.78125 34.625 
z
M 21.921875 38.8125 
Q 15.578125 40.375 12.03125 44.71875 
Q 8.5 49.078125 8.5 55.328125 
Q 8.5 64.0625 14.71875 69.140625 
Q 20.953125 74.21875 31.78125 74.21875 
Q 42.671875 74.21875 48.875 69.140625 
Q 55.078125 64.0625 55.078125 55.328125 
Q 55.078125 49.078125 51.53125 44.71875 
Q 48 40.375 41.703125 38.8125 
Q 48.828125 37.15625 52.796875 32.3125 
Q 56.78125 27.484375 56.78125 20.515625 
Q 56.78125 9.90625 50.3125 4.234375 
Q 43.84375 -1.421875 31.78125 -1.421875 
Q 19.734375 -1.421875 13.25 4.234375 
Q 6.78125 9.90625 6.78125 20.515625 
Q 6.78125 27.484375 10.78125 32.3125 
Q 14.796875 37.15625 21.921875 38.8125 
z
M 18.3125 54.390625 
Q 18.3125 48.734375 21.84375 45.5625 
Q 25.390625 42.390625 31.78125 42.390625 
Q 38.140625 42.390625 41.71875 45.5625 
Q 45.3125 48.734375 45.3125 54.390625 
Q 45.3125 60.0625 41.71875 63.234375 
Q 38.140625 66.40625 31.78125 66.40625 
Q 25.390625 66.40625 21.84375 63.234375 
Q 18.3125 60.0625 18.3125 54.390625 
z
" id="DejaVuSans-56"/>
      </defs>
      <g transform="translate(263.488068 349.0175)scale(0.16 -0.16)">
       <use xlink:href="#DejaVuSans-83"/>
       <use x="63.476562" xlink:href="#DejaVuSans-56"/>
      </g>
     </g>
    </g>
    <g id="xtick_7">
     <g id="line2d_7">
      <g>
       <use style="stroke:#000000;stroke-width:2;" x="313.2875" xlink:href="#me8115af80a" y="333.36"/>
      </g>
     </g>
     <g id="text_7">
      <!-- s9 -->
      <defs>
       <path d="M 44.28125 53.078125 
L 44.28125 44.578125 
Q 40.484375 46.53125 36.375 47.5 
Q 32.28125 48.484375 27.875 48.484375 
Q 21.1875 48.484375 17.84375 46.4375 
Q 14.5 44.390625 14.5 40.28125 
Q 14.5 37.15625 16.890625 35.375 
Q 19.28125 33.59375 26.515625 31.984375 
L 29.59375 31.296875 
Q 39.15625 29.25 43.1875 25.515625 
Q 47.21875 21.78125 47.21875 15.09375 
Q 47.21875 7.46875 41.1875 3.015625 
Q 35.15625 -1.421875 24.609375 -1.421875 
Q 20.21875 -1.421875 15.453125 -0.5625 
Q 10.6875 0.296875 5.421875 2 
L 5.421875 11.28125 
Q 10.40625 8.6875 15.234375 7.390625 
Q 20.0625 6.109375 24.8125 6.109375 
Q 31.15625 6.109375 34.5625 8.28125 
Q 37.984375 10.453125 37.984375 14.40625 
Q 37.984375 18.0625 35.515625 20.015625 
Q 33.0625 21.96875 24.703125 23.78125 
L 21.578125 24.515625 
Q 13.234375 26.265625 9.515625 29.90625 
Q 5.8125 33.546875 5.8125 39.890625 
Q 5.8125 47.609375 11.28125 51.796875 
Q 16.75 56 26.8125 56 
Q 31.78125 56 36.171875 55.265625 
Q 40.578125 54.546875 44.28125 53.078125 
z
" id="DejaVuSans-115"/>
       <path d="M 10.984375 1.515625 
L 10.984375 10.5 
Q 14.703125 8.734375 18.5 7.8125 
Q 22.3125 6.890625 25.984375 6.890625 
Q 35.75 6.890625 40.890625 13.453125 
Q 46.046875 20.015625 46.78125 33.40625 
Q 43.953125 29.203125 39.59375 26.953125 
Q 35.25 24.703125 29.984375 24.703125 
Q 19.046875 24.703125 12.671875 31.3125 
Q 6.296875 37.9375 6.296875 49.421875 
Q 6.296875 60.640625 12.9375 67.421875 
Q 19.578125 74.21875 30.609375 74.21875 
Q 43.265625 74.21875 49.921875 64.515625 
Q 56.59375 54.828125 56.59375 36.375 
Q 56.59375 19.140625 48.40625 8.859375 
Q 40.234375 -1.421875 26.421875 -1.421875 
Q 22.703125 -1.421875 18.890625 -0.6875 
Q 15.09375 0.046875 10.984375 1.515625 
z
M 30.609375 32.421875 
Q 37.25 32.421875 41.125 36.953125 
Q 45.015625 41.5 45.015625 49.421875 
Q 45.015625 57.28125 41.125 61.84375 
Q 37.25 66.40625 30.609375 66.40625 
Q 23.96875 66.40625 20.09375 61.84375 
Q 16.21875 57.28125 16.21875 49.421875 
Q 16.21875 41.5 20.09375 36.953125 
Q 23.96875 32.421875 30.609375 32.421875 
z
" id="DejaVuSans-57"/>
      </defs>
      <g transform="translate(304.03 349.0175)scale(0.16 -0.16)">
       <use xlink:href="#DejaVuSans-115"/>
       <use x="52.099609" xlink:href="#DejaVuSans-57"/>
      </g>
     </g>
    </g>
    <g id="xtick_8">
     <g id="line2d_8">
      <g>
       <use style="stroke:#000000;stroke-width:2;" x="352.918182" xlink:href="#me8115af80a" y="333.36"/>
      </g>
     </g>
     <g id="text_8">
      <!-- s10 -->
      <defs>
       <path d="M 31.78125 66.40625 
Q 24.171875 66.40625 20.328125 58.90625 
Q 16.5 51.421875 16.5 36.375 
Q 16.5 21.390625 20.328125 13.890625 
Q 24.171875 6.390625 31.78125 6.390625 
Q 39.453125 6.390625 43.28125 13.890625 
Q 47.125 21.390625 47.125 36.375 
Q 47.125 51.421875 43.28125 58.90625 
Q 39.453125 66.40625 31.78125 66.40625 
z
M 31.78125 74.21875 
Q 44.046875 74.21875 50.515625 64.515625 
Q 56.984375 54.828125 56.984375 36.375 
Q 56.984375 17.96875 50.515625 8.265625 
Q 44.046875 -1.421875 31.78125 -1.421875 
Q 19.53125 -1.421875 13.0625 8.265625 
Q 6.59375 17.96875 6.59375 36.375 
Q 6.59375 54.828125 13.0625 64.515625 
Q 19.53125 74.21875 31.78125 74.21875 
z
" id="DejaVuSans-48"/>
      </defs>
      <g transform="translate(338.570682 349.0175)scale(0.16 -0.16)">
       <use xlink:href="#DejaVuSans-115"/>
       <use x="52.099609" xlink:href="#DejaVuSans-49"/>
       <use x="115.722656" xlink:href="#DejaVuSans-48"/>
      </g>
     </g>
    </g>
    <g id="xtick_9">
     <g id="line2d_9">
      <g>
       <use style="stroke:#000000;stroke-width:2;" x="392.548864" xlink:href="#me8115af80a" y="333.36"/>
      </g>
     </g>
     <g id="text_9">
      <!-- s11 -->
      <g transform="translate(378.201364 349.0175)scale(0.16 -0.16)">
       <use xlink:href="#DejaVuSans-115"/>
       <use x="52.099609" xlink:href="#DejaVuSans-49"/>
       <use x="115.722656" xlink:href="#DejaVuSans-49"/>
      </g>
     </g>
    </g>
    <g id="xtick_10">
     <g id="line2d_10">
      <g>
       <use style="stroke:#000000;stroke-width:2;" x="432.179545" xlink:href="#me8115af80a" y="333.36"/>
      </g>
     </g>
     <g id="text_10">
      <!-- s12 -->
      <defs>
       <path d="M 19.1875 8.296875 
L 53.609375 8.296875 
L 53.609375 0 
L 7.328125 0 
L 7.328125 8.296875 
Q 12.9375 14.109375 22.625 23.890625 
Q 32.328125 33.6875 34.8125 36.53125 
Q 39.546875 41.84375 41.421875 45.53125 
Q 43.3125 49.21875 43.3125 52.78125 
Q 43.3125 58.59375 39.234375 62.25 
Q 35.15625 65.921875 28.609375 65.921875 
Q 23.96875 65.921875 18.8125 64.3125 
Q 13.671875 62.703125 7.8125 59.421875 
L 7.8125 69.390625 
Q 13.765625 71.78125 18.9375 73 
Q 24.125 74.21875 28.421875 74.21875 
Q 39.75 74.21875 46.484375 68.546875 
Q 53.21875 62.890625 53.21875 53.421875 
Q 53.21875 48.921875 51.53125 44.890625 
Q 49.859375 40.875 45.40625 35.40625 
Q 44.1875 33.984375 37.640625 27.21875 
Q 31.109375 20.453125 19.1875 8.296875 
z
" id="DejaVuSans-50"/>
      </defs>
      <g transform="translate(417.832045 349.0175)scale(0.16 -0.16)">
       <use xlink:href="#DejaVuSans-115"/>
       <use x="52.099609" xlink:href="#DejaVuSans-49"/>
       <use x="115.722656" xlink:href="#DejaVuSans-50"/>
      </g>
     </g>
    </g>
    <g id="xtick_11">
     <g id="line2d_11">
      <g>
       <use style="stroke:#000000;stroke-width:2;" x="471.810227" xlink:href="#me8115af80a" y="333.36"/>
      </g>
     </g>
     <g id="text_11">
      <!-- s13 -->
      <g transform="translate(457.462727 349.0175)scale(0.16 -0.16)">
       <use xlink:href="#DejaVuSans-115"/>
       <use x="52.099609" xlink:href="#DejaVuSans-49"/>
       <use x="115.722656" xlink:href="#DejaVuSans-51"/>
      </g>
     </g>
    </g>
    <g id="xtick_12">
     <g id="line2d_12">
      <g>
       <use style="stroke:#000000;stroke-width:2;" x="511.440909" xlink:href="#me8115af80a" y="333.36"/>
      </g>
     </g>
     <g id="text_12">
      <!-- s14 -->
      <g transform="translate(497.093409 349.0175)scale(0.16 -0.16)">
       <use xlink:href="#DejaVuSans-115"/>
       <use x="52.099609" xlink:href="#DejaVuSans-49"/>
       <use x="115.722656" xlink:href="#DejaVuSans-52"/>
      </g>
     </g>
    </g>
    <g id="xtick_13">
     <g id="line2d_13">
      <g>
       <use style="stroke:#000000;stroke-width:2;" x="551.071591" xlink:href="#me8115af80a" y="333.36"/>
      </g>
     </g>
     <g id="text_13">
      <!-- s15 -->
      <defs>
       <path d="M 10.796875 72.90625 
L 49.515625 72.90625 
L 49.515625 64.59375 
L 19.828125 64.59375 
L 19.828125 46.734375 
Q 21.96875 47.46875 24.109375 47.828125 
Q 26.265625 48.1875 28.421875 48.1875 
Q 40.625 48.1875 47.75 41.5 
Q 54.890625 34.8125 54.890625 23.390625 
Q 54.890625 11.625 47.5625 5.09375 
Q 40.234375 -1.421875 26.90625 -1.421875 
Q 22.3125 -1.421875 17.546875 -0.640625 
Q 12.796875 0.140625 7.71875 1.703125 
L 7.71875 11.625 
Q 12.109375 9.234375 16.796875 8.0625 
Q 21.484375 6.890625 26.703125 6.890625 
Q 35.15625 6.890625 40.078125 11.328125 
Q 45.015625 15.765625 45.015625 23.390625 
Q 45.015625 31 40.078125 35.4375 
Q 35.15625 39.890625 26.703125 39.890625 
Q 22.75 39.890625 18.8125 39.015625 
Q 14.890625 38.140625 10.796875 36.28125 
z
" id="DejaVuSans-53"/>
      </defs>
      <g transform="translate(536.724091 349.0175)scale(0.16 -0.16)">
       <use xlink:href="#DejaVuSans-115"/>
       <use x="52.099609" xlink:href="#DejaVuSans-49"/>
       <use x="115.722656" xlink:href="#DejaVuSans-53"/>
      </g>
     </g>
    </g>
   </g>
   <g id="matplotlib.axis_2">
    <g id="ytick_1">
     <g id="line2d_14">
      <defs>
       <path d="M 0 0 
L 6 0 
" id="m70b14fbfed" style="stroke:#000000;stroke-width:2;"/>
      </defs>
      <g>
       <use style="stroke:#000000;stroke-width:2;" x="34.2875" xlink:href="#m70b14fbfed" y="323.3916"/>
      </g>
     </g>
     <g id="text_14">
      <!-- −6 -->
      <defs>
       <path d="M 10.59375 35.5 
L 73.1875 35.5 
L 73.1875 27.203125 
L 10.59375 27.203125 
z
" id="DejaVuSans-8722"/>
      </defs>
      <g transform="translate(7.2 329.47035)scale(0.16 -0.16)">
       <use xlink:href="#DejaVuSans-8722"/>
       <use x="83.789062" xlink:href="#DejaVuSans-54"/>
      </g>
     </g>
    </g>
    <g id="ytick_2">
     <g id="line2d_15">
      <g>
       <use style="stroke:#000000;stroke-width:2;" x="34.2875" xlink:href="#m70b14fbfed" y="276.556463"/>
      </g>
     </g>
     <g id="text_15">
      <!-- −4 -->
      <g transform="translate(7.2 282.635213)scale(0.16 -0.16)">
       <use xlink:href="#DejaVuSans-8722"/>
       <use x="83.789062" xlink:href="#DejaVuSans-52"/>
      </g>
     </g>
    </g>
    <g id="ytick_3">
     <g id="line2d_16">
      <g>
       <use style="stroke:#000000;stroke-width:2;" x="34.2875" xlink:href="#m70b14fbfed" y="229.721326"/>
      </g>
     </g>
     <g id="text_16">
      <!-- −2 -->
      <g transform="translate(7.2 235.800076)scale(0.16 -0.16)">
       <use xlink:href="#DejaVuSans-8722"/>
       <use x="83.789062" xlink:href="#DejaVuSans-50"/>
      </g>
     </g>
    </g>
    <g id="ytick_4">
     <g id="line2d_17">
      <g>
       <use style="stroke:#000000;stroke-width:2;" x="34.2875" xlink:href="#m70b14fbfed" y="182.886189"/>
      </g>
     </g>
     <g id="text_17">
      <!-- 0 -->
      <g transform="translate(20.6075 188.964939)scale(0.16 -0.16)">
       <use xlink:href="#DejaVuSans-48"/>
      </g>
     </g>
    </g>
    <g id="ytick_5">
     <g id="line2d_18">
      <g>
       <use style="stroke:#000000;stroke-width:2;" x="34.2875" xlink:href="#m70b14fbfed" y="136.051052"/>
      </g>
     </g>
     <g id="text_18">
      <!-- 2 -->
      <g transform="translate(20.6075 142.129802)scale(0.16 -0.16)">
       <use xlink:href="#DejaVuSans-50"/>
      </g>
     </g>
    </g>
    <g id="ytick_6">
     <g id="line2d_19">
      <g>
       <use style="stroke:#000000;stroke-width:2;" x="34.2875" xlink:href="#m70b14fbfed" y="89.215915"/>
      </g>
     </g>
     <g id="text_19">
      <!-- 4 -->
      <g transform="translate(20.6075 95.294665)scale(0.16 -0.16)">
       <use xlink:href="#DejaVuSans-52"/>
      </g>
     </g>
    </g>
    <g id="ytick_7">
     <g id="line2d_20">
      <g>
       <use style="stroke:#000000;stroke-width:2;" x="34.2875" xlink:href="#m70b14fbfed" y="42.380777"/>
      </g>
     </g>
     <g id="text_20">
      <!-- 6 -->
      <g transform="translate(20.6075 48.459527)scale(0.16 -0.16)">
       <use xlink:href="#DejaVuSans-54"/>
      </g>
     </g>
    </g>
   </g>
   <g id="LineCollection_1">
    <path clip-path="url(#p496a1e9b0c)" d="M 75.503409 79.251055 
L 75.503409 77.482743 
" style="fill:none;stroke:#000000;stroke-width:1.5;"/>
    <path clip-path="url(#p496a1e9b0c)" d="M 115.134091 40.806748 
L 115.134091 240.178874 
" style="fill:none;stroke:#000000;stroke-width:1.5;"/>
    <path clip-path="url(#p496a1e9b0c)" d="M 154.764773 77.506672 
L 154.764773 164.351623 
" style="fill:none;stroke:#000000;stroke-width:1.5;"/>
    <path clip-path="url(#p496a1e9b0c)" d="M 194.395455 110.277779 
L 194.395455 250.46078 
" style="fill:none;stroke:#000000;stroke-width:1.5;"/>
    <path clip-path="url(#p496a1e9b0c)" d="M 234.026136 100.092146 
L 234.026136 95.830494 
" style="fill:none;stroke:#000000;stroke-width:1.5;"/>
    <path clip-path="url(#p496a1e9b0c)" d="M 273.656818 106.138557 
L 273.656818 22.025455 
" style="fill:none;stroke:#000000;stroke-width:1.5;"/>
    <path clip-path="url(#p496a1e9b0c)" d="M 313.2875 118.574484 
L 313.2875 196.407698 
" style="fill:none;stroke:#000000;stroke-width:1.5;"/>
    <path clip-path="url(#p496a1e9b0c)" d="M 352.918182 113.532439 
L 352.918182 148.904051 
" style="fill:none;stroke:#000000;stroke-width:1.5;"/>
    <path clip-path="url(#p496a1e9b0c)" d="M 392.548864 118.793043 
L 392.548864 159.153449 
" style="fill:none;stroke:#000000;stroke-width:1.5;"/>
    <path clip-path="url(#p496a1e9b0c)" d="M 432.179545 48.39431 
L 432.179545 204.521099 
" style="fill:none;stroke:#000000;stroke-width:1.5;"/>
    <path clip-path="url(#p496a1e9b0c)" d="M 471.810227 92.912977 
L 471.810227 318.534545 
" style="fill:none;stroke:#000000;stroke-width:1.5;"/>
    <path clip-path="url(#p496a1e9b0c)" d="M 511.440909 131.791611 
L 511.440909 40.207943 
" style="fill:none;stroke:#000000;stroke-width:1.5;"/>
    <path clip-path="url(#p496a1e9b0c)" d="M 551.071591 125.272334 
L 551.071591 80.197392 
" style="fill:none;stroke:#000000;stroke-width:1.5;"/>
   </g>
   <g id="line2d_21">
    <defs>
     <path d="M 6 0 
L -6 -0 
" id="m87b25e55c7" style="stroke:#000000;"/>
    </defs>
    <g clip-path="url(#p496a1e9b0c)">
     <use style="stroke:#000000;" x="75.503409" xlink:href="#m87b25e55c7" y="79.251055"/>
     <use style="stroke:#000000;" x="115.134091" xlink:href="#m87b25e55c7" y="40.806748"/>
     <use style="stroke:#000000;" x="154.764773" xlink:href="#m87b25e55c7" y="77.506672"/>
     <use style="stroke:#000000;" x="194.395455" xlink:href="#m87b25e55c7" y="110.277779"/>
     <use style="stroke:#000000;" x="234.026136" xlink:href="#m87b25e55c7" y="100.092146"/>
     <use style="stroke:#000000;" x="273.656818" xlink:href="#m87b25e55c7" y="106.138557"/>
     <use style="stroke:#000000;" x="313.2875" xlink:href="#m87b25e55c7" y="118.574484"/>
     <use style="stroke:#000000;" x="352.918182" xlink:href="#m87b25e55c7" y="113.532439"/>
     <use style="stroke:#000000;" x="392.548864" xlink:href="#m87b25e55c7" y="118.793043"/>
     <use style="stroke:#000000;" x="432.179545" xlink:href="#m87b25e55c7" y="48.39431"/>
     <use style="stroke:#000000;" x="471.810227" xlink:href="#m87b25e55c7" y="92.912977"/>
     <use style="stroke:#000000;" x="511.440909" xlink:href="#m87b25e55c7" y="131.791611"/>
     <use style="stroke:#000000;" x="551.071591" xlink:href="#m87b25e55c7" y="125.272334"/>
    </g>
   </g>
   <g id="line2d_22">
    <g clip-path="url(#p496a1e9b0c)">
     <use style="stroke:#000000;" x="75.503409" xlink:href="#m87b25e55c7" y="77.482743"/>
     <use style="stroke:#000000;" x="115.134091" xlink:href="#m87b25e55c7" y="240.178874"/>
     <use style="stroke:#000000;" x="154.764773" xlink:href="#m87b25e55c7" y="164.351623"/>
     <use style="stroke:#000000;" x="194.395455" xlink:href="#m87b25e55c7" y="250.46078"/>
     <use style="stroke:#000000;" x="234.026136" xlink:href="#m87b25e55c7" y="95.830494"/>
     <use style="stroke:#000000;" x="273.656818" xlink:href="#m87b25e55c7" y="22.025455"/>
     <use style="stroke:#000000;" x="313.2875" xlink:href="#m87b25e55c7" y="196.407698"/>
     <use style="stroke:#000000;" x="352.918182" xlink:href="#m87b25e55c7" y="148.904051"/>
     <use style="stroke:#000000;" x="392.548864" xlink:href="#m87b25e55c7" y="159.153449"/>
     <use style="stroke:#000000;" x="432.179545" xlink:href="#m87b25e55c7" y="204.521099"/>
     <use style="stroke:#000000;" x="471.810227" xlink:href="#m87b25e55c7" y="318.534545"/>
     <use style="stroke:#000000;" x="511.440909" xlink:href="#m87b25e55c7" y="40.207943"/>
     <use style="stroke:#000000;" x="551.071591" xlink:href="#m87b25e55c7" y="80.197392"/>
    </g>
   </g>
   <g id="patch_16">
    <path d="M 34.2875 333.36 
L 34.2875 7.2 
" style="fill:none;stroke:#000000;stroke-linecap:square;stroke-linejoin:miter;stroke-width:2;"/>
   </g>
   <g id="patch_17">
    <path d="M 592.2875 333.36 
L 592.2875 7.2 
" style="fill:none;stroke:#000000;stroke-linecap:square;stroke-linejoin:miter;stroke-width:2;"/>
   </g>
   <g id="patch_18">
    <path d="M 34.2875 333.36 
L 592.2875 333.36 
" style="fill:none;stroke:#000000;stroke-linecap:square;stroke-linejoin:miter;stroke-width:2;"/>
   </g>
   <g id="patch_19">
    <path d="M 34.2875 7.2 
L 592.2875 7.2 
" style="fill:none;stroke:#000000;stroke-linecap:square;stroke-linejoin:miter;stroke-width:2;"/>
   </g>
  </g>
 </g>
 <defs>
  <clipPath id="p496a1e9b0c">
   <rect height="326.16" width="558" x="34.2875" y="7.2"/>
  </clipPath>
 </defs>
</svg>
