<?xml version="1.0" encoding="utf-8" standalone="no"?>
<!DOCTYPE svg PUBLIC "-//W3C//DTD SVG 1.1//EN"
  "http://www.w3.org/Graphics/SVG/1.1/DTD/svg11.dtd">
<!-- Created with matplotlib (https://matplotlib.org/) -->
<svg height="290.899pt" version="1.1" viewBox="0 0 416.989548 290.899" width="416.989548pt" xmlns="http://www.w3.org/2000/svg" xmlns:xlink="http://www.w3.org/1999/xlink">
 <defs>
  <style type="text/css">
*{stroke-linecap:butt;stroke-linejoin:round;}
  </style>
 </defs>
 <g id="figure_1">
  <g id="patch_1">
   <path d="M 0 290.899 
L 416.989548 290.899 
L 416.989548 0 
L 0 0 
z
" style="fill:#ffffff;"/>
  </g>
  <g id="axes_1">
   <g id="patch_2">
    <path d="M 71.689 245.229 
L 406.489 245.229 
L 406.489 27.789 
L 71.689 27.789 
z
" style="fill:#ffffff;"/>
   </g>
   <g id="PolyCollection_1">
    <defs>
     <path d="M 86.907182 -140.485636 
L 86.907182 -180.179743 
L 88.991864 -178.262443 
L 91.076547 -169.81351 
L 93.161229 -176.817784 
L 95.245912 -176.62592 
L 97.330594 -173.151669 
L 99.415276 -162.991974 
L 101.499959 -159.567338 
L 103.584641 -162.918841 
L 105.669324 -172.356088 
L 107.754006 -173.87809 
L 109.838689 -167.287605 
L 111.923371 -165.894821 
L 114.008054 -177.662843 
L 116.092736 -168.135191 
L 118.177418 -188.459169 
L 120.262101 -179.483029 
L 122.346783 -185.847277 
L 124.431466 -183.896923 
L 126.516148 -177.52207 
L 128.600831 -183.410259 
L 130.685513 -173.270924 
L 132.770196 -171.438944 
L 134.854878 -171.938957 
L 136.93956 -157.906467 
L 139.024243 -152.651598 
L 141.108925 -148.661087 
L 143.193608 -150.346116 
L 145.27829 -145.926799 
L 147.362973 -138.361485 
L 149.447655 -132.766117 
L 151.532337 -127.589944 
L 153.61702 -126.382043 
L 155.701702 -123.106456 
L 157.786385 -110.678735 
L 159.871067 -108.997807 
L 161.95575 -109.685108 
L 164.040432 -99.738097 
L 166.125115 -92.592447 
L 168.209797 -90.427007 
L 170.294479 -97.329557 
L 172.379162 -90.184831 
L 174.463844 -86.347055 
L 176.548527 -82.510423 
L 178.633209 -85.253367 
L 180.717892 -81.792953 
L 182.802574 -81.805114 
L 184.887257 -73.662641 
L 186.971939 -83.166033 
L 189.056621 -80.512665 
L 191.141304 -90.208612 
L 193.225986 -88.79359 
L 195.310669 -91.190798 
L 197.395351 -91.144102 
L 199.480034 -95.199399 
L 201.564716 -105.648026 
L 203.649399 -119.002658 
L 205.734081 -113.401454 
L 207.818763 -110.498031 
L 209.903446 -107.31046 
L 211.988128 -123.933429 
L 214.072811 -119.070819 
L 216.157493 -117.839591 
L 218.242176 -124.677594 
L 220.326858 -133.402196 
L 222.41154 -125.298494 
L 224.496223 -137.297309 
L 226.580905 -140.226091 
L 228.665588 -147.591294 
L 230.75027 -148.133184 
L 232.834953 -153.156439 
L 234.919635 -158.487292 
L 237.004318 -170.308682 
L 239.089 -180.218187 
L 241.173682 -196.312582 
L 243.258365 -193.233655 
L 245.343047 -190.47791 
L 247.42773 -203.943491 
L 249.512412 -225.336088 
L 251.597095 -228.04484 
L 253.681777 -242.24913 
L 255.76646 -237.733477 
L 257.851142 -241.402029 
L 259.935824 -247.409711 
L 262.020507 -246.535602 
L 264.105189 -239.49136 
L 266.189872 -252.848413 
L 268.274554 -243.298137 
L 270.359237 -240.847636 
L 272.443919 -238.138001 
L 274.528601 -232.266045 
L 276.613284 -234.960319 
L 278.697966 -236.724692 
L 280.782649 -229.084077 
L 282.867331 -214.628376 
L 284.952014 -217.393935 
L 287.036696 -213.669312 
L 289.121379 -221.877776 
L 291.206061 -211.020185 
L 293.290743 -204.980441 
L 295.375426 -217.463973 
L 297.460108 -211.17926 
L 299.544791 -217.087907 
L 301.629473 -219.69681 
L 303.714156 -213.561268 
L 305.798838 -210.782108 
L 307.883521 -233.962532 
L 309.968203 -231.353271 
L 312.052885 -248.788148 
L 314.137568 -238.407277 
L 316.22225 -240.018822 
L 318.306933 -249.829265 
L 320.391615 -259.022422 
L 322.476298 -250.672481 
L 324.56098 -251.149374 
L 326.645663 -245.202023 
L 328.730345 -246.779398 
L 330.815027 -257.653502 
L 332.89971 -250.16322 
L 334.984392 -245.005881 
L 337.069075 -243.598414 
L 339.153757 -235.591555 
L 341.23844 -231.717778 
L 343.323122 -227.982512 
L 345.407804 -211.742138 
L 347.492487 -206.480756 
L 349.577169 -209.908804 
L 351.661852 -206.293798 
L 353.746534 -200.377298 
L 355.831217 -181.53418 
L 357.915899 -182.90956 
L 360.000582 -180.212588 
L 362.085264 -176.444177 
L 364.169946 -170.741579 
L 366.254629 -169.394104 
L 368.339311 -153.018019 
L 370.423994 -167.076403 
L 372.508676 -166.199043 
L 374.593359 -167.364427 
L 376.678041 -161.29919 
L 378.762724 -167.624683 
L 380.847406 -167.026959 
L 382.932088 -171.562917 
L 385.016771 -162.164135 
L 387.101453 -160.799779 
L 389.186136 -173.885601 
L 391.270818 -180.179743 
L 391.270818 -140.485636 
L 391.270818 -140.485636 
L 389.186136 -143.40189 
L 387.101453 -129.053233 
L 385.016771 -130.743796 
L 382.932088 -128.16838 
L 380.847406 -119.893765 
L 378.762724 -134.787826 
L 376.678041 -120.233652 
L 374.593359 -124.349602 
L 372.508676 -115.802536 
L 370.423994 -115.919873 
L 368.339311 -113.793096 
L 366.254629 -138.052787 
L 364.169946 -137.111515 
L 362.085264 -148.52175 
L 360.000582 -151.250314 
L 357.915899 -150.99024 
L 355.831217 -149.38837 
L 353.746534 -162.332411 
L 351.661852 -160.762583 
L 349.577169 -161.123328 
L 347.492487 -156.510596 
L 345.407804 -161.225612 
L 343.323122 -171.689941 
L 341.23844 -174.254797 
L 339.153757 -172.851593 
L 337.069075 -185.596696 
L 334.984392 -189.304261 
L 332.89971 -186.562875 
L 330.815027 -199.577395 
L 328.730345 -201.343412 
L 326.645663 -206.735615 
L 324.56098 -210.325601 
L 322.476298 -208.372651 
L 320.391615 -214.325177 
L 318.306933 -201.260658 
L 316.22225 -199.179846 
L 314.137568 -199.076352 
L 312.052885 -204.592079 
L 309.968203 -189.233249 
L 307.883521 -201.706999 
L 305.798838 -187.997793 
L 303.714156 -195.522636 
L 301.629473 -198.252824 
L 299.544791 -197.444387 
L 297.460108 -193.798859 
L 295.375426 -199.448561 
L 293.290743 -185.681349 
L 291.206061 -195.443448 
L 289.121379 -201.347647 
L 287.036696 -192.175229 
L 284.952014 -202.596842 
L 282.867331 -202.400312 
L 280.782649 -212.505757 
L 278.697966 -219.503388 
L 276.613284 -213.811361 
L 274.528601 -211.701122 
L 272.443919 -213.809872 
L 270.359237 -215.150231 
L 268.274554 -213.500297 
L 266.189872 -214.38913 
L 264.105189 -201.410835 
L 262.020507 -210.174461 
L 259.935824 -208.9872 
L 257.851142 -203.593011 
L 255.76646 -200.364186 
L 253.681777 -194.121344 
L 251.597095 -181.255934 
L 249.512412 -178.677942 
L 247.42773 -158.89524 
L 245.343047 -150.852464 
L 243.258365 -151.746431 
L 241.173682 -139.789716 
L 239.089 -126.613939 
L 237.004318 -112.173312 
L 234.919635 -106.401652 
L 232.834953 -110.741842 
L 230.75027 -103.481556 
L 228.665588 -101.53517 
L 226.580905 -93.939815 
L 224.496223 -91.303131 
L 222.41154 -86.95372 
L 220.326858 -92.649537 
L 218.242176 -86.367894 
L 216.157493 -82.398969 
L 214.072811 -82.022922 
L 211.988128 -86.753506 
L 209.903446 -76.317858 
L 207.818763 -79.179254 
L 205.734081 -76.169235 
L 203.649399 -89.903515 
L 201.564716 -85.561653 
L 199.480034 -79.929599 
L 197.395351 -75.344746 
L 195.310669 -77.814002 
L 193.225986 -67.390757 
L 191.141304 -49.811569 
L 189.056621 -40.340085 
L 186.971939 -37.037416 
L 184.887257 -32.168869 
L 182.802574 -42.133888 
L 180.717892 -37.271562 
L 178.633209 -40.790026 
L 176.548527 -35.46293 
L 174.463844 -40.695496 
L 172.379162 -39.021881 
L 170.294479 -49.54371 
L 168.209797 -51.887982 
L 166.125115 -53.700783 
L 164.040432 -59.581675 
L 161.95575 -65.348879 
L 159.871067 -63.272637 
L 157.786385 -66.028182 
L 155.701702 -69.328676 
L 153.61702 -69.178413 
L 151.532337 -76.366637 
L 149.447655 -87.10132 
L 147.362973 -92.061423 
L 145.27829 -100.351192 
L 143.193608 -109.234289 
L 141.108925 -110.598767 
L 139.024243 -104.372248 
L 136.93956 -112.465634 
L 134.854878 -120.646591 
L 132.770196 -123.467935 
L 130.685513 -131.815747 
L 128.600831 -141.380901 
L 126.516148 -131.998696 
L 124.431466 -145.982957 
L 122.346783 -152.036638 
L 120.262101 -145.609226 
L 118.177418 -152.296789 
L 116.092736 -137.928016 
L 114.008054 -148.725087 
L 111.923371 -141.234463 
L 109.838689 -140.847909 
L 107.754006 -143.448089 
L 105.669324 -139.482898 
L 103.584641 -131.353689 
L 101.499959 -127.321002 
L 99.415276 -137.13516 
L 97.330594 -147.006766 
L 95.245912 -144.153658 
L 93.161229 -149.476464 
L 91.076547 -143.046582 
L 88.991864 -143.91951 
L 86.907182 -140.485636 
z
" id="ma4d9adff59" style="stroke:#1e90ff;stroke-opacity:0.2;"/>
    </defs>
    <g clip-path="url(#p939a56c0ab)">
     <use style="fill:#1e90ff;fill-opacity:0.2;stroke:#1e90ff;stroke-opacity:0.2;" x="0" xlink:href="#ma4d9adff59" y="290.899"/>
    </g>
   </g>
   <g id="matplotlib.axis_1">
    <g id="xtick_1">
     <g id="line2d_1">
      <defs>
       <path d="M 0 0 
L 0 -6 
" id="md74f12a227" style="stroke:#000000;stroke-width:2;"/>
      </defs>
      <g>
       <use style="stroke:#000000;stroke-width:2;" x="86.907182" xlink:href="#md74f12a227" y="245.229"/>
      </g>
     </g>
     <g id="text_1">
      <!-- -75 -->
      <defs>
       <path d="M 4.890625 31.390625 
L 31.203125 31.390625 
L 31.203125 23.390625 
L 4.890625 23.390625 
z
" id="DejaVuSans-45"/>
       <path d="M 8.203125 72.90625 
L 55.078125 72.90625 
L 55.078125 68.703125 
L 28.609375 0 
L 18.3125 0 
L 43.21875 64.59375 
L 8.203125 64.59375 
z
" id="DejaVuSans-55"/>
       <path d="M 10.796875 72.90625 
L 49.515625 72.90625 
L 49.515625 64.59375 
L 19.828125 64.59375 
L 19.828125 46.734375 
Q 21.96875 47.46875 24.109375 47.828125 
Q 26.265625 48.1875 28.421875 48.1875 
Q 40.625 48.1875 47.75 41.5 
Q 54.890625 34.8125 54.890625 23.390625 
Q 54.890625 11.625 47.5625 5.09375 
Q 40.234375 -1.421875 26.90625 -1.421875 
Q 22.3125 -1.421875 17.546875 -0.640625 
Q 12.796875 0.140625 7.71875 1.703125 
L 7.71875 11.625 
Q 12.109375 9.234375 16.796875 8.0625 
Q 21.484375 6.890625 26.703125 6.890625 
Q 35.15625 6.890625 40.078125 11.328125 
Q 45.015625 15.765625 45.015625 23.390625 
Q 45.015625 31 40.078125 35.4375 
Q 35.15625 39.890625 26.703125 39.890625 
Q 22.75 39.890625 18.8125 39.015625 
Q 14.890625 38.140625 10.796875 36.28125 
z
" id="DejaVuSans-53"/>
      </defs>
      <g transform="translate(73.840932 260.8865)scale(0.16 -0.16)">
       <use xlink:href="#DejaVuSans-45"/>
       <use x="36.083984" xlink:href="#DejaVuSans-55"/>
       <use x="99.707031" xlink:href="#DejaVuSans-53"/>
      </g>
     </g>
    </g>
    <g id="xtick_2">
     <g id="line2d_2">
      <g>
       <use style="stroke:#000000;stroke-width:2;" x="139.024243" xlink:href="#md74f12a227" y="245.229"/>
      </g>
     </g>
     <g id="text_2">
      <!-- -50 -->
      <defs>
       <path d="M 31.78125 66.40625 
Q 24.171875 66.40625 20.328125 58.90625 
Q 16.5 51.421875 16.5 36.375 
Q 16.5 21.390625 20.328125 13.890625 
Q 24.171875 6.390625 31.78125 6.390625 
Q 39.453125 6.390625 43.28125 13.890625 
Q 47.125 21.390625 47.125 36.375 
Q 47.125 51.421875 43.28125 58.90625 
Q 39.453125 66.40625 31.78125 66.40625 
z
M 31.78125 74.21875 
Q 44.046875 74.21875 50.515625 64.515625 
Q 56.984375 54.828125 56.984375 36.375 
Q 56.984375 17.96875 50.515625 8.265625 
Q 44.046875 -1.421875 31.78125 -1.421875 
Q 19.53125 -1.421875 13.0625 8.265625 
Q 6.59375 17.96875 6.59375 36.375 
Q 6.59375 54.828125 13.0625 64.515625 
Q 19.53125 74.21875 31.78125 74.21875 
z
" id="DejaVuSans-48"/>
      </defs>
      <g transform="translate(125.957993 260.8865)scale(0.16 -0.16)">
       <use xlink:href="#DejaVuSans-45"/>
       <use x="36.083984" xlink:href="#DejaVuSans-53"/>
       <use x="99.707031" xlink:href="#DejaVuSans-48"/>
      </g>
     </g>
    </g>
    <g id="xtick_3">
     <g id="line2d_3">
      <g>
       <use style="stroke:#000000;stroke-width:2;" x="191.141304" xlink:href="#md74f12a227" y="245.229"/>
      </g>
     </g>
     <g id="text_3">
      <!-- -25 -->
      <defs>
       <path d="M 19.1875 8.296875 
L 53.609375 8.296875 
L 53.609375 0 
L 7.328125 0 
L 7.328125 8.296875 
Q 12.9375 14.109375 22.625 23.890625 
Q 32.328125 33.6875 34.8125 36.53125 
Q 39.546875 41.84375 41.421875 45.53125 
Q 43.3125 49.21875 43.3125 52.78125 
Q 43.3125 58.59375 39.234375 62.25 
Q 35.15625 65.921875 28.609375 65.921875 
Q 23.96875 65.921875 18.8125 64.3125 
Q 13.671875 62.703125 7.8125 59.421875 
L 7.8125 69.390625 
Q 13.765625 71.78125 18.9375 73 
Q 24.125 74.21875 28.421875 74.21875 
Q 39.75 74.21875 46.484375 68.546875 
Q 53.21875 62.890625 53.21875 53.421875 
Q 53.21875 48.921875 51.53125 44.890625 
Q 49.859375 40.875 45.40625 35.40625 
Q 44.1875 33.984375 37.640625 27.21875 
Q 31.109375 20.453125 19.1875 8.296875 
z
" id="DejaVuSans-50"/>
      </defs>
      <g transform="translate(178.075054 260.8865)scale(0.16 -0.16)">
       <use xlink:href="#DejaVuSans-45"/>
       <use x="36.083984" xlink:href="#DejaVuSans-50"/>
       <use x="99.707031" xlink:href="#DejaVuSans-53"/>
      </g>
     </g>
    </g>
    <g id="xtick_4">
     <g id="line2d_4">
      <g>
       <use style="stroke:#000000;stroke-width:2;" x="243.258365" xlink:href="#md74f12a227" y="245.229"/>
      </g>
     </g>
     <g id="text_4">
      <!-- 0 -->
      <g transform="translate(238.168365 260.8865)scale(0.16 -0.16)">
       <use xlink:href="#DejaVuSans-48"/>
      </g>
     </g>
    </g>
    <g id="xtick_5">
     <g id="line2d_5">
      <g>
       <use style="stroke:#000000;stroke-width:2;" x="295.375426" xlink:href="#md74f12a227" y="245.229"/>
      </g>
     </g>
     <g id="text_5">
      <!-- 25 -->
      <g transform="translate(285.195426 260.8865)scale(0.16 -0.16)">
       <use xlink:href="#DejaVuSans-50"/>
       <use x="63.623047" xlink:href="#DejaVuSans-53"/>
      </g>
     </g>
    </g>
    <g id="xtick_6">
     <g id="line2d_6">
      <g>
       <use style="stroke:#000000;stroke-width:2;" x="347.492487" xlink:href="#md74f12a227" y="245.229"/>
      </g>
     </g>
     <g id="text_6">
      <!-- 50 -->
      <g transform="translate(337.312487 260.8865)scale(0.16 -0.16)">
       <use xlink:href="#DejaVuSans-53"/>
       <use x="63.623047" xlink:href="#DejaVuSans-48"/>
      </g>
     </g>
    </g>
    <g id="xtick_7">
     <g id="line2d_7">
      <g>
       <use style="stroke:#000000;stroke-width:2;" x="399.609548" xlink:href="#md74f12a227" y="245.229"/>
      </g>
     </g>
     <g id="text_7">
      <!-- 75 -->
      <g transform="translate(389.429548 260.8865)scale(0.16 -0.16)">
       <use xlink:href="#DejaVuSans-55"/>
       <use x="63.623047" xlink:href="#DejaVuSans-53"/>
      </g>
     </g>
    </g>
    <g id="text_8">
     <!-- Relative Orientation of Previous Trial -->
     <defs>
      <path d="M 44.390625 34.1875 
Q 47.5625 33.109375 50.5625 29.59375 
Q 53.5625 26.078125 56.59375 19.921875 
L 66.609375 0 
L 56 0 
L 46.6875 18.703125 
Q 43.0625 26.03125 39.671875 28.421875 
Q 36.28125 30.8125 30.421875 30.8125 
L 19.671875 30.8125 
L 19.671875 0 
L 9.8125 0 
L 9.8125 72.90625 
L 32.078125 72.90625 
Q 44.578125 72.90625 50.734375 67.671875 
Q 56.890625 62.453125 56.890625 51.90625 
Q 56.890625 45.015625 53.6875 40.46875 
Q 50.484375 35.9375 44.390625 34.1875 
z
M 19.671875 64.796875 
L 19.671875 38.921875 
L 32.078125 38.921875 
Q 39.203125 38.921875 42.84375 42.21875 
Q 46.484375 45.515625 46.484375 51.90625 
Q 46.484375 58.296875 42.84375 61.546875 
Q 39.203125 64.796875 32.078125 64.796875 
z
" id="DejaVuSans-82"/>
      <path d="M 56.203125 29.59375 
L 56.203125 25.203125 
L 14.890625 25.203125 
Q 15.484375 15.921875 20.484375 11.0625 
Q 25.484375 6.203125 34.421875 6.203125 
Q 39.59375 6.203125 44.453125 7.46875 
Q 49.3125 8.734375 54.109375 11.28125 
L 54.109375 2.78125 
Q 49.265625 0.734375 44.1875 -0.34375 
Q 39.109375 -1.421875 33.890625 -1.421875 
Q 20.796875 -1.421875 13.15625 6.1875 
Q 5.515625 13.8125 5.515625 26.8125 
Q 5.515625 40.234375 12.765625 48.109375 
Q 20.015625 56 32.328125 56 
Q 43.359375 56 49.78125 48.890625 
Q 56.203125 41.796875 56.203125 29.59375 
z
M 47.21875 32.234375 
Q 47.125 39.59375 43.09375 43.984375 
Q 39.0625 48.390625 32.421875 48.390625 
Q 24.90625 48.390625 20.390625 44.140625 
Q 15.875 39.890625 15.1875 32.171875 
z
" id="DejaVuSans-101"/>
      <path d="M 9.421875 75.984375 
L 18.40625 75.984375 
L 18.40625 0 
L 9.421875 0 
z
" id="DejaVuSans-108"/>
      <path d="M 34.28125 27.484375 
Q 23.390625 27.484375 19.1875 25 
Q 14.984375 22.515625 14.984375 16.5 
Q 14.984375 11.71875 18.140625 8.90625 
Q 21.296875 6.109375 26.703125 6.109375 
Q 34.1875 6.109375 38.703125 11.40625 
Q 43.21875 16.703125 43.21875 25.484375 
L 43.21875 27.484375 
z
M 52.203125 31.203125 
L 52.203125 0 
L 43.21875 0 
L 43.21875 8.296875 
Q 40.140625 3.328125 35.546875 0.953125 
Q 30.953125 -1.421875 24.3125 -1.421875 
Q 15.921875 -1.421875 10.953125 3.296875 
Q 6 8.015625 6 15.921875 
Q 6 25.140625 12.171875 29.828125 
Q 18.359375 34.515625 30.609375 34.515625 
L 43.21875 34.515625 
L 43.21875 35.40625 
Q 43.21875 41.609375 39.140625 45 
Q 35.0625 48.390625 27.6875 48.390625 
Q 23 48.390625 18.546875 47.265625 
Q 14.109375 46.140625 10.015625 43.890625 
L 10.015625 52.203125 
Q 14.9375 54.109375 19.578125 55.046875 
Q 24.21875 56 28.609375 56 
Q 40.484375 56 46.34375 49.84375 
Q 52.203125 43.703125 52.203125 31.203125 
z
" id="DejaVuSans-97"/>
      <path d="M 18.3125 70.21875 
L 18.3125 54.6875 
L 36.8125 54.6875 
L 36.8125 47.703125 
L 18.3125 47.703125 
L 18.3125 18.015625 
Q 18.3125 11.328125 20.140625 9.421875 
Q 21.96875 7.515625 27.59375 7.515625 
L 36.8125 7.515625 
L 36.8125 0 
L 27.59375 0 
Q 17.1875 0 13.234375 3.875 
Q 9.28125 7.765625 9.28125 18.015625 
L 9.28125 47.703125 
L 2.6875 47.703125 
L 2.6875 54.6875 
L 9.28125 54.6875 
L 9.28125 70.21875 
z
" id="DejaVuSans-116"/>
      <path d="M 9.421875 54.6875 
L 18.40625 54.6875 
L 18.40625 0 
L 9.421875 0 
z
M 9.421875 75.984375 
L 18.40625 75.984375 
L 18.40625 64.59375 
L 9.421875 64.59375 
z
" id="DejaVuSans-105"/>
      <path d="M 2.984375 54.6875 
L 12.5 54.6875 
L 29.59375 8.796875 
L 46.6875 54.6875 
L 56.203125 54.6875 
L 35.6875 0 
L 23.484375 0 
z
" id="DejaVuSans-118"/>
      <path id="DejaVuSans-32"/>
      <path d="M 39.40625 66.21875 
Q 28.65625 66.21875 22.328125 58.203125 
Q 16.015625 50.203125 16.015625 36.375 
Q 16.015625 22.609375 22.328125 14.59375 
Q 28.65625 6.59375 39.40625 6.59375 
Q 50.140625 6.59375 56.421875 14.59375 
Q 62.703125 22.609375 62.703125 36.375 
Q 62.703125 50.203125 56.421875 58.203125 
Q 50.140625 66.21875 39.40625 66.21875 
z
M 39.40625 74.21875 
Q 54.734375 74.21875 63.90625 63.9375 
Q 73.09375 53.65625 73.09375 36.375 
Q 73.09375 19.140625 63.90625 8.859375 
Q 54.734375 -1.421875 39.40625 -1.421875 
Q 24.03125 -1.421875 14.8125 8.828125 
Q 5.609375 19.09375 5.609375 36.375 
Q 5.609375 53.65625 14.8125 63.9375 
Q 24.03125 74.21875 39.40625 74.21875 
z
" id="DejaVuSans-79"/>
      <path d="M 41.109375 46.296875 
Q 39.59375 47.171875 37.8125 47.578125 
Q 36.03125 48 33.890625 48 
Q 26.265625 48 22.1875 43.046875 
Q 18.109375 38.09375 18.109375 28.8125 
L 18.109375 0 
L 9.078125 0 
L 9.078125 54.6875 
L 18.109375 54.6875 
L 18.109375 46.1875 
Q 20.953125 51.171875 25.484375 53.578125 
Q 30.03125 56 36.53125 56 
Q 37.453125 56 38.578125 55.875 
Q 39.703125 55.765625 41.0625 55.515625 
z
" id="DejaVuSans-114"/>
      <path d="M 54.890625 33.015625 
L 54.890625 0 
L 45.90625 0 
L 45.90625 32.71875 
Q 45.90625 40.484375 42.875 44.328125 
Q 39.84375 48.1875 33.796875 48.1875 
Q 26.515625 48.1875 22.3125 43.546875 
Q 18.109375 38.921875 18.109375 30.90625 
L 18.109375 0 
L 9.078125 0 
L 9.078125 54.6875 
L 18.109375 54.6875 
L 18.109375 46.1875 
Q 21.34375 51.125 25.703125 53.5625 
Q 30.078125 56 35.796875 56 
Q 45.21875 56 50.046875 50.171875 
Q 54.890625 44.34375 54.890625 33.015625 
z
" id="DejaVuSans-110"/>
      <path d="M 30.609375 48.390625 
Q 23.390625 48.390625 19.1875 42.75 
Q 14.984375 37.109375 14.984375 27.296875 
Q 14.984375 17.484375 19.15625 11.84375 
Q 23.34375 6.203125 30.609375 6.203125 
Q 37.796875 6.203125 41.984375 11.859375 
Q 46.1875 17.53125 46.1875 27.296875 
Q 46.1875 37.015625 41.984375 42.703125 
Q 37.796875 48.390625 30.609375 48.390625 
z
M 30.609375 56 
Q 42.328125 56 49.015625 48.375 
Q 55.71875 40.765625 55.71875 27.296875 
Q 55.71875 13.875 49.015625 6.21875 
Q 42.328125 -1.421875 30.609375 -1.421875 
Q 18.84375 -1.421875 12.171875 6.21875 
Q 5.515625 13.875 5.515625 27.296875 
Q 5.515625 40.765625 12.171875 48.375 
Q 18.84375 56 30.609375 56 
z
" id="DejaVuSans-111"/>
      <path d="M 37.109375 75.984375 
L 37.109375 68.5 
L 28.515625 68.5 
Q 23.6875 68.5 21.796875 66.546875 
Q 19.921875 64.59375 19.921875 59.515625 
L 19.921875 54.6875 
L 34.71875 54.6875 
L 34.71875 47.703125 
L 19.921875 47.703125 
L 19.921875 0 
L 10.890625 0 
L 10.890625 47.703125 
L 2.296875 47.703125 
L 2.296875 54.6875 
L 10.890625 54.6875 
L 10.890625 58.5 
Q 10.890625 67.625 15.140625 71.796875 
Q 19.390625 75.984375 28.609375 75.984375 
z
" id="DejaVuSans-102"/>
      <path d="M 19.671875 64.796875 
L 19.671875 37.40625 
L 32.078125 37.40625 
Q 38.96875 37.40625 42.71875 40.96875 
Q 46.484375 44.53125 46.484375 51.125 
Q 46.484375 57.671875 42.71875 61.234375 
Q 38.96875 64.796875 32.078125 64.796875 
z
M 9.8125 72.90625 
L 32.078125 72.90625 
Q 44.34375 72.90625 50.609375 67.359375 
Q 56.890625 61.8125 56.890625 51.125 
Q 56.890625 40.328125 50.609375 34.8125 
Q 44.34375 29.296875 32.078125 29.296875 
L 19.671875 29.296875 
L 19.671875 0 
L 9.8125 0 
z
" id="DejaVuSans-80"/>
      <path d="M 8.5 21.578125 
L 8.5 54.6875 
L 17.484375 54.6875 
L 17.484375 21.921875 
Q 17.484375 14.15625 20.5 10.265625 
Q 23.53125 6.390625 29.59375 6.390625 
Q 36.859375 6.390625 41.078125 11.03125 
Q 45.3125 15.671875 45.3125 23.6875 
L 45.3125 54.6875 
L 54.296875 54.6875 
L 54.296875 0 
L 45.3125 0 
L 45.3125 8.40625 
Q 42.046875 3.421875 37.71875 1 
Q 33.40625 -1.421875 27.6875 -1.421875 
Q 18.265625 -1.421875 13.375 4.4375 
Q 8.5 10.296875 8.5 21.578125 
z
M 31.109375 56 
z
" id="DejaVuSans-117"/>
      <path d="M 44.28125 53.078125 
L 44.28125 44.578125 
Q 40.484375 46.53125 36.375 47.5 
Q 32.28125 48.484375 27.875 48.484375 
Q 21.1875 48.484375 17.84375 46.4375 
Q 14.5 44.390625 14.5 40.28125 
Q 14.5 37.15625 16.890625 35.375 
Q 19.28125 33.59375 26.515625 31.984375 
L 29.59375 31.296875 
Q 39.15625 29.25 43.1875 25.515625 
Q 47.21875 21.78125 47.21875 15.09375 
Q 47.21875 7.46875 41.1875 3.015625 
Q 35.15625 -1.421875 24.609375 -1.421875 
Q 20.21875 -1.421875 15.453125 -0.5625 
Q 10.6875 0.296875 5.421875 2 
L 5.421875 11.28125 
Q 10.40625 8.6875 15.234375 7.390625 
Q 20.0625 6.109375 24.8125 6.109375 
Q 31.15625 6.109375 34.5625 8.28125 
Q 37.984375 10.453125 37.984375 14.40625 
Q 37.984375 18.0625 35.515625 20.015625 
Q 33.0625 21.96875 24.703125 23.78125 
L 21.578125 24.515625 
Q 13.234375 26.265625 9.515625 29.90625 
Q 5.8125 33.546875 5.8125 39.890625 
Q 5.8125 47.609375 11.28125 51.796875 
Q 16.75 56 26.8125 56 
Q 31.78125 56 36.171875 55.265625 
Q 40.578125 54.546875 44.28125 53.078125 
z
" id="DejaVuSans-115"/>
      <path d="M -0.296875 72.90625 
L 61.375 72.90625 
L 61.375 64.59375 
L 35.5 64.59375 
L 35.5 0 
L 25.59375 0 
L 25.59375 64.59375 
L -0.296875 64.59375 
z
" id="DejaVuSans-84"/>
     </defs>
     <g transform="translate(91.80025 280.3715)scale(0.16 -0.16)">
      <use xlink:href="#DejaVuSans-82"/>
      <use x="69.419922" xlink:href="#DejaVuSans-101"/>
      <use x="130.943359" xlink:href="#DejaVuSans-108"/>
      <use x="158.726562" xlink:href="#DejaVuSans-97"/>
      <use x="220.005859" xlink:href="#DejaVuSans-116"/>
      <use x="259.214844" xlink:href="#DejaVuSans-105"/>
      <use x="286.998047" xlink:href="#DejaVuSans-118"/>
      <use x="346.177734" xlink:href="#DejaVuSans-101"/>
      <use x="407.701172" xlink:href="#DejaVuSans-32"/>
      <use x="439.488281" xlink:href="#DejaVuSans-79"/>
      <use x="518.199219" xlink:href="#DejaVuSans-114"/>
      <use x="559.3125" xlink:href="#DejaVuSans-105"/>
      <use x="587.095703" xlink:href="#DejaVuSans-101"/>
      <use x="648.619141" xlink:href="#DejaVuSans-110"/>
      <use x="711.998047" xlink:href="#DejaVuSans-116"/>
      <use x="751.207031" xlink:href="#DejaVuSans-97"/>
      <use x="812.486328" xlink:href="#DejaVuSans-116"/>
      <use x="851.695312" xlink:href="#DejaVuSans-105"/>
      <use x="879.478516" xlink:href="#DejaVuSans-111"/>
      <use x="940.660156" xlink:href="#DejaVuSans-110"/>
      <use x="1004.039062" xlink:href="#DejaVuSans-32"/>
      <use x="1035.826172" xlink:href="#DejaVuSans-111"/>
      <use x="1097.007812" xlink:href="#DejaVuSans-102"/>
      <use x="1132.212891" xlink:href="#DejaVuSans-32"/>
      <use x="1164" xlink:href="#DejaVuSans-80"/>
      <use x="1224.287109" xlink:href="#DejaVuSans-114"/>
      <use x="1265.369141" xlink:href="#DejaVuSans-101"/>
      <use x="1326.892578" xlink:href="#DejaVuSans-118"/>
      <use x="1386.072266" xlink:href="#DejaVuSans-105"/>
      <use x="1413.855469" xlink:href="#DejaVuSans-111"/>
      <use x="1475.037109" xlink:href="#DejaVuSans-117"/>
      <use x="1538.416016" xlink:href="#DejaVuSans-115"/>
      <use x="1590.515625" xlink:href="#DejaVuSans-32"/>
      <use x="1622.302734" xlink:href="#DejaVuSans-84"/>
      <use x="1683.167969" xlink:href="#DejaVuSans-114"/>
      <use x="1724.28125" xlink:href="#DejaVuSans-105"/>
      <use x="1752.064453" xlink:href="#DejaVuSans-97"/>
      <use x="1813.34375" xlink:href="#DejaVuSans-108"/>
     </g>
    </g>
   </g>
   <g id="matplotlib.axis_2">
    <g id="ytick_1">
     <g id="line2d_8">
      <defs>
       <path d="M 0 0 
L 6 0 
" id="mca6d94a6d4" style="stroke:#000000;stroke-width:2;"/>
      </defs>
      <g>
       <use style="stroke:#000000;stroke-width:2;" x="71.689" xlink:href="#mca6d94a6d4" y="245.229"/>
      </g>
     </g>
     <g id="text_9">
      <!-- −3 -->
      <defs>
       <path d="M 10.59375 35.5 
L 73.1875 35.5 
L 73.1875 27.203125 
L 10.59375 27.203125 
z
" id="DejaVuSans-8722"/>
       <path d="M 40.578125 39.3125 
Q 47.65625 37.796875 51.625 33 
Q 55.609375 28.21875 55.609375 21.1875 
Q 55.609375 10.40625 48.1875 4.484375 
Q 40.765625 -1.421875 27.09375 -1.421875 
Q 22.515625 -1.421875 17.65625 -0.515625 
Q 12.796875 0.390625 7.625 2.203125 
L 7.625 11.71875 
Q 11.71875 9.328125 16.59375 8.109375 
Q 21.484375 6.890625 26.8125 6.890625 
Q 36.078125 6.890625 40.9375 10.546875 
Q 45.796875 14.203125 45.796875 21.1875 
Q 45.796875 27.640625 41.28125 31.265625 
Q 36.765625 34.90625 28.71875 34.90625 
L 20.21875 34.90625 
L 20.21875 43.015625 
L 29.109375 43.015625 
Q 36.375 43.015625 40.234375 45.921875 
Q 44.09375 48.828125 44.09375 54.296875 
Q 44.09375 59.90625 40.109375 62.90625 
Q 36.140625 65.921875 28.71875 65.921875 
Q 24.65625 65.921875 20.015625 65.03125 
Q 15.375 64.15625 9.8125 62.3125 
L 9.8125 71.09375 
Q 15.4375 72.65625 20.34375 73.4375 
Q 25.25 74.21875 29.59375 74.21875 
Q 40.828125 74.21875 47.359375 69.109375 
Q 53.90625 64.015625 53.90625 55.328125 
Q 53.90625 49.265625 50.4375 45.09375 
Q 46.96875 40.921875 40.578125 39.3125 
z
" id="DejaVuSans-51"/>
      </defs>
      <g transform="translate(44.6015 251.30775)scale(0.16 -0.16)">
       <use xlink:href="#DejaVuSans-8722"/>
       <use x="83.789062" xlink:href="#DejaVuSans-51"/>
      </g>
     </g>
    </g>
    <g id="ytick_2">
     <g id="line2d_9">
      <g>
       <use style="stroke:#000000;stroke-width:2;" x="71.689" xlink:href="#mca6d94a6d4" y="208.989"/>
      </g>
     </g>
     <g id="text_10">
      <!-- −2 -->
      <g transform="translate(44.6015 215.06775)scale(0.16 -0.16)">
       <use xlink:href="#DejaVuSans-8722"/>
       <use x="83.789062" xlink:href="#DejaVuSans-50"/>
      </g>
     </g>
    </g>
    <g id="ytick_3">
     <g id="line2d_10">
      <g>
       <use style="stroke:#000000;stroke-width:2;" x="71.689" xlink:href="#mca6d94a6d4" y="172.749"/>
      </g>
     </g>
     <g id="text_11">
      <!-- −1 -->
      <defs>
       <path d="M 12.40625 8.296875 
L 28.515625 8.296875 
L 28.515625 63.921875 
L 10.984375 60.40625 
L 10.984375 69.390625 
L 28.421875 72.90625 
L 38.28125 72.90625 
L 38.28125 8.296875 
L 54.390625 8.296875 
L 54.390625 0 
L 12.40625 0 
z
" id="DejaVuSans-49"/>
      </defs>
      <g transform="translate(44.6015 178.82775)scale(0.16 -0.16)">
       <use xlink:href="#DejaVuSans-8722"/>
       <use x="83.789062" xlink:href="#DejaVuSans-49"/>
      </g>
     </g>
    </g>
    <g id="ytick_4">
     <g id="line2d_11">
      <g>
       <use style="stroke:#000000;stroke-width:2;" x="71.689" xlink:href="#mca6d94a6d4" y="136.509"/>
      </g>
     </g>
     <g id="text_12">
      <!-- 0 -->
      <g transform="translate(58.009 142.58775)scale(0.16 -0.16)">
       <use xlink:href="#DejaVuSans-48"/>
      </g>
     </g>
    </g>
    <g id="ytick_5">
     <g id="line2d_12">
      <g>
       <use style="stroke:#000000;stroke-width:2;" x="71.689" xlink:href="#mca6d94a6d4" y="100.269"/>
      </g>
     </g>
     <g id="text_13">
      <!-- 1 -->
      <g transform="translate(58.009 106.34775)scale(0.16 -0.16)">
       <use xlink:href="#DejaVuSans-49"/>
      </g>
     </g>
    </g>
    <g id="ytick_6">
     <g id="line2d_13">
      <g>
       <use style="stroke:#000000;stroke-width:2;" x="71.689" xlink:href="#mca6d94a6d4" y="64.029"/>
      </g>
     </g>
     <g id="text_14">
      <!-- 2 -->
      <g transform="translate(58.009 70.10775)scale(0.16 -0.16)">
       <use xlink:href="#DejaVuSans-50"/>
      </g>
     </g>
    </g>
    <g id="ytick_7">
     <g id="line2d_14">
      <g>
       <use style="stroke:#000000;stroke-width:2;" x="71.689" xlink:href="#mca6d94a6d4" y="27.789"/>
      </g>
     </g>
     <g id="text_15">
      <!-- 3 -->
      <g transform="translate(58.009 33.86775)scale(0.16 -0.16)">
       <use xlink:href="#DejaVuSans-51"/>
      </g>
     </g>
    </g>
    <g id="text_16">
     <!-- Running Mean  -->
     <defs>
      <path d="M 45.40625 27.984375 
Q 45.40625 37.75 41.375 43.109375 
Q 37.359375 48.484375 30.078125 48.484375 
Q 22.859375 48.484375 18.828125 43.109375 
Q 14.796875 37.75 14.796875 27.984375 
Q 14.796875 18.265625 18.828125 12.890625 
Q 22.859375 7.515625 30.078125 7.515625 
Q 37.359375 7.515625 41.375 12.890625 
Q 45.40625 18.265625 45.40625 27.984375 
z
M 54.390625 6.78125 
Q 54.390625 -7.171875 48.1875 -13.984375 
Q 42 -20.796875 29.203125 -20.796875 
Q 24.46875 -20.796875 20.265625 -20.09375 
Q 16.0625 -19.390625 12.109375 -17.921875 
L 12.109375 -9.1875 
Q 16.0625 -11.328125 19.921875 -12.34375 
Q 23.78125 -13.375 27.78125 -13.375 
Q 36.625 -13.375 41.015625 -8.765625 
Q 45.40625 -4.15625 45.40625 5.171875 
L 45.40625 9.625 
Q 42.625 4.78125 38.28125 2.390625 
Q 33.9375 0 27.875 0 
Q 17.828125 0 11.671875 7.65625 
Q 5.515625 15.328125 5.515625 27.984375 
Q 5.515625 40.671875 11.671875 48.328125 
Q 17.828125 56 27.875 56 
Q 33.9375 56 38.28125 53.609375 
Q 42.625 51.21875 45.40625 46.390625 
L 45.40625 54.6875 
L 54.390625 54.6875 
z
" id="DejaVuSans-103"/>
      <path d="M 9.8125 72.90625 
L 24.515625 72.90625 
L 43.109375 23.296875 
L 61.8125 72.90625 
L 76.515625 72.90625 
L 76.515625 0 
L 66.890625 0 
L 66.890625 64.015625 
L 48.09375 14.015625 
L 38.1875 14.015625 
L 19.390625 64.015625 
L 19.390625 0 
L 9.8125 0 
z
" id="DejaVuSans-77"/>
     </defs>
     <g transform="translate(19.3575 196.5265)rotate(-90)scale(0.16 -0.16)">
      <use xlink:href="#DejaVuSans-82"/>
      <use x="69.419922" xlink:href="#DejaVuSans-117"/>
      <use x="132.798828" xlink:href="#DejaVuSans-110"/>
      <use x="196.177734" xlink:href="#DejaVuSans-110"/>
      <use x="259.556641" xlink:href="#DejaVuSans-105"/>
      <use x="287.339844" xlink:href="#DejaVuSans-110"/>
      <use x="350.71875" xlink:href="#DejaVuSans-103"/>
      <use x="414.195312" xlink:href="#DejaVuSans-32"/>
      <use x="445.982422" xlink:href="#DejaVuSans-77"/>
      <use x="532.261719" xlink:href="#DejaVuSans-101"/>
      <use x="593.785156" xlink:href="#DejaVuSans-97"/>
      <use x="655.064453" xlink:href="#DejaVuSans-110"/>
      <use x="718.443359" xlink:href="#DejaVuSans-32"/>
     </g>
     <!--  of Response Error -->
     <defs>
      <path d="M 18.109375 8.203125 
L 18.109375 -20.796875 
L 9.078125 -20.796875 
L 9.078125 54.6875 
L 18.109375 54.6875 
L 18.109375 46.390625 
Q 20.953125 51.265625 25.265625 53.625 
Q 29.59375 56 35.59375 56 
Q 45.5625 56 51.78125 48.09375 
Q 58.015625 40.1875 58.015625 27.296875 
Q 58.015625 14.40625 51.78125 6.484375 
Q 45.5625 -1.421875 35.59375 -1.421875 
Q 29.59375 -1.421875 25.265625 0.953125 
Q 20.953125 3.328125 18.109375 8.203125 
z
M 48.6875 27.296875 
Q 48.6875 37.203125 44.609375 42.84375 
Q 40.53125 48.484375 33.40625 48.484375 
Q 26.265625 48.484375 22.1875 42.84375 
Q 18.109375 37.203125 18.109375 27.296875 
Q 18.109375 17.390625 22.1875 11.75 
Q 26.265625 6.109375 33.40625 6.109375 
Q 40.53125 6.109375 44.609375 11.75 
Q 48.6875 17.390625 48.6875 27.296875 
z
" id="DejaVuSans-112"/>
      <path d="M 9.8125 72.90625 
L 55.90625 72.90625 
L 55.90625 64.59375 
L 19.671875 64.59375 
L 19.671875 43.015625 
L 54.390625 43.015625 
L 54.390625 34.71875 
L 19.671875 34.71875 
L 19.671875 8.296875 
L 56.78125 8.296875 
L 56.78125 0 
L 9.8125 0 
z
" id="DejaVuSans-69"/>
     </defs>
     <g transform="translate(37.274 210.43775)rotate(-90)scale(0.16 -0.16)">
      <use xlink:href="#DejaVuSans-32"/>
      <use x="31.787109" xlink:href="#DejaVuSans-111"/>
      <use x="92.96875" xlink:href="#DejaVuSans-102"/>
      <use x="128.173828" xlink:href="#DejaVuSans-32"/>
      <use x="159.960938" xlink:href="#DejaVuSans-82"/>
      <use x="229.380859" xlink:href="#DejaVuSans-101"/>
      <use x="290.904297" xlink:href="#DejaVuSans-115"/>
      <use x="343.003906" xlink:href="#DejaVuSans-112"/>
      <use x="406.480469" xlink:href="#DejaVuSans-111"/>
      <use x="467.662109" xlink:href="#DejaVuSans-110"/>
      <use x="531.041016" xlink:href="#DejaVuSans-115"/>
      <use x="583.140625" xlink:href="#DejaVuSans-101"/>
      <use x="644.664062" xlink:href="#DejaVuSans-32"/>
      <use x="676.451172" xlink:href="#DejaVuSans-69"/>
      <use x="739.634766" xlink:href="#DejaVuSans-114"/>
      <use x="780.732422" xlink:href="#DejaVuSans-114"/>
      <use x="821.814453" xlink:href="#DejaVuSans-111"/>
      <use x="882.996094" xlink:href="#DejaVuSans-114"/>
     </g>
    </g>
   </g>
   <g id="line2d_15">
    <path clip-path="url(#p939a56c0ab)" d="M 86.907182 130.56631 
L 88.991864 129.808023 
L 91.076547 134.468954 
L 93.161229 127.751876 
L 95.245912 130.509211 
L 97.330594 130.819783 
L 99.415276 140.835433 
L 101.499959 147.45483 
L 103.584641 143.762735 
L 105.669324 134.979507 
L 107.754006 132.23591 
L 109.838689 136.831243 
L 111.923371 137.334358 
L 114.008054 127.705035 
L 116.092736 137.867397 
L 118.177418 120.521021 
L 120.262101 128.352873 
L 122.346783 121.957042 
L 124.431466 125.95906 
L 126.516148 136.138617 
L 128.600831 128.50342 
L 130.685513 138.355665 
L 132.770196 143.44556 
L 134.854878 144.606226 
L 136.93956 155.712949 
L 139.024243 162.387077 
L 141.108925 161.269073 
L 143.193608 161.108798 
L 145.27829 167.760005 
L 147.362973 175.687546 
L 149.447655 180.965282 
L 151.532337 188.92071 
L 153.61702 193.118772 
L 155.701702 194.681434 
L 157.786385 202.545541 
L 159.871067 204.763778 
L 161.95575 203.382007 
L 164.040432 211.239114 
L 166.125115 217.752385 
L 168.209797 219.741505 
L 170.294479 217.462367 
L 172.379162 226.295644 
L 174.463844 227.377724 
L 176.548527 231.912324 
L 178.633209 227.877304 
L 180.717892 231.366743 
L 182.802574 228.929499 
L 184.887257 237.983245 
L 186.971939 230.797275 
L 189.056621 230.472625 
L 191.141304 220.888909 
L 193.225986 212.806826 
L 195.310669 206.3966 
L 197.395351 207.654576 
L 199.480034 203.334501 
L 201.564716 195.294161 
L 203.649399 186.445914 
L 205.734081 196.113655 
L 207.818763 196.060358 
L 209.903446 199.084841 
L 211.988128 185.555532 
L 214.072811 190.352129 
L 216.157493 190.77972 
L 218.242176 185.376256 
L 220.326858 177.873133 
L 222.41154 184.772893 
L 224.496223 176.59878 
L 226.580905 173.816047 
L 228.665588 166.335768 
L 230.75027 165.09163 
L 232.834953 158.94986 
L 234.919635 158.454528 
L 237.004318 149.658003 
L 239.089 137.482937 
L 241.173682 122.847851 
L 243.258365 118.408957 
L 245.343047 120.233813 
L 247.42773 109.479634 
L 249.512412 88.891985 
L 251.597095 86.248613 
L 253.681777 72.713763 
L 255.76646 71.850169 
L 257.851142 68.40148 
L 259.935824 62.700544 
L 262.020507 62.543969 
L 264.105189 70.447902 
L 266.189872 57.280228 
L 268.274554 62.499783 
L 270.359237 62.900067 
L 272.443919 64.925064 
L 274.528601 68.915417 
L 276.613284 66.51316 
L 278.697966 62.78496 
L 280.782649 70.104083 
L 282.867331 82.384656 
L 284.952014 80.903612 
L 287.036696 87.97673 
L 289.121379 79.286288 
L 291.206061 87.667184 
L 293.290743 95.568105 
L 295.375426 82.442733 
L 297.460108 88.409941 
L 299.544791 83.632853 
L 301.629473 81.924183 
L 303.714156 86.357048 
L 305.798838 91.50905 
L 307.883521 73.064235 
L 309.968203 80.60574 
L 312.052885 64.208887 
L 314.137568 72.157186 
L 316.22225 71.299666 
L 318.306933 65.354039 
L 320.391615 54.2252 
L 322.476298 61.376434 
L 324.56098 60.161513 
L 326.645663 64.930181 
L 328.730345 66.837595 
L 330.815027 62.283551 
L 332.89971 72.535953 
L 334.984392 73.743929 
L 337.069075 76.301445 
L 339.153757 86.677426 
L 341.23844 87.912712 
L 343.323122 91.062774 
L 345.407804 104.415125 
L 347.492487 109.403324 
L 349.577169 105.382934 
L 351.661852 107.370809 
L 353.746534 109.544146 
L 355.831217 125.437725 
L 357.915899 123.9491 
L 360.000582 125.167549 
L 362.085264 128.416036 
L 364.169946 136.972453 
L 366.254629 137.175554 
L 368.339311 157.493442 
L 370.423994 149.400862 
L 372.508676 149.89821 
L 374.593359 145.041986 
L 376.678041 150.132579 
L 378.762724 139.692746 
L 380.847406 147.438638 
L 382.932088 141.033351 
L 385.016771 144.445035 
L 387.101453 145.972494 
L 389.186136 132.255254 
L 391.270818 130.56631 
L 391.270818 130.56631 
" style="fill:none;stroke:#00008b;stroke-linecap:square;stroke-width:1.5;"/>
   </g>
   <g id="patch_3">
    <path d="M 71.689 245.229 
L 71.689 27.789 
" style="fill:none;stroke:#000000;stroke-linecap:square;stroke-linejoin:miter;stroke-width:2;"/>
   </g>
   <g id="patch_4">
    <path d="M 71.689 245.229 
L 406.489 245.229 
" style="fill:none;stroke:#000000;stroke-linecap:square;stroke-linejoin:miter;stroke-width:2;"/>
   </g>
   <g id="text_17">
    <!-- Naive -->
    <defs>
     <path d="M 9.8125 72.90625 
L 23.09375 72.90625 
L 55.421875 11.921875 
L 55.421875 72.90625 
L 64.984375 72.90625 
L 64.984375 0 
L 51.703125 0 
L 19.390625 60.984375 
L 19.390625 0 
L 9.8125 0 
z
" id="DejaVuSans-78"/>
    </defs>
    <g transform="translate(211.768 21.789)scale(0.192 -0.192)">
     <use xlink:href="#DejaVuSans-78"/>
     <use x="74.804688" xlink:href="#DejaVuSans-97"/>
     <use x="136.083984" xlink:href="#DejaVuSans-105"/>
     <use x="163.867188" xlink:href="#DejaVuSans-118"/>
     <use x="223.046875" xlink:href="#DejaVuSans-101"/>
    </g>
   </g>
  </g>
 </g>
 <defs>
  <clipPath id="p939a56c0ab">
   <rect height="217.44" width="334.8" x="71.689" y="27.789"/>
  </clipPath>
 </defs>
</svg>
