<?xml version="1.0" encoding="utf-8" standalone="no"?>
<!DOCTYPE svg PUBLIC "-//W3C//DTD SVG 1.1//EN"
  "http://www.w3.org/Graphics/SVG/1.1/DTD/svg11.dtd">
<!-- Created with matplotlib (https://matplotlib.org/) -->
<svg height="363.1755pt" version="1.1" viewBox="0 0 454.2775 363.1755" width="454.2775pt" xmlns="http://www.w3.org/2000/svg" xmlns:xlink="http://www.w3.org/1999/xlink">
 <defs>
  <style type="text/css">
*{stroke-linecap:butt;stroke-linejoin:round;}
  </style>
 </defs>
 <g id="figure_1">
  <g id="patch_1">
   <path d="M 0 363.1755 
L 454.2775 363.1755 
L 454.2775 0 
L 0 0 
z
" style="fill:#ffffff;"/>
  </g>
  <g id="axes_1">
   <g id="patch_2">
    <path d="M 157.8975 299.589 
L 436.8975 299.589 
L 436.8975 27.789 
L 157.8975 27.789 
z
" style="fill:#ffffff;"/>
   </g>
   <g id="PolyCollection_1">
    <defs>
     <path d="M 157.8975 -231.03856 
L 157.8975 -171.08718 
L 159.808459 -160.224614 
L 161.719418 -152.510753 
L 163.630377 -163.221979 
L 165.541336 -162.682236 
L 167.452295 -161.453362 
L 169.363253 -156.141192 
L 171.274212 -156.745657 
L 173.185171 -148.334378 
L 175.09613 -149.051234 
L 177.007089 -152.521272 
L 178.918048 -155.373634 
L 180.829007 -156.172876 
L 182.739966 -146.378139 
L 184.650925 -154.075172 
L 186.561884 -153.147518 
L 188.472842 -148.412046 
L 190.383801 -154.571374 
L 192.29476 -162.623371 
L 194.205719 -162.122438 
L 196.116678 -152.342345 
L 198.027637 -149.051335 
L 199.938596 -155.210782 
L 201.849555 -156.105944 
L 203.760514 -145.532561 
L 205.671473 -134.697783 
L 207.582432 -126.236488 
L 209.49339 -112.367608 
L 211.404349 -113.563169 
L 213.315308 -103.800847 
L 215.226267 -101.879344 
L 217.137226 -99.554263 
L 219.048185 -95.992788 
L 220.959144 -96.84274 
L 222.870103 -95.016202 
L 224.781062 -97.881494 
L 226.692021 -93.485324 
L 228.602979 -94.685712 
L 230.513938 -92.330422 
L 232.424897 -100.235758 
L 234.335856 -96.431812 
L 236.246815 -86.379674 
L 238.157774 -89.607293 
L 240.068733 -85.93404 
L 241.979692 -81.179837 
L 243.890651 -73.799655 
L 245.80161 -74.927981 
L 247.712568 -85.197324 
L 249.623527 -76.715876 
L 251.534486 -71.52431 
L 253.445445 -80.356775 
L 255.356404 -93.945399 
L 257.267363 -87.832141 
L 259.178322 -84.118887 
L 261.089281 -87.921811 
L 263.00024 -93.198763 
L 264.911199 -104.808976 
L 266.822158 -102.798448 
L 268.733116 -107.101953 
L 270.644075 -108.191158 
L 272.555034 -117.125032 
L 274.465993 -119.893849 
L 276.376952 -119.681631 
L 278.287911 -136.651136 
L 280.19887 -134.003378 
L 282.109829 -140.111471 
L 284.020788 -129.992148 
L 285.931747 -138.829034 
L 287.842705 -156.02949 
L 289.753664 -164.314078 
L 291.664623 -163.644231 
L 293.575582 -161.7964 
L 295.486541 -179.451013 
L 297.3975 -181.909644 
L 299.308459 -177.063956 
L 301.219418 -191.820204 
L 303.130377 -187.840937 
L 305.041336 -192.903409 
L 306.952295 -192.343193 
L 308.863253 -206.308832 
L 310.774212 -202.45798 
L 312.685171 -218.782384 
L 314.59613 -217.139735 
L 316.507089 -225.600341 
L 318.418048 -238.261036 
L 320.329007 -237.616566 
L 322.239966 -240.33312 
L 324.150925 -240.312895 
L 326.061884 -240.277301 
L 327.972842 -234.734706 
L 329.883801 -241.236734 
L 331.79476 -233.890468 
L 333.705719 -234.265616 
L 335.616678 -235.595998 
L 337.527637 -231.002643 
L 339.438596 -236.787625 
L 341.349555 -234.104962 
L 343.260514 -241.007606 
L 345.171473 -239.669015 
L 347.082432 -233.94176 
L 348.99339 -226.933519 
L 350.904349 -229.871987 
L 352.815308 -235.624755 
L 354.726267 -238.07362 
L 356.637226 -240.151415 
L 358.548185 -253.442559 
L 360.459144 -240.31276 
L 362.370103 -246.120839 
L 364.281062 -244.559087 
L 366.192021 -246.33876 
L 368.102979 -235.734318 
L 370.013938 -241.583714 
L 371.924897 -229.652095 
L 373.835856 -226.98592 
L 375.746815 -224.305319 
L 377.657774 -222.411354 
L 379.568733 -220.846318 
L 381.479692 -225.211281 
L 383.390651 -226.345945 
L 385.30161 -219.493134 
L 387.212568 -226.031894 
L 389.123527 -224.494596 
L 391.034486 -229.267854 
L 392.945445 -227.235615 
L 394.856404 -225.92517 
L 396.767363 -215.755272 
L 398.678322 -207.756232 
L 400.589281 -202.926007 
L 402.50024 -199.853286 
L 404.411199 -202.197567 
L 406.322158 -193.067176 
L 408.233116 -201.738401 
L 410.144075 -189.118536 
L 412.055034 -177.109539 
L 413.965993 -164.278809 
L 415.876952 -155.988854 
L 417.787911 -149.219017 
L 419.69887 -156.530926 
L 421.609829 -136.996059 
L 423.520788 -136.980214 
L 425.431747 -140.250304 
L 427.342705 -140.984674 
L 429.253664 -151.382345 
L 431.164623 -159.875353 
L 433.075582 -158.36498 
L 434.986541 -163.522143 
L 436.8975 -171.08718 
L 436.8975 -231.03856 
L 436.8975 -231.03856 
L 434.986541 -220.327057 
L 433.075582 -212.421849 
L 431.164623 -215.106093 
L 429.253664 -208.739774 
L 427.342705 -203.246148 
L 425.431747 -200.889229 
L 423.520788 -203.574646 
L 421.609829 -204.892213 
L 419.69887 -225.035686 
L 417.787911 -223.671517 
L 415.876952 -229.104778 
L 413.965993 -235.078216 
L 412.055034 -243.465205 
L 410.144075 -247.740246 
L 408.233116 -266.088995 
L 406.322158 -263.480968 
L 404.411199 -275.03894 
L 402.50024 -273.290837 
L 400.589281 -280.419027 
L 398.678322 -282.035338 
L 396.767363 -294.048105 
L 394.856404 -291.303638 
L 392.945445 -291.687979 
L 391.034486 -290.28081 
L 389.123527 -281.840426 
L 387.212568 -281.915496 
L 385.30161 -280.220738 
L 383.390651 -285.415306 
L 381.479692 -287.858055 
L 379.568733 -290.880392 
L 377.657774 -291.905527 
L 375.746815 -297.453232 
L 373.835856 -300.559002 
L 371.924897 -310.470299 
L 370.013938 -330.244472 
L 368.102979 -317.338033 
L 366.192021 -322.273383 
L 364.281062 -322.669248 
L 362.370103 -320.732579 
L 360.459144 -312.316401 
L 358.548185 -319.023246 
L 356.637226 -302.695604 
L 354.726267 -302.931305 
L 352.815308 -304.153202 
L 350.904349 -298.950342 
L 348.99339 -291.70065 
L 347.082432 -297.544748 
L 345.171473 -303.39618 
L 343.260514 -303.035257 
L 341.349555 -299.501972 
L 339.438596 -302.292233 
L 337.527637 -297.335778 
L 335.616678 -293.735059 
L 333.705719 -294.314621 
L 331.79476 -293.947068 
L 329.883801 -301.317919 
L 327.972842 -298.354342 
L 326.061884 -304.361936 
L 324.150925 -304.123908 
L 322.239966 -299.886819 
L 320.329007 -294.60451 
L 318.418048 -295.344546 
L 316.507089 -287.049978 
L 314.59613 -278.171986 
L 312.685171 -278.785884 
L 310.774212 -263.738123 
L 308.863253 -272.301008 
L 306.952295 -259.967242 
L 305.041336 -257.447316 
L 303.130377 -251.291833 
L 301.219418 -257.07963 
L 299.308459 -238.734753 
L 297.3975 -241.268481 
L 295.486541 -236.515307 
L 293.575582 -218.683745 
L 291.664623 -218.883853 
L 289.753664 -228.745094 
L 287.842705 -221.951933 
L 285.931747 -203.629049 
L 284.020788 -189.291674 
L 282.109829 -186.897074 
L 280.19887 -178.374093 
L 278.287911 -182.025464 
L 276.376952 -166.33659 
L 274.465993 -162.599703 
L 272.555034 -157.798049 
L 270.644075 -150.70878 
L 268.733116 -150.493629 
L 266.822158 -146.115683 
L 264.911199 -152.882201 
L 263.00024 -143.829533 
L 261.089281 -139.9797 
L 259.178322 -138.476485 
L 257.267363 -140.841533 
L 255.356404 -147.073946 
L 253.445445 -134.268827 
L 251.534486 -128.811996 
L 249.623527 -135.177214 
L 247.712568 -141.057124 
L 245.80161 -132.780872 
L 243.890651 -136.88373 
L 241.979692 -129.699248 
L 240.068733 -133.974683 
L 238.157774 -139.901453 
L 236.246815 -142.687699 
L 234.335856 -149.036901 
L 232.424897 -150.931918 
L 230.513938 -145.965163 
L 228.602979 -148.782024 
L 226.692021 -150.236341 
L 224.781062 -152.438925 
L 222.870103 -149.702627 
L 220.959144 -155.036518 
L 219.048185 -154.076757 
L 217.137226 -157.607206 
L 215.226267 -161.669831 
L 213.315308 -164.711302 
L 211.404349 -180.135375 
L 209.49339 -175.966038 
L 207.582432 -183.601681 
L 205.671473 -187.406201 
L 203.760514 -192.875405 
L 201.849555 -201.314529 
L 199.938596 -202.444631 
L 198.027637 -195.987334 
L 196.116678 -198.59287 
L 194.205719 -201.842233 
L 192.29476 -207.487932 
L 190.383801 -202.755396 
L 188.472842 -196.154109 
L 186.561884 -195.968814 
L 184.650925 -197.449305 
L 182.739966 -194.453409 
L 180.829007 -209.311661 
L 178.918048 -209.295523 
L 177.007089 -208.768493 
L 175.09613 -204.424561 
L 173.185171 -201.082647 
L 171.274212 -209.688116 
L 169.363253 -214.3789 
L 167.452295 -219.708862 
L 165.541336 -222.662273 
L 163.630377 -220.651297 
L 161.719418 -213.612694 
L 159.808459 -221.325763 
L 157.8975 -231.03856 
z
" id="m673467129f" style="stroke:#87ceeb;stroke-opacity:0.2;"/>
    </defs>
    <g clip-path="url(#p54e1a3249b)">
     <use style="fill:#87ceeb;fill-opacity:0.2;stroke:#87ceeb;stroke-opacity:0.2;" x="0" xlink:href="#m673467129f" y="363.1755"/>
    </g>
   </g>
   <g id="matplotlib.axis_1">
    <g id="xtick_1">
     <g id="line2d_1">
      <defs>
       <path d="M 0 0 
L 0 -6 
" id="mbecdbb952d" style="stroke:#000000;stroke-width:2;"/>
      </defs>
      <g>
       <use style="stroke:#000000;stroke-width:2;" x="157.8975" xlink:href="#mbecdbb952d" y="299.589"/>
      </g>
     </g>
     <g id="text_1">
      <!-- -73 -->
      <defs>
       <path d="M 4.890625 31.390625 
L 31.203125 31.390625 
L 31.203125 23.390625 
L 4.890625 23.390625 
z
" id="DejaVuSans-45"/>
       <path d="M 8.203125 72.90625 
L 55.078125 72.90625 
L 55.078125 68.703125 
L 28.609375 0 
L 18.3125 0 
L 43.21875 64.59375 
L 8.203125 64.59375 
z
" id="DejaVuSans-55"/>
       <path d="M 40.578125 39.3125 
Q 47.65625 37.796875 51.625 33 
Q 55.609375 28.21875 55.609375 21.1875 
Q 55.609375 10.40625 48.1875 4.484375 
Q 40.765625 -1.421875 27.09375 -1.421875 
Q 22.515625 -1.421875 17.65625 -0.515625 
Q 12.796875 0.390625 7.625 2.203125 
L 7.625 11.71875 
Q 11.71875 9.328125 16.59375 8.109375 
Q 21.484375 6.890625 26.8125 6.890625 
Q 36.078125 6.890625 40.9375 10.546875 
Q 45.796875 14.203125 45.796875 21.1875 
Q 45.796875 27.640625 41.28125 31.265625 
Q 36.765625 34.90625 28.71875 34.90625 
L 20.21875 34.90625 
L 20.21875 43.015625 
L 29.109375 43.015625 
Q 36.375 43.015625 40.234375 45.921875 
Q 44.09375 48.828125 44.09375 54.296875 
Q 44.09375 59.90625 40.109375 62.90625 
Q 36.140625 65.921875 28.71875 65.921875 
Q 24.65625 65.921875 20.015625 65.03125 
Q 15.375 64.15625 9.8125 62.3125 
L 9.8125 71.09375 
Q 15.4375 72.65625 20.34375 73.4375 
Q 25.25 74.21875 29.59375 74.21875 
Q 40.828125 74.21875 47.359375 69.109375 
Q 53.90625 64.015625 53.90625 55.328125 
Q 53.90625 49.265625 50.4375 45.09375 
Q 46.96875 40.921875 40.578125 39.3125 
z
" id="DejaVuSans-51"/>
      </defs>
      <g transform="translate(144.83125 315.2465)scale(0.16 -0.16)">
       <use xlink:href="#DejaVuSans-45"/>
       <use x="36.083984" xlink:href="#DejaVuSans-55"/>
       <use x="99.707031" xlink:href="#DejaVuSans-51"/>
      </g>
     </g>
    </g>
    <g id="xtick_2">
     <g id="line2d_2">
      <g>
       <use style="stroke:#000000;stroke-width:2;" x="201.849555" xlink:href="#mbecdbb952d" y="299.589"/>
      </g>
     </g>
     <g id="text_2">
      <!-- -50 -->
      <defs>
       <path d="M 10.796875 72.90625 
L 49.515625 72.90625 
L 49.515625 64.59375 
L 19.828125 64.59375 
L 19.828125 46.734375 
Q 21.96875 47.46875 24.109375 47.828125 
Q 26.265625 48.1875 28.421875 48.1875 
Q 40.625 48.1875 47.75 41.5 
Q 54.890625 34.8125 54.890625 23.390625 
Q 54.890625 11.625 47.5625 5.09375 
Q 40.234375 -1.421875 26.90625 -1.421875 
Q 22.3125 -1.421875 17.546875 -0.640625 
Q 12.796875 0.140625 7.71875 1.703125 
L 7.71875 11.625 
Q 12.109375 9.234375 16.796875 8.0625 
Q 21.484375 6.890625 26.703125 6.890625 
Q 35.15625 6.890625 40.078125 11.328125 
Q 45.015625 15.765625 45.015625 23.390625 
Q 45.015625 31 40.078125 35.4375 
Q 35.15625 39.890625 26.703125 39.890625 
Q 22.75 39.890625 18.8125 39.015625 
Q 14.890625 38.140625 10.796875 36.28125 
z
" id="DejaVuSans-53"/>
       <path d="M 31.78125 66.40625 
Q 24.171875 66.40625 20.328125 58.90625 
Q 16.5 51.421875 16.5 36.375 
Q 16.5 21.390625 20.328125 13.890625 
Q 24.171875 6.390625 31.78125 6.390625 
Q 39.453125 6.390625 43.28125 13.890625 
Q 47.125 21.390625 47.125 36.375 
Q 47.125 51.421875 43.28125 58.90625 
Q 39.453125 66.40625 31.78125 66.40625 
z
M 31.78125 74.21875 
Q 44.046875 74.21875 50.515625 64.515625 
Q 56.984375 54.828125 56.984375 36.375 
Q 56.984375 17.96875 50.515625 8.265625 
Q 44.046875 -1.421875 31.78125 -1.421875 
Q 19.53125 -1.421875 13.0625 8.265625 
Q 6.59375 17.96875 6.59375 36.375 
Q 6.59375 54.828125 13.0625 64.515625 
Q 19.53125 74.21875 31.78125 74.21875 
z
" id="DejaVuSans-48"/>
      </defs>
      <g transform="translate(188.783305 315.2465)scale(0.16 -0.16)">
       <use xlink:href="#DejaVuSans-45"/>
       <use x="36.083984" xlink:href="#DejaVuSans-53"/>
       <use x="99.707031" xlink:href="#DejaVuSans-48"/>
      </g>
     </g>
    </g>
    <g id="xtick_3">
     <g id="line2d_3">
      <g>
       <use style="stroke:#000000;stroke-width:2;" x="249.623527" xlink:href="#mbecdbb952d" y="299.589"/>
      </g>
     </g>
     <g id="text_3">
      <!-- -25 -->
      <defs>
       <path d="M 19.1875 8.296875 
L 53.609375 8.296875 
L 53.609375 0 
L 7.328125 0 
L 7.328125 8.296875 
Q 12.9375 14.109375 22.625 23.890625 
Q 32.328125 33.6875 34.8125 36.53125 
Q 39.546875 41.84375 41.421875 45.53125 
Q 43.3125 49.21875 43.3125 52.78125 
Q 43.3125 58.59375 39.234375 62.25 
Q 35.15625 65.921875 28.609375 65.921875 
Q 23.96875 65.921875 18.8125 64.3125 
Q 13.671875 62.703125 7.8125 59.421875 
L 7.8125 69.390625 
Q 13.765625 71.78125 18.9375 73 
Q 24.125 74.21875 28.421875 74.21875 
Q 39.75 74.21875 46.484375 68.546875 
Q 53.21875 62.890625 53.21875 53.421875 
Q 53.21875 48.921875 51.53125 44.890625 
Q 49.859375 40.875 45.40625 35.40625 
Q 44.1875 33.984375 37.640625 27.21875 
Q 31.109375 20.453125 19.1875 8.296875 
z
" id="DejaVuSans-50"/>
      </defs>
      <g transform="translate(236.557277 315.2465)scale(0.16 -0.16)">
       <use xlink:href="#DejaVuSans-45"/>
       <use x="36.083984" xlink:href="#DejaVuSans-50"/>
       <use x="99.707031" xlink:href="#DejaVuSans-53"/>
      </g>
     </g>
    </g>
    <g id="xtick_4">
     <g id="line2d_4">
      <g>
       <use style="stroke:#000000;stroke-width:2;" x="297.3975" xlink:href="#mbecdbb952d" y="299.589"/>
      </g>
     </g>
     <g id="text_4">
      <!-- 0 -->
      <g transform="translate(292.3075 315.2465)scale(0.16 -0.16)">
       <use xlink:href="#DejaVuSans-48"/>
      </g>
     </g>
    </g>
    <g id="xtick_5">
     <g id="line2d_5">
      <g>
       <use style="stroke:#000000;stroke-width:2;" x="345.171473" xlink:href="#mbecdbb952d" y="299.589"/>
      </g>
     </g>
     <g id="text_5">
      <!-- 25 -->
      <g transform="translate(334.991473 315.2465)scale(0.16 -0.16)">
       <use xlink:href="#DejaVuSans-50"/>
       <use x="63.623047" xlink:href="#DejaVuSans-53"/>
      </g>
     </g>
    </g>
    <g id="xtick_6">
     <g id="line2d_6">
      <g>
       <use style="stroke:#000000;stroke-width:2;" x="392.945445" xlink:href="#mbecdbb952d" y="299.589"/>
      </g>
     </g>
     <g id="text_6">
      <!-- 50 -->
      <g transform="translate(382.765445 315.2465)scale(0.16 -0.16)">
       <use xlink:href="#DejaVuSans-53"/>
       <use x="63.623047" xlink:href="#DejaVuSans-48"/>
      </g>
     </g>
    </g>
    <g id="xtick_7">
     <g id="line2d_7">
      <g>
       <use style="stroke:#000000;stroke-width:2;" x="436.8975" xlink:href="#mbecdbb952d" y="299.589"/>
      </g>
     </g>
     <g id="text_7">
      <!-- 73 -->
      <g transform="translate(426.7175 315.2465)scale(0.16 -0.16)">
       <use xlink:href="#DejaVuSans-55"/>
       <use x="63.623047" xlink:href="#DejaVuSans-51"/>
      </g>
     </g>
    </g>
    <g id="text_8">
     <!-- Previous Tumor - Current Tumor -->
     <defs>
      <path d="M 19.671875 64.796875 
L 19.671875 37.40625 
L 32.078125 37.40625 
Q 38.96875 37.40625 42.71875 40.96875 
Q 46.484375 44.53125 46.484375 51.125 
Q 46.484375 57.671875 42.71875 61.234375 
Q 38.96875 64.796875 32.078125 64.796875 
z
M 9.8125 72.90625 
L 32.078125 72.90625 
Q 44.34375 72.90625 50.609375 67.359375 
Q 56.890625 61.8125 56.890625 51.125 
Q 56.890625 40.328125 50.609375 34.8125 
Q 44.34375 29.296875 32.078125 29.296875 
L 19.671875 29.296875 
L 19.671875 0 
L 9.8125 0 
z
" id="DejaVuSans-80"/>
      <path d="M 41.109375 46.296875 
Q 39.59375 47.171875 37.8125 47.578125 
Q 36.03125 48 33.890625 48 
Q 26.265625 48 22.1875 43.046875 
Q 18.109375 38.09375 18.109375 28.8125 
L 18.109375 0 
L 9.078125 0 
L 9.078125 54.6875 
L 18.109375 54.6875 
L 18.109375 46.1875 
Q 20.953125 51.171875 25.484375 53.578125 
Q 30.03125 56 36.53125 56 
Q 37.453125 56 38.578125 55.875 
Q 39.703125 55.765625 41.0625 55.515625 
z
" id="DejaVuSans-114"/>
      <path d="M 56.203125 29.59375 
L 56.203125 25.203125 
L 14.890625 25.203125 
Q 15.484375 15.921875 20.484375 11.0625 
Q 25.484375 6.203125 34.421875 6.203125 
Q 39.59375 6.203125 44.453125 7.46875 
Q 49.3125 8.734375 54.109375 11.28125 
L 54.109375 2.78125 
Q 49.265625 0.734375 44.1875 -0.34375 
Q 39.109375 -1.421875 33.890625 -1.421875 
Q 20.796875 -1.421875 13.15625 6.1875 
Q 5.515625 13.8125 5.515625 26.8125 
Q 5.515625 40.234375 12.765625 48.109375 
Q 20.015625 56 32.328125 56 
Q 43.359375 56 49.78125 48.890625 
Q 56.203125 41.796875 56.203125 29.59375 
z
M 47.21875 32.234375 
Q 47.125 39.59375 43.09375 43.984375 
Q 39.0625 48.390625 32.421875 48.390625 
Q 24.90625 48.390625 20.390625 44.140625 
Q 15.875 39.890625 15.1875 32.171875 
z
" id="DejaVuSans-101"/>
      <path d="M 2.984375 54.6875 
L 12.5 54.6875 
L 29.59375 8.796875 
L 46.6875 54.6875 
L 56.203125 54.6875 
L 35.6875 0 
L 23.484375 0 
z
" id="DejaVuSans-118"/>
      <path d="M 9.421875 54.6875 
L 18.40625 54.6875 
L 18.40625 0 
L 9.421875 0 
z
M 9.421875 75.984375 
L 18.40625 75.984375 
L 18.40625 64.59375 
L 9.421875 64.59375 
z
" id="DejaVuSans-105"/>
      <path d="M 30.609375 48.390625 
Q 23.390625 48.390625 19.1875 42.75 
Q 14.984375 37.109375 14.984375 27.296875 
Q 14.984375 17.484375 19.15625 11.84375 
Q 23.34375 6.203125 30.609375 6.203125 
Q 37.796875 6.203125 41.984375 11.859375 
Q 46.1875 17.53125 46.1875 27.296875 
Q 46.1875 37.015625 41.984375 42.703125 
Q 37.796875 48.390625 30.609375 48.390625 
z
M 30.609375 56 
Q 42.328125 56 49.015625 48.375 
Q 55.71875 40.765625 55.71875 27.296875 
Q 55.71875 13.875 49.015625 6.21875 
Q 42.328125 -1.421875 30.609375 -1.421875 
Q 18.84375 -1.421875 12.171875 6.21875 
Q 5.515625 13.875 5.515625 27.296875 
Q 5.515625 40.765625 12.171875 48.375 
Q 18.84375 56 30.609375 56 
z
" id="DejaVuSans-111"/>
      <path d="M 8.5 21.578125 
L 8.5 54.6875 
L 17.484375 54.6875 
L 17.484375 21.921875 
Q 17.484375 14.15625 20.5 10.265625 
Q 23.53125 6.390625 29.59375 6.390625 
Q 36.859375 6.390625 41.078125 11.03125 
Q 45.3125 15.671875 45.3125 23.6875 
L 45.3125 54.6875 
L 54.296875 54.6875 
L 54.296875 0 
L 45.3125 0 
L 45.3125 8.40625 
Q 42.046875 3.421875 37.71875 1 
Q 33.40625 -1.421875 27.6875 -1.421875 
Q 18.265625 -1.421875 13.375 4.4375 
Q 8.5 10.296875 8.5 21.578125 
z
M 31.109375 56 
z
" id="DejaVuSans-117"/>
      <path d="M 44.28125 53.078125 
L 44.28125 44.578125 
Q 40.484375 46.53125 36.375 47.5 
Q 32.28125 48.484375 27.875 48.484375 
Q 21.1875 48.484375 17.84375 46.4375 
Q 14.5 44.390625 14.5 40.28125 
Q 14.5 37.15625 16.890625 35.375 
Q 19.28125 33.59375 26.515625 31.984375 
L 29.59375 31.296875 
Q 39.15625 29.25 43.1875 25.515625 
Q 47.21875 21.78125 47.21875 15.09375 
Q 47.21875 7.46875 41.1875 3.015625 
Q 35.15625 -1.421875 24.609375 -1.421875 
Q 20.21875 -1.421875 15.453125 -0.5625 
Q 10.6875 0.296875 5.421875 2 
L 5.421875 11.28125 
Q 10.40625 8.6875 15.234375 7.390625 
Q 20.0625 6.109375 24.8125 6.109375 
Q 31.15625 6.109375 34.5625 8.28125 
Q 37.984375 10.453125 37.984375 14.40625 
Q 37.984375 18.0625 35.515625 20.015625 
Q 33.0625 21.96875 24.703125 23.78125 
L 21.578125 24.515625 
Q 13.234375 26.265625 9.515625 29.90625 
Q 5.8125 33.546875 5.8125 39.890625 
Q 5.8125 47.609375 11.28125 51.796875 
Q 16.75 56 26.8125 56 
Q 31.78125 56 36.171875 55.265625 
Q 40.578125 54.546875 44.28125 53.078125 
z
" id="DejaVuSans-115"/>
      <path id="DejaVuSans-32"/>
      <path d="M -0.296875 72.90625 
L 61.375 72.90625 
L 61.375 64.59375 
L 35.5 64.59375 
L 35.5 0 
L 25.59375 0 
L 25.59375 64.59375 
L -0.296875 64.59375 
z
" id="DejaVuSans-84"/>
      <path d="M 52 44.1875 
Q 55.375 50.25 60.0625 53.125 
Q 64.75 56 71.09375 56 
Q 79.640625 56 84.28125 50.015625 
Q 88.921875 44.046875 88.921875 33.015625 
L 88.921875 0 
L 79.890625 0 
L 79.890625 32.71875 
Q 79.890625 40.578125 77.09375 44.375 
Q 74.3125 48.1875 68.609375 48.1875 
Q 61.625 48.1875 57.5625 43.546875 
Q 53.515625 38.921875 53.515625 30.90625 
L 53.515625 0 
L 44.484375 0 
L 44.484375 32.71875 
Q 44.484375 40.625 41.703125 44.40625 
Q 38.921875 48.1875 33.109375 48.1875 
Q 26.21875 48.1875 22.15625 43.53125 
Q 18.109375 38.875 18.109375 30.90625 
L 18.109375 0 
L 9.078125 0 
L 9.078125 54.6875 
L 18.109375 54.6875 
L 18.109375 46.1875 
Q 21.1875 51.21875 25.484375 53.609375 
Q 29.78125 56 35.6875 56 
Q 41.65625 56 45.828125 52.96875 
Q 50 49.953125 52 44.1875 
z
" id="DejaVuSans-109"/>
      <path d="M 64.40625 67.28125 
L 64.40625 56.890625 
Q 59.421875 61.53125 53.78125 63.8125 
Q 48.140625 66.109375 41.796875 66.109375 
Q 29.296875 66.109375 22.65625 58.46875 
Q 16.015625 50.828125 16.015625 36.375 
Q 16.015625 21.96875 22.65625 14.328125 
Q 29.296875 6.6875 41.796875 6.6875 
Q 48.140625 6.6875 53.78125 8.984375 
Q 59.421875 11.28125 64.40625 15.921875 
L 64.40625 5.609375 
Q 59.234375 2.09375 53.4375 0.328125 
Q 47.65625 -1.421875 41.21875 -1.421875 
Q 24.65625 -1.421875 15.125 8.703125 
Q 5.609375 18.84375 5.609375 36.375 
Q 5.609375 53.953125 15.125 64.078125 
Q 24.65625 74.21875 41.21875 74.21875 
Q 47.75 74.21875 53.53125 72.484375 
Q 59.328125 70.75 64.40625 67.28125 
z
" id="DejaVuSans-67"/>
      <path d="M 54.890625 33.015625 
L 54.890625 0 
L 45.90625 0 
L 45.90625 32.71875 
Q 45.90625 40.484375 42.875 44.328125 
Q 39.84375 48.1875 33.796875 48.1875 
Q 26.515625 48.1875 22.3125 43.546875 
Q 18.109375 38.921875 18.109375 30.90625 
L 18.109375 0 
L 9.078125 0 
L 9.078125 54.6875 
L 18.109375 54.6875 
L 18.109375 46.1875 
Q 21.34375 51.125 25.703125 53.5625 
Q 30.078125 56 35.796875 56 
Q 45.21875 56 50.046875 50.171875 
Q 54.890625 44.34375 54.890625 33.015625 
z
" id="DejaVuSans-110"/>
      <path d="M 18.3125 70.21875 
L 18.3125 54.6875 
L 36.8125 54.6875 
L 36.8125 47.703125 
L 18.3125 47.703125 
L 18.3125 18.015625 
Q 18.3125 11.328125 20.140625 9.421875 
Q 21.96875 7.515625 27.59375 7.515625 
L 36.8125 7.515625 
L 36.8125 0 
L 27.59375 0 
Q 17.1875 0 13.234375 3.875 
Q 9.28125 7.765625 9.28125 18.015625 
L 9.28125 47.703125 
L 2.6875 47.703125 
L 2.6875 54.6875 
L 9.28125 54.6875 
L 9.28125 70.21875 
z
" id="DejaVuSans-116"/>
     </defs>
     <g transform="translate(168.03375 334.7315)scale(0.16 -0.16)">
      <use xlink:href="#DejaVuSans-80"/>
      <use x="60.287109" xlink:href="#DejaVuSans-114"/>
      <use x="101.369141" xlink:href="#DejaVuSans-101"/>
      <use x="162.892578" xlink:href="#DejaVuSans-118"/>
      <use x="222.072266" xlink:href="#DejaVuSans-105"/>
      <use x="249.855469" xlink:href="#DejaVuSans-111"/>
      <use x="311.037109" xlink:href="#DejaVuSans-117"/>
      <use x="374.416016" xlink:href="#DejaVuSans-115"/>
      <use x="426.515625" xlink:href="#DejaVuSans-32"/>
      <use x="458.302734" xlink:href="#DejaVuSans-84"/>
      <use x="519.152344" xlink:href="#DejaVuSans-117"/>
      <use x="582.53125" xlink:href="#DejaVuSans-109"/>
      <use x="679.943359" xlink:href="#DejaVuSans-111"/>
      <use x="741.125" xlink:href="#DejaVuSans-114"/>
      <use x="782.238281" xlink:href="#DejaVuSans-32"/>
      <use x="814.025391" xlink:href="#DejaVuSans-45"/>
      <use x="850.109375" xlink:href="#DejaVuSans-32"/>
      <use x="881.896484" xlink:href="#DejaVuSans-67"/>
      <use x="951.720703" xlink:href="#DejaVuSans-117"/>
      <use x="1015.099609" xlink:href="#DejaVuSans-114"/>
      <use x="1056.197266" xlink:href="#DejaVuSans-114"/>
      <use x="1097.279297" xlink:href="#DejaVuSans-101"/>
      <use x="1158.802734" xlink:href="#DejaVuSans-110"/>
      <use x="1222.181641" xlink:href="#DejaVuSans-116"/>
      <use x="1261.390625" xlink:href="#DejaVuSans-32"/>
      <use x="1293.177734" xlink:href="#DejaVuSans-84"/>
      <use x="1354.027344" xlink:href="#DejaVuSans-117"/>
      <use x="1417.40625" xlink:href="#DejaVuSans-109"/>
      <use x="1514.818359" xlink:href="#DejaVuSans-111"/>
      <use x="1576" xlink:href="#DejaVuSans-114"/>
     </g>
     <!--  (morph units) -->
     <defs>
      <path d="M 31 75.875 
Q 24.46875 64.65625 21.28125 53.65625 
Q 18.109375 42.671875 18.109375 31.390625 
Q 18.109375 20.125 21.3125 9.0625 
Q 24.515625 -2 31 -13.1875 
L 23.1875 -13.1875 
Q 15.875 -1.703125 12.234375 9.375 
Q 8.59375 20.453125 8.59375 31.390625 
Q 8.59375 42.28125 12.203125 53.3125 
Q 15.828125 64.359375 23.1875 75.875 
z
" id="DejaVuSans-40"/>
      <path d="M 18.109375 8.203125 
L 18.109375 -20.796875 
L 9.078125 -20.796875 
L 9.078125 54.6875 
L 18.109375 54.6875 
L 18.109375 46.390625 
Q 20.953125 51.265625 25.265625 53.625 
Q 29.59375 56 35.59375 56 
Q 45.5625 56 51.78125 48.09375 
Q 58.015625 40.1875 58.015625 27.296875 
Q 58.015625 14.40625 51.78125 6.484375 
Q 45.5625 -1.421875 35.59375 -1.421875 
Q 29.59375 -1.421875 25.265625 0.953125 
Q 20.953125 3.328125 18.109375 8.203125 
z
M 48.6875 27.296875 
Q 48.6875 37.203125 44.609375 42.84375 
Q 40.53125 48.484375 33.40625 48.484375 
Q 26.265625 48.484375 22.1875 42.84375 
Q 18.109375 37.203125 18.109375 27.296875 
Q 18.109375 17.390625 22.1875 11.75 
Q 26.265625 6.109375 33.40625 6.109375 
Q 40.53125 6.109375 44.609375 11.75 
Q 48.6875 17.390625 48.6875 27.296875 
z
" id="DejaVuSans-112"/>
      <path d="M 54.890625 33.015625 
L 54.890625 0 
L 45.90625 0 
L 45.90625 32.71875 
Q 45.90625 40.484375 42.875 44.328125 
Q 39.84375 48.1875 33.796875 48.1875 
Q 26.515625 48.1875 22.3125 43.546875 
Q 18.109375 38.921875 18.109375 30.90625 
L 18.109375 0 
L 9.078125 0 
L 9.078125 75.984375 
L 18.109375 75.984375 
L 18.109375 46.1875 
Q 21.34375 51.125 25.703125 53.5625 
Q 30.078125 56 35.796875 56 
Q 45.21875 56 50.046875 50.171875 
Q 54.890625 44.34375 54.890625 33.015625 
z
" id="DejaVuSans-104"/>
      <path d="M 8.015625 75.875 
L 15.828125 75.875 
Q 23.140625 64.359375 26.78125 53.3125 
Q 30.421875 42.28125 30.421875 31.390625 
Q 30.421875 20.453125 26.78125 9.375 
Q 23.140625 -1.703125 15.828125 -13.1875 
L 8.015625 -13.1875 
Q 14.5 -2 17.703125 9.0625 
Q 20.90625 20.125 20.90625 31.390625 
Q 20.90625 42.671875 17.703125 53.65625 
Q 14.5 64.65625 8.015625 75.875 
z
" id="DejaVuSans-41"/>
     </defs>
     <g transform="translate(240.27875 352.648)scale(0.16 -0.16)">
      <use xlink:href="#DejaVuSans-32"/>
      <use x="31.787109" xlink:href="#DejaVuSans-40"/>
      <use x="70.800781" xlink:href="#DejaVuSans-109"/>
      <use x="168.212891" xlink:href="#DejaVuSans-111"/>
      <use x="229.394531" xlink:href="#DejaVuSans-114"/>
      <use x="270.507812" xlink:href="#DejaVuSans-112"/>
      <use x="333.984375" xlink:href="#DejaVuSans-104"/>
      <use x="397.363281" xlink:href="#DejaVuSans-32"/>
      <use x="429.150391" xlink:href="#DejaVuSans-117"/>
      <use x="492.529297" xlink:href="#DejaVuSans-110"/>
      <use x="555.908203" xlink:href="#DejaVuSans-105"/>
      <use x="583.691406" xlink:href="#DejaVuSans-116"/>
      <use x="622.900391" xlink:href="#DejaVuSans-115"/>
      <use x="675" xlink:href="#DejaVuSans-41"/>
     </g>
    </g>
   </g>
   <g id="matplotlib.axis_2">
    <g id="ytick_1">
     <g id="line2d_8">
      <defs>
       <path d="M 0 0 
L 6 0 
" id="mfe0093e06f" style="stroke:#000000;stroke-width:2;"/>
      </defs>
      <g>
       <use style="stroke:#000000;stroke-width:2;" x="157.8975" xlink:href="#mfe0093e06f" y="299.589"/>
      </g>
     </g>
     <g id="text_9">
      <!-- −3 -->
      <defs>
       <path d="M 10.59375 35.5 
L 73.1875 35.5 
L 73.1875 27.203125 
L 10.59375 27.203125 
z
" id="DejaVuSans-8722"/>
      </defs>
      <g transform="translate(130.81 305.66775)scale(0.16 -0.16)">
       <use xlink:href="#DejaVuSans-8722"/>
       <use x="83.789062" xlink:href="#DejaVuSans-51"/>
      </g>
     </g>
    </g>
    <g id="ytick_2">
     <g id="line2d_9">
      <g>
       <use style="stroke:#000000;stroke-width:2;" x="157.8975" xlink:href="#mfe0093e06f" y="254.289"/>
      </g>
     </g>
     <g id="text_10">
      <!-- −2 -->
      <g transform="translate(130.81 260.36775)scale(0.16 -0.16)">
       <use xlink:href="#DejaVuSans-8722"/>
       <use x="83.789062" xlink:href="#DejaVuSans-50"/>
      </g>
     </g>
    </g>
    <g id="ytick_3">
     <g id="line2d_10">
      <g>
       <use style="stroke:#000000;stroke-width:2;" x="157.8975" xlink:href="#mfe0093e06f" y="208.989"/>
      </g>
     </g>
     <g id="text_11">
      <!-- −1 -->
      <defs>
       <path d="M 12.40625 8.296875 
L 28.515625 8.296875 
L 28.515625 63.921875 
L 10.984375 60.40625 
L 10.984375 69.390625 
L 28.421875 72.90625 
L 38.28125 72.90625 
L 38.28125 8.296875 
L 54.390625 8.296875 
L 54.390625 0 
L 12.40625 0 
z
" id="DejaVuSans-49"/>
      </defs>
      <g transform="translate(130.81 215.06775)scale(0.16 -0.16)">
       <use xlink:href="#DejaVuSans-8722"/>
       <use x="83.789062" xlink:href="#DejaVuSans-49"/>
      </g>
     </g>
    </g>
    <g id="ytick_4">
     <g id="line2d_11">
      <g>
       <use style="stroke:#000000;stroke-width:2;" x="157.8975" xlink:href="#mfe0093e06f" y="163.689"/>
      </g>
     </g>
     <g id="text_12">
      <!-- 0 -->
      <g transform="translate(144.2175 169.76775)scale(0.16 -0.16)">
       <use xlink:href="#DejaVuSans-48"/>
      </g>
     </g>
    </g>
    <g id="ytick_5">
     <g id="line2d_12">
      <g>
       <use style="stroke:#000000;stroke-width:2;" x="157.8975" xlink:href="#mfe0093e06f" y="118.389"/>
      </g>
     </g>
     <g id="text_13">
      <!-- 1 -->
      <g transform="translate(144.2175 124.46775)scale(0.16 -0.16)">
       <use xlink:href="#DejaVuSans-49"/>
      </g>
     </g>
    </g>
    <g id="ytick_6">
     <g id="line2d_13">
      <g>
       <use style="stroke:#000000;stroke-width:2;" x="157.8975" xlink:href="#mfe0093e06f" y="73.089"/>
      </g>
     </g>
     <g id="text_14">
      <!-- 2 -->
      <g transform="translate(144.2175 79.16775)scale(0.16 -0.16)">
       <use xlink:href="#DejaVuSans-50"/>
      </g>
     </g>
    </g>
    <g id="ytick_7">
     <g id="line2d_14">
      <g>
       <use style="stroke:#000000;stroke-width:2;" x="157.8975" xlink:href="#mfe0093e06f" y="27.789"/>
      </g>
     </g>
     <g id="text_15">
      <!-- 3 -->
      <g transform="translate(144.2175 33.86775)scale(0.16 -0.16)">
       <use xlink:href="#DejaVuSans-51"/>
      </g>
     </g>
    </g>
    <g id="text_16">
     <!-- Response Error                        -->
     <defs>
      <path d="M 44.390625 34.1875 
Q 47.5625 33.109375 50.5625 29.59375 
Q 53.5625 26.078125 56.59375 19.921875 
L 66.609375 0 
L 56 0 
L 46.6875 18.703125 
Q 43.0625 26.03125 39.671875 28.421875 
Q 36.28125 30.8125 30.421875 30.8125 
L 19.671875 30.8125 
L 19.671875 0 
L 9.8125 0 
L 9.8125 72.90625 
L 32.078125 72.90625 
Q 44.578125 72.90625 50.734375 67.671875 
Q 56.890625 62.453125 56.890625 51.90625 
Q 56.890625 45.015625 53.6875 40.46875 
Q 50.484375 35.9375 44.390625 34.1875 
z
M 19.671875 64.796875 
L 19.671875 38.921875 
L 32.078125 38.921875 
Q 39.203125 38.921875 42.84375 42.21875 
Q 46.484375 45.515625 46.484375 51.90625 
Q 46.484375 58.296875 42.84375 61.546875 
Q 39.203125 64.796875 32.078125 64.796875 
z
" id="DejaVuSans-82"/>
      <path d="M 9.8125 72.90625 
L 55.90625 72.90625 
L 55.90625 64.59375 
L 19.671875 64.59375 
L 19.671875 43.015625 
L 54.390625 43.015625 
L 54.390625 34.71875 
L 19.671875 34.71875 
L 19.671875 8.296875 
L 56.78125 8.296875 
L 56.78125 0 
L 9.8125 0 
z
" id="DejaVuSans-69"/>
     </defs>
     <g transform="translate(7.2 106.612)scale(0.16 -0.16)">
      <use xlink:href="#DejaVuSans-82"/>
      <use x="69.419922" xlink:href="#DejaVuSans-101"/>
      <use x="130.943359" xlink:href="#DejaVuSans-115"/>
      <use x="183.042969" xlink:href="#DejaVuSans-112"/>
      <use x="246.519531" xlink:href="#DejaVuSans-111"/>
      <use x="307.701172" xlink:href="#DejaVuSans-110"/>
      <use x="371.080078" xlink:href="#DejaVuSans-115"/>
      <use x="423.179688" xlink:href="#DejaVuSans-101"/>
      <use x="484.703125" xlink:href="#DejaVuSans-32"/>
      <use x="516.490234" xlink:href="#DejaVuSans-69"/>
      <use x="579.673828" xlink:href="#DejaVuSans-114"/>
      <use x="620.771484" xlink:href="#DejaVuSans-114"/>
      <use x="661.853516" xlink:href="#DejaVuSans-111"/>
      <use x="723.035156" xlink:href="#DejaVuSans-114"/>
      <use x="764.148438" xlink:href="#DejaVuSans-32"/>
      <use x="795.935547" xlink:href="#DejaVuSans-32"/>
      <use x="827.722656" xlink:href="#DejaVuSans-32"/>
      <use x="859.509766" xlink:href="#DejaVuSans-32"/>
      <use x="891.296875" xlink:href="#DejaVuSans-32"/>
      <use x="923.083984" xlink:href="#DejaVuSans-32"/>
      <use x="954.871094" xlink:href="#DejaVuSans-32"/>
      <use x="986.658203" xlink:href="#DejaVuSans-32"/>
      <use x="1018.445312" xlink:href="#DejaVuSans-32"/>
      <use x="1050.232422" xlink:href="#DejaVuSans-32"/>
      <use x="1082.019531" xlink:href="#DejaVuSans-32"/>
      <use x="1113.806641" xlink:href="#DejaVuSans-32"/>
      <use x="1145.59375" xlink:href="#DejaVuSans-32"/>
      <use x="1177.380859" xlink:href="#DejaVuSans-32"/>
      <use x="1209.167969" xlink:href="#DejaVuSans-32"/>
      <use x="1240.955078" xlink:href="#DejaVuSans-32"/>
      <use x="1272.742188" xlink:href="#DejaVuSans-32"/>
      <use x="1304.529297" xlink:href="#DejaVuSans-32"/>
      <use x="1336.316406" xlink:href="#DejaVuSans-32"/>
      <use x="1368.103516" xlink:href="#DejaVuSans-32"/>
      <use x="1399.890625" xlink:href="#DejaVuSans-32"/>
      <use x="1431.677734" xlink:href="#DejaVuSans-32"/>
      <use x="1463.464844" xlink:href="#DejaVuSans-32"/>
     </g>
     <!-- on                        -->
     <g transform="translate(58.3675 124.5285)scale(0.16 -0.16)">
      <use xlink:href="#DejaVuSans-111"/>
      <use x="61.181641" xlink:href="#DejaVuSans-110"/>
      <use x="124.560547" xlink:href="#DejaVuSans-32"/>
      <use x="156.347656" xlink:href="#DejaVuSans-32"/>
      <use x="188.134766" xlink:href="#DejaVuSans-32"/>
      <use x="219.921875" xlink:href="#DejaVuSans-32"/>
      <use x="251.708984" xlink:href="#DejaVuSans-32"/>
      <use x="283.496094" xlink:href="#DejaVuSans-32"/>
      <use x="315.283203" xlink:href="#DejaVuSans-32"/>
      <use x="347.070312" xlink:href="#DejaVuSans-32"/>
      <use x="378.857422" xlink:href="#DejaVuSans-32"/>
      <use x="410.644531" xlink:href="#DejaVuSans-32"/>
      <use x="442.431641" xlink:href="#DejaVuSans-32"/>
      <use x="474.21875" xlink:href="#DejaVuSans-32"/>
      <use x="506.005859" xlink:href="#DejaVuSans-32"/>
      <use x="537.792969" xlink:href="#DejaVuSans-32"/>
      <use x="569.580078" xlink:href="#DejaVuSans-32"/>
      <use x="601.367188" xlink:href="#DejaVuSans-32"/>
      <use x="633.154297" xlink:href="#DejaVuSans-32"/>
      <use x="664.941406" xlink:href="#DejaVuSans-32"/>
      <use x="696.728516" xlink:href="#DejaVuSans-32"/>
      <use x="728.515625" xlink:href="#DejaVuSans-32"/>
      <use x="760.302734" xlink:href="#DejaVuSans-32"/>
      <use x="792.089844" xlink:href="#DejaVuSans-32"/>
      <use x="823.876953" xlink:href="#DejaVuSans-32"/>
     </g>
     <!-- Current Trial                        -->
     <defs>
      <path d="M 34.28125 27.484375 
Q 23.390625 27.484375 19.1875 25 
Q 14.984375 22.515625 14.984375 16.5 
Q 14.984375 11.71875 18.140625 8.90625 
Q 21.296875 6.109375 26.703125 6.109375 
Q 34.1875 6.109375 38.703125 11.40625 
Q 43.21875 16.703125 43.21875 25.484375 
L 43.21875 27.484375 
z
M 52.203125 31.203125 
L 52.203125 0 
L 43.21875 0 
L 43.21875 8.296875 
Q 40.140625 3.328125 35.546875 0.953125 
Q 30.953125 -1.421875 24.3125 -1.421875 
Q 15.921875 -1.421875 10.953125 3.296875 
Q 6 8.015625 6 15.921875 
Q 6 25.140625 12.171875 29.828125 
Q 18.359375 34.515625 30.609375 34.515625 
L 43.21875 34.515625 
L 43.21875 35.40625 
Q 43.21875 41.609375 39.140625 45 
Q 35.0625 48.390625 27.6875 48.390625 
Q 23 48.390625 18.546875 47.265625 
Q 14.109375 46.140625 10.015625 43.890625 
L 10.015625 52.203125 
Q 14.9375 54.109375 19.578125 55.046875 
Q 24.21875 56 28.609375 56 
Q 40.484375 56 46.34375 49.84375 
Q 52.203125 43.703125 52.203125 31.203125 
z
" id="DejaVuSans-97"/>
      <path d="M 9.421875 75.984375 
L 18.40625 75.984375 
L 18.40625 0 
L 9.421875 0 
z
" id="DejaVuSans-108"/>
     </defs>
     <g transform="translate(17.92625 142.445)scale(0.16 -0.16)">
      <use xlink:href="#DejaVuSans-67"/>
      <use x="69.824219" xlink:href="#DejaVuSans-117"/>
      <use x="133.203125" xlink:href="#DejaVuSans-114"/>
      <use x="174.300781" xlink:href="#DejaVuSans-114"/>
      <use x="215.382812" xlink:href="#DejaVuSans-101"/>
      <use x="276.90625" xlink:href="#DejaVuSans-110"/>
      <use x="340.285156" xlink:href="#DejaVuSans-116"/>
      <use x="379.494141" xlink:href="#DejaVuSans-32"/>
      <use x="411.28125" xlink:href="#DejaVuSans-84"/>
      <use x="472.146484" xlink:href="#DejaVuSans-114"/>
      <use x="513.259766" xlink:href="#DejaVuSans-105"/>
      <use x="541.042969" xlink:href="#DejaVuSans-97"/>
      <use x="602.322266" xlink:href="#DejaVuSans-108"/>
      <use x="630.105469" xlink:href="#DejaVuSans-32"/>
      <use x="661.892578" xlink:href="#DejaVuSans-32"/>
      <use x="693.679688" xlink:href="#DejaVuSans-32"/>
      <use x="725.466797" xlink:href="#DejaVuSans-32"/>
      <use x="757.253906" xlink:href="#DejaVuSans-32"/>
      <use x="789.041016" xlink:href="#DejaVuSans-32"/>
      <use x="820.828125" xlink:href="#DejaVuSans-32"/>
      <use x="852.615234" xlink:href="#DejaVuSans-32"/>
      <use x="884.402344" xlink:href="#DejaVuSans-32"/>
      <use x="916.189453" xlink:href="#DejaVuSans-32"/>
      <use x="947.976562" xlink:href="#DejaVuSans-32"/>
      <use x="979.763672" xlink:href="#DejaVuSans-32"/>
      <use x="1011.550781" xlink:href="#DejaVuSans-32"/>
      <use x="1043.337891" xlink:href="#DejaVuSans-32"/>
      <use x="1075.125" xlink:href="#DejaVuSans-32"/>
      <use x="1106.912109" xlink:href="#DejaVuSans-32"/>
      <use x="1138.699219" xlink:href="#DejaVuSans-32"/>
      <use x="1170.486328" xlink:href="#DejaVuSans-32"/>
      <use x="1202.273438" xlink:href="#DejaVuSans-32"/>
      <use x="1234.060547" xlink:href="#DejaVuSans-32"/>
      <use x="1265.847656" xlink:href="#DejaVuSans-32"/>
      <use x="1297.634766" xlink:href="#DejaVuSans-32"/>
      <use x="1329.421875" xlink:href="#DejaVuSans-32"/>
     </g>
     <!-- (morph units)                        -->
     <g transform="translate(13.75625 160.3615)scale(0.16 -0.16)">
      <use xlink:href="#DejaVuSans-40"/>
      <use x="39.013672" xlink:href="#DejaVuSans-109"/>
      <use x="136.425781" xlink:href="#DejaVuSans-111"/>
      <use x="197.607422" xlink:href="#DejaVuSans-114"/>
      <use x="238.720703" xlink:href="#DejaVuSans-112"/>
      <use x="302.197266" xlink:href="#DejaVuSans-104"/>
      <use x="365.576172" xlink:href="#DejaVuSans-32"/>
      <use x="397.363281" xlink:href="#DejaVuSans-117"/>
      <use x="460.742188" xlink:href="#DejaVuSans-110"/>
      <use x="524.121094" xlink:href="#DejaVuSans-105"/>
      <use x="551.904297" xlink:href="#DejaVuSans-116"/>
      <use x="591.113281" xlink:href="#DejaVuSans-115"/>
      <use x="643.212891" xlink:href="#DejaVuSans-41"/>
      <use x="682.226562" xlink:href="#DejaVuSans-32"/>
      <use x="714.013672" xlink:href="#DejaVuSans-32"/>
      <use x="745.800781" xlink:href="#DejaVuSans-32"/>
      <use x="777.587891" xlink:href="#DejaVuSans-32"/>
      <use x="809.375" xlink:href="#DejaVuSans-32"/>
      <use x="841.162109" xlink:href="#DejaVuSans-32"/>
      <use x="872.949219" xlink:href="#DejaVuSans-32"/>
      <use x="904.736328" xlink:href="#DejaVuSans-32"/>
      <use x="936.523438" xlink:href="#DejaVuSans-32"/>
      <use x="968.310547" xlink:href="#DejaVuSans-32"/>
      <use x="1000.097656" xlink:href="#DejaVuSans-32"/>
      <use x="1031.884766" xlink:href="#DejaVuSans-32"/>
      <use x="1063.671875" xlink:href="#DejaVuSans-32"/>
      <use x="1095.458984" xlink:href="#DejaVuSans-32"/>
      <use x="1127.246094" xlink:href="#DejaVuSans-32"/>
      <use x="1159.033203" xlink:href="#DejaVuSans-32"/>
      <use x="1190.820312" xlink:href="#DejaVuSans-32"/>
      <use x="1222.607422" xlink:href="#DejaVuSans-32"/>
      <use x="1254.394531" xlink:href="#DejaVuSans-32"/>
      <use x="1286.181641" xlink:href="#DejaVuSans-32"/>
      <use x="1317.96875" xlink:href="#DejaVuSans-32"/>
      <use x="1349.755859" xlink:href="#DejaVuSans-32"/>
      <use x="1381.542969" xlink:href="#DejaVuSans-32"/>
     </g>
    </g>
   </g>
   <g id="line2d_15">
    <path clip-path="url(#p54e1a3249b)" d="M 157.8975 162.11263 
L 159.808459 172.400311 
L 161.719418 180.113776 
L 163.630377 171.238862 
L 165.541336 170.503246 
L 167.452295 172.594388 
L 169.363253 177.915454 
L 171.274212 179.958614 
L 173.185171 188.466988 
L 175.09613 186.437602 
L 177.007089 182.530618 
L 178.918048 180.840921 
L 180.829007 180.433231 
L 182.739966 192.759726 
L 184.650925 187.413261 
L 186.561884 188.617334 
L 188.472842 190.892422 
L 192.29476 178.119848 
L 194.205719 181.193165 
L 196.116678 187.707892 
L 198.027637 190.656166 
L 199.938596 184.347793 
L 201.849555 184.465263 
L 203.760514 193.971517 
L 205.671473 202.123508 
L 207.582432 208.256415 
L 209.49339 219.008677 
L 211.404349 216.326228 
L 213.315308 228.919425 
L 215.226267 231.400912 
L 217.137226 234.594765 
L 219.048185 238.140728 
L 220.959144 237.235871 
L 222.870103 240.816085 
L 224.781062 238.015291 
L 226.692021 241.314667 
L 228.602979 241.441632 
L 230.513938 244.027707 
L 232.424897 237.591662 
L 234.335856 240.441143 
L 236.246815 248.641813 
L 238.157774 248.421127 
L 241.979692 257.735958 
L 243.890651 257.833808 
L 245.80161 259.321074 
L 247.712568 250.048276 
L 249.623527 257.228955 
L 251.534486 263.007347 
L 253.445445 255.862699 
L 255.356404 242.665828 
L 257.267363 248.838663 
L 259.178322 251.877814 
L 261.089281 249.224745 
L 263.00024 244.661352 
L 264.911199 234.329912 
L 266.822158 238.718435 
L 268.733116 234.377709 
L 270.644075 233.725531 
L 272.555034 225.713959 
L 274.465993 221.928724 
L 276.376952 220.16639 
L 278.287911 203.8372 
L 280.19887 206.986764 
L 282.109829 199.671228 
L 284.020788 203.533589 
L 285.931747 191.946459 
L 287.842705 174.184789 
L 289.753664 166.645914 
L 291.664623 171.911458 
L 293.575582 172.935427 
L 295.486541 155.19234 
L 297.3975 151.586437 
L 299.308459 155.276145 
L 301.219418 138.725583 
L 303.130377 143.609115 
L 305.041336 138.000138 
L 306.952295 137.020283 
L 308.863253 123.87058 
L 310.774212 130.077449 
L 312.685171 114.391366 
L 314.59613 115.519639 
L 316.507089 106.850341 
L 318.418048 96.372709 
L 320.329007 97.064962 
L 322.239966 93.06553 
L 324.150925 90.957098 
L 326.061884 90.855881 
L 327.972842 96.630976 
L 329.883801 91.898173 
L 331.79476 99.256732 
L 335.616678 98.509972 
L 337.527637 99.006289 
L 339.438596 93.635571 
L 341.349555 96.372033 
L 343.260514 91.154069 
L 345.171473 91.642903 
L 347.082432 97.432246 
L 348.99339 103.858415 
L 350.904349 98.764335 
L 352.815308 93.286521 
L 354.726267 92.673037 
L 356.637226 91.75199 
L 358.548185 76.942598 
L 360.459144 86.860919 
L 362.370103 79.748791 
L 364.281062 79.561333 
L 366.192021 78.869428 
L 368.102979 86.639324 
L 370.013938 77.261407 
L 371.924897 93.114303 
L 373.835856 99.403039 
L 375.746815 102.296225 
L 377.657774 106.01706 
L 379.568733 107.312145 
L 381.479692 106.640832 
L 383.390651 107.294875 
L 385.30161 113.318564 
L 387.212568 109.201805 
L 389.123527 110.007989 
L 391.034486 103.401168 
L 392.945445 103.713703 
L 394.856404 104.561096 
L 396.767363 108.273811 
L 398.678322 118.279715 
L 400.589281 121.502983 
L 402.50024 126.603438 
L 404.411199 124.557246 
L 406.322158 134.901428 
L 408.233116 129.261802 
L 410.144075 144.746109 
L 412.055034 152.888128 
L 413.965993 163.496987 
L 415.876952 170.628684 
L 417.787911 176.730233 
L 419.69887 172.392194 
L 421.609829 192.231364 
L 423.520788 192.89807 
L 425.431747 192.605734 
L 427.342705 191.060089 
L 429.253664 183.114441 
L 431.164623 175.684777 
L 433.075582 177.782086 
L 434.986541 171.2509 
L 436.8975 162.11263 
L 436.8975 162.11263 
" style="fill:none;stroke:#4169e1;stroke-linecap:square;stroke-width:1.5;"/>
   </g>
   <g id="line2d_16">
    <path clip-path="url(#p54e1a3249b)" d="M 157.8975 163.689 
L 169.363253 174.253105 
L 177.007089 181.607689 
L 182.739966 187.408112 
L 188.472842 193.516739 
L 194.205719 199.972676 
L 199.938596 206.789515 
L 205.671473 213.945696 
L 213.315308 223.889248 
L 224.781062 238.910973 
L 228.602979 243.647675 
L 232.424897 248.076065 
L 236.246815 252.067595 
L 238.157774 253.855369 
L 240.068733 255.479385 
L 241.979692 256.92007 
L 243.890651 258.157439 
L 245.80161 259.171273 
L 247.712568 259.941323 
L 249.623527 260.447538 
L 251.534486 260.670313 
L 253.445445 260.590754 
L 255.356404 260.190955 
L 257.267363 259.454298 
L 259.178322 258.365743 
L 261.089281 256.912137 
L 263.00024 255.082504 
L 264.911199 252.868338 
L 266.822158 250.263872 
L 268.733116 247.266325 
L 270.644075 243.876121 
L 272.555034 240.09707 
L 274.465993 235.936511 
L 276.376952 231.405397 
L 278.287911 226.518341 
L 282.109829 215.752973 
L 285.931747 203.828303 
L 289.753664 190.983462 
L 295.486541 170.615062 
L 305.041336 136.394538 
L 308.863253 123.549697 
L 312.685171 111.625027 
L 316.507089 100.859659 
L 318.418048 95.972603 
L 320.329007 91.441489 
L 322.239966 87.28093 
L 324.150925 83.501879 
L 326.061884 80.111675 
L 327.972842 77.114128 
L 329.883801 74.509662 
L 331.79476 72.295496 
L 333.705719 70.465863 
L 335.616678 69.012257 
L 337.527637 67.923702 
L 339.438596 67.187045 
L 341.349555 66.787246 
L 343.260514 66.707687 
L 345.171473 66.930462 
L 347.082432 67.436677 
L 348.99339 68.206727 
L 350.904349 69.220561 
L 352.815308 70.45793 
L 354.726267 71.898615 
L 356.637226 73.522631 
L 360.459144 77.242937 
L 364.281062 81.469921 
L 368.102979 86.067551 
L 373.835856 93.399725 
L 391.034486 115.852292 
L 396.767363 122.900376 
L 402.50024 129.597355 
L 408.233116 135.934572 
L 413.965993 141.9351 
L 419.69887 147.644739 
L 427.342705 154.912778 
L 436.8975 163.689 
L 436.8975 163.689 
" style="fill:none;stroke:#ff0000;stroke-linecap:square;stroke-width:3.5;"/>
   </g>
   <g id="patch_3">
    <path d="M 157.8975 299.589 
L 157.8975 27.789 
" style="fill:none;stroke:#000000;stroke-linecap:square;stroke-linejoin:miter;stroke-width:2;"/>
   </g>
   <g id="patch_4">
    <path d="M 157.8975 299.589 
L 436.8975 299.589 
" style="fill:none;stroke:#000000;stroke-linecap:square;stroke-linejoin:miter;stroke-width:2;"/>
   </g>
   <g id="text_17">
    <!-- Naives -->
    <defs>
     <path d="M 9.8125 72.90625 
L 23.09375 72.90625 
L 55.421875 11.921875 
L 55.421875 72.90625 
L 64.984375 72.90625 
L 64.984375 0 
L 51.703125 0 
L 19.390625 60.984375 
L 19.390625 0 
L 9.8125 0 
z
" id="DejaVuSans-78"/>
    </defs>
    <g transform="translate(265.0755 21.789)scale(0.192 -0.192)">
     <use xlink:href="#DejaVuSans-78"/>
     <use x="74.804688" xlink:href="#DejaVuSans-97"/>
     <use x="136.083984" xlink:href="#DejaVuSans-105"/>
     <use x="163.867188" xlink:href="#DejaVuSans-118"/>
     <use x="223.046875" xlink:href="#DejaVuSans-101"/>
     <use x="284.570312" xlink:href="#DejaVuSans-115"/>
    </g>
   </g>
  </g>
 </g>
 <defs>
  <clipPath id="p54e1a3249b">
   <rect height="271.8" width="279" x="157.8975" y="27.789"/>
  </clipPath>
 </defs>
</svg>
