<?xml version="1.0" encoding="utf-8" standalone="no"?>
<!DOCTYPE svg PUBLIC "-//W3C//DTD SVG 1.1//EN"
  "http://www.w3.org/Graphics/SVG/1.1/DTD/svg11.dtd">
<!-- Created with matplotlib (https://matplotlib.org/) -->
<svg height="363.1755pt" version="1.1" viewBox="0 0 368.069 363.1755" width="368.069pt" xmlns="http://www.w3.org/2000/svg" xmlns:xlink="http://www.w3.org/1999/xlink">
 <defs>
  <style type="text/css">
*{stroke-linecap:butt;stroke-linejoin:round;}
  </style>
 </defs>
 <g id="figure_1">
  <g id="patch_1">
   <path d="M 0 363.1755 
L 368.069 363.1755 
L 368.069 0 
L 0 0 
z
" style="fill:#ffffff;"/>
  </g>
  <g id="axes_1">
   <g id="patch_2">
    <path d="M 71.689 299.589 
L 350.689 299.589 
L 350.689 27.789 
L 71.689 27.789 
z
" style="fill:#ffffff;"/>
   </g>
   <g id="PolyCollection_1">
    <defs>
     <path d="M 71.689 -231.03856 
L 71.689 -171.08718 
L 73.599959 -160.224614 
L 75.510918 -152.510753 
L 77.421877 -163.221979 
L 79.332836 -162.682236 
L 81.243795 -161.453362 
L 83.154753 -156.141192 
L 85.065712 -156.745657 
L 86.976671 -148.334378 
L 88.88763 -149.051234 
L 90.798589 -152.521272 
L 92.709548 -155.373634 
L 94.620507 -156.172876 
L 96.531466 -146.378139 
L 98.442425 -154.075172 
L 100.353384 -153.147518 
L 102.264342 -148.412046 
L 104.175301 -154.571374 
L 106.08626 -162.623371 
L 107.997219 -162.122438 
L 109.908178 -152.342345 
L 111.819137 -149.051335 
L 113.730096 -155.210782 
L 115.641055 -156.105944 
L 117.552014 -145.532561 
L 119.462973 -134.697783 
L 121.373932 -126.236488 
L 123.28489 -112.367608 
L 125.195849 -113.563169 
L 127.106808 -103.800847 
L 129.017767 -101.879344 
L 130.928726 -99.554263 
L 132.839685 -95.992788 
L 134.750644 -96.84274 
L 136.661603 -95.016202 
L 138.572562 -97.881494 
L 140.483521 -93.485324 
L 142.394479 -94.685712 
L 144.305438 -92.330422 
L 146.216397 -100.235758 
L 148.127356 -96.431812 
L 150.038315 -86.379674 
L 151.949274 -89.607293 
L 153.860233 -85.93404 
L 155.771192 -81.179837 
L 157.682151 -73.799655 
L 159.59311 -74.927981 
L 161.504068 -85.197324 
L 163.415027 -76.715876 
L 165.325986 -71.52431 
L 167.236945 -80.356775 
L 169.147904 -93.945399 
L 171.058863 -87.832141 
L 172.969822 -84.118887 
L 174.880781 -87.921811 
L 176.79174 -93.198763 
L 178.702699 -104.808976 
L 180.613658 -102.798448 
L 182.524616 -107.101953 
L 184.435575 -108.191158 
L 186.346534 -117.125032 
L 188.257493 -119.893849 
L 190.168452 -119.681631 
L 192.079411 -136.651136 
L 193.99037 -134.003378 
L 195.901329 -140.111471 
L 197.812288 -129.992148 
L 199.723247 -138.829034 
L 201.634205 -156.02949 
L 203.545164 -164.314078 
L 205.456123 -163.644231 
L 207.367082 -161.7964 
L 209.278041 -179.451013 
L 211.189 -181.909644 
L 213.099959 -177.063956 
L 215.010918 -191.820204 
L 216.921877 -187.840937 
L 218.832836 -192.903409 
L 220.743795 -192.343193 
L 222.654753 -206.308832 
L 224.565712 -202.45798 
L 226.476671 -218.782384 
L 228.38763 -217.139735 
L 230.298589 -225.600341 
L 232.209548 -238.261036 
L 234.120507 -237.616566 
L 236.031466 -240.33312 
L 237.942425 -240.312895 
L 239.853384 -240.277301 
L 241.764342 -234.734706 
L 243.675301 -241.236734 
L 245.58626 -233.890468 
L 247.497219 -234.265616 
L 249.408178 -235.595998 
L 251.319137 -231.002643 
L 253.230096 -236.787625 
L 255.141055 -234.104962 
L 257.052014 -241.007606 
L 258.962973 -239.669015 
L 260.873932 -233.94176 
L 262.78489 -226.933519 
L 264.695849 -229.871987 
L 266.606808 -235.624755 
L 268.517767 -238.07362 
L 270.428726 -240.151415 
L 272.339685 -253.442559 
L 274.250644 -240.31276 
L 276.161603 -246.120839 
L 278.072562 -244.559087 
L 279.983521 -246.33876 
L 281.894479 -235.734318 
L 283.805438 -241.583714 
L 285.716397 -229.652095 
L 287.627356 -226.98592 
L 289.538315 -224.305319 
L 291.449274 -222.411354 
L 293.360233 -220.846318 
L 295.271192 -225.211281 
L 297.182151 -226.345945 
L 299.09311 -219.493134 
L 301.004068 -226.031894 
L 302.915027 -224.494596 
L 304.825986 -229.267854 
L 306.736945 -227.235615 
L 308.647904 -225.92517 
L 310.558863 -215.755272 
L 312.469822 -207.756232 
L 314.380781 -202.926007 
L 316.29174 -199.853286 
L 318.202699 -202.197567 
L 320.113658 -193.067176 
L 322.024616 -201.738401 
L 323.935575 -189.118536 
L 325.846534 -177.109539 
L 327.757493 -164.278809 
L 329.668452 -155.988854 
L 331.579411 -149.219017 
L 333.49037 -156.530926 
L 335.401329 -136.996059 
L 337.312288 -136.980214 
L 339.223247 -140.250304 
L 341.134205 -140.984674 
L 343.045164 -151.382345 
L 344.956123 -159.875353 
L 346.867082 -158.36498 
L 348.778041 -163.522143 
L 350.689 -171.08718 
L 350.689 -231.03856 
L 350.689 -231.03856 
L 348.778041 -220.327057 
L 346.867082 -212.421849 
L 344.956123 -215.106093 
L 343.045164 -208.739774 
L 341.134205 -203.246148 
L 339.223247 -200.889229 
L 337.312288 -203.574646 
L 335.401329 -204.892213 
L 333.49037 -225.035686 
L 331.579411 -223.671517 
L 329.668452 -229.104778 
L 327.757493 -235.078216 
L 325.846534 -243.465205 
L 323.935575 -247.740246 
L 322.024616 -266.088995 
L 320.113658 -263.480968 
L 318.202699 -275.03894 
L 316.29174 -273.290837 
L 314.380781 -280.419027 
L 312.469822 -282.035338 
L 310.558863 -294.048105 
L 308.647904 -291.303638 
L 306.736945 -291.687979 
L 304.825986 -290.28081 
L 302.915027 -281.840426 
L 301.004068 -281.915496 
L 299.09311 -280.220738 
L 297.182151 -285.415306 
L 295.271192 -287.858055 
L 293.360233 -290.880392 
L 291.449274 -291.905527 
L 289.538315 -297.453232 
L 287.627356 -300.559002 
L 285.716397 -310.470299 
L 283.805438 -330.244472 
L 281.894479 -317.338033 
L 279.983521 -322.273383 
L 278.072562 -322.669248 
L 276.161603 -320.732579 
L 274.250644 -312.316401 
L 272.339685 -319.023246 
L 270.428726 -302.695604 
L 268.517767 -302.931305 
L 266.606808 -304.153202 
L 264.695849 -298.950342 
L 262.78489 -291.70065 
L 260.873932 -297.544748 
L 258.962973 -303.39618 
L 257.052014 -303.035257 
L 255.141055 -299.501972 
L 253.230096 -302.292233 
L 251.319137 -297.335778 
L 249.408178 -293.735059 
L 247.497219 -294.314621 
L 245.58626 -293.947068 
L 243.675301 -301.317919 
L 241.764342 -298.354342 
L 239.853384 -304.361936 
L 237.942425 -304.123908 
L 236.031466 -299.886819 
L 234.120507 -294.60451 
L 232.209548 -295.344546 
L 230.298589 -287.049978 
L 228.38763 -278.171986 
L 226.476671 -278.785884 
L 224.565712 -263.738123 
L 222.654753 -272.301008 
L 220.743795 -259.967242 
L 218.832836 -257.447316 
L 216.921877 -251.291833 
L 215.010918 -257.07963 
L 213.099959 -238.734753 
L 211.189 -241.268481 
L 209.278041 -236.515307 
L 207.367082 -218.683745 
L 205.456123 -218.883853 
L 203.545164 -228.745094 
L 201.634205 -221.951933 
L 199.723247 -203.629049 
L 197.812288 -189.291674 
L 195.901329 -186.897074 
L 193.99037 -178.374093 
L 192.079411 -182.025464 
L 190.168452 -166.33659 
L 188.257493 -162.599703 
L 186.346534 -157.798049 
L 184.435575 -150.70878 
L 182.524616 -150.493629 
L 180.613658 -146.115683 
L 178.702699 -152.882201 
L 176.79174 -143.829533 
L 174.880781 -139.9797 
L 172.969822 -138.476485 
L 171.058863 -140.841533 
L 169.147904 -147.073946 
L 167.236945 -134.268827 
L 165.325986 -128.811996 
L 163.415027 -135.177214 
L 161.504068 -141.057124 
L 159.59311 -132.780872 
L 157.682151 -136.88373 
L 155.771192 -129.699248 
L 153.860233 -133.974683 
L 151.949274 -139.901453 
L 150.038315 -142.687699 
L 148.127356 -149.036901 
L 146.216397 -150.931918 
L 144.305438 -145.965163 
L 142.394479 -148.782024 
L 140.483521 -150.236341 
L 138.572562 -152.438925 
L 136.661603 -149.702627 
L 134.750644 -155.036518 
L 132.839685 -154.076757 
L 130.928726 -157.607206 
L 129.017767 -161.669831 
L 127.106808 -164.711302 
L 125.195849 -180.135375 
L 123.28489 -175.966038 
L 121.373932 -183.601681 
L 119.462973 -187.406201 
L 117.552014 -192.875405 
L 115.641055 -201.314529 
L 113.730096 -202.444631 
L 111.819137 -195.987334 
L 109.908178 -198.59287 
L 107.997219 -201.842233 
L 106.08626 -207.487932 
L 104.175301 -202.755396 
L 102.264342 -196.154109 
L 100.353384 -195.968814 
L 98.442425 -197.449305 
L 96.531466 -194.453409 
L 94.620507 -209.311661 
L 92.709548 -209.295523 
L 90.798589 -208.768493 
L 88.88763 -204.424561 
L 86.976671 -201.082647 
L 85.065712 -209.688116 
L 83.154753 -214.3789 
L 81.243795 -219.708862 
L 79.332836 -222.662273 
L 77.421877 -220.651297 
L 75.510918 -213.612694 
L 73.599959 -221.325763 
L 71.689 -231.03856 
z
" id="mf217bc003c" style="stroke:#87ceeb;stroke-opacity:0.2;"/>
    </defs>
    <g clip-path="url(#p4ca0f4cd81)">
     <use style="fill:#87ceeb;fill-opacity:0.2;stroke:#87ceeb;stroke-opacity:0.2;" x="0" xlink:href="#mf217bc003c" y="363.1755"/>
    </g>
   </g>
   <g id="matplotlib.axis_1">
    <g id="xtick_1">
     <g id="line2d_1">
      <defs>
       <path d="M 0 0 
L 0 -6 
" id="m4f4399a5d7" style="stroke:#000000;stroke-width:2;"/>
      </defs>
      <g>
       <use style="stroke:#000000;stroke-width:2;" x="71.689" xlink:href="#m4f4399a5d7" y="299.589"/>
      </g>
     </g>
     <g id="text_1">
      <!-- -73 -->
      <defs>
       <path d="M 4.890625 31.390625 
L 31.203125 31.390625 
L 31.203125 23.390625 
L 4.890625 23.390625 
z
" id="DejaVuSans-45"/>
       <path d="M 8.203125 72.90625 
L 55.078125 72.90625 
L 55.078125 68.703125 
L 28.609375 0 
L 18.3125 0 
L 43.21875 64.59375 
L 8.203125 64.59375 
z
" id="DejaVuSans-55"/>
       <path d="M 40.578125 39.3125 
Q 47.65625 37.796875 51.625 33 
Q 55.609375 28.21875 55.609375 21.1875 
Q 55.609375 10.40625 48.1875 4.484375 
Q 40.765625 -1.421875 27.09375 -1.421875 
Q 22.515625 -1.421875 17.65625 -0.515625 
Q 12.796875 0.390625 7.625 2.203125 
L 7.625 11.71875 
Q 11.71875 9.328125 16.59375 8.109375 
Q 21.484375 6.890625 26.8125 6.890625 
Q 36.078125 6.890625 40.9375 10.546875 
Q 45.796875 14.203125 45.796875 21.1875 
Q 45.796875 27.640625 41.28125 31.265625 
Q 36.765625 34.90625 28.71875 34.90625 
L 20.21875 34.90625 
L 20.21875 43.015625 
L 29.109375 43.015625 
Q 36.375 43.015625 40.234375 45.921875 
Q 44.09375 48.828125 44.09375 54.296875 
Q 44.09375 59.90625 40.109375 62.90625 
Q 36.140625 65.921875 28.71875 65.921875 
Q 24.65625 65.921875 20.015625 65.03125 
Q 15.375 64.15625 9.8125 62.3125 
L 9.8125 71.09375 
Q 15.4375 72.65625 20.34375 73.4375 
Q 25.25 74.21875 29.59375 74.21875 
Q 40.828125 74.21875 47.359375 69.109375 
Q 53.90625 64.015625 53.90625 55.328125 
Q 53.90625 49.265625 50.4375 45.09375 
Q 46.96875 40.921875 40.578125 39.3125 
z
" id="DejaVuSans-51"/>
      </defs>
      <g transform="translate(58.62275 315.2465)scale(0.16 -0.16)">
       <use xlink:href="#DejaVuSans-45"/>
       <use x="36.083984" xlink:href="#DejaVuSans-55"/>
       <use x="99.707031" xlink:href="#DejaVuSans-51"/>
      </g>
     </g>
    </g>
    <g id="xtick_2">
     <g id="line2d_2">
      <g>
       <use style="stroke:#000000;stroke-width:2;" x="115.641055" xlink:href="#m4f4399a5d7" y="299.589"/>
      </g>
     </g>
     <g id="text_2">
      <!-- -50 -->
      <defs>
       <path d="M 10.796875 72.90625 
L 49.515625 72.90625 
L 49.515625 64.59375 
L 19.828125 64.59375 
L 19.828125 46.734375 
Q 21.96875 47.46875 24.109375 47.828125 
Q 26.265625 48.1875 28.421875 48.1875 
Q 40.625 48.1875 47.75 41.5 
Q 54.890625 34.8125 54.890625 23.390625 
Q 54.890625 11.625 47.5625 5.09375 
Q 40.234375 -1.421875 26.90625 -1.421875 
Q 22.3125 -1.421875 17.546875 -0.640625 
Q 12.796875 0.140625 7.71875 1.703125 
L 7.71875 11.625 
Q 12.109375 9.234375 16.796875 8.0625 
Q 21.484375 6.890625 26.703125 6.890625 
Q 35.15625 6.890625 40.078125 11.328125 
Q 45.015625 15.765625 45.015625 23.390625 
Q 45.015625 31 40.078125 35.4375 
Q 35.15625 39.890625 26.703125 39.890625 
Q 22.75 39.890625 18.8125 39.015625 
Q 14.890625 38.140625 10.796875 36.28125 
z
" id="DejaVuSans-53"/>
       <path d="M 31.78125 66.40625 
Q 24.171875 66.40625 20.328125 58.90625 
Q 16.5 51.421875 16.5 36.375 
Q 16.5 21.390625 20.328125 13.890625 
Q 24.171875 6.390625 31.78125 6.390625 
Q 39.453125 6.390625 43.28125 13.890625 
Q 47.125 21.390625 47.125 36.375 
Q 47.125 51.421875 43.28125 58.90625 
Q 39.453125 66.40625 31.78125 66.40625 
z
M 31.78125 74.21875 
Q 44.046875 74.21875 50.515625 64.515625 
Q 56.984375 54.828125 56.984375 36.375 
Q 56.984375 17.96875 50.515625 8.265625 
Q 44.046875 -1.421875 31.78125 -1.421875 
Q 19.53125 -1.421875 13.0625 8.265625 
Q 6.59375 17.96875 6.59375 36.375 
Q 6.59375 54.828125 13.0625 64.515625 
Q 19.53125 74.21875 31.78125 74.21875 
z
" id="DejaVuSans-48"/>
      </defs>
      <g transform="translate(102.574805 315.2465)scale(0.16 -0.16)">
       <use xlink:href="#DejaVuSans-45"/>
       <use x="36.083984" xlink:href="#DejaVuSans-53"/>
       <use x="99.707031" xlink:href="#DejaVuSans-48"/>
      </g>
     </g>
    </g>
    <g id="xtick_3">
     <g id="line2d_3">
      <g>
       <use style="stroke:#000000;stroke-width:2;" x="163.415027" xlink:href="#m4f4399a5d7" y="299.589"/>
      </g>
     </g>
     <g id="text_3">
      <!-- -25 -->
      <defs>
       <path d="M 19.1875 8.296875 
L 53.609375 8.296875 
L 53.609375 0 
L 7.328125 0 
L 7.328125 8.296875 
Q 12.9375 14.109375 22.625 23.890625 
Q 32.328125 33.6875 34.8125 36.53125 
Q 39.546875 41.84375 41.421875 45.53125 
Q 43.3125 49.21875 43.3125 52.78125 
Q 43.3125 58.59375 39.234375 62.25 
Q 35.15625 65.921875 28.609375 65.921875 
Q 23.96875 65.921875 18.8125 64.3125 
Q 13.671875 62.703125 7.8125 59.421875 
L 7.8125 69.390625 
Q 13.765625 71.78125 18.9375 73 
Q 24.125 74.21875 28.421875 74.21875 
Q 39.75 74.21875 46.484375 68.546875 
Q 53.21875 62.890625 53.21875 53.421875 
Q 53.21875 48.921875 51.53125 44.890625 
Q 49.859375 40.875 45.40625 35.40625 
Q 44.1875 33.984375 37.640625 27.21875 
Q 31.109375 20.453125 19.1875 8.296875 
z
" id="DejaVuSans-50"/>
      </defs>
      <g transform="translate(150.348777 315.2465)scale(0.16 -0.16)">
       <use xlink:href="#DejaVuSans-45"/>
       <use x="36.083984" xlink:href="#DejaVuSans-50"/>
       <use x="99.707031" xlink:href="#DejaVuSans-53"/>
      </g>
     </g>
    </g>
    <g id="xtick_4">
     <g id="line2d_4">
      <g>
       <use style="stroke:#000000;stroke-width:2;" x="211.189" xlink:href="#m4f4399a5d7" y="299.589"/>
      </g>
     </g>
     <g id="text_4">
      <!-- 0 -->
      <g transform="translate(206.099 315.2465)scale(0.16 -0.16)">
       <use xlink:href="#DejaVuSans-48"/>
      </g>
     </g>
    </g>
    <g id="xtick_5">
     <g id="line2d_5">
      <g>
       <use style="stroke:#000000;stroke-width:2;" x="258.962973" xlink:href="#m4f4399a5d7" y="299.589"/>
      </g>
     </g>
     <g id="text_5">
      <!-- 25 -->
      <g transform="translate(248.782973 315.2465)scale(0.16 -0.16)">
       <use xlink:href="#DejaVuSans-50"/>
       <use x="63.623047" xlink:href="#DejaVuSans-53"/>
      </g>
     </g>
    </g>
    <g id="xtick_6">
     <g id="line2d_6">
      <g>
       <use style="stroke:#000000;stroke-width:2;" x="306.736945" xlink:href="#m4f4399a5d7" y="299.589"/>
      </g>
     </g>
     <g id="text_6">
      <!-- 50 -->
      <g transform="translate(296.556945 315.2465)scale(0.16 -0.16)">
       <use xlink:href="#DejaVuSans-53"/>
       <use x="63.623047" xlink:href="#DejaVuSans-48"/>
      </g>
     </g>
    </g>
    <g id="xtick_7">
     <g id="line2d_7">
      <g>
       <use style="stroke:#000000;stroke-width:2;" x="350.689" xlink:href="#m4f4399a5d7" y="299.589"/>
      </g>
     </g>
     <g id="text_7">
      <!-- 73 -->
      <g transform="translate(340.509 315.2465)scale(0.16 -0.16)">
       <use xlink:href="#DejaVuSans-55"/>
       <use x="63.623047" xlink:href="#DejaVuSans-51"/>
      </g>
     </g>
    </g>
    <g id="text_8">
     <!-- Previous Tumor - Current Tumor -->
     <defs>
      <path d="M 19.671875 64.796875 
L 19.671875 37.40625 
L 32.078125 37.40625 
Q 38.96875 37.40625 42.71875 40.96875 
Q 46.484375 44.53125 46.484375 51.125 
Q 46.484375 57.671875 42.71875 61.234375 
Q 38.96875 64.796875 32.078125 64.796875 
z
M 9.8125 72.90625 
L 32.078125 72.90625 
Q 44.34375 72.90625 50.609375 67.359375 
Q 56.890625 61.8125 56.890625 51.125 
Q 56.890625 40.328125 50.609375 34.8125 
Q 44.34375 29.296875 32.078125 29.296875 
L 19.671875 29.296875 
L 19.671875 0 
L 9.8125 0 
z
" id="DejaVuSans-80"/>
      <path d="M 41.109375 46.296875 
Q 39.59375 47.171875 37.8125 47.578125 
Q 36.03125 48 33.890625 48 
Q 26.265625 48 22.1875 43.046875 
Q 18.109375 38.09375 18.109375 28.8125 
L 18.109375 0 
L 9.078125 0 
L 9.078125 54.6875 
L 18.109375 54.6875 
L 18.109375 46.1875 
Q 20.953125 51.171875 25.484375 53.578125 
Q 30.03125 56 36.53125 56 
Q 37.453125 56 38.578125 55.875 
Q 39.703125 55.765625 41.0625 55.515625 
z
" id="DejaVuSans-114"/>
      <path d="M 56.203125 29.59375 
L 56.203125 25.203125 
L 14.890625 25.203125 
Q 15.484375 15.921875 20.484375 11.0625 
Q 25.484375 6.203125 34.421875 6.203125 
Q 39.59375 6.203125 44.453125 7.46875 
Q 49.3125 8.734375 54.109375 11.28125 
L 54.109375 2.78125 
Q 49.265625 0.734375 44.1875 -0.34375 
Q 39.109375 -1.421875 33.890625 -1.421875 
Q 20.796875 -1.421875 13.15625 6.1875 
Q 5.515625 13.8125 5.515625 26.8125 
Q 5.515625 40.234375 12.765625 48.109375 
Q 20.015625 56 32.328125 56 
Q 43.359375 56 49.78125 48.890625 
Q 56.203125 41.796875 56.203125 29.59375 
z
M 47.21875 32.234375 
Q 47.125 39.59375 43.09375 43.984375 
Q 39.0625 48.390625 32.421875 48.390625 
Q 24.90625 48.390625 20.390625 44.140625 
Q 15.875 39.890625 15.1875 32.171875 
z
" id="DejaVuSans-101"/>
      <path d="M 2.984375 54.6875 
L 12.5 54.6875 
L 29.59375 8.796875 
L 46.6875 54.6875 
L 56.203125 54.6875 
L 35.6875 0 
L 23.484375 0 
z
" id="DejaVuSans-118"/>
      <path d="M 9.421875 54.6875 
L 18.40625 54.6875 
L 18.40625 0 
L 9.421875 0 
z
M 9.421875 75.984375 
L 18.40625 75.984375 
L 18.40625 64.59375 
L 9.421875 64.59375 
z
" id="DejaVuSans-105"/>
      <path d="M 30.609375 48.390625 
Q 23.390625 48.390625 19.1875 42.75 
Q 14.984375 37.109375 14.984375 27.296875 
Q 14.984375 17.484375 19.15625 11.84375 
Q 23.34375 6.203125 30.609375 6.203125 
Q 37.796875 6.203125 41.984375 11.859375 
Q 46.1875 17.53125 46.1875 27.296875 
Q 46.1875 37.015625 41.984375 42.703125 
Q 37.796875 48.390625 30.609375 48.390625 
z
M 30.609375 56 
Q 42.328125 56 49.015625 48.375 
Q 55.71875 40.765625 55.71875 27.296875 
Q 55.71875 13.875 49.015625 6.21875 
Q 42.328125 -1.421875 30.609375 -1.421875 
Q 18.84375 -1.421875 12.171875 6.21875 
Q 5.515625 13.875 5.515625 27.296875 
Q 5.515625 40.765625 12.171875 48.375 
Q 18.84375 56 30.609375 56 
z
" id="DejaVuSans-111"/>
      <path d="M 8.5 21.578125 
L 8.5 54.6875 
L 17.484375 54.6875 
L 17.484375 21.921875 
Q 17.484375 14.15625 20.5 10.265625 
Q 23.53125 6.390625 29.59375 6.390625 
Q 36.859375 6.390625 41.078125 11.03125 
Q 45.3125 15.671875 45.3125 23.6875 
L 45.3125 54.6875 
L 54.296875 54.6875 
L 54.296875 0 
L 45.3125 0 
L 45.3125 8.40625 
Q 42.046875 3.421875 37.71875 1 
Q 33.40625 -1.421875 27.6875 -1.421875 
Q 18.265625 -1.421875 13.375 4.4375 
Q 8.5 10.296875 8.5 21.578125 
z
M 31.109375 56 
z
" id="DejaVuSans-117"/>
      <path d="M 44.28125 53.078125 
L 44.28125 44.578125 
Q 40.484375 46.53125 36.375 47.5 
Q 32.28125 48.484375 27.875 48.484375 
Q 21.1875 48.484375 17.84375 46.4375 
Q 14.5 44.390625 14.5 40.28125 
Q 14.5 37.15625 16.890625 35.375 
Q 19.28125 33.59375 26.515625 31.984375 
L 29.59375 31.296875 
Q 39.15625 29.25 43.1875 25.515625 
Q 47.21875 21.78125 47.21875 15.09375 
Q 47.21875 7.46875 41.1875 3.015625 
Q 35.15625 -1.421875 24.609375 -1.421875 
Q 20.21875 -1.421875 15.453125 -0.5625 
Q 10.6875 0.296875 5.421875 2 
L 5.421875 11.28125 
Q 10.40625 8.6875 15.234375 7.390625 
Q 20.0625 6.109375 24.8125 6.109375 
Q 31.15625 6.109375 34.5625 8.28125 
Q 37.984375 10.453125 37.984375 14.40625 
Q 37.984375 18.0625 35.515625 20.015625 
Q 33.0625 21.96875 24.703125 23.78125 
L 21.578125 24.515625 
Q 13.234375 26.265625 9.515625 29.90625 
Q 5.8125 33.546875 5.8125 39.890625 
Q 5.8125 47.609375 11.28125 51.796875 
Q 16.75 56 26.8125 56 
Q 31.78125 56 36.171875 55.265625 
Q 40.578125 54.546875 44.28125 53.078125 
z
" id="DejaVuSans-115"/>
      <path id="DejaVuSans-32"/>
      <path d="M -0.296875 72.90625 
L 61.375 72.90625 
L 61.375 64.59375 
L 35.5 64.59375 
L 35.5 0 
L 25.59375 0 
L 25.59375 64.59375 
L -0.296875 64.59375 
z
" id="DejaVuSans-84"/>
      <path d="M 52 44.1875 
Q 55.375 50.25 60.0625 53.125 
Q 64.75 56 71.09375 56 
Q 79.640625 56 84.28125 50.015625 
Q 88.921875 44.046875 88.921875 33.015625 
L 88.921875 0 
L 79.890625 0 
L 79.890625 32.71875 
Q 79.890625 40.578125 77.09375 44.375 
Q 74.3125 48.1875 68.609375 48.1875 
Q 61.625 48.1875 57.5625 43.546875 
Q 53.515625 38.921875 53.515625 30.90625 
L 53.515625 0 
L 44.484375 0 
L 44.484375 32.71875 
Q 44.484375 40.625 41.703125 44.40625 
Q 38.921875 48.1875 33.109375 48.1875 
Q 26.21875 48.1875 22.15625 43.53125 
Q 18.109375 38.875 18.109375 30.90625 
L 18.109375 0 
L 9.078125 0 
L 9.078125 54.6875 
L 18.109375 54.6875 
L 18.109375 46.1875 
Q 21.1875 51.21875 25.484375 53.609375 
Q 29.78125 56 35.6875 56 
Q 41.65625 56 45.828125 52.96875 
Q 50 49.953125 52 44.1875 
z
" id="DejaVuSans-109"/>
      <path d="M 64.40625 67.28125 
L 64.40625 56.890625 
Q 59.421875 61.53125 53.78125 63.8125 
Q 48.140625 66.109375 41.796875 66.109375 
Q 29.296875 66.109375 22.65625 58.46875 
Q 16.015625 50.828125 16.015625 36.375 
Q 16.015625 21.96875 22.65625 14.328125 
Q 29.296875 6.6875 41.796875 6.6875 
Q 48.140625 6.6875 53.78125 8.984375 
Q 59.421875 11.28125 64.40625 15.921875 
L 64.40625 5.609375 
Q 59.234375 2.09375 53.4375 0.328125 
Q 47.65625 -1.421875 41.21875 -1.421875 
Q 24.65625 -1.421875 15.125 8.703125 
Q 5.609375 18.84375 5.609375 36.375 
Q 5.609375 53.953125 15.125 64.078125 
Q 24.65625 74.21875 41.21875 74.21875 
Q 47.75 74.21875 53.53125 72.484375 
Q 59.328125 70.75 64.40625 67.28125 
z
" id="DejaVuSans-67"/>
      <path d="M 54.890625 33.015625 
L 54.890625 0 
L 45.90625 0 
L 45.90625 32.71875 
Q 45.90625 40.484375 42.875 44.328125 
Q 39.84375 48.1875 33.796875 48.1875 
Q 26.515625 48.1875 22.3125 43.546875 
Q 18.109375 38.921875 18.109375 30.90625 
L 18.109375 0 
L 9.078125 0 
L 9.078125 54.6875 
L 18.109375 54.6875 
L 18.109375 46.1875 
Q 21.34375 51.125 25.703125 53.5625 
Q 30.078125 56 35.796875 56 
Q 45.21875 56 50.046875 50.171875 
Q 54.890625 44.34375 54.890625 33.015625 
z
" id="DejaVuSans-110"/>
      <path d="M 18.3125 70.21875 
L 18.3125 54.6875 
L 36.8125 54.6875 
L 36.8125 47.703125 
L 18.3125 47.703125 
L 18.3125 18.015625 
Q 18.3125 11.328125 20.140625 9.421875 
Q 21.96875 7.515625 27.59375 7.515625 
L 36.8125 7.515625 
L 36.8125 0 
L 27.59375 0 
Q 17.1875 0 13.234375 3.875 
Q 9.28125 7.765625 9.28125 18.015625 
L 9.28125 47.703125 
L 2.6875 47.703125 
L 2.6875 54.6875 
L 9.28125 54.6875 
L 9.28125 70.21875 
z
" id="DejaVuSans-116"/>
     </defs>
     <g transform="translate(81.82525 334.7315)scale(0.16 -0.16)">
      <use xlink:href="#DejaVuSans-80"/>
      <use x="60.287109" xlink:href="#DejaVuSans-114"/>
      <use x="101.369141" xlink:href="#DejaVuSans-101"/>
      <use x="162.892578" xlink:href="#DejaVuSans-118"/>
      <use x="222.072266" xlink:href="#DejaVuSans-105"/>
      <use x="249.855469" xlink:href="#DejaVuSans-111"/>
      <use x="311.037109" xlink:href="#DejaVuSans-117"/>
      <use x="374.416016" xlink:href="#DejaVuSans-115"/>
      <use x="426.515625" xlink:href="#DejaVuSans-32"/>
      <use x="458.302734" xlink:href="#DejaVuSans-84"/>
      <use x="519.152344" xlink:href="#DejaVuSans-117"/>
      <use x="582.53125" xlink:href="#DejaVuSans-109"/>
      <use x="679.943359" xlink:href="#DejaVuSans-111"/>
      <use x="741.125" xlink:href="#DejaVuSans-114"/>
      <use x="782.238281" xlink:href="#DejaVuSans-32"/>
      <use x="814.025391" xlink:href="#DejaVuSans-45"/>
      <use x="850.109375" xlink:href="#DejaVuSans-32"/>
      <use x="881.896484" xlink:href="#DejaVuSans-67"/>
      <use x="951.720703" xlink:href="#DejaVuSans-117"/>
      <use x="1015.099609" xlink:href="#DejaVuSans-114"/>
      <use x="1056.197266" xlink:href="#DejaVuSans-114"/>
      <use x="1097.279297" xlink:href="#DejaVuSans-101"/>
      <use x="1158.802734" xlink:href="#DejaVuSans-110"/>
      <use x="1222.181641" xlink:href="#DejaVuSans-116"/>
      <use x="1261.390625" xlink:href="#DejaVuSans-32"/>
      <use x="1293.177734" xlink:href="#DejaVuSans-84"/>
      <use x="1354.027344" xlink:href="#DejaVuSans-117"/>
      <use x="1417.40625" xlink:href="#DejaVuSans-109"/>
      <use x="1514.818359" xlink:href="#DejaVuSans-111"/>
      <use x="1576" xlink:href="#DejaVuSans-114"/>
     </g>
     <!--  (morph units) -->
     <defs>
      <path d="M 31 75.875 
Q 24.46875 64.65625 21.28125 53.65625 
Q 18.109375 42.671875 18.109375 31.390625 
Q 18.109375 20.125 21.3125 9.0625 
Q 24.515625 -2 31 -13.1875 
L 23.1875 -13.1875 
Q 15.875 -1.703125 12.234375 9.375 
Q 8.59375 20.453125 8.59375 31.390625 
Q 8.59375 42.28125 12.203125 53.3125 
Q 15.828125 64.359375 23.1875 75.875 
z
" id="DejaVuSans-40"/>
      <path d="M 18.109375 8.203125 
L 18.109375 -20.796875 
L 9.078125 -20.796875 
L 9.078125 54.6875 
L 18.109375 54.6875 
L 18.109375 46.390625 
Q 20.953125 51.265625 25.265625 53.625 
Q 29.59375 56 35.59375 56 
Q 45.5625 56 51.78125 48.09375 
Q 58.015625 40.1875 58.015625 27.296875 
Q 58.015625 14.40625 51.78125 6.484375 
Q 45.5625 -1.421875 35.59375 -1.421875 
Q 29.59375 -1.421875 25.265625 0.953125 
Q 20.953125 3.328125 18.109375 8.203125 
z
M 48.6875 27.296875 
Q 48.6875 37.203125 44.609375 42.84375 
Q 40.53125 48.484375 33.40625 48.484375 
Q 26.265625 48.484375 22.1875 42.84375 
Q 18.109375 37.203125 18.109375 27.296875 
Q 18.109375 17.390625 22.1875 11.75 
Q 26.265625 6.109375 33.40625 6.109375 
Q 40.53125 6.109375 44.609375 11.75 
Q 48.6875 17.390625 48.6875 27.296875 
z
" id="DejaVuSans-112"/>
      <path d="M 54.890625 33.015625 
L 54.890625 0 
L 45.90625 0 
L 45.90625 32.71875 
Q 45.90625 40.484375 42.875 44.328125 
Q 39.84375 48.1875 33.796875 48.1875 
Q 26.515625 48.1875 22.3125 43.546875 
Q 18.109375 38.921875 18.109375 30.90625 
L 18.109375 0 
L 9.078125 0 
L 9.078125 75.984375 
L 18.109375 75.984375 
L 18.109375 46.1875 
Q 21.34375 51.125 25.703125 53.5625 
Q 30.078125 56 35.796875 56 
Q 45.21875 56 50.046875 50.171875 
Q 54.890625 44.34375 54.890625 33.015625 
z
" id="DejaVuSans-104"/>
      <path d="M 8.015625 75.875 
L 15.828125 75.875 
Q 23.140625 64.359375 26.78125 53.3125 
Q 30.421875 42.28125 30.421875 31.390625 
Q 30.421875 20.453125 26.78125 9.375 
Q 23.140625 -1.703125 15.828125 -13.1875 
L 8.015625 -13.1875 
Q 14.5 -2 17.703125 9.0625 
Q 20.90625 20.125 20.90625 31.390625 
Q 20.90625 42.671875 17.703125 53.65625 
Q 14.5 64.65625 8.015625 75.875 
z
" id="DejaVuSans-41"/>
     </defs>
     <g transform="translate(154.07025 352.648)scale(0.16 -0.16)">
      <use xlink:href="#DejaVuSans-32"/>
      <use x="31.787109" xlink:href="#DejaVuSans-40"/>
      <use x="70.800781" xlink:href="#DejaVuSans-109"/>
      <use x="168.212891" xlink:href="#DejaVuSans-111"/>
      <use x="229.394531" xlink:href="#DejaVuSans-114"/>
      <use x="270.507812" xlink:href="#DejaVuSans-112"/>
      <use x="333.984375" xlink:href="#DejaVuSans-104"/>
      <use x="397.363281" xlink:href="#DejaVuSans-32"/>
      <use x="429.150391" xlink:href="#DejaVuSans-117"/>
      <use x="492.529297" xlink:href="#DejaVuSans-110"/>
      <use x="555.908203" xlink:href="#DejaVuSans-105"/>
      <use x="583.691406" xlink:href="#DejaVuSans-116"/>
      <use x="622.900391" xlink:href="#DejaVuSans-115"/>
      <use x="675" xlink:href="#DejaVuSans-41"/>
     </g>
    </g>
   </g>
   <g id="matplotlib.axis_2">
    <g id="ytick_1">
     <g id="line2d_8">
      <defs>
       <path d="M 0 0 
L 6 0 
" id="mbb02dff924" style="stroke:#000000;stroke-width:2;"/>
      </defs>
      <g>
       <use style="stroke:#000000;stroke-width:2;" x="71.689" xlink:href="#mbb02dff924" y="299.589"/>
      </g>
     </g>
     <g id="text_9">
      <!-- −3 -->
      <defs>
       <path d="M 10.59375 35.5 
L 73.1875 35.5 
L 73.1875 27.203125 
L 10.59375 27.203125 
z
" id="DejaVuSans-8722"/>
      </defs>
      <g transform="translate(44.6015 305.66775)scale(0.16 -0.16)">
       <use xlink:href="#DejaVuSans-8722"/>
       <use x="83.789062" xlink:href="#DejaVuSans-51"/>
      </g>
     </g>
    </g>
    <g id="ytick_2">
     <g id="line2d_9">
      <g>
       <use style="stroke:#000000;stroke-width:2;" x="71.689" xlink:href="#mbb02dff924" y="254.289"/>
      </g>
     </g>
     <g id="text_10">
      <!-- −2 -->
      <g transform="translate(44.6015 260.36775)scale(0.16 -0.16)">
       <use xlink:href="#DejaVuSans-8722"/>
       <use x="83.789062" xlink:href="#DejaVuSans-50"/>
      </g>
     </g>
    </g>
    <g id="ytick_3">
     <g id="line2d_10">
      <g>
       <use style="stroke:#000000;stroke-width:2;" x="71.689" xlink:href="#mbb02dff924" y="208.989"/>
      </g>
     </g>
     <g id="text_11">
      <!-- −1 -->
      <defs>
       <path d="M 12.40625 8.296875 
L 28.515625 8.296875 
L 28.515625 63.921875 
L 10.984375 60.40625 
L 10.984375 69.390625 
L 28.421875 72.90625 
L 38.28125 72.90625 
L 38.28125 8.296875 
L 54.390625 8.296875 
L 54.390625 0 
L 12.40625 0 
z
" id="DejaVuSans-49"/>
      </defs>
      <g transform="translate(44.6015 215.06775)scale(0.16 -0.16)">
       <use xlink:href="#DejaVuSans-8722"/>
       <use x="83.789062" xlink:href="#DejaVuSans-49"/>
      </g>
     </g>
    </g>
    <g id="ytick_4">
     <g id="line2d_11">
      <g>
       <use style="stroke:#000000;stroke-width:2;" x="71.689" xlink:href="#mbb02dff924" y="163.689"/>
      </g>
     </g>
     <g id="text_12">
      <!-- 0 -->
      <g transform="translate(58.009 169.76775)scale(0.16 -0.16)">
       <use xlink:href="#DejaVuSans-48"/>
      </g>
     </g>
    </g>
    <g id="ytick_5">
     <g id="line2d_12">
      <g>
       <use style="stroke:#000000;stroke-width:2;" x="71.689" xlink:href="#mbb02dff924" y="118.389"/>
      </g>
     </g>
     <g id="text_13">
      <!-- 1 -->
      <g transform="translate(58.009 124.46775)scale(0.16 -0.16)">
       <use xlink:href="#DejaVuSans-49"/>
      </g>
     </g>
    </g>
    <g id="ytick_6">
     <g id="line2d_13">
      <g>
       <use style="stroke:#000000;stroke-width:2;" x="71.689" xlink:href="#mbb02dff924" y="73.089"/>
      </g>
     </g>
     <g id="text_14">
      <!-- 2 -->
      <g transform="translate(58.009 79.16775)scale(0.16 -0.16)">
       <use xlink:href="#DejaVuSans-50"/>
      </g>
     </g>
    </g>
    <g id="ytick_7">
     <g id="line2d_14">
      <g>
       <use style="stroke:#000000;stroke-width:2;" x="71.689" xlink:href="#mbb02dff924" y="27.789"/>
      </g>
     </g>
     <g id="text_15">
      <!-- 3 -->
      <g transform="translate(58.009 33.86775)scale(0.16 -0.16)">
       <use xlink:href="#DejaVuSans-51"/>
      </g>
     </g>
    </g>
    <g id="text_16">
     <!-- Response Error on Current Trial -->
     <defs>
      <path d="M 44.390625 34.1875 
Q 47.5625 33.109375 50.5625 29.59375 
Q 53.5625 26.078125 56.59375 19.921875 
L 66.609375 0 
L 56 0 
L 46.6875 18.703125 
Q 43.0625 26.03125 39.671875 28.421875 
Q 36.28125 30.8125 30.421875 30.8125 
L 19.671875 30.8125 
L 19.671875 0 
L 9.8125 0 
L 9.8125 72.90625 
L 32.078125 72.90625 
Q 44.578125 72.90625 50.734375 67.671875 
Q 56.890625 62.453125 56.890625 51.90625 
Q 56.890625 45.015625 53.6875 40.46875 
Q 50.484375 35.9375 44.390625 34.1875 
z
M 19.671875 64.796875 
L 19.671875 38.921875 
L 32.078125 38.921875 
Q 39.203125 38.921875 42.84375 42.21875 
Q 46.484375 45.515625 46.484375 51.90625 
Q 46.484375 58.296875 42.84375 61.546875 
Q 39.203125 64.796875 32.078125 64.796875 
z
" id="DejaVuSans-82"/>
      <path d="M 9.8125 72.90625 
L 55.90625 72.90625 
L 55.90625 64.59375 
L 19.671875 64.59375 
L 19.671875 43.015625 
L 54.390625 43.015625 
L 54.390625 34.71875 
L 19.671875 34.71875 
L 19.671875 8.296875 
L 56.78125 8.296875 
L 56.78125 0 
L 9.8125 0 
z
" id="DejaVuSans-69"/>
      <path d="M 34.28125 27.484375 
Q 23.390625 27.484375 19.1875 25 
Q 14.984375 22.515625 14.984375 16.5 
Q 14.984375 11.71875 18.140625 8.90625 
Q 21.296875 6.109375 26.703125 6.109375 
Q 34.1875 6.109375 38.703125 11.40625 
Q 43.21875 16.703125 43.21875 25.484375 
L 43.21875 27.484375 
z
M 52.203125 31.203125 
L 52.203125 0 
L 43.21875 0 
L 43.21875 8.296875 
Q 40.140625 3.328125 35.546875 0.953125 
Q 30.953125 -1.421875 24.3125 -1.421875 
Q 15.921875 -1.421875 10.953125 3.296875 
Q 6 8.015625 6 15.921875 
Q 6 25.140625 12.171875 29.828125 
Q 18.359375 34.515625 30.609375 34.515625 
L 43.21875 34.515625 
L 43.21875 35.40625 
Q 43.21875 41.609375 39.140625 45 
Q 35.0625 48.390625 27.6875 48.390625 
Q 23 48.390625 18.546875 47.265625 
Q 14.109375 46.140625 10.015625 43.890625 
L 10.015625 52.203125 
Q 14.9375 54.109375 19.578125 55.046875 
Q 24.21875 56 28.609375 56 
Q 40.484375 56 46.34375 49.84375 
Q 52.203125 43.703125 52.203125 31.203125 
z
" id="DejaVuSans-97"/>
      <path d="M 9.421875 75.984375 
L 18.40625 75.984375 
L 18.40625 0 
L 9.421875 0 
z
" id="DejaVuSans-108"/>
     </defs>
     <g transform="translate(19.3575 290.27775)rotate(-90)scale(0.16 -0.16)">
      <use xlink:href="#DejaVuSans-82"/>
      <use x="69.419922" xlink:href="#DejaVuSans-101"/>
      <use x="130.943359" xlink:href="#DejaVuSans-115"/>
      <use x="183.042969" xlink:href="#DejaVuSans-112"/>
      <use x="246.519531" xlink:href="#DejaVuSans-111"/>
      <use x="307.701172" xlink:href="#DejaVuSans-110"/>
      <use x="371.080078" xlink:href="#DejaVuSans-115"/>
      <use x="423.179688" xlink:href="#DejaVuSans-101"/>
      <use x="484.703125" xlink:href="#DejaVuSans-32"/>
      <use x="516.490234" xlink:href="#DejaVuSans-69"/>
      <use x="579.673828" xlink:href="#DejaVuSans-114"/>
      <use x="620.771484" xlink:href="#DejaVuSans-114"/>
      <use x="661.853516" xlink:href="#DejaVuSans-111"/>
      <use x="723.035156" xlink:href="#DejaVuSans-114"/>
      <use x="764.148438" xlink:href="#DejaVuSans-32"/>
      <use x="795.935547" xlink:href="#DejaVuSans-111"/>
      <use x="857.117188" xlink:href="#DejaVuSans-110"/>
      <use x="920.496094" xlink:href="#DejaVuSans-32"/>
      <use x="952.283203" xlink:href="#DejaVuSans-67"/>
      <use x="1022.107422" xlink:href="#DejaVuSans-117"/>
      <use x="1085.486328" xlink:href="#DejaVuSans-114"/>
      <use x="1126.583984" xlink:href="#DejaVuSans-114"/>
      <use x="1167.666016" xlink:href="#DejaVuSans-101"/>
      <use x="1229.189453" xlink:href="#DejaVuSans-110"/>
      <use x="1292.568359" xlink:href="#DejaVuSans-116"/>
      <use x="1331.777344" xlink:href="#DejaVuSans-32"/>
      <use x="1363.564453" xlink:href="#DejaVuSans-84"/>
      <use x="1424.429688" xlink:href="#DejaVuSans-114"/>
      <use x="1465.542969" xlink:href="#DejaVuSans-105"/>
      <use x="1493.326172" xlink:href="#DejaVuSans-97"/>
      <use x="1554.605469" xlink:href="#DejaVuSans-108"/>
     </g>
     <!--  (morph units) -->
     <g transform="translate(37.274 220.80775)rotate(-90)scale(0.16 -0.16)">
      <use xlink:href="#DejaVuSans-32"/>
      <use x="31.787109" xlink:href="#DejaVuSans-40"/>
      <use x="70.800781" xlink:href="#DejaVuSans-109"/>
      <use x="168.212891" xlink:href="#DejaVuSans-111"/>
      <use x="229.394531" xlink:href="#DejaVuSans-114"/>
      <use x="270.507812" xlink:href="#DejaVuSans-112"/>
      <use x="333.984375" xlink:href="#DejaVuSans-104"/>
      <use x="397.363281" xlink:href="#DejaVuSans-32"/>
      <use x="429.150391" xlink:href="#DejaVuSans-117"/>
      <use x="492.529297" xlink:href="#DejaVuSans-110"/>
      <use x="555.908203" xlink:href="#DejaVuSans-105"/>
      <use x="583.691406" xlink:href="#DejaVuSans-116"/>
      <use x="622.900391" xlink:href="#DejaVuSans-115"/>
      <use x="675" xlink:href="#DejaVuSans-41"/>
     </g>
    </g>
   </g>
   <g id="line2d_15">
    <path clip-path="url(#p4ca0f4cd81)" d="M 71.689 162.11263 
L 73.599959 172.400311 
L 75.510918 180.113776 
L 77.421877 171.238862 
L 79.332836 170.503246 
L 81.243795 172.594388 
L 83.154753 177.915454 
L 85.065712 179.958614 
L 86.976671 188.466988 
L 88.88763 186.437602 
L 90.798589 182.530618 
L 92.709548 180.840921 
L 94.620507 180.433231 
L 96.531466 192.759726 
L 98.442425 187.413261 
L 100.353384 188.617334 
L 102.264342 190.892422 
L 106.08626 178.119848 
L 107.997219 181.193165 
L 109.908178 187.707892 
L 111.819137 190.656166 
L 113.730096 184.347793 
L 115.641055 184.465263 
L 117.552014 193.971517 
L 119.462973 202.123508 
L 121.373932 208.256415 
L 123.28489 219.008677 
L 125.195849 216.326228 
L 127.106808 228.919425 
L 129.017767 231.400912 
L 130.928726 234.594765 
L 132.839685 238.140728 
L 134.750644 237.235871 
L 136.661603 240.816085 
L 138.572562 238.015291 
L 140.483521 241.314667 
L 142.394479 241.441632 
L 144.305438 244.027707 
L 146.216397 237.591662 
L 148.127356 240.441143 
L 150.038315 248.641813 
L 151.949274 248.421127 
L 155.771192 257.735958 
L 157.682151 257.833808 
L 159.59311 259.321074 
L 161.504068 250.048276 
L 163.415027 257.228955 
L 165.325986 263.007347 
L 167.236945 255.862699 
L 169.147904 242.665828 
L 171.058863 248.838663 
L 172.969822 251.877814 
L 174.880781 249.224745 
L 176.79174 244.661352 
L 178.702699 234.329912 
L 180.613658 238.718435 
L 182.524616 234.377709 
L 184.435575 233.725531 
L 186.346534 225.713959 
L 188.257493 221.928724 
L 190.168452 220.16639 
L 192.079411 203.8372 
L 193.99037 206.986764 
L 195.901329 199.671228 
L 197.812288 203.533589 
L 199.723247 191.946459 
L 201.634205 174.184789 
L 203.545164 166.645914 
L 205.456123 171.911458 
L 207.367082 172.935427 
L 209.278041 155.19234 
L 211.189 151.586437 
L 213.099959 155.276145 
L 215.010918 138.725583 
L 216.921877 143.609115 
L 218.832836 138.000138 
L 220.743795 137.020283 
L 222.654753 123.87058 
L 224.565712 130.077449 
L 226.476671 114.391366 
L 228.38763 115.519639 
L 230.298589 106.850341 
L 232.209548 96.372709 
L 234.120507 97.064962 
L 236.031466 93.06553 
L 237.942425 90.957098 
L 239.853384 90.855881 
L 241.764342 96.630976 
L 243.675301 91.898173 
L 245.58626 99.256732 
L 249.408178 98.509972 
L 251.319137 99.006289 
L 253.230096 93.635571 
L 255.141055 96.372033 
L 257.052014 91.154069 
L 258.962973 91.642903 
L 260.873932 97.432246 
L 262.78489 103.858415 
L 264.695849 98.764335 
L 266.606808 93.286521 
L 268.517767 92.673037 
L 270.428726 91.75199 
L 272.339685 76.942598 
L 274.250644 86.860919 
L 276.161603 79.748791 
L 278.072562 79.561333 
L 279.983521 78.869428 
L 281.894479 86.639324 
L 283.805438 77.261407 
L 285.716397 93.114303 
L 287.627356 99.403039 
L 289.538315 102.296225 
L 291.449274 106.01706 
L 293.360233 107.312145 
L 295.271192 106.640832 
L 297.182151 107.294875 
L 299.09311 113.318564 
L 301.004068 109.201805 
L 302.915027 110.007989 
L 304.825986 103.401168 
L 306.736945 103.713703 
L 308.647904 104.561096 
L 310.558863 108.273811 
L 312.469822 118.279715 
L 314.380781 121.502983 
L 316.29174 126.603438 
L 318.202699 124.557246 
L 320.113658 134.901428 
L 322.024616 129.261802 
L 323.935575 144.746109 
L 325.846534 152.888128 
L 327.757493 163.496987 
L 329.668452 170.628684 
L 331.579411 176.730233 
L 333.49037 172.392194 
L 335.401329 192.231364 
L 337.312288 192.89807 
L 339.223247 192.605734 
L 341.134205 191.060089 
L 343.045164 183.114441 
L 344.956123 175.684777 
L 346.867082 177.782086 
L 348.778041 171.2509 
L 350.689 162.11263 
L 350.689 162.11263 
" style="fill:none;stroke:#4169e1;stroke-linecap:square;stroke-width:1.5;"/>
   </g>
   <g id="line2d_16">
    <path clip-path="url(#p4ca0f4cd81)" d="M 71.689 163.689 
L 85.065712 165.076256 
L 92.709548 166.121885 
L 98.442425 167.149342 
L 102.264342 168.001283 
L 106.08626 169.027152 
L 109.908178 170.268975 
L 113.730096 171.776396 
L 117.552014 173.607369 
L 121.373932 175.828418 
L 125.195849 178.514182 
L 127.106808 180.056522 
L 129.017767 181.745858 
L 130.928726 183.592853 
L 132.839685 185.60808 
L 134.750644 187.801802 
L 136.661603 190.1837 
L 138.572562 192.76256 
L 140.483521 195.545906 
L 142.394479 198.539575 
L 146.216397 205.169896 
L 150.038315 212.647188 
L 153.860233 220.902918 
L 157.682151 229.785977 
L 167.236945 252.783987 
L 169.147904 257.070186 
L 171.058863 261.081249 
L 172.969822 264.730836 
L 174.880781 267.927914 
L 176.79174 270.578399 
L 178.702699 272.587152 
L 180.613658 273.860318 
L 182.524616 274.307954 
L 184.435575 273.84688 
L 186.346534 272.403685 
L 188.257493 269.917757 
L 190.168452 266.344229 
L 192.079411 261.656693 
L 193.99037 255.849548 
L 195.901329 248.939831 
L 197.812288 240.968408 
L 199.723247 232.000408 
L 201.634205 222.124833 
L 203.545164 211.453289 
L 207.367082 188.268114 
L 216.921877 127.260148 
L 220.743795 105.253167 
L 222.654753 95.377592 
L 224.565712 86.409592 
L 226.476671 78.438169 
L 228.38763 71.528452 
L 230.298589 65.721307 
L 232.209548 61.033771 
L 234.120507 57.460243 
L 236.031466 54.974315 
L 237.942425 53.53112 
L 239.853384 53.070046 
L 241.764342 53.517682 
L 243.675301 54.790848 
L 245.58626 56.799601 
L 247.497219 59.450086 
L 249.408178 62.647164 
L 251.319137 66.296751 
L 253.230096 70.307814 
L 257.052014 79.074987 
L 268.517767 106.475082 
L 272.339685 114.730812 
L 276.161603 122.208104 
L 279.983521 128.838425 
L 281.894479 131.832094 
L 283.805438 134.61544 
L 285.716397 137.1943 
L 287.627356 139.576198 
L 289.538315 141.76992 
L 291.449274 143.785147 
L 293.360233 145.632142 
L 297.182151 148.863818 
L 301.004068 151.549582 
L 304.825986 153.770631 
L 308.647904 155.601604 
L 312.469822 157.109025 
L 316.29174 158.350848 
L 320.113658 159.376717 
L 325.846534 160.600676 
L 331.579411 161.546301 
L 339.223247 162.523635 
L 350.689 163.689 
L 350.689 163.689 
" style="fill:none;stroke:#ff0000;stroke-linecap:square;stroke-width:3.5;"/>
   </g>
   <g id="patch_3">
    <path d="M 71.689 299.589 
L 71.689 27.789 
" style="fill:none;stroke:#000000;stroke-linecap:square;stroke-linejoin:miter;stroke-width:2;"/>
   </g>
   <g id="patch_4">
    <path d="M 71.689 299.589 
L 350.689 299.589 
" style="fill:none;stroke:#000000;stroke-linecap:square;stroke-linejoin:miter;stroke-width:2;"/>
   </g>
   <g id="text_17">
    <!-- Naives, Step = 30 -->
    <defs>
     <path d="M 9.8125 72.90625 
L 23.09375 72.90625 
L 55.421875 11.921875 
L 55.421875 72.90625 
L 64.984375 72.90625 
L 64.984375 0 
L 51.703125 0 
L 19.390625 60.984375 
L 19.390625 0 
L 9.8125 0 
z
" id="DejaVuSans-78"/>
     <path d="M 11.71875 12.40625 
L 22.015625 12.40625 
L 22.015625 4 
L 14.015625 -11.625 
L 7.71875 -11.625 
L 11.71875 4 
z
" id="DejaVuSans-44"/>
     <path d="M 53.515625 70.515625 
L 53.515625 60.890625 
Q 47.90625 63.578125 42.921875 64.890625 
Q 37.9375 66.21875 33.296875 66.21875 
Q 25.25 66.21875 20.875 63.09375 
Q 16.5 59.96875 16.5 54.203125 
Q 16.5 49.359375 19.40625 46.890625 
Q 22.3125 44.4375 30.421875 42.921875 
L 36.375 41.703125 
Q 47.40625 39.59375 52.65625 34.296875 
Q 57.90625 29 57.90625 20.125 
Q 57.90625 9.515625 50.796875 4.046875 
Q 43.703125 -1.421875 29.984375 -1.421875 
Q 24.8125 -1.421875 18.96875 -0.25 
Q 13.140625 0.921875 6.890625 3.21875 
L 6.890625 13.375 
Q 12.890625 10.015625 18.65625 8.296875 
Q 24.421875 6.59375 29.984375 6.59375 
Q 38.421875 6.59375 43.015625 9.90625 
Q 47.609375 13.234375 47.609375 19.390625 
Q 47.609375 24.75 44.3125 27.78125 
Q 41.015625 30.8125 33.5 32.328125 
L 27.484375 33.5 
Q 16.453125 35.6875 11.515625 40.375 
Q 6.59375 45.0625 6.59375 53.421875 
Q 6.59375 63.09375 13.40625 68.65625 
Q 20.21875 74.21875 32.171875 74.21875 
Q 37.3125 74.21875 42.625 73.28125 
Q 47.953125 72.359375 53.515625 70.515625 
z
" id="DejaVuSans-83"/>
     <path d="M 10.59375 45.40625 
L 73.1875 45.40625 
L 73.1875 37.203125 
L 10.59375 37.203125 
z
M 10.59375 25.484375 
L 73.1875 25.484375 
L 73.1875 17.1875 
L 10.59375 17.1875 
z
" id="DejaVuSans-61"/>
    </defs>
    <g transform="translate(124.543 21.789)scale(0.192 -0.192)">
     <use xlink:href="#DejaVuSans-78"/>
     <use x="74.804688" xlink:href="#DejaVuSans-97"/>
     <use x="136.083984" xlink:href="#DejaVuSans-105"/>
     <use x="163.867188" xlink:href="#DejaVuSans-118"/>
     <use x="223.046875" xlink:href="#DejaVuSans-101"/>
     <use x="284.570312" xlink:href="#DejaVuSans-115"/>
     <use x="336.669922" xlink:href="#DejaVuSans-44"/>
     <use x="368.457031" xlink:href="#DejaVuSans-32"/>
     <use x="400.244141" xlink:href="#DejaVuSans-83"/>
     <use x="463.720703" xlink:href="#DejaVuSans-116"/>
     <use x="502.929688" xlink:href="#DejaVuSans-101"/>
     <use x="564.453125" xlink:href="#DejaVuSans-112"/>
     <use x="627.929688" xlink:href="#DejaVuSans-32"/>
     <use x="659.716797" xlink:href="#DejaVuSans-61"/>
     <use x="743.505859" xlink:href="#DejaVuSans-32"/>
     <use x="775.292969" xlink:href="#DejaVuSans-51"/>
     <use x="838.916016" xlink:href="#DejaVuSans-48"/>
    </g>
   </g>
  </g>
 </g>
 <defs>
  <clipPath id="p4ca0f4cd81">
   <rect height="271.8" width="279" x="71.689" y="27.789"/>
  </clipPath>
 </defs>
</svg>
