<?xml version="1.0" encoding="utf-8" standalone="no"?>
<!DOCTYPE svg PUBLIC "-//W3C//DTD SVG 1.1//EN"
  "http://www.w3.org/Graphics/SVG/1.1/DTD/svg11.dtd">
<!-- Created with matplotlib (https://matplotlib.org/) -->
<svg height="363.1755pt" version="1.1" viewBox="0 0 368.069 363.1755" width="368.069pt" xmlns="http://www.w3.org/2000/svg" xmlns:xlink="http://www.w3.org/1999/xlink">
 <defs>
  <style type="text/css">
*{stroke-linecap:butt;stroke-linejoin:round;}
  </style>
 </defs>
 <g id="figure_1">
  <g id="patch_1">
   <path d="M 0 363.1755 
L 368.069 363.1755 
L 368.069 0 
L 0 0 
z
" style="fill:#ffffff;"/>
  </g>
  <g id="axes_1">
   <g id="patch_2">
    <path d="M 71.689 299.589 
L 350.689 299.589 
L 350.689 27.789 
L 71.689 27.789 
z
" style="fill:#ffffff;"/>
   </g>
   <g id="PolyCollection_1">
    <defs>
     <path d="M 71.689 -194.890202 
L 71.689 -219.990985 
L 73.599959 -209.853112 
L 75.510918 -210.478623 
L 77.421877 -216.228783 
L 79.332836 -215.766877 
L 81.243795 -217.186867 
L 83.154753 -208.417778 
L 85.065712 -201.564409 
L 86.976671 -197.512391 
L 88.88763 -204.353155 
L 90.798589 -211.159823 
L 92.709548 -208.400931 
L 94.620507 -213.548923 
L 96.531466 -200.406328 
L 98.442425 -201.241247 
L 100.353384 -200.017783 
L 102.264342 -194.68558 
L 104.175301 -204.171936 
L 106.08626 -212.202701 
L 107.997219 -210.164842 
L 109.908178 -208.849225 
L 111.819137 -202.942647 
L 113.730096 -204.698796 
L 115.641055 -205.686199 
L 117.552014 -195.647261 
L 119.462973 -189.826944 
L 121.373932 -183.491036 
L 123.28489 -177.015062 
L 125.195849 -176.95282 
L 127.106808 -161.951103 
L 129.017767 -161.538314 
L 130.928726 -157.273578 
L 132.839685 -159.934684 
L 134.750644 -160.42945 
L 136.661603 -150.783843 
L 138.572562 -152.32368 
L 140.483521 -149.944216 
L 142.394479 -148.175949 
L 144.305438 -150.071472 
L 146.216397 -153.695719 
L 148.127356 -149.704237 
L 150.038315 -143.068001 
L 151.949274 -140.363092 
L 153.860233 -133.908356 
L 155.771192 -132.655517 
L 157.682151 -139.348256 
L 159.59311 -131.508742 
L 161.504068 -136.974674 
L 163.415027 -127.850146 
L 165.325986 -119.70835 
L 167.236945 -119.782017 
L 169.147904 -132.640991 
L 171.058863 -126.681487 
L 172.969822 -128.350982 
L 174.880781 -126.208218 
L 176.79174 -133.314317 
L 178.702699 -140.259822 
L 180.613658 -138.890899 
L 182.524616 -147.85389 
L 184.435575 -146.105025 
L 186.346534 -152.562463 
L 188.257493 -158.980629 
L 190.168452 -160.868448 
L 192.079411 -175.919148 
L 193.99037 -176.231738 
L 195.901329 -180.817385 
L 197.812288 -187.299306 
L 199.723247 -194.627085 
L 201.634205 -211.796114 
L 203.545164 -221.250063 
L 205.456123 -208.313795 
L 207.367082 -208.239684 
L 209.278041 -225.522895 
L 211.189 -233.641785 
L 213.099959 -231.885852 
L 215.010918 -252.673459 
L 216.921877 -247.979139 
L 218.832836 -255.955704 
L 220.743795 -257.433211 
L 222.654753 -272.447282 
L 224.565712 -263.104905 
L 226.476671 -284.637412 
L 228.38763 -284.67387 
L 230.298589 -287.197205 
L 232.209548 -286.231302 
L 234.120507 -290.333094 
L 236.031466 -289.52077 
L 237.942425 -291.914619 
L 239.853384 -289.737343 
L 241.764342 -283.647798 
L 243.675301 -289.316927 
L 245.58626 -283.443703 
L 247.497219 -280.948973 
L 249.408178 -282.053567 
L 251.319137 -286.315145 
L 253.230096 -289.34655 
L 255.141055 -292.595443 
L 257.052014 -290.792743 
L 258.962973 -294.066406 
L 260.873932 -290.145029 
L 262.78489 -284.40325 
L 264.695849 -289.36029 
L 266.606808 -298.660766 
L 268.517767 -298.693915 
L 270.428726 -294.088833 
L 272.339685 -306.709802 
L 274.250644 -298.664191 
L 276.161603 -304.194921 
L 278.072562 -301.956344 
L 279.983521 -296.351889 
L 281.894479 -292.641397 
L 283.805438 -309.794367 
L 285.716397 -288.671669 
L 287.627356 -274.028733 
L 289.538315 -279.404953 
L 291.449274 -284.07055 
L 293.360233 -279.846365 
L 295.271192 -274.232566 
L 297.182151 -268.252815 
L 299.09311 -262.899874 
L 301.004068 -271.091127 
L 302.915027 -270.222216 
L 304.825986 -275.600774 
L 306.736945 -275.695937 
L 308.647904 -274.883802 
L 310.558863 -276.022639 
L 312.469822 -265.458796 
L 314.380781 -266.116736 
L 316.29174 -256.367581 
L 318.202699 -256.440616 
L 320.113658 -244.742282 
L 322.024616 -247.534405 
L 323.935575 -236.333991 
L 325.846534 -226.242204 
L 327.757493 -209.082607 
L 329.668452 -208.066523 
L 331.579411 -203.09818 
L 333.49037 -204.2512 
L 335.401329 -190.499958 
L 337.312288 -191.319208 
L 339.223247 -193.884131 
L 341.134205 -205.225097 
L 343.045164 -212.198068 
L 344.956123 -215.670896 
L 346.867082 -216.33476 
L 348.778041 -222.435223 
L 350.689 -219.990985 
L 350.689 -194.890202 
L 350.689 -194.890202 
L 348.778041 -189.801964 
L 346.867082 -187.641593 
L 344.956123 -182.995257 
L 343.045164 -174.000531 
L 341.134205 -166.796797 
L 339.223247 -163.586933 
L 337.312288 -164.193162 
L 335.401329 -159.535377 
L 333.49037 -177.418654 
L 331.579411 -172.38813 
L 329.668452 -179.429878 
L 327.757493 -177.596873 
L 325.846534 -192.184739 
L 323.935575 -202.260007 
L 322.024616 -208.913805 
L 320.113658 -204.633821 
L 318.202699 -208.430785 
L 316.29174 -206.900199 
L 314.380781 -213.061124 
L 312.469822 -214.39403 
L 310.558863 -223.082101 
L 308.647904 -230.572149 
L 306.736945 -229.523146 
L 304.825986 -226.496227 
L 302.915027 -220.903705 
L 301.004068 -226.425868 
L 299.09311 -218.309248 
L 297.182151 -222.634169 
L 295.271192 -225.276617 
L 293.360233 -226.696636 
L 291.449274 -235.648532 
L 289.538315 -231.207764 
L 287.627356 -229.445718 
L 285.716397 -237.095297 
L 283.805438 -255.342273 
L 281.894479 -248.033619 
L 279.983521 -261.178989 
L 278.072562 -259.772748 
L 276.161603 -262.873756 
L 274.250644 -260.816775 
L 272.339685 -271.436024 
L 270.428726 -264.265297 
L 268.517767 -269.700225 
L 266.606808 -265.594306 
L 264.695849 -259.901996 
L 262.78489 -260.603756 
L 260.873932 -265.240601 
L 258.962973 -272.552851 
L 257.052014 -272.833209 
L 255.141055 -266.49434 
L 253.230096 -263.864783 
L 251.319137 -259.020293 
L 249.408178 -261.630219 
L 247.497219 -260.456895 
L 245.58626 -261.544525 
L 243.675301 -266.367391 
L 241.764342 -255.940363 
L 239.853384 -261.370766 
L 237.942425 -260.749117 
L 236.031466 -260.042969 
L 234.120507 -257.855132 
L 232.209548 -251.785467 
L 230.298589 -245.019648 
L 228.38763 -236.859182 
L 226.476671 -236.393361 
L 224.565712 -217.866103 
L 222.654753 -222.048679 
L 220.743795 -207.576006 
L 218.832836 -204.774339 
L 216.921877 -201.882218 
L 215.010918 -204.333901 
L 213.099959 -187.78926 
L 211.189 -188.954852 
L 209.278041 -178.478346 
L 207.367082 -161.037475 
L 205.456123 -161.421826 
L 203.545164 -168.72007 
L 201.634205 -161.181177 
L 199.723247 -139.164307 
L 197.812288 -136.007734 
L 195.901329 -142.385054 
L 193.99037 -137.901679 
L 192.079411 -139.347945 
L 190.168452 -127.580594 
L 188.257493 -126.316579 
L 186.346534 -123.493913 
L 184.435575 -118.382179 
L 182.524616 -116.2767 
L 180.613658 -112.197789 
L 178.702699 -112.396563 
L 176.79174 -107.598729 
L 174.880781 -97.16014 
L 172.969822 -93.651398 
L 171.058863 -92.447529 
L 169.147904 -95.839964 
L 167.236945 -81.24738 
L 165.325986 -77.112679 
L 163.415027 -87.067146 
L 161.504068 -102.812924 
L 159.59311 -92.18918 
L 157.682151 -88.211799 
L 155.771192 -92.36967 
L 153.860233 -97.314789 
L 151.949274 -99.525099 
L 150.038315 -96.045747 
L 148.127356 -106.544849 
L 146.216397 -111.59866 
L 144.305438 -98.952994 
L 142.394479 -98.092607 
L 140.483521 -98.860973 
L 138.572562 -102.982571 
L 136.661603 -104.862684 
L 134.750644 -112.036329 
L 132.839685 -109.615734 
L 130.928726 -111.316109 
L 129.017767 -109.349247 
L 127.106808 -110.610896 
L 125.195849 -117.262235 
L 123.28489 -120.610831 
L 121.373932 -136.717189 
L 119.462973 -145.122975 
L 117.552014 -154.260019 
L 115.641055 -164.283786 
L 113.730096 -167.151702 
L 111.819137 -164.602447 
L 109.908178 -169.654356 
L 107.997219 -177.622309 
L 106.08626 -182.10423 
L 104.175301 -171.315634 
L 102.264342 -163.085573 
L 100.353384 -164.629815 
L 98.442425 -161.810049 
L 96.531466 -158.379747 
L 94.620507 -172.610872 
L 92.709548 -169.454718 
L 90.798589 -169.976144 
L 88.88763 -165.489988 
L 86.976671 -165.229299 
L 85.065712 -170.998309 
L 83.154753 -176.114533 
L 81.243795 -182.45565 
L 79.332836 -182.511842 
L 77.421877 -186.691367 
L 75.510918 -178.822966 
L 73.599959 -183.742026 
L 71.689 -194.890202 
z
" id="m7242776500" style="stroke:#1e90ff;stroke-opacity:0.2;"/>
    </defs>
    <g clip-path="url(#p3001c497f0)">
     <use style="fill:#1e90ff;fill-opacity:0.2;stroke:#1e90ff;stroke-opacity:0.2;" x="0" xlink:href="#m7242776500" y="363.1755"/>
    </g>
   </g>
   <g id="matplotlib.axis_1">
    <g id="xtick_1">
     <g id="line2d_1">
      <defs>
       <path d="M 0 0 
L 0 -6 
" id="m8ee6b5effc" style="stroke:#000000;stroke-width:2;"/>
      </defs>
      <g>
       <use style="stroke:#000000;stroke-width:2;" x="71.689" xlink:href="#m8ee6b5effc" y="299.589"/>
      </g>
     </g>
     <g id="text_1">
      <!-- -73 -->
      <defs>
       <path d="M 4.890625 31.390625 
L 31.203125 31.390625 
L 31.203125 23.390625 
L 4.890625 23.390625 
z
" id="DejaVuSans-45"/>
       <path d="M 8.203125 72.90625 
L 55.078125 72.90625 
L 55.078125 68.703125 
L 28.609375 0 
L 18.3125 0 
L 43.21875 64.59375 
L 8.203125 64.59375 
z
" id="DejaVuSans-55"/>
       <path d="M 40.578125 39.3125 
Q 47.65625 37.796875 51.625 33 
Q 55.609375 28.21875 55.609375 21.1875 
Q 55.609375 10.40625 48.1875 4.484375 
Q 40.765625 -1.421875 27.09375 -1.421875 
Q 22.515625 -1.421875 17.65625 -0.515625 
Q 12.796875 0.390625 7.625 2.203125 
L 7.625 11.71875 
Q 11.71875 9.328125 16.59375 8.109375 
Q 21.484375 6.890625 26.8125 6.890625 
Q 36.078125 6.890625 40.9375 10.546875 
Q 45.796875 14.203125 45.796875 21.1875 
Q 45.796875 27.640625 41.28125 31.265625 
Q 36.765625 34.90625 28.71875 34.90625 
L 20.21875 34.90625 
L 20.21875 43.015625 
L 29.109375 43.015625 
Q 36.375 43.015625 40.234375 45.921875 
Q 44.09375 48.828125 44.09375 54.296875 
Q 44.09375 59.90625 40.109375 62.90625 
Q 36.140625 65.921875 28.71875 65.921875 
Q 24.65625 65.921875 20.015625 65.03125 
Q 15.375 64.15625 9.8125 62.3125 
L 9.8125 71.09375 
Q 15.4375 72.65625 20.34375 73.4375 
Q 25.25 74.21875 29.59375 74.21875 
Q 40.828125 74.21875 47.359375 69.109375 
Q 53.90625 64.015625 53.90625 55.328125 
Q 53.90625 49.265625 50.4375 45.09375 
Q 46.96875 40.921875 40.578125 39.3125 
z
" id="DejaVuSans-51"/>
      </defs>
      <g transform="translate(58.62275 315.2465)scale(0.16 -0.16)">
       <use xlink:href="#DejaVuSans-45"/>
       <use x="36.083984" xlink:href="#DejaVuSans-55"/>
       <use x="99.707031" xlink:href="#DejaVuSans-51"/>
      </g>
     </g>
    </g>
    <g id="xtick_2">
     <g id="line2d_2">
      <g>
       <use style="stroke:#000000;stroke-width:2;" x="115.641055" xlink:href="#m8ee6b5effc" y="299.589"/>
      </g>
     </g>
     <g id="text_2">
      <!-- -50 -->
      <defs>
       <path d="M 10.796875 72.90625 
L 49.515625 72.90625 
L 49.515625 64.59375 
L 19.828125 64.59375 
L 19.828125 46.734375 
Q 21.96875 47.46875 24.109375 47.828125 
Q 26.265625 48.1875 28.421875 48.1875 
Q 40.625 48.1875 47.75 41.5 
Q 54.890625 34.8125 54.890625 23.390625 
Q 54.890625 11.625 47.5625 5.09375 
Q 40.234375 -1.421875 26.90625 -1.421875 
Q 22.3125 -1.421875 17.546875 -0.640625 
Q 12.796875 0.140625 7.71875 1.703125 
L 7.71875 11.625 
Q 12.109375 9.234375 16.796875 8.0625 
Q 21.484375 6.890625 26.703125 6.890625 
Q 35.15625 6.890625 40.078125 11.328125 
Q 45.015625 15.765625 45.015625 23.390625 
Q 45.015625 31 40.078125 35.4375 
Q 35.15625 39.890625 26.703125 39.890625 
Q 22.75 39.890625 18.8125 39.015625 
Q 14.890625 38.140625 10.796875 36.28125 
z
" id="DejaVuSans-53"/>
       <path d="M 31.78125 66.40625 
Q 24.171875 66.40625 20.328125 58.90625 
Q 16.5 51.421875 16.5 36.375 
Q 16.5 21.390625 20.328125 13.890625 
Q 24.171875 6.390625 31.78125 6.390625 
Q 39.453125 6.390625 43.28125 13.890625 
Q 47.125 21.390625 47.125 36.375 
Q 47.125 51.421875 43.28125 58.90625 
Q 39.453125 66.40625 31.78125 66.40625 
z
M 31.78125 74.21875 
Q 44.046875 74.21875 50.515625 64.515625 
Q 56.984375 54.828125 56.984375 36.375 
Q 56.984375 17.96875 50.515625 8.265625 
Q 44.046875 -1.421875 31.78125 -1.421875 
Q 19.53125 -1.421875 13.0625 8.265625 
Q 6.59375 17.96875 6.59375 36.375 
Q 6.59375 54.828125 13.0625 64.515625 
Q 19.53125 74.21875 31.78125 74.21875 
z
" id="DejaVuSans-48"/>
      </defs>
      <g transform="translate(102.574805 315.2465)scale(0.16 -0.16)">
       <use xlink:href="#DejaVuSans-45"/>
       <use x="36.083984" xlink:href="#DejaVuSans-53"/>
       <use x="99.707031" xlink:href="#DejaVuSans-48"/>
      </g>
     </g>
    </g>
    <g id="xtick_3">
     <g id="line2d_3">
      <g>
       <use style="stroke:#000000;stroke-width:2;" x="163.415027" xlink:href="#m8ee6b5effc" y="299.589"/>
      </g>
     </g>
     <g id="text_3">
      <!-- -25 -->
      <defs>
       <path d="M 19.1875 8.296875 
L 53.609375 8.296875 
L 53.609375 0 
L 7.328125 0 
L 7.328125 8.296875 
Q 12.9375 14.109375 22.625 23.890625 
Q 32.328125 33.6875 34.8125 36.53125 
Q 39.546875 41.84375 41.421875 45.53125 
Q 43.3125 49.21875 43.3125 52.78125 
Q 43.3125 58.59375 39.234375 62.25 
Q 35.15625 65.921875 28.609375 65.921875 
Q 23.96875 65.921875 18.8125 64.3125 
Q 13.671875 62.703125 7.8125 59.421875 
L 7.8125 69.390625 
Q 13.765625 71.78125 18.9375 73 
Q 24.125 74.21875 28.421875 74.21875 
Q 39.75 74.21875 46.484375 68.546875 
Q 53.21875 62.890625 53.21875 53.421875 
Q 53.21875 48.921875 51.53125 44.890625 
Q 49.859375 40.875 45.40625 35.40625 
Q 44.1875 33.984375 37.640625 27.21875 
Q 31.109375 20.453125 19.1875 8.296875 
z
" id="DejaVuSans-50"/>
      </defs>
      <g transform="translate(150.348777 315.2465)scale(0.16 -0.16)">
       <use xlink:href="#DejaVuSans-45"/>
       <use x="36.083984" xlink:href="#DejaVuSans-50"/>
       <use x="99.707031" xlink:href="#DejaVuSans-53"/>
      </g>
     </g>
    </g>
    <g id="xtick_4">
     <g id="line2d_4">
      <g>
       <use style="stroke:#000000;stroke-width:2;" x="211.189" xlink:href="#m8ee6b5effc" y="299.589"/>
      </g>
     </g>
     <g id="text_4">
      <!-- 0 -->
      <g transform="translate(206.099 315.2465)scale(0.16 -0.16)">
       <use xlink:href="#DejaVuSans-48"/>
      </g>
     </g>
    </g>
    <g id="xtick_5">
     <g id="line2d_5">
      <g>
       <use style="stroke:#000000;stroke-width:2;" x="258.962973" xlink:href="#m8ee6b5effc" y="299.589"/>
      </g>
     </g>
     <g id="text_5">
      <!-- 25 -->
      <g transform="translate(248.782973 315.2465)scale(0.16 -0.16)">
       <use xlink:href="#DejaVuSans-50"/>
       <use x="63.623047" xlink:href="#DejaVuSans-53"/>
      </g>
     </g>
    </g>
    <g id="xtick_6">
     <g id="line2d_6">
      <g>
       <use style="stroke:#000000;stroke-width:2;" x="306.736945" xlink:href="#m8ee6b5effc" y="299.589"/>
      </g>
     </g>
     <g id="text_6">
      <!-- 50 -->
      <g transform="translate(296.556945 315.2465)scale(0.16 -0.16)">
       <use xlink:href="#DejaVuSans-53"/>
       <use x="63.623047" xlink:href="#DejaVuSans-48"/>
      </g>
     </g>
    </g>
    <g id="xtick_7">
     <g id="line2d_7">
      <g>
       <use style="stroke:#000000;stroke-width:2;" x="350.689" xlink:href="#m8ee6b5effc" y="299.589"/>
      </g>
     </g>
     <g id="text_7">
      <!-- 73 -->
      <g transform="translate(340.509 315.2465)scale(0.16 -0.16)">
       <use xlink:href="#DejaVuSans-55"/>
       <use x="63.623047" xlink:href="#DejaVuSans-51"/>
      </g>
     </g>
    </g>
    <g id="text_8">
     <!-- Previous Tumor - Current Tumor -->
     <defs>
      <path d="M 19.671875 64.796875 
L 19.671875 37.40625 
L 32.078125 37.40625 
Q 38.96875 37.40625 42.71875 40.96875 
Q 46.484375 44.53125 46.484375 51.125 
Q 46.484375 57.671875 42.71875 61.234375 
Q 38.96875 64.796875 32.078125 64.796875 
z
M 9.8125 72.90625 
L 32.078125 72.90625 
Q 44.34375 72.90625 50.609375 67.359375 
Q 56.890625 61.8125 56.890625 51.125 
Q 56.890625 40.328125 50.609375 34.8125 
Q 44.34375 29.296875 32.078125 29.296875 
L 19.671875 29.296875 
L 19.671875 0 
L 9.8125 0 
z
" id="DejaVuSans-80"/>
      <path d="M 41.109375 46.296875 
Q 39.59375 47.171875 37.8125 47.578125 
Q 36.03125 48 33.890625 48 
Q 26.265625 48 22.1875 43.046875 
Q 18.109375 38.09375 18.109375 28.8125 
L 18.109375 0 
L 9.078125 0 
L 9.078125 54.6875 
L 18.109375 54.6875 
L 18.109375 46.1875 
Q 20.953125 51.171875 25.484375 53.578125 
Q 30.03125 56 36.53125 56 
Q 37.453125 56 38.578125 55.875 
Q 39.703125 55.765625 41.0625 55.515625 
z
" id="DejaVuSans-114"/>
      <path d="M 56.203125 29.59375 
L 56.203125 25.203125 
L 14.890625 25.203125 
Q 15.484375 15.921875 20.484375 11.0625 
Q 25.484375 6.203125 34.421875 6.203125 
Q 39.59375 6.203125 44.453125 7.46875 
Q 49.3125 8.734375 54.109375 11.28125 
L 54.109375 2.78125 
Q 49.265625 0.734375 44.1875 -0.34375 
Q 39.109375 -1.421875 33.890625 -1.421875 
Q 20.796875 -1.421875 13.15625 6.1875 
Q 5.515625 13.8125 5.515625 26.8125 
Q 5.515625 40.234375 12.765625 48.109375 
Q 20.015625 56 32.328125 56 
Q 43.359375 56 49.78125 48.890625 
Q 56.203125 41.796875 56.203125 29.59375 
z
M 47.21875 32.234375 
Q 47.125 39.59375 43.09375 43.984375 
Q 39.0625 48.390625 32.421875 48.390625 
Q 24.90625 48.390625 20.390625 44.140625 
Q 15.875 39.890625 15.1875 32.171875 
z
" id="DejaVuSans-101"/>
      <path d="M 2.984375 54.6875 
L 12.5 54.6875 
L 29.59375 8.796875 
L 46.6875 54.6875 
L 56.203125 54.6875 
L 35.6875 0 
L 23.484375 0 
z
" id="DejaVuSans-118"/>
      <path d="M 9.421875 54.6875 
L 18.40625 54.6875 
L 18.40625 0 
L 9.421875 0 
z
M 9.421875 75.984375 
L 18.40625 75.984375 
L 18.40625 64.59375 
L 9.421875 64.59375 
z
" id="DejaVuSans-105"/>
      <path d="M 30.609375 48.390625 
Q 23.390625 48.390625 19.1875 42.75 
Q 14.984375 37.109375 14.984375 27.296875 
Q 14.984375 17.484375 19.15625 11.84375 
Q 23.34375 6.203125 30.609375 6.203125 
Q 37.796875 6.203125 41.984375 11.859375 
Q 46.1875 17.53125 46.1875 27.296875 
Q 46.1875 37.015625 41.984375 42.703125 
Q 37.796875 48.390625 30.609375 48.390625 
z
M 30.609375 56 
Q 42.328125 56 49.015625 48.375 
Q 55.71875 40.765625 55.71875 27.296875 
Q 55.71875 13.875 49.015625 6.21875 
Q 42.328125 -1.421875 30.609375 -1.421875 
Q 18.84375 -1.421875 12.171875 6.21875 
Q 5.515625 13.875 5.515625 27.296875 
Q 5.515625 40.765625 12.171875 48.375 
Q 18.84375 56 30.609375 56 
z
" id="DejaVuSans-111"/>
      <path d="M 8.5 21.578125 
L 8.5 54.6875 
L 17.484375 54.6875 
L 17.484375 21.921875 
Q 17.484375 14.15625 20.5 10.265625 
Q 23.53125 6.390625 29.59375 6.390625 
Q 36.859375 6.390625 41.078125 11.03125 
Q 45.3125 15.671875 45.3125 23.6875 
L 45.3125 54.6875 
L 54.296875 54.6875 
L 54.296875 0 
L 45.3125 0 
L 45.3125 8.40625 
Q 42.046875 3.421875 37.71875 1 
Q 33.40625 -1.421875 27.6875 -1.421875 
Q 18.265625 -1.421875 13.375 4.4375 
Q 8.5 10.296875 8.5 21.578125 
z
M 31.109375 56 
z
" id="DejaVuSans-117"/>
      <path d="M 44.28125 53.078125 
L 44.28125 44.578125 
Q 40.484375 46.53125 36.375 47.5 
Q 32.28125 48.484375 27.875 48.484375 
Q 21.1875 48.484375 17.84375 46.4375 
Q 14.5 44.390625 14.5 40.28125 
Q 14.5 37.15625 16.890625 35.375 
Q 19.28125 33.59375 26.515625 31.984375 
L 29.59375 31.296875 
Q 39.15625 29.25 43.1875 25.515625 
Q 47.21875 21.78125 47.21875 15.09375 
Q 47.21875 7.46875 41.1875 3.015625 
Q 35.15625 -1.421875 24.609375 -1.421875 
Q 20.21875 -1.421875 15.453125 -0.5625 
Q 10.6875 0.296875 5.421875 2 
L 5.421875 11.28125 
Q 10.40625 8.6875 15.234375 7.390625 
Q 20.0625 6.109375 24.8125 6.109375 
Q 31.15625 6.109375 34.5625 8.28125 
Q 37.984375 10.453125 37.984375 14.40625 
Q 37.984375 18.0625 35.515625 20.015625 
Q 33.0625 21.96875 24.703125 23.78125 
L 21.578125 24.515625 
Q 13.234375 26.265625 9.515625 29.90625 
Q 5.8125 33.546875 5.8125 39.890625 
Q 5.8125 47.609375 11.28125 51.796875 
Q 16.75 56 26.8125 56 
Q 31.78125 56 36.171875 55.265625 
Q 40.578125 54.546875 44.28125 53.078125 
z
" id="DejaVuSans-115"/>
      <path id="DejaVuSans-32"/>
      <path d="M -0.296875 72.90625 
L 61.375 72.90625 
L 61.375 64.59375 
L 35.5 64.59375 
L 35.5 0 
L 25.59375 0 
L 25.59375 64.59375 
L -0.296875 64.59375 
z
" id="DejaVuSans-84"/>
      <path d="M 52 44.1875 
Q 55.375 50.25 60.0625 53.125 
Q 64.75 56 71.09375 56 
Q 79.640625 56 84.28125 50.015625 
Q 88.921875 44.046875 88.921875 33.015625 
L 88.921875 0 
L 79.890625 0 
L 79.890625 32.71875 
Q 79.890625 40.578125 77.09375 44.375 
Q 74.3125 48.1875 68.609375 48.1875 
Q 61.625 48.1875 57.5625 43.546875 
Q 53.515625 38.921875 53.515625 30.90625 
L 53.515625 0 
L 44.484375 0 
L 44.484375 32.71875 
Q 44.484375 40.625 41.703125 44.40625 
Q 38.921875 48.1875 33.109375 48.1875 
Q 26.21875 48.1875 22.15625 43.53125 
Q 18.109375 38.875 18.109375 30.90625 
L 18.109375 0 
L 9.078125 0 
L 9.078125 54.6875 
L 18.109375 54.6875 
L 18.109375 46.1875 
Q 21.1875 51.21875 25.484375 53.609375 
Q 29.78125 56 35.6875 56 
Q 41.65625 56 45.828125 52.96875 
Q 50 49.953125 52 44.1875 
z
" id="DejaVuSans-109"/>
      <path d="M 64.40625 67.28125 
L 64.40625 56.890625 
Q 59.421875 61.53125 53.78125 63.8125 
Q 48.140625 66.109375 41.796875 66.109375 
Q 29.296875 66.109375 22.65625 58.46875 
Q 16.015625 50.828125 16.015625 36.375 
Q 16.015625 21.96875 22.65625 14.328125 
Q 29.296875 6.6875 41.796875 6.6875 
Q 48.140625 6.6875 53.78125 8.984375 
Q 59.421875 11.28125 64.40625 15.921875 
L 64.40625 5.609375 
Q 59.234375 2.09375 53.4375 0.328125 
Q 47.65625 -1.421875 41.21875 -1.421875 
Q 24.65625 -1.421875 15.125 8.703125 
Q 5.609375 18.84375 5.609375 36.375 
Q 5.609375 53.953125 15.125 64.078125 
Q 24.65625 74.21875 41.21875 74.21875 
Q 47.75 74.21875 53.53125 72.484375 
Q 59.328125 70.75 64.40625 67.28125 
z
" id="DejaVuSans-67"/>
      <path d="M 54.890625 33.015625 
L 54.890625 0 
L 45.90625 0 
L 45.90625 32.71875 
Q 45.90625 40.484375 42.875 44.328125 
Q 39.84375 48.1875 33.796875 48.1875 
Q 26.515625 48.1875 22.3125 43.546875 
Q 18.109375 38.921875 18.109375 30.90625 
L 18.109375 0 
L 9.078125 0 
L 9.078125 54.6875 
L 18.109375 54.6875 
L 18.109375 46.1875 
Q 21.34375 51.125 25.703125 53.5625 
Q 30.078125 56 35.796875 56 
Q 45.21875 56 50.046875 50.171875 
Q 54.890625 44.34375 54.890625 33.015625 
z
" id="DejaVuSans-110"/>
      <path d="M 18.3125 70.21875 
L 18.3125 54.6875 
L 36.8125 54.6875 
L 36.8125 47.703125 
L 18.3125 47.703125 
L 18.3125 18.015625 
Q 18.3125 11.328125 20.140625 9.421875 
Q 21.96875 7.515625 27.59375 7.515625 
L 36.8125 7.515625 
L 36.8125 0 
L 27.59375 0 
Q 17.1875 0 13.234375 3.875 
Q 9.28125 7.765625 9.28125 18.015625 
L 9.28125 47.703125 
L 2.6875 47.703125 
L 2.6875 54.6875 
L 9.28125 54.6875 
L 9.28125 70.21875 
z
" id="DejaVuSans-116"/>
     </defs>
     <g transform="translate(81.82525 334.7315)scale(0.16 -0.16)">
      <use xlink:href="#DejaVuSans-80"/>
      <use x="60.287109" xlink:href="#DejaVuSans-114"/>
      <use x="101.369141" xlink:href="#DejaVuSans-101"/>
      <use x="162.892578" xlink:href="#DejaVuSans-118"/>
      <use x="222.072266" xlink:href="#DejaVuSans-105"/>
      <use x="249.855469" xlink:href="#DejaVuSans-111"/>
      <use x="311.037109" xlink:href="#DejaVuSans-117"/>
      <use x="374.416016" xlink:href="#DejaVuSans-115"/>
      <use x="426.515625" xlink:href="#DejaVuSans-32"/>
      <use x="458.302734" xlink:href="#DejaVuSans-84"/>
      <use x="519.152344" xlink:href="#DejaVuSans-117"/>
      <use x="582.53125" xlink:href="#DejaVuSans-109"/>
      <use x="679.943359" xlink:href="#DejaVuSans-111"/>
      <use x="741.125" xlink:href="#DejaVuSans-114"/>
      <use x="782.238281" xlink:href="#DejaVuSans-32"/>
      <use x="814.025391" xlink:href="#DejaVuSans-45"/>
      <use x="850.109375" xlink:href="#DejaVuSans-32"/>
      <use x="881.896484" xlink:href="#DejaVuSans-67"/>
      <use x="951.720703" xlink:href="#DejaVuSans-117"/>
      <use x="1015.099609" xlink:href="#DejaVuSans-114"/>
      <use x="1056.197266" xlink:href="#DejaVuSans-114"/>
      <use x="1097.279297" xlink:href="#DejaVuSans-101"/>
      <use x="1158.802734" xlink:href="#DejaVuSans-110"/>
      <use x="1222.181641" xlink:href="#DejaVuSans-116"/>
      <use x="1261.390625" xlink:href="#DejaVuSans-32"/>
      <use x="1293.177734" xlink:href="#DejaVuSans-84"/>
      <use x="1354.027344" xlink:href="#DejaVuSans-117"/>
      <use x="1417.40625" xlink:href="#DejaVuSans-109"/>
      <use x="1514.818359" xlink:href="#DejaVuSans-111"/>
      <use x="1576" xlink:href="#DejaVuSans-114"/>
     </g>
     <!--  (morph units) -->
     <defs>
      <path d="M 31 75.875 
Q 24.46875 64.65625 21.28125 53.65625 
Q 18.109375 42.671875 18.109375 31.390625 
Q 18.109375 20.125 21.3125 9.0625 
Q 24.515625 -2 31 -13.1875 
L 23.1875 -13.1875 
Q 15.875 -1.703125 12.234375 9.375 
Q 8.59375 20.453125 8.59375 31.390625 
Q 8.59375 42.28125 12.203125 53.3125 
Q 15.828125 64.359375 23.1875 75.875 
z
" id="DejaVuSans-40"/>
      <path d="M 18.109375 8.203125 
L 18.109375 -20.796875 
L 9.078125 -20.796875 
L 9.078125 54.6875 
L 18.109375 54.6875 
L 18.109375 46.390625 
Q 20.953125 51.265625 25.265625 53.625 
Q 29.59375 56 35.59375 56 
Q 45.5625 56 51.78125 48.09375 
Q 58.015625 40.1875 58.015625 27.296875 
Q 58.015625 14.40625 51.78125 6.484375 
Q 45.5625 -1.421875 35.59375 -1.421875 
Q 29.59375 -1.421875 25.265625 0.953125 
Q 20.953125 3.328125 18.109375 8.203125 
z
M 48.6875 27.296875 
Q 48.6875 37.203125 44.609375 42.84375 
Q 40.53125 48.484375 33.40625 48.484375 
Q 26.265625 48.484375 22.1875 42.84375 
Q 18.109375 37.203125 18.109375 27.296875 
Q 18.109375 17.390625 22.1875 11.75 
Q 26.265625 6.109375 33.40625 6.109375 
Q 40.53125 6.109375 44.609375 11.75 
Q 48.6875 17.390625 48.6875 27.296875 
z
" id="DejaVuSans-112"/>
      <path d="M 54.890625 33.015625 
L 54.890625 0 
L 45.90625 0 
L 45.90625 32.71875 
Q 45.90625 40.484375 42.875 44.328125 
Q 39.84375 48.1875 33.796875 48.1875 
Q 26.515625 48.1875 22.3125 43.546875 
Q 18.109375 38.921875 18.109375 30.90625 
L 18.109375 0 
L 9.078125 0 
L 9.078125 75.984375 
L 18.109375 75.984375 
L 18.109375 46.1875 
Q 21.34375 51.125 25.703125 53.5625 
Q 30.078125 56 35.796875 56 
Q 45.21875 56 50.046875 50.171875 
Q 54.890625 44.34375 54.890625 33.015625 
z
" id="DejaVuSans-104"/>
      <path d="M 8.015625 75.875 
L 15.828125 75.875 
Q 23.140625 64.359375 26.78125 53.3125 
Q 30.421875 42.28125 30.421875 31.390625 
Q 30.421875 20.453125 26.78125 9.375 
Q 23.140625 -1.703125 15.828125 -13.1875 
L 8.015625 -13.1875 
Q 14.5 -2 17.703125 9.0625 
Q 20.90625 20.125 20.90625 31.390625 
Q 20.90625 42.671875 17.703125 53.65625 
Q 14.5 64.65625 8.015625 75.875 
z
" id="DejaVuSans-41"/>
     </defs>
     <g transform="translate(154.07025 352.648)scale(0.16 -0.16)">
      <use xlink:href="#DejaVuSans-32"/>
      <use x="31.787109" xlink:href="#DejaVuSans-40"/>
      <use x="70.800781" xlink:href="#DejaVuSans-109"/>
      <use x="168.212891" xlink:href="#DejaVuSans-111"/>
      <use x="229.394531" xlink:href="#DejaVuSans-114"/>
      <use x="270.507812" xlink:href="#DejaVuSans-112"/>
      <use x="333.984375" xlink:href="#DejaVuSans-104"/>
      <use x="397.363281" xlink:href="#DejaVuSans-32"/>
      <use x="429.150391" xlink:href="#DejaVuSans-117"/>
      <use x="492.529297" xlink:href="#DejaVuSans-110"/>
      <use x="555.908203" xlink:href="#DejaVuSans-105"/>
      <use x="583.691406" xlink:href="#DejaVuSans-116"/>
      <use x="622.900391" xlink:href="#DejaVuSans-115"/>
      <use x="675" xlink:href="#DejaVuSans-41"/>
     </g>
    </g>
   </g>
   <g id="matplotlib.axis_2">
    <g id="ytick_1">
     <g id="line2d_8">
      <defs>
       <path d="M 0 0 
L 6 0 
" id="m486cf3ebb2" style="stroke:#000000;stroke-width:2;"/>
      </defs>
      <g>
       <use style="stroke:#000000;stroke-width:2;" x="71.689" xlink:href="#m486cf3ebb2" y="299.589"/>
      </g>
     </g>
     <g id="text_9">
      <!-- −3 -->
      <defs>
       <path d="M 10.59375 35.5 
L 73.1875 35.5 
L 73.1875 27.203125 
L 10.59375 27.203125 
z
" id="DejaVuSans-8722"/>
      </defs>
      <g transform="translate(44.6015 305.66775)scale(0.16 -0.16)">
       <use xlink:href="#DejaVuSans-8722"/>
       <use x="83.789062" xlink:href="#DejaVuSans-51"/>
      </g>
     </g>
    </g>
    <g id="ytick_2">
     <g id="line2d_9">
      <g>
       <use style="stroke:#000000;stroke-width:2;" x="71.689" xlink:href="#m486cf3ebb2" y="254.289"/>
      </g>
     </g>
     <g id="text_10">
      <!-- −2 -->
      <g transform="translate(44.6015 260.36775)scale(0.16 -0.16)">
       <use xlink:href="#DejaVuSans-8722"/>
       <use x="83.789062" xlink:href="#DejaVuSans-50"/>
      </g>
     </g>
    </g>
    <g id="ytick_3">
     <g id="line2d_10">
      <g>
       <use style="stroke:#000000;stroke-width:2;" x="71.689" xlink:href="#m486cf3ebb2" y="208.989"/>
      </g>
     </g>
     <g id="text_11">
      <!-- −1 -->
      <defs>
       <path d="M 12.40625 8.296875 
L 28.515625 8.296875 
L 28.515625 63.921875 
L 10.984375 60.40625 
L 10.984375 69.390625 
L 28.421875 72.90625 
L 38.28125 72.90625 
L 38.28125 8.296875 
L 54.390625 8.296875 
L 54.390625 0 
L 12.40625 0 
z
" id="DejaVuSans-49"/>
      </defs>
      <g transform="translate(44.6015 215.06775)scale(0.16 -0.16)">
       <use xlink:href="#DejaVuSans-8722"/>
       <use x="83.789062" xlink:href="#DejaVuSans-49"/>
      </g>
     </g>
    </g>
    <g id="ytick_4">
     <g id="line2d_11">
      <g>
       <use style="stroke:#000000;stroke-width:2;" x="71.689" xlink:href="#m486cf3ebb2" y="163.689"/>
      </g>
     </g>
     <g id="text_12">
      <!-- 0 -->
      <g transform="translate(58.009 169.76775)scale(0.16 -0.16)">
       <use xlink:href="#DejaVuSans-48"/>
      </g>
     </g>
    </g>
    <g id="ytick_5">
     <g id="line2d_12">
      <g>
       <use style="stroke:#000000;stroke-width:2;" x="71.689" xlink:href="#m486cf3ebb2" y="118.389"/>
      </g>
     </g>
     <g id="text_13">
      <!-- 1 -->
      <g transform="translate(58.009 124.46775)scale(0.16 -0.16)">
       <use xlink:href="#DejaVuSans-49"/>
      </g>
     </g>
    </g>
    <g id="ytick_6">
     <g id="line2d_13">
      <g>
       <use style="stroke:#000000;stroke-width:2;" x="71.689" xlink:href="#m486cf3ebb2" y="73.089"/>
      </g>
     </g>
     <g id="text_14">
      <!-- 2 -->
      <g transform="translate(58.009 79.16775)scale(0.16 -0.16)">
       <use xlink:href="#DejaVuSans-50"/>
      </g>
     </g>
    </g>
    <g id="ytick_7">
     <g id="line2d_14">
      <g>
       <use style="stroke:#000000;stroke-width:2;" x="71.689" xlink:href="#m486cf3ebb2" y="27.789"/>
      </g>
     </g>
     <g id="text_15">
      <!-- 3 -->
      <g transform="translate(58.009 33.86775)scale(0.16 -0.16)">
       <use xlink:href="#DejaVuSans-51"/>
      </g>
     </g>
    </g>
    <g id="text_16">
     <!-- Response Error on Current Trial -->
     <defs>
      <path d="M 44.390625 34.1875 
Q 47.5625 33.109375 50.5625 29.59375 
Q 53.5625 26.078125 56.59375 19.921875 
L 66.609375 0 
L 56 0 
L 46.6875 18.703125 
Q 43.0625 26.03125 39.671875 28.421875 
Q 36.28125 30.8125 30.421875 30.8125 
L 19.671875 30.8125 
L 19.671875 0 
L 9.8125 0 
L 9.8125 72.90625 
L 32.078125 72.90625 
Q 44.578125 72.90625 50.734375 67.671875 
Q 56.890625 62.453125 56.890625 51.90625 
Q 56.890625 45.015625 53.6875 40.46875 
Q 50.484375 35.9375 44.390625 34.1875 
z
M 19.671875 64.796875 
L 19.671875 38.921875 
L 32.078125 38.921875 
Q 39.203125 38.921875 42.84375 42.21875 
Q 46.484375 45.515625 46.484375 51.90625 
Q 46.484375 58.296875 42.84375 61.546875 
Q 39.203125 64.796875 32.078125 64.796875 
z
" id="DejaVuSans-82"/>
      <path d="M 9.8125 72.90625 
L 55.90625 72.90625 
L 55.90625 64.59375 
L 19.671875 64.59375 
L 19.671875 43.015625 
L 54.390625 43.015625 
L 54.390625 34.71875 
L 19.671875 34.71875 
L 19.671875 8.296875 
L 56.78125 8.296875 
L 56.78125 0 
L 9.8125 0 
z
" id="DejaVuSans-69"/>
      <path d="M 34.28125 27.484375 
Q 23.390625 27.484375 19.1875 25 
Q 14.984375 22.515625 14.984375 16.5 
Q 14.984375 11.71875 18.140625 8.90625 
Q 21.296875 6.109375 26.703125 6.109375 
Q 34.1875 6.109375 38.703125 11.40625 
Q 43.21875 16.703125 43.21875 25.484375 
L 43.21875 27.484375 
z
M 52.203125 31.203125 
L 52.203125 0 
L 43.21875 0 
L 43.21875 8.296875 
Q 40.140625 3.328125 35.546875 0.953125 
Q 30.953125 -1.421875 24.3125 -1.421875 
Q 15.921875 -1.421875 10.953125 3.296875 
Q 6 8.015625 6 15.921875 
Q 6 25.140625 12.171875 29.828125 
Q 18.359375 34.515625 30.609375 34.515625 
L 43.21875 34.515625 
L 43.21875 35.40625 
Q 43.21875 41.609375 39.140625 45 
Q 35.0625 48.390625 27.6875 48.390625 
Q 23 48.390625 18.546875 47.265625 
Q 14.109375 46.140625 10.015625 43.890625 
L 10.015625 52.203125 
Q 14.9375 54.109375 19.578125 55.046875 
Q 24.21875 56 28.609375 56 
Q 40.484375 56 46.34375 49.84375 
Q 52.203125 43.703125 52.203125 31.203125 
z
" id="DejaVuSans-97"/>
      <path d="M 9.421875 75.984375 
L 18.40625 75.984375 
L 18.40625 0 
L 9.421875 0 
z
" id="DejaVuSans-108"/>
     </defs>
     <g transform="translate(19.3575 290.27775)rotate(-90)scale(0.16 -0.16)">
      <use xlink:href="#DejaVuSans-82"/>
      <use x="69.419922" xlink:href="#DejaVuSans-101"/>
      <use x="130.943359" xlink:href="#DejaVuSans-115"/>
      <use x="183.042969" xlink:href="#DejaVuSans-112"/>
      <use x="246.519531" xlink:href="#DejaVuSans-111"/>
      <use x="307.701172" xlink:href="#DejaVuSans-110"/>
      <use x="371.080078" xlink:href="#DejaVuSans-115"/>
      <use x="423.179688" xlink:href="#DejaVuSans-101"/>
      <use x="484.703125" xlink:href="#DejaVuSans-32"/>
      <use x="516.490234" xlink:href="#DejaVuSans-69"/>
      <use x="579.673828" xlink:href="#DejaVuSans-114"/>
      <use x="620.771484" xlink:href="#DejaVuSans-114"/>
      <use x="661.853516" xlink:href="#DejaVuSans-111"/>
      <use x="723.035156" xlink:href="#DejaVuSans-114"/>
      <use x="764.148438" xlink:href="#DejaVuSans-32"/>
      <use x="795.935547" xlink:href="#DejaVuSans-111"/>
      <use x="857.117188" xlink:href="#DejaVuSans-110"/>
      <use x="920.496094" xlink:href="#DejaVuSans-32"/>
      <use x="952.283203" xlink:href="#DejaVuSans-67"/>
      <use x="1022.107422" xlink:href="#DejaVuSans-117"/>
      <use x="1085.486328" xlink:href="#DejaVuSans-114"/>
      <use x="1126.583984" xlink:href="#DejaVuSans-114"/>
      <use x="1167.666016" xlink:href="#DejaVuSans-101"/>
      <use x="1229.189453" xlink:href="#DejaVuSans-110"/>
      <use x="1292.568359" xlink:href="#DejaVuSans-116"/>
      <use x="1331.777344" xlink:href="#DejaVuSans-32"/>
      <use x="1363.564453" xlink:href="#DejaVuSans-84"/>
      <use x="1424.429688" xlink:href="#DejaVuSans-114"/>
      <use x="1465.542969" xlink:href="#DejaVuSans-105"/>
      <use x="1493.326172" xlink:href="#DejaVuSans-97"/>
      <use x="1554.605469" xlink:href="#DejaVuSans-108"/>
     </g>
     <!--  (morph units) -->
     <g transform="translate(37.274 220.80775)rotate(-90)scale(0.16 -0.16)">
      <use xlink:href="#DejaVuSans-32"/>
      <use x="31.787109" xlink:href="#DejaVuSans-40"/>
      <use x="70.800781" xlink:href="#DejaVuSans-109"/>
      <use x="168.212891" xlink:href="#DejaVuSans-111"/>
      <use x="229.394531" xlink:href="#DejaVuSans-114"/>
      <use x="270.507812" xlink:href="#DejaVuSans-112"/>
      <use x="333.984375" xlink:href="#DejaVuSans-104"/>
      <use x="397.363281" xlink:href="#DejaVuSans-32"/>
      <use x="429.150391" xlink:href="#DejaVuSans-117"/>
      <use x="492.529297" xlink:href="#DejaVuSans-110"/>
      <use x="555.908203" xlink:href="#DejaVuSans-105"/>
      <use x="583.691406" xlink:href="#DejaVuSans-116"/>
      <use x="622.900391" xlink:href="#DejaVuSans-115"/>
      <use x="675" xlink:href="#DejaVuSans-41"/>
     </g>
    </g>
   </g>
   <g id="line2d_15">
    <path clip-path="url(#p3001c497f0)" d="M 71.689 155.734907 
L 73.599959 166.377931 
L 75.510918 168.524705 
L 77.421877 161.715425 
L 79.332836 164.036141 
L 81.243795 163.354241 
L 83.154753 170.909345 
L 85.065712 176.894141 
L 86.976671 181.804655 
L 88.88763 178.253928 
L 90.798589 172.607517 
L 92.709548 174.247675 
L 94.620507 170.095603 
L 96.531466 183.782462 
L 98.442425 181.649852 
L 100.353384 180.851701 
L 102.264342 184.289923 
L 104.175301 175.431715 
L 106.08626 166.022034 
L 107.997219 169.281925 
L 109.908178 173.92371 
L 111.819137 179.402953 
L 113.730096 177.250251 
L 115.641055 178.190508 
L 117.552014 188.22186 
L 121.373932 203.071387 
L 123.28489 214.362554 
L 125.195849 216.067973 
L 127.106808 226.8945 
L 129.017767 227.731719 
L 130.928726 228.880656 
L 132.839685 228.400291 
L 134.750644 226.942611 
L 136.661603 235.352236 
L 138.572562 235.522374 
L 140.483521 238.772906 
L 142.394479 240.041222 
L 144.305438 238.663267 
L 146.216397 230.52831 
L 148.127356 235.050957 
L 150.038315 243.618626 
L 151.949274 243.231405 
L 153.860233 247.563928 
L 155.771192 250.662907 
L 157.682151 249.395473 
L 159.59311 251.326539 
L 161.504068 243.281701 
L 163.415027 255.716854 
L 165.325986 264.764986 
L 167.236945 262.660801 
L 169.147904 248.935022 
L 171.058863 253.610992 
L 172.969822 252.17431 
L 174.880781 251.491321 
L 176.79174 242.718977 
L 178.702699 236.847308 
L 180.613658 237.631156 
L 182.524616 231.110205 
L 184.435575 230.931898 
L 186.346534 225.147312 
L 188.257493 220.526896 
L 190.168452 218.950979 
L 192.079411 205.541954 
L 193.99037 206.108791 
L 195.901329 201.574281 
L 197.812288 201.52198 
L 199.723247 196.279804 
L 201.634205 176.686855 
L 203.545164 168.190434 
L 205.456123 178.30769 
L 207.367082 178.53692 
L 209.278041 161.17488 
L 211.189 151.877182 
L 213.099959 153.337944 
L 215.010918 134.67182 
L 216.921877 138.244822 
L 218.832836 132.810479 
L 220.743795 130.670891 
L 222.654753 115.927519 
L 224.565712 122.689996 
L 226.476671 102.660113 
L 228.38763 102.408974 
L 230.298589 97.067073 
L 232.209548 94.167116 
L 234.120507 89.081387 
L 236.031466 88.393631 
L 237.942425 86.843632 
L 239.853384 87.621445 
L 241.764342 93.38142 
L 243.675301 85.333341 
L 245.58626 90.681386 
L 247.497219 92.472566 
L 249.408178 91.333607 
L 251.319137 90.507781 
L 253.230096 86.569833 
L 255.141055 83.630608 
L 257.052014 81.362524 
L 258.962973 79.865872 
L 260.873932 85.482685 
L 262.78489 90.671997 
L 264.695849 88.544357 
L 266.606808 81.047964 
L 268.517767 78.97843 
L 270.428726 83.998435 
L 272.339685 74.102587 
L 274.250644 83.435017 
L 276.161603 79.641162 
L 278.072562 82.310954 
L 279.983521 84.410061 
L 281.894479 92.837992 
L 283.805438 80.60718 
L 285.716397 100.292017 
L 287.627356 111.438274 
L 289.538315 107.869142 
L 291.449274 103.315959 
L 293.360233 109.903999 
L 295.271192 113.420909 
L 297.182151 117.732008 
L 299.09311 122.570939 
L 301.004068 114.417003 
L 302.915027 117.612539 
L 304.825986 112.127 
L 306.736945 110.565959 
L 308.647904 110.447525 
L 310.558863 113.62313 
L 312.469822 123.249087 
L 314.380781 123.58657 
L 316.29174 131.54161 
L 318.202699 130.7398 
L 320.113658 138.487448 
L 322.024616 134.951395 
L 323.935575 143.878501 
L 325.846534 153.962029 
L 327.757493 169.83576 
L 329.668452 169.427299 
L 331.579411 175.432345 
L 333.49037 172.340573 
L 335.401329 188.157833 
L 337.312288 185.419315 
L 339.223247 184.439968 
L 343.045164 170.076201 
L 344.956123 163.842424 
L 346.867082 161.187323 
L 348.778041 157.056907 
L 350.689 155.734907 
L 350.689 155.734907 
" style="fill:none;stroke:#00008b;stroke-linecap:square;stroke-width:1.5;"/>
   </g>
   <g id="patch_3">
    <path d="M 71.689 299.589 
L 71.689 27.789 
" style="fill:none;stroke:#000000;stroke-linecap:square;stroke-linejoin:miter;stroke-width:2;"/>
   </g>
   <g id="patch_4">
    <path d="M 71.689 299.589 
L 350.689 299.589 
" style="fill:none;stroke:#000000;stroke-linecap:square;stroke-linejoin:miter;stroke-width:2;"/>
   </g>
   <g id="text_17">
    <!-- Naive, Step = 30 -->
    <defs>
     <path d="M 9.8125 72.90625 
L 23.09375 72.90625 
L 55.421875 11.921875 
L 55.421875 72.90625 
L 64.984375 72.90625 
L 64.984375 0 
L 51.703125 0 
L 19.390625 60.984375 
L 19.390625 0 
L 9.8125 0 
z
" id="DejaVuSans-78"/>
     <path d="M 11.71875 12.40625 
L 22.015625 12.40625 
L 22.015625 4 
L 14.015625 -11.625 
L 7.71875 -11.625 
L 11.71875 4 
z
" id="DejaVuSans-44"/>
     <path d="M 53.515625 70.515625 
L 53.515625 60.890625 
Q 47.90625 63.578125 42.921875 64.890625 
Q 37.9375 66.21875 33.296875 66.21875 
Q 25.25 66.21875 20.875 63.09375 
Q 16.5 59.96875 16.5 54.203125 
Q 16.5 49.359375 19.40625 46.890625 
Q 22.3125 44.4375 30.421875 42.921875 
L 36.375 41.703125 
Q 47.40625 39.59375 52.65625 34.296875 
Q 57.90625 29 57.90625 20.125 
Q 57.90625 9.515625 50.796875 4.046875 
Q 43.703125 -1.421875 29.984375 -1.421875 
Q 24.8125 -1.421875 18.96875 -0.25 
Q 13.140625 0.921875 6.890625 3.21875 
L 6.890625 13.375 
Q 12.890625 10.015625 18.65625 8.296875 
Q 24.421875 6.59375 29.984375 6.59375 
Q 38.421875 6.59375 43.015625 9.90625 
Q 47.609375 13.234375 47.609375 19.390625 
Q 47.609375 24.75 44.3125 27.78125 
Q 41.015625 30.8125 33.5 32.328125 
L 27.484375 33.5 
Q 16.453125 35.6875 11.515625 40.375 
Q 6.59375 45.0625 6.59375 53.421875 
Q 6.59375 63.09375 13.40625 68.65625 
Q 20.21875 74.21875 32.171875 74.21875 
Q 37.3125 74.21875 42.625 73.28125 
Q 47.953125 72.359375 53.515625 70.515625 
z
" id="DejaVuSans-83"/>
     <path d="M 10.59375 45.40625 
L 73.1875 45.40625 
L 73.1875 37.203125 
L 10.59375 37.203125 
z
M 10.59375 25.484375 
L 73.1875 25.484375 
L 73.1875 17.1875 
L 10.59375 17.1875 
z
" id="DejaVuSans-61"/>
    </defs>
    <g transform="translate(129.544 21.789)scale(0.192 -0.192)">
     <use xlink:href="#DejaVuSans-78"/>
     <use x="74.804688" xlink:href="#DejaVuSans-97"/>
     <use x="136.083984" xlink:href="#DejaVuSans-105"/>
     <use x="163.867188" xlink:href="#DejaVuSans-118"/>
     <use x="223.046875" xlink:href="#DejaVuSans-101"/>
     <use x="284.570312" xlink:href="#DejaVuSans-44"/>
     <use x="316.357422" xlink:href="#DejaVuSans-32"/>
     <use x="348.144531" xlink:href="#DejaVuSans-83"/>
     <use x="411.621094" xlink:href="#DejaVuSans-116"/>
     <use x="450.830078" xlink:href="#DejaVuSans-101"/>
     <use x="512.353516" xlink:href="#DejaVuSans-112"/>
     <use x="575.830078" xlink:href="#DejaVuSans-32"/>
     <use x="607.617188" xlink:href="#DejaVuSans-61"/>
     <use x="691.40625" xlink:href="#DejaVuSans-32"/>
     <use x="723.193359" xlink:href="#DejaVuSans-51"/>
     <use x="786.816406" xlink:href="#DejaVuSans-48"/>
    </g>
   </g>
  </g>
 </g>
 <defs>
  <clipPath id="p3001c497f0">
   <rect height="271.8" width="279" x="71.689" y="27.789"/>
  </clipPath>
 </defs>
</svg>
