<?xml version="1.0" encoding="utf-8" standalone="no"?>
<!DOCTYPE svg PUBLIC "-//W3C//DTD SVG 1.1//EN"
  "http://www.w3.org/Graphics/SVG/1.1/DTD/svg11.dtd">
<!-- Created with matplotlib (https://matplotlib.org/) -->
<svg height="290.899pt" version="1.1" viewBox="0 0 413.689 290.899" width="413.689pt" xmlns="http://www.w3.org/2000/svg" xmlns:xlink="http://www.w3.org/1999/xlink">
 <defs>
  <style type="text/css">
*{stroke-linecap:butt;stroke-linejoin:round;}
  </style>
 </defs>
 <g id="figure_1">
  <g id="patch_1">
   <path d="M 0 290.899 
L 413.689 290.899 
L 413.689 0 
L 0 0 
z
" style="fill:#ffffff;"/>
  </g>
  <g id="axes_1">
   <g id="patch_2">
    <path d="M 71.689 245.229 
L 406.489 245.229 
L 406.489 27.789 
L 71.689 27.789 
z
" style="fill:#ffffff;"/>
   </g>
   <g id="PolyCollection_1">
    <defs>
     <path d="M 86.907182 -121.511648 
L 86.907182 -152.872757 
L 88.936273 -158.000322 
L 90.965364 -157.39987 
L 92.994455 -164.67976 
L 95.023545 -164.57579 
L 97.052636 -159.567433 
L 99.081727 -153.140302 
L 101.110818 -152.987108 
L 103.139909 -156.474885 
L 105.169 -160.194102 
L 107.198091 -156.597591 
L 109.227182 -156.878614 
L 111.256273 -153.630461 
L 113.285364 -158.945641 
L 115.314455 -152.545764 
L 117.343545 -142.085139 
L 119.372636 -143.578331 
L 121.401727 -137.455241 
L 123.430818 -138.282735 
L 125.459909 -135.96276 
L 127.489 -138.808454 
L 129.518091 -136.375989 
L 131.547182 -126.857862 
L 133.576273 -133.896036 
L 135.605364 -127.946508 
L 137.634455 -119.168713 
L 139.663545 -128.243533 
L 141.692636 -132.421096 
L 143.721727 -130.335463 
L 145.750818 -128.324382 
L 147.779909 -128.186153 
L 149.809 -123.491039 
L 151.838091 -117.079232 
L 153.867182 -127.154084 
L 155.896273 -123.915009 
L 157.925364 -121.825385 
L 159.954455 -132.923491 
L 161.983545 -119.73132 
L 164.012636 -122.201047 
L 166.041727 -127.389341 
L 168.070818 -128.079891 
L 170.099909 -129.200761 
L 172.129 -123.075886 
L 174.158091 -121.084634 
L 176.187182 -123.130066 
L 178.216273 -128.613377 
L 180.245364 -136.081269 
L 182.274455 -134.535826 
L 184.303545 -131.76287 
L 186.332636 -133.821992 
L 188.361727 -118.870019 
L 190.390818 -115.558734 
L 192.419909 -110.70137 
L 194.449 -107.305222 
L 196.478091 -96.864207 
L 198.507182 -90.482591 
L 200.536273 -94.134116 
L 202.565364 -90.3001 
L 204.594455 -99.831228 
L 206.623545 -96.745315 
L 208.652636 -88.409181 
L 210.681727 -89.110982 
L 212.710818 -96.363849 
L 214.739909 -116.277633 
L 216.769 -121.373144 
L 218.798091 -117.220863 
L 220.827182 -111.054723 
L 222.856273 -113.168754 
L 224.885364 -125.337834 
L 226.914455 -122.898031 
L 228.943545 -128.275912 
L 230.972636 -139.400455 
L 233.001727 -142.011062 
L 235.030818 -152.317731 
L 237.059909 -165.393907 
L 239.089 -180.097011 
L 241.118091 -182.724873 
L 243.147182 -190.927336 
L 245.176273 -190.714645 
L 247.205364 -213.280119 
L 249.234455 -219.49586 
L 251.263545 -218.244048 
L 253.292636 -216.296686 
L 255.321727 -223.448475 
L 257.350818 -208.64392 
L 259.379909 -217.411685 
L 261.409 -220.593062 
L 263.438091 -230.303353 
L 265.467182 -231.658128 
L 267.496273 -229.207039 
L 269.525364 -233.348489 
L 271.554455 -225.624518 
L 273.583545 -225.648326 
L 275.612636 -217.510991 
L 277.641727 -215.060773 
L 279.670818 -208.111354 
L 281.699909 -200.867563 
L 283.729 -205.925178 
L 285.758091 -210.995427 
L 287.787182 -221.015479 
L 289.816273 -216.887722 
L 291.845364 -215.57776 
L 293.874455 -221.67525 
L 295.903545 -223.511115 
L 297.932636 -220.160375 
L 299.961727 -236.323975 
L 301.990818 -239.483861 
L 304.019909 -243.464179 
L 306.049 -237.151439 
L 308.078091 -253.152058 
L 310.107182 -251.050436 
L 312.136273 -257.045192 
L 314.165364 -259.528699 
L 316.194455 -248.522212 
L 318.223545 -249.268091 
L 320.252636 -256.742467 
L 322.281727 -258.107644 
L 324.310818 -244.71965 
L 326.339909 -246.841774 
L 328.369 -251.473679 
L 330.398091 -253.493942 
L 332.427182 -243.305711 
L 334.456273 -245.871094 
L 336.485364 -247.719676 
L 338.514455 -246.989486 
L 340.543545 -241.812678 
L 342.572636 -230.683692 
L 344.601727 -221.735874 
L 346.630818 -232.957432 
L 348.659909 -226.079837 
L 350.689 -216.182955 
L 352.718091 -219.489384 
L 354.747182 -204.484003 
L 356.776273 -194.097927 
L 358.805364 -210.555316 
L 360.834455 -203.178411 
L 362.863545 -194.742543 
L 364.892636 -190.634025 
L 366.921727 -202.369986 
L 368.950818 -201.326451 
L 370.979909 -186.249359 
L 373.009 -188.206336 
L 375.038091 -198.564913 
L 377.067182 -188.287732 
L 379.096273 -179.729293 
L 381.125364 -165.862666 
L 383.154455 -169.801526 
L 385.183545 -180.89394 
L 387.212636 -169.730413 
L 389.241727 -158.898829 
L 391.270818 -152.872757 
L 391.270818 -121.511648 
L 391.270818 -121.511648 
L 389.241727 -115.015079 
L 387.212636 -122.854438 
L 385.183545 -132.506067 
L 383.154455 -123.928973 
L 381.125364 -124.279466 
L 379.096273 -141.698866 
L 377.067182 -153.608371 
L 375.038091 -168.968287 
L 373.009 -162.068002 
L 370.979909 -160.871255 
L 368.950818 -166.129371 
L 366.921727 -168.756059 
L 364.892636 -161.037676 
L 362.863545 -162.755466 
L 360.834455 -171.948058 
L 358.805364 -172.560012 
L 356.776273 -164.916735 
L 354.747182 -172.519772 
L 352.718091 -183.91527 
L 350.689 -181.380862 
L 348.659909 -187.721856 
L 346.630818 -189.190756 
L 344.601727 -186.108846 
L 342.572636 -190.767565 
L 340.543545 -198.576688 
L 338.514455 -204.867665 
L 336.485364 -196.635912 
L 334.456273 -199.584714 
L 332.427182 -198.451396 
L 330.398091 -208.480015 
L 328.369 -210.781646 
L 326.339909 -203.637088 
L 324.310818 -200.672729 
L 322.281727 -212.880927 
L 320.252636 -213.93853 
L 318.223545 -207.30299 
L 316.194455 -202.921995 
L 314.165364 -216.910717 
L 312.136273 -210.411655 
L 310.107182 -203.347181 
L 308.078091 -213.53241 
L 306.049 -196.587758 
L 304.019909 -205.870412 
L 301.990818 -209.642223 
L 299.961727 -203.942427 
L 297.932636 -177.684783 
L 295.903545 -183.58591 
L 293.874455 -181.776132 
L 291.845364 -173.544247 
L 289.816273 -174.660083 
L 287.787182 -178.791039 
L 285.758091 -173.084159 
L 283.729 -168.613593 
L 281.699909 -162.728314 
L 279.670818 -170.777894 
L 277.641727 -179.236383 
L 275.612636 -179.49796 
L 273.583545 -185.011817 
L 271.554455 -186.648439 
L 269.525364 -192.692088 
L 267.496273 -181.581855 
L 265.467182 -180.832652 
L 263.438091 -188.206913 
L 261.409 -178.955982 
L 259.379909 -171.027245 
L 257.350818 -165.454731 
L 255.321727 -176.7422 
L 253.292636 -171.344838 
L 251.263545 -171.534634 
L 249.234455 -167.673753 
L 247.205364 -165.59343 
L 245.176273 -150.023728 
L 243.147182 -148.499236 
L 241.118091 -142.263912 
L 239.089 -145.529518 
L 237.059909 -129.084858 
L 235.030818 -114.896054 
L 233.001727 -104.199973 
L 230.972636 -97.474313 
L 228.943545 -82.880907 
L 226.914455 -76.686866 
L 224.885364 -78.726866 
L 222.856273 -63.260964 
L 220.827182 -62.886348 
L 218.798091 -65.517633 
L 216.769 -71.266833 
L 214.739909 -70.20068 
L 212.710818 -52.950789 
L 210.681727 -54.04613 
L 208.652636 -47.595915 
L 206.623545 -51.545336 
L 204.594455 -55.362233 
L 202.565364 -50.852822 
L 200.536273 -65.742125 
L 198.507182 -65.592615 
L 196.478091 -71.562327 
L 194.449 -83.751662 
L 192.419909 -89.982832 
L 190.390818 -90.715808 
L 188.361727 -87.132808 
L 186.332636 -95.823406 
L 184.303545 -92.048345 
L 182.274455 -93.370219 
L 180.245364 -96.265783 
L 178.216273 -86.74429 
L 176.187182 -87.277383 
L 174.158091 -87.421528 
L 172.129 -88.379665 
L 170.099909 -99.436338 
L 168.070818 -97.996394 
L 166.041727 -97.926322 
L 164.012636 -94.628458 
L 161.983545 -89.709953 
L 159.954455 -97.386018 
L 157.925364 -84.132017 
L 155.896273 -82.791531 
L 153.867182 -80.13568 
L 151.838091 -71.718615 
L 149.809 -71.574364 
L 147.779909 -75.969262 
L 145.750818 -73.676184 
L 143.721727 -75.829892 
L 141.692636 -73.405126 
L 139.663545 -69.858259 
L 137.634455 -63.689026 
L 135.605364 -78.587973 
L 133.576273 -85.787391 
L 131.547182 -73.922714 
L 129.518091 -85.692052 
L 127.489 -87.125423 
L 125.459909 -83.836096 
L 123.430818 -86.95403 
L 121.401727 -82.550066 
L 119.372636 -101.242434 
L 117.343545 -105.377407 
L 115.314455 -111.70668 
L 113.285364 -116.936218 
L 111.256273 -111.634924 
L 109.227182 -117.895773 
L 107.198091 -117.255044 
L 105.169 -117.351637 
L 103.139909 -114.105988 
L 101.110818 -107.947352 
L 99.081727 -106.923137 
L 97.052636 -111.212294 
L 95.023545 -112.862624 
L 92.994455 -123.149464 
L 90.965364 -113.938556 
L 88.936273 -124.689686 
L 86.907182 -121.511648 
z
" id="mb5ab0a5e06" style="stroke:#1e90ff;stroke-opacity:0.2;"/>
    </defs>
    <g clip-path="url(#p7ef4ec3306)">
     <use style="fill:#1e90ff;fill-opacity:0.2;stroke:#1e90ff;stroke-opacity:0.2;" x="0" xlink:href="#mb5ab0a5e06" y="290.899"/>
    </g>
   </g>
   <g id="matplotlib.axis_1">
    <g id="xtick_1">
     <g id="line2d_1">
      <defs>
       <path d="M 0 0 
L 0 -6 
" id="mb513a7790b" style="stroke:#000000;stroke-width:2;"/>
      </defs>
      <g>
       <use style="stroke:#000000;stroke-width:2;" x="86.907182" xlink:href="#mb513a7790b" y="245.229"/>
      </g>
     </g>
     <g id="text_1">
      <!-- -75 -->
      <defs>
       <path d="M 4.890625 31.390625 
L 31.203125 31.390625 
L 31.203125 23.390625 
L 4.890625 23.390625 
z
" id="DejaVuSans-45"/>
       <path d="M 8.203125 72.90625 
L 55.078125 72.90625 
L 55.078125 68.703125 
L 28.609375 0 
L 18.3125 0 
L 43.21875 64.59375 
L 8.203125 64.59375 
z
" id="DejaVuSans-55"/>
       <path d="M 10.796875 72.90625 
L 49.515625 72.90625 
L 49.515625 64.59375 
L 19.828125 64.59375 
L 19.828125 46.734375 
Q 21.96875 47.46875 24.109375 47.828125 
Q 26.265625 48.1875 28.421875 48.1875 
Q 40.625 48.1875 47.75 41.5 
Q 54.890625 34.8125 54.890625 23.390625 
Q 54.890625 11.625 47.5625 5.09375 
Q 40.234375 -1.421875 26.90625 -1.421875 
Q 22.3125 -1.421875 17.546875 -0.640625 
Q 12.796875 0.140625 7.71875 1.703125 
L 7.71875 11.625 
Q 12.109375 9.234375 16.796875 8.0625 
Q 21.484375 6.890625 26.703125 6.890625 
Q 35.15625 6.890625 40.078125 11.328125 
Q 45.015625 15.765625 45.015625 23.390625 
Q 45.015625 31 40.078125 35.4375 
Q 35.15625 39.890625 26.703125 39.890625 
Q 22.75 39.890625 18.8125 39.015625 
Q 14.890625 38.140625 10.796875 36.28125 
z
" id="DejaVuSans-53"/>
      </defs>
      <g transform="translate(73.840932 260.8865)scale(0.16 -0.16)">
       <use xlink:href="#DejaVuSans-45"/>
       <use x="36.083984" xlink:href="#DejaVuSans-55"/>
       <use x="99.707031" xlink:href="#DejaVuSans-53"/>
      </g>
     </g>
    </g>
    <g id="xtick_2">
     <g id="line2d_2">
      <g>
       <use style="stroke:#000000;stroke-width:2;" x="137.634455" xlink:href="#mb513a7790b" y="245.229"/>
      </g>
     </g>
     <g id="text_2">
      <!-- -50 -->
      <defs>
       <path d="M 31.78125 66.40625 
Q 24.171875 66.40625 20.328125 58.90625 
Q 16.5 51.421875 16.5 36.375 
Q 16.5 21.390625 20.328125 13.890625 
Q 24.171875 6.390625 31.78125 6.390625 
Q 39.453125 6.390625 43.28125 13.890625 
Q 47.125 21.390625 47.125 36.375 
Q 47.125 51.421875 43.28125 58.90625 
Q 39.453125 66.40625 31.78125 66.40625 
z
M 31.78125 74.21875 
Q 44.046875 74.21875 50.515625 64.515625 
Q 56.984375 54.828125 56.984375 36.375 
Q 56.984375 17.96875 50.515625 8.265625 
Q 44.046875 -1.421875 31.78125 -1.421875 
Q 19.53125 -1.421875 13.0625 8.265625 
Q 6.59375 17.96875 6.59375 36.375 
Q 6.59375 54.828125 13.0625 64.515625 
Q 19.53125 74.21875 31.78125 74.21875 
z
" id="DejaVuSans-48"/>
      </defs>
      <g transform="translate(124.568205 260.8865)scale(0.16 -0.16)">
       <use xlink:href="#DejaVuSans-45"/>
       <use x="36.083984" xlink:href="#DejaVuSans-53"/>
       <use x="99.707031" xlink:href="#DejaVuSans-48"/>
      </g>
     </g>
    </g>
    <g id="xtick_3">
     <g id="line2d_3">
      <g>
       <use style="stroke:#000000;stroke-width:2;" x="188.361727" xlink:href="#mb513a7790b" y="245.229"/>
      </g>
     </g>
     <g id="text_3">
      <!-- -25 -->
      <defs>
       <path d="M 19.1875 8.296875 
L 53.609375 8.296875 
L 53.609375 0 
L 7.328125 0 
L 7.328125 8.296875 
Q 12.9375 14.109375 22.625 23.890625 
Q 32.328125 33.6875 34.8125 36.53125 
Q 39.546875 41.84375 41.421875 45.53125 
Q 43.3125 49.21875 43.3125 52.78125 
Q 43.3125 58.59375 39.234375 62.25 
Q 35.15625 65.921875 28.609375 65.921875 
Q 23.96875 65.921875 18.8125 64.3125 
Q 13.671875 62.703125 7.8125 59.421875 
L 7.8125 69.390625 
Q 13.765625 71.78125 18.9375 73 
Q 24.125 74.21875 28.421875 74.21875 
Q 39.75 74.21875 46.484375 68.546875 
Q 53.21875 62.890625 53.21875 53.421875 
Q 53.21875 48.921875 51.53125 44.890625 
Q 49.859375 40.875 45.40625 35.40625 
Q 44.1875 33.984375 37.640625 27.21875 
Q 31.109375 20.453125 19.1875 8.296875 
z
" id="DejaVuSans-50"/>
      </defs>
      <g transform="translate(175.295477 260.8865)scale(0.16 -0.16)">
       <use xlink:href="#DejaVuSans-45"/>
       <use x="36.083984" xlink:href="#DejaVuSans-50"/>
       <use x="99.707031" xlink:href="#DejaVuSans-53"/>
      </g>
     </g>
    </g>
    <g id="xtick_4">
     <g id="line2d_4">
      <g>
       <use style="stroke:#000000;stroke-width:2;" x="239.089" xlink:href="#mb513a7790b" y="245.229"/>
      </g>
     </g>
     <g id="text_4">
      <!-- 0 -->
      <g transform="translate(233.999 260.8865)scale(0.16 -0.16)">
       <use xlink:href="#DejaVuSans-48"/>
      </g>
     </g>
    </g>
    <g id="xtick_5">
     <g id="line2d_5">
      <g>
       <use style="stroke:#000000;stroke-width:2;" x="289.816273" xlink:href="#mb513a7790b" y="245.229"/>
      </g>
     </g>
     <g id="text_5">
      <!-- 25 -->
      <g transform="translate(279.636273 260.8865)scale(0.16 -0.16)">
       <use xlink:href="#DejaVuSans-50"/>
       <use x="63.623047" xlink:href="#DejaVuSans-53"/>
      </g>
     </g>
    </g>
    <g id="xtick_6">
     <g id="line2d_6">
      <g>
       <use style="stroke:#000000;stroke-width:2;" x="340.543545" xlink:href="#mb513a7790b" y="245.229"/>
      </g>
     </g>
     <g id="text_6">
      <!-- 50 -->
      <g transform="translate(330.363545 260.8865)scale(0.16 -0.16)">
       <use xlink:href="#DejaVuSans-53"/>
       <use x="63.623047" xlink:href="#DejaVuSans-48"/>
      </g>
     </g>
    </g>
    <g id="xtick_7">
     <g id="line2d_7">
      <g>
       <use style="stroke:#000000;stroke-width:2;" x="391.270818" xlink:href="#mb513a7790b" y="245.229"/>
      </g>
     </g>
     <g id="text_7">
      <!-- 75 -->
      <g transform="translate(381.090818 260.8865)scale(0.16 -0.16)">
       <use xlink:href="#DejaVuSans-55"/>
       <use x="63.623047" xlink:href="#DejaVuSans-53"/>
      </g>
     </g>
    </g>
    <g id="text_8">
     <!-- Relative Orientation of Previous Trial -->
     <defs>
      <path d="M 44.390625 34.1875 
Q 47.5625 33.109375 50.5625 29.59375 
Q 53.5625 26.078125 56.59375 19.921875 
L 66.609375 0 
L 56 0 
L 46.6875 18.703125 
Q 43.0625 26.03125 39.671875 28.421875 
Q 36.28125 30.8125 30.421875 30.8125 
L 19.671875 30.8125 
L 19.671875 0 
L 9.8125 0 
L 9.8125 72.90625 
L 32.078125 72.90625 
Q 44.578125 72.90625 50.734375 67.671875 
Q 56.890625 62.453125 56.890625 51.90625 
Q 56.890625 45.015625 53.6875 40.46875 
Q 50.484375 35.9375 44.390625 34.1875 
z
M 19.671875 64.796875 
L 19.671875 38.921875 
L 32.078125 38.921875 
Q 39.203125 38.921875 42.84375 42.21875 
Q 46.484375 45.515625 46.484375 51.90625 
Q 46.484375 58.296875 42.84375 61.546875 
Q 39.203125 64.796875 32.078125 64.796875 
z
" id="DejaVuSans-82"/>
      <path d="M 56.203125 29.59375 
L 56.203125 25.203125 
L 14.890625 25.203125 
Q 15.484375 15.921875 20.484375 11.0625 
Q 25.484375 6.203125 34.421875 6.203125 
Q 39.59375 6.203125 44.453125 7.46875 
Q 49.3125 8.734375 54.109375 11.28125 
L 54.109375 2.78125 
Q 49.265625 0.734375 44.1875 -0.34375 
Q 39.109375 -1.421875 33.890625 -1.421875 
Q 20.796875 -1.421875 13.15625 6.1875 
Q 5.515625 13.8125 5.515625 26.8125 
Q 5.515625 40.234375 12.765625 48.109375 
Q 20.015625 56 32.328125 56 
Q 43.359375 56 49.78125 48.890625 
Q 56.203125 41.796875 56.203125 29.59375 
z
M 47.21875 32.234375 
Q 47.125 39.59375 43.09375 43.984375 
Q 39.0625 48.390625 32.421875 48.390625 
Q 24.90625 48.390625 20.390625 44.140625 
Q 15.875 39.890625 15.1875 32.171875 
z
" id="DejaVuSans-101"/>
      <path d="M 9.421875 75.984375 
L 18.40625 75.984375 
L 18.40625 0 
L 9.421875 0 
z
" id="DejaVuSans-108"/>
      <path d="M 34.28125 27.484375 
Q 23.390625 27.484375 19.1875 25 
Q 14.984375 22.515625 14.984375 16.5 
Q 14.984375 11.71875 18.140625 8.90625 
Q 21.296875 6.109375 26.703125 6.109375 
Q 34.1875 6.109375 38.703125 11.40625 
Q 43.21875 16.703125 43.21875 25.484375 
L 43.21875 27.484375 
z
M 52.203125 31.203125 
L 52.203125 0 
L 43.21875 0 
L 43.21875 8.296875 
Q 40.140625 3.328125 35.546875 0.953125 
Q 30.953125 -1.421875 24.3125 -1.421875 
Q 15.921875 -1.421875 10.953125 3.296875 
Q 6 8.015625 6 15.921875 
Q 6 25.140625 12.171875 29.828125 
Q 18.359375 34.515625 30.609375 34.515625 
L 43.21875 34.515625 
L 43.21875 35.40625 
Q 43.21875 41.609375 39.140625 45 
Q 35.0625 48.390625 27.6875 48.390625 
Q 23 48.390625 18.546875 47.265625 
Q 14.109375 46.140625 10.015625 43.890625 
L 10.015625 52.203125 
Q 14.9375 54.109375 19.578125 55.046875 
Q 24.21875 56 28.609375 56 
Q 40.484375 56 46.34375 49.84375 
Q 52.203125 43.703125 52.203125 31.203125 
z
" id="DejaVuSans-97"/>
      <path d="M 18.3125 70.21875 
L 18.3125 54.6875 
L 36.8125 54.6875 
L 36.8125 47.703125 
L 18.3125 47.703125 
L 18.3125 18.015625 
Q 18.3125 11.328125 20.140625 9.421875 
Q 21.96875 7.515625 27.59375 7.515625 
L 36.8125 7.515625 
L 36.8125 0 
L 27.59375 0 
Q 17.1875 0 13.234375 3.875 
Q 9.28125 7.765625 9.28125 18.015625 
L 9.28125 47.703125 
L 2.6875 47.703125 
L 2.6875 54.6875 
L 9.28125 54.6875 
L 9.28125 70.21875 
z
" id="DejaVuSans-116"/>
      <path d="M 9.421875 54.6875 
L 18.40625 54.6875 
L 18.40625 0 
L 9.421875 0 
z
M 9.421875 75.984375 
L 18.40625 75.984375 
L 18.40625 64.59375 
L 9.421875 64.59375 
z
" id="DejaVuSans-105"/>
      <path d="M 2.984375 54.6875 
L 12.5 54.6875 
L 29.59375 8.796875 
L 46.6875 54.6875 
L 56.203125 54.6875 
L 35.6875 0 
L 23.484375 0 
z
" id="DejaVuSans-118"/>
      <path id="DejaVuSans-32"/>
      <path d="M 39.40625 66.21875 
Q 28.65625 66.21875 22.328125 58.203125 
Q 16.015625 50.203125 16.015625 36.375 
Q 16.015625 22.609375 22.328125 14.59375 
Q 28.65625 6.59375 39.40625 6.59375 
Q 50.140625 6.59375 56.421875 14.59375 
Q 62.703125 22.609375 62.703125 36.375 
Q 62.703125 50.203125 56.421875 58.203125 
Q 50.140625 66.21875 39.40625 66.21875 
z
M 39.40625 74.21875 
Q 54.734375 74.21875 63.90625 63.9375 
Q 73.09375 53.65625 73.09375 36.375 
Q 73.09375 19.140625 63.90625 8.859375 
Q 54.734375 -1.421875 39.40625 -1.421875 
Q 24.03125 -1.421875 14.8125 8.828125 
Q 5.609375 19.09375 5.609375 36.375 
Q 5.609375 53.65625 14.8125 63.9375 
Q 24.03125 74.21875 39.40625 74.21875 
z
" id="DejaVuSans-79"/>
      <path d="M 41.109375 46.296875 
Q 39.59375 47.171875 37.8125 47.578125 
Q 36.03125 48 33.890625 48 
Q 26.265625 48 22.1875 43.046875 
Q 18.109375 38.09375 18.109375 28.8125 
L 18.109375 0 
L 9.078125 0 
L 9.078125 54.6875 
L 18.109375 54.6875 
L 18.109375 46.1875 
Q 20.953125 51.171875 25.484375 53.578125 
Q 30.03125 56 36.53125 56 
Q 37.453125 56 38.578125 55.875 
Q 39.703125 55.765625 41.0625 55.515625 
z
" id="DejaVuSans-114"/>
      <path d="M 54.890625 33.015625 
L 54.890625 0 
L 45.90625 0 
L 45.90625 32.71875 
Q 45.90625 40.484375 42.875 44.328125 
Q 39.84375 48.1875 33.796875 48.1875 
Q 26.515625 48.1875 22.3125 43.546875 
Q 18.109375 38.921875 18.109375 30.90625 
L 18.109375 0 
L 9.078125 0 
L 9.078125 54.6875 
L 18.109375 54.6875 
L 18.109375 46.1875 
Q 21.34375 51.125 25.703125 53.5625 
Q 30.078125 56 35.796875 56 
Q 45.21875 56 50.046875 50.171875 
Q 54.890625 44.34375 54.890625 33.015625 
z
" id="DejaVuSans-110"/>
      <path d="M 30.609375 48.390625 
Q 23.390625 48.390625 19.1875 42.75 
Q 14.984375 37.109375 14.984375 27.296875 
Q 14.984375 17.484375 19.15625 11.84375 
Q 23.34375 6.203125 30.609375 6.203125 
Q 37.796875 6.203125 41.984375 11.859375 
Q 46.1875 17.53125 46.1875 27.296875 
Q 46.1875 37.015625 41.984375 42.703125 
Q 37.796875 48.390625 30.609375 48.390625 
z
M 30.609375 56 
Q 42.328125 56 49.015625 48.375 
Q 55.71875 40.765625 55.71875 27.296875 
Q 55.71875 13.875 49.015625 6.21875 
Q 42.328125 -1.421875 30.609375 -1.421875 
Q 18.84375 -1.421875 12.171875 6.21875 
Q 5.515625 13.875 5.515625 27.296875 
Q 5.515625 40.765625 12.171875 48.375 
Q 18.84375 56 30.609375 56 
z
" id="DejaVuSans-111"/>
      <path d="M 37.109375 75.984375 
L 37.109375 68.5 
L 28.515625 68.5 
Q 23.6875 68.5 21.796875 66.546875 
Q 19.921875 64.59375 19.921875 59.515625 
L 19.921875 54.6875 
L 34.71875 54.6875 
L 34.71875 47.703125 
L 19.921875 47.703125 
L 19.921875 0 
L 10.890625 0 
L 10.890625 47.703125 
L 2.296875 47.703125 
L 2.296875 54.6875 
L 10.890625 54.6875 
L 10.890625 58.5 
Q 10.890625 67.625 15.140625 71.796875 
Q 19.390625 75.984375 28.609375 75.984375 
z
" id="DejaVuSans-102"/>
      <path d="M 19.671875 64.796875 
L 19.671875 37.40625 
L 32.078125 37.40625 
Q 38.96875 37.40625 42.71875 40.96875 
Q 46.484375 44.53125 46.484375 51.125 
Q 46.484375 57.671875 42.71875 61.234375 
Q 38.96875 64.796875 32.078125 64.796875 
z
M 9.8125 72.90625 
L 32.078125 72.90625 
Q 44.34375 72.90625 50.609375 67.359375 
Q 56.890625 61.8125 56.890625 51.125 
Q 56.890625 40.328125 50.609375 34.8125 
Q 44.34375 29.296875 32.078125 29.296875 
L 19.671875 29.296875 
L 19.671875 0 
L 9.8125 0 
z
" id="DejaVuSans-80"/>
      <path d="M 8.5 21.578125 
L 8.5 54.6875 
L 17.484375 54.6875 
L 17.484375 21.921875 
Q 17.484375 14.15625 20.5 10.265625 
Q 23.53125 6.390625 29.59375 6.390625 
Q 36.859375 6.390625 41.078125 11.03125 
Q 45.3125 15.671875 45.3125 23.6875 
L 45.3125 54.6875 
L 54.296875 54.6875 
L 54.296875 0 
L 45.3125 0 
L 45.3125 8.40625 
Q 42.046875 3.421875 37.71875 1 
Q 33.40625 -1.421875 27.6875 -1.421875 
Q 18.265625 -1.421875 13.375 4.4375 
Q 8.5 10.296875 8.5 21.578125 
z
M 31.109375 56 
z
" id="DejaVuSans-117"/>
      <path d="M 44.28125 53.078125 
L 44.28125 44.578125 
Q 40.484375 46.53125 36.375 47.5 
Q 32.28125 48.484375 27.875 48.484375 
Q 21.1875 48.484375 17.84375 46.4375 
Q 14.5 44.390625 14.5 40.28125 
Q 14.5 37.15625 16.890625 35.375 
Q 19.28125 33.59375 26.515625 31.984375 
L 29.59375 31.296875 
Q 39.15625 29.25 43.1875 25.515625 
Q 47.21875 21.78125 47.21875 15.09375 
Q 47.21875 7.46875 41.1875 3.015625 
Q 35.15625 -1.421875 24.609375 -1.421875 
Q 20.21875 -1.421875 15.453125 -0.5625 
Q 10.6875 0.296875 5.421875 2 
L 5.421875 11.28125 
Q 10.40625 8.6875 15.234375 7.390625 
Q 20.0625 6.109375 24.8125 6.109375 
Q 31.15625 6.109375 34.5625 8.28125 
Q 37.984375 10.453125 37.984375 14.40625 
Q 37.984375 18.0625 35.515625 20.015625 
Q 33.0625 21.96875 24.703125 23.78125 
L 21.578125 24.515625 
Q 13.234375 26.265625 9.515625 29.90625 
Q 5.8125 33.546875 5.8125 39.890625 
Q 5.8125 47.609375 11.28125 51.796875 
Q 16.75 56 26.8125 56 
Q 31.78125 56 36.171875 55.265625 
Q 40.578125 54.546875 44.28125 53.078125 
z
" id="DejaVuSans-115"/>
      <path d="M -0.296875 72.90625 
L 61.375 72.90625 
L 61.375 64.59375 
L 35.5 64.59375 
L 35.5 0 
L 25.59375 0 
L 25.59375 64.59375 
L -0.296875 64.59375 
z
" id="DejaVuSans-84"/>
     </defs>
     <g transform="translate(91.80025 280.3715)scale(0.16 -0.16)">
      <use xlink:href="#DejaVuSans-82"/>
      <use x="69.419922" xlink:href="#DejaVuSans-101"/>
      <use x="130.943359" xlink:href="#DejaVuSans-108"/>
      <use x="158.726562" xlink:href="#DejaVuSans-97"/>
      <use x="220.005859" xlink:href="#DejaVuSans-116"/>
      <use x="259.214844" xlink:href="#DejaVuSans-105"/>
      <use x="286.998047" xlink:href="#DejaVuSans-118"/>
      <use x="346.177734" xlink:href="#DejaVuSans-101"/>
      <use x="407.701172" xlink:href="#DejaVuSans-32"/>
      <use x="439.488281" xlink:href="#DejaVuSans-79"/>
      <use x="518.199219" xlink:href="#DejaVuSans-114"/>
      <use x="559.3125" xlink:href="#DejaVuSans-105"/>
      <use x="587.095703" xlink:href="#DejaVuSans-101"/>
      <use x="648.619141" xlink:href="#DejaVuSans-110"/>
      <use x="711.998047" xlink:href="#DejaVuSans-116"/>
      <use x="751.207031" xlink:href="#DejaVuSans-97"/>
      <use x="812.486328" xlink:href="#DejaVuSans-116"/>
      <use x="851.695312" xlink:href="#DejaVuSans-105"/>
      <use x="879.478516" xlink:href="#DejaVuSans-111"/>
      <use x="940.660156" xlink:href="#DejaVuSans-110"/>
      <use x="1004.039062" xlink:href="#DejaVuSans-32"/>
      <use x="1035.826172" xlink:href="#DejaVuSans-111"/>
      <use x="1097.007812" xlink:href="#DejaVuSans-102"/>
      <use x="1132.212891" xlink:href="#DejaVuSans-32"/>
      <use x="1164" xlink:href="#DejaVuSans-80"/>
      <use x="1224.287109" xlink:href="#DejaVuSans-114"/>
      <use x="1265.369141" xlink:href="#DejaVuSans-101"/>
      <use x="1326.892578" xlink:href="#DejaVuSans-118"/>
      <use x="1386.072266" xlink:href="#DejaVuSans-105"/>
      <use x="1413.855469" xlink:href="#DejaVuSans-111"/>
      <use x="1475.037109" xlink:href="#DejaVuSans-117"/>
      <use x="1538.416016" xlink:href="#DejaVuSans-115"/>
      <use x="1590.515625" xlink:href="#DejaVuSans-32"/>
      <use x="1622.302734" xlink:href="#DejaVuSans-84"/>
      <use x="1683.167969" xlink:href="#DejaVuSans-114"/>
      <use x="1724.28125" xlink:href="#DejaVuSans-105"/>
      <use x="1752.064453" xlink:href="#DejaVuSans-97"/>
      <use x="1813.34375" xlink:href="#DejaVuSans-108"/>
     </g>
    </g>
   </g>
   <g id="matplotlib.axis_2">
    <g id="ytick_1">
     <g id="line2d_8">
      <defs>
       <path d="M 0 0 
L 6 0 
" id="m7ecc218daf" style="stroke:#000000;stroke-width:2;"/>
      </defs>
      <g>
       <use style="stroke:#000000;stroke-width:2;" x="71.689" xlink:href="#m7ecc218daf" y="245.229"/>
      </g>
     </g>
     <g id="text_9">
      <!-- −3 -->
      <defs>
       <path d="M 10.59375 35.5 
L 73.1875 35.5 
L 73.1875 27.203125 
L 10.59375 27.203125 
z
" id="DejaVuSans-8722"/>
       <path d="M 40.578125 39.3125 
Q 47.65625 37.796875 51.625 33 
Q 55.609375 28.21875 55.609375 21.1875 
Q 55.609375 10.40625 48.1875 4.484375 
Q 40.765625 -1.421875 27.09375 -1.421875 
Q 22.515625 -1.421875 17.65625 -0.515625 
Q 12.796875 0.390625 7.625 2.203125 
L 7.625 11.71875 
Q 11.71875 9.328125 16.59375 8.109375 
Q 21.484375 6.890625 26.8125 6.890625 
Q 36.078125 6.890625 40.9375 10.546875 
Q 45.796875 14.203125 45.796875 21.1875 
Q 45.796875 27.640625 41.28125 31.265625 
Q 36.765625 34.90625 28.71875 34.90625 
L 20.21875 34.90625 
L 20.21875 43.015625 
L 29.109375 43.015625 
Q 36.375 43.015625 40.234375 45.921875 
Q 44.09375 48.828125 44.09375 54.296875 
Q 44.09375 59.90625 40.109375 62.90625 
Q 36.140625 65.921875 28.71875 65.921875 
Q 24.65625 65.921875 20.015625 65.03125 
Q 15.375 64.15625 9.8125 62.3125 
L 9.8125 71.09375 
Q 15.4375 72.65625 20.34375 73.4375 
Q 25.25 74.21875 29.59375 74.21875 
Q 40.828125 74.21875 47.359375 69.109375 
Q 53.90625 64.015625 53.90625 55.328125 
Q 53.90625 49.265625 50.4375 45.09375 
Q 46.96875 40.921875 40.578125 39.3125 
z
" id="DejaVuSans-51"/>
      </defs>
      <g transform="translate(44.6015 251.30775)scale(0.16 -0.16)">
       <use xlink:href="#DejaVuSans-8722"/>
       <use x="83.789062" xlink:href="#DejaVuSans-51"/>
      </g>
     </g>
    </g>
    <g id="ytick_2">
     <g id="line2d_9">
      <g>
       <use style="stroke:#000000;stroke-width:2;" x="71.689" xlink:href="#m7ecc218daf" y="208.989"/>
      </g>
     </g>
     <g id="text_10">
      <!-- −2 -->
      <g transform="translate(44.6015 215.06775)scale(0.16 -0.16)">
       <use xlink:href="#DejaVuSans-8722"/>
       <use x="83.789062" xlink:href="#DejaVuSans-50"/>
      </g>
     </g>
    </g>
    <g id="ytick_3">
     <g id="line2d_10">
      <g>
       <use style="stroke:#000000;stroke-width:2;" x="71.689" xlink:href="#m7ecc218daf" y="172.749"/>
      </g>
     </g>
     <g id="text_11">
      <!-- −1 -->
      <defs>
       <path d="M 12.40625 8.296875 
L 28.515625 8.296875 
L 28.515625 63.921875 
L 10.984375 60.40625 
L 10.984375 69.390625 
L 28.421875 72.90625 
L 38.28125 72.90625 
L 38.28125 8.296875 
L 54.390625 8.296875 
L 54.390625 0 
L 12.40625 0 
z
" id="DejaVuSans-49"/>
      </defs>
      <g transform="translate(44.6015 178.82775)scale(0.16 -0.16)">
       <use xlink:href="#DejaVuSans-8722"/>
       <use x="83.789062" xlink:href="#DejaVuSans-49"/>
      </g>
     </g>
    </g>
    <g id="ytick_4">
     <g id="line2d_11">
      <g>
       <use style="stroke:#000000;stroke-width:2;" x="71.689" xlink:href="#m7ecc218daf" y="136.509"/>
      </g>
     </g>
     <g id="text_12">
      <!-- 0 -->
      <g transform="translate(58.009 142.58775)scale(0.16 -0.16)">
       <use xlink:href="#DejaVuSans-48"/>
      </g>
     </g>
    </g>
    <g id="ytick_5">
     <g id="line2d_12">
      <g>
       <use style="stroke:#000000;stroke-width:2;" x="71.689" xlink:href="#m7ecc218daf" y="100.269"/>
      </g>
     </g>
     <g id="text_13">
      <!-- 1 -->
      <g transform="translate(58.009 106.34775)scale(0.16 -0.16)">
       <use xlink:href="#DejaVuSans-49"/>
      </g>
     </g>
    </g>
    <g id="ytick_6">
     <g id="line2d_13">
      <g>
       <use style="stroke:#000000;stroke-width:2;" x="71.689" xlink:href="#m7ecc218daf" y="64.029"/>
      </g>
     </g>
     <g id="text_14">
      <!-- 2 -->
      <g transform="translate(58.009 70.10775)scale(0.16 -0.16)">
       <use xlink:href="#DejaVuSans-50"/>
      </g>
     </g>
    </g>
    <g id="ytick_7">
     <g id="line2d_14">
      <g>
       <use style="stroke:#000000;stroke-width:2;" x="71.689" xlink:href="#m7ecc218daf" y="27.789"/>
      </g>
     </g>
     <g id="text_15">
      <!-- 3 -->
      <g transform="translate(58.009 33.86775)scale(0.16 -0.16)">
       <use xlink:href="#DejaVuSans-51"/>
      </g>
     </g>
    </g>
    <g id="text_16">
     <!-- Running Mean  -->
     <defs>
      <path d="M 45.40625 27.984375 
Q 45.40625 37.75 41.375 43.109375 
Q 37.359375 48.484375 30.078125 48.484375 
Q 22.859375 48.484375 18.828125 43.109375 
Q 14.796875 37.75 14.796875 27.984375 
Q 14.796875 18.265625 18.828125 12.890625 
Q 22.859375 7.515625 30.078125 7.515625 
Q 37.359375 7.515625 41.375 12.890625 
Q 45.40625 18.265625 45.40625 27.984375 
z
M 54.390625 6.78125 
Q 54.390625 -7.171875 48.1875 -13.984375 
Q 42 -20.796875 29.203125 -20.796875 
Q 24.46875 -20.796875 20.265625 -20.09375 
Q 16.0625 -19.390625 12.109375 -17.921875 
L 12.109375 -9.1875 
Q 16.0625 -11.328125 19.921875 -12.34375 
Q 23.78125 -13.375 27.78125 -13.375 
Q 36.625 -13.375 41.015625 -8.765625 
Q 45.40625 -4.15625 45.40625 5.171875 
L 45.40625 9.625 
Q 42.625 4.78125 38.28125 2.390625 
Q 33.9375 0 27.875 0 
Q 17.828125 0 11.671875 7.65625 
Q 5.515625 15.328125 5.515625 27.984375 
Q 5.515625 40.671875 11.671875 48.328125 
Q 17.828125 56 27.875 56 
Q 33.9375 56 38.28125 53.609375 
Q 42.625 51.21875 45.40625 46.390625 
L 45.40625 54.6875 
L 54.390625 54.6875 
z
" id="DejaVuSans-103"/>
      <path d="M 9.8125 72.90625 
L 24.515625 72.90625 
L 43.109375 23.296875 
L 61.8125 72.90625 
L 76.515625 72.90625 
L 76.515625 0 
L 66.890625 0 
L 66.890625 64.015625 
L 48.09375 14.015625 
L 38.1875 14.015625 
L 19.390625 64.015625 
L 19.390625 0 
L 9.8125 0 
z
" id="DejaVuSans-77"/>
     </defs>
     <g transform="translate(19.3575 196.5265)rotate(-90)scale(0.16 -0.16)">
      <use xlink:href="#DejaVuSans-82"/>
      <use x="69.419922" xlink:href="#DejaVuSans-117"/>
      <use x="132.798828" xlink:href="#DejaVuSans-110"/>
      <use x="196.177734" xlink:href="#DejaVuSans-110"/>
      <use x="259.556641" xlink:href="#DejaVuSans-105"/>
      <use x="287.339844" xlink:href="#DejaVuSans-110"/>
      <use x="350.71875" xlink:href="#DejaVuSans-103"/>
      <use x="414.195312" xlink:href="#DejaVuSans-32"/>
      <use x="445.982422" xlink:href="#DejaVuSans-77"/>
      <use x="532.261719" xlink:href="#DejaVuSans-101"/>
      <use x="593.785156" xlink:href="#DejaVuSans-97"/>
      <use x="655.064453" xlink:href="#DejaVuSans-110"/>
      <use x="718.443359" xlink:href="#DejaVuSans-32"/>
     </g>
     <!--  of Response Error -->
     <defs>
      <path d="M 18.109375 8.203125 
L 18.109375 -20.796875 
L 9.078125 -20.796875 
L 9.078125 54.6875 
L 18.109375 54.6875 
L 18.109375 46.390625 
Q 20.953125 51.265625 25.265625 53.625 
Q 29.59375 56 35.59375 56 
Q 45.5625 56 51.78125 48.09375 
Q 58.015625 40.1875 58.015625 27.296875 
Q 58.015625 14.40625 51.78125 6.484375 
Q 45.5625 -1.421875 35.59375 -1.421875 
Q 29.59375 -1.421875 25.265625 0.953125 
Q 20.953125 3.328125 18.109375 8.203125 
z
M 48.6875 27.296875 
Q 48.6875 37.203125 44.609375 42.84375 
Q 40.53125 48.484375 33.40625 48.484375 
Q 26.265625 48.484375 22.1875 42.84375 
Q 18.109375 37.203125 18.109375 27.296875 
Q 18.109375 17.390625 22.1875 11.75 
Q 26.265625 6.109375 33.40625 6.109375 
Q 40.53125 6.109375 44.609375 11.75 
Q 48.6875 17.390625 48.6875 27.296875 
z
" id="DejaVuSans-112"/>
      <path d="M 9.8125 72.90625 
L 55.90625 72.90625 
L 55.90625 64.59375 
L 19.671875 64.59375 
L 19.671875 43.015625 
L 54.390625 43.015625 
L 54.390625 34.71875 
L 19.671875 34.71875 
L 19.671875 8.296875 
L 56.78125 8.296875 
L 56.78125 0 
L 9.8125 0 
z
" id="DejaVuSans-69"/>
     </defs>
     <g transform="translate(37.274 210.43775)rotate(-90)scale(0.16 -0.16)">
      <use xlink:href="#DejaVuSans-32"/>
      <use x="31.787109" xlink:href="#DejaVuSans-111"/>
      <use x="92.96875" xlink:href="#DejaVuSans-102"/>
      <use x="128.173828" xlink:href="#DejaVuSans-32"/>
      <use x="159.960938" xlink:href="#DejaVuSans-82"/>
      <use x="229.380859" xlink:href="#DejaVuSans-101"/>
      <use x="290.904297" xlink:href="#DejaVuSans-115"/>
      <use x="343.003906" xlink:href="#DejaVuSans-112"/>
      <use x="406.480469" xlink:href="#DejaVuSans-111"/>
      <use x="467.662109" xlink:href="#DejaVuSans-110"/>
      <use x="531.041016" xlink:href="#DejaVuSans-115"/>
      <use x="583.140625" xlink:href="#DejaVuSans-101"/>
      <use x="644.664062" xlink:href="#DejaVuSans-32"/>
      <use x="676.451172" xlink:href="#DejaVuSans-69"/>
      <use x="739.634766" xlink:href="#DejaVuSans-114"/>
      <use x="780.732422" xlink:href="#DejaVuSans-114"/>
      <use x="821.814453" xlink:href="#DejaVuSans-111"/>
      <use x="882.996094" xlink:href="#DejaVuSans-114"/>
     </g>
    </g>
   </g>
   <g id="line2d_15">
    <path clip-path="url(#p7ef4ec3306)" d="M 86.907182 153.706797 
L 88.936273 149.553996 
L 90.965364 155.229787 
L 92.994455 146.984388 
L 95.023545 152.179793 
L 97.052636 155.509137 
L 99.081727 160.867281 
L 101.110818 160.43177 
L 103.139909 155.608563 
L 105.169 152.126131 
L 107.198091 153.972683 
L 109.227182 153.511806 
L 111.256273 158.266307 
L 113.285364 152.95807 
L 115.314455 158.772778 
L 117.343545 167.167727 
L 119.372636 168.488618 
L 121.401727 180.896346 
L 123.430818 178.280617 
L 125.459909 180.999572 
L 127.489 177.932061 
L 129.518091 179.864979 
L 131.547182 190.508712 
L 133.576273 181.057286 
L 135.605364 187.63176 
L 137.634455 199.47013 
L 139.663545 191.848104 
L 141.692636 187.985889 
L 143.721727 187.816322 
L 145.750818 189.898717 
L 147.779909 188.821293 
L 149.809 193.366298 
L 151.838091 196.500076 
L 153.867182 187.254118 
L 157.925364 187.920299 
L 159.954455 175.744245 
L 161.983545 186.178363 
L 164.012636 182.484248 
L 166.041727 178.241169 
L 168.070818 177.860858 
L 170.099909 176.580451 
L 172.129 185.171225 
L 174.158091 186.645919 
L 176.187182 185.695276 
L 178.216273 183.220166 
L 180.245364 174.725474 
L 182.274455 176.945977 
L 184.303545 178.993393 
L 186.332636 176.076301 
L 188.361727 187.897586 
L 190.390818 187.761729 
L 192.419909 190.556899 
L 194.449 195.370558 
L 196.478091 206.685733 
L 198.507182 212.861397 
L 200.536273 210.96088 
L 202.565364 220.322539 
L 204.594455 213.30227 
L 206.623545 216.753674 
L 208.652636 222.896452 
L 210.681727 219.320444 
L 212.710818 216.241681 
L 214.739909 197.659843 
L 216.769 194.579011 
L 218.798091 199.529752 
L 220.827182 203.928464 
L 222.856273 202.684141 
L 224.885364 188.86665 
L 226.914455 191.106551 
L 228.943545 185.32059 
L 230.972636 172.461616 
L 233.001727 167.793483 
L 235.030818 157.292108 
L 237.059909 143.659618 
L 239.089 128.085736 
L 241.118091 128.404608 
L 243.147182 121.185714 
L 245.176273 120.529814 
L 247.205364 101.462226 
L 249.234455 97.314194 
L 251.263545 96.009659 
L 253.292636 97.078238 
L 255.321727 90.803663 
L 257.350818 103.849675 
L 259.379909 96.679535 
L 261.409 91.124478 
L 263.438091 81.643867 
L 265.467182 84.65361 
L 267.496273 85.504553 
L 269.525364 77.878712 
L 271.554455 84.762522 
L 273.583545 85.568929 
L 275.612636 92.394525 
L 277.641727 93.750422 
L 281.699909 109.101061 
L 283.729 103.629615 
L 285.758091 98.859207 
L 287.787182 90.995741 
L 289.816273 95.125098 
L 291.845364 96.337997 
L 293.874455 89.173309 
L 295.903545 87.350488 
L 297.932636 91.976421 
L 299.961727 70.765799 
L 301.990818 66.335958 
L 304.019909 66.231705 
L 306.049 74.029401 
L 308.078091 57.556766 
L 310.107182 63.700191 
L 312.136273 57.170576 
L 314.165364 52.679292 
L 316.194455 65.176897 
L 318.223545 62.61346 
L 320.252636 55.558501 
L 322.281727 55.404714 
L 324.310818 68.20281 
L 326.339909 65.659569 
L 328.369 59.771337 
L 330.398091 59.912022 
L 332.427182 70.020446 
L 334.456273 68.171096 
L 336.485364 68.721206 
L 338.514455 64.970425 
L 340.543545 70.704317 
L 342.572636 80.173371 
L 344.601727 86.97664 
L 346.630818 79.824906 
L 348.659909 83.998154 
L 350.689 92.117091 
L 352.718091 89.196673 
L 354.747182 102.397112 
L 356.776273 111.391669 
L 358.805364 99.341336 
L 360.834455 103.335765 
L 362.863545 112.149995 
L 364.892636 115.06315 
L 366.921727 105.335977 
L 368.950818 107.171089 
L 370.979909 117.338693 
L 373.009 115.761831 
L 375.038091 107.1324 
L 377.067182 119.950949 
L 379.096273 130.18492 
L 381.125364 145.827934 
L 383.154455 144.033751 
L 385.183545 134.198996 
L 387.212636 144.606574 
L 389.241727 153.942046 
L 391.270818 153.706797 
L 391.270818 153.706797 
" style="fill:none;stroke:#00008b;stroke-linecap:square;stroke-width:1.5;"/>
   </g>
   <g id="patch_3">
    <path d="M 71.689 245.229 
L 71.689 27.789 
" style="fill:none;stroke:#000000;stroke-linecap:square;stroke-linejoin:miter;stroke-width:2;"/>
   </g>
   <g id="patch_4">
    <path d="M 71.689 245.229 
L 406.489 245.229 
" style="fill:none;stroke:#000000;stroke-linecap:square;stroke-linejoin:miter;stroke-width:2;"/>
   </g>
   <g id="text_17">
    <!-- Radiologists -->
    <defs>
     <path d="M 45.40625 46.390625 
L 45.40625 75.984375 
L 54.390625 75.984375 
L 54.390625 0 
L 45.40625 0 
L 45.40625 8.203125 
Q 42.578125 3.328125 38.25 0.953125 
Q 33.9375 -1.421875 27.875 -1.421875 
Q 17.96875 -1.421875 11.734375 6.484375 
Q 5.515625 14.40625 5.515625 27.296875 
Q 5.515625 40.1875 11.734375 48.09375 
Q 17.96875 56 27.875 56 
Q 33.9375 56 38.25 53.625 
Q 42.578125 51.265625 45.40625 46.390625 
z
M 14.796875 27.296875 
Q 14.796875 17.390625 18.875 11.75 
Q 22.953125 6.109375 30.078125 6.109375 
Q 37.203125 6.109375 41.296875 11.75 
Q 45.40625 17.390625 45.40625 27.296875 
Q 45.40625 37.203125 41.296875 42.84375 
Q 37.203125 48.484375 30.078125 48.484375 
Q 22.953125 48.484375 18.875 42.84375 
Q 14.796875 37.203125 14.796875 27.296875 
z
" id="DejaVuSans-100"/>
    </defs>
    <g transform="translate(180.835 21.789)scale(0.192 -0.192)">
     <use xlink:href="#DejaVuSans-82"/>
     <use x="69.451172" xlink:href="#DejaVuSans-97"/>
     <use x="130.730469" xlink:href="#DejaVuSans-100"/>
     <use x="194.207031" xlink:href="#DejaVuSans-105"/>
     <use x="221.990234" xlink:href="#DejaVuSans-111"/>
     <use x="283.171875" xlink:href="#DejaVuSans-108"/>
     <use x="310.955078" xlink:href="#DejaVuSans-111"/>
     <use x="372.136719" xlink:href="#DejaVuSans-103"/>
     <use x="435.613281" xlink:href="#DejaVuSans-105"/>
     <use x="463.396484" xlink:href="#DejaVuSans-115"/>
     <use x="515.496094" xlink:href="#DejaVuSans-116"/>
     <use x="554.705078" xlink:href="#DejaVuSans-115"/>
    </g>
   </g>
  </g>
 </g>
 <defs>
  <clipPath id="p7ef4ec3306">
   <rect height="217.44" width="334.8" x="71.689" y="27.789"/>
  </clipPath>
 </defs>
</svg>
