<?xml version="1.0" encoding="utf-8" standalone="no"?>
<!DOCTYPE svg PUBLIC "-//W3C//DTD SVG 1.1//EN"
  "http://www.w3.org/Graphics/SVG/1.1/DTD/svg11.dtd">
<!-- Created with matplotlib (https://matplotlib.org/) -->
<svg height="363.1755pt" version="1.1" viewBox="0 0 368.069 363.1755" width="368.069pt" xmlns="http://www.w3.org/2000/svg" xmlns:xlink="http://www.w3.org/1999/xlink">
 <defs>
  <style type="text/css">
*{stroke-linecap:butt;stroke-linejoin:round;}
  </style>
 </defs>
 <g id="figure_1">
  <g id="patch_1">
   <path d="M 0 363.1755 
L 368.069 363.1755 
L 368.069 0 
L 0 0 
z
" style="fill:#ffffff;"/>
  </g>
  <g id="axes_1">
   <g id="patch_2">
    <path d="M 71.689 299.589 
L 350.689 299.589 
L 350.689 27.789 
L 71.689 27.789 
z
" style="fill:#ffffff;"/>
   </g>
   <g id="PolyCollection_1">
    <defs>
     <path d="M 71.689 -190.045438 
L 71.689 -222.990539 
L 73.599959 -215.619547 
L 75.510918 -212.551658 
L 77.421877 -202.556171 
L 79.332836 -204.583697 
L 81.243795 -202.817356 
L 83.154753 -193.768123 
L 85.065712 -185.412652 
L 86.976671 -185.388351 
L 88.88763 -184.476976 
L 90.798589 -183.261764 
L 92.709548 -183.503029 
L 94.620507 -183.038047 
L 96.531466 -174.542291 
L 98.442425 -180.657378 
L 100.353384 -181.560563 
L 102.264342 -180.330076 
L 104.175301 -178.424402 
L 106.08626 -181.142531 
L 107.997219 -177.502541 
L 109.908178 -179.93091 
L 111.819137 -179.906858 
L 113.730096 -169.543092 
L 115.641055 -169.297132 
L 117.552014 -174.98665 
L 119.462973 -178.492194 
L 121.373932 -172.889986 
L 123.28489 -171.359333 
L 125.195849 -163.775645 
L 127.106808 -158.42491 
L 129.017767 -156.570271 
L 130.928726 -160.932928 
L 132.839685 -163.383682 
L 134.750644 -157.893208 
L 136.661603 -147.755647 
L 138.572562 -147.187637 
L 140.483521 -152.323531 
L 142.394479 -152.238564 
L 144.305438 -148.854502 
L 146.216397 -144.001257 
L 148.127356 -151.052879 
L 150.038315 -150.587278 
L 151.949274 -149.958797 
L 153.860233 -148.310072 
L 155.771192 -147.453538 
L 157.682151 -145.796242 
L 159.59311 -145.468486 
L 161.504068 -145.279537 
L 163.415027 -145.722638 
L 165.325986 -142.587685 
L 167.236945 -138.828138 
L 169.147904 -140.200125 
L 171.058863 -142.963104 
L 172.969822 -142.224547 
L 174.880781 -147.681924 
L 176.79174 -145.956275 
L 178.702699 -140.200942 
L 180.613658 -144.602658 
L 182.524616 -146.833375 
L 184.435575 -151.964524 
L 186.346534 -143.839387 
L 188.257493 -155.767313 
L 190.168452 -157.243954 
L 192.079411 -169.832731 
L 193.99037 -171.512755 
L 195.901329 -173.411956 
L 197.812288 -176.204892 
L 199.723247 -175.978179 
L 201.634205 -187.897272 
L 203.545164 -188.18966 
L 205.456123 -193.924598 
L 207.367082 -194.583598 
L 209.278041 -198.101583 
L 211.189 -201.63812 
L 213.099959 -211.320991 
L 215.010918 -203.786669 
L 216.921877 -215.659484 
L 218.832836 -218.429982 
L 220.743795 -229.597255 
L 222.654753 -232.316314 
L 224.565712 -245.797466 
L 226.476671 -248.841057 
L 228.38763 -255.149468 
L 230.298589 -266.574566 
L 232.209548 -272.628934 
L 234.120507 -275.022935 
L 236.031466 -274.227719 
L 237.942425 -275.355166 
L 239.853384 -274.726843 
L 241.764342 -275.014667 
L 243.675301 -277.988843 
L 245.58626 -278.622353 
L 247.497219 -280.147427 
L 249.408178 -284.221179 
L 251.319137 -278.513304 
L 253.230096 -285.069451 
L 255.141055 -283.247176 
L 257.052014 -283.698972 
L 258.962973 -284.844879 
L 260.873932 -285.633536 
L 262.78489 -283.87004 
L 264.695849 -277.867485 
L 266.606808 -290.067248 
L 268.517767 -296.202452 
L 270.428726 -297.423772 
L 272.339685 -291.289164 
L 274.250644 -294.049694 
L 276.161603 -293.404148 
L 278.072562 -285.153923 
L 279.983521 -281.27079 
L 281.894479 -295.875358 
L 283.805438 -291.848913 
L 285.716397 -284.734307 
L 287.627356 -287.412002 
L 289.538315 -302.484577 
L 291.449274 -303.189536 
L 293.360233 -298.290539 
L 295.271192 -293.830496 
L 297.182151 -288.944137 
L 299.09311 -298.526508 
L 301.004068 -294.514316 
L 302.915027 -294.325706 
L 304.825986 -294.830016 
L 306.736945 -292.232069 
L 308.647904 -288.619798 
L 310.558863 -296.793126 
L 312.469822 -287.457071 
L 314.380781 -284.224009 
L 316.29174 -272.277857 
L 318.202699 -272.577737 
L 320.113658 -269.027328 
L 322.024616 -260.779884 
L 323.935575 -249.496376 
L 325.846534 -246.723069 
L 327.757493 -248.398018 
L 329.668452 -236.199869 
L 331.579411 -238.60164 
L 333.49037 -227.799083 
L 335.401329 -219.395665 
L 337.312288 -227.243967 
L 339.223247 -226.462296 
L 341.134205 -226.31827 
L 343.045164 -232.833488 
L 344.956123 -232.205037 
L 346.867082 -224.763399 
L 348.778041 -214.692956 
L 350.689 -222.990539 
L 350.689 -190.045438 
L 350.689 -190.045438 
L 348.778041 -180.394921 
L 346.867082 -191.761986 
L 344.956123 -197.851045 
L 343.045164 -199.672418 
L 341.134205 -194.888732 
L 339.223247 -196.207053 
L 337.312288 -200.828848 
L 335.401329 -194.089694 
L 333.49037 -199.606573 
L 331.579411 -211.598122 
L 329.668452 -210.982522 
L 327.757493 -219.780734 
L 325.846534 -219.535549 
L 323.935575 -226.433091 
L 322.024616 -235.407634 
L 320.113658 -241.099413 
L 318.202699 -245.585735 
L 316.29174 -244.842261 
L 314.380781 -251.245321 
L 312.469822 -254.917695 
L 310.558863 -258.996368 
L 308.647904 -257.43199 
L 306.736945 -260.420859 
L 304.825986 -262.114926 
L 302.915027 -265.247117 
L 301.004068 -263.482129 
L 299.09311 -261.839584 
L 297.182151 -249.593754 
L 295.271192 -253.639434 
L 293.360233 -256.464538 
L 291.449274 -257.231 
L 289.538315 -257.879833 
L 287.627356 -250.144958 
L 285.716397 -253.781184 
L 283.805438 -264.767789 
L 281.894479 -268.817018 
L 279.983521 -258.298379 
L 278.072562 -260.646167 
L 276.161603 -263.012128 
L 274.250644 -262.612514 
L 272.339685 -258.352497 
L 270.428726 -261.968066 
L 268.517767 -262.22716 
L 266.606808 -256.873692 
L 264.695849 -248.363977 
L 262.78489 -253.32782 
L 260.873932 -252.62679 
L 258.962973 -252.230265 
L 257.052014 -253.353403 
L 255.141055 -247.240057 
L 253.230096 -244.562443 
L 251.319137 -238.532356 
L 249.408178 -239.963503 
L 247.497219 -235.119606 
L 245.58626 -231.896811 
L 243.675301 -230.253996 
L 241.764342 -227.487154 
L 239.853384 -226.162161 
L 237.942425 -226.470378 
L 236.031466 -227.248379 
L 234.120507 -226.822405 
L 232.209548 -225.013383 
L 230.298589 -221.262422 
L 228.38763 -212.287154 
L 226.476671 -207.822648 
L 224.565712 -200.65624 
L 222.654753 -190.84736 
L 220.743795 -192.576558 
L 218.832836 -181.642864 
L 216.921877 -175.217234 
L 215.010918 -164.283198 
L 213.099959 -173.68045 
L 211.189 -163.972068 
L 209.278041 -160.165717 
L 207.367082 -162.250423 
L 205.456123 -163.21294 
L 203.545164 -157.558354 
L 201.634205 -156.595907 
L 199.723247 -147.975426 
L 197.812288 -150.424657 
L 195.901329 -140.129699 
L 193.99037 -133.33253 
L 192.079411 -130.800373 
L 190.168452 -116.477852 
L 188.257493 -116.452569 
L 186.346534 -102.070462 
L 184.435575 -108.809043 
L 182.524616 -103.548523 
L 180.613658 -105.8395 
L 178.702699 -100.945216 
L 176.79174 -105.384953 
L 174.880781 -108.246521 
L 172.969822 -102.104719 
L 171.058863 -102.235062 
L 169.147904 -102.478012 
L 167.236945 -96.189892 
L 165.325986 -99.941233 
L 163.415027 -107.149943 
L 161.504068 -107.675296 
L 159.59311 -112.49098 
L 157.682151 -112.835132 
L 155.771192 -119.286106 
L 153.860233 -121.89411 
L 151.949274 -125.25262 
L 150.038315 -116.451842 
L 148.127356 -116.512591 
L 146.216397 -110.098844 
L 144.305438 -110.76145 
L 142.394479 -110.331926 
L 140.483521 -110.450143 
L 138.572562 -107.742675 
L 136.661603 -108.345942 
L 134.750644 -117.820406 
L 132.839685 -125.291428 
L 130.928726 -121.080212 
L 129.017767 -114.153931 
L 127.106808 -117.846081 
L 125.195849 -122.493936 
L 123.28489 -126.122814 
L 121.373932 -128.801282 
L 119.462973 -129.291529 
L 117.552014 -124.694012 
L 115.641055 -122.939544 
L 113.730096 -120.022229 
L 111.819137 -130.848215 
L 109.908178 -126.78183 
L 107.997219 -123.502907 
L 106.08626 -125.865914 
L 104.175301 -122.013135 
L 102.264342 -124.430766 
L 100.353384 -128.147545 
L 98.442425 -126.557738 
L 96.531466 -117.87441 
L 94.620507 -131.559615 
L 92.709548 -132.757392 
L 90.798589 -130.999492 
L 88.88763 -133.610658 
L 86.976671 -134.226817 
L 85.065712 -139.777263 
L 83.154753 -150.083816 
L 81.243795 -159.274939 
L 79.332836 -163.118825 
L 77.421877 -160.684803 
L 75.510918 -172.225698 
L 73.599959 -181.576932 
L 71.689 -190.045438 
z
" id="m26ae5ce08a" style="stroke:#1e90ff;stroke-opacity:0.2;"/>
    </defs>
    <g clip-path="url(#p1d9a26c9b0)">
     <use style="fill:#1e90ff;fill-opacity:0.2;stroke:#1e90ff;stroke-opacity:0.2;" x="0" xlink:href="#m26ae5ce08a" y="363.1755"/>
    </g>
   </g>
   <g id="matplotlib.axis_1">
    <g id="xtick_1">
     <g id="line2d_1">
      <defs>
       <path d="M 0 0 
L 0 -6 
" id="m8ffbbd6df5" style="stroke:#000000;stroke-width:2;"/>
      </defs>
      <g>
       <use style="stroke:#000000;stroke-width:2;" x="71.689" xlink:href="#m8ffbbd6df5" y="299.589"/>
      </g>
     </g>
     <g id="text_1">
      <!-- -73 -->
      <defs>
       <path d="M 4.890625 31.390625 
L 31.203125 31.390625 
L 31.203125 23.390625 
L 4.890625 23.390625 
z
" id="DejaVuSans-45"/>
       <path d="M 8.203125 72.90625 
L 55.078125 72.90625 
L 55.078125 68.703125 
L 28.609375 0 
L 18.3125 0 
L 43.21875 64.59375 
L 8.203125 64.59375 
z
" id="DejaVuSans-55"/>
       <path d="M 40.578125 39.3125 
Q 47.65625 37.796875 51.625 33 
Q 55.609375 28.21875 55.609375 21.1875 
Q 55.609375 10.40625 48.1875 4.484375 
Q 40.765625 -1.421875 27.09375 -1.421875 
Q 22.515625 -1.421875 17.65625 -0.515625 
Q 12.796875 0.390625 7.625 2.203125 
L 7.625 11.71875 
Q 11.71875 9.328125 16.59375 8.109375 
Q 21.484375 6.890625 26.8125 6.890625 
Q 36.078125 6.890625 40.9375 10.546875 
Q 45.796875 14.203125 45.796875 21.1875 
Q 45.796875 27.640625 41.28125 31.265625 
Q 36.765625 34.90625 28.71875 34.90625 
L 20.21875 34.90625 
L 20.21875 43.015625 
L 29.109375 43.015625 
Q 36.375 43.015625 40.234375 45.921875 
Q 44.09375 48.828125 44.09375 54.296875 
Q 44.09375 59.90625 40.109375 62.90625 
Q 36.140625 65.921875 28.71875 65.921875 
Q 24.65625 65.921875 20.015625 65.03125 
Q 15.375 64.15625 9.8125 62.3125 
L 9.8125 71.09375 
Q 15.4375 72.65625 20.34375 73.4375 
Q 25.25 74.21875 29.59375 74.21875 
Q 40.828125 74.21875 47.359375 69.109375 
Q 53.90625 64.015625 53.90625 55.328125 
Q 53.90625 49.265625 50.4375 45.09375 
Q 46.96875 40.921875 40.578125 39.3125 
z
" id="DejaVuSans-51"/>
      </defs>
      <g transform="translate(58.62275 315.2465)scale(0.16 -0.16)">
       <use xlink:href="#DejaVuSans-45"/>
       <use x="36.083984" xlink:href="#DejaVuSans-55"/>
       <use x="99.707031" xlink:href="#DejaVuSans-51"/>
      </g>
     </g>
    </g>
    <g id="xtick_2">
     <g id="line2d_2">
      <g>
       <use style="stroke:#000000;stroke-width:2;" x="115.641055" xlink:href="#m8ffbbd6df5" y="299.589"/>
      </g>
     </g>
     <g id="text_2">
      <!-- -50 -->
      <defs>
       <path d="M 10.796875 72.90625 
L 49.515625 72.90625 
L 49.515625 64.59375 
L 19.828125 64.59375 
L 19.828125 46.734375 
Q 21.96875 47.46875 24.109375 47.828125 
Q 26.265625 48.1875 28.421875 48.1875 
Q 40.625 48.1875 47.75 41.5 
Q 54.890625 34.8125 54.890625 23.390625 
Q 54.890625 11.625 47.5625 5.09375 
Q 40.234375 -1.421875 26.90625 -1.421875 
Q 22.3125 -1.421875 17.546875 -0.640625 
Q 12.796875 0.140625 7.71875 1.703125 
L 7.71875 11.625 
Q 12.109375 9.234375 16.796875 8.0625 
Q 21.484375 6.890625 26.703125 6.890625 
Q 35.15625 6.890625 40.078125 11.328125 
Q 45.015625 15.765625 45.015625 23.390625 
Q 45.015625 31 40.078125 35.4375 
Q 35.15625 39.890625 26.703125 39.890625 
Q 22.75 39.890625 18.8125 39.015625 
Q 14.890625 38.140625 10.796875 36.28125 
z
" id="DejaVuSans-53"/>
       <path d="M 31.78125 66.40625 
Q 24.171875 66.40625 20.328125 58.90625 
Q 16.5 51.421875 16.5 36.375 
Q 16.5 21.390625 20.328125 13.890625 
Q 24.171875 6.390625 31.78125 6.390625 
Q 39.453125 6.390625 43.28125 13.890625 
Q 47.125 21.390625 47.125 36.375 
Q 47.125 51.421875 43.28125 58.90625 
Q 39.453125 66.40625 31.78125 66.40625 
z
M 31.78125 74.21875 
Q 44.046875 74.21875 50.515625 64.515625 
Q 56.984375 54.828125 56.984375 36.375 
Q 56.984375 17.96875 50.515625 8.265625 
Q 44.046875 -1.421875 31.78125 -1.421875 
Q 19.53125 -1.421875 13.0625 8.265625 
Q 6.59375 17.96875 6.59375 36.375 
Q 6.59375 54.828125 13.0625 64.515625 
Q 19.53125 74.21875 31.78125 74.21875 
z
" id="DejaVuSans-48"/>
      </defs>
      <g transform="translate(102.574805 315.2465)scale(0.16 -0.16)">
       <use xlink:href="#DejaVuSans-45"/>
       <use x="36.083984" xlink:href="#DejaVuSans-53"/>
       <use x="99.707031" xlink:href="#DejaVuSans-48"/>
      </g>
     </g>
    </g>
    <g id="xtick_3">
     <g id="line2d_3">
      <g>
       <use style="stroke:#000000;stroke-width:2;" x="163.415027" xlink:href="#m8ffbbd6df5" y="299.589"/>
      </g>
     </g>
     <g id="text_3">
      <!-- -25 -->
      <defs>
       <path d="M 19.1875 8.296875 
L 53.609375 8.296875 
L 53.609375 0 
L 7.328125 0 
L 7.328125 8.296875 
Q 12.9375 14.109375 22.625 23.890625 
Q 32.328125 33.6875 34.8125 36.53125 
Q 39.546875 41.84375 41.421875 45.53125 
Q 43.3125 49.21875 43.3125 52.78125 
Q 43.3125 58.59375 39.234375 62.25 
Q 35.15625 65.921875 28.609375 65.921875 
Q 23.96875 65.921875 18.8125 64.3125 
Q 13.671875 62.703125 7.8125 59.421875 
L 7.8125 69.390625 
Q 13.765625 71.78125 18.9375 73 
Q 24.125 74.21875 28.421875 74.21875 
Q 39.75 74.21875 46.484375 68.546875 
Q 53.21875 62.890625 53.21875 53.421875 
Q 53.21875 48.921875 51.53125 44.890625 
Q 49.859375 40.875 45.40625 35.40625 
Q 44.1875 33.984375 37.640625 27.21875 
Q 31.109375 20.453125 19.1875 8.296875 
z
" id="DejaVuSans-50"/>
      </defs>
      <g transform="translate(150.348777 315.2465)scale(0.16 -0.16)">
       <use xlink:href="#DejaVuSans-45"/>
       <use x="36.083984" xlink:href="#DejaVuSans-50"/>
       <use x="99.707031" xlink:href="#DejaVuSans-53"/>
      </g>
     </g>
    </g>
    <g id="xtick_4">
     <g id="line2d_4">
      <g>
       <use style="stroke:#000000;stroke-width:2;" x="211.189" xlink:href="#m8ffbbd6df5" y="299.589"/>
      </g>
     </g>
     <g id="text_4">
      <!-- 0 -->
      <g transform="translate(206.099 315.2465)scale(0.16 -0.16)">
       <use xlink:href="#DejaVuSans-48"/>
      </g>
     </g>
    </g>
    <g id="xtick_5">
     <g id="line2d_5">
      <g>
       <use style="stroke:#000000;stroke-width:2;" x="258.962973" xlink:href="#m8ffbbd6df5" y="299.589"/>
      </g>
     </g>
     <g id="text_5">
      <!-- 25 -->
      <g transform="translate(248.782973 315.2465)scale(0.16 -0.16)">
       <use xlink:href="#DejaVuSans-50"/>
       <use x="63.623047" xlink:href="#DejaVuSans-53"/>
      </g>
     </g>
    </g>
    <g id="xtick_6">
     <g id="line2d_6">
      <g>
       <use style="stroke:#000000;stroke-width:2;" x="306.736945" xlink:href="#m8ffbbd6df5" y="299.589"/>
      </g>
     </g>
     <g id="text_6">
      <!-- 50 -->
      <g transform="translate(296.556945 315.2465)scale(0.16 -0.16)">
       <use xlink:href="#DejaVuSans-53"/>
       <use x="63.623047" xlink:href="#DejaVuSans-48"/>
      </g>
     </g>
    </g>
    <g id="xtick_7">
     <g id="line2d_7">
      <g>
       <use style="stroke:#000000;stroke-width:2;" x="350.689" xlink:href="#m8ffbbd6df5" y="299.589"/>
      </g>
     </g>
     <g id="text_7">
      <!-- 73 -->
      <g transform="translate(340.509 315.2465)scale(0.16 -0.16)">
       <use xlink:href="#DejaVuSans-55"/>
       <use x="63.623047" xlink:href="#DejaVuSans-51"/>
      </g>
     </g>
    </g>
    <g id="text_8">
     <!-- Previous Tumor - Current Tumor -->
     <defs>
      <path d="M 19.671875 64.796875 
L 19.671875 37.40625 
L 32.078125 37.40625 
Q 38.96875 37.40625 42.71875 40.96875 
Q 46.484375 44.53125 46.484375 51.125 
Q 46.484375 57.671875 42.71875 61.234375 
Q 38.96875 64.796875 32.078125 64.796875 
z
M 9.8125 72.90625 
L 32.078125 72.90625 
Q 44.34375 72.90625 50.609375 67.359375 
Q 56.890625 61.8125 56.890625 51.125 
Q 56.890625 40.328125 50.609375 34.8125 
Q 44.34375 29.296875 32.078125 29.296875 
L 19.671875 29.296875 
L 19.671875 0 
L 9.8125 0 
z
" id="DejaVuSans-80"/>
      <path d="M 41.109375 46.296875 
Q 39.59375 47.171875 37.8125 47.578125 
Q 36.03125 48 33.890625 48 
Q 26.265625 48 22.1875 43.046875 
Q 18.109375 38.09375 18.109375 28.8125 
L 18.109375 0 
L 9.078125 0 
L 9.078125 54.6875 
L 18.109375 54.6875 
L 18.109375 46.1875 
Q 20.953125 51.171875 25.484375 53.578125 
Q 30.03125 56 36.53125 56 
Q 37.453125 56 38.578125 55.875 
Q 39.703125 55.765625 41.0625 55.515625 
z
" id="DejaVuSans-114"/>
      <path d="M 56.203125 29.59375 
L 56.203125 25.203125 
L 14.890625 25.203125 
Q 15.484375 15.921875 20.484375 11.0625 
Q 25.484375 6.203125 34.421875 6.203125 
Q 39.59375 6.203125 44.453125 7.46875 
Q 49.3125 8.734375 54.109375 11.28125 
L 54.109375 2.78125 
Q 49.265625 0.734375 44.1875 -0.34375 
Q 39.109375 -1.421875 33.890625 -1.421875 
Q 20.796875 -1.421875 13.15625 6.1875 
Q 5.515625 13.8125 5.515625 26.8125 
Q 5.515625 40.234375 12.765625 48.109375 
Q 20.015625 56 32.328125 56 
Q 43.359375 56 49.78125 48.890625 
Q 56.203125 41.796875 56.203125 29.59375 
z
M 47.21875 32.234375 
Q 47.125 39.59375 43.09375 43.984375 
Q 39.0625 48.390625 32.421875 48.390625 
Q 24.90625 48.390625 20.390625 44.140625 
Q 15.875 39.890625 15.1875 32.171875 
z
" id="DejaVuSans-101"/>
      <path d="M 2.984375 54.6875 
L 12.5 54.6875 
L 29.59375 8.796875 
L 46.6875 54.6875 
L 56.203125 54.6875 
L 35.6875 0 
L 23.484375 0 
z
" id="DejaVuSans-118"/>
      <path d="M 9.421875 54.6875 
L 18.40625 54.6875 
L 18.40625 0 
L 9.421875 0 
z
M 9.421875 75.984375 
L 18.40625 75.984375 
L 18.40625 64.59375 
L 9.421875 64.59375 
z
" id="DejaVuSans-105"/>
      <path d="M 30.609375 48.390625 
Q 23.390625 48.390625 19.1875 42.75 
Q 14.984375 37.109375 14.984375 27.296875 
Q 14.984375 17.484375 19.15625 11.84375 
Q 23.34375 6.203125 30.609375 6.203125 
Q 37.796875 6.203125 41.984375 11.859375 
Q 46.1875 17.53125 46.1875 27.296875 
Q 46.1875 37.015625 41.984375 42.703125 
Q 37.796875 48.390625 30.609375 48.390625 
z
M 30.609375 56 
Q 42.328125 56 49.015625 48.375 
Q 55.71875 40.765625 55.71875 27.296875 
Q 55.71875 13.875 49.015625 6.21875 
Q 42.328125 -1.421875 30.609375 -1.421875 
Q 18.84375 -1.421875 12.171875 6.21875 
Q 5.515625 13.875 5.515625 27.296875 
Q 5.515625 40.765625 12.171875 48.375 
Q 18.84375 56 30.609375 56 
z
" id="DejaVuSans-111"/>
      <path d="M 8.5 21.578125 
L 8.5 54.6875 
L 17.484375 54.6875 
L 17.484375 21.921875 
Q 17.484375 14.15625 20.5 10.265625 
Q 23.53125 6.390625 29.59375 6.390625 
Q 36.859375 6.390625 41.078125 11.03125 
Q 45.3125 15.671875 45.3125 23.6875 
L 45.3125 54.6875 
L 54.296875 54.6875 
L 54.296875 0 
L 45.3125 0 
L 45.3125 8.40625 
Q 42.046875 3.421875 37.71875 1 
Q 33.40625 -1.421875 27.6875 -1.421875 
Q 18.265625 -1.421875 13.375 4.4375 
Q 8.5 10.296875 8.5 21.578125 
z
M 31.109375 56 
z
" id="DejaVuSans-117"/>
      <path d="M 44.28125 53.078125 
L 44.28125 44.578125 
Q 40.484375 46.53125 36.375 47.5 
Q 32.28125 48.484375 27.875 48.484375 
Q 21.1875 48.484375 17.84375 46.4375 
Q 14.5 44.390625 14.5 40.28125 
Q 14.5 37.15625 16.890625 35.375 
Q 19.28125 33.59375 26.515625 31.984375 
L 29.59375 31.296875 
Q 39.15625 29.25 43.1875 25.515625 
Q 47.21875 21.78125 47.21875 15.09375 
Q 47.21875 7.46875 41.1875 3.015625 
Q 35.15625 -1.421875 24.609375 -1.421875 
Q 20.21875 -1.421875 15.453125 -0.5625 
Q 10.6875 0.296875 5.421875 2 
L 5.421875 11.28125 
Q 10.40625 8.6875 15.234375 7.390625 
Q 20.0625 6.109375 24.8125 6.109375 
Q 31.15625 6.109375 34.5625 8.28125 
Q 37.984375 10.453125 37.984375 14.40625 
Q 37.984375 18.0625 35.515625 20.015625 
Q 33.0625 21.96875 24.703125 23.78125 
L 21.578125 24.515625 
Q 13.234375 26.265625 9.515625 29.90625 
Q 5.8125 33.546875 5.8125 39.890625 
Q 5.8125 47.609375 11.28125 51.796875 
Q 16.75 56 26.8125 56 
Q 31.78125 56 36.171875 55.265625 
Q 40.578125 54.546875 44.28125 53.078125 
z
" id="DejaVuSans-115"/>
      <path id="DejaVuSans-32"/>
      <path d="M -0.296875 72.90625 
L 61.375 72.90625 
L 61.375 64.59375 
L 35.5 64.59375 
L 35.5 0 
L 25.59375 0 
L 25.59375 64.59375 
L -0.296875 64.59375 
z
" id="DejaVuSans-84"/>
      <path d="M 52 44.1875 
Q 55.375 50.25 60.0625 53.125 
Q 64.75 56 71.09375 56 
Q 79.640625 56 84.28125 50.015625 
Q 88.921875 44.046875 88.921875 33.015625 
L 88.921875 0 
L 79.890625 0 
L 79.890625 32.71875 
Q 79.890625 40.578125 77.09375 44.375 
Q 74.3125 48.1875 68.609375 48.1875 
Q 61.625 48.1875 57.5625 43.546875 
Q 53.515625 38.921875 53.515625 30.90625 
L 53.515625 0 
L 44.484375 0 
L 44.484375 32.71875 
Q 44.484375 40.625 41.703125 44.40625 
Q 38.921875 48.1875 33.109375 48.1875 
Q 26.21875 48.1875 22.15625 43.53125 
Q 18.109375 38.875 18.109375 30.90625 
L 18.109375 0 
L 9.078125 0 
L 9.078125 54.6875 
L 18.109375 54.6875 
L 18.109375 46.1875 
Q 21.1875 51.21875 25.484375 53.609375 
Q 29.78125 56 35.6875 56 
Q 41.65625 56 45.828125 52.96875 
Q 50 49.953125 52 44.1875 
z
" id="DejaVuSans-109"/>
      <path d="M 64.40625 67.28125 
L 64.40625 56.890625 
Q 59.421875 61.53125 53.78125 63.8125 
Q 48.140625 66.109375 41.796875 66.109375 
Q 29.296875 66.109375 22.65625 58.46875 
Q 16.015625 50.828125 16.015625 36.375 
Q 16.015625 21.96875 22.65625 14.328125 
Q 29.296875 6.6875 41.796875 6.6875 
Q 48.140625 6.6875 53.78125 8.984375 
Q 59.421875 11.28125 64.40625 15.921875 
L 64.40625 5.609375 
Q 59.234375 2.09375 53.4375 0.328125 
Q 47.65625 -1.421875 41.21875 -1.421875 
Q 24.65625 -1.421875 15.125 8.703125 
Q 5.609375 18.84375 5.609375 36.375 
Q 5.609375 53.953125 15.125 64.078125 
Q 24.65625 74.21875 41.21875 74.21875 
Q 47.75 74.21875 53.53125 72.484375 
Q 59.328125 70.75 64.40625 67.28125 
z
" id="DejaVuSans-67"/>
      <path d="M 54.890625 33.015625 
L 54.890625 0 
L 45.90625 0 
L 45.90625 32.71875 
Q 45.90625 40.484375 42.875 44.328125 
Q 39.84375 48.1875 33.796875 48.1875 
Q 26.515625 48.1875 22.3125 43.546875 
Q 18.109375 38.921875 18.109375 30.90625 
L 18.109375 0 
L 9.078125 0 
L 9.078125 54.6875 
L 18.109375 54.6875 
L 18.109375 46.1875 
Q 21.34375 51.125 25.703125 53.5625 
Q 30.078125 56 35.796875 56 
Q 45.21875 56 50.046875 50.171875 
Q 54.890625 44.34375 54.890625 33.015625 
z
" id="DejaVuSans-110"/>
      <path d="M 18.3125 70.21875 
L 18.3125 54.6875 
L 36.8125 54.6875 
L 36.8125 47.703125 
L 18.3125 47.703125 
L 18.3125 18.015625 
Q 18.3125 11.328125 20.140625 9.421875 
Q 21.96875 7.515625 27.59375 7.515625 
L 36.8125 7.515625 
L 36.8125 0 
L 27.59375 0 
Q 17.1875 0 13.234375 3.875 
Q 9.28125 7.765625 9.28125 18.015625 
L 9.28125 47.703125 
L 2.6875 47.703125 
L 2.6875 54.6875 
L 9.28125 54.6875 
L 9.28125 70.21875 
z
" id="DejaVuSans-116"/>
     </defs>
     <g transform="translate(81.82525 334.7315)scale(0.16 -0.16)">
      <use xlink:href="#DejaVuSans-80"/>
      <use x="60.287109" xlink:href="#DejaVuSans-114"/>
      <use x="101.369141" xlink:href="#DejaVuSans-101"/>
      <use x="162.892578" xlink:href="#DejaVuSans-118"/>
      <use x="222.072266" xlink:href="#DejaVuSans-105"/>
      <use x="249.855469" xlink:href="#DejaVuSans-111"/>
      <use x="311.037109" xlink:href="#DejaVuSans-117"/>
      <use x="374.416016" xlink:href="#DejaVuSans-115"/>
      <use x="426.515625" xlink:href="#DejaVuSans-32"/>
      <use x="458.302734" xlink:href="#DejaVuSans-84"/>
      <use x="519.152344" xlink:href="#DejaVuSans-117"/>
      <use x="582.53125" xlink:href="#DejaVuSans-109"/>
      <use x="679.943359" xlink:href="#DejaVuSans-111"/>
      <use x="741.125" xlink:href="#DejaVuSans-114"/>
      <use x="782.238281" xlink:href="#DejaVuSans-32"/>
      <use x="814.025391" xlink:href="#DejaVuSans-45"/>
      <use x="850.109375" xlink:href="#DejaVuSans-32"/>
      <use x="881.896484" xlink:href="#DejaVuSans-67"/>
      <use x="951.720703" xlink:href="#DejaVuSans-117"/>
      <use x="1015.099609" xlink:href="#DejaVuSans-114"/>
      <use x="1056.197266" xlink:href="#DejaVuSans-114"/>
      <use x="1097.279297" xlink:href="#DejaVuSans-101"/>
      <use x="1158.802734" xlink:href="#DejaVuSans-110"/>
      <use x="1222.181641" xlink:href="#DejaVuSans-116"/>
      <use x="1261.390625" xlink:href="#DejaVuSans-32"/>
      <use x="1293.177734" xlink:href="#DejaVuSans-84"/>
      <use x="1354.027344" xlink:href="#DejaVuSans-117"/>
      <use x="1417.40625" xlink:href="#DejaVuSans-109"/>
      <use x="1514.818359" xlink:href="#DejaVuSans-111"/>
      <use x="1576" xlink:href="#DejaVuSans-114"/>
     </g>
     <!--  (morph units) -->
     <defs>
      <path d="M 31 75.875 
Q 24.46875 64.65625 21.28125 53.65625 
Q 18.109375 42.671875 18.109375 31.390625 
Q 18.109375 20.125 21.3125 9.0625 
Q 24.515625 -2 31 -13.1875 
L 23.1875 -13.1875 
Q 15.875 -1.703125 12.234375 9.375 
Q 8.59375 20.453125 8.59375 31.390625 
Q 8.59375 42.28125 12.203125 53.3125 
Q 15.828125 64.359375 23.1875 75.875 
z
" id="DejaVuSans-40"/>
      <path d="M 18.109375 8.203125 
L 18.109375 -20.796875 
L 9.078125 -20.796875 
L 9.078125 54.6875 
L 18.109375 54.6875 
L 18.109375 46.390625 
Q 20.953125 51.265625 25.265625 53.625 
Q 29.59375 56 35.59375 56 
Q 45.5625 56 51.78125 48.09375 
Q 58.015625 40.1875 58.015625 27.296875 
Q 58.015625 14.40625 51.78125 6.484375 
Q 45.5625 -1.421875 35.59375 -1.421875 
Q 29.59375 -1.421875 25.265625 0.953125 
Q 20.953125 3.328125 18.109375 8.203125 
z
M 48.6875 27.296875 
Q 48.6875 37.203125 44.609375 42.84375 
Q 40.53125 48.484375 33.40625 48.484375 
Q 26.265625 48.484375 22.1875 42.84375 
Q 18.109375 37.203125 18.109375 27.296875 
Q 18.109375 17.390625 22.1875 11.75 
Q 26.265625 6.109375 33.40625 6.109375 
Q 40.53125 6.109375 44.609375 11.75 
Q 48.6875 17.390625 48.6875 27.296875 
z
" id="DejaVuSans-112"/>
      <path d="M 54.890625 33.015625 
L 54.890625 0 
L 45.90625 0 
L 45.90625 32.71875 
Q 45.90625 40.484375 42.875 44.328125 
Q 39.84375 48.1875 33.796875 48.1875 
Q 26.515625 48.1875 22.3125 43.546875 
Q 18.109375 38.921875 18.109375 30.90625 
L 18.109375 0 
L 9.078125 0 
L 9.078125 75.984375 
L 18.109375 75.984375 
L 18.109375 46.1875 
Q 21.34375 51.125 25.703125 53.5625 
Q 30.078125 56 35.796875 56 
Q 45.21875 56 50.046875 50.171875 
Q 54.890625 44.34375 54.890625 33.015625 
z
" id="DejaVuSans-104"/>
      <path d="M 8.015625 75.875 
L 15.828125 75.875 
Q 23.140625 64.359375 26.78125 53.3125 
Q 30.421875 42.28125 30.421875 31.390625 
Q 30.421875 20.453125 26.78125 9.375 
Q 23.140625 -1.703125 15.828125 -13.1875 
L 8.015625 -13.1875 
Q 14.5 -2 17.703125 9.0625 
Q 20.90625 20.125 20.90625 31.390625 
Q 20.90625 42.671875 17.703125 53.65625 
Q 14.5 64.65625 8.015625 75.875 
z
" id="DejaVuSans-41"/>
     </defs>
     <g transform="translate(154.07025 352.648)scale(0.16 -0.16)">
      <use xlink:href="#DejaVuSans-32"/>
      <use x="31.787109" xlink:href="#DejaVuSans-40"/>
      <use x="70.800781" xlink:href="#DejaVuSans-109"/>
      <use x="168.212891" xlink:href="#DejaVuSans-111"/>
      <use x="229.394531" xlink:href="#DejaVuSans-114"/>
      <use x="270.507812" xlink:href="#DejaVuSans-112"/>
      <use x="333.984375" xlink:href="#DejaVuSans-104"/>
      <use x="397.363281" xlink:href="#DejaVuSans-32"/>
      <use x="429.150391" xlink:href="#DejaVuSans-117"/>
      <use x="492.529297" xlink:href="#DejaVuSans-110"/>
      <use x="555.908203" xlink:href="#DejaVuSans-105"/>
      <use x="583.691406" xlink:href="#DejaVuSans-116"/>
      <use x="622.900391" xlink:href="#DejaVuSans-115"/>
      <use x="675" xlink:href="#DejaVuSans-41"/>
     </g>
    </g>
   </g>
   <g id="matplotlib.axis_2">
    <g id="ytick_1">
     <g id="line2d_8">
      <defs>
       <path d="M 0 0 
L 6 0 
" id="mc17d29064f" style="stroke:#000000;stroke-width:2;"/>
      </defs>
      <g>
       <use style="stroke:#000000;stroke-width:2;" x="71.689" xlink:href="#mc17d29064f" y="299.589"/>
      </g>
     </g>
     <g id="text_9">
      <!-- −3 -->
      <defs>
       <path d="M 10.59375 35.5 
L 73.1875 35.5 
L 73.1875 27.203125 
L 10.59375 27.203125 
z
" id="DejaVuSans-8722"/>
      </defs>
      <g transform="translate(44.6015 305.66775)scale(0.16 -0.16)">
       <use xlink:href="#DejaVuSans-8722"/>
       <use x="83.789062" xlink:href="#DejaVuSans-51"/>
      </g>
     </g>
    </g>
    <g id="ytick_2">
     <g id="line2d_9">
      <g>
       <use style="stroke:#000000;stroke-width:2;" x="71.689" xlink:href="#mc17d29064f" y="254.289"/>
      </g>
     </g>
     <g id="text_10">
      <!-- −2 -->
      <g transform="translate(44.6015 260.36775)scale(0.16 -0.16)">
       <use xlink:href="#DejaVuSans-8722"/>
       <use x="83.789062" xlink:href="#DejaVuSans-50"/>
      </g>
     </g>
    </g>
    <g id="ytick_3">
     <g id="line2d_10">
      <g>
       <use style="stroke:#000000;stroke-width:2;" x="71.689" xlink:href="#mc17d29064f" y="208.989"/>
      </g>
     </g>
     <g id="text_11">
      <!-- −1 -->
      <defs>
       <path d="M 12.40625 8.296875 
L 28.515625 8.296875 
L 28.515625 63.921875 
L 10.984375 60.40625 
L 10.984375 69.390625 
L 28.421875 72.90625 
L 38.28125 72.90625 
L 38.28125 8.296875 
L 54.390625 8.296875 
L 54.390625 0 
L 12.40625 0 
z
" id="DejaVuSans-49"/>
      </defs>
      <g transform="translate(44.6015 215.06775)scale(0.16 -0.16)">
       <use xlink:href="#DejaVuSans-8722"/>
       <use x="83.789062" xlink:href="#DejaVuSans-49"/>
      </g>
     </g>
    </g>
    <g id="ytick_4">
     <g id="line2d_11">
      <g>
       <use style="stroke:#000000;stroke-width:2;" x="71.689" xlink:href="#mc17d29064f" y="163.689"/>
      </g>
     </g>
     <g id="text_12">
      <!-- 0 -->
      <g transform="translate(58.009 169.76775)scale(0.16 -0.16)">
       <use xlink:href="#DejaVuSans-48"/>
      </g>
     </g>
    </g>
    <g id="ytick_5">
     <g id="line2d_12">
      <g>
       <use style="stroke:#000000;stroke-width:2;" x="71.689" xlink:href="#mc17d29064f" y="118.389"/>
      </g>
     </g>
     <g id="text_13">
      <!-- 1 -->
      <g transform="translate(58.009 124.46775)scale(0.16 -0.16)">
       <use xlink:href="#DejaVuSans-49"/>
      </g>
     </g>
    </g>
    <g id="ytick_6">
     <g id="line2d_13">
      <g>
       <use style="stroke:#000000;stroke-width:2;" x="71.689" xlink:href="#mc17d29064f" y="73.089"/>
      </g>
     </g>
     <g id="text_14">
      <!-- 2 -->
      <g transform="translate(58.009 79.16775)scale(0.16 -0.16)">
       <use xlink:href="#DejaVuSans-50"/>
      </g>
     </g>
    </g>
    <g id="ytick_7">
     <g id="line2d_14">
      <g>
       <use style="stroke:#000000;stroke-width:2;" x="71.689" xlink:href="#mc17d29064f" y="27.789"/>
      </g>
     </g>
     <g id="text_15">
      <!-- 3 -->
      <g transform="translate(58.009 33.86775)scale(0.16 -0.16)">
       <use xlink:href="#DejaVuSans-51"/>
      </g>
     </g>
    </g>
    <g id="text_16">
     <!-- Response Error on Current Trial -->
     <defs>
      <path d="M 44.390625 34.1875 
Q 47.5625 33.109375 50.5625 29.59375 
Q 53.5625 26.078125 56.59375 19.921875 
L 66.609375 0 
L 56 0 
L 46.6875 18.703125 
Q 43.0625 26.03125 39.671875 28.421875 
Q 36.28125 30.8125 30.421875 30.8125 
L 19.671875 30.8125 
L 19.671875 0 
L 9.8125 0 
L 9.8125 72.90625 
L 32.078125 72.90625 
Q 44.578125 72.90625 50.734375 67.671875 
Q 56.890625 62.453125 56.890625 51.90625 
Q 56.890625 45.015625 53.6875 40.46875 
Q 50.484375 35.9375 44.390625 34.1875 
z
M 19.671875 64.796875 
L 19.671875 38.921875 
L 32.078125 38.921875 
Q 39.203125 38.921875 42.84375 42.21875 
Q 46.484375 45.515625 46.484375 51.90625 
Q 46.484375 58.296875 42.84375 61.546875 
Q 39.203125 64.796875 32.078125 64.796875 
z
" id="DejaVuSans-82"/>
      <path d="M 9.8125 72.90625 
L 55.90625 72.90625 
L 55.90625 64.59375 
L 19.671875 64.59375 
L 19.671875 43.015625 
L 54.390625 43.015625 
L 54.390625 34.71875 
L 19.671875 34.71875 
L 19.671875 8.296875 
L 56.78125 8.296875 
L 56.78125 0 
L 9.8125 0 
z
" id="DejaVuSans-69"/>
      <path d="M 34.28125 27.484375 
Q 23.390625 27.484375 19.1875 25 
Q 14.984375 22.515625 14.984375 16.5 
Q 14.984375 11.71875 18.140625 8.90625 
Q 21.296875 6.109375 26.703125 6.109375 
Q 34.1875 6.109375 38.703125 11.40625 
Q 43.21875 16.703125 43.21875 25.484375 
L 43.21875 27.484375 
z
M 52.203125 31.203125 
L 52.203125 0 
L 43.21875 0 
L 43.21875 8.296875 
Q 40.140625 3.328125 35.546875 0.953125 
Q 30.953125 -1.421875 24.3125 -1.421875 
Q 15.921875 -1.421875 10.953125 3.296875 
Q 6 8.015625 6 15.921875 
Q 6 25.140625 12.171875 29.828125 
Q 18.359375 34.515625 30.609375 34.515625 
L 43.21875 34.515625 
L 43.21875 35.40625 
Q 43.21875 41.609375 39.140625 45 
Q 35.0625 48.390625 27.6875 48.390625 
Q 23 48.390625 18.546875 47.265625 
Q 14.109375 46.140625 10.015625 43.890625 
L 10.015625 52.203125 
Q 14.9375 54.109375 19.578125 55.046875 
Q 24.21875 56 28.609375 56 
Q 40.484375 56 46.34375 49.84375 
Q 52.203125 43.703125 52.203125 31.203125 
z
" id="DejaVuSans-97"/>
      <path d="M 9.421875 75.984375 
L 18.40625 75.984375 
L 18.40625 0 
L 9.421875 0 
z
" id="DejaVuSans-108"/>
     </defs>
     <g transform="translate(19.3575 290.27775)rotate(-90)scale(0.16 -0.16)">
      <use xlink:href="#DejaVuSans-82"/>
      <use x="69.419922" xlink:href="#DejaVuSans-101"/>
      <use x="130.943359" xlink:href="#DejaVuSans-115"/>
      <use x="183.042969" xlink:href="#DejaVuSans-112"/>
      <use x="246.519531" xlink:href="#DejaVuSans-111"/>
      <use x="307.701172" xlink:href="#DejaVuSans-110"/>
      <use x="371.080078" xlink:href="#DejaVuSans-115"/>
      <use x="423.179688" xlink:href="#DejaVuSans-101"/>
      <use x="484.703125" xlink:href="#DejaVuSans-32"/>
      <use x="516.490234" xlink:href="#DejaVuSans-69"/>
      <use x="579.673828" xlink:href="#DejaVuSans-114"/>
      <use x="620.771484" xlink:href="#DejaVuSans-114"/>
      <use x="661.853516" xlink:href="#DejaVuSans-111"/>
      <use x="723.035156" xlink:href="#DejaVuSans-114"/>
      <use x="764.148438" xlink:href="#DejaVuSans-32"/>
      <use x="795.935547" xlink:href="#DejaVuSans-111"/>
      <use x="857.117188" xlink:href="#DejaVuSans-110"/>
      <use x="920.496094" xlink:href="#DejaVuSans-32"/>
      <use x="952.283203" xlink:href="#DejaVuSans-67"/>
      <use x="1022.107422" xlink:href="#DejaVuSans-117"/>
      <use x="1085.486328" xlink:href="#DejaVuSans-114"/>
      <use x="1126.583984" xlink:href="#DejaVuSans-114"/>
      <use x="1167.666016" xlink:href="#DejaVuSans-101"/>
      <use x="1229.189453" xlink:href="#DejaVuSans-110"/>
      <use x="1292.568359" xlink:href="#DejaVuSans-116"/>
      <use x="1331.777344" xlink:href="#DejaVuSans-32"/>
      <use x="1363.564453" xlink:href="#DejaVuSans-84"/>
      <use x="1424.429688" xlink:href="#DejaVuSans-114"/>
      <use x="1465.542969" xlink:href="#DejaVuSans-105"/>
      <use x="1493.326172" xlink:href="#DejaVuSans-97"/>
      <use x="1554.605469" xlink:href="#DejaVuSans-108"/>
     </g>
     <!--  (morph units) -->
     <g transform="translate(37.274 220.80775)rotate(-90)scale(0.16 -0.16)">
      <use xlink:href="#DejaVuSans-32"/>
      <use x="31.787109" xlink:href="#DejaVuSans-40"/>
      <use x="70.800781" xlink:href="#DejaVuSans-109"/>
      <use x="168.212891" xlink:href="#DejaVuSans-111"/>
      <use x="229.394531" xlink:href="#DejaVuSans-114"/>
      <use x="270.507812" xlink:href="#DejaVuSans-112"/>
      <use x="333.984375" xlink:href="#DejaVuSans-104"/>
      <use x="397.363281" xlink:href="#DejaVuSans-32"/>
      <use x="429.150391" xlink:href="#DejaVuSans-117"/>
      <use x="492.529297" xlink:href="#DejaVuSans-110"/>
      <use x="555.908203" xlink:href="#DejaVuSans-105"/>
      <use x="583.691406" xlink:href="#DejaVuSans-116"/>
      <use x="622.900391" xlink:href="#DejaVuSans-115"/>
      <use x="675" xlink:href="#DejaVuSans-41"/>
     </g>
    </g>
   </g>
   <g id="line2d_15">
    <path clip-path="url(#p1d9a26c9b0)" d="M 71.689 156.657512 
L 73.599959 164.57726 
L 75.510918 170.786822 
L 77.421877 181.555013 
L 79.332836 179.324239 
L 81.243795 182.129352 
L 85.065712 200.580543 
L 86.976671 203.367916 
L 88.88763 204.131683 
L 90.798589 206.044872 
L 92.709548 205.045289 
L 94.620507 205.876669 
L 96.531466 216.967149 
L 98.442425 209.567942 
L 100.353384 208.321446 
L 102.264342 210.795079 
L 104.175301 212.956732 
L 106.08626 209.671277 
L 107.997219 212.672776 
L 109.908178 209.81913 
L 111.819137 207.797963 
L 113.730096 218.39284 
L 115.641055 217.057162 
L 117.552014 213.335169 
L 119.462973 209.283638 
L 121.373932 212.329866 
L 123.28489 214.434426 
L 125.195849 220.04071 
L 127.106808 225.040004 
L 129.017767 227.813399 
L 130.928726 222.16893 
L 132.839685 218.837945 
L 134.750644 225.318693 
L 136.661603 235.124705 
L 138.572562 235.710344 
L 140.483521 231.788663 
L 142.394479 231.890255 
L 144.305438 233.367524 
L 146.216397 236.125449 
L 148.127356 229.392765 
L 150.038315 229.65594 
L 151.949274 225.569792 
L 153.860233 228.073409 
L 155.771192 229.805678 
L 157.682151 233.859813 
L 159.59311 234.195767 
L 161.504068 236.698084 
L 163.415027 236.739209 
L 165.325986 241.911041 
L 167.236945 245.666485 
L 169.147904 241.836432 
L 171.058863 240.576417 
L 172.969822 241.010867 
L 174.880781 235.211277 
L 176.79174 237.504886 
L 178.702699 242.602421 
L 180.613658 237.954421 
L 182.524616 237.984551 
L 184.435575 232.788717 
L 186.346534 240.220576 
L 188.257493 227.065559 
L 190.168452 226.314597 
L 192.079411 212.858948 
L 193.99037 210.752858 
L 195.901329 206.404673 
L 197.812288 199.860725 
L 199.723247 201.198697 
L 201.634205 190.928911 
L 203.545164 190.301493 
L 205.456123 184.606731 
L 207.367082 184.75849 
L 209.278041 184.04185 
L 211.189 180.370406 
L 213.099959 170.67478 
L 215.010918 179.140566 
L 216.921877 167.737141 
L 218.832836 163.139077 
L 220.743795 152.088594 
L 222.654753 151.593663 
L 224.565712 139.948647 
L 228.38763 129.457189 
L 230.298589 119.257006 
L 232.209548 114.354342 
L 234.120507 112.25283 
L 236.031466 112.437451 
L 237.942425 112.262728 
L 239.853384 112.730998 
L 241.764342 111.924589 
L 243.675301 109.05408 
L 245.58626 107.915918 
L 247.497219 105.541983 
L 249.408178 101.083159 
L 251.319137 104.65267 
L 253.230096 98.359553 
L 255.141055 97.931884 
L 257.052014 94.649312 
L 258.962973 94.637928 
L 260.873932 94.045337 
L 262.78489 94.57657 
L 264.695849 100.059769 
L 266.606808 89.70503 
L 268.517767 83.960694 
L 270.428726 83.479581 
L 272.339685 88.354669 
L 274.250644 84.844396 
L 276.161603 84.967362 
L 278.072562 90.275455 
L 279.983521 93.390915 
L 281.894479 80.829312 
L 283.805438 84.867149 
L 285.716397 93.917755 
L 287.627356 94.39702 
L 289.538315 82.993295 
L 291.449274 82.965232 
L 293.360233 85.797962 
L 295.271192 89.440535 
L 297.182151 93.906554 
L 299.09311 82.992454 
L 301.004068 84.177278 
L 302.915027 83.389088 
L 304.825986 84.703029 
L 306.736945 86.849036 
L 308.647904 90.149606 
L 310.558863 85.280753 
L 312.469822 91.988117 
L 314.380781 95.440835 
L 316.29174 104.615441 
L 318.202699 104.093764 
L 320.113658 108.11213 
L 322.024616 115.081741 
L 323.935575 125.210767 
L 325.846534 130.046191 
L 327.757493 129.086124 
L 329.668452 139.584305 
L 331.579411 138.075619 
L 333.49037 149.472672 
L 335.401329 156.43282 
L 337.312288 149.139092 
L 339.223247 151.840825 
L 341.134205 152.571999 
L 343.045164 146.922547 
L 344.956123 148.147459 
L 346.867082 154.912808 
L 348.778041 165.631561 
L 350.689 156.657512 
L 350.689 156.657512 
" style="fill:none;stroke:#00008b;stroke-linecap:square;stroke-width:1.5;"/>
   </g>
   <g id="patch_3">
    <path d="M 71.689 299.589 
L 71.689 27.789 
" style="fill:none;stroke:#000000;stroke-linecap:square;stroke-linejoin:miter;stroke-width:2;"/>
   </g>
   <g id="patch_4">
    <path d="M 71.689 299.589 
L 350.689 299.589 
" style="fill:none;stroke:#000000;stroke-linecap:square;stroke-linejoin:miter;stroke-width:2;"/>
   </g>
   <g id="text_17">
    <!-- Radiologists, Step = 35 -->
    <defs>
     <path d="M 45.40625 46.390625 
L 45.40625 75.984375 
L 54.390625 75.984375 
L 54.390625 0 
L 45.40625 0 
L 45.40625 8.203125 
Q 42.578125 3.328125 38.25 0.953125 
Q 33.9375 -1.421875 27.875 -1.421875 
Q 17.96875 -1.421875 11.734375 6.484375 
Q 5.515625 14.40625 5.515625 27.296875 
Q 5.515625 40.1875 11.734375 48.09375 
Q 17.96875 56 27.875 56 
Q 33.9375 56 38.25 53.625 
Q 42.578125 51.265625 45.40625 46.390625 
z
M 14.796875 27.296875 
Q 14.796875 17.390625 18.875 11.75 
Q 22.953125 6.109375 30.078125 6.109375 
Q 37.203125 6.109375 41.296875 11.75 
Q 45.40625 17.390625 45.40625 27.296875 
Q 45.40625 37.203125 41.296875 42.84375 
Q 37.203125 48.484375 30.078125 48.484375 
Q 22.953125 48.484375 18.875 42.84375 
Q 14.796875 37.203125 14.796875 27.296875 
z
" id="DejaVuSans-100"/>
     <path d="M 45.40625 27.984375 
Q 45.40625 37.75 41.375 43.109375 
Q 37.359375 48.484375 30.078125 48.484375 
Q 22.859375 48.484375 18.828125 43.109375 
Q 14.796875 37.75 14.796875 27.984375 
Q 14.796875 18.265625 18.828125 12.890625 
Q 22.859375 7.515625 30.078125 7.515625 
Q 37.359375 7.515625 41.375 12.890625 
Q 45.40625 18.265625 45.40625 27.984375 
z
M 54.390625 6.78125 
Q 54.390625 -7.171875 48.1875 -13.984375 
Q 42 -20.796875 29.203125 -20.796875 
Q 24.46875 -20.796875 20.265625 -20.09375 
Q 16.0625 -19.390625 12.109375 -17.921875 
L 12.109375 -9.1875 
Q 16.0625 -11.328125 19.921875 -12.34375 
Q 23.78125 -13.375 27.78125 -13.375 
Q 36.625 -13.375 41.015625 -8.765625 
Q 45.40625 -4.15625 45.40625 5.171875 
L 45.40625 9.625 
Q 42.625 4.78125 38.28125 2.390625 
Q 33.9375 0 27.875 0 
Q 17.828125 0 11.671875 7.65625 
Q 5.515625 15.328125 5.515625 27.984375 
Q 5.515625 40.671875 11.671875 48.328125 
Q 17.828125 56 27.875 56 
Q 33.9375 56 38.28125 53.609375 
Q 42.625 51.21875 45.40625 46.390625 
L 45.40625 54.6875 
L 54.390625 54.6875 
z
" id="DejaVuSans-103"/>
     <path d="M 11.71875 12.40625 
L 22.015625 12.40625 
L 22.015625 4 
L 14.015625 -11.625 
L 7.71875 -11.625 
L 11.71875 4 
z
" id="DejaVuSans-44"/>
     <path d="M 53.515625 70.515625 
L 53.515625 60.890625 
Q 47.90625 63.578125 42.921875 64.890625 
Q 37.9375 66.21875 33.296875 66.21875 
Q 25.25 66.21875 20.875 63.09375 
Q 16.5 59.96875 16.5 54.203125 
Q 16.5 49.359375 19.40625 46.890625 
Q 22.3125 44.4375 30.421875 42.921875 
L 36.375 41.703125 
Q 47.40625 39.59375 52.65625 34.296875 
Q 57.90625 29 57.90625 20.125 
Q 57.90625 9.515625 50.796875 4.046875 
Q 43.703125 -1.421875 29.984375 -1.421875 
Q 24.8125 -1.421875 18.96875 -0.25 
Q 13.140625 0.921875 6.890625 3.21875 
L 6.890625 13.375 
Q 12.890625 10.015625 18.65625 8.296875 
Q 24.421875 6.59375 29.984375 6.59375 
Q 38.421875 6.59375 43.015625 9.90625 
Q 47.609375 13.234375 47.609375 19.390625 
Q 47.609375 24.75 44.3125 27.78125 
Q 41.015625 30.8125 33.5 32.328125 
L 27.484375 33.5 
Q 16.453125 35.6875 11.515625 40.375 
Q 6.59375 45.0625 6.59375 53.421875 
Q 6.59375 63.09375 13.40625 68.65625 
Q 20.21875 74.21875 32.171875 74.21875 
Q 37.3125 74.21875 42.625 73.28125 
Q 47.953125 72.359375 53.515625 70.515625 
z
" id="DejaVuSans-83"/>
     <path d="M 10.59375 45.40625 
L 73.1875 45.40625 
L 73.1875 37.203125 
L 10.59375 37.203125 
z
M 10.59375 25.484375 
L 73.1875 25.484375 
L 73.1875 17.1875 
L 10.59375 17.1875 
z
" id="DejaVuSans-61"/>
    </defs>
    <g transform="translate(98.611 21.789)scale(0.192 -0.192)">
     <use xlink:href="#DejaVuSans-82"/>
     <use x="69.451172" xlink:href="#DejaVuSans-97"/>
     <use x="130.730469" xlink:href="#DejaVuSans-100"/>
     <use x="194.207031" xlink:href="#DejaVuSans-105"/>
     <use x="221.990234" xlink:href="#DejaVuSans-111"/>
     <use x="283.171875" xlink:href="#DejaVuSans-108"/>
     <use x="310.955078" xlink:href="#DejaVuSans-111"/>
     <use x="372.136719" xlink:href="#DejaVuSans-103"/>
     <use x="435.613281" xlink:href="#DejaVuSans-105"/>
     <use x="463.396484" xlink:href="#DejaVuSans-115"/>
     <use x="515.496094" xlink:href="#DejaVuSans-116"/>
     <use x="554.705078" xlink:href="#DejaVuSans-115"/>
     <use x="606.804688" xlink:href="#DejaVuSans-44"/>
     <use x="638.591797" xlink:href="#DejaVuSans-32"/>
     <use x="670.378906" xlink:href="#DejaVuSans-83"/>
     <use x="733.855469" xlink:href="#DejaVuSans-116"/>
     <use x="773.064453" xlink:href="#DejaVuSans-101"/>
     <use x="834.587891" xlink:href="#DejaVuSans-112"/>
     <use x="898.064453" xlink:href="#DejaVuSans-32"/>
     <use x="929.851562" xlink:href="#DejaVuSans-61"/>
     <use x="1013.640625" xlink:href="#DejaVuSans-32"/>
     <use x="1045.427734" xlink:href="#DejaVuSans-51"/>
     <use x="1109.050781" xlink:href="#DejaVuSans-53"/>
    </g>
   </g>
  </g>
 </g>
 <defs>
  <clipPath id="p1d9a26c9b0">
   <rect height="271.8" width="279" x="71.689" y="27.789"/>
  </clipPath>
 </defs>
</svg>
