<?xml version="1.0" encoding="utf-8" standalone="no"?>
<!DOCTYPE svg PUBLIC "-//W3C//DTD SVG 1.1//EN"
  "http://www.w3.org/Graphics/SVG/1.1/DTD/svg11.dtd">
<!-- Created with matplotlib (https://matplotlib.org/) -->
<svg height="363.1755pt" version="1.1" viewBox="0 0 368.069 363.1755" width="368.069pt" xmlns="http://www.w3.org/2000/svg" xmlns:xlink="http://www.w3.org/1999/xlink">
 <defs>
  <style type="text/css">
*{stroke-linecap:butt;stroke-linejoin:round;}
  </style>
 </defs>
 <g id="figure_1">
  <g id="patch_1">
   <path d="M 0 363.1755 
L 368.069 363.1755 
L 368.069 0 
L 0 0 
z
" style="fill:#ffffff;"/>
  </g>
  <g id="axes_1">
   <g id="patch_2">
    <path d="M 71.689 299.589 
L 350.689 299.589 
L 350.689 27.789 
L 71.689 27.789 
z
" style="fill:#ffffff;"/>
   </g>
   <g id="PolyCollection_1">
    <defs>
     <path d="M 71.689 -161.475596 
L 71.689 -204.725529 
L 73.599959 -212.70889 
L 75.510918 -218.547233 
L 77.421877 -212.149573 
L 79.332836 -196.098411 
L 81.243795 -185.553697 
L 83.154753 -192.949626 
L 85.065712 -204.078603 
L 86.976671 -197.238979 
L 88.88763 -199.844617 
L 90.798589 -198.701069 
L 92.709548 -200.653179 
L 94.620507 -192.290039 
L 96.531466 -190.442694 
L 98.442425 -192.187425 
L 100.353384 -185.089687 
L 102.264342 -188.453101 
L 104.175301 -179.8329 
L 106.08626 -180.206016 
L 107.997219 -180.851908 
L 109.908178 -176.315044 
L 111.819137 -173.45024 
L 113.730096 -164.080056 
L 115.641055 -161.496821 
L 117.552014 -164.404657 
L 119.462973 -164.803367 
L 121.373932 -163.311607 
L 123.28489 -165.778453 
L 125.195849 -172.649253 
L 127.106808 -169.980085 
L 129.017767 -159.920665 
L 130.928726 -165.132954 
L 132.839685 -157.805687 
L 134.750644 -160.110092 
L 136.661603 -179.353926 
L 138.572562 -163.209906 
L 140.483521 -160.349823 
L 142.394479 -160.72799 
L 144.305438 -163.468605 
L 146.216397 -167.467259 
L 148.127356 -162.896104 
L 150.038315 -158.057906 
L 151.949274 -149.30321 
L 153.860233 -158.496956 
L 155.771192 -168.871391 
L 157.682151 -169.695899 
L 159.59311 -174.518943 
L 161.504068 -178.340318 
L 163.415027 -157.573023 
L 165.325986 -155.143206 
L 167.236945 -147.915608 
L 169.147904 -144.08108 
L 171.058863 -130.296722 
L 172.969822 -124.988391 
L 174.880781 -133.544441 
L 176.79174 -123.267386 
L 178.702699 -132.689712 
L 180.613658 -131.051017 
L 182.524616 -120.402275 
L 184.435575 -120.701855 
L 186.346534 -130.530481 
L 188.257493 -140.531101 
L 190.168452 -147.111763 
L 192.079411 -150.39611 
L 193.99037 -147.022518 
L 195.901329 -149.367002 
L 197.812288 -161.645709 
L 199.723247 -154.108328 
L 201.634205 -160.756963 
L 203.545164 -175.909071 
L 205.456123 -179.711791 
L 207.367082 -193.936416 
L 209.278041 -206.900024 
L 211.189 -224.199307 
L 213.099959 -230.123134 
L 215.010918 -241.688498 
L 216.921877 -242.117477 
L 218.832836 -268.437282 
L 220.743795 -274.52463 
L 222.654753 -270.073969 
L 224.565712 -273.063511 
L 226.476671 -280.239721 
L 228.38763 -267.486105 
L 230.298589 -279.447948 
L 232.209548 -280.770985 
L 234.120507 -294.040843 
L 236.031466 -296.268447 
L 237.942425 -292.315743 
L 239.853384 -300.717496 
L 241.764342 -286.860649 
L 243.675301 -281.959536 
L 245.58626 -276.820291 
L 247.497219 -275.176389 
L 249.408178 -266.673585 
L 251.319137 -258.332532 
L 253.230096 -259.424815 
L 255.141055 -266.559199 
L 257.052014 -282.429462 
L 258.962973 -275.235177 
L 260.873932 -278.072238 
L 262.78489 -289.404015 
L 264.695849 -280.328169 
L 266.606808 -278.06155 
L 268.517767 -296.246605 
L 270.428726 -298.062877 
L 272.339685 -300.409546 
L 274.250644 -287.004709 
L 276.161603 -317.352683 
L 278.072562 -322.196285 
L 279.983521 -318.160821 
L 281.894479 -321.771453 
L 283.805438 -313.929156 
L 285.716397 -315.91147 
L 287.627356 -314.607476 
L 289.538315 -315.601147 
L 291.449274 -309.245289 
L 293.360233 -312.544042 
L 295.271192 -309.883172 
L 297.182151 -306.315173 
L 299.09311 -305.426173 
L 301.004068 -308.219963 
L 302.915027 -301.993904 
L 304.825986 -306.490647 
L 306.736945 -302.373076 
L 308.647904 -300.290295 
L 310.558863 -291.689122 
L 312.469822 -302.488177 
L 314.380781 -304.733369 
L 316.29174 -277.188314 
L 318.202699 -270.818107 
L 320.113658 -280.574816 
L 322.024616 -270.24083 
L 323.935575 -271.341339 
L 325.846534 -249.014993 
L 327.757493 -249.593665 
L 329.668452 -258.41179 
L 331.579411 -262.81609 
L 333.49037 -261.329155 
L 335.401329 -248.199767 
L 337.312288 -236.16125 
L 339.223247 -230.15882 
L 341.134205 -230.912348 
L 343.045164 -226.473845 
L 344.956123 -229.760637 
L 346.867082 -221.34098 
L 348.778041 -210.365831 
L 350.689 -204.725529 
L 350.689 -161.475596 
L 350.689 -161.475596 
L 348.778041 -163.587593 
L 346.867082 -176.122914 
L 344.956123 -185.531694 
L 343.045164 -188.69243 
L 341.134205 -185.881118 
L 339.223247 -194.788985 
L 337.312288 -206.709482 
L 335.401329 -223.031954 
L 333.49037 -224.016102 
L 331.579411 -224.627932 
L 329.668452 -220.595847 
L 327.757493 -211.496645 
L 325.846534 -212.200036 
L 323.935575 -226.338342 
L 322.024616 -232.23834 
L 320.113658 -236.199916 
L 318.202699 -227.001379 
L 316.29174 -231.844887 
L 314.380781 -257.160889 
L 312.469822 -251.965493 
L 310.558863 -243.854146 
L 308.647904 -249.305755 
L 306.736945 -250.92523 
L 304.825986 -254.689007 
L 302.915027 -247.689544 
L 301.004068 -259.268046 
L 299.09311 -251.836341 
L 297.182151 -251.417932 
L 295.271192 -261.78813 
L 293.360233 -266.843943 
L 291.449274 -257.45359 
L 289.538315 -260.26131 
L 287.627356 -264.256705 
L 285.716397 -265.901937 
L 283.805438 -261.147327 
L 281.894479 -272.879207 
L 279.983521 -261.21978 
L 278.072562 -267.021951 
L 276.161603 -270.16705 
L 274.250644 -240.356446 
L 272.339685 -260.607349 
L 270.428726 -264.685289 
L 268.517767 -256.115341 
L 266.606808 -225.865832 
L 264.695849 -231.539994 
L 262.78489 -238.080772 
L 260.873932 -226.752716 
L 258.962973 -225.143538 
L 257.052014 -231.993822 
L 255.141055 -219.590583 
L 253.230096 -215.386038 
L 251.319137 -208.797186 
L 249.408178 -219.115586 
L 247.497219 -228.984526 
L 245.58626 -230.570331 
L 243.675301 -234.081948 
L 241.764342 -235.284273 
L 239.853384 -246.904925 
L 237.942425 -231.851572 
L 236.031466 -230.437349 
L 234.120507 -237.030081 
L 232.209548 -225.181729 
L 230.298589 -219.865572 
L 228.38763 -212.230583 
L 226.476671 -222.875478 
L 224.565712 -217.747908 
L 222.654753 -212.076771 
L 220.743795 -211.908175 
L 218.832836 -210.894487 
L 216.921877 -189.490708 
L 215.010918 -187.274893 
L 213.099959 -179.750527 
L 211.189 -183.336566 
L 209.278041 -164.461023 
L 207.367082 -148.25634 
L 205.456123 -136.109451 
L 203.545164 -126.596444 
L 201.634205 -107.113289 
L 199.723247 -100.5547 
L 197.812288 -106.1219 
L 195.901329 -90.097471 
L 193.99037 -87.982891 
L 192.079411 -88.519069 
L 190.168452 -91.001669 
L 188.257493 -88.954304 
L 186.346534 -76.132802 
L 184.435575 -77.351216 
L 182.524616 -69.708569 
L 180.613658 -74.160546 
L 178.702699 -77.385671 
L 176.79174 -73.046861 
L 174.880781 -98.039181 
L 172.969822 -97.610316 
L 171.058863 -100.622776 
L 169.147904 -116.517018 
L 167.236945 -120.869223 
L 165.325986 -121.38841 
L 163.415027 -119.542798 
L 161.504068 -134.950313 
L 159.59311 -129.490374 
L 157.682151 -121.962483 
L 155.771192 -122.223887 
L 153.860233 -112.609898 
L 151.949274 -110.927883 
L 150.038315 -120.028216 
L 148.127356 -123.109241 
L 146.216397 -131.190477 
L 144.305438 -127.866134 
L 142.394479 -127.579542 
L 140.483521 -129.897419 
L 138.572562 -124.522636 
L 136.661603 -134.92103 
L 134.750644 -114.687054 
L 132.839685 -110.572474 
L 130.928726 -111.643196 
L 129.017767 -107.743625 
L 127.106808 -107.002051 
L 125.195849 -105.18567 
L 123.28489 -99.894131 
L 121.373932 -101.528485 
L 119.462973 -93.582273 
L 117.552014 -93.492186 
L 115.641055 -95.677501 
L 113.730096 -103.064306 
L 111.819137 -114.788276 
L 109.908178 -110.434935 
L 107.997219 -115.42526 
L 106.08626 -116.795796 
L 104.175301 -118.434119 
L 102.264342 -129.566106 
L 100.353384 -125.81858 
L 98.442425 -142.613568 
L 96.531466 -142.218818 
L 94.620507 -142.287241 
L 92.709548 -153.117687 
L 90.798589 -151.350168 
L 88.88763 -148.228033 
L 86.976671 -149.320524 
L 85.065712 -159.707327 
L 83.154753 -142.009773 
L 81.243795 -129.982603 
L 79.332836 -141.162757 
L 77.421877 -171.763641 
L 75.510918 -172.692436 
L 73.599959 -168.079048 
L 71.689 -161.475596 
z
" id="mc61ae52782" style="stroke:#1e90ff;stroke-opacity:0.2;"/>
    </defs>
    <g clip-path="url(#p97c85da48c)">
     <use style="fill:#1e90ff;fill-opacity:0.2;stroke:#1e90ff;stroke-opacity:0.2;" x="0" xlink:href="#mc61ae52782" y="363.1755"/>
    </g>
   </g>
   <g id="PolyCollection_2">
    <defs>
     <path d="M 71.689 -199.191805 
L 71.689 -199.317492 
L 73.599959 -199.230994 
L 75.510918 -199.142076 
L 77.421877 -199.049883 
L 79.332836 -198.953519 
L 81.243795 -198.852039 
L 83.154753 -198.744429 
L 85.065712 -198.6296 
L 86.976671 -198.506376 
L 88.88763 -198.373471 
L 90.798589 -198.229484 
L 92.709548 -198.072875 
L 94.620507 -197.901949 
L 96.531466 -197.714838 
L 98.442425 -197.509478 
L 100.353384 -197.283589 
L 102.264342 -197.034646 
L 104.175301 -196.759859 
L 106.08626 -196.45614 
L 107.997219 -196.120078 
L 109.908178 -195.747906 
L 111.819137 -195.33547 
L 113.730096 -194.8782 
L 115.641055 -194.371072 
L 117.552014 -193.808583 
L 119.462973 -193.18472 
L 121.373932 -192.492933 
L 123.28489 -191.726119 
L 125.195849 -190.876613 
L 127.106808 -189.936182 
L 129.017767 -188.896048 
L 130.928726 -187.746924 
L 132.839685 -186.479077 
L 134.750644 -185.082426 
L 136.661603 -183.546682 
L 138.572562 -181.861533 
L 140.483521 -180.016897 
L 142.394479 -178.003233 
L 144.305438 -175.811937 
L 146.216397 -173.435815 
L 148.127356 -170.869641 
L 150.038315 -168.110809 
L 151.949274 -165.160047 
L 153.860233 -162.0222 
L 155.771192 -158.707042 
L 157.682151 -155.230086 
L 159.59311 -151.613349 
L 161.504068 -147.886016 
L 163.415027 -144.084963 
L 165.325986 -140.25507 
L 167.236945 -136.449295 
L 169.147904 -132.728468 
L 171.058863 -129.160776 
L 172.969822 -125.820937 
L 174.880781 -122.789037 
L 176.79174 -120.149055 
L 178.702699 -117.987058 
L 180.613658 -116.389108 
L 182.524616 -115.438892 
L 184.435575 -115.215124 
L 186.346534 -115.788793 
L 188.257493 -117.220328 
L 190.168452 -119.556808 
L 192.079411 -122.829319 
L 193.99037 -127.050624 
L 195.901329 -132.213262 
L 197.812288 -138.288231 
L 199.723247 -145.224367 
L 201.634205 -152.948511 
L 203.545164 -161.366524 
L 205.456123 -170.365146 
L 207.367082 -179.814679 
L 209.278041 -189.572388 
L 211.189 -199.4865 
L 213.099959 -215.983853 
L 215.010918 -232.182556 
L 216.921877 -247.794555 
L 218.832836 -262.552409 
L 220.743795 -276.218171 
L 222.654753 -288.590693 
L 224.565712 -299.511011 
L 226.476671 -308.865607 
L 228.38763 -316.587488 
L 230.298589 -322.655179 
L 232.209548 -327.089836 
L 234.120507 -329.950777 
L 236.031466 -331.329836 
L 237.942425 -331.344925 
L 239.853384 -330.133241 
L 241.764342 -327.844499 
L 243.675301 -324.634536 
L 245.58626 -320.659547 
L 247.497219 -316.071176 
L 249.408178 -311.012556 
L 251.319137 -305.615367 
L 253.230096 -299.997873 
L 255.141055 -294.263864 
L 257.052014 -288.502392 
L 258.962973 -282.78813 
L 260.873932 -277.182213 
L 262.78489 -271.733396 
L 264.695849 -266.479382 
L 266.606808 -261.448219 
L 268.517767 -256.659669 
L 270.428726 -252.126489 
L 272.339685 -247.855608 
L 274.250644 -243.849158 
L 276.161603 -240.105386 
L 278.072562 -236.61944 
L 279.983521 -233.384033 
L 281.894479 -230.390023 
L 283.805438 -227.626892 
L 285.716397 -225.083159 
L 287.627356 -222.746718 
L 289.538315 -220.605125 
L 291.449274 -218.645835 
L 293.360233 -216.856389 
L 295.271192 -215.224571 
L 297.182151 -213.738526 
L 299.09311 -212.386853 
L 301.004068 -211.158671 
L 302.915027 -210.043666 
L 304.825986 -209.032118 
L 306.736945 -208.114918 
L 308.647904 -207.283565 
L 310.558863 -206.530163 
L 312.469822 -205.847403 
L 314.380781 -205.228539 
L 316.29174 -204.667368 
L 318.202699 -204.158196 
L 320.113658 -203.695809 
L 322.024616 -203.27544 
L 323.935575 -202.892737 
L 325.846534 -202.543732 
L 327.757493 -202.224805 
L 329.668452 -201.932658 
L 331.579411 -201.664284 
L 333.49037 -201.416935 
L 335.401329 -201.188102 
L 337.312288 -200.975481 
L 339.223247 -200.776957 
L 341.134205 -200.590575 
L 343.045164 -200.414524 
L 344.956123 -200.247111 
L 346.867082 -200.086746 
L 348.778041 -199.931921 
L 350.689 -199.781195 
L 350.689 -199.655508 
L 350.689 -199.655508 
L 348.778041 -199.742006 
L 346.867082 -199.830924 
L 344.956123 -199.923117 
L 343.045164 -200.019481 
L 341.134205 -200.120961 
L 339.223247 -200.228571 
L 337.312288 -200.3434 
L 335.401329 -200.466624 
L 333.49037 -200.599529 
L 331.579411 -200.743516 
L 329.668452 -200.900125 
L 327.757493 -201.071051 
L 325.846534 -201.258162 
L 323.935575 -201.463522 
L 322.024616 -201.689411 
L 320.113658 -201.938354 
L 318.202699 -202.213141 
L 316.29174 -202.51686 
L 314.380781 -202.852922 
L 312.469822 -203.225094 
L 310.558863 -203.63753 
L 308.647904 -204.0948 
L 306.736945 -204.601928 
L 304.825986 -205.164417 
L 302.915027 -205.78828 
L 301.004068 -206.480067 
L 299.09311 -207.246881 
L 297.182151 -208.096387 
L 295.271192 -209.036818 
L 293.360233 -210.076952 
L 291.449274 -211.226076 
L 289.538315 -212.493923 
L 287.627356 -213.890574 
L 285.716397 -215.426318 
L 283.805438 -217.111467 
L 281.894479 -218.956103 
L 279.983521 -220.969767 
L 278.072562 -223.161063 
L 276.161603 -225.537185 
L 274.250644 -228.103359 
L 272.339685 -230.862191 
L 270.428726 -233.812953 
L 268.517767 -236.9508 
L 266.606808 -240.265958 
L 264.695849 -243.742914 
L 262.78489 -247.359651 
L 260.873932 -251.086984 
L 258.962973 -254.888037 
L 257.052014 -258.71793 
L 255.141055 -262.523705 
L 253.230096 -266.244532 
L 251.319137 -269.812224 
L 249.408178 -273.152063 
L 247.497219 -276.183963 
L 245.58626 -278.823945 
L 243.675301 -280.985942 
L 241.764342 -282.583892 
L 239.853384 -283.534108 
L 237.942425 -283.757876 
L 236.031466 -283.184207 
L 234.120507 -281.752672 
L 232.209548 -279.416192 
L 230.298589 -276.143681 
L 228.38763 -271.922376 
L 226.476671 -266.759738 
L 224.565712 -260.684769 
L 222.654753 -253.748633 
L 220.743795 -246.024489 
L 218.832836 -237.606476 
L 216.921877 -228.607854 
L 215.010918 -219.158321 
L 213.099959 -209.400612 
L 211.189 -199.4865 
L 209.278041 -182.989147 
L 207.367082 -166.790444 
L 205.456123 -151.178445 
L 203.545164 -136.420591 
L 201.634205 -122.754829 
L 199.723247 -110.382307 
L 197.812288 -99.461989 
L 195.901329 -90.107393 
L 193.99037 -82.385512 
L 192.079411 -76.317821 
L 190.168452 -71.883164 
L 188.257493 -69.022223 
L 186.346534 -67.643164 
L 184.435575 -67.628075 
L 182.524616 -68.839759 
L 180.613658 -71.128501 
L 178.702699 -74.338464 
L 176.79174 -78.313453 
L 174.880781 -82.901824 
L 172.969822 -87.960444 
L 171.058863 -93.357633 
L 169.147904 -98.975127 
L 167.236945 -104.709136 
L 165.325986 -110.470608 
L 163.415027 -116.18487 
L 161.504068 -121.790787 
L 159.59311 -127.239604 
L 157.682151 -132.493618 
L 155.771192 -137.524781 
L 153.860233 -142.313331 
L 151.949274 -146.846511 
L 150.038315 -151.117392 
L 148.127356 -155.123842 
L 146.216397 -158.867614 
L 144.305438 -162.35356 
L 142.394479 -165.588967 
L 140.483521 -168.582977 
L 138.572562 -171.346108 
L 136.661603 -173.889841 
L 134.750644 -176.226282 
L 132.839685 -178.367875 
L 130.928726 -180.327165 
L 129.017767 -182.116611 
L 127.106808 -183.748429 
L 125.195849 -185.234474 
L 123.28489 -186.586147 
L 121.373932 -187.814329 
L 119.462973 -188.929334 
L 117.552014 -189.940882 
L 115.641055 -190.858082 
L 113.730096 -191.689435 
L 111.819137 -192.442837 
L 109.908178 -193.125597 
L 107.997219 -193.744461 
L 106.08626 -194.305632 
L 104.175301 -194.814804 
L 102.264342 -195.277191 
L 100.353384 -195.69756 
L 98.442425 -196.080263 
L 96.531466 -196.429268 
L 94.620507 -196.748195 
L 92.709548 -197.040342 
L 90.798589 -197.308716 
L 88.88763 -197.556065 
L 86.976671 -197.784898 
L 85.065712 -197.997519 
L 83.154753 -198.196043 
L 81.243795 -198.382425 
L 79.332836 -198.558476 
L 77.421877 -198.725889 
L 75.510918 -198.886254 
L 73.599959 -199.041079 
L 71.689 -199.191805 
z
" id="mdc98153c65" style="stroke:#ffff00;stroke-opacity:0.2;"/>
    </defs>
    <g clip-path="url(#p97c85da48c)">
     <use style="fill:#ffff00;fill-opacity:0.2;stroke:#ffff00;stroke-opacity:0.2;" x="0" xlink:href="#mdc98153c65" y="363.1755"/>
    </g>
   </g>
   <g id="matplotlib.axis_1">
    <g id="xtick_1">
     <g id="line2d_1">
      <defs>
       <path d="M 0 0 
L 0 -6 
" id="mb834c61c7b" style="stroke:#000000;stroke-width:2;"/>
      </defs>
      <g>
       <use style="stroke:#000000;stroke-width:2;" x="71.689" xlink:href="#mb834c61c7b" y="299.589"/>
      </g>
     </g>
     <g id="text_1">
      <!-- -73 -->
      <defs>
       <path d="M 4.890625 31.390625 
L 31.203125 31.390625 
L 31.203125 23.390625 
L 4.890625 23.390625 
z
" id="DejaVuSans-45"/>
       <path d="M 8.203125 72.90625 
L 55.078125 72.90625 
L 55.078125 68.703125 
L 28.609375 0 
L 18.3125 0 
L 43.21875 64.59375 
L 8.203125 64.59375 
z
" id="DejaVuSans-55"/>
       <path d="M 40.578125 39.3125 
Q 47.65625 37.796875 51.625 33 
Q 55.609375 28.21875 55.609375 21.1875 
Q 55.609375 10.40625 48.1875 4.484375 
Q 40.765625 -1.421875 27.09375 -1.421875 
Q 22.515625 -1.421875 17.65625 -0.515625 
Q 12.796875 0.390625 7.625 2.203125 
L 7.625 11.71875 
Q 11.71875 9.328125 16.59375 8.109375 
Q 21.484375 6.890625 26.8125 6.890625 
Q 36.078125 6.890625 40.9375 10.546875 
Q 45.796875 14.203125 45.796875 21.1875 
Q 45.796875 27.640625 41.28125 31.265625 
Q 36.765625 34.90625 28.71875 34.90625 
L 20.21875 34.90625 
L 20.21875 43.015625 
L 29.109375 43.015625 
Q 36.375 43.015625 40.234375 45.921875 
Q 44.09375 48.828125 44.09375 54.296875 
Q 44.09375 59.90625 40.109375 62.90625 
Q 36.140625 65.921875 28.71875 65.921875 
Q 24.65625 65.921875 20.015625 65.03125 
Q 15.375 64.15625 9.8125 62.3125 
L 9.8125 71.09375 
Q 15.4375 72.65625 20.34375 73.4375 
Q 25.25 74.21875 29.59375 74.21875 
Q 40.828125 74.21875 47.359375 69.109375 
Q 53.90625 64.015625 53.90625 55.328125 
Q 53.90625 49.265625 50.4375 45.09375 
Q 46.96875 40.921875 40.578125 39.3125 
z
" id="DejaVuSans-51"/>
      </defs>
      <g transform="translate(58.62275 315.2465)scale(0.16 -0.16)">
       <use xlink:href="#DejaVuSans-45"/>
       <use x="36.083984" xlink:href="#DejaVuSans-55"/>
       <use x="99.707031" xlink:href="#DejaVuSans-51"/>
      </g>
     </g>
    </g>
    <g id="xtick_2">
     <g id="line2d_2">
      <g>
       <use style="stroke:#000000;stroke-width:2;" x="115.641055" xlink:href="#mb834c61c7b" y="299.589"/>
      </g>
     </g>
     <g id="text_2">
      <!-- -50 -->
      <defs>
       <path d="M 10.796875 72.90625 
L 49.515625 72.90625 
L 49.515625 64.59375 
L 19.828125 64.59375 
L 19.828125 46.734375 
Q 21.96875 47.46875 24.109375 47.828125 
Q 26.265625 48.1875 28.421875 48.1875 
Q 40.625 48.1875 47.75 41.5 
Q 54.890625 34.8125 54.890625 23.390625 
Q 54.890625 11.625 47.5625 5.09375 
Q 40.234375 -1.421875 26.90625 -1.421875 
Q 22.3125 -1.421875 17.546875 -0.640625 
Q 12.796875 0.140625 7.71875 1.703125 
L 7.71875 11.625 
Q 12.109375 9.234375 16.796875 8.0625 
Q 21.484375 6.890625 26.703125 6.890625 
Q 35.15625 6.890625 40.078125 11.328125 
Q 45.015625 15.765625 45.015625 23.390625 
Q 45.015625 31 40.078125 35.4375 
Q 35.15625 39.890625 26.703125 39.890625 
Q 22.75 39.890625 18.8125 39.015625 
Q 14.890625 38.140625 10.796875 36.28125 
z
" id="DejaVuSans-53"/>
       <path d="M 31.78125 66.40625 
Q 24.171875 66.40625 20.328125 58.90625 
Q 16.5 51.421875 16.5 36.375 
Q 16.5 21.390625 20.328125 13.890625 
Q 24.171875 6.390625 31.78125 6.390625 
Q 39.453125 6.390625 43.28125 13.890625 
Q 47.125 21.390625 47.125 36.375 
Q 47.125 51.421875 43.28125 58.90625 
Q 39.453125 66.40625 31.78125 66.40625 
z
M 31.78125 74.21875 
Q 44.046875 74.21875 50.515625 64.515625 
Q 56.984375 54.828125 56.984375 36.375 
Q 56.984375 17.96875 50.515625 8.265625 
Q 44.046875 -1.421875 31.78125 -1.421875 
Q 19.53125 -1.421875 13.0625 8.265625 
Q 6.59375 17.96875 6.59375 36.375 
Q 6.59375 54.828125 13.0625 64.515625 
Q 19.53125 74.21875 31.78125 74.21875 
z
" id="DejaVuSans-48"/>
      </defs>
      <g transform="translate(102.574805 315.2465)scale(0.16 -0.16)">
       <use xlink:href="#DejaVuSans-45"/>
       <use x="36.083984" xlink:href="#DejaVuSans-53"/>
       <use x="99.707031" xlink:href="#DejaVuSans-48"/>
      </g>
     </g>
    </g>
    <g id="xtick_3">
     <g id="line2d_3">
      <g>
       <use style="stroke:#000000;stroke-width:2;" x="163.415027" xlink:href="#mb834c61c7b" y="299.589"/>
      </g>
     </g>
     <g id="text_3">
      <!-- -25 -->
      <defs>
       <path d="M 19.1875 8.296875 
L 53.609375 8.296875 
L 53.609375 0 
L 7.328125 0 
L 7.328125 8.296875 
Q 12.9375 14.109375 22.625 23.890625 
Q 32.328125 33.6875 34.8125 36.53125 
Q 39.546875 41.84375 41.421875 45.53125 
Q 43.3125 49.21875 43.3125 52.78125 
Q 43.3125 58.59375 39.234375 62.25 
Q 35.15625 65.921875 28.609375 65.921875 
Q 23.96875 65.921875 18.8125 64.3125 
Q 13.671875 62.703125 7.8125 59.421875 
L 7.8125 69.390625 
Q 13.765625 71.78125 18.9375 73 
Q 24.125 74.21875 28.421875 74.21875 
Q 39.75 74.21875 46.484375 68.546875 
Q 53.21875 62.890625 53.21875 53.421875 
Q 53.21875 48.921875 51.53125 44.890625 
Q 49.859375 40.875 45.40625 35.40625 
Q 44.1875 33.984375 37.640625 27.21875 
Q 31.109375 20.453125 19.1875 8.296875 
z
" id="DejaVuSans-50"/>
      </defs>
      <g transform="translate(150.348777 315.2465)scale(0.16 -0.16)">
       <use xlink:href="#DejaVuSans-45"/>
       <use x="36.083984" xlink:href="#DejaVuSans-50"/>
       <use x="99.707031" xlink:href="#DejaVuSans-53"/>
      </g>
     </g>
    </g>
    <g id="xtick_4">
     <g id="line2d_4">
      <g>
       <use style="stroke:#000000;stroke-width:2;" x="211.189" xlink:href="#mb834c61c7b" y="299.589"/>
      </g>
     </g>
     <g id="text_4">
      <!-- 0 -->
      <g transform="translate(206.099 315.2465)scale(0.16 -0.16)">
       <use xlink:href="#DejaVuSans-48"/>
      </g>
     </g>
    </g>
    <g id="xtick_5">
     <g id="line2d_5">
      <g>
       <use style="stroke:#000000;stroke-width:2;" x="258.962973" xlink:href="#mb834c61c7b" y="299.589"/>
      </g>
     </g>
     <g id="text_5">
      <!-- 25 -->
      <g transform="translate(248.782973 315.2465)scale(0.16 -0.16)">
       <use xlink:href="#DejaVuSans-50"/>
       <use x="63.623047" xlink:href="#DejaVuSans-53"/>
      </g>
     </g>
    </g>
    <g id="xtick_6">
     <g id="line2d_6">
      <g>
       <use style="stroke:#000000;stroke-width:2;" x="306.736945" xlink:href="#mb834c61c7b" y="299.589"/>
      </g>
     </g>
     <g id="text_6">
      <!-- 50 -->
      <g transform="translate(296.556945 315.2465)scale(0.16 -0.16)">
       <use xlink:href="#DejaVuSans-53"/>
       <use x="63.623047" xlink:href="#DejaVuSans-48"/>
      </g>
     </g>
    </g>
    <g id="xtick_7">
     <g id="line2d_7">
      <g>
       <use style="stroke:#000000;stroke-width:2;" x="350.689" xlink:href="#mb834c61c7b" y="299.589"/>
      </g>
     </g>
     <g id="text_7">
      <!-- 73 -->
      <g transform="translate(340.509 315.2465)scale(0.16 -0.16)">
       <use xlink:href="#DejaVuSans-55"/>
       <use x="63.623047" xlink:href="#DejaVuSans-51"/>
      </g>
     </g>
    </g>
    <g id="text_8">
     <!-- Previous Tumor - Current Tumor -->
     <defs>
      <path d="M 19.671875 64.796875 
L 19.671875 37.40625 
L 32.078125 37.40625 
Q 38.96875 37.40625 42.71875 40.96875 
Q 46.484375 44.53125 46.484375 51.125 
Q 46.484375 57.671875 42.71875 61.234375 
Q 38.96875 64.796875 32.078125 64.796875 
z
M 9.8125 72.90625 
L 32.078125 72.90625 
Q 44.34375 72.90625 50.609375 67.359375 
Q 56.890625 61.8125 56.890625 51.125 
Q 56.890625 40.328125 50.609375 34.8125 
Q 44.34375 29.296875 32.078125 29.296875 
L 19.671875 29.296875 
L 19.671875 0 
L 9.8125 0 
z
" id="DejaVuSans-80"/>
      <path d="M 41.109375 46.296875 
Q 39.59375 47.171875 37.8125 47.578125 
Q 36.03125 48 33.890625 48 
Q 26.265625 48 22.1875 43.046875 
Q 18.109375 38.09375 18.109375 28.8125 
L 18.109375 0 
L 9.078125 0 
L 9.078125 54.6875 
L 18.109375 54.6875 
L 18.109375 46.1875 
Q 20.953125 51.171875 25.484375 53.578125 
Q 30.03125 56 36.53125 56 
Q 37.453125 56 38.578125 55.875 
Q 39.703125 55.765625 41.0625 55.515625 
z
" id="DejaVuSans-114"/>
      <path d="M 56.203125 29.59375 
L 56.203125 25.203125 
L 14.890625 25.203125 
Q 15.484375 15.921875 20.484375 11.0625 
Q 25.484375 6.203125 34.421875 6.203125 
Q 39.59375 6.203125 44.453125 7.46875 
Q 49.3125 8.734375 54.109375 11.28125 
L 54.109375 2.78125 
Q 49.265625 0.734375 44.1875 -0.34375 
Q 39.109375 -1.421875 33.890625 -1.421875 
Q 20.796875 -1.421875 13.15625 6.1875 
Q 5.515625 13.8125 5.515625 26.8125 
Q 5.515625 40.234375 12.765625 48.109375 
Q 20.015625 56 32.328125 56 
Q 43.359375 56 49.78125 48.890625 
Q 56.203125 41.796875 56.203125 29.59375 
z
M 47.21875 32.234375 
Q 47.125 39.59375 43.09375 43.984375 
Q 39.0625 48.390625 32.421875 48.390625 
Q 24.90625 48.390625 20.390625 44.140625 
Q 15.875 39.890625 15.1875 32.171875 
z
" id="DejaVuSans-101"/>
      <path d="M 2.984375 54.6875 
L 12.5 54.6875 
L 29.59375 8.796875 
L 46.6875 54.6875 
L 56.203125 54.6875 
L 35.6875 0 
L 23.484375 0 
z
" id="DejaVuSans-118"/>
      <path d="M 9.421875 54.6875 
L 18.40625 54.6875 
L 18.40625 0 
L 9.421875 0 
z
M 9.421875 75.984375 
L 18.40625 75.984375 
L 18.40625 64.59375 
L 9.421875 64.59375 
z
" id="DejaVuSans-105"/>
      <path d="M 30.609375 48.390625 
Q 23.390625 48.390625 19.1875 42.75 
Q 14.984375 37.109375 14.984375 27.296875 
Q 14.984375 17.484375 19.15625 11.84375 
Q 23.34375 6.203125 30.609375 6.203125 
Q 37.796875 6.203125 41.984375 11.859375 
Q 46.1875 17.53125 46.1875 27.296875 
Q 46.1875 37.015625 41.984375 42.703125 
Q 37.796875 48.390625 30.609375 48.390625 
z
M 30.609375 56 
Q 42.328125 56 49.015625 48.375 
Q 55.71875 40.765625 55.71875 27.296875 
Q 55.71875 13.875 49.015625 6.21875 
Q 42.328125 -1.421875 30.609375 -1.421875 
Q 18.84375 -1.421875 12.171875 6.21875 
Q 5.515625 13.875 5.515625 27.296875 
Q 5.515625 40.765625 12.171875 48.375 
Q 18.84375 56 30.609375 56 
z
" id="DejaVuSans-111"/>
      <path d="M 8.5 21.578125 
L 8.5 54.6875 
L 17.484375 54.6875 
L 17.484375 21.921875 
Q 17.484375 14.15625 20.5 10.265625 
Q 23.53125 6.390625 29.59375 6.390625 
Q 36.859375 6.390625 41.078125 11.03125 
Q 45.3125 15.671875 45.3125 23.6875 
L 45.3125 54.6875 
L 54.296875 54.6875 
L 54.296875 0 
L 45.3125 0 
L 45.3125 8.40625 
Q 42.046875 3.421875 37.71875 1 
Q 33.40625 -1.421875 27.6875 -1.421875 
Q 18.265625 -1.421875 13.375 4.4375 
Q 8.5 10.296875 8.5 21.578125 
z
M 31.109375 56 
z
" id="DejaVuSans-117"/>
      <path d="M 44.28125 53.078125 
L 44.28125 44.578125 
Q 40.484375 46.53125 36.375 47.5 
Q 32.28125 48.484375 27.875 48.484375 
Q 21.1875 48.484375 17.84375 46.4375 
Q 14.5 44.390625 14.5 40.28125 
Q 14.5 37.15625 16.890625 35.375 
Q 19.28125 33.59375 26.515625 31.984375 
L 29.59375 31.296875 
Q 39.15625 29.25 43.1875 25.515625 
Q 47.21875 21.78125 47.21875 15.09375 
Q 47.21875 7.46875 41.1875 3.015625 
Q 35.15625 -1.421875 24.609375 -1.421875 
Q 20.21875 -1.421875 15.453125 -0.5625 
Q 10.6875 0.296875 5.421875 2 
L 5.421875 11.28125 
Q 10.40625 8.6875 15.234375 7.390625 
Q 20.0625 6.109375 24.8125 6.109375 
Q 31.15625 6.109375 34.5625 8.28125 
Q 37.984375 10.453125 37.984375 14.40625 
Q 37.984375 18.0625 35.515625 20.015625 
Q 33.0625 21.96875 24.703125 23.78125 
L 21.578125 24.515625 
Q 13.234375 26.265625 9.515625 29.90625 
Q 5.8125 33.546875 5.8125 39.890625 
Q 5.8125 47.609375 11.28125 51.796875 
Q 16.75 56 26.8125 56 
Q 31.78125 56 36.171875 55.265625 
Q 40.578125 54.546875 44.28125 53.078125 
z
" id="DejaVuSans-115"/>
      <path id="DejaVuSans-32"/>
      <path d="M -0.296875 72.90625 
L 61.375 72.90625 
L 61.375 64.59375 
L 35.5 64.59375 
L 35.5 0 
L 25.59375 0 
L 25.59375 64.59375 
L -0.296875 64.59375 
z
" id="DejaVuSans-84"/>
      <path d="M 52 44.1875 
Q 55.375 50.25 60.0625 53.125 
Q 64.75 56 71.09375 56 
Q 79.640625 56 84.28125 50.015625 
Q 88.921875 44.046875 88.921875 33.015625 
L 88.921875 0 
L 79.890625 0 
L 79.890625 32.71875 
Q 79.890625 40.578125 77.09375 44.375 
Q 74.3125 48.1875 68.609375 48.1875 
Q 61.625 48.1875 57.5625 43.546875 
Q 53.515625 38.921875 53.515625 30.90625 
L 53.515625 0 
L 44.484375 0 
L 44.484375 32.71875 
Q 44.484375 40.625 41.703125 44.40625 
Q 38.921875 48.1875 33.109375 48.1875 
Q 26.21875 48.1875 22.15625 43.53125 
Q 18.109375 38.875 18.109375 30.90625 
L 18.109375 0 
L 9.078125 0 
L 9.078125 54.6875 
L 18.109375 54.6875 
L 18.109375 46.1875 
Q 21.1875 51.21875 25.484375 53.609375 
Q 29.78125 56 35.6875 56 
Q 41.65625 56 45.828125 52.96875 
Q 50 49.953125 52 44.1875 
z
" id="DejaVuSans-109"/>
      <path d="M 64.40625 67.28125 
L 64.40625 56.890625 
Q 59.421875 61.53125 53.78125 63.8125 
Q 48.140625 66.109375 41.796875 66.109375 
Q 29.296875 66.109375 22.65625 58.46875 
Q 16.015625 50.828125 16.015625 36.375 
Q 16.015625 21.96875 22.65625 14.328125 
Q 29.296875 6.6875 41.796875 6.6875 
Q 48.140625 6.6875 53.78125 8.984375 
Q 59.421875 11.28125 64.40625 15.921875 
L 64.40625 5.609375 
Q 59.234375 2.09375 53.4375 0.328125 
Q 47.65625 -1.421875 41.21875 -1.421875 
Q 24.65625 -1.421875 15.125 8.703125 
Q 5.609375 18.84375 5.609375 36.375 
Q 5.609375 53.953125 15.125 64.078125 
Q 24.65625 74.21875 41.21875 74.21875 
Q 47.75 74.21875 53.53125 72.484375 
Q 59.328125 70.75 64.40625 67.28125 
z
" id="DejaVuSans-67"/>
      <path d="M 54.890625 33.015625 
L 54.890625 0 
L 45.90625 0 
L 45.90625 32.71875 
Q 45.90625 40.484375 42.875 44.328125 
Q 39.84375 48.1875 33.796875 48.1875 
Q 26.515625 48.1875 22.3125 43.546875 
Q 18.109375 38.921875 18.109375 30.90625 
L 18.109375 0 
L 9.078125 0 
L 9.078125 54.6875 
L 18.109375 54.6875 
L 18.109375 46.1875 
Q 21.34375 51.125 25.703125 53.5625 
Q 30.078125 56 35.796875 56 
Q 45.21875 56 50.046875 50.171875 
Q 54.890625 44.34375 54.890625 33.015625 
z
" id="DejaVuSans-110"/>
      <path d="M 18.3125 70.21875 
L 18.3125 54.6875 
L 36.8125 54.6875 
L 36.8125 47.703125 
L 18.3125 47.703125 
L 18.3125 18.015625 
Q 18.3125 11.328125 20.140625 9.421875 
Q 21.96875 7.515625 27.59375 7.515625 
L 36.8125 7.515625 
L 36.8125 0 
L 27.59375 0 
Q 17.1875 0 13.234375 3.875 
Q 9.28125 7.765625 9.28125 18.015625 
L 9.28125 47.703125 
L 2.6875 47.703125 
L 2.6875 54.6875 
L 9.28125 54.6875 
L 9.28125 70.21875 
z
" id="DejaVuSans-116"/>
     </defs>
     <g transform="translate(81.82525 334.7315)scale(0.16 -0.16)">
      <use xlink:href="#DejaVuSans-80"/>
      <use x="60.287109" xlink:href="#DejaVuSans-114"/>
      <use x="101.369141" xlink:href="#DejaVuSans-101"/>
      <use x="162.892578" xlink:href="#DejaVuSans-118"/>
      <use x="222.072266" xlink:href="#DejaVuSans-105"/>
      <use x="249.855469" xlink:href="#DejaVuSans-111"/>
      <use x="311.037109" xlink:href="#DejaVuSans-117"/>
      <use x="374.416016" xlink:href="#DejaVuSans-115"/>
      <use x="426.515625" xlink:href="#DejaVuSans-32"/>
      <use x="458.302734" xlink:href="#DejaVuSans-84"/>
      <use x="519.152344" xlink:href="#DejaVuSans-117"/>
      <use x="582.53125" xlink:href="#DejaVuSans-109"/>
      <use x="679.943359" xlink:href="#DejaVuSans-111"/>
      <use x="741.125" xlink:href="#DejaVuSans-114"/>
      <use x="782.238281" xlink:href="#DejaVuSans-32"/>
      <use x="814.025391" xlink:href="#DejaVuSans-45"/>
      <use x="850.109375" xlink:href="#DejaVuSans-32"/>
      <use x="881.896484" xlink:href="#DejaVuSans-67"/>
      <use x="951.720703" xlink:href="#DejaVuSans-117"/>
      <use x="1015.099609" xlink:href="#DejaVuSans-114"/>
      <use x="1056.197266" xlink:href="#DejaVuSans-114"/>
      <use x="1097.279297" xlink:href="#DejaVuSans-101"/>
      <use x="1158.802734" xlink:href="#DejaVuSans-110"/>
      <use x="1222.181641" xlink:href="#DejaVuSans-116"/>
      <use x="1261.390625" xlink:href="#DejaVuSans-32"/>
      <use x="1293.177734" xlink:href="#DejaVuSans-84"/>
      <use x="1354.027344" xlink:href="#DejaVuSans-117"/>
      <use x="1417.40625" xlink:href="#DejaVuSans-109"/>
      <use x="1514.818359" xlink:href="#DejaVuSans-111"/>
      <use x="1576" xlink:href="#DejaVuSans-114"/>
     </g>
     <!--  (morph units) -->
     <defs>
      <path d="M 31 75.875 
Q 24.46875 64.65625 21.28125 53.65625 
Q 18.109375 42.671875 18.109375 31.390625 
Q 18.109375 20.125 21.3125 9.0625 
Q 24.515625 -2 31 -13.1875 
L 23.1875 -13.1875 
Q 15.875 -1.703125 12.234375 9.375 
Q 8.59375 20.453125 8.59375 31.390625 
Q 8.59375 42.28125 12.203125 53.3125 
Q 15.828125 64.359375 23.1875 75.875 
z
" id="DejaVuSans-40"/>
      <path d="M 18.109375 8.203125 
L 18.109375 -20.796875 
L 9.078125 -20.796875 
L 9.078125 54.6875 
L 18.109375 54.6875 
L 18.109375 46.390625 
Q 20.953125 51.265625 25.265625 53.625 
Q 29.59375 56 35.59375 56 
Q 45.5625 56 51.78125 48.09375 
Q 58.015625 40.1875 58.015625 27.296875 
Q 58.015625 14.40625 51.78125 6.484375 
Q 45.5625 -1.421875 35.59375 -1.421875 
Q 29.59375 -1.421875 25.265625 0.953125 
Q 20.953125 3.328125 18.109375 8.203125 
z
M 48.6875 27.296875 
Q 48.6875 37.203125 44.609375 42.84375 
Q 40.53125 48.484375 33.40625 48.484375 
Q 26.265625 48.484375 22.1875 42.84375 
Q 18.109375 37.203125 18.109375 27.296875 
Q 18.109375 17.390625 22.1875 11.75 
Q 26.265625 6.109375 33.40625 6.109375 
Q 40.53125 6.109375 44.609375 11.75 
Q 48.6875 17.390625 48.6875 27.296875 
z
" id="DejaVuSans-112"/>
      <path d="M 54.890625 33.015625 
L 54.890625 0 
L 45.90625 0 
L 45.90625 32.71875 
Q 45.90625 40.484375 42.875 44.328125 
Q 39.84375 48.1875 33.796875 48.1875 
Q 26.515625 48.1875 22.3125 43.546875 
Q 18.109375 38.921875 18.109375 30.90625 
L 18.109375 0 
L 9.078125 0 
L 9.078125 75.984375 
L 18.109375 75.984375 
L 18.109375 46.1875 
Q 21.34375 51.125 25.703125 53.5625 
Q 30.078125 56 35.796875 56 
Q 45.21875 56 50.046875 50.171875 
Q 54.890625 44.34375 54.890625 33.015625 
z
" id="DejaVuSans-104"/>
      <path d="M 8.015625 75.875 
L 15.828125 75.875 
Q 23.140625 64.359375 26.78125 53.3125 
Q 30.421875 42.28125 30.421875 31.390625 
Q 30.421875 20.453125 26.78125 9.375 
Q 23.140625 -1.703125 15.828125 -13.1875 
L 8.015625 -13.1875 
Q 14.5 -2 17.703125 9.0625 
Q 20.90625 20.125 20.90625 31.390625 
Q 20.90625 42.671875 17.703125 53.65625 
Q 14.5 64.65625 8.015625 75.875 
z
" id="DejaVuSans-41"/>
     </defs>
     <g transform="translate(154.07025 352.648)scale(0.16 -0.16)">
      <use xlink:href="#DejaVuSans-32"/>
      <use x="31.787109" xlink:href="#DejaVuSans-40"/>
      <use x="70.800781" xlink:href="#DejaVuSans-109"/>
      <use x="168.212891" xlink:href="#DejaVuSans-111"/>
      <use x="229.394531" xlink:href="#DejaVuSans-114"/>
      <use x="270.507812" xlink:href="#DejaVuSans-112"/>
      <use x="333.984375" xlink:href="#DejaVuSans-104"/>
      <use x="397.363281" xlink:href="#DejaVuSans-32"/>
      <use x="429.150391" xlink:href="#DejaVuSans-117"/>
      <use x="492.529297" xlink:href="#DejaVuSans-110"/>
      <use x="555.908203" xlink:href="#DejaVuSans-105"/>
      <use x="583.691406" xlink:href="#DejaVuSans-116"/>
      <use x="622.900391" xlink:href="#DejaVuSans-115"/>
      <use x="675" xlink:href="#DejaVuSans-41"/>
     </g>
    </g>
   </g>
   <g id="matplotlib.axis_2">
    <g id="ytick_1">
     <g id="line2d_8">
      <defs>
       <path d="M 0 0 
L 6 0 
" id="m331ace027b" style="stroke:#000000;stroke-width:2;"/>
      </defs>
      <g>
       <use style="stroke:#000000;stroke-width:2;" x="71.689" xlink:href="#m331ace027b" y="299.589"/>
      </g>
     </g>
     <g id="text_9">
      <!-- −3 -->
      <defs>
       <path d="M 10.59375 35.5 
L 73.1875 35.5 
L 73.1875 27.203125 
L 10.59375 27.203125 
z
" id="DejaVuSans-8722"/>
      </defs>
      <g transform="translate(44.6015 305.66775)scale(0.16 -0.16)">
       <use xlink:href="#DejaVuSans-8722"/>
       <use x="83.789062" xlink:href="#DejaVuSans-51"/>
      </g>
     </g>
    </g>
    <g id="ytick_2">
     <g id="line2d_9">
      <g>
       <use style="stroke:#000000;stroke-width:2;" x="71.689" xlink:href="#m331ace027b" y="254.289"/>
      </g>
     </g>
     <g id="text_10">
      <!-- −2 -->
      <g transform="translate(44.6015 260.36775)scale(0.16 -0.16)">
       <use xlink:href="#DejaVuSans-8722"/>
       <use x="83.789062" xlink:href="#DejaVuSans-50"/>
      </g>
     </g>
    </g>
    <g id="ytick_3">
     <g id="line2d_10">
      <g>
       <use style="stroke:#000000;stroke-width:2;" x="71.689" xlink:href="#m331ace027b" y="208.989"/>
      </g>
     </g>
     <g id="text_11">
      <!-- −1 -->
      <defs>
       <path d="M 12.40625 8.296875 
L 28.515625 8.296875 
L 28.515625 63.921875 
L 10.984375 60.40625 
L 10.984375 69.390625 
L 28.421875 72.90625 
L 38.28125 72.90625 
L 38.28125 8.296875 
L 54.390625 8.296875 
L 54.390625 0 
L 12.40625 0 
z
" id="DejaVuSans-49"/>
      </defs>
      <g transform="translate(44.6015 215.06775)scale(0.16 -0.16)">
       <use xlink:href="#DejaVuSans-8722"/>
       <use x="83.789062" xlink:href="#DejaVuSans-49"/>
      </g>
     </g>
    </g>
    <g id="ytick_4">
     <g id="line2d_11">
      <g>
       <use style="stroke:#000000;stroke-width:2;" x="71.689" xlink:href="#m331ace027b" y="163.689"/>
      </g>
     </g>
     <g id="text_12">
      <!-- 0 -->
      <g transform="translate(58.009 169.76775)scale(0.16 -0.16)">
       <use xlink:href="#DejaVuSans-48"/>
      </g>
     </g>
    </g>
    <g id="ytick_5">
     <g id="line2d_12">
      <g>
       <use style="stroke:#000000;stroke-width:2;" x="71.689" xlink:href="#m331ace027b" y="118.389"/>
      </g>
     </g>
     <g id="text_13">
      <!-- 1 -->
      <g transform="translate(58.009 124.46775)scale(0.16 -0.16)">
       <use xlink:href="#DejaVuSans-49"/>
      </g>
     </g>
    </g>
    <g id="ytick_6">
     <g id="line2d_13">
      <g>
       <use style="stroke:#000000;stroke-width:2;" x="71.689" xlink:href="#m331ace027b" y="73.089"/>
      </g>
     </g>
     <g id="text_14">
      <!-- 2 -->
      <g transform="translate(58.009 79.16775)scale(0.16 -0.16)">
       <use xlink:href="#DejaVuSans-50"/>
      </g>
     </g>
    </g>
    <g id="ytick_7">
     <g id="line2d_14">
      <g>
       <use style="stroke:#000000;stroke-width:2;" x="71.689" xlink:href="#m331ace027b" y="27.789"/>
      </g>
     </g>
     <g id="text_15">
      <!-- 3 -->
      <g transform="translate(58.009 33.86775)scale(0.16 -0.16)">
       <use xlink:href="#DejaVuSans-51"/>
      </g>
     </g>
    </g>
    <g id="text_16">
     <!-- Response Error on Current Trial -->
     <defs>
      <path d="M 44.390625 34.1875 
Q 47.5625 33.109375 50.5625 29.59375 
Q 53.5625 26.078125 56.59375 19.921875 
L 66.609375 0 
L 56 0 
L 46.6875 18.703125 
Q 43.0625 26.03125 39.671875 28.421875 
Q 36.28125 30.8125 30.421875 30.8125 
L 19.671875 30.8125 
L 19.671875 0 
L 9.8125 0 
L 9.8125 72.90625 
L 32.078125 72.90625 
Q 44.578125 72.90625 50.734375 67.671875 
Q 56.890625 62.453125 56.890625 51.90625 
Q 56.890625 45.015625 53.6875 40.46875 
Q 50.484375 35.9375 44.390625 34.1875 
z
M 19.671875 64.796875 
L 19.671875 38.921875 
L 32.078125 38.921875 
Q 39.203125 38.921875 42.84375 42.21875 
Q 46.484375 45.515625 46.484375 51.90625 
Q 46.484375 58.296875 42.84375 61.546875 
Q 39.203125 64.796875 32.078125 64.796875 
z
" id="DejaVuSans-82"/>
      <path d="M 9.8125 72.90625 
L 55.90625 72.90625 
L 55.90625 64.59375 
L 19.671875 64.59375 
L 19.671875 43.015625 
L 54.390625 43.015625 
L 54.390625 34.71875 
L 19.671875 34.71875 
L 19.671875 8.296875 
L 56.78125 8.296875 
L 56.78125 0 
L 9.8125 0 
z
" id="DejaVuSans-69"/>
      <path d="M 34.28125 27.484375 
Q 23.390625 27.484375 19.1875 25 
Q 14.984375 22.515625 14.984375 16.5 
Q 14.984375 11.71875 18.140625 8.90625 
Q 21.296875 6.109375 26.703125 6.109375 
Q 34.1875 6.109375 38.703125 11.40625 
Q 43.21875 16.703125 43.21875 25.484375 
L 43.21875 27.484375 
z
M 52.203125 31.203125 
L 52.203125 0 
L 43.21875 0 
L 43.21875 8.296875 
Q 40.140625 3.328125 35.546875 0.953125 
Q 30.953125 -1.421875 24.3125 -1.421875 
Q 15.921875 -1.421875 10.953125 3.296875 
Q 6 8.015625 6 15.921875 
Q 6 25.140625 12.171875 29.828125 
Q 18.359375 34.515625 30.609375 34.515625 
L 43.21875 34.515625 
L 43.21875 35.40625 
Q 43.21875 41.609375 39.140625 45 
Q 35.0625 48.390625 27.6875 48.390625 
Q 23 48.390625 18.546875 47.265625 
Q 14.109375 46.140625 10.015625 43.890625 
L 10.015625 52.203125 
Q 14.9375 54.109375 19.578125 55.046875 
Q 24.21875 56 28.609375 56 
Q 40.484375 56 46.34375 49.84375 
Q 52.203125 43.703125 52.203125 31.203125 
z
" id="DejaVuSans-97"/>
      <path d="M 9.421875 75.984375 
L 18.40625 75.984375 
L 18.40625 0 
L 9.421875 0 
z
" id="DejaVuSans-108"/>
     </defs>
     <g transform="translate(19.3575 290.27775)rotate(-90)scale(0.16 -0.16)">
      <use xlink:href="#DejaVuSans-82"/>
      <use x="69.419922" xlink:href="#DejaVuSans-101"/>
      <use x="130.943359" xlink:href="#DejaVuSans-115"/>
      <use x="183.042969" xlink:href="#DejaVuSans-112"/>
      <use x="246.519531" xlink:href="#DejaVuSans-111"/>
      <use x="307.701172" xlink:href="#DejaVuSans-110"/>
      <use x="371.080078" xlink:href="#DejaVuSans-115"/>
      <use x="423.179688" xlink:href="#DejaVuSans-101"/>
      <use x="484.703125" xlink:href="#DejaVuSans-32"/>
      <use x="516.490234" xlink:href="#DejaVuSans-69"/>
      <use x="579.673828" xlink:href="#DejaVuSans-114"/>
      <use x="620.771484" xlink:href="#DejaVuSans-114"/>
      <use x="661.853516" xlink:href="#DejaVuSans-111"/>
      <use x="723.035156" xlink:href="#DejaVuSans-114"/>
      <use x="764.148438" xlink:href="#DejaVuSans-32"/>
      <use x="795.935547" xlink:href="#DejaVuSans-111"/>
      <use x="857.117188" xlink:href="#DejaVuSans-110"/>
      <use x="920.496094" xlink:href="#DejaVuSans-32"/>
      <use x="952.283203" xlink:href="#DejaVuSans-67"/>
      <use x="1022.107422" xlink:href="#DejaVuSans-117"/>
      <use x="1085.486328" xlink:href="#DejaVuSans-114"/>
      <use x="1126.583984" xlink:href="#DejaVuSans-114"/>
      <use x="1167.666016" xlink:href="#DejaVuSans-101"/>
      <use x="1229.189453" xlink:href="#DejaVuSans-110"/>
      <use x="1292.568359" xlink:href="#DejaVuSans-116"/>
      <use x="1331.777344" xlink:href="#DejaVuSans-32"/>
      <use x="1363.564453" xlink:href="#DejaVuSans-84"/>
      <use x="1424.429688" xlink:href="#DejaVuSans-114"/>
      <use x="1465.542969" xlink:href="#DejaVuSans-105"/>
      <use x="1493.326172" xlink:href="#DejaVuSans-97"/>
      <use x="1554.605469" xlink:href="#DejaVuSans-108"/>
     </g>
     <!--  (morph units) -->
     <g transform="translate(37.274 220.80775)rotate(-90)scale(0.16 -0.16)">
      <use xlink:href="#DejaVuSans-32"/>
      <use x="31.787109" xlink:href="#DejaVuSans-40"/>
      <use x="70.800781" xlink:href="#DejaVuSans-109"/>
      <use x="168.212891" xlink:href="#DejaVuSans-111"/>
      <use x="229.394531" xlink:href="#DejaVuSans-114"/>
      <use x="270.507812" xlink:href="#DejaVuSans-112"/>
      <use x="333.984375" xlink:href="#DejaVuSans-104"/>
      <use x="397.363281" xlink:href="#DejaVuSans-32"/>
      <use x="429.150391" xlink:href="#DejaVuSans-117"/>
      <use x="492.529297" xlink:href="#DejaVuSans-110"/>
      <use x="555.908203" xlink:href="#DejaVuSans-105"/>
      <use x="583.691406" xlink:href="#DejaVuSans-116"/>
      <use x="622.900391" xlink:href="#DejaVuSans-115"/>
      <use x="675" xlink:href="#DejaVuSans-41"/>
     </g>
    </g>
   </g>
   <g id="line2d_15">
    <path clip-path="url(#p97c85da48c)" d="M 71.689 180.074937 
L 73.599959 172.781531 
L 75.510918 167.555665 
L 77.421877 171.218893 
L 79.332836 194.544916 
L 81.243795 205.40735 
L 83.154753 195.695801 
L 85.065712 181.282535 
L 86.976671 189.895749 
L 88.88763 189.139175 
L 90.798589 188.149881 
L 92.709548 186.290067 
L 94.620507 195.88686 
L 96.531466 196.844744 
L 98.442425 195.775004 
L 100.353384 207.721366 
L 102.264342 204.165896 
L 104.175301 214.041991 
L 106.08626 214.674594 
L 107.997219 215.036916 
L 109.908178 219.80051 
L 111.819137 219.056242 
L 113.730096 229.603319 
L 115.641055 234.588339 
L 117.552014 234.227078 
L 119.462973 233.98268 
L 121.373932 230.755454 
L 123.28489 230.339208 
L 125.195849 224.258039 
L 127.106808 224.684432 
L 129.017767 229.343355 
L 130.928726 224.787425 
L 132.839685 228.98642 
L 134.750644 225.776927 
L 136.661603 206.038022 
L 138.572562 219.309229 
L 140.483521 218.051879 
L 142.394479 219.021734 
L 144.305438 217.508131 
L 146.216397 213.846632 
L 148.127356 220.172827 
L 150.038315 224.132439 
L 151.949274 233.059953 
L 153.860233 227.622073 
L 155.771192 217.627861 
L 157.682151 217.346309 
L 159.59311 211.170842 
L 161.504068 206.530184 
L 163.415027 224.61759 
L 165.325986 224.909692 
L 169.147904 232.876451 
L 171.058863 247.715751 
L 172.969822 251.876146 
L 174.880781 247.383689 
L 176.79174 265.018377 
L 178.702699 258.137808 
L 180.613658 260.569719 
L 182.524616 268.120078 
L 184.435575 264.148965 
L 186.346534 259.843859 
L 188.257493 248.432797 
L 190.168452 244.118784 
L 192.079411 243.717911 
L 193.99037 245.672795 
L 195.901329 243.443263 
L 197.812288 229.291696 
L 199.723247 235.843986 
L 201.634205 229.240374 
L 203.545164 211.922743 
L 205.456123 205.264879 
L 207.367082 192.079122 
L 209.278041 177.494976 
L 211.189 159.407564 
L 213.099959 158.238669 
L 215.010918 148.693805 
L 216.921877 147.371407 
L 218.832836 123.509616 
L 220.743795 119.959097 
L 222.654753 122.10013 
L 224.565712 117.769791 
L 226.476671 111.617901 
L 228.38763 123.317156 
L 230.298589 113.51874 
L 232.209548 110.199143 
L 234.120507 97.640038 
L 236.031466 99.822602 
L 237.942425 101.091842 
L 239.853384 89.36429 
L 241.764342 102.103039 
L 243.675301 105.154758 
L 245.58626 109.480189 
L 247.497219 111.095043 
L 251.319137 129.610641 
L 253.230096 125.770073 
L 255.141055 120.100609 
L 257.052014 105.963858 
L 258.962973 112.986142 
L 260.873932 110.763023 
L 262.78489 99.433107 
L 264.695849 107.241418 
L 266.606808 111.211809 
L 268.517767 86.994527 
L 270.428726 81.801417 
L 272.339685 82.667053 
L 274.250644 99.494922 
L 276.161603 69.415633 
L 278.072562 68.566382 
L 279.983521 73.4852 
L 281.894479 65.85017 
L 283.805438 75.637258 
L 285.716397 72.268796 
L 289.538315 75.244272 
L 291.449274 79.826061 
L 293.360233 73.481507 
L 295.271192 77.339849 
L 297.182151 84.308947 
L 299.09311 84.544243 
L 301.004068 79.431495 
L 302.915027 88.333776 
L 304.825986 82.585673 
L 306.736945 86.526347 
L 308.647904 88.377475 
L 310.558863 95.403866 
L 312.469822 85.948665 
L 314.380781 82.228371 
L 316.29174 108.658899 
L 318.202699 114.265757 
L 320.113658 104.788134 
L 322.024616 111.935915 
L 323.935575 114.335659 
L 325.846534 132.567986 
L 327.757493 132.630345 
L 329.668452 123.671682 
L 331.579411 119.453489 
L 333.49037 120.502872 
L 335.401329 127.55964 
L 337.312288 141.740134 
L 339.223247 150.701597 
L 341.134205 154.778767 
L 343.045164 155.592362 
L 344.956123 155.529334 
L 346.867082 164.443553 
L 348.778041 176.198788 
L 350.689 180.074937 
L 350.689 180.074937 
" style="fill:none;stroke:#00008b;stroke-linecap:square;stroke-width:1.5;"/>
   </g>
   <g id="line2d_16">
    <path clip-path="url(#p97c85da48c)" d="M 71.689 163.920852 
L 85.065712 164.86194 
L 92.709548 165.618892 
L 98.442425 166.38063 
L 104.175301 167.388169 
L 107.997219 168.243231 
L 111.819137 169.286347 
L 115.641055 170.560923 
L 119.462973 172.118473 
L 123.28489 174.019367 
L 127.106808 176.333195 
L 130.928726 179.138455 
L 132.839685 180.752024 
L 134.750644 182.521146 
L 136.661603 184.457239 
L 138.572562 186.57168 
L 140.483521 188.875563 
L 142.394479 191.3794 
L 144.305438 194.092751 
L 146.216397 197.023786 
L 148.127356 200.178758 
L 150.038315 203.5614 
L 153.860233 211.007734 
L 157.682151 219.313648 
L 161.504068 228.337098 
L 172.969822 256.28481 
L 174.880781 260.330069 
L 176.79174 263.944246 
L 178.702699 267.012739 
L 180.613658 269.416696 
L 182.524616 271.036174 
L 184.435575 271.7539 
L 186.346534 271.459522 
L 188.257493 270.054225 
L 190.168452 267.455514 
L 192.079411 263.60193 
L 193.99037 258.457432 
L 195.901329 252.015172 
L 197.812288 244.30039 
L 199.723247 235.372163 
L 201.634205 225.32383 
L 203.545164 214.281943 
L 207.367082 189.872938 
L 216.921877 124.974296 
L 218.832836 113.096057 
L 220.743795 102.05417 
L 222.654753 92.005837 
L 224.565712 83.07761 
L 226.476671 75.362828 
L 228.38763 68.920568 
L 230.298589 63.77607 
L 232.209548 59.922486 
L 234.120507 57.323775 
L 236.031466 55.918478 
L 237.942425 55.6241 
L 239.853384 56.341826 
L 241.764342 57.961304 
L 243.675301 60.365261 
L 245.58626 63.433754 
L 247.497219 67.047931 
L 249.408178 71.09319 
L 253.230096 80.054297 
L 262.78489 103.628977 
L 266.606808 112.318412 
L 270.428726 120.205779 
L 274.250644 127.199242 
L 276.161603 130.354214 
L 278.072562 133.285249 
L 279.983521 135.9986 
L 281.894479 138.502437 
L 283.805438 140.80632 
L 285.716397 142.920761 
L 287.627356 144.856854 
L 289.538315 146.625976 
L 293.360233 149.70883 
L 297.182151 152.258043 
L 301.004068 154.356131 
L 304.825986 156.077232 
L 308.647904 157.486317 
L 312.469822 158.639251 
L 316.29174 159.583386 
L 322.024616 160.693074 
L 327.757493 161.527572 
L 335.401329 162.348137 
L 344.956123 163.090386 
L 350.689 163.457148 
L 350.689 163.457148 
" style="fill:none;stroke:#000000;stroke-linecap:square;stroke-width:1.5;"/>
   </g>
   <g id="patch_3">
    <path d="M 71.689 299.589 
L 71.689 27.789 
" style="fill:none;stroke:#000000;stroke-linecap:square;stroke-linejoin:miter;stroke-width:2;"/>
   </g>
   <g id="patch_4">
    <path d="M 71.689 299.589 
L 350.689 299.589 
" style="fill:none;stroke:#000000;stroke-linecap:square;stroke-linejoin:miter;stroke-width:2;"/>
   </g>
   <g id="text_17">
    <!-- Radiologists, Step = 20 -->
    <defs>
     <path d="M 45.40625 46.390625 
L 45.40625 75.984375 
L 54.390625 75.984375 
L 54.390625 0 
L 45.40625 0 
L 45.40625 8.203125 
Q 42.578125 3.328125 38.25 0.953125 
Q 33.9375 -1.421875 27.875 -1.421875 
Q 17.96875 -1.421875 11.734375 6.484375 
Q 5.515625 14.40625 5.515625 27.296875 
Q 5.515625 40.1875 11.734375 48.09375 
Q 17.96875 56 27.875 56 
Q 33.9375 56 38.25 53.625 
Q 42.578125 51.265625 45.40625 46.390625 
z
M 14.796875 27.296875 
Q 14.796875 17.390625 18.875 11.75 
Q 22.953125 6.109375 30.078125 6.109375 
Q 37.203125 6.109375 41.296875 11.75 
Q 45.40625 17.390625 45.40625 27.296875 
Q 45.40625 37.203125 41.296875 42.84375 
Q 37.203125 48.484375 30.078125 48.484375 
Q 22.953125 48.484375 18.875 42.84375 
Q 14.796875 37.203125 14.796875 27.296875 
z
" id="DejaVuSans-100"/>
     <path d="M 45.40625 27.984375 
Q 45.40625 37.75 41.375 43.109375 
Q 37.359375 48.484375 30.078125 48.484375 
Q 22.859375 48.484375 18.828125 43.109375 
Q 14.796875 37.75 14.796875 27.984375 
Q 14.796875 18.265625 18.828125 12.890625 
Q 22.859375 7.515625 30.078125 7.515625 
Q 37.359375 7.515625 41.375 12.890625 
Q 45.40625 18.265625 45.40625 27.984375 
z
M 54.390625 6.78125 
Q 54.390625 -7.171875 48.1875 -13.984375 
Q 42 -20.796875 29.203125 -20.796875 
Q 24.46875 -20.796875 20.265625 -20.09375 
Q 16.0625 -19.390625 12.109375 -17.921875 
L 12.109375 -9.1875 
Q 16.0625 -11.328125 19.921875 -12.34375 
Q 23.78125 -13.375 27.78125 -13.375 
Q 36.625 -13.375 41.015625 -8.765625 
Q 45.40625 -4.15625 45.40625 5.171875 
L 45.40625 9.625 
Q 42.625 4.78125 38.28125 2.390625 
Q 33.9375 0 27.875 0 
Q 17.828125 0 11.671875 7.65625 
Q 5.515625 15.328125 5.515625 27.984375 
Q 5.515625 40.671875 11.671875 48.328125 
Q 17.828125 56 27.875 56 
Q 33.9375 56 38.28125 53.609375 
Q 42.625 51.21875 45.40625 46.390625 
L 45.40625 54.6875 
L 54.390625 54.6875 
z
" id="DejaVuSans-103"/>
     <path d="M 11.71875 12.40625 
L 22.015625 12.40625 
L 22.015625 4 
L 14.015625 -11.625 
L 7.71875 -11.625 
L 11.71875 4 
z
" id="DejaVuSans-44"/>
     <path d="M 53.515625 70.515625 
L 53.515625 60.890625 
Q 47.90625 63.578125 42.921875 64.890625 
Q 37.9375 66.21875 33.296875 66.21875 
Q 25.25 66.21875 20.875 63.09375 
Q 16.5 59.96875 16.5 54.203125 
Q 16.5 49.359375 19.40625 46.890625 
Q 22.3125 44.4375 30.421875 42.921875 
L 36.375 41.703125 
Q 47.40625 39.59375 52.65625 34.296875 
Q 57.90625 29 57.90625 20.125 
Q 57.90625 9.515625 50.796875 4.046875 
Q 43.703125 -1.421875 29.984375 -1.421875 
Q 24.8125 -1.421875 18.96875 -0.25 
Q 13.140625 0.921875 6.890625 3.21875 
L 6.890625 13.375 
Q 12.890625 10.015625 18.65625 8.296875 
Q 24.421875 6.59375 29.984375 6.59375 
Q 38.421875 6.59375 43.015625 9.90625 
Q 47.609375 13.234375 47.609375 19.390625 
Q 47.609375 24.75 44.3125 27.78125 
Q 41.015625 30.8125 33.5 32.328125 
L 27.484375 33.5 
Q 16.453125 35.6875 11.515625 40.375 
Q 6.59375 45.0625 6.59375 53.421875 
Q 6.59375 63.09375 13.40625 68.65625 
Q 20.21875 74.21875 32.171875 74.21875 
Q 37.3125 74.21875 42.625 73.28125 
Q 47.953125 72.359375 53.515625 70.515625 
z
" id="DejaVuSans-83"/>
     <path d="M 10.59375 45.40625 
L 73.1875 45.40625 
L 73.1875 37.203125 
L 10.59375 37.203125 
z
M 10.59375 25.484375 
L 73.1875 25.484375 
L 73.1875 17.1875 
L 10.59375 17.1875 
z
" id="DejaVuSans-61"/>
    </defs>
    <g transform="translate(98.611 21.789)scale(0.192 -0.192)">
     <use xlink:href="#DejaVuSans-82"/>
     <use x="69.451172" xlink:href="#DejaVuSans-97"/>
     <use x="130.730469" xlink:href="#DejaVuSans-100"/>
     <use x="194.207031" xlink:href="#DejaVuSans-105"/>
     <use x="221.990234" xlink:href="#DejaVuSans-111"/>
     <use x="283.171875" xlink:href="#DejaVuSans-108"/>
     <use x="310.955078" xlink:href="#DejaVuSans-111"/>
     <use x="372.136719" xlink:href="#DejaVuSans-103"/>
     <use x="435.613281" xlink:href="#DejaVuSans-105"/>
     <use x="463.396484" xlink:href="#DejaVuSans-115"/>
     <use x="515.496094" xlink:href="#DejaVuSans-116"/>
     <use x="554.705078" xlink:href="#DejaVuSans-115"/>
     <use x="606.804688" xlink:href="#DejaVuSans-44"/>
     <use x="638.591797" xlink:href="#DejaVuSans-32"/>
     <use x="670.378906" xlink:href="#DejaVuSans-83"/>
     <use x="733.855469" xlink:href="#DejaVuSans-116"/>
     <use x="773.064453" xlink:href="#DejaVuSans-101"/>
     <use x="834.587891" xlink:href="#DejaVuSans-112"/>
     <use x="898.064453" xlink:href="#DejaVuSans-32"/>
     <use x="929.851562" xlink:href="#DejaVuSans-61"/>
     <use x="1013.640625" xlink:href="#DejaVuSans-32"/>
     <use x="1045.427734" xlink:href="#DejaVuSans-50"/>
     <use x="1109.050781" xlink:href="#DejaVuSans-48"/>
    </g>
   </g>
  </g>
 </g>
 <defs>
  <clipPath id="p97c85da48c">
   <rect height="271.8" width="279" x="71.689" y="27.789"/>
  </clipPath>
 </defs>
</svg>
