<?xml version="1.0" encoding="utf-8" standalone="no"?>
<!DOCTYPE svg PUBLIC "-//W3C//DTD SVG 1.1//EN"
  "http://www.w3.org/Graphics/SVG/1.1/DTD/svg11.dtd">
<!-- Created with matplotlib (https://matplotlib.org/) -->
<svg height="363.1755pt" version="1.1" viewBox="0 0 368.069 363.1755" width="368.069pt" xmlns="http://www.w3.org/2000/svg" xmlns:xlink="http://www.w3.org/1999/xlink">
 <defs>
  <style type="text/css">
*{stroke-linecap:butt;stroke-linejoin:round;}
  </style>
 </defs>
 <g id="figure_1">
  <g id="patch_1">
   <path d="M 0 363.1755 
L 368.069 363.1755 
L 368.069 0 
L 0 0 
z
" style="fill:#ffffff;"/>
  </g>
  <g id="axes_1">
   <g id="patch_2">
    <path d="M 71.689 299.589 
L 350.689 299.589 
L 350.689 27.789 
L 71.689 27.789 
z
" style="fill:#ffffff;"/>
   </g>
   <g id="PolyCollection_1">
    <defs>
     <path d="M 71.689 -168.758263 
L 71.689 -211.286034 
L 73.599959 -207.375517 
L 75.510918 -210.5766 
L 77.421877 -209.750897 
L 79.332836 -208.194622 
L 81.243795 -194.330556 
L 83.154753 -196.076907 
L 85.065712 -192.671328 
L 86.976671 -183.792626 
L 88.88763 -186.386343 
L 90.798589 -186.288798 
L 92.709548 -179.059334 
L 94.620507 -180.852845 
L 96.531466 -180.796387 
L 98.442425 -184.267946 
L 100.353384 -177.386782 
L 102.264342 -184.838597 
L 104.175301 -184.230339 
L 106.08626 -178.127777 
L 107.997219 -178.195507 
L 109.908178 -171.437165 
L 111.819137 -170.874109 
L 113.730096 -173.324294 
L 115.641055 -178.243458 
L 117.552014 -172.928454 
L 119.462973 -165.488957 
L 121.373932 -173.79968 
L 123.28489 -168.849105 
L 125.195849 -159.802603 
L 127.106808 -169.661991 
L 129.017767 -164.078739 
L 130.928726 -165.882613 
L 132.839685 -161.16587 
L 134.750644 -157.160019 
L 136.661603 -158.237242 
L 138.572562 -148.15335 
L 140.483521 -141.048298 
L 142.394479 -140.493486 
L 144.305438 -149.376008 
L 146.216397 -158.077555 
L 148.127356 -151.344493 
L 150.038315 -153.000684 
L 151.949274 -159.142304 
L 153.860233 -152.976682 
L 155.771192 -158.303578 
L 157.682151 -154.132147 
L 159.59311 -155.406645 
L 161.504068 -150.110468 
L 163.415027 -145.168856 
L 165.325986 -146.633214 
L 167.236945 -142.466454 
L 169.147904 -139.133724 
L 171.058863 -138.903408 
L 172.969822 -134.241792 
L 174.880781 -130.95904 
L 176.79174 -134.002609 
L 178.702699 -140.277593 
L 180.613658 -138.082604 
L 182.524616 -131.945384 
L 184.435575 -139.788243 
L 186.346534 -140.69175 
L 188.257493 -159.513648 
L 190.168452 -153.475141 
L 192.079411 -157.799536 
L 193.99037 -159.186151 
L 195.901329 -168.397157 
L 197.812288 -182.941959 
L 199.723247 -191.891269 
L 201.634205 -192.914061 
L 203.545164 -183.459167 
L 205.456123 -186.211274 
L 207.367082 -187.491223 
L 209.278041 -199.368426 
L 211.189 -202.183546 
L 213.099959 -210.843145 
L 215.010918 -206.164596 
L 216.921877 -219.948869 
L 218.832836 -220.633288 
L 220.743795 -234.723709 
L 222.654753 -244.562901 
L 224.565712 -256.940048 
L 226.476671 -256.901389 
L 228.38763 -272.693505 
L 230.298589 -274.199301 
L 232.209548 -277.15153 
L 234.120507 -286.839266 
L 236.031466 -285.687524 
L 237.942425 -280.246746 
L 239.853384 -278.067184 
L 241.764342 -276.21306 
L 243.675301 -276.195261 
L 245.58626 -283.772737 
L 247.497219 -279.524051 
L 249.408178 -287.264265 
L 251.319137 -279.840199 
L 253.230096 -276.738129 
L 255.141055 -272.194019 
L 257.052014 -272.561447 
L 258.962973 -273.765265 
L 260.873932 -274.942917 
L 262.78489 -286.937178 
L 264.695849 -288.732081 
L 266.606808 -298.116617 
L 268.517767 -291.719327 
L 270.428726 -296.086929 
L 272.339685 -304.642978 
L 274.250644 -299.6421 
L 276.161603 -292.423309 
L 278.072562 -308.365563 
L 279.983521 -302.104366 
L 281.894479 -289.339588 
L 283.805438 -287.474575 
L 285.716397 -301.874812 
L 287.627356 -300.997363 
L 289.538315 -294.215653 
L 291.449274 -298.058143 
L 293.360233 -297.566365 
L 295.271192 -300.382069 
L 297.182151 -299.422625 
L 299.09311 -299.773839 
L 301.004068 -298.872667 
L 302.915027 -309.082118 
L 304.825986 -304.223959 
L 306.736945 -302.0536 
L 308.647904 -300.048711 
L 310.558863 -293.433591 
L 312.469822 -284.189146 
L 314.380781 -290.525701 
L 316.29174 -283.165387 
L 318.202699 -273.822248 
L 320.113658 -257.930505 
L 322.024616 -260.31357 
L 323.935575 -254.245875 
L 325.846534 -249.474372 
L 327.757493 -246.330314 
L 329.668452 -234.51013 
L 331.579411 -234.035882 
L 333.49037 -230.551504 
L 335.401329 -229.871859 
L 337.312288 -220.521317 
L 339.223247 -220.412319 
L 341.134205 -232.019648 
L 343.045164 -229.474011 
L 344.956123 -227.191192 
L 346.867082 -233.081954 
L 348.778041 -229.886857 
L 350.689 -211.286034 
L 350.689 -168.758263 
L 350.689 -168.758263 
L 348.778041 -194.705137 
L 346.867082 -196.0249 
L 344.956123 -192.731283 
L 343.045164 -195.707076 
L 341.134205 -204.460834 
L 339.223247 -194.316379 
L 337.312288 -191.820316 
L 335.401329 -200.436878 
L 333.49037 -196.985777 
L 331.579411 -199.489584 
L 329.668452 -204.026596 
L 327.757493 -213.965913 
L 325.846534 -216.301502 
L 323.935575 -221.998506 
L 322.024616 -226.300619 
L 320.113658 -234.10304 
L 318.202699 -244.345142 
L 316.29174 -249.955525 
L 314.380781 -254.989492 
L 312.469822 -250.619334 
L 310.558863 -254.560801 
L 308.647904 -259.606706 
L 306.736945 -264.838334 
L 304.825986 -267.613166 
L 302.915027 -269.504278 
L 301.004068 -258.261752 
L 299.09311 -259.035296 
L 297.182151 -258.010289 
L 295.271192 -261.071235 
L 293.360233 -252.097983 
L 291.449274 -255.471006 
L 289.538315 -253.66602 
L 287.627356 -258.423045 
L 285.716397 -265.006702 
L 283.805438 -249.262524 
L 281.894479 -253.868835 
L 279.983521 -267.184987 
L 278.072562 -276.298507 
L 276.161603 -263.659376 
L 274.250644 -268.708403 
L 272.339685 -270.473463 
L 270.428726 -261.855278 
L 268.517767 -256.212297 
L 266.606808 -260.677437 
L 264.695849 -251.499248 
L 262.78489 -250.836152 
L 260.873932 -244.870391 
L 258.962973 -241.587011 
L 257.052014 -236.796992 
L 255.141055 -236.323405 
L 253.230096 -236.742991 
L 251.319137 -235.96765 
L 249.408178 -240.186715 
L 247.497219 -231.062064 
L 245.58626 -234.393551 
L 243.675301 -230.160192 
L 241.764342 -227.700914 
L 239.853384 -229.579894 
L 237.942425 -230.074151 
L 236.031466 -231.661657 
L 234.120507 -234.086437 
L 232.209548 -232.440201 
L 230.298589 -228.286121 
L 228.38763 -222.702218 
L 226.476671 -212.564999 
L 224.565712 -211.466996 
L 222.654753 -201.67188 
L 220.743795 -190.867534 
L 218.832836 -180.127205 
L 216.921877 -181.993064 
L 215.010918 -169.14461 
L 213.099959 -168.711695 
L 211.189 -163.087559 
L 209.278041 -166.215381 
L 207.367082 -154.394676 
L 205.456123 -153.927509 
L 203.545164 -152.764242 
L 201.634205 -158.390156 
L 199.723247 -153.838817 
L 197.812288 -141.369246 
L 195.901329 -129.860242 
L 193.99037 -122.157241 
L 192.079411 -112.964689 
L 190.168452 -102.530816 
L 188.257493 -108.252997 
L 186.346534 -87.879839 
L 184.435575 -94.637859 
L 182.524616 -90.150273 
L 180.613658 -94.969281 
L 178.702699 -102.864516 
L 176.79174 -98.879094 
L 174.880781 -93.597431 
L 172.969822 -95.384106 
L 171.058863 -97.002658 
L 169.147904 -98.055282 
L 167.236945 -103.349547 
L 165.325986 -108.588464 
L 163.415027 -106.729767 
L 161.504068 -109.464174 
L 159.59311 -119.139303 
L 157.682151 -120.387695 
L 155.771192 -126.780355 
L 153.860233 -119.248124 
L 151.949274 -126.810188 
L 150.038315 -122.150362 
L 148.127356 -117.902763 
L 146.216397 -119.165962 
L 144.305438 -112.793025 
L 142.394479 -106.132855 
L 140.483521 -105.23487 
L 138.572562 -106.946534 
L 136.661603 -116.635529 
L 134.750644 -115.884445 
L 132.839685 -116.042308 
L 130.928726 -120.241084 
L 129.017767 -116.939379 
L 127.106808 -121.519957 
L 125.195849 -112.528744 
L 123.28489 -121.344097 
L 121.373932 -123.459937 
L 119.462973 -117.291661 
L 117.552014 -124.583238 
L 115.641055 -123.712677 
L 113.730096 -116.128717 
L 111.819137 -114.55728 
L 109.908178 -111.407794 
L 107.997219 -120.6905 
L 106.08626 -121.875378 
L 104.175301 -127.803293 
L 102.264342 -128.107319 
L 100.353384 -119.936341 
L 98.442425 -127.971643 
L 96.531466 -128.455834 
L 94.620507 -125.65066 
L 92.709548 -121.369936 
L 90.798589 -133.032699 
L 88.88763 -138.520657 
L 86.976671 -142.463888 
L 85.065712 -151.254097 
L 83.154753 -154.469153 
L 81.243795 -152.435441 
L 79.332836 -163.825201 
L 77.421877 -165.913043 
L 75.510918 -166.1031 
L 73.599959 -163.585619 
L 71.689 -168.758263 
z
" id="mc26f2c1895" style="stroke:#1e90ff;stroke-opacity:0.2;"/>
    </defs>
    <g clip-path="url(#p6e5628b3ad)">
     <use style="fill:#1e90ff;fill-opacity:0.2;stroke:#1e90ff;stroke-opacity:0.2;" x="0" xlink:href="#mc26f2c1895" y="363.1755"/>
    </g>
   </g>
   <g id="PolyCollection_2">
    <path clip-path="url(#p6e5628b3ad)" d="M 69.778041 163.833392 
L 69.778041 163.764918 
L 71.689 163.905192 
L 73.599959 163.927274 
L 75.510918 164.084141 
L 77.421877 164.233792 
L 79.332836 164.334044 
L 81.243795 164.547281 
L 83.154753 164.523729 
L 85.065712 164.732788 
L 86.976671 164.868759 
L 88.88763 164.695094 
L 90.798589 164.91441 
L 92.709548 165.177912 
L 94.620507 164.521633 
L 96.531466 165.331238 
L 98.442425 165.647236 
L 100.353384 166.982527 
L 102.264342 166.017105 
L 104.175301 166.544369 
L 106.08626 167.07375 
L 107.997219 167.821014 
L 109.908178 167.84095 
L 111.819137 169.249111 
L 113.730096 168.036284 
L 115.641055 169.855528 
L 117.552014 167.519322 
L 119.462973 171.614608 
L 121.373932 169.911159 
L 123.28489 171.594435 
L 125.195849 170.553807 
L 127.106808 172.159813 
L 129.017767 176.534018 
L 130.928726 177.672567 
L 132.839685 175.911933 
L 134.750644 176.095203 
L 136.661603 177.347602 
L 138.572562 180.381002 
L 140.483521 183.314647 
L 142.394479 188.884651 
L 144.305438 189.212298 
L 146.216397 194.517543 
L 148.127356 189.18326 
L 150.038315 199.456876 
L 151.949274 198.180844 
L 153.860233 203.834338 
L 155.771192 212.211899 
L 157.682151 212.825132 
L 159.59311 209.604516 
L 161.504068 218.765276 
L 163.415027 219.681877 
L 165.325986 226.690323 
L 167.236945 226.071191 
L 169.147904 217.538521 
L 171.058863 236.937877 
L 172.969822 238.6376 
L 174.880781 242.148953 
L 176.79174 246.089898 
L 178.702699 256.082195 
L 180.613658 242.966588 
L 182.524616 232.304278 
L 184.435575 244.208795 
L 186.346534 229.349936 
L 188.257493 242.054235 
L 190.168452 253.93786 
L 192.079411 233.438853 
L 193.99037 227.262535 
L 195.901329 239.899703 
L 197.812288 219.372324 
L 199.723247 231.963056 
L 201.634205 205.898344 
L 203.545164 212.263592 
L 205.456123 190.75518 
L 207.367082 181.952576 
L 209.278041 174.517481 
L 209.278041 181.56542 
L 209.278041 181.56542 
L 207.367082 193.956764 
L 205.456123 208.453951 
L 203.545164 233.207798 
L 201.634205 230.729567 
L 199.723247 266.529582 
L 197.812288 259.807105 
L 195.901329 269.61368 
L 193.99037 275.091908 
L 192.079411 280.797577 
L 190.168452 300.224601 
L 188.257493 287.352339 
L 186.346534 278.383963 
L 184.435575 300.355181 
L 182.524616 306.034778 
L 180.613658 290.975761 
L 178.702699 298.088063 
L 176.79174 294.052839 
L 174.880781 281.196198 
L 172.969822 281.546539 
L 171.058863 288.525917 
L 169.147904 261.284086 
L 167.236945 257.203694 
L 165.325986 259.844855 
L 163.415027 243.796995 
L 161.504068 243.41046 
L 159.59311 236.2095 
L 157.682151 235.611929 
L 155.771192 233.436548 
L 153.860233 222.61067 
L 151.949274 216.715124 
L 150.038315 219.35808 
L 148.127356 205.959826 
L 146.216397 213.049532 
L 144.305438 202.148197 
L 142.394479 200.75767 
L 140.483521 198.428775 
L 138.572562 192.115417 
L 136.661603 189.656459 
L 134.750644 185.0611 
L 132.839685 184.867669 
L 130.928726 184.991724 
L 129.017767 183.668023 
L 127.106808 178.769061 
L 125.195849 175.423631 
L 123.28489 177.558917 
L 121.373932 174.694968 
L 119.462973 176.09673 
L 117.552014 171.118162 
L 115.641055 173.339413 
L 113.730096 170.970169 
L 111.819137 172.485774 
L 109.908178 170.55551 
L 107.997219 170.573057 
L 106.08626 169.513924 
L 104.175301 168.556383 
L 102.264342 167.906484 
L 100.353384 168.600551 
L 98.442425 167.086743 
L 96.531466 166.844031 
L 94.620507 165.484877 
L 92.709548 166.468373 
L 90.798589 165.821961 
L 88.88763 165.578573 
L 86.976671 165.592092 
L 85.065712 165.405834 
L 83.154753 165.265311 
L 81.243795 165.022109 
L 79.332836 164.728736 
L 77.421877 164.579828 
L 75.510918 164.359335 
L 73.599959 164.132163 
L 71.689 164.037679 
L 69.778041 163.833392 
z
" style="fill:#ffff00;fill-opacity:0.2;stroke:#ffff00;stroke-opacity:0.2;"/>
    <path clip-path="url(#p6e5628b3ad)" d="M 213.099959 152.618095 
L 213.099959 146.134522 
L 215.010918 130.662857 
L 216.921877 109.030438 
L 218.832836 90.842937 
L 220.743795 77.498881 
L 222.654753 68.323838 
L 224.565712 52.303773 
L 226.476671 54.185055 
L 228.38763 59.729934 
L 230.298589 27.132191 
L 232.209548 27.394489 
L 234.120507 41.554457 
L 236.031466 32.646037 
L 237.942425 26.061916 
L 239.853384 19.991886 
L 241.764342 26.807909 
L 243.675301 46.905144 
L 245.58626 20.488519 
L 247.497219 44.93596 
L 249.408178 60.176258 
L 251.319137 61.286679 
L 253.230096 67.698136 
L 255.141055 72.961312 
L 257.052014 69.211081 
L 258.962973 74.83757 
L 260.873932 86.088317 
L 262.78489 90.402665 
L 264.695849 95.627453 
L 266.606808 97.731144 
L 268.517767 96.065932 
L 270.428726 88.193284 
L 272.339685 112.893459 
L 274.250644 115.447901 
L 276.161603 114.860377 
L 278.072562 121.846341 
L 279.983521 124.264348 
L 281.894479 129.136052 
L 283.805438 131.524352 
L 285.716397 134.728883 
L 287.627356 136.620753 
L 289.538315 139.8853 
L 291.449274 144.366528 
L 293.360233 144.357995 
L 295.271192 145.957866 
L 297.182151 146.036988 
L 299.09311 150.989464 
L 301.004068 150.922962 
L 302.915027 151.426672 
L 304.825986 151.281747 
L 306.736945 154.514139 
L 308.647904 155.593959 
L 310.558863 156.652504 
L 312.469822 156.582629 
L 314.380781 157.734296 
L 316.29174 158.225397 
L 318.202699 159.127506 
L 320.113658 159.278884 
L 322.024616 159.437986 
L 323.935575 160.301811 
L 325.846534 159.888515 
L 327.757493 161.217057 
L 329.668452 161.05064 
L 331.579411 161.826301 
L 333.49037 161.541191 
L 335.401329 161.839321 
L 337.312288 162.025068 
L 339.223247 162.406045 
L 341.134205 162.754931 
L 343.045164 162.889117 
L 344.956123 163.007413 
L 346.867082 162.923114 
L 348.778041 163.193952 
L 350.689 163.358145 
L 350.689 163.48313 
L 350.689 163.48313 
L 348.778041 163.43058 
L 346.867082 163.247292 
L 344.956123 163.366332 
L 343.045164 163.256665 
L 341.134205 163.182106 
L 339.223247 162.926434 
L 337.312288 162.746952 
L 335.401329 162.588701 
L 333.49037 162.428129 
L 331.579411 162.777374 
L 329.668452 162.210055 
L 327.757493 162.309078 
L 325.846534 161.276813 
L 323.935575 161.669661 
L 322.024616 161.01208 
L 320.113658 160.980702 
L 318.202699 161.040557 
L 316.29174 160.939603 
L 314.380781 160.330401 
L 312.469822 159.202227 
L 310.558863 159.576164 
L 308.647904 158.913625 
L 306.736945 158.272055 
L 304.825986 155.71505 
L 302.915027 156.041323 
L 301.004068 155.884846 
L 299.09311 156.104429 
L 297.182151 152.269333 
L 295.271192 152.662149 
L 293.360233 151.052598 
L 291.449274 151.942088 
L 289.538315 148.927624 
L 287.627356 145.888082 
L 285.716397 144.846563 
L 283.805438 144.819552 
L 281.894479 142.541913 
L 279.983521 137.016659 
L 278.072562 135.484768 
L 276.161603 133.576079 
L 274.250644 131.227585 
L 272.339685 130.444851 
L 270.428726 113.252806 
L 268.517767 123.87969 
L 266.606808 120.595359 
L 264.695849 122.903664 
L 262.78489 114.761914 
L 260.873932 114.427199 
L 258.962973 104.813465 
L 257.052014 99.081397 
L 255.141055 105.723672 
L 253.230096 102.617112 
L 251.319137 98.38812 
L 249.408178 97.963758 
L 247.497219 82.184084 
L 245.58626 58.960405 
L 243.675301 89.858206 
L 241.764342 71.070661 
L 239.853384 57.896258 
L 237.942425 77.265502 
L 236.031466 80.429893 
L 234.120507 93.03778 
L 232.209548 73.858183 
L 230.298589 75.898024 
L 228.38763 97.235196 
L 226.476671 96.321367 
L 224.565712 97.309479 
L 222.654753 106.287653 
L 220.743795 112.726293 
L 218.832836 122.836548 
L 216.921877 126.506725 
L 215.010918 142.831308 
L 213.099959 152.618095 
z
" style="fill:#ffff00;fill-opacity:0.2;stroke:#ffff00;stroke-opacity:0.2;"/>
   </g>
   <g id="matplotlib.axis_1">
    <g id="xtick_1">
     <g id="line2d_1">
      <defs>
       <path d="M 0 0 
L 0 -6 
" id="ma2095bf2e7" style="stroke:#000000;stroke-width:2;"/>
      </defs>
      <g>
       <use style="stroke:#000000;stroke-width:2;" x="71.689" xlink:href="#ma2095bf2e7" y="299.589"/>
      </g>
     </g>
     <g id="text_1">
      <!-- -73 -->
      <defs>
       <path d="M 4.890625 31.390625 
L 31.203125 31.390625 
L 31.203125 23.390625 
L 4.890625 23.390625 
z
" id="DejaVuSans-45"/>
       <path d="M 8.203125 72.90625 
L 55.078125 72.90625 
L 55.078125 68.703125 
L 28.609375 0 
L 18.3125 0 
L 43.21875 64.59375 
L 8.203125 64.59375 
z
" id="DejaVuSans-55"/>
       <path d="M 40.578125 39.3125 
Q 47.65625 37.796875 51.625 33 
Q 55.609375 28.21875 55.609375 21.1875 
Q 55.609375 10.40625 48.1875 4.484375 
Q 40.765625 -1.421875 27.09375 -1.421875 
Q 22.515625 -1.421875 17.65625 -0.515625 
Q 12.796875 0.390625 7.625 2.203125 
L 7.625 11.71875 
Q 11.71875 9.328125 16.59375 8.109375 
Q 21.484375 6.890625 26.8125 6.890625 
Q 36.078125 6.890625 40.9375 10.546875 
Q 45.796875 14.203125 45.796875 21.1875 
Q 45.796875 27.640625 41.28125 31.265625 
Q 36.765625 34.90625 28.71875 34.90625 
L 20.21875 34.90625 
L 20.21875 43.015625 
L 29.109375 43.015625 
Q 36.375 43.015625 40.234375 45.921875 
Q 44.09375 48.828125 44.09375 54.296875 
Q 44.09375 59.90625 40.109375 62.90625 
Q 36.140625 65.921875 28.71875 65.921875 
Q 24.65625 65.921875 20.015625 65.03125 
Q 15.375 64.15625 9.8125 62.3125 
L 9.8125 71.09375 
Q 15.4375 72.65625 20.34375 73.4375 
Q 25.25 74.21875 29.59375 74.21875 
Q 40.828125 74.21875 47.359375 69.109375 
Q 53.90625 64.015625 53.90625 55.328125 
Q 53.90625 49.265625 50.4375 45.09375 
Q 46.96875 40.921875 40.578125 39.3125 
z
" id="DejaVuSans-51"/>
      </defs>
      <g transform="translate(58.62275 315.2465)scale(0.16 -0.16)">
       <use xlink:href="#DejaVuSans-45"/>
       <use x="36.083984" xlink:href="#DejaVuSans-55"/>
       <use x="99.707031" xlink:href="#DejaVuSans-51"/>
      </g>
     </g>
    </g>
    <g id="xtick_2">
     <g id="line2d_2">
      <g>
       <use style="stroke:#000000;stroke-width:2;" x="115.641055" xlink:href="#ma2095bf2e7" y="299.589"/>
      </g>
     </g>
     <g id="text_2">
      <!-- -50 -->
      <defs>
       <path d="M 10.796875 72.90625 
L 49.515625 72.90625 
L 49.515625 64.59375 
L 19.828125 64.59375 
L 19.828125 46.734375 
Q 21.96875 47.46875 24.109375 47.828125 
Q 26.265625 48.1875 28.421875 48.1875 
Q 40.625 48.1875 47.75 41.5 
Q 54.890625 34.8125 54.890625 23.390625 
Q 54.890625 11.625 47.5625 5.09375 
Q 40.234375 -1.421875 26.90625 -1.421875 
Q 22.3125 -1.421875 17.546875 -0.640625 
Q 12.796875 0.140625 7.71875 1.703125 
L 7.71875 11.625 
Q 12.109375 9.234375 16.796875 8.0625 
Q 21.484375 6.890625 26.703125 6.890625 
Q 35.15625 6.890625 40.078125 11.328125 
Q 45.015625 15.765625 45.015625 23.390625 
Q 45.015625 31 40.078125 35.4375 
Q 35.15625 39.890625 26.703125 39.890625 
Q 22.75 39.890625 18.8125 39.015625 
Q 14.890625 38.140625 10.796875 36.28125 
z
" id="DejaVuSans-53"/>
       <path d="M 31.78125 66.40625 
Q 24.171875 66.40625 20.328125 58.90625 
Q 16.5 51.421875 16.5 36.375 
Q 16.5 21.390625 20.328125 13.890625 
Q 24.171875 6.390625 31.78125 6.390625 
Q 39.453125 6.390625 43.28125 13.890625 
Q 47.125 21.390625 47.125 36.375 
Q 47.125 51.421875 43.28125 58.90625 
Q 39.453125 66.40625 31.78125 66.40625 
z
M 31.78125 74.21875 
Q 44.046875 74.21875 50.515625 64.515625 
Q 56.984375 54.828125 56.984375 36.375 
Q 56.984375 17.96875 50.515625 8.265625 
Q 44.046875 -1.421875 31.78125 -1.421875 
Q 19.53125 -1.421875 13.0625 8.265625 
Q 6.59375 17.96875 6.59375 36.375 
Q 6.59375 54.828125 13.0625 64.515625 
Q 19.53125 74.21875 31.78125 74.21875 
z
" id="DejaVuSans-48"/>
      </defs>
      <g transform="translate(102.574805 315.2465)scale(0.16 -0.16)">
       <use xlink:href="#DejaVuSans-45"/>
       <use x="36.083984" xlink:href="#DejaVuSans-53"/>
       <use x="99.707031" xlink:href="#DejaVuSans-48"/>
      </g>
     </g>
    </g>
    <g id="xtick_3">
     <g id="line2d_3">
      <g>
       <use style="stroke:#000000;stroke-width:2;" x="163.415027" xlink:href="#ma2095bf2e7" y="299.589"/>
      </g>
     </g>
     <g id="text_3">
      <!-- -25 -->
      <defs>
       <path d="M 19.1875 8.296875 
L 53.609375 8.296875 
L 53.609375 0 
L 7.328125 0 
L 7.328125 8.296875 
Q 12.9375 14.109375 22.625 23.890625 
Q 32.328125 33.6875 34.8125 36.53125 
Q 39.546875 41.84375 41.421875 45.53125 
Q 43.3125 49.21875 43.3125 52.78125 
Q 43.3125 58.59375 39.234375 62.25 
Q 35.15625 65.921875 28.609375 65.921875 
Q 23.96875 65.921875 18.8125 64.3125 
Q 13.671875 62.703125 7.8125 59.421875 
L 7.8125 69.390625 
Q 13.765625 71.78125 18.9375 73 
Q 24.125 74.21875 28.421875 74.21875 
Q 39.75 74.21875 46.484375 68.546875 
Q 53.21875 62.890625 53.21875 53.421875 
Q 53.21875 48.921875 51.53125 44.890625 
Q 49.859375 40.875 45.40625 35.40625 
Q 44.1875 33.984375 37.640625 27.21875 
Q 31.109375 20.453125 19.1875 8.296875 
z
" id="DejaVuSans-50"/>
      </defs>
      <g transform="translate(150.348777 315.2465)scale(0.16 -0.16)">
       <use xlink:href="#DejaVuSans-45"/>
       <use x="36.083984" xlink:href="#DejaVuSans-50"/>
       <use x="99.707031" xlink:href="#DejaVuSans-53"/>
      </g>
     </g>
    </g>
    <g id="xtick_4">
     <g id="line2d_4">
      <g>
       <use style="stroke:#000000;stroke-width:2;" x="211.189" xlink:href="#ma2095bf2e7" y="299.589"/>
      </g>
     </g>
     <g id="text_4">
      <!-- 0 -->
      <g transform="translate(206.099 315.2465)scale(0.16 -0.16)">
       <use xlink:href="#DejaVuSans-48"/>
      </g>
     </g>
    </g>
    <g id="xtick_5">
     <g id="line2d_5">
      <g>
       <use style="stroke:#000000;stroke-width:2;" x="258.962973" xlink:href="#ma2095bf2e7" y="299.589"/>
      </g>
     </g>
     <g id="text_5">
      <!-- 25 -->
      <g transform="translate(248.782973 315.2465)scale(0.16 -0.16)">
       <use xlink:href="#DejaVuSans-50"/>
       <use x="63.623047" xlink:href="#DejaVuSans-53"/>
      </g>
     </g>
    </g>
    <g id="xtick_6">
     <g id="line2d_6">
      <g>
       <use style="stroke:#000000;stroke-width:2;" x="306.736945" xlink:href="#ma2095bf2e7" y="299.589"/>
      </g>
     </g>
     <g id="text_6">
      <!-- 50 -->
      <g transform="translate(296.556945 315.2465)scale(0.16 -0.16)">
       <use xlink:href="#DejaVuSans-53"/>
       <use x="63.623047" xlink:href="#DejaVuSans-48"/>
      </g>
     </g>
    </g>
    <g id="xtick_7">
     <g id="line2d_7">
      <g>
       <use style="stroke:#000000;stroke-width:2;" x="350.689" xlink:href="#ma2095bf2e7" y="299.589"/>
      </g>
     </g>
     <g id="text_7">
      <!-- 73 -->
      <g transform="translate(340.509 315.2465)scale(0.16 -0.16)">
       <use xlink:href="#DejaVuSans-55"/>
       <use x="63.623047" xlink:href="#DejaVuSans-51"/>
      </g>
     </g>
    </g>
    <g id="text_8">
     <!-- Previous Tumor - Current Tumor -->
     <defs>
      <path d="M 19.671875 64.796875 
L 19.671875 37.40625 
L 32.078125 37.40625 
Q 38.96875 37.40625 42.71875 40.96875 
Q 46.484375 44.53125 46.484375 51.125 
Q 46.484375 57.671875 42.71875 61.234375 
Q 38.96875 64.796875 32.078125 64.796875 
z
M 9.8125 72.90625 
L 32.078125 72.90625 
Q 44.34375 72.90625 50.609375 67.359375 
Q 56.890625 61.8125 56.890625 51.125 
Q 56.890625 40.328125 50.609375 34.8125 
Q 44.34375 29.296875 32.078125 29.296875 
L 19.671875 29.296875 
L 19.671875 0 
L 9.8125 0 
z
" id="DejaVuSans-80"/>
      <path d="M 41.109375 46.296875 
Q 39.59375 47.171875 37.8125 47.578125 
Q 36.03125 48 33.890625 48 
Q 26.265625 48 22.1875 43.046875 
Q 18.109375 38.09375 18.109375 28.8125 
L 18.109375 0 
L 9.078125 0 
L 9.078125 54.6875 
L 18.109375 54.6875 
L 18.109375 46.1875 
Q 20.953125 51.171875 25.484375 53.578125 
Q 30.03125 56 36.53125 56 
Q 37.453125 56 38.578125 55.875 
Q 39.703125 55.765625 41.0625 55.515625 
z
" id="DejaVuSans-114"/>
      <path d="M 56.203125 29.59375 
L 56.203125 25.203125 
L 14.890625 25.203125 
Q 15.484375 15.921875 20.484375 11.0625 
Q 25.484375 6.203125 34.421875 6.203125 
Q 39.59375 6.203125 44.453125 7.46875 
Q 49.3125 8.734375 54.109375 11.28125 
L 54.109375 2.78125 
Q 49.265625 0.734375 44.1875 -0.34375 
Q 39.109375 -1.421875 33.890625 -1.421875 
Q 20.796875 -1.421875 13.15625 6.1875 
Q 5.515625 13.8125 5.515625 26.8125 
Q 5.515625 40.234375 12.765625 48.109375 
Q 20.015625 56 32.328125 56 
Q 43.359375 56 49.78125 48.890625 
Q 56.203125 41.796875 56.203125 29.59375 
z
M 47.21875 32.234375 
Q 47.125 39.59375 43.09375 43.984375 
Q 39.0625 48.390625 32.421875 48.390625 
Q 24.90625 48.390625 20.390625 44.140625 
Q 15.875 39.890625 15.1875 32.171875 
z
" id="DejaVuSans-101"/>
      <path d="M 2.984375 54.6875 
L 12.5 54.6875 
L 29.59375 8.796875 
L 46.6875 54.6875 
L 56.203125 54.6875 
L 35.6875 0 
L 23.484375 0 
z
" id="DejaVuSans-118"/>
      <path d="M 9.421875 54.6875 
L 18.40625 54.6875 
L 18.40625 0 
L 9.421875 0 
z
M 9.421875 75.984375 
L 18.40625 75.984375 
L 18.40625 64.59375 
L 9.421875 64.59375 
z
" id="DejaVuSans-105"/>
      <path d="M 30.609375 48.390625 
Q 23.390625 48.390625 19.1875 42.75 
Q 14.984375 37.109375 14.984375 27.296875 
Q 14.984375 17.484375 19.15625 11.84375 
Q 23.34375 6.203125 30.609375 6.203125 
Q 37.796875 6.203125 41.984375 11.859375 
Q 46.1875 17.53125 46.1875 27.296875 
Q 46.1875 37.015625 41.984375 42.703125 
Q 37.796875 48.390625 30.609375 48.390625 
z
M 30.609375 56 
Q 42.328125 56 49.015625 48.375 
Q 55.71875 40.765625 55.71875 27.296875 
Q 55.71875 13.875 49.015625 6.21875 
Q 42.328125 -1.421875 30.609375 -1.421875 
Q 18.84375 -1.421875 12.171875 6.21875 
Q 5.515625 13.875 5.515625 27.296875 
Q 5.515625 40.765625 12.171875 48.375 
Q 18.84375 56 30.609375 56 
z
" id="DejaVuSans-111"/>
      <path d="M 8.5 21.578125 
L 8.5 54.6875 
L 17.484375 54.6875 
L 17.484375 21.921875 
Q 17.484375 14.15625 20.5 10.265625 
Q 23.53125 6.390625 29.59375 6.390625 
Q 36.859375 6.390625 41.078125 11.03125 
Q 45.3125 15.671875 45.3125 23.6875 
L 45.3125 54.6875 
L 54.296875 54.6875 
L 54.296875 0 
L 45.3125 0 
L 45.3125 8.40625 
Q 42.046875 3.421875 37.71875 1 
Q 33.40625 -1.421875 27.6875 -1.421875 
Q 18.265625 -1.421875 13.375 4.4375 
Q 8.5 10.296875 8.5 21.578125 
z
M 31.109375 56 
z
" id="DejaVuSans-117"/>
      <path d="M 44.28125 53.078125 
L 44.28125 44.578125 
Q 40.484375 46.53125 36.375 47.5 
Q 32.28125 48.484375 27.875 48.484375 
Q 21.1875 48.484375 17.84375 46.4375 
Q 14.5 44.390625 14.5 40.28125 
Q 14.5 37.15625 16.890625 35.375 
Q 19.28125 33.59375 26.515625 31.984375 
L 29.59375 31.296875 
Q 39.15625 29.25 43.1875 25.515625 
Q 47.21875 21.78125 47.21875 15.09375 
Q 47.21875 7.46875 41.1875 3.015625 
Q 35.15625 -1.421875 24.609375 -1.421875 
Q 20.21875 -1.421875 15.453125 -0.5625 
Q 10.6875 0.296875 5.421875 2 
L 5.421875 11.28125 
Q 10.40625 8.6875 15.234375 7.390625 
Q 20.0625 6.109375 24.8125 6.109375 
Q 31.15625 6.109375 34.5625 8.28125 
Q 37.984375 10.453125 37.984375 14.40625 
Q 37.984375 18.0625 35.515625 20.015625 
Q 33.0625 21.96875 24.703125 23.78125 
L 21.578125 24.515625 
Q 13.234375 26.265625 9.515625 29.90625 
Q 5.8125 33.546875 5.8125 39.890625 
Q 5.8125 47.609375 11.28125 51.796875 
Q 16.75 56 26.8125 56 
Q 31.78125 56 36.171875 55.265625 
Q 40.578125 54.546875 44.28125 53.078125 
z
" id="DejaVuSans-115"/>
      <path id="DejaVuSans-32"/>
      <path d="M -0.296875 72.90625 
L 61.375 72.90625 
L 61.375 64.59375 
L 35.5 64.59375 
L 35.5 0 
L 25.59375 0 
L 25.59375 64.59375 
L -0.296875 64.59375 
z
" id="DejaVuSans-84"/>
      <path d="M 52 44.1875 
Q 55.375 50.25 60.0625 53.125 
Q 64.75 56 71.09375 56 
Q 79.640625 56 84.28125 50.015625 
Q 88.921875 44.046875 88.921875 33.015625 
L 88.921875 0 
L 79.890625 0 
L 79.890625 32.71875 
Q 79.890625 40.578125 77.09375 44.375 
Q 74.3125 48.1875 68.609375 48.1875 
Q 61.625 48.1875 57.5625 43.546875 
Q 53.515625 38.921875 53.515625 30.90625 
L 53.515625 0 
L 44.484375 0 
L 44.484375 32.71875 
Q 44.484375 40.625 41.703125 44.40625 
Q 38.921875 48.1875 33.109375 48.1875 
Q 26.21875 48.1875 22.15625 43.53125 
Q 18.109375 38.875 18.109375 30.90625 
L 18.109375 0 
L 9.078125 0 
L 9.078125 54.6875 
L 18.109375 54.6875 
L 18.109375 46.1875 
Q 21.1875 51.21875 25.484375 53.609375 
Q 29.78125 56 35.6875 56 
Q 41.65625 56 45.828125 52.96875 
Q 50 49.953125 52 44.1875 
z
" id="DejaVuSans-109"/>
      <path d="M 64.40625 67.28125 
L 64.40625 56.890625 
Q 59.421875 61.53125 53.78125 63.8125 
Q 48.140625 66.109375 41.796875 66.109375 
Q 29.296875 66.109375 22.65625 58.46875 
Q 16.015625 50.828125 16.015625 36.375 
Q 16.015625 21.96875 22.65625 14.328125 
Q 29.296875 6.6875 41.796875 6.6875 
Q 48.140625 6.6875 53.78125 8.984375 
Q 59.421875 11.28125 64.40625 15.921875 
L 64.40625 5.609375 
Q 59.234375 2.09375 53.4375 0.328125 
Q 47.65625 -1.421875 41.21875 -1.421875 
Q 24.65625 -1.421875 15.125 8.703125 
Q 5.609375 18.84375 5.609375 36.375 
Q 5.609375 53.953125 15.125 64.078125 
Q 24.65625 74.21875 41.21875 74.21875 
Q 47.75 74.21875 53.53125 72.484375 
Q 59.328125 70.75 64.40625 67.28125 
z
" id="DejaVuSans-67"/>
      <path d="M 54.890625 33.015625 
L 54.890625 0 
L 45.90625 0 
L 45.90625 32.71875 
Q 45.90625 40.484375 42.875 44.328125 
Q 39.84375 48.1875 33.796875 48.1875 
Q 26.515625 48.1875 22.3125 43.546875 
Q 18.109375 38.921875 18.109375 30.90625 
L 18.109375 0 
L 9.078125 0 
L 9.078125 54.6875 
L 18.109375 54.6875 
L 18.109375 46.1875 
Q 21.34375 51.125 25.703125 53.5625 
Q 30.078125 56 35.796875 56 
Q 45.21875 56 50.046875 50.171875 
Q 54.890625 44.34375 54.890625 33.015625 
z
" id="DejaVuSans-110"/>
      <path d="M 18.3125 70.21875 
L 18.3125 54.6875 
L 36.8125 54.6875 
L 36.8125 47.703125 
L 18.3125 47.703125 
L 18.3125 18.015625 
Q 18.3125 11.328125 20.140625 9.421875 
Q 21.96875 7.515625 27.59375 7.515625 
L 36.8125 7.515625 
L 36.8125 0 
L 27.59375 0 
Q 17.1875 0 13.234375 3.875 
Q 9.28125 7.765625 9.28125 18.015625 
L 9.28125 47.703125 
L 2.6875 47.703125 
L 2.6875 54.6875 
L 9.28125 54.6875 
L 9.28125 70.21875 
z
" id="DejaVuSans-116"/>
     </defs>
     <g transform="translate(81.82525 334.7315)scale(0.16 -0.16)">
      <use xlink:href="#DejaVuSans-80"/>
      <use x="60.287109" xlink:href="#DejaVuSans-114"/>
      <use x="101.369141" xlink:href="#DejaVuSans-101"/>
      <use x="162.892578" xlink:href="#DejaVuSans-118"/>
      <use x="222.072266" xlink:href="#DejaVuSans-105"/>
      <use x="249.855469" xlink:href="#DejaVuSans-111"/>
      <use x="311.037109" xlink:href="#DejaVuSans-117"/>
      <use x="374.416016" xlink:href="#DejaVuSans-115"/>
      <use x="426.515625" xlink:href="#DejaVuSans-32"/>
      <use x="458.302734" xlink:href="#DejaVuSans-84"/>
      <use x="519.152344" xlink:href="#DejaVuSans-117"/>
      <use x="582.53125" xlink:href="#DejaVuSans-109"/>
      <use x="679.943359" xlink:href="#DejaVuSans-111"/>
      <use x="741.125" xlink:href="#DejaVuSans-114"/>
      <use x="782.238281" xlink:href="#DejaVuSans-32"/>
      <use x="814.025391" xlink:href="#DejaVuSans-45"/>
      <use x="850.109375" xlink:href="#DejaVuSans-32"/>
      <use x="881.896484" xlink:href="#DejaVuSans-67"/>
      <use x="951.720703" xlink:href="#DejaVuSans-117"/>
      <use x="1015.099609" xlink:href="#DejaVuSans-114"/>
      <use x="1056.197266" xlink:href="#DejaVuSans-114"/>
      <use x="1097.279297" xlink:href="#DejaVuSans-101"/>
      <use x="1158.802734" xlink:href="#DejaVuSans-110"/>
      <use x="1222.181641" xlink:href="#DejaVuSans-116"/>
      <use x="1261.390625" xlink:href="#DejaVuSans-32"/>
      <use x="1293.177734" xlink:href="#DejaVuSans-84"/>
      <use x="1354.027344" xlink:href="#DejaVuSans-117"/>
      <use x="1417.40625" xlink:href="#DejaVuSans-109"/>
      <use x="1514.818359" xlink:href="#DejaVuSans-111"/>
      <use x="1576" xlink:href="#DejaVuSans-114"/>
     </g>
     <!--  (morph units) -->
     <defs>
      <path d="M 31 75.875 
Q 24.46875 64.65625 21.28125 53.65625 
Q 18.109375 42.671875 18.109375 31.390625 
Q 18.109375 20.125 21.3125 9.0625 
Q 24.515625 -2 31 -13.1875 
L 23.1875 -13.1875 
Q 15.875 -1.703125 12.234375 9.375 
Q 8.59375 20.453125 8.59375 31.390625 
Q 8.59375 42.28125 12.203125 53.3125 
Q 15.828125 64.359375 23.1875 75.875 
z
" id="DejaVuSans-40"/>
      <path d="M 18.109375 8.203125 
L 18.109375 -20.796875 
L 9.078125 -20.796875 
L 9.078125 54.6875 
L 18.109375 54.6875 
L 18.109375 46.390625 
Q 20.953125 51.265625 25.265625 53.625 
Q 29.59375 56 35.59375 56 
Q 45.5625 56 51.78125 48.09375 
Q 58.015625 40.1875 58.015625 27.296875 
Q 58.015625 14.40625 51.78125 6.484375 
Q 45.5625 -1.421875 35.59375 -1.421875 
Q 29.59375 -1.421875 25.265625 0.953125 
Q 20.953125 3.328125 18.109375 8.203125 
z
M 48.6875 27.296875 
Q 48.6875 37.203125 44.609375 42.84375 
Q 40.53125 48.484375 33.40625 48.484375 
Q 26.265625 48.484375 22.1875 42.84375 
Q 18.109375 37.203125 18.109375 27.296875 
Q 18.109375 17.390625 22.1875 11.75 
Q 26.265625 6.109375 33.40625 6.109375 
Q 40.53125 6.109375 44.609375 11.75 
Q 48.6875 17.390625 48.6875 27.296875 
z
" id="DejaVuSans-112"/>
      <path d="M 54.890625 33.015625 
L 54.890625 0 
L 45.90625 0 
L 45.90625 32.71875 
Q 45.90625 40.484375 42.875 44.328125 
Q 39.84375 48.1875 33.796875 48.1875 
Q 26.515625 48.1875 22.3125 43.546875 
Q 18.109375 38.921875 18.109375 30.90625 
L 18.109375 0 
L 9.078125 0 
L 9.078125 75.984375 
L 18.109375 75.984375 
L 18.109375 46.1875 
Q 21.34375 51.125 25.703125 53.5625 
Q 30.078125 56 35.796875 56 
Q 45.21875 56 50.046875 50.171875 
Q 54.890625 44.34375 54.890625 33.015625 
z
" id="DejaVuSans-104"/>
      <path d="M 8.015625 75.875 
L 15.828125 75.875 
Q 23.140625 64.359375 26.78125 53.3125 
Q 30.421875 42.28125 30.421875 31.390625 
Q 30.421875 20.453125 26.78125 9.375 
Q 23.140625 -1.703125 15.828125 -13.1875 
L 8.015625 -13.1875 
Q 14.5 -2 17.703125 9.0625 
Q 20.90625 20.125 20.90625 31.390625 
Q 20.90625 42.671875 17.703125 53.65625 
Q 14.5 64.65625 8.015625 75.875 
z
" id="DejaVuSans-41"/>
     </defs>
     <g transform="translate(154.07025 352.648)scale(0.16 -0.16)">
      <use xlink:href="#DejaVuSans-32"/>
      <use x="31.787109" xlink:href="#DejaVuSans-40"/>
      <use x="70.800781" xlink:href="#DejaVuSans-109"/>
      <use x="168.212891" xlink:href="#DejaVuSans-111"/>
      <use x="229.394531" xlink:href="#DejaVuSans-114"/>
      <use x="270.507812" xlink:href="#DejaVuSans-112"/>
      <use x="333.984375" xlink:href="#DejaVuSans-104"/>
      <use x="397.363281" xlink:href="#DejaVuSans-32"/>
      <use x="429.150391" xlink:href="#DejaVuSans-117"/>
      <use x="492.529297" xlink:href="#DejaVuSans-110"/>
      <use x="555.908203" xlink:href="#DejaVuSans-105"/>
      <use x="583.691406" xlink:href="#DejaVuSans-116"/>
      <use x="622.900391" xlink:href="#DejaVuSans-115"/>
      <use x="675" xlink:href="#DejaVuSans-41"/>
     </g>
    </g>
   </g>
   <g id="matplotlib.axis_2">
    <g id="ytick_1">
     <g id="line2d_8">
      <defs>
       <path d="M 0 0 
L 6 0 
" id="m40525a63da" style="stroke:#000000;stroke-width:2;"/>
      </defs>
      <g>
       <use style="stroke:#000000;stroke-width:2;" x="71.689" xlink:href="#m40525a63da" y="299.589"/>
      </g>
     </g>
     <g id="text_9">
      <!-- −3 -->
      <defs>
       <path d="M 10.59375 35.5 
L 73.1875 35.5 
L 73.1875 27.203125 
L 10.59375 27.203125 
z
" id="DejaVuSans-8722"/>
      </defs>
      <g transform="translate(44.6015 305.66775)scale(0.16 -0.16)">
       <use xlink:href="#DejaVuSans-8722"/>
       <use x="83.789062" xlink:href="#DejaVuSans-51"/>
      </g>
     </g>
    </g>
    <g id="ytick_2">
     <g id="line2d_9">
      <g>
       <use style="stroke:#000000;stroke-width:2;" x="71.689" xlink:href="#m40525a63da" y="254.289"/>
      </g>
     </g>
     <g id="text_10">
      <!-- −2 -->
      <g transform="translate(44.6015 260.36775)scale(0.16 -0.16)">
       <use xlink:href="#DejaVuSans-8722"/>
       <use x="83.789062" xlink:href="#DejaVuSans-50"/>
      </g>
     </g>
    </g>
    <g id="ytick_3">
     <g id="line2d_10">
      <g>
       <use style="stroke:#000000;stroke-width:2;" x="71.689" xlink:href="#m40525a63da" y="208.989"/>
      </g>
     </g>
     <g id="text_11">
      <!-- −1 -->
      <defs>
       <path d="M 12.40625 8.296875 
L 28.515625 8.296875 
L 28.515625 63.921875 
L 10.984375 60.40625 
L 10.984375 69.390625 
L 28.421875 72.90625 
L 38.28125 72.90625 
L 38.28125 8.296875 
L 54.390625 8.296875 
L 54.390625 0 
L 12.40625 0 
z
" id="DejaVuSans-49"/>
      </defs>
      <g transform="translate(44.6015 215.06775)scale(0.16 -0.16)">
       <use xlink:href="#DejaVuSans-8722"/>
       <use x="83.789062" xlink:href="#DejaVuSans-49"/>
      </g>
     </g>
    </g>
    <g id="ytick_4">
     <g id="line2d_11">
      <g>
       <use style="stroke:#000000;stroke-width:2;" x="71.689" xlink:href="#m40525a63da" y="163.689"/>
      </g>
     </g>
     <g id="text_12">
      <!-- 0 -->
      <g transform="translate(58.009 169.76775)scale(0.16 -0.16)">
       <use xlink:href="#DejaVuSans-48"/>
      </g>
     </g>
    </g>
    <g id="ytick_5">
     <g id="line2d_12">
      <g>
       <use style="stroke:#000000;stroke-width:2;" x="71.689" xlink:href="#m40525a63da" y="118.389"/>
      </g>
     </g>
     <g id="text_13">
      <!-- 1 -->
      <g transform="translate(58.009 124.46775)scale(0.16 -0.16)">
       <use xlink:href="#DejaVuSans-49"/>
      </g>
     </g>
    </g>
    <g id="ytick_6">
     <g id="line2d_13">
      <g>
       <use style="stroke:#000000;stroke-width:2;" x="71.689" xlink:href="#m40525a63da" y="73.089"/>
      </g>
     </g>
     <g id="text_14">
      <!-- 2 -->
      <g transform="translate(58.009 79.16775)scale(0.16 -0.16)">
       <use xlink:href="#DejaVuSans-50"/>
      </g>
     </g>
    </g>
    <g id="ytick_7">
     <g id="line2d_14">
      <g>
       <use style="stroke:#000000;stroke-width:2;" x="71.689" xlink:href="#m40525a63da" y="27.789"/>
      </g>
     </g>
     <g id="text_15">
      <!-- 3 -->
      <g transform="translate(58.009 33.86775)scale(0.16 -0.16)">
       <use xlink:href="#DejaVuSans-51"/>
      </g>
     </g>
    </g>
    <g id="text_16">
     <!-- Response Error on Current Trial -->
     <defs>
      <path d="M 44.390625 34.1875 
Q 47.5625 33.109375 50.5625 29.59375 
Q 53.5625 26.078125 56.59375 19.921875 
L 66.609375 0 
L 56 0 
L 46.6875 18.703125 
Q 43.0625 26.03125 39.671875 28.421875 
Q 36.28125 30.8125 30.421875 30.8125 
L 19.671875 30.8125 
L 19.671875 0 
L 9.8125 0 
L 9.8125 72.90625 
L 32.078125 72.90625 
Q 44.578125 72.90625 50.734375 67.671875 
Q 56.890625 62.453125 56.890625 51.90625 
Q 56.890625 45.015625 53.6875 40.46875 
Q 50.484375 35.9375 44.390625 34.1875 
z
M 19.671875 64.796875 
L 19.671875 38.921875 
L 32.078125 38.921875 
Q 39.203125 38.921875 42.84375 42.21875 
Q 46.484375 45.515625 46.484375 51.90625 
Q 46.484375 58.296875 42.84375 61.546875 
Q 39.203125 64.796875 32.078125 64.796875 
z
" id="DejaVuSans-82"/>
      <path d="M 9.8125 72.90625 
L 55.90625 72.90625 
L 55.90625 64.59375 
L 19.671875 64.59375 
L 19.671875 43.015625 
L 54.390625 43.015625 
L 54.390625 34.71875 
L 19.671875 34.71875 
L 19.671875 8.296875 
L 56.78125 8.296875 
L 56.78125 0 
L 9.8125 0 
z
" id="DejaVuSans-69"/>
      <path d="M 34.28125 27.484375 
Q 23.390625 27.484375 19.1875 25 
Q 14.984375 22.515625 14.984375 16.5 
Q 14.984375 11.71875 18.140625 8.90625 
Q 21.296875 6.109375 26.703125 6.109375 
Q 34.1875 6.109375 38.703125 11.40625 
Q 43.21875 16.703125 43.21875 25.484375 
L 43.21875 27.484375 
z
M 52.203125 31.203125 
L 52.203125 0 
L 43.21875 0 
L 43.21875 8.296875 
Q 40.140625 3.328125 35.546875 0.953125 
Q 30.953125 -1.421875 24.3125 -1.421875 
Q 15.921875 -1.421875 10.953125 3.296875 
Q 6 8.015625 6 15.921875 
Q 6 25.140625 12.171875 29.828125 
Q 18.359375 34.515625 30.609375 34.515625 
L 43.21875 34.515625 
L 43.21875 35.40625 
Q 43.21875 41.609375 39.140625 45 
Q 35.0625 48.390625 27.6875 48.390625 
Q 23 48.390625 18.546875 47.265625 
Q 14.109375 46.140625 10.015625 43.890625 
L 10.015625 52.203125 
Q 14.9375 54.109375 19.578125 55.046875 
Q 24.21875 56 28.609375 56 
Q 40.484375 56 46.34375 49.84375 
Q 52.203125 43.703125 52.203125 31.203125 
z
" id="DejaVuSans-97"/>
      <path d="M 9.421875 75.984375 
L 18.40625 75.984375 
L 18.40625 0 
L 9.421875 0 
z
" id="DejaVuSans-108"/>
     </defs>
     <g transform="translate(19.3575 290.27775)rotate(-90)scale(0.16 -0.16)">
      <use xlink:href="#DejaVuSans-82"/>
      <use x="69.419922" xlink:href="#DejaVuSans-101"/>
      <use x="130.943359" xlink:href="#DejaVuSans-115"/>
      <use x="183.042969" xlink:href="#DejaVuSans-112"/>
      <use x="246.519531" xlink:href="#DejaVuSans-111"/>
      <use x="307.701172" xlink:href="#DejaVuSans-110"/>
      <use x="371.080078" xlink:href="#DejaVuSans-115"/>
      <use x="423.179688" xlink:href="#DejaVuSans-101"/>
      <use x="484.703125" xlink:href="#DejaVuSans-32"/>
      <use x="516.490234" xlink:href="#DejaVuSans-69"/>
      <use x="579.673828" xlink:href="#DejaVuSans-114"/>
      <use x="620.771484" xlink:href="#DejaVuSans-114"/>
      <use x="661.853516" xlink:href="#DejaVuSans-111"/>
      <use x="723.035156" xlink:href="#DejaVuSans-114"/>
      <use x="764.148438" xlink:href="#DejaVuSans-32"/>
      <use x="795.935547" xlink:href="#DejaVuSans-111"/>
      <use x="857.117188" xlink:href="#DejaVuSans-110"/>
      <use x="920.496094" xlink:href="#DejaVuSans-32"/>
      <use x="952.283203" xlink:href="#DejaVuSans-67"/>
      <use x="1022.107422" xlink:href="#DejaVuSans-117"/>
      <use x="1085.486328" xlink:href="#DejaVuSans-114"/>
      <use x="1126.583984" xlink:href="#DejaVuSans-114"/>
      <use x="1167.666016" xlink:href="#DejaVuSans-101"/>
      <use x="1229.189453" xlink:href="#DejaVuSans-110"/>
      <use x="1292.568359" xlink:href="#DejaVuSans-116"/>
      <use x="1331.777344" xlink:href="#DejaVuSans-32"/>
      <use x="1363.564453" xlink:href="#DejaVuSans-84"/>
      <use x="1424.429688" xlink:href="#DejaVuSans-114"/>
      <use x="1465.542969" xlink:href="#DejaVuSans-105"/>
      <use x="1493.326172" xlink:href="#DejaVuSans-97"/>
      <use x="1554.605469" xlink:href="#DejaVuSans-108"/>
     </g>
     <!--  (morph units) -->
     <g transform="translate(37.274 220.80775)rotate(-90)scale(0.16 -0.16)">
      <use xlink:href="#DejaVuSans-32"/>
      <use x="31.787109" xlink:href="#DejaVuSans-40"/>
      <use x="70.800781" xlink:href="#DejaVuSans-109"/>
      <use x="168.212891" xlink:href="#DejaVuSans-111"/>
      <use x="229.394531" xlink:href="#DejaVuSans-114"/>
      <use x="270.507812" xlink:href="#DejaVuSans-112"/>
      <use x="333.984375" xlink:href="#DejaVuSans-104"/>
      <use x="397.363281" xlink:href="#DejaVuSans-32"/>
      <use x="429.150391" xlink:href="#DejaVuSans-117"/>
      <use x="492.529297" xlink:href="#DejaVuSans-110"/>
      <use x="555.908203" xlink:href="#DejaVuSans-105"/>
      <use x="583.691406" xlink:href="#DejaVuSans-116"/>
      <use x="622.900391" xlink:href="#DejaVuSans-115"/>
      <use x="675" xlink:href="#DejaVuSans-41"/>
     </g>
    </g>
   </g>
   <g id="line2d_15">
    <path clip-path="url(#p6e5628b3ad)" d="M 71.689 173.153351 
L 73.599959 177.694932 
L 75.510918 174.83565 
L 77.421877 175.34353 
L 79.332836 177.165589 
L 81.243795 189.792502 
L 83.154753 187.90247 
L 85.065712 191.212787 
L 86.976671 200.047243 
L 88.88763 200.722 
L 90.798589 203.514751 
L 92.709548 212.960865 
L 94.620507 209.923747 
L 98.442425 207.055706 
L 100.353384 214.513939 
L 102.264342 206.702542 
L 104.175301 207.158684 
L 106.08626 213.173922 
L 107.997219 213.732497 
L 109.908178 221.75302 
L 111.819137 220.459805 
L 113.730096 218.448994 
L 115.641055 212.197433 
L 117.552014 214.419654 
L 119.462973 221.785191 
L 121.373932 214.545692 
L 123.28489 218.078899 
L 125.195849 227.009826 
L 127.106808 217.584526 
L 129.017767 222.666441 
L 130.928726 220.113652 
L 132.839685 224.571411 
L 134.750644 226.653268 
L 136.661603 225.739114 
L 138.572562 235.625558 
L 140.483521 240.033916 
L 142.394479 239.862329 
L 146.216397 224.553742 
L 148.127356 228.551872 
L 150.038315 225.599977 
L 151.949274 220.199254 
L 153.860233 227.063097 
L 155.771192 220.633533 
L 157.682151 225.915579 
L 159.59311 225.902526 
L 161.504068 233.388179 
L 163.415027 237.226188 
L 165.325986 235.564661 
L 167.236945 240.267499 
L 169.147904 244.580997 
L 171.058863 245.222467 
L 172.969822 248.362551 
L 174.880781 250.897264 
L 176.79174 246.734648 
L 178.702699 241.604445 
L 180.613658 246.649557 
L 182.524616 252.127672 
L 184.435575 245.962449 
L 186.346534 248.889706 
L 188.257493 229.292178 
L 190.168452 235.172521 
L 192.079411 227.793387 
L 193.99037 222.503804 
L 195.901329 214.046801 
L 197.812288 201.019898 
L 199.723247 190.310457 
L 201.634205 187.523391 
L 203.545164 195.063795 
L 205.456123 193.106109 
L 207.367082 192.23255 
L 209.278041 180.383596 
L 211.189 180.539947 
L 213.099959 173.39808 
L 215.010918 175.520897 
L 216.921877 162.204534 
L 218.832836 162.795254 
L 220.743795 150.379879 
L 222.654753 140.05811 
L 224.565712 128.971978 
L 226.476671 128.442306 
L 228.38763 115.477638 
L 232.209548 108.379635 
L 234.120507 102.712648 
L 236.031466 104.50091 
L 237.942425 108.015052 
L 239.853384 109.351961 
L 241.764342 111.218513 
L 243.675301 109.997774 
L 245.58626 104.092356 
L 247.497219 107.882442 
L 249.408178 99.45001 
L 251.319137 105.271576 
L 253.230096 106.43494 
L 255.141055 108.916788 
L 257.052014 108.49628 
L 258.962973 105.499362 
L 260.873932 103.268846 
L 262.78489 94.288835 
L 264.695849 93.059835 
L 266.606808 83.778473 
L 268.517767 89.209688 
L 270.428726 84.204397 
L 272.339685 75.617279 
L 274.250644 79.000249 
L 276.161603 85.134158 
L 278.072562 70.843465 
L 279.983521 78.530823 
L 281.894479 91.571288 
L 283.805438 94.806951 
L 285.716397 79.734743 
L 287.627356 83.465296 
L 289.538315 89.234664 
L 291.449274 86.410926 
L 293.360233 88.343326 
L 295.271192 82.448848 
L 297.182151 84.459043 
L 299.09311 83.770933 
L 301.004068 84.608291 
L 302.915027 73.882302 
L 304.825986 77.256937 
L 306.736945 79.729533 
L 308.647904 83.347791 
L 310.558863 89.178304 
L 312.469822 95.77126 
L 314.380781 90.417903 
L 316.29174 96.615044 
L 318.202699 104.091805 
L 320.113658 117.158728 
L 322.024616 119.868405 
L 325.846534 130.287563 
L 327.757493 133.027386 
L 329.668452 143.907137 
L 331.579411 146.412767 
L 333.49037 149.40686 
L 335.401329 148.021131 
L 337.312288 157.004683 
L 339.223247 155.811151 
L 341.134205 144.935259 
L 343.045164 150.584956 
L 344.956123 153.214262 
L 346.867082 148.622073 
L 348.778041 150.879503 
L 350.689 173.153351 
L 350.689 173.153351 
" style="fill:none;stroke:#00008b;stroke-linecap:square;stroke-width:1.5;"/>
   </g>
   <g id="line2d_16">
    <path clip-path="url(#p6e5628b3ad)" d="M 69.778041 163.799155 
L 71.689 163.971435 
L 73.599959 164.029718 
L 83.154753 164.89452 
L 86.976671 165.230425 
L 88.88763 165.136833 
L 90.798589 165.368186 
L 92.709548 165.823143 
L 94.620507 165.003255 
L 96.531466 166.087635 
L 98.442425 166.366989 
L 100.353384 167.791539 
L 102.264342 166.961794 
L 104.175301 167.550376 
L 106.08626 168.293837 
L 107.997219 169.197035 
L 109.908178 169.19823 
L 111.819137 170.867443 
L 113.730096 169.503227 
L 115.641055 171.59747 
L 117.552014 169.318742 
L 119.462973 173.855669 
L 121.373932 172.303064 
L 123.28489 174.576676 
L 125.195849 172.988719 
L 127.106808 175.464437 
L 129.017767 180.10102 
L 130.928726 181.332146 
L 132.839685 180.389801 
L 134.750644 180.578152 
L 138.572562 186.24821 
L 140.483521 190.871711 
L 142.394479 194.82116 
L 144.305438 195.680247 
L 146.216397 203.783537 
L 148.127356 197.571543 
L 150.038315 209.407478 
L 151.949274 207.447984 
L 153.860233 213.222504 
L 155.771192 222.824224 
L 157.682151 224.218531 
L 159.59311 222.907008 
L 161.504068 231.087868 
L 163.415027 231.739436 
L 165.325986 243.267589 
L 167.236945 241.637442 
L 169.147904 239.411304 
L 171.058863 262.731897 
L 172.969822 260.09207 
L 174.880781 261.672575 
L 176.79174 270.071369 
L 178.702699 277.085129 
L 180.613658 266.971175 
L 182.524616 269.169528 
L 184.435575 272.281988 
L 186.346534 253.86695 
L 188.257493 264.703287 
L 190.168452 277.081231 
L 192.079411 257.118215 
L 193.99037 251.177222 
L 195.901329 254.756691 
L 197.812288 239.589714 
L 199.723247 249.246319 
L 201.634205 218.313955 
L 203.545164 222.735695 
L 205.456123 199.604565 
L 207.367082 187.95467 
L 209.278041 178.041451 
M 213.099959 149.376308 
L 215.010918 136.747082 
L 216.921877 117.768581 
L 218.832836 106.839743 
L 220.743795 95.112587 
L 222.654753 87.305745 
L 224.565712 74.806626 
L 226.476671 75.253211 
L 228.38763 78.482565 
L 230.298589 51.515108 
L 232.209548 50.626336 
L 234.120507 67.296118 
L 236.031466 56.537965 
L 237.942425 51.663709 
L 239.853384 38.944072 
L 241.764342 48.939285 
L 243.675301 68.381675 
L 245.58626 39.724462 
L 247.497219 63.560022 
L 249.408178 79.070008 
L 251.319137 79.837399 
L 253.230096 85.157624 
L 255.141055 89.342492 
L 257.052014 84.146239 
L 258.962973 89.825518 
L 260.873932 100.257758 
L 262.78489 102.58229 
L 264.695849 109.265559 
L 266.606808 109.163251 
L 268.517767 109.972811 
L 270.428726 100.723045 
L 272.339685 121.669155 
L 274.250644 123.337743 
L 276.161603 124.218228 
L 278.072562 128.665555 
L 279.983521 130.640503 
L 281.894479 135.838983 
L 283.805438 138.171952 
L 285.716397 139.787723 
L 287.627356 141.254418 
L 289.538315 144.406462 
L 291.449274 148.154308 
L 293.360233 147.705296 
L 295.271192 149.310007 
L 297.182151 149.15316 
L 299.09311 153.546946 
L 301.004068 153.403904 
L 302.915027 153.733998 
L 304.825986 153.498398 
L 306.736945 156.393097 
L 310.558863 158.114334 
L 312.469822 157.892428 
L 314.380781 159.032348 
L 318.202699 160.084031 
L 322.024616 160.225033 
L 323.935575 160.985736 
L 325.846534 160.582664 
L 327.757493 161.763068 
L 329.668452 161.630347 
L 331.579411 162.301838 
L 333.49037 161.98466 
L 343.045164 163.072891 
L 344.956123 163.186873 
L 346.867082 163.085203 
L 348.778041 163.312266 
L 350.689 163.420638 
L 350.689 163.420638 
" style="fill:none;stroke:#000000;stroke-linecap:square;stroke-width:1.5;"/>
   </g>
   <g id="patch_3">
    <path d="M 71.689 299.589 
L 71.689 27.789 
" style="fill:none;stroke:#000000;stroke-linecap:square;stroke-linejoin:miter;stroke-width:2;"/>
   </g>
   <g id="patch_4">
    <path d="M 71.689 299.589 
L 350.689 299.589 
" style="fill:none;stroke:#000000;stroke-linecap:square;stroke-linejoin:miter;stroke-width:2;"/>
   </g>
   <g id="text_17">
    <!-- Radiologists, Step = 30 -->
    <defs>
     <path d="M 45.40625 46.390625 
L 45.40625 75.984375 
L 54.390625 75.984375 
L 54.390625 0 
L 45.40625 0 
L 45.40625 8.203125 
Q 42.578125 3.328125 38.25 0.953125 
Q 33.9375 -1.421875 27.875 -1.421875 
Q 17.96875 -1.421875 11.734375 6.484375 
Q 5.515625 14.40625 5.515625 27.296875 
Q 5.515625 40.1875 11.734375 48.09375 
Q 17.96875 56 27.875 56 
Q 33.9375 56 38.25 53.625 
Q 42.578125 51.265625 45.40625 46.390625 
z
M 14.796875 27.296875 
Q 14.796875 17.390625 18.875 11.75 
Q 22.953125 6.109375 30.078125 6.109375 
Q 37.203125 6.109375 41.296875 11.75 
Q 45.40625 17.390625 45.40625 27.296875 
Q 45.40625 37.203125 41.296875 42.84375 
Q 37.203125 48.484375 30.078125 48.484375 
Q 22.953125 48.484375 18.875 42.84375 
Q 14.796875 37.203125 14.796875 27.296875 
z
" id="DejaVuSans-100"/>
     <path d="M 45.40625 27.984375 
Q 45.40625 37.75 41.375 43.109375 
Q 37.359375 48.484375 30.078125 48.484375 
Q 22.859375 48.484375 18.828125 43.109375 
Q 14.796875 37.75 14.796875 27.984375 
Q 14.796875 18.265625 18.828125 12.890625 
Q 22.859375 7.515625 30.078125 7.515625 
Q 37.359375 7.515625 41.375 12.890625 
Q 45.40625 18.265625 45.40625 27.984375 
z
M 54.390625 6.78125 
Q 54.390625 -7.171875 48.1875 -13.984375 
Q 42 -20.796875 29.203125 -20.796875 
Q 24.46875 -20.796875 20.265625 -20.09375 
Q 16.0625 -19.390625 12.109375 -17.921875 
L 12.109375 -9.1875 
Q 16.0625 -11.328125 19.921875 -12.34375 
Q 23.78125 -13.375 27.78125 -13.375 
Q 36.625 -13.375 41.015625 -8.765625 
Q 45.40625 -4.15625 45.40625 5.171875 
L 45.40625 9.625 
Q 42.625 4.78125 38.28125 2.390625 
Q 33.9375 0 27.875 0 
Q 17.828125 0 11.671875 7.65625 
Q 5.515625 15.328125 5.515625 27.984375 
Q 5.515625 40.671875 11.671875 48.328125 
Q 17.828125 56 27.875 56 
Q 33.9375 56 38.28125 53.609375 
Q 42.625 51.21875 45.40625 46.390625 
L 45.40625 54.6875 
L 54.390625 54.6875 
z
" id="DejaVuSans-103"/>
     <path d="M 11.71875 12.40625 
L 22.015625 12.40625 
L 22.015625 4 
L 14.015625 -11.625 
L 7.71875 -11.625 
L 11.71875 4 
z
" id="DejaVuSans-44"/>
     <path d="M 53.515625 70.515625 
L 53.515625 60.890625 
Q 47.90625 63.578125 42.921875 64.890625 
Q 37.9375 66.21875 33.296875 66.21875 
Q 25.25 66.21875 20.875 63.09375 
Q 16.5 59.96875 16.5 54.203125 
Q 16.5 49.359375 19.40625 46.890625 
Q 22.3125 44.4375 30.421875 42.921875 
L 36.375 41.703125 
Q 47.40625 39.59375 52.65625 34.296875 
Q 57.90625 29 57.90625 20.125 
Q 57.90625 9.515625 50.796875 4.046875 
Q 43.703125 -1.421875 29.984375 -1.421875 
Q 24.8125 -1.421875 18.96875 -0.25 
Q 13.140625 0.921875 6.890625 3.21875 
L 6.890625 13.375 
Q 12.890625 10.015625 18.65625 8.296875 
Q 24.421875 6.59375 29.984375 6.59375 
Q 38.421875 6.59375 43.015625 9.90625 
Q 47.609375 13.234375 47.609375 19.390625 
Q 47.609375 24.75 44.3125 27.78125 
Q 41.015625 30.8125 33.5 32.328125 
L 27.484375 33.5 
Q 16.453125 35.6875 11.515625 40.375 
Q 6.59375 45.0625 6.59375 53.421875 
Q 6.59375 63.09375 13.40625 68.65625 
Q 20.21875 74.21875 32.171875 74.21875 
Q 37.3125 74.21875 42.625 73.28125 
Q 47.953125 72.359375 53.515625 70.515625 
z
" id="DejaVuSans-83"/>
     <path d="M 10.59375 45.40625 
L 73.1875 45.40625 
L 73.1875 37.203125 
L 10.59375 37.203125 
z
M 10.59375 25.484375 
L 73.1875 25.484375 
L 73.1875 17.1875 
L 10.59375 17.1875 
z
" id="DejaVuSans-61"/>
    </defs>
    <g transform="translate(98.611 21.789)scale(0.192 -0.192)">
     <use xlink:href="#DejaVuSans-82"/>
     <use x="69.451172" xlink:href="#DejaVuSans-97"/>
     <use x="130.730469" xlink:href="#DejaVuSans-100"/>
     <use x="194.207031" xlink:href="#DejaVuSans-105"/>
     <use x="221.990234" xlink:href="#DejaVuSans-111"/>
     <use x="283.171875" xlink:href="#DejaVuSans-108"/>
     <use x="310.955078" xlink:href="#DejaVuSans-111"/>
     <use x="372.136719" xlink:href="#DejaVuSans-103"/>
     <use x="435.613281" xlink:href="#DejaVuSans-105"/>
     <use x="463.396484" xlink:href="#DejaVuSans-115"/>
     <use x="515.496094" xlink:href="#DejaVuSans-116"/>
     <use x="554.705078" xlink:href="#DejaVuSans-115"/>
     <use x="606.804688" xlink:href="#DejaVuSans-44"/>
     <use x="638.591797" xlink:href="#DejaVuSans-32"/>
     <use x="670.378906" xlink:href="#DejaVuSans-83"/>
     <use x="733.855469" xlink:href="#DejaVuSans-116"/>
     <use x="773.064453" xlink:href="#DejaVuSans-101"/>
     <use x="834.587891" xlink:href="#DejaVuSans-112"/>
     <use x="898.064453" xlink:href="#DejaVuSans-32"/>
     <use x="929.851562" xlink:href="#DejaVuSans-61"/>
     <use x="1013.640625" xlink:href="#DejaVuSans-32"/>
     <use x="1045.427734" xlink:href="#DejaVuSans-51"/>
     <use x="1109.050781" xlink:href="#DejaVuSans-48"/>
    </g>
   </g>
  </g>
 </g>
 <defs>
  <clipPath id="p6e5628b3ad">
   <rect height="271.8" width="279" x="71.689" y="27.789"/>
  </clipPath>
 </defs>
</svg>
