<?xml version="1.0" encoding="utf-8" standalone="no"?>
<!DOCTYPE svg PUBLIC "-//W3C//DTD SVG 1.1//EN"
  "http://www.w3.org/Graphics/SVG/1.1/DTD/svg11.dtd">
<!-- Created with matplotlib (https://matplotlib.org/) -->
<svg height="282.868594pt" version="1.1" viewBox="0 0 321.732813 282.868594" width="321.732813pt" xmlns="http://www.w3.org/2000/svg" xmlns:xlink="http://www.w3.org/1999/xlink">
 <metadata>
  <rdf:RDF xmlns:cc="http://creativecommons.org/ns#" xmlns:dc="http://purl.org/dc/elements/1.1/" xmlns:rdf="http://www.w3.org/1999/02/22-rdf-syntax-ns#">
   <cc:Work>
    <dc:type rdf:resource="http://purl.org/dc/dcmitype/StillImage"/>
    <dc:date>2021-04-20T10:13:28.266465</dc:date>
    <dc:format>image/svg+xml</dc:format>
    <dc:creator>
     <cc:Agent>
      <dc:title>Matplotlib v3.3.4, https://matplotlib.org/</dc:title>
     </cc:Agent>
    </dc:creator>
   </cc:Work>
  </rdf:RDF>
 </metadata>
 <defs>
  <style type="text/css">*{stroke-linecap:butt;stroke-linejoin:round;}</style>
 </defs>
 <g id="figure_1">
  <g id="patch_1">
   <path d="M 0 282.868594 
L 321.732813 282.868594 
L 321.732813 -0 
L 0 -0 
z
" style="fill:none;"/>
  </g>
  <g id="axes_1">
   <g id="patch_2">
    <path d="M 49.266406 242.037656 
L 272.466406 242.037656 
L 272.466406 24.597656 
L 49.266406 24.597656 
z
" style="fill:#ffffff;"/>
   </g>
   <g id="PolyCollection_1">
    <defs>
     <path d="M 46.208872 -40.681999 
L 46.208872 -40.249055 
L 46.975812 -40.392551 
L 47.742752 -40.537582 
L 48.509692 -40.684317 
L 49.276632 -40.831445 
L 50.043572 -40.869782 
L 50.810512 -40.908718 
L 51.577452 -40.948328 
L 52.344392 -40.98869 
L 53.111332 -41.029886 
L 53.878272 -41.072 
L 54.645212 -41.115118 
L 55.412152 -41.15933 
L 56.179092 -41.20473 
L 56.946032 -41.251414 
L 57.712972 -41.299484 
L 58.479912 -41.349043 
L 59.246852 -41.400201 
L 60.013793 -41.453072 
L 60.780733 -41.507776 
L 61.547673 -41.564435 
L 62.314613 -41.623179 
L 63.081553 -41.684143 
L 63.848493 -41.74747 
L 64.615433 -41.813306 
L 65.382373 -41.881807 
L 66.149313 -41.953135 
L 66.916253 -42.027458 
L 67.683193 -42.104954 
L 68.450133 -42.18581 
L 69.217073 -42.270218 
L 69.984013 -42.358384 
L 70.750953 -42.450519 
L 71.517893 -42.546847 
L 72.284833 -42.647602 
L 73.051773 -42.753027 
L 73.818713 -42.863379 
L 74.585653 -42.978924 
L 75.352593 -43.099944 
L 76.119533 -43.22673 
L 76.886473 -43.359588 
L 77.653413 -43.498837 
L 78.420353 -43.644811 
L 79.187293 -43.797859 
L 79.954233 -43.958344 
L 80.721173 -44.126644 
L 81.488113 -44.303155 
L 82.255053 -44.488288 
L 83.021993 -44.682471 
L 83.788933 -44.88615 
L 84.555873 -45.099787 
L 85.322813 -45.323865 
L 86.089753 -45.558881 
L 86.856694 -45.805354 
L 87.623634 -46.06382 
L 88.390574 -46.334834 
L 89.157514 -46.618971 
L 89.924454 -46.916822 
L 90.691394 -47.229001 
L 91.458334 -47.556137 
L 92.225274 -47.89328 
L 92.992214 -48.252012 
L 93.759154 -48.62769 
L 94.526094 -49.021015 
L 95.293034 -49.432705 
L 96.059974 -49.863495 
L 96.826914 -50.314133 
L 97.593854 -50.785382 
L 98.360794 -51.278016 
L 99.127734 -51.792823 
L 99.894674 -52.330596 
L 100.661614 -52.892141 
L 101.428554 -53.478265 
L 102.195494 -54.089781 
L 102.962434 -54.723028 
L 103.729374 -55.387555 
L 104.496314 -56.079899 
L 105.263254 -56.800861 
L 106.030194 -57.551231 
L 106.797134 -58.331786 
L 107.564074 -59.143283 
L 108.331014 -59.986459 
L 109.097954 -60.862024 
L 109.864894 -61.77066 
L 110.631834 -62.71301 
L 111.398774 -63.689681 
L 112.165714 -64.701234 
L 112.932654 -65.748178 
L 113.699595 -66.830969 
L 114.466535 -67.950001 
L 115.233475 -68.92303 
L 116.000415 -70.05408 
L 116.767355 -71.273322 
L 117.534295 -72.415022 
L 118.301235 -73.595256 
L 119.068175 -74.91561 
L 119.835115 -76.272208 
L 120.602055 -77.574343 
L 121.368995 -78.886088 
L 122.135935 -80.341251 
L 122.902875 -81.587762 
L 123.669815 -82.705734 
L 124.436755 -84.228763 
L 125.203695 -85.580572 
L 125.970635 -87.16506 
L 126.737575 -88.674039 
L 127.504515 -90.121519 
L 128.271455 -91.338226 
L 129.038395 -92.56071 
L 129.805335 -93.975391 
L 130.572275 -95.274338 
L 131.339215 -96.694866 
L 132.106155 -97.936251 
L 132.873095 -99.176067 
L 133.640035 -100.476582 
L 134.406975 -101.722794 
L 135.173915 -103.028766 
L 135.940855 -104.697138 
L 136.707795 -105.915376 
L 137.474735 -107.121489 
L 138.241675 -108.628542 
L 139.008615 -110.247932 
L 139.775555 -111.85351 
L 140.542495 -113.442003 
L 141.309436 -114.625894 
L 142.076376 -115.745433 
L 142.843316 -116.838857 
L 143.610256 -117.904212 
L 144.377196 -118.93956 
L 145.144136 -119.94299 
L 145.911076 -120.912623 
L 146.678016 -121.846615 
L 147.444956 -122.743168 
L 148.211896 -123.600534 
L 148.978836 -124.417022 
L 149.745776 -125.191005 
L 150.512716 -125.920922 
L 151.279656 -126.605289 
L 152.046596 -127.242702 
L 152.813536 -127.831842 
L 153.580476 -128.371481 
L 154.347416 -128.860487 
L 155.114356 -129.297828 
L 155.881296 -129.682574 
L 156.648236 -130.013906 
L 157.415176 -130.291114 
L 158.182116 -130.513602 
L 158.949056 -130.68089 
L 159.715996 -130.792616 
L 160.482936 -130.84854 
L 161.249876 -130.84854 
L 162.016816 -130.792616 
L 162.783756 -130.68089 
L 163.550696 -130.513602 
L 164.317636 -130.291114 
L 165.084576 -130.013906 
L 165.851516 -129.682574 
L 166.618456 -129.297828 
L 167.385396 -128.860487 
L 168.152337 -128.371481 
L 168.919277 -127.831842 
L 169.686217 -127.242702 
L 170.453157 -126.605289 
L 171.220097 -125.920922 
L 171.987037 -125.191005 
L 172.753977 -124.417022 
L 173.520917 -123.600534 
L 174.287857 -122.743168 
L 175.054797 -121.846615 
L 175.821737 -120.912623 
L 176.588677 -119.94299 
L 177.355617 -118.93956 
L 178.122557 -117.904212 
L 178.889497 -116.838857 
L 179.656437 -115.745433 
L 180.423377 -114.625894 
L 181.190317 -113.442003 
L 181.957257 -111.85351 
L 182.724197 -110.247932 
L 183.491137 -108.628542 
L 184.258077 -107.121489 
L 185.025017 -105.915376 
L 185.791957 -104.697138 
L 186.558897 -103.028766 
L 187.325837 -101.722794 
L 188.092777 -100.476582 
L 188.859717 -99.176067 
L 189.626657 -97.936251 
L 190.393597 -96.694866 
L 191.160537 -95.274338 
L 191.927477 -93.975391 
L 192.694417 -92.56071 
L 193.461357 -91.338226 
L 194.228297 -90.121519 
L 194.995238 -88.674039 
L 195.762178 -87.16506 
L 196.529118 -85.580572 
L 197.296058 -84.228763 
L 198.062998 -82.705734 
L 198.829938 -81.587762 
L 199.596878 -80.341251 
L 200.363818 -78.886088 
L 201.130758 -77.574343 
L 201.897698 -76.272208 
L 202.664638 -74.91561 
L 203.431578 -73.595256 
L 204.198518 -72.415022 
L 204.965458 -71.273322 
L 205.732398 -70.05408 
L 206.499338 -68.92303 
L 207.266278 -67.950001 
L 208.033218 -66.830969 
L 208.800158 -65.748178 
L 209.567098 -64.701234 
L 210.334038 -63.689681 
L 211.100978 -62.71301 
L 211.867918 -61.77066 
L 212.634858 -60.862024 
L 213.401798 -59.986459 
L 214.168738 -59.143283 
L 214.935678 -58.331786 
L 215.702618 -57.551231 
L 216.469558 -56.800861 
L 217.236498 -56.079899 
L 218.003438 -55.387555 
L 218.770378 -54.723028 
L 219.537318 -54.089781 
L 220.304258 -53.478265 
L 221.071198 -52.892141 
L 221.838139 -52.330596 
L 222.605079 -51.792823 
L 223.372019 -51.278016 
L 224.138959 -50.785382 
L 224.905899 -50.314133 
L 225.672839 -49.863495 
L 226.439779 -49.432705 
L 227.206719 -49.021015 
L 227.973659 -48.62769 
L 228.740599 -48.252012 
L 229.507539 -47.89328 
L 230.274479 -47.556137 
L 231.041419 -47.229001 
L 231.808359 -46.916822 
L 232.575299 -46.618971 
L 233.342239 -46.334834 
L 234.109179 -46.06382 
L 234.876119 -45.805354 
L 235.643059 -45.558881 
L 236.409999 -45.323865 
L 237.176939 -45.099787 
L 237.943879 -44.88615 
L 238.710819 -44.682471 
L 239.477759 -44.488288 
L 240.244699 -44.303155 
L 241.011639 -44.126644 
L 241.778579 -43.958344 
L 242.545519 -43.797859 
L 243.312459 -43.644811 
L 244.079399 -43.498837 
L 244.846339 -43.359588 
L 245.613279 -43.22673 
L 246.380219 -43.099944 
L 247.147159 -42.978924 
L 247.914099 -42.863379 
L 248.68104 -42.753027 
L 249.44798 -42.647602 
L 250.21492 -42.546847 
L 250.98186 -42.450519 
L 251.7488 -42.358384 
L 252.51574 -42.270218 
L 253.28268 -42.18581 
L 254.04962 -42.104954 
L 254.81656 -42.027458 
L 255.5835 -41.953135 
L 256.35044 -41.881807 
L 257.11738 -41.813306 
L 257.88432 -41.74747 
L 258.65126 -41.684143 
L 259.4182 -41.623179 
L 260.18514 -41.564435 
L 260.95208 -41.507776 
L 261.71902 -41.453072 
L 262.48596 -41.400201 
L 263.2529 -41.349043 
L 264.01984 -41.299484 
L 264.78678 -41.251414 
L 265.55372 -41.20473 
L 266.32066 -41.15933 
L 267.0876 -41.115118 
L 267.85454 -41.072 
L 268.62148 -41.029886 
L 269.38842 -40.98869 
L 270.15536 -40.948328 
L 270.9223 -40.908718 
L 271.68924 -40.869782 
L 272.45618 -40.831445 
L 273.22312 -40.684317 
L 273.99006 -40.537582 
L 274.757 -40.392551 
L 275.52394 -40.249055 
L 275.52394 -40.681999 
L 275.52394 -40.681999 
L 274.757 -40.718819 
L 273.99006 -40.755954 
L 273.22312 -40.793474 
L 272.45618 -40.832917 
L 271.68924 -40.982449 
L 270.9223 -41.134207 
L 270.15536 -41.28838 
L 269.38842 -41.445161 
L 268.62148 -41.604749 
L 267.85454 -41.76735 
L 267.0876 -41.933174 
L 266.32066 -42.10244 
L 265.55372 -42.27537 
L 264.78678 -42.452197 
L 264.01984 -42.633157 
L 263.2529 -42.818496 
L 262.48596 -43.008468 
L 261.71902 -43.203333 
L 260.95208 -43.403359 
L 260.18514 -43.608826 
L 259.4182 -43.820018 
L 258.65126 -44.037232 
L 257.88432 -44.260771 
L 257.11738 -44.490951 
L 256.35044 -44.728096 
L 255.5835 -44.972539 
L 254.81656 -45.224626 
L 254.04962 -45.484712 
L 253.28268 -45.753164 
L 252.51574 -46.03036 
L 251.7488 -46.316689 
L 250.98186 -46.612553 
L 250.21492 -46.918363 
L 249.44798 -47.234547 
L 248.68104 -47.561541 
L 247.914099 -47.899796 
L 247.147159 -48.249774 
L 246.380219 -48.611951 
L 245.613279 -48.986817 
L 244.846339 -49.374872 
L 244.079399 -49.776631 
L 243.312459 -50.192622 
L 242.545519 -50.623385 
L 241.778579 -51.069475 
L 241.011639 -51.531456 
L 240.244699 -52.009909 
L 239.477759 -52.505424 
L 238.710819 -53.018604 
L 237.943879 -53.550064 
L 237.176939 -54.100431 
L 236.409999 -54.67034 
L 235.643059 -55.26044 
L 234.876119 -55.871387 
L 234.109179 -56.503845 
L 233.342239 -57.15849 
L 232.575299 -57.836 
L 231.808359 -58.537063 
L 231.041419 -59.26237 
L 230.274479 -60.012617 
L 229.507539 -60.788501 
L 228.740599 -61.590721 
L 227.973659 -62.419976 
L 227.206719 -63.276961 
L 226.439779 -64.16237 
L 225.672839 -65.201725 
L 224.905899 -66.213536 
L 224.138959 -67.195739 
L 223.372019 -68.209292 
L 222.605079 -69.290069 
L 221.838139 -70.3706 
L 221.071198 -71.540098 
L 220.304258 -72.715851 
L 219.537318 -73.900141 
L 218.770378 -75.119479 
L 218.003438 -76.374365 
L 217.236498 -77.665265 
L 216.469558 -78.992603 
L 215.702618 -80.356764 
L 214.935678 -81.758084 
L 214.168738 -83.196851 
L 213.401798 -84.673298 
L 212.634858 -86.187602 
L 211.867918 -87.739877 
L 211.100978 -89.330173 
L 210.334038 -90.95847 
L 209.567098 -92.624674 
L 208.800158 -94.328617 
L 208.033218 -96.070047 
L 207.266278 -98.081654 
L 206.499338 -100.02495 
L 205.732398 -101.887831 
L 204.965458 -103.789352 
L 204.198518 -105.723239 
L 203.431578 -107.747942 
L 202.664638 -109.86701 
L 201.897698 -112.614701 
L 201.130758 -114.921029 
L 200.363818 -117.048425 
L 199.596878 -119.204815 
L 198.829938 -121.87475 
L 198.062998 -124.471424 
L 197.296058 -126.774345 
L 196.529118 -129.758188 
L 195.762178 -132.126784 
L 194.995238 -134.8291 
L 194.228297 -138.043743 
L 193.461357 -141.30802 
L 192.694417 -143.938426 
L 191.927477 -146.50088 
L 191.160537 -149.430701 
L 190.393597 -152.459867 
L 189.626657 -155.1803 
L 188.859717 -157.836091 
L 188.092777 -161.223962 
L 187.325837 -163.834801 
L 186.558897 -167.150409 
L 185.791957 -170.513465 
L 185.025017 -173.619591 
L 184.258077 -176.989127 
L 183.491137 -180.229363 
L 182.724197 -183.335698 
L 181.957257 -186.524677 
L 181.190317 -189.783267 
L 180.423377 -192.999973 
L 179.656437 -196.167872 
L 178.889497 -199.00643 
L 178.122557 -201.972318 
L 177.355617 -204.945141 
L 176.588677 -207.84124 
L 175.821737 -210.653649 
L 175.054797 -213.375476 
L 174.287857 -215.999933 
L 173.520917 -218.520366 
L 172.753977 -220.930287 
L 171.987037 -223.2234 
L 171.220097 -225.393636 
L 170.453157 -227.435176 
L 169.686217 -229.342485 
L 168.919277 -231.110336 
L 168.152337 -232.733836 
L 167.385396 -234.208455 
L 166.618456 -235.530041 
L 165.851516 -236.694851 
L 165.084576 -237.699561 
L 164.317636 -238.541294 
L 163.550696 -239.217623 
L 162.783756 -239.726594 
L 162.016816 -240.066732 
L 161.249876 -240.237048 
L 160.482936 -240.237048 
L 159.715996 -240.066732 
L 158.949056 -239.726594 
L 158.182116 -239.217623 
L 157.415176 -238.541294 
L 156.648236 -237.699561 
L 155.881296 -236.694851 
L 155.114356 -235.530041 
L 154.347416 -234.208455 
L 153.580476 -232.733836 
L 152.813536 -231.110336 
L 152.046596 -229.342485 
L 151.279656 -227.435176 
L 150.512716 -225.393636 
L 149.745776 -223.2234 
L 148.978836 -220.930287 
L 148.211896 -218.520366 
L 147.444956 -215.999933 
L 146.678016 -213.375476 
L 145.911076 -210.653649 
L 145.144136 -207.84124 
L 144.377196 -204.945141 
L 143.610256 -201.972318 
L 142.843316 -199.00643 
L 142.076376 -196.167872 
L 141.309436 -192.999973 
L 140.542495 -189.783267 
L 139.775555 -186.524677 
L 139.008615 -183.335698 
L 138.241675 -180.229363 
L 137.474735 -176.989127 
L 136.707795 -173.619591 
L 135.940855 -170.513465 
L 135.173915 -167.150409 
L 134.406975 -163.834801 
L 133.640035 -161.223962 
L 132.873095 -157.836091 
L 132.106155 -155.1803 
L 131.339215 -152.459867 
L 130.572275 -149.430701 
L 129.805335 -146.50088 
L 129.038395 -143.938426 
L 128.271455 -141.30802 
L 127.504515 -138.043743 
L 126.737575 -134.8291 
L 125.970635 -132.126784 
L 125.203695 -129.758188 
L 124.436755 -126.774345 
L 123.669815 -124.471424 
L 122.902875 -121.87475 
L 122.135935 -119.204815 
L 121.368995 -117.048425 
L 120.602055 -114.921029 
L 119.835115 -112.614701 
L 119.068175 -109.86701 
L 118.301235 -107.747942 
L 117.534295 -105.723239 
L 116.767355 -103.789352 
L 116.000415 -101.887831 
L 115.233475 -100.02495 
L 114.466535 -98.081654 
L 113.699595 -96.070047 
L 112.932654 -94.328617 
L 112.165714 -92.624674 
L 111.398774 -90.95847 
L 110.631834 -89.330173 
L 109.864894 -87.739877 
L 109.097954 -86.187602 
L 108.331014 -84.673298 
L 107.564074 -83.196851 
L 106.797134 -81.758084 
L 106.030194 -80.356764 
L 105.263254 -78.992603 
L 104.496314 -77.665265 
L 103.729374 -76.374365 
L 102.962434 -75.119479 
L 102.195494 -73.900141 
L 101.428554 -72.715851 
L 100.661614 -71.540098 
L 99.894674 -70.3706 
L 99.127734 -69.290069 
L 98.360794 -68.209292 
L 97.593854 -67.195739 
L 96.826914 -66.213536 
L 96.059974 -65.201725 
L 95.293034 -64.16237 
L 94.526094 -63.276961 
L 93.759154 -62.419976 
L 92.992214 -61.590721 
L 92.225274 -60.788501 
L 91.458334 -60.012617 
L 90.691394 -59.26237 
L 89.924454 -58.537063 
L 89.157514 -57.836 
L 88.390574 -57.15849 
L 87.623634 -56.503845 
L 86.856694 -55.871387 
L 86.089753 -55.26044 
L 85.322813 -54.67034 
L 84.555873 -54.100431 
L 83.788933 -53.550064 
L 83.021993 -53.018604 
L 82.255053 -52.505424 
L 81.488113 -52.009909 
L 80.721173 -51.531456 
L 79.954233 -51.069475 
L 79.187293 -50.623385 
L 78.420353 -50.192622 
L 77.653413 -49.776631 
L 76.886473 -49.374872 
L 76.119533 -48.986817 
L 75.352593 -48.611951 
L 74.585653 -48.249774 
L 73.818713 -47.899796 
L 73.051773 -47.561541 
L 72.284833 -47.234547 
L 71.517893 -46.918363 
L 70.750953 -46.612553 
L 69.984013 -46.316689 
L 69.217073 -46.03036 
L 68.450133 -45.753164 
L 67.683193 -45.484712 
L 66.916253 -45.224626 
L 66.149313 -44.972539 
L 65.382373 -44.728096 
L 64.615433 -44.490951 
L 63.848493 -44.260771 
L 63.081553 -44.037232 
L 62.314613 -43.820018 
L 61.547673 -43.608826 
L 60.780733 -43.403359 
L 60.013793 -43.203333 
L 59.246852 -43.008468 
L 58.479912 -42.818496 
L 57.712972 -42.633157 
L 56.946032 -42.452197 
L 56.179092 -42.27537 
L 55.412152 -42.10244 
L 54.645212 -41.933174 
L 53.878272 -41.76735 
L 53.111332 -41.604749 
L 52.344392 -41.445161 
L 51.577452 -41.28838 
L 50.810512 -41.134207 
L 50.043572 -40.982449 
L 49.276632 -40.832917 
L 48.509692 -40.793474 
L 47.742752 -40.755954 
L 46.975812 -40.718819 
L 46.208872 -40.681999 
z
" id="m11418454b2" style="stroke:#0000ff;stroke-opacity:0.1;"/>
    </defs>
    <g clip-path="url(#p90a7cf6ea8)">
     <use style="fill:#0000ff;fill-opacity:0.1;stroke:#0000ff;stroke-opacity:0.1;" x="0" xlink:href="#m11418454b2" y="282.868594"/>
    </g>
   </g>
   <g id="matplotlib.axis_1">
    <g id="xtick_1">
     <g id="line2d_1">
      <defs>
       <path d="M 0 0 
L 0 -6 
" id="m6bdd215ad0" style="stroke:#000000;stroke-width:2;"/>
      </defs>
      <g>
       <use style="stroke:#000000;stroke-width:2;" x="69.828324" xlink:href="#m6bdd215ad0" y="242.037656"/>
      </g>
     </g>
     <g id="text_1">
      <text style="font-family:DejaVu Sans;font-size:13px;font-stretch:normal;font-style:normal;font-weight:medium;text-anchor:middle;" transform="rotate(-0, 69.828324, 255.415625)" x="69.828324" y="255.415625">−15</text>
     </g>
    </g>
    <g id="xtick_2">
     <g id="line2d_2">
      <g>
       <use style="stroke:#000000;stroke-width:2;" x="100.174351" xlink:href="#m6bdd215ad0" y="242.037656"/>
      </g>
     </g>
     <g id="text_2">
      <text style="font-family:DejaVu Sans;font-size:13px;font-stretch:normal;font-style:normal;font-weight:medium;text-anchor:middle;" transform="rotate(-0, 100.174351, 255.415625)" x="100.174351" y="255.415625">−10</text>
     </g>
    </g>
    <g id="xtick_3">
     <g id="line2d_3">
      <g>
       <use style="stroke:#000000;stroke-width:2;" x="130.520379" xlink:href="#m6bdd215ad0" y="242.037656"/>
      </g>
     </g>
     <g id="text_3">
      <text style="font-family:DejaVu Sans;font-size:13px;font-stretch:normal;font-style:normal;font-weight:medium;text-anchor:middle;" transform="rotate(-0, 130.520379, 255.415625)" x="130.520379" y="255.415625">−5</text>
     </g>
    </g>
    <g id="xtick_4">
     <g id="line2d_4">
      <g>
       <use style="stroke:#000000;stroke-width:2;" x="160.866406" xlink:href="#m6bdd215ad0" y="242.037656"/>
      </g>
     </g>
     <g id="text_4">
      <text style="font-family:DejaVu Sans;font-size:13px;font-stretch:normal;font-style:normal;font-weight:medium;text-anchor:middle;" transform="rotate(-0, 160.866406, 255.415625)" x="160.866406" y="255.415625">0</text>
     </g>
    </g>
    <g id="xtick_5">
     <g id="line2d_5">
      <g>
       <use style="stroke:#000000;stroke-width:2;" x="191.212434" xlink:href="#m6bdd215ad0" y="242.037656"/>
      </g>
     </g>
     <g id="text_5">
      <text style="font-family:DejaVu Sans;font-size:13px;font-stretch:normal;font-style:normal;font-weight:medium;text-anchor:middle;" transform="rotate(-0, 191.212434, 255.415625)" x="191.212434" y="255.415625">5</text>
     </g>
    </g>
    <g id="xtick_6">
     <g id="line2d_6">
      <g>
       <use style="stroke:#000000;stroke-width:2;" x="221.558461" xlink:href="#m6bdd215ad0" y="242.037656"/>
      </g>
     </g>
     <g id="text_6">
      <text style="font-family:DejaVu Sans;font-size:13px;font-stretch:normal;font-style:normal;font-weight:medium;text-anchor:middle;" transform="rotate(-0, 221.558461, 255.415625)" x="221.558461" y="255.415625">10</text>
     </g>
    </g>
    <g id="xtick_7">
     <g id="line2d_7">
      <g>
       <use style="stroke:#000000;stroke-width:2;" x="251.904488" xlink:href="#m6bdd215ad0" y="242.037656"/>
      </g>
     </g>
     <g id="text_7">
      <text style="font-family:DejaVu Sans;font-size:13px;font-stretch:normal;font-style:normal;font-weight:medium;text-anchor:middle;" transform="rotate(-0, 251.904488, 255.415625)" x="251.904488" y="255.415625">15</text>
     </g>
    </g>
    <g id="text_8">
     <text style="font-family:DejaVu Sans;font-size:14px;font-stretch:normal;font-style:normal;font-weight:medium;text-anchor:middle;" transform="rotate(-0, 160.866406, 272.757031)" x="160.866406" y="272.757031">Sequential stimulus separation JNDs (CRDs)</text>
    </g>
   </g>
   <g id="matplotlib.axis_2">
    <g id="ytick_1">
     <g id="line2d_8">
      <defs>
       <path d="M 0 0 
L 6 0 
" id="m481c407772" style="stroke:#000000;stroke-width:2;"/>
      </defs>
      <g>
       <use style="stroke:#000000;stroke-width:2;" x="49.266406" xlink:href="#m481c407772" y="242.037656"/>
      </g>
     </g>
     <g id="text_9">
      <text style="font-family:DejaVu Sans;font-size:13px;font-stretch:normal;font-style:normal;font-weight:medium;text-anchor:end;" transform="rotate(-0, 45.766406, 246.976641)" x="45.766406" y="246.976641">0</text>
     </g>
    </g>
    <g id="ytick_2">
     <g id="line2d_9">
      <g>
       <use style="stroke:#000000;stroke-width:2;" x="49.266406" xlink:href="#m481c407772" y="205.797656"/>
      </g>
     </g>
     <g id="text_10">
      <text style="font-family:DejaVu Sans;font-size:13px;font-stretch:normal;font-style:normal;font-weight:medium;text-anchor:end;" transform="rotate(-0, 45.766406, 210.736641)" x="45.766406" y="210.736641">5</text>
     </g>
    </g>
    <g id="ytick_3">
     <g id="line2d_10">
      <g>
       <use style="stroke:#000000;stroke-width:2;" x="49.266406" xlink:href="#m481c407772" y="169.557656"/>
      </g>
     </g>
     <g id="text_11">
      <text style="font-family:DejaVu Sans;font-size:13px;font-stretch:normal;font-style:normal;font-weight:medium;text-anchor:end;" transform="rotate(-0, 45.766406, 174.496641)" x="45.766406" y="174.496641">10</text>
     </g>
    </g>
    <g id="ytick_4">
     <g id="line2d_11">
      <g>
       <use style="stroke:#000000;stroke-width:2;" x="49.266406" xlink:href="#m481c407772" y="133.317656"/>
      </g>
     </g>
     <g id="text_12">
      <text style="font-family:DejaVu Sans;font-size:13px;font-stretch:normal;font-style:normal;font-weight:medium;text-anchor:end;" transform="rotate(-0, 45.766406, 138.256641)" x="45.766406" y="138.256641">15</text>
     </g>
    </g>
    <g id="ytick_5">
     <g id="line2d_12">
      <g>
       <use style="stroke:#000000;stroke-width:2;" x="49.266406" xlink:href="#m481c407772" y="97.077656"/>
      </g>
     </g>
     <g id="text_13">
      <text style="font-family:DejaVu Sans;font-size:13px;font-stretch:normal;font-style:normal;font-weight:medium;text-anchor:end;" transform="rotate(-0, 45.766406, 102.016641)" x="45.766406" y="102.016641">20</text>
     </g>
    </g>
    <g id="ytick_6">
     <g id="line2d_13">
      <g>
       <use style="stroke:#000000;stroke-width:2;" x="49.266406" xlink:href="#m481c407772" y="60.837656"/>
      </g>
     </g>
     <g id="text_14">
      <text style="font-family:DejaVu Sans;font-size:13px;font-stretch:normal;font-style:normal;font-weight:medium;text-anchor:end;" transform="rotate(-0, 45.766406, 65.776641)" x="45.766406" y="65.776641">25</text>
     </g>
    </g>
    <g id="ytick_7">
     <g id="line2d_14">
      <g>
       <use style="stroke:#000000;stroke-width:2;" x="49.266406" xlink:href="#m481c407772" y="24.597656"/>
      </g>
     </g>
     <g id="text_15">
      <text style="font-family:DejaVu Sans;font-size:13px;font-stretch:normal;font-style:normal;font-weight:medium;text-anchor:end;" transform="rotate(-0, 45.766406, 29.536641)" x="45.766406" y="29.536641">30</text>
     </g>
    </g>
    <g id="text_16">
     <text style="font-family:DejaVu Sans;font-size:14px;font-stretch:normal;font-style:normal;font-weight:medium;text-anchor:middle;" transform="rotate(-90, 22.312344, 133.317656)" x="22.312344" y="133.317656">Efficiency (% capture)</text>
    </g>
   </g>
   <g id="line2d_15">
    <path clip-path="url(#p90a7cf6ea8)" d="M 46.208872 242.370112 
L 56.179092 241.204071 
L 63.081553 240.170598 
L 68.450133 239.139427 
L 73.051773 238.025508 
L 76.886473 236.881982 
L 80.721173 235.490035 
L 83.788933 234.158211 
L 86.856694 232.594875 
L 89.924454 230.760968 
L 92.992214 228.613407 
L 95.293034 226.76895 
L 97.593854 224.701108 
L 99.894674 222.38879 
L 102.195494 219.810512 
L 104.496314 216.945595 
L 106.797134 213.774454 
L 109.097954 210.279392 
L 111.398774 206.445782 
L 113.699595 202.263089 
L 116.767355 196.135215 
L 119.835115 189.383605 
L 122.902875 182.042199 
L 125.970635 174.173404 
L 129.805335 163.751185 
L 142.076376 129.667294 
L 145.144136 122.126687 
L 147.444956 117.043846 
L 149.745776 112.566946 
L 151.279656 109.966252 
L 152.813536 107.702517 
L 154.347416 105.798177 
L 155.881296 104.272419 
L 157.415176 103.140821 
L 158.949056 102.415053 
L 160.482936 102.102653 
L 162.016816 102.206877 
L 163.550696 102.726638 
L 165.084576 103.656526 
L 166.618456 104.986914 
L 168.152337 106.704143 
L 169.686217 108.790791 
L 171.220097 111.225997 
L 172.753977 113.985854 
L 175.054797 118.675757 
L 177.355617 123.937964 
L 180.423377 131.662251 
L 184.258077 142.096338 
L 196.529118 176.185468 
L 199.596878 183.929683 
L 202.664638 191.12872 
L 205.732398 197.72627 
L 208.800158 203.696553 
L 211.100978 207.762016 
L 213.401798 211.48138 
L 215.702618 214.866674 
L 218.003438 217.933638 
L 220.304258 220.70078 
L 222.605079 223.188053 
L 224.905899 225.416515 
L 227.206719 227.407545 
L 230.274479 229.729232 
L 233.342239 231.714346 
L 236.409999 233.407826 
L 239.477759 234.850784 
L 242.545519 236.08019 
L 246.380219 237.366213 
L 250.21492 238.424817 
L 254.81656 239.459755 
L 260.18514 240.42412 
L 267.0876 241.402307 
L 275.52394 242.370112 
L 275.52394 242.370112 
" style="fill:none;stroke:#000000;stroke-linecap:square;stroke-width:2;"/>
   </g>
   <g id="patch_3">
    <path d="M 49.266406 242.037656 
L 49.266406 24.597656 
" style="fill:none;stroke:#000000;stroke-linecap:square;stroke-linejoin:miter;stroke-width:2;"/>
   </g>
   <g id="patch_4">
    <path d="M 272.466406 242.037656 
L 272.466406 24.597656 
" style="fill:none;stroke:#000000;stroke-linecap:square;stroke-linejoin:miter;stroke-width:2;"/>
   </g>
   <g id="patch_5">
    <path d="M 49.266406 242.037656 
L 272.466406 242.037656 
" style="fill:none;stroke:#000000;stroke-linecap:square;stroke-linejoin:miter;stroke-width:2;"/>
   </g>
   <g id="patch_6">
    <path d="M 49.266406 24.597656 
L 272.466406 24.597656 
" style="fill:none;stroke:#000000;stroke-linecap:square;stroke-linejoin:miter;stroke-width:2;"/>
   </g>
   <g id="text_17">
    <text style="font-family:DejaVu Sans;font-size:15px;font-stretch:normal;font-style:normal;font-weight:normal;text-anchor:middle;" transform="rotate(-0, 160.866406, 18.597656)" x="160.866406" y="18.597656">Radiologists</text>
   </g>
  </g>
 </g>
 <defs>
  <clipPath id="p90a7cf6ea8">
   <rect height="217.44" width="223.2" x="49.266406" y="24.597656"/>
  </clipPath>
 </defs>
</svg>
