<?xml version="1.0" encoding="utf-8" standalone="no"?>
<!DOCTYPE svg PUBLIC "-//W3C//DTD SVG 1.1//EN"
  "http://www.w3.org/Graphics/SVG/1.1/DTD/svg11.dtd">
<!-- Created with matplotlib (https://matplotlib.org/) -->
<svg height="330.74875pt" version="1.1" viewBox="0 0 327.44 330.74875" width="327.44pt" xmlns="http://www.w3.org/2000/svg" xmlns:xlink="http://www.w3.org/1999/xlink">
 <metadata>
  <rdf:RDF xmlns:cc="http://creativecommons.org/ns#" xmlns:dc="http://purl.org/dc/elements/1.1/" xmlns:rdf="http://www.w3.org/1999/02/22-rdf-syntax-ns#">
   <cc:Work>
    <dc:type rdf:resource="http://purl.org/dc/dcmitype/StillImage"/>
    <dc:date>2021-04-13T10:58:22.999917</dc:date>
    <dc:format>image/svg+xml</dc:format>
    <dc:creator>
     <cc:Agent>
      <dc:title>Matplotlib v3.3.4, https://matplotlib.org/</dc:title>
     </cc:Agent>
    </dc:creator>
   </cc:Work>
  </rdf:RDF>
 </metadata>
 <defs>
  <style type="text/css">*{stroke-linecap:butt;stroke-linejoin:round;}</style>
 </defs>
 <g id="figure_1">
  <g id="patch_1">
   <path d="M 0 330.74875 
L 327.44 330.74875 
L 327.44 0 
L 0 0 
z
" style="fill:none;"/>
  </g>
  <g id="axes_1">
   <g id="patch_2">
    <path d="M 41.24 285.07875 
L 320.24 285.07875 
L 320.24 13.27875 
L 41.24 13.27875 
z
" style="fill:#ffffff;"/>
   </g>
   <g id="matplotlib.axis_1">
    <g id="xtick_1">
     <g id="line2d_1">
      <defs>
       <path d="M 0 0 
L 0 -6 
" id="mf54ba386b4" style="stroke:#000000;stroke-width:2;"/>
      </defs>
      <g>
       <use style="stroke:#000000;stroke-width:2;" x="69.14" xlink:href="#mf54ba386b4" y="285.07875"/>
      </g>
     </g>
     <g id="text_1">
      <text style="font-family:DejaVu Sans;font-size:16px;font-stretch:normal;font-style:normal;font-weight:medium;text-anchor:middle;" transform="rotate(-0, 69.14, 300.73625)" x="69.14" y="300.73625">−20</text>
     </g>
    </g>
    <g id="xtick_2">
     <g id="line2d_2">
      <g>
       <use style="stroke:#000000;stroke-width:2;" x="124.94" xlink:href="#mf54ba386b4" y="285.07875"/>
      </g>
     </g>
     <g id="text_2">
      <text style="font-family:DejaVu Sans;font-size:16px;font-stretch:normal;font-style:normal;font-weight:medium;text-anchor:middle;" transform="rotate(-0, 124.94, 300.73625)" x="124.94" y="300.73625">−10</text>
     </g>
    </g>
    <g id="xtick_3">
     <g id="line2d_3">
      <g>
       <use style="stroke:#000000;stroke-width:2;" x="180.74" xlink:href="#mf54ba386b4" y="285.07875"/>
      </g>
     </g>
     <g id="text_3">
      <text style="font-family:DejaVu Sans;font-size:16px;font-stretch:normal;font-style:normal;font-weight:medium;text-anchor:middle;" transform="rotate(-0, 180.74, 300.73625)" x="180.74" y="300.73625">0</text>
     </g>
    </g>
    <g id="xtick_4">
     <g id="line2d_4">
      <g>
       <use style="stroke:#000000;stroke-width:2;" x="236.54" xlink:href="#mf54ba386b4" y="285.07875"/>
      </g>
     </g>
     <g id="text_4">
      <text style="font-family:DejaVu Sans;font-size:16px;font-stretch:normal;font-style:normal;font-weight:medium;text-anchor:middle;" transform="rotate(-0, 236.54, 300.73625)" x="236.54" y="300.73625">10</text>
     </g>
    </g>
    <g id="xtick_5">
     <g id="line2d_5">
      <g>
       <use style="stroke:#000000;stroke-width:2;" x="292.34" xlink:href="#mf54ba386b4" y="285.07875"/>
      </g>
     </g>
     <g id="text_5">
      <text style="font-family:DejaVu Sans;font-size:16px;font-stretch:normal;font-style:normal;font-weight:medium;text-anchor:middle;" transform="rotate(-0, 292.34, 300.73625)" x="292.34" y="300.73625">20</text>
     </g>
    </g>
    <g id="text_6">
     <text style="font-family:DejaVu Sans;font-size:16px;font-stretch:normal;font-style:normal;font-weight:medium;text-anchor:middle;" transform="rotate(-0, 180.74, 320.22125)" x="180.74" y="320.22125">Response Error</text>
    </g>
   </g>
   <g id="matplotlib.axis_2">
    <g id="ytick_1">
     <g id="line2d_6">
      <defs>
       <path d="M 0 0 
L 6 0 
" id="m59148bc72d" style="stroke:#000000;stroke-width:2;"/>
      </defs>
      <g>
       <use style="stroke:#000000;stroke-width:2;" x="41.24" xlink:href="#m59148bc72d" y="285.07875"/>
      </g>
     </g>
     <g id="text_7">
      <text style="font-family:DejaVu Sans;font-size:16px;font-stretch:normal;font-style:normal;font-weight:medium;text-anchor:end;" transform="rotate(-0, 37.74, 291.1575)" x="37.74" y="291.1575">0</text>
     </g>
    </g>
    <g id="ytick_2">
     <g id="line2d_7">
      <g>
       <use style="stroke:#000000;stroke-width:2;" x="41.24" xlink:href="#m59148bc72d" y="217.12875"/>
      </g>
     </g>
     <g id="text_8">
      <text style="font-family:DejaVu Sans;font-size:16px;font-stretch:normal;font-style:normal;font-weight:medium;text-anchor:end;" transform="rotate(-0, 37.74, 223.2075)" x="37.74" y="223.2075">25</text>
     </g>
    </g>
    <g id="ytick_3">
     <g id="line2d_8">
      <g>
       <use style="stroke:#000000;stroke-width:2;" x="41.24" xlink:href="#m59148bc72d" y="149.17875"/>
      </g>
     </g>
     <g id="text_9">
      <text style="font-family:DejaVu Sans;font-size:16px;font-stretch:normal;font-style:normal;font-weight:medium;text-anchor:end;" transform="rotate(-0, 37.74, 155.2575)" x="37.74" y="155.2575">50</text>
     </g>
    </g>
    <g id="ytick_4">
     <g id="line2d_9">
      <g>
       <use style="stroke:#000000;stroke-width:2;" x="41.24" xlink:href="#m59148bc72d" y="81.22875"/>
      </g>
     </g>
     <g id="text_10">
      <text style="font-family:DejaVu Sans;font-size:16px;font-stretch:normal;font-style:normal;font-weight:medium;text-anchor:end;" transform="rotate(-0, 37.74, 87.3075)" x="37.74" y="87.3075">75</text>
     </g>
    </g>
    <g id="ytick_5">
     <g id="line2d_10">
      <g>
       <use style="stroke:#000000;stroke-width:2;" x="41.24" xlink:href="#m59148bc72d" y="13.27875"/>
      </g>
     </g>
     <g id="text_11">
      <text style="font-family:DejaVu Sans;font-size:16px;font-stretch:normal;font-style:normal;font-weight:medium;text-anchor:end;" transform="rotate(-0, 37.74, 19.3575)" x="37.74" y="19.3575">100</text>
     </g>
    </g>
   </g>
   <g id="line2d_11">
    <path clip-path="url(#p9667eebb6d)" d="M 46.59131 257.893101 
L 51.948222 257.890139 
L 57.305134 257.885623 
L 62.662046 257.87874 
L 68.018958 257.868248 
L 73.37587 257.852255 
L 78.732782 257.82788 
L 84.089694 257.790733 
L 89.446607 257.734129 
L 94.803519 257.647897 
L 100.160431 257.516575 
L 105.517343 257.316689 
L 110.874255 257.012686 
L 116.231167 256.550892 
L 121.588079 255.850699 
L 126.944991 254.791995 
L 132.301903 253.197957 
L 137.658815 250.813076 
L 143.015727 247.27866 
L 148.372639 242.113535 
L 153.729551 234.717888 
L 159.086463 224.4323 
L 164.443375 210.691941 
L 169.800287 193.29132 
L 175.157199 172.687304 
L 180.514111 150.145172 
L 185.871023 127.519633 
L 191.227935 106.692425 
L 196.584847 88.992901 
L 201.941759 74.944462 
L 207.298671 64.386356 
L 212.655583 56.772475 
L 218.012495 51.443835 
L 223.369407 47.792254 
L 228.726319 45.325889 
L 234.083231 43.676296 
L 239.440144 42.580211 
L 244.797056 41.855083 
L 250.153968 41.376751 
L 255.51088 41.061821 
L 260.867792 40.854733 
L 266.224704 40.718672 
L 271.581616 40.629325 
L 276.938528 40.570675 
L 282.29544 40.532184 
L 287.652352 40.506927 
L 293.009264 40.490356 
L 298.366176 40.479484 
L 303.723088 40.472352 
L 309.08 40.467673 
" style="fill:none;stroke:#008000;stroke-linecap:square;stroke-width:4;"/>
   </g>
   <g id="line2d_12">
    <path clip-path="url(#p9667eebb6d)" d="M 162.109276 285.07875 
L 162.109276 222.56475 
" style="fill:none;stroke:#ff0000;stroke-dasharray:5.55,2.4;stroke-dashoffset:0;stroke-width:1.5;"/>
   </g>
   <g id="line2d_13">
    <path clip-path="url(#p9667eebb6d)" d="M 199.370724 285.07875 
L 199.370724 81.22875 
" style="fill:none;stroke:#0000ff;stroke-dasharray:5.55,2.4;stroke-dashoffset:0;stroke-width:1.5;"/>
   </g>
   <g id="line2d_14">
    <path clip-path="url(#p9667eebb6d)" d="M 41.24 217.12875 
L 162.605 217.12875 
" style="fill:none;stroke:#ff0000;stroke-dasharray:5.55,2.4;stroke-dashoffset:0;stroke-width:1.5;"/>
   </g>
   <g id="line2d_15">
    <path clip-path="url(#p9667eebb6d)" d="M 41.24 81.22875 
L 197.48 81.22875 
" style="fill:none;stroke:#0000ff;stroke-dasharray:5.55,2.4;stroke-dashoffset:0;stroke-width:1.5;"/>
   </g>
   <g id="patch_3">
    <path d="M 41.24 285.07875 
L 41.24 13.27875 
" style="fill:none;stroke:#000000;stroke-linecap:square;stroke-linejoin:miter;stroke-width:2;"/>
   </g>
   <g id="patch_4">
    <path d="M 320.24 285.07875 
L 320.24 13.27875 
" style="fill:none;stroke:#000000;stroke-linecap:square;stroke-linejoin:miter;stroke-width:2;"/>
   </g>
   <g id="patch_5">
    <path d="M 41.24 285.07875 
L 320.24 285.07875 
" style="fill:none;stroke:#000000;stroke-linecap:square;stroke-linejoin:miter;stroke-width:2;"/>
   </g>
   <g id="patch_6">
    <path d="M 41.24 13.27875 
L 320.24 13.27875 
" style="fill:none;stroke:#000000;stroke-linecap:square;stroke-linejoin:miter;stroke-width:2;"/>
   </g>
  </g>
 </g>
 <defs>
  <clipPath id="p9667eebb6d">
   <rect height="271.8" width="279" x="41.24" y="13.27875"/>
  </clipPath>
 </defs>
</svg>
