<?xml version="1.0" encoding="utf-8" standalone="no"?>
<!DOCTYPE svg PUBLIC "-//W3C//DTD SVG 1.1//EN"
  "http://www.w3.org/Graphics/SVG/1.1/DTD/svg11.dtd">
<!-- Created with matplotlib (https://matplotlib.org/) -->
<svg height="282.868594pt" version="1.1" viewBox="0 0 321.732813 282.868594" width="321.732813pt" xmlns="http://www.w3.org/2000/svg" xmlns:xlink="http://www.w3.org/1999/xlink">
 <metadata>
  <rdf:RDF xmlns:cc="http://creativecommons.org/ns#" xmlns:dc="http://purl.org/dc/elements/1.1/" xmlns:rdf="http://www.w3.org/1999/02/22-rdf-syntax-ns#">
   <cc:Work>
    <dc:type rdf:resource="http://purl.org/dc/dcmitype/StillImage"/>
    <dc:date>2021-04-19T11:31:03.572283</dc:date>
    <dc:format>image/svg+xml</dc:format>
    <dc:creator>
     <cc:Agent>
      <dc:title>Matplotlib v3.3.4, https://matplotlib.org/</dc:title>
     </cc:Agent>
    </dc:creator>
   </cc:Work>
  </rdf:RDF>
 </metadata>
 <defs>
  <style type="text/css">*{stroke-linecap:butt;stroke-linejoin:round;}</style>
 </defs>
 <g id="figure_1">
  <g id="patch_1">
   <path d="M 0 282.868594 
L 321.732813 282.868594 
L 321.732813 -0 
L 0 -0 
z
" style="fill:none;"/>
  </g>
  <g id="axes_1">
   <g id="patch_2">
    <path d="M 49.266406 242.037656 
L 272.466406 242.037656 
L 272.466406 24.597656 
L 49.266406 24.597656 
z
" style="fill:#ffffff;"/>
   </g>
   <g id="PolyCollection_1">
    <defs>
     <path d="M 43.031963 -40.830938 
L 43.031963 -40.830938 
L 43.820153 -40.872591 
L 44.608344 -40.914874 
L 45.396534 -40.957864 
L 46.184724 -41.001644 
L 46.972914 -41.046294 
L 47.761105 -41.091903 
L 48.549295 -41.138557 
L 49.337485 -41.18635 
L 50.125675 -41.235377 
L 50.913866 -41.285736 
L 51.702056 -41.33753 
L 52.490246 -41.390865 
L 53.278436 -41.445854 
L 54.066627 -41.502611 
L 54.854817 -41.561256 
L 55.643007 -41.621916 
L 56.431197 -41.68472 
L 57.219388 -41.749807 
L 58.007578 -41.817317 
L 58.795768 -41.8874 
L 59.583958 -41.960212 
L 60.372149 -42.035915 
L 61.160339 -42.114678 
L 61.948529 -42.19668 
L 62.736719 -42.282106 
L 63.52491 -42.371151 
L 64.3131 -42.464016 
L 65.10129 -42.560915 
L 65.88948 -42.66207 
L 66.677671 -42.767712 
L 67.465861 -42.878084 
L 68.254051 -42.99344 
L 69.042241 -43.114045 
L 69.830432 -43.240175 
L 70.618622 -43.372121 
L 71.406812 -43.49775 
L 72.195002 -43.641575 
L 72.983193 -43.79213 
L 73.771383 -43.945953 
L 74.559573 -44.109228 
L 75.347763 -44.28179 
L 76.135954 -44.462524 
L 76.924144 -44.630944 
L 77.712334 -44.826996 
L 78.500525 -45.03353 
L 79.288715 -45.249888 
L 80.076905 -45.476537 
L 80.865095 -45.713962 
L 81.653286 -45.962664 
L 82.441476 -46.223165 
L 83.229666 -46.496005 
L 84.017856 -46.78174 
L 84.806047 -47.080948 
L 85.594237 -47.394224 
L 86.382427 -47.690618 
L 87.170617 -48.010067 
L 87.958808 -48.293488 
L 88.746998 -48.590382 
L 89.535188 -48.953182 
L 90.323378 -49.318249 
L 91.111569 -49.734167 
L 91.899759 -50.168933 
L 92.687949 -50.586505 
L 93.476139 -51.008897 
L 94.26433 -51.500331 
L 95.05252 -51.939949 
L 95.84071 -52.427656 
L 96.6289 -52.936158 
L 97.417091 -53.458 
L 98.205281 -53.917112 
L 98.993471 -54.39044 
L 99.781661 -54.933031 
L 100.569852 -55.543543 
L 101.358042 -56.086164 
L 102.146232 -56.644704 
L 102.934422 -57.273215 
L 103.722613 -57.854396 
L 104.510803 -58.622662 
L 105.298993 -59.273766 
L 106.087183 -59.894255 
L 106.875374 -60.571405 
L 107.663564 -61.223686 
L 108.451754 -61.89121 
L 109.239944 -62.573947 
L 110.028135 -63.344025 
L 110.816325 -64.162775 
L 111.604515 -64.896251 
L 112.392706 -65.64463 
L 113.180896 -66.407721 
L 113.969086 -67.185297 
L 114.757276 -67.977095 
L 115.545467 -68.91601 
L 116.333657 -69.817989 
L 117.121847 -70.656723 
L 117.910037 -71.508321 
L 118.698228 -72.372312 
L 119.486418 -73.277213 
L 120.274608 -74.404441 
L 121.062798 -75.309596 
L 121.850989 -76.286452 
L 122.639179 -77.541929 
L 123.427369 -78.501261 
L 124.215559 -79.453166 
L 125.00375 -80.422446 
L 125.79194 -81.387986 
L 126.58013 -82.35883 
L 127.36832 -83.333994 
L 128.156511 -84.312446 
L 128.944701 -85.293115 
L 129.732891 -86.274887 
L 130.521081 -87.256609 
L 131.309272 -88.237089 
L 132.097462 -89.215101 
L 132.885652 -90.467061 
L 133.673842 -91.491088 
L 134.462033 -92.460371 
L 135.250223 -93.421918 
L 136.038413 -94.37435 
L 136.826603 -95.316272 
L 137.614794 -96.246268 
L 138.402984 -97.162915 
L 139.191174 -98.064776 
L 139.979364 -98.950413 
L 140.767555 -99.818386 
L 141.555745 -100.667256 
L 142.343935 -101.531778 
L 143.132125 -102.381579 
L 143.920316 -103.207386 
L 144.708506 -104.007678 
L 145.496696 -104.780962 
L 146.284887 -105.525775 
L 147.073077 -106.239127 
L 147.861267 -106.888042 
L 148.649457 -107.505639 
L 149.437648 -108.090747 
L 150.225838 -108.642244 
L 151.014028 -109.159065 
L 151.802218 -109.640201 
L 152.590409 -110.084708 
L 153.378599 -110.491705 
L 154.166789 -110.860382 
L 154.954979 -111.190002 
L 155.74317 -111.479899 
L 156.53136 -111.729489 
L 157.31955 -111.938263 
L 158.10774 -112.105798 
L 158.895931 -112.23175 
L 159.684121 -112.315861 
L 160.472311 -112.35796 
L 161.260501 -112.35796 
L 162.048692 -112.315861 
L 162.836882 -112.23175 
L 163.625072 -112.105798 
L 164.413262 -111.938263 
L 165.201453 -111.729489 
L 165.989643 -111.479899 
L 166.777833 -111.190002 
L 167.566023 -110.860382 
L 168.354214 -110.491705 
L 169.142404 -110.084708 
L 169.930594 -109.640201 
L 170.718784 -109.159065 
L 171.506975 -108.642244 
L 172.295165 -108.090747 
L 173.083355 -107.505639 
L 173.871545 -106.888042 
L 174.659736 -106.239127 
L 175.447926 -105.525775 
L 176.236116 -104.780962 
L 177.024306 -104.007678 
L 177.812497 -103.207386 
L 178.600687 -102.381579 
L 179.388877 -101.531778 
L 180.177068 -100.667256 
L 180.965258 -99.818386 
L 181.753448 -98.950413 
L 182.541638 -98.064776 
L 183.329829 -97.162915 
L 184.118019 -96.246268 
L 184.906209 -95.316272 
L 185.694399 -94.37435 
L 186.48259 -93.421918 
L 187.27078 -92.460371 
L 188.05897 -91.491088 
L 188.84716 -90.467061 
L 189.635351 -89.215101 
L 190.423541 -88.237089 
L 191.211731 -87.256609 
L 191.999921 -86.274887 
L 192.788112 -85.293115 
L 193.576302 -84.312446 
L 194.364492 -83.333994 
L 195.152682 -82.35883 
L 195.940873 -81.387986 
L 196.729063 -80.422446 
L 197.517253 -79.453166 
L 198.305443 -78.501261 
L 199.093634 -77.541929 
L 199.881824 -76.286452 
L 200.670014 -75.309596 
L 201.458204 -74.404441 
L 202.246395 -73.277213 
L 203.034585 -72.372312 
L 203.822775 -71.508321 
L 204.610965 -70.656723 
L 205.399156 -69.817989 
L 206.187346 -68.91601 
L 206.975536 -67.977095 
L 207.763726 -67.185297 
L 208.551917 -66.407721 
L 209.340107 -65.64463 
L 210.128297 -64.896251 
L 210.916487 -64.162775 
L 211.704678 -63.344025 
L 212.492868 -62.573947 
L 213.281058 -61.89121 
L 214.069249 -61.223686 
L 214.857439 -60.571405 
L 215.645629 -59.894255 
L 216.433819 -59.273766 
L 217.22201 -58.622662 
L 218.0102 -57.854396 
L 218.79839 -57.273215 
L 219.58658 -56.644704 
L 220.374771 -56.086164 
L 221.162961 -55.543543 
L 221.951151 -54.933031 
L 222.739341 -54.39044 
L 223.527532 -53.917112 
L 224.315722 -53.458 
L 225.103912 -52.936158 
L 225.892102 -52.427656 
L 226.680293 -51.939949 
L 227.468483 -51.500331 
L 228.256673 -51.008897 
L 229.044863 -50.586505 
L 229.833054 -50.168933 
L 230.621244 -49.734167 
L 231.409434 -49.318249 
L 232.197624 -48.953182 
L 232.985815 -48.590382 
L 233.774005 -48.293488 
L 234.562195 -48.010067 
L 235.350385 -47.690618 
L 236.138576 -47.394224 
L 236.926766 -47.080948 
L 237.714956 -46.78174 
L 238.503146 -46.496005 
L 239.291337 -46.223165 
L 240.079527 -45.962664 
L 240.867717 -45.713962 
L 241.655907 -45.476537 
L 242.444098 -45.249888 
L 243.232288 -45.03353 
L 244.020478 -44.826996 
L 244.808669 -44.630944 
L 245.596859 -44.462524 
L 246.385049 -44.28179 
L 247.173239 -44.109228 
L 247.96143 -43.945953 
L 248.74962 -43.79213 
L 249.53781 -43.641575 
L 250.326 -43.49775 
L 251.114191 -43.372121 
L 251.902381 -43.240175 
L 252.690571 -43.114045 
L 253.478761 -42.99344 
L 254.266952 -42.878084 
L 255.055142 -42.767712 
L 255.843332 -42.66207 
L 256.631522 -42.560915 
L 257.419713 -42.464016 
L 258.207903 -42.371151 
L 258.996093 -42.282106 
L 259.784283 -42.19668 
L 260.572474 -42.114678 
L 261.360664 -42.035915 
L 262.148854 -41.960212 
L 262.937044 -41.8874 
L 263.725235 -41.817317 
L 264.513425 -41.749807 
L 265.301615 -41.68472 
L 266.089805 -41.621916 
L 266.877996 -41.561256 
L 267.666186 -41.502611 
L 268.454376 -41.445854 
L 269.242566 -41.390865 
L 270.030757 -41.33753 
L 270.818947 -41.285736 
L 271.607137 -41.235377 
L 272.395327 -41.18635 
L 273.183518 -41.138557 
L 273.971708 -41.091903 
L 274.759898 -41.046294 
L 275.548088 -41.001644 
L 276.336279 -40.957864 
L 277.124469 -40.914874 
L 277.912659 -40.872591 
L 278.70085 -40.830938 
L 278.70085 -40.830938 
L 278.70085 -40.830938 
L 277.912659 -40.970809 
L 277.124469 -41.112701 
L 276.336279 -41.25678 
L 275.548088 -41.403219 
L 274.759898 -41.552192 
L 273.971708 -41.703881 
L 273.183518 -41.858473 
L 272.395327 -42.016158 
L 271.607137 -42.177135 
L 270.818947 -42.341606 
L 270.030757 -42.509781 
L 269.242566 -42.681876 
L 268.454376 -42.858111 
L 267.666186 -43.038717 
L 266.877996 -43.223929 
L 266.089805 -43.41399 
L 265.301615 -43.60915 
L 264.513425 -43.809668 
L 263.725235 -44.015809 
L 262.937044 -44.227848 
L 262.148854 -44.446068 
L 261.360664 -44.67076 
L 260.572474 -44.902224 
L 259.784283 -45.14077 
L 258.996093 -45.386716 
L 258.207903 -45.64039 
L 257.419713 -45.902132 
L 256.631522 -46.172288 
L 255.843332 -46.451217 
L 255.055142 -46.739288 
L 254.266952 -47.03688 
L 253.478761 -47.344383 
L 252.690571 -47.662197 
L 251.902381 -47.990735 
L 251.114191 -48.330419 
L 250.326 -48.681684 
L 249.53781 -49.044973 
L 248.74962 -49.420744 
L 247.96143 -49.809465 
L 247.173239 -50.211613 
L 246.385049 -50.62768 
L 245.596859 -51.058166 
L 244.808669 -51.503582 
L 244.020478 -51.964452 
L 243.232288 -52.441308 
L 242.444098 -52.934693 
L 241.655907 -53.445159 
L 240.867717 -53.973271 
L 240.079527 -54.519597 
L 239.291337 -55.084718 
L 238.503146 -55.669222 
L 237.714956 -56.273702 
L 236.926766 -56.89876 
L 236.138576 -57.553335 
L 235.350385 -58.237657 
L 234.562195 -58.943821 
L 233.774005 -59.65889 
L 232.985815 -60.397659 
L 232.197624 -61.160749 
L 231.409434 -61.94878 
L 230.621244 -62.762369 
L 229.833054 -63.602129 
L 229.044863 -64.468669 
L 228.256673 -65.362587 
L 227.468483 -66.284476 
L 226.680293 -67.234914 
L 225.892102 -68.214468 
L 225.103912 -69.223689 
L 224.315722 -70.263109 
L 223.527532 -71.333243 
L 222.739341 -72.434579 
L 221.951151 -73.567583 
L 221.162961 -74.732692 
L 220.374771 -75.930314 
L 219.58658 -77.16082 
L 218.79839 -78.424548 
L 218.0102 -79.721795 
L 217.22201 -81.052815 
L 216.433819 -82.417819 
L 215.645629 -83.816965 
L 214.857439 -85.250362 
L 214.069249 -86.718063 
L 213.281058 -88.231149 
L 212.492868 -89.783751 
L 211.704678 -91.478876 
L 210.916487 -93.290532 
L 210.128297 -95.030065 
L 209.340107 -96.715539 
L 208.551917 -98.434147 
L 207.763726 -100.18538 
L 206.975536 -101.968642 
L 206.187346 -103.783252 
L 205.399156 -105.628439 
L 204.610965 -107.50334 
L 203.822775 -109.406999 
L 203.034585 -111.33836 
L 202.246395 -113.296273 
L 201.458204 -115.279486 
L 200.670014 -117.500058 
L 199.881824 -119.546508 
L 199.093634 -121.667856 
L 198.305443 -123.745469 
L 197.517253 -126.019993 
L 196.729063 -128.727406 
L 195.940873 -130.870985 
L 195.152682 -133.132974 
L 194.364492 -135.787907 
L 193.576302 -137.973888 
L 192.788112 -140.164821 
L 191.999921 -142.708305 
L 191.211731 -145.001371 
L 190.423541 -147.402164 
L 189.635351 -150.405448 
L 188.84716 -153.114153 
L 188.05897 -155.335282 
L 187.27078 -157.822579 
L 186.48259 -160.001432 
L 185.694399 -162.381975 
L 184.906209 -164.605977 
L 184.118019 -167.207795 
L 183.329829 -169.744628 
L 182.541638 -171.881699 
L 181.753448 -174.110929 
L 180.965258 -176.474556 
L 180.177068 -178.537551 
L 179.388877 -180.443879 
L 178.600687 -182.762656 
L 177.812497 -184.633553 
L 177.024306 -186.484207 
L 176.236116 -188.518199 
L 175.447926 -190.480799 
L 174.659736 -192.367809 
L 173.871545 -194.175137 
L 173.083355 -195.898814 
L 172.295165 -197.443362 
L 171.506975 -199.080037 
L 170.718784 -200.530392 
L 169.930594 -201.882746 
L 169.142404 -203.133966 
L 168.354214 -204.281131 
L 167.566023 -205.321545 
L 166.777833 -206.252743 
L 165.989643 -207.072507 
L 165.201453 -207.778875 
L 164.413262 -208.370146 
L 163.625072 -208.849268 
L 162.836882 -209.257628 
L 162.048692 -209.530494 
L 161.260501 -209.667116 
L 160.472311 -209.667116 
L 159.684121 -209.530494 
L 158.895931 -209.257628 
L 158.10774 -208.849268 
L 157.31955 -208.370146 
L 156.53136 -207.778875 
L 155.74317 -207.072507 
L 154.954979 -206.252743 
L 154.166789 -205.321545 
L 153.378599 -204.281131 
L 152.590409 -203.133966 
L 151.802218 -201.882746 
L 151.014028 -200.530392 
L 150.225838 -199.080037 
L 149.437648 -197.443362 
L 148.649457 -195.898814 
L 147.861267 -194.175137 
L 147.073077 -192.367809 
L 146.284887 -190.480799 
L 145.496696 -188.518199 
L 144.708506 -186.484207 
L 143.920316 -184.633553 
L 143.132125 -182.762656 
L 142.343935 -180.443879 
L 141.555745 -178.537551 
L 140.767555 -176.474556 
L 139.979364 -174.110929 
L 139.191174 -171.881699 
L 138.402984 -169.744628 
L 137.614794 -167.207795 
L 136.826603 -164.605977 
L 136.038413 -162.381975 
L 135.250223 -160.001432 
L 134.462033 -157.822579 
L 133.673842 -155.335282 
L 132.885652 -153.114153 
L 132.097462 -150.405448 
L 131.309272 -147.402164 
L 130.521081 -145.001371 
L 129.732891 -142.708305 
L 128.944701 -140.164821 
L 128.156511 -137.973888 
L 127.36832 -135.787907 
L 126.58013 -133.132974 
L 125.79194 -130.870985 
L 125.00375 -128.727406 
L 124.215559 -126.019993 
L 123.427369 -123.745469 
L 122.639179 -121.667856 
L 121.850989 -119.546508 
L 121.062798 -117.500058 
L 120.274608 -115.279486 
L 119.486418 -113.296273 
L 118.698228 -111.33836 
L 117.910037 -109.406999 
L 117.121847 -107.50334 
L 116.333657 -105.628439 
L 115.545467 -103.783252 
L 114.757276 -101.968642 
L 113.969086 -100.18538 
L 113.180896 -98.434147 
L 112.392706 -96.715539 
L 111.604515 -95.030065 
L 110.816325 -93.290532 
L 110.028135 -91.478876 
L 109.239944 -89.783751 
L 108.451754 -88.231149 
L 107.663564 -86.718063 
L 106.875374 -85.250362 
L 106.087183 -83.816965 
L 105.298993 -82.417819 
L 104.510803 -81.052815 
L 103.722613 -79.721795 
L 102.934422 -78.424548 
L 102.146232 -77.16082 
L 101.358042 -75.930314 
L 100.569852 -74.732692 
L 99.781661 -73.567583 
L 98.993471 -72.434579 
L 98.205281 -71.333243 
L 97.417091 -70.263109 
L 96.6289 -69.223689 
L 95.84071 -68.214468 
L 95.05252 -67.234914 
L 94.26433 -66.284476 
L 93.476139 -65.362587 
L 92.687949 -64.468669 
L 91.899759 -63.602129 
L 91.111569 -62.762369 
L 90.323378 -61.94878 
L 89.535188 -61.160749 
L 88.746998 -60.397659 
L 87.958808 -59.65889 
L 87.170617 -58.943821 
L 86.382427 -58.237657 
L 85.594237 -57.553335 
L 84.806047 -56.89876 
L 84.017856 -56.273702 
L 83.229666 -55.669222 
L 82.441476 -55.084718 
L 81.653286 -54.519597 
L 80.865095 -53.973271 
L 80.076905 -53.445159 
L 79.288715 -52.934693 
L 78.500525 -52.441308 
L 77.712334 -51.964452 
L 76.924144 -51.503582 
L 76.135954 -51.058166 
L 75.347763 -50.62768 
L 74.559573 -50.211613 
L 73.771383 -49.809465 
L 72.983193 -49.420744 
L 72.195002 -49.044973 
L 71.406812 -48.681684 
L 70.618622 -48.330419 
L 69.830432 -47.990735 
L 69.042241 -47.662197 
L 68.254051 -47.344383 
L 67.465861 -47.03688 
L 66.677671 -46.739288 
L 65.88948 -46.451217 
L 65.10129 -46.172288 
L 64.3131 -45.902132 
L 63.52491 -45.64039 
L 62.736719 -45.386716 
L 61.948529 -45.14077 
L 61.160339 -44.902224 
L 60.372149 -44.67076 
L 59.583958 -44.446068 
L 58.795768 -44.227848 
L 58.007578 -44.015809 
L 57.219388 -43.809668 
L 56.431197 -43.60915 
L 55.643007 -43.41399 
L 54.854817 -43.223929 
L 54.066627 -43.038717 
L 53.278436 -42.858111 
L 52.490246 -42.681876 
L 51.702056 -42.509781 
L 50.913866 -42.341606 
L 50.125675 -42.177135 
L 49.337485 -42.016158 
L 48.549295 -41.858473 
L 47.761105 -41.703881 
L 46.972914 -41.552192 
L 46.184724 -41.403219 
L 45.396534 -41.25678 
L 44.608344 -41.112701 
L 43.820153 -40.970809 
L 43.031963 -40.830938 
z
" id="m7458eaac32" style="stroke:#0000ff;stroke-opacity:0.1;"/>
    </defs>
    <g clip-path="url(#p9c922c6a51)">
     <use style="fill:#0000ff;fill-opacity:0.1;stroke:#0000ff;stroke-opacity:0.1;" x="0" xlink:href="#m7458eaac32" y="282.868594"/>
    </g>
   </g>
   <g id="matplotlib.axis_1">
    <g id="xtick_1">
     <g id="line2d_1">
      <defs>
       <path d="M 0 0 
L 0 -6 
" id="ma541d9249c" style="stroke:#000000;stroke-width:2;"/>
      </defs>
      <g>
       <use style="stroke:#000000;stroke-width:2;" x="67.305858" xlink:href="#ma541d9249c" y="242.037656"/>
      </g>
     </g>
     <g id="text_1">
      <text style="font-family:DejaVu Sans;font-size:13px;font-stretch:normal;font-style:normal;font-weight:medium;text-anchor:middle;" transform="rotate(-0, 67.305858, 255.415625)" x="67.305858" y="255.415625">−15</text>
     </g>
    </g>
    <g id="xtick_2">
     <g id="line2d_2">
      <g>
       <use style="stroke:#000000;stroke-width:2;" x="98.492708" xlink:href="#ma541d9249c" y="242.037656"/>
      </g>
     </g>
     <g id="text_2">
      <text style="font-family:DejaVu Sans;font-size:13px;font-stretch:normal;font-style:normal;font-weight:medium;text-anchor:middle;" transform="rotate(-0, 98.492708, 255.415625)" x="98.492708" y="255.415625">−10</text>
     </g>
    </g>
    <g id="xtick_3">
     <g id="line2d_3">
      <g>
       <use style="stroke:#000000;stroke-width:2;" x="129.679557" xlink:href="#ma541d9249c" y="242.037656"/>
      </g>
     </g>
     <g id="text_3">
      <text style="font-family:DejaVu Sans;font-size:13px;font-stretch:normal;font-style:normal;font-weight:medium;text-anchor:middle;" transform="rotate(-0, 129.679557, 255.415625)" x="129.679557" y="255.415625">−5</text>
     </g>
    </g>
    <g id="xtick_4">
     <g id="line2d_4">
      <g>
       <use style="stroke:#000000;stroke-width:2;" x="160.866406" xlink:href="#ma541d9249c" y="242.037656"/>
      </g>
     </g>
     <g id="text_4">
      <text style="font-family:DejaVu Sans;font-size:13px;font-stretch:normal;font-style:normal;font-weight:medium;text-anchor:middle;" transform="rotate(-0, 160.866406, 255.415625)" x="160.866406" y="255.415625">0</text>
     </g>
    </g>
    <g id="xtick_5">
     <g id="line2d_5">
      <g>
       <use style="stroke:#000000;stroke-width:2;" x="192.053256" xlink:href="#ma541d9249c" y="242.037656"/>
      </g>
     </g>
     <g id="text_5">
      <text style="font-family:DejaVu Sans;font-size:13px;font-stretch:normal;font-style:normal;font-weight:medium;text-anchor:middle;" transform="rotate(-0, 192.053256, 255.415625)" x="192.053256" y="255.415625">5</text>
     </g>
    </g>
    <g id="xtick_6">
     <g id="line2d_6">
      <g>
       <use style="stroke:#000000;stroke-width:2;" x="223.240105" xlink:href="#ma541d9249c" y="242.037656"/>
      </g>
     </g>
     <g id="text_6">
      <text style="font-family:DejaVu Sans;font-size:13px;font-stretch:normal;font-style:normal;font-weight:medium;text-anchor:middle;" transform="rotate(-0, 223.240105, 255.415625)" x="223.240105" y="255.415625">10</text>
     </g>
    </g>
    <g id="xtick_7">
     <g id="line2d_7">
      <g>
       <use style="stroke:#000000;stroke-width:2;" x="254.426954" xlink:href="#ma541d9249c" y="242.037656"/>
      </g>
     </g>
     <g id="text_7">
      <text style="font-family:DejaVu Sans;font-size:13px;font-stretch:normal;font-style:normal;font-weight:medium;text-anchor:middle;" transform="rotate(-0, 254.426954, 255.415625)" x="254.426954" y="255.415625">15</text>
     </g>
    </g>
    <g id="text_8">
     <text style="font-family:DejaVu Sans;font-size:14px;font-stretch:normal;font-style:normal;font-weight:medium;text-anchor:middle;" transform="rotate(-0, 160.866406, 272.757031)" x="160.866406" y="272.757031">Sequential stimulus separation JNDs (CRDs)</text>
    </g>
   </g>
   <g id="matplotlib.axis_2">
    <g id="ytick_1">
     <g id="line2d_8">
      <defs>
       <path d="M 0 0 
L 6 0 
" id="m4115d7d885" style="stroke:#000000;stroke-width:2;"/>
      </defs>
      <g>
       <use style="stroke:#000000;stroke-width:2;" x="49.266406" xlink:href="#m4115d7d885" y="242.037656"/>
      </g>
     </g>
     <g id="text_9">
      <text style="font-family:DejaVu Sans;font-size:13px;font-stretch:normal;font-style:normal;font-weight:medium;text-anchor:end;" transform="rotate(-0, 45.766406, 246.976641)" x="45.766406" y="246.976641">0</text>
     </g>
    </g>
    <g id="ytick_2">
     <g id="line2d_9">
      <g>
       <use style="stroke:#000000;stroke-width:2;" x="49.266406" xlink:href="#m4115d7d885" y="205.797656"/>
      </g>
     </g>
     <g id="text_10">
      <text style="font-family:DejaVu Sans;font-size:13px;font-stretch:normal;font-style:normal;font-weight:medium;text-anchor:end;" transform="rotate(-0, 45.766406, 210.736641)" x="45.766406" y="210.736641">5</text>
     </g>
    </g>
    <g id="ytick_3">
     <g id="line2d_10">
      <g>
       <use style="stroke:#000000;stroke-width:2;" x="49.266406" xlink:href="#m4115d7d885" y="169.557656"/>
      </g>
     </g>
     <g id="text_11">
      <text style="font-family:DejaVu Sans;font-size:13px;font-stretch:normal;font-style:normal;font-weight:medium;text-anchor:end;" transform="rotate(-0, 45.766406, 174.496641)" x="45.766406" y="174.496641">10</text>
     </g>
    </g>
    <g id="ytick_4">
     <g id="line2d_11">
      <g>
       <use style="stroke:#000000;stroke-width:2;" x="49.266406" xlink:href="#m4115d7d885" y="133.317656"/>
      </g>
     </g>
     <g id="text_12">
      <text style="font-family:DejaVu Sans;font-size:13px;font-stretch:normal;font-style:normal;font-weight:medium;text-anchor:end;" transform="rotate(-0, 45.766406, 138.256641)" x="45.766406" y="138.256641">15</text>
     </g>
    </g>
    <g id="ytick_5">
     <g id="line2d_12">
      <g>
       <use style="stroke:#000000;stroke-width:2;" x="49.266406" xlink:href="#m4115d7d885" y="97.077656"/>
      </g>
     </g>
     <g id="text_13">
      <text style="font-family:DejaVu Sans;font-size:13px;font-stretch:normal;font-style:normal;font-weight:medium;text-anchor:end;" transform="rotate(-0, 45.766406, 102.016641)" x="45.766406" y="102.016641">20</text>
     </g>
    </g>
    <g id="ytick_6">
     <g id="line2d_13">
      <g>
       <use style="stroke:#000000;stroke-width:2;" x="49.266406" xlink:href="#m4115d7d885" y="60.837656"/>
      </g>
     </g>
     <g id="text_14">
      <text style="font-family:DejaVu Sans;font-size:13px;font-stretch:normal;font-style:normal;font-weight:medium;text-anchor:end;" transform="rotate(-0, 45.766406, 65.776641)" x="45.766406" y="65.776641">25</text>
     </g>
    </g>
    <g id="ytick_7">
     <g id="line2d_14">
      <g>
       <use style="stroke:#000000;stroke-width:2;" x="49.266406" xlink:href="#m4115d7d885" y="24.597656"/>
      </g>
     </g>
     <g id="text_15">
      <text style="font-family:DejaVu Sans;font-size:13px;font-stretch:normal;font-style:normal;font-weight:medium;text-anchor:end;" transform="rotate(-0, 45.766406, 29.536641)" x="45.766406" y="29.536641">30</text>
     </g>
    </g>
    <g id="text_16">
     <text style="font-family:DejaVu Sans;font-size:14px;font-stretch:normal;font-style:normal;font-weight:medium;text-anchor:middle;" transform="rotate(-90, 22.312344, 133.317656)" x="22.312344" y="133.317656">Efficiency (% capture)</text>
    </g>
   </g>
   <g id="line2d_15">
    <path clip-path="url(#p9c922c6a51)" d="M 43.031963 242.037656 
L 51.702056 240.888817 
L 58.007578 239.853157 
L 63.52491 238.728764 
L 68.254051 237.54128 
L 72.195002 236.348365 
L 76.135954 234.926916 
L 80.076905 233.229729 
L 83.229666 231.637907 
L 86.382427 229.805924 
L 89.535188 227.702169 
L 92.687949 225.293824 
L 95.84071 222.547803 
L 98.993471 219.432027 
L 102.146232 215.917093 
L 105.298993 211.978324 
L 108.451754 207.598197 
L 111.604515 202.769091 
L 114.757276 197.496226 
L 117.910037 191.800632 
L 121.850989 184.148966 
L 126.58013 174.356588 
L 139.191174 147.674331 
L 142.343935 141.658114 
L 144.708506 137.524876 
L 147.073077 133.79369 
L 149.437648 130.529926 
L 151.014028 128.643352 
L 152.590409 127.006685 
L 154.166789 125.633731 
L 155.74317 124.536233 
L 157.31955 123.723687 
L 158.895931 123.203182 
L 160.472311 122.979286 
L 162.048692 123.053973 
L 163.625072 123.426583 
L 165.201453 124.09384 
L 166.777833 125.049902 
L 168.354214 126.286459 
L 169.930594 127.792871 
L 171.506975 129.556338 
L 173.871545 132.65076 
L 176.236116 136.233144 
L 178.600687 140.239918 
L 181.753448 146.12405 
L 185.694399 154.113145 
L 191.999921 167.603156 
L 198.305443 180.946968 
L 202.246395 188.805895 
L 205.399156 194.69926 
L 208.551917 200.187219 
L 211.704678 205.239777 
L 214.857439 209.844172 
L 218.0102 214.001982 
L 221.162961 217.726135 
L 224.315722 221.038057 
L 227.468483 223.965069 
L 230.621244 226.538145 
L 233.774005 228.79005 
L 236.926766 230.753874 
L 240.079527 232.461929 
L 243.232288 233.944965 
L 247.173239 235.525805 
L 251.114191 236.850514 
L 255.843332 238.164726 
L 260.572474 239.240611 
L 266.089805 240.267748 
L 273.183518 241.335001 
L 278.70085 242.037656 
L 278.70085 242.037656 
" style="fill:none;stroke:#000000;stroke-dasharray:7.4,3.2;stroke-dashoffset:0;stroke-width:2;"/>
   </g>
   <g id="patch_3">
    <path d="M 49.266406 242.037656 
L 49.266406 24.597656 
" style="fill:none;stroke:#000000;stroke-linecap:square;stroke-linejoin:miter;stroke-width:2;"/>
   </g>
   <g id="patch_4">
    <path d="M 272.466406 242.037656 
L 272.466406 24.597656 
" style="fill:none;stroke:#000000;stroke-linecap:square;stroke-linejoin:miter;stroke-width:2;"/>
   </g>
   <g id="patch_5">
    <path d="M 49.266406 242.037656 
L 272.466406 242.037656 
" style="fill:none;stroke:#000000;stroke-linecap:square;stroke-linejoin:miter;stroke-width:2;"/>
   </g>
   <g id="patch_6">
    <path d="M 49.266406 24.597656 
L 272.466406 24.597656 
" style="fill:none;stroke:#000000;stroke-linecap:square;stroke-linejoin:miter;stroke-width:2;"/>
   </g>
   <g id="text_17">
    <text style="font-family:DejaVu Sans;font-size:15px;font-stretch:normal;font-style:normal;font-weight:normal;text-anchor:middle;" transform="rotate(-0, 160.866406, 18.597656)" x="160.866406" y="18.597656">Naives</text>
   </g>
  </g>
 </g>
 <defs>
  <clipPath id="p9c922c6a51">
   <rect height="217.44" width="223.2" x="49.266406" y="24.597656"/>
  </clipPath>
 </defs>
</svg>
