<?xml version="1.0" encoding="utf-8" standalone="no"?>
<!DOCTYPE svg PUBLIC "-//W3C//DTD SVG 1.1//EN"
  "http://www.w3.org/Graphics/SVG/1.1/DTD/svg11.dtd">
<!-- Created with matplotlib (https://matplotlib.org/) -->
<svg height="348.66525pt" version="1.1" viewBox="0 0 336.745 348.66525" width="336.745pt" xmlns="http://www.w3.org/2000/svg" xmlns:xlink="http://www.w3.org/1999/xlink">
 <metadata>
  <rdf:RDF xmlns:cc="http://creativecommons.org/ns#" xmlns:dc="http://purl.org/dc/elements/1.1/" xmlns:rdf="http://www.w3.org/1999/02/22-rdf-syntax-ns#">
   <cc:Work>
    <dc:type rdf:resource="http://purl.org/dc/dcmitype/StillImage"/>
    <dc:date>2021-04-14T14:26:58.564803</dc:date>
    <dc:format>image/svg+xml</dc:format>
    <dc:creator>
     <cc:Agent>
      <dc:title>Matplotlib v3.3.4, https://matplotlib.org/</dc:title>
     </cc:Agent>
    </dc:creator>
   </cc:Work>
  </rdf:RDF>
 </metadata>
 <defs>
  <style type="text/css">*{stroke-linecap:butt;stroke-linejoin:round;}</style>
 </defs>
 <g id="figure_1">
  <g id="patch_1">
   <path d="M 0 348.66525 
L 336.745 348.66525 
L 336.745 0 
L 0 0 
z
" style="fill:none;"/>
  </g>
  <g id="axes_1">
   <g id="patch_2">
    <path d="M 50.545 285.07875 
L 329.545 285.07875 
L 329.545 13.27875 
L 50.545 13.27875 
z
" style="fill:#ffffff;"/>
   </g>
   <g id="patch_3">
    <path clip-path="url(#pf6f0c08c07)" d="M 60.873146 285.07875 
L 65.83325 285.07875 
L 65.83325 271.48875 
L 60.873146 271.48875 
z
" style="fill:#a9a9a9;opacity:0.3;stroke:#000000;stroke-linejoin:miter;"/>
   </g>
   <g id="patch_4">
    <path clip-path="url(#pf6f0c08c07)" d="M 65.83325 285.07875 
L 70.793354 285.07875 
L 70.793354 285.07875 
L 65.83325 285.07875 
z
" style="fill:#a9a9a9;opacity:0.3;stroke:#000000;stroke-linejoin:miter;"/>
   </g>
   <g id="patch_5">
    <path clip-path="url(#pf6f0c08c07)" d="M 70.793354 285.07875 
L 75.753458 285.07875 
L 75.753458 285.07875 
L 70.793354 285.07875 
z
" style="fill:#a9a9a9;opacity:0.3;stroke:#000000;stroke-linejoin:miter;"/>
   </g>
   <g id="patch_6">
    <path clip-path="url(#pf6f0c08c07)" d="M 75.753458 285.07875 
L 80.713561 285.07875 
L 80.713561 285.07875 
L 75.753458 285.07875 
z
" style="fill:#a9a9a9;opacity:0.3;stroke:#000000;stroke-linejoin:miter;"/>
   </g>
   <g id="patch_7">
    <path clip-path="url(#pf6f0c08c07)" d="M 80.713561 285.07875 
L 85.673665 285.07875 
L 85.673665 257.89875 
L 80.713561 257.89875 
z
" style="fill:#a9a9a9;opacity:0.3;stroke:#000000;stroke-linejoin:miter;"/>
   </g>
   <g id="patch_8">
    <path clip-path="url(#pf6f0c08c07)" d="M 85.673665 285.07875 
L 90.633769 285.07875 
L 90.633769 271.48875 
L 85.673665 271.48875 
z
" style="fill:#a9a9a9;opacity:0.3;stroke:#000000;stroke-linejoin:miter;"/>
   </g>
   <g id="patch_9">
    <path clip-path="url(#pf6f0c08c07)" d="M 90.633769 285.07875 
L 95.593873 285.07875 
L 95.593873 257.89875 
L 90.633769 257.89875 
z
" style="fill:#a9a9a9;opacity:0.3;stroke:#000000;stroke-linejoin:miter;"/>
   </g>
   <g id="patch_10">
    <path clip-path="url(#pf6f0c08c07)" d="M 95.593873 285.07875 
L 100.553976 285.07875 
L 100.553976 230.71875 
L 95.593873 230.71875 
z
" style="fill:#a9a9a9;opacity:0.3;stroke:#000000;stroke-linejoin:miter;"/>
   </g>
   <g id="patch_11">
    <path clip-path="url(#pf6f0c08c07)" d="M 100.553976 285.07875 
L 105.51408 285.07875 
L 105.51408 271.48875 
L 100.553976 271.48875 
z
" style="fill:#a9a9a9;opacity:0.3;stroke:#000000;stroke-linejoin:miter;"/>
   </g>
   <g id="patch_12">
    <path clip-path="url(#pf6f0c08c07)" d="M 105.51408 285.07875 
L 110.474184 285.07875 
L 110.474184 271.48875 
L 105.51408 271.48875 
z
" style="fill:#a9a9a9;opacity:0.3;stroke:#000000;stroke-linejoin:miter;"/>
   </g>
   <g id="patch_13">
    <path clip-path="url(#pf6f0c08c07)" d="M 110.474184 285.07875 
L 115.434288 285.07875 
L 115.434288 271.48875 
L 110.474184 271.48875 
z
" style="fill:#a9a9a9;opacity:0.3;stroke:#000000;stroke-linejoin:miter;"/>
   </g>
   <g id="patch_14">
    <path clip-path="url(#pf6f0c08c07)" d="M 115.434288 285.07875 
L 120.394391 285.07875 
L 120.394391 271.48875 
L 115.434288 271.48875 
z
" style="fill:#a9a9a9;opacity:0.3;stroke:#000000;stroke-linejoin:miter;"/>
   </g>
   <g id="patch_15">
    <path clip-path="url(#pf6f0c08c07)" d="M 120.394391 285.07875 
L 125.354495 285.07875 
L 125.354495 244.30875 
L 120.394391 244.30875 
z
" style="fill:#a9a9a9;opacity:0.3;stroke:#000000;stroke-linejoin:miter;"/>
   </g>
   <g id="patch_16">
    <path clip-path="url(#pf6f0c08c07)" d="M 125.354495 285.07875 
L 130.314599 285.07875 
L 130.314599 244.30875 
L 125.354495 244.30875 
z
" style="fill:#a9a9a9;opacity:0.3;stroke:#000000;stroke-linejoin:miter;"/>
   </g>
   <g id="patch_17">
    <path clip-path="url(#pf6f0c08c07)" d="M 130.314599 285.07875 
L 135.274703 285.07875 
L 135.274703 244.30875 
L 130.314599 244.30875 
z
" style="fill:#a9a9a9;opacity:0.3;stroke:#000000;stroke-linejoin:miter;"/>
   </g>
   <g id="patch_18">
    <path clip-path="url(#pf6f0c08c07)" d="M 135.274703 285.07875 
L 140.234806 285.07875 
L 140.234806 217.12875 
L 135.274703 217.12875 
z
" style="fill:#a9a9a9;opacity:0.3;stroke:#000000;stroke-linejoin:miter;"/>
   </g>
   <g id="patch_19">
    <path clip-path="url(#pf6f0c08c07)" d="M 140.234806 285.07875 
L 145.19491 285.07875 
L 145.19491 257.89875 
L 140.234806 257.89875 
z
" style="fill:#a9a9a9;opacity:0.3;stroke:#000000;stroke-linejoin:miter;"/>
   </g>
   <g id="patch_20">
    <path clip-path="url(#pf6f0c08c07)" d="M 145.19491 285.07875 
L 150.155014 285.07875 
L 150.155014 257.89875 
L 145.19491 257.89875 
z
" style="fill:#a9a9a9;opacity:0.3;stroke:#000000;stroke-linejoin:miter;"/>
   </g>
   <g id="patch_21">
    <path clip-path="url(#pf6f0c08c07)" d="M 150.155014 285.07875 
L 155.115117 285.07875 
L 155.115117 162.76875 
L 150.155014 162.76875 
z
" style="fill:#a9a9a9;opacity:0.3;stroke:#000000;stroke-linejoin:miter;"/>
   </g>
   <g id="patch_22">
    <path clip-path="url(#pf6f0c08c07)" d="M 155.115117 285.07875 
L 160.075221 285.07875 
L 160.075221 108.40875 
L 155.115117 108.40875 
z
" style="fill:#a9a9a9;opacity:0.3;stroke:#000000;stroke-linejoin:miter;"/>
   </g>
   <g id="patch_23">
    <path clip-path="url(#pf6f0c08c07)" d="M 160.075221 285.07875 
L 165.035325 285.07875 
L 165.035325 217.12875 
L 160.075221 217.12875 
z
" style="fill:#a9a9a9;opacity:0.3;stroke:#000000;stroke-linejoin:miter;"/>
   </g>
   <g id="patch_24">
    <path clip-path="url(#pf6f0c08c07)" d="M 165.035325 285.07875 
L 169.995429 285.07875 
L 169.995429 189.94875 
L 165.035325 189.94875 
z
" style="fill:#a9a9a9;opacity:0.3;stroke:#000000;stroke-linejoin:miter;"/>
   </g>
   <g id="patch_25">
    <path clip-path="url(#pf6f0c08c07)" d="M 169.995429 285.07875 
L 174.955532 285.07875 
L 174.955532 149.17875 
L 169.995429 149.17875 
z
" style="fill:#a9a9a9;opacity:0.3;stroke:#000000;stroke-linejoin:miter;"/>
   </g>
   <g id="patch_26">
    <path clip-path="url(#pf6f0c08c07)" d="M 174.955532 285.07875 
L 179.915636 285.07875 
L 179.915636 94.81875 
L 174.955532 94.81875 
z
" style="fill:#a9a9a9;opacity:0.3;stroke:#000000;stroke-linejoin:miter;"/>
   </g>
   <g id="patch_27">
    <path clip-path="url(#pf6f0c08c07)" d="M 179.915636 285.07875 
L 184.87574 285.07875 
L 184.87574 244.30875 
L 179.915636 244.30875 
z
" style="fill:#a9a9a9;opacity:0.3;stroke:#000000;stroke-linejoin:miter;"/>
   </g>
   <g id="patch_28">
    <path clip-path="url(#pf6f0c08c07)" d="M 184.87574 285.07875 
L 189.835844 285.07875 
L 189.835844 81.22875 
L 184.87574 81.22875 
z
" style="fill:#a9a9a9;opacity:0.3;stroke:#000000;stroke-linejoin:miter;"/>
   </g>
   <g id="patch_29">
    <path clip-path="url(#pf6f0c08c07)" d="M 189.835844 285.07875 
L 194.795947 285.07875 
L 194.795947 26.86875 
L 189.835844 26.86875 
z
" style="fill:#a9a9a9;opacity:0.3;stroke:#000000;stroke-linejoin:miter;"/>
   </g>
   <g id="patch_30">
    <path clip-path="url(#pf6f0c08c07)" d="M 194.795947 285.07875 
L 199.756051 285.07875 
L 199.756051 176.35875 
L 194.795947 176.35875 
z
" style="fill:#a9a9a9;opacity:0.3;stroke:#000000;stroke-linejoin:miter;"/>
   </g>
   <g id="patch_31">
    <path clip-path="url(#pf6f0c08c07)" d="M 199.756051 285.07875 
L 204.716155 285.07875 
L 204.716155 81.22875 
L 199.756051 81.22875 
z
" style="fill:#a9a9a9;opacity:0.3;stroke:#000000;stroke-linejoin:miter;"/>
   </g>
   <g id="patch_32">
    <path clip-path="url(#pf6f0c08c07)" d="M 204.716155 285.07875 
L 209.676259 285.07875 
L 209.676259 94.81875 
L 204.716155 94.81875 
z
" style="fill:#a9a9a9;opacity:0.3;stroke:#000000;stroke-linejoin:miter;"/>
   </g>
   <g id="patch_33">
    <path clip-path="url(#pf6f0c08c07)" d="M 209.676259 285.07875 
L 214.636362 285.07875 
L 214.636362 40.45875 
L 209.676259 40.45875 
z
" style="fill:#a9a9a9;opacity:0.3;stroke:#000000;stroke-linejoin:miter;"/>
   </g>
   <g id="patch_34">
    <path clip-path="url(#pf6f0c08c07)" d="M 214.636362 285.07875 
L 219.596466 285.07875 
L 219.596466 203.53875 
L 214.636362 203.53875 
z
" style="fill:#a9a9a9;opacity:0.3;stroke:#000000;stroke-linejoin:miter;"/>
   </g>
   <g id="patch_35">
    <path clip-path="url(#pf6f0c08c07)" d="M 219.596466 285.07875 
L 224.55657 285.07875 
L 224.55657 121.99875 
L 219.596466 121.99875 
z
" style="fill:#a9a9a9;opacity:0.3;stroke:#000000;stroke-linejoin:miter;"/>
   </g>
   <g id="patch_36">
    <path clip-path="url(#pf6f0c08c07)" d="M 224.55657 285.07875 
L 229.516674 285.07875 
L 229.516674 162.76875 
L 224.55657 162.76875 
z
" style="fill:#a9a9a9;opacity:0.3;stroke:#000000;stroke-linejoin:miter;"/>
   </g>
   <g id="patch_37">
    <path clip-path="url(#pf6f0c08c07)" d="M 229.516674 285.07875 
L 234.476777 285.07875 
L 234.476777 203.53875 
L 229.516674 203.53875 
z
" style="fill:#a9a9a9;opacity:0.3;stroke:#000000;stroke-linejoin:miter;"/>
   </g>
   <g id="patch_38">
    <path clip-path="url(#pf6f0c08c07)" d="M 234.476777 285.07875 
L 239.436881 285.07875 
L 239.436881 189.94875 
L 234.476777 189.94875 
z
" style="fill:#a9a9a9;opacity:0.3;stroke:#000000;stroke-linejoin:miter;"/>
   </g>
   <g id="patch_39">
    <path clip-path="url(#pf6f0c08c07)" d="M 239.436881 285.07875 
L 244.396985 285.07875 
L 244.396985 217.12875 
L 239.436881 217.12875 
z
" style="fill:#a9a9a9;opacity:0.3;stroke:#000000;stroke-linejoin:miter;"/>
   </g>
   <g id="patch_40">
    <path clip-path="url(#pf6f0c08c07)" d="M 244.396985 285.07875 
L 249.357088 285.07875 
L 249.357088 217.12875 
L 244.396985 217.12875 
z
" style="fill:#a9a9a9;opacity:0.3;stroke:#000000;stroke-linejoin:miter;"/>
   </g>
   <g id="patch_41">
    <path clip-path="url(#pf6f0c08c07)" d="M 249.357088 285.07875 
L 254.317192 285.07875 
L 254.317192 257.89875 
L 249.357088 257.89875 
z
" style="fill:#a9a9a9;opacity:0.3;stroke:#000000;stroke-linejoin:miter;"/>
   </g>
   <g id="patch_42">
    <path clip-path="url(#pf6f0c08c07)" d="M 254.317192 285.07875 
L 259.277296 285.07875 
L 259.277296 257.89875 
L 254.317192 257.89875 
z
" style="fill:#a9a9a9;opacity:0.3;stroke:#000000;stroke-linejoin:miter;"/>
   </g>
   <g id="patch_43">
    <path clip-path="url(#pf6f0c08c07)" d="M 259.277296 285.07875 
L 264.2374 285.07875 
L 264.2374 271.48875 
L 259.277296 271.48875 
z
" style="fill:#a9a9a9;opacity:0.3;stroke:#000000;stroke-linejoin:miter;"/>
   </g>
   <g id="patch_44">
    <path clip-path="url(#pf6f0c08c07)" d="M 264.2374 285.07875 
L 269.197503 285.07875 
L 269.197503 285.07875 
L 264.2374 285.07875 
z
" style="fill:#a9a9a9;opacity:0.3;stroke:#000000;stroke-linejoin:miter;"/>
   </g>
   <g id="patch_45">
    <path clip-path="url(#pf6f0c08c07)" d="M 269.197503 285.07875 
L 274.157607 285.07875 
L 274.157607 257.89875 
L 269.197503 257.89875 
z
" style="fill:#a9a9a9;opacity:0.3;stroke:#000000;stroke-linejoin:miter;"/>
   </g>
   <g id="patch_46">
    <path clip-path="url(#pf6f0c08c07)" d="M 274.157607 285.07875 
L 279.117711 285.07875 
L 279.117711 271.48875 
L 274.157607 271.48875 
z
" style="fill:#a9a9a9;opacity:0.3;stroke:#000000;stroke-linejoin:miter;"/>
   </g>
   <g id="patch_47">
    <path clip-path="url(#pf6f0c08c07)" d="M 279.117711 285.07875 
L 284.077815 285.07875 
L 284.077815 271.48875 
L 279.117711 271.48875 
z
" style="fill:#a9a9a9;opacity:0.3;stroke:#000000;stroke-linejoin:miter;"/>
   </g>
   <g id="patch_48">
    <path clip-path="url(#pf6f0c08c07)" d="M 284.077815 285.07875 
L 289.037918 285.07875 
L 289.037918 271.48875 
L 284.077815 271.48875 
z
" style="fill:#a9a9a9;opacity:0.3;stroke:#000000;stroke-linejoin:miter;"/>
   </g>
   <g id="patch_49">
    <path clip-path="url(#pf6f0c08c07)" d="M 289.037918 285.07875 
L 293.998022 285.07875 
L 293.998022 271.48875 
L 289.037918 271.48875 
z
" style="fill:#a9a9a9;opacity:0.3;stroke:#000000;stroke-linejoin:miter;"/>
   </g>
   <g id="patch_50">
    <path clip-path="url(#pf6f0c08c07)" d="M 293.998022 285.07875 
L 298.958126 285.07875 
L 298.958126 257.89875 
L 293.998022 257.89875 
z
" style="fill:#a9a9a9;opacity:0.3;stroke:#000000;stroke-linejoin:miter;"/>
   </g>
   <g id="patch_51">
    <path clip-path="url(#pf6f0c08c07)" d="M 298.958126 285.07875 
L 303.91823 285.07875 
L 303.91823 271.48875 
L 298.958126 271.48875 
z
" style="fill:#a9a9a9;opacity:0.3;stroke:#000000;stroke-linejoin:miter;"/>
   </g>
   <g id="patch_52">
    <path clip-path="url(#pf6f0c08c07)" d="M 303.91823 285.07875 
L 308.878333 285.07875 
L 308.878333 271.48875 
L 303.91823 271.48875 
z
" style="fill:#a9a9a9;opacity:0.3;stroke:#000000;stroke-linejoin:miter;"/>
   </g>
   <g id="matplotlib.axis_1">
    <g id="xtick_1">
     <g id="line2d_1">
      <defs>
       <path d="M 0 0 
L 0 -6 
" id="m01fcc7d6ea" style="stroke:#000000;stroke-width:2;"/>
      </defs>
      <g>
       <use style="stroke:#000000;stroke-width:2;" x="86.711667" xlink:href="#m01fcc7d6ea" y="285.07875"/>
      </g>
     </g>
     <g id="text_1">
      <text style="font-family:DejaVu Sans;font-size:16px;font-stretch:normal;font-style:normal;font-weight:medium;text-anchor:middle;" transform="rotate(-0, 86.711667, 300.73625)" x="86.711667" y="300.73625">−20</text>
     </g>
    </g>
    <g id="xtick_2">
     <g id="line2d_2">
      <g>
       <use style="stroke:#000000;stroke-width:2;" x="138.378333" xlink:href="#m01fcc7d6ea" y="285.07875"/>
      </g>
     </g>
     <g id="text_2">
      <text style="font-family:DejaVu Sans;font-size:16px;font-stretch:normal;font-style:normal;font-weight:medium;text-anchor:middle;" transform="rotate(-0, 138.378333, 300.73625)" x="138.378333" y="300.73625">−10</text>
     </g>
    </g>
    <g id="xtick_3">
     <g id="line2d_3">
      <g>
       <use style="stroke:#000000;stroke-width:2;" x="190.045" xlink:href="#m01fcc7d6ea" y="285.07875"/>
      </g>
     </g>
     <g id="text_3">
      <text style="font-family:DejaVu Sans;font-size:16px;font-stretch:normal;font-style:normal;font-weight:medium;text-anchor:middle;" transform="rotate(-0, 190.045, 300.73625)" x="190.045" y="300.73625">0</text>
     </g>
    </g>
    <g id="xtick_4">
     <g id="line2d_4">
      <g>
       <use style="stroke:#000000;stroke-width:2;" x="241.711667" xlink:href="#m01fcc7d6ea" y="285.07875"/>
      </g>
     </g>
     <g id="text_4">
      <text style="font-family:DejaVu Sans;font-size:16px;font-stretch:normal;font-style:normal;font-weight:medium;text-anchor:middle;" transform="rotate(-0, 241.711667, 300.73625)" x="241.711667" y="300.73625">10</text>
     </g>
    </g>
    <g id="xtick_5">
     <g id="line2d_5">
      <g>
       <use style="stroke:#000000;stroke-width:2;" x="293.378333" xlink:href="#m01fcc7d6ea" y="285.07875"/>
      </g>
     </g>
     <g id="text_5">
      <text style="font-family:DejaVu Sans;font-size:16px;font-stretch:normal;font-style:normal;font-weight:medium;text-anchor:middle;" transform="rotate(-0, 293.378333, 300.73625)" x="293.378333" y="300.73625">20</text>
     </g>
    </g>
    <g id="text_6">
     <text style="font-family:DejaVu Sans;font-size:16px;font-stretch:normal;font-style:normal;font-weight:medium;" transform="translate(67.49625 320.22125)">Response error on current trial</text>
     <text style="font-family:DejaVu Sans;font-size:16px;font-stretch:normal;font-style:normal;font-weight:medium;" transform="translate(132.92625 338.13775)"> (morph units)</text>
    </g>
   </g>
   <g id="matplotlib.axis_2">
    <g id="ytick_1">
     <g id="line2d_6">
      <defs>
       <path d="M 0 0 
L 6 0 
" id="mfb1cc6243c" style="stroke:#000000;stroke-width:2;"/>
      </defs>
      <g>
       <use style="stroke:#000000;stroke-width:2;" x="50.545" xlink:href="#mfb1cc6243c" y="285.07875"/>
      </g>
     </g>
     <g id="text_7">
      <text style="font-family:DejaVu Sans;font-size:16px;font-stretch:normal;font-style:normal;font-weight:medium;text-anchor:end;" transform="rotate(-0, 47.045, 291.1575)" x="47.045" y="291.1575">0</text>
     </g>
    </g>
    <g id="ytick_2">
     <g id="line2d_7">
      <g>
       <use style="stroke:#000000;stroke-width:2;" x="50.545" xlink:href="#mfb1cc6243c" y="217.12875"/>
      </g>
     </g>
     <g id="text_8">
      <text style="font-family:DejaVu Sans;font-size:16px;font-stretch:normal;font-style:normal;font-weight:medium;text-anchor:end;" transform="rotate(-0, 47.045, 223.2075)" x="47.045" y="223.2075">5</text>
     </g>
    </g>
    <g id="ytick_3">
     <g id="line2d_8">
      <g>
       <use style="stroke:#000000;stroke-width:2;" x="50.545" xlink:href="#mfb1cc6243c" y="149.17875"/>
      </g>
     </g>
     <g id="text_9">
      <text style="font-family:DejaVu Sans;font-size:16px;font-stretch:normal;font-style:normal;font-weight:medium;text-anchor:end;" transform="rotate(-0, 47.045, 155.2575)" x="47.045" y="155.2575">10</text>
     </g>
    </g>
    <g id="ytick_4">
     <g id="line2d_9">
      <g>
       <use style="stroke:#000000;stroke-width:2;" x="50.545" xlink:href="#mfb1cc6243c" y="81.22875"/>
      </g>
     </g>
     <g id="text_10">
      <text style="font-family:DejaVu Sans;font-size:16px;font-stretch:normal;font-style:normal;font-weight:medium;text-anchor:end;" transform="rotate(-0, 47.045, 87.3075)" x="47.045" y="87.3075">15</text>
     </g>
    </g>
    <g id="ytick_5">
     <g id="line2d_10">
      <g>
       <use style="stroke:#000000;stroke-width:2;" x="50.545" xlink:href="#mfb1cc6243c" y="13.27875"/>
      </g>
     </g>
     <g id="text_11">
      <text style="font-family:DejaVu Sans;font-size:16px;font-stretch:normal;font-style:normal;font-weight:medium;text-anchor:end;" transform="rotate(-0, 47.045, 19.3575)" x="47.045" y="19.3575">20</text>
     </g>
    </g>
    <g id="text_12">
     <text style="font-family:DejaVu Sans;font-size:16px;font-stretch:normal;font-style:normal;font-weight:medium;text-anchor:middle;" transform="rotate(-90, 19.3575, 149.17875)" x="19.3575" y="149.17875">Frequency</text>
    </g>
   </g>
   <g id="line2d_11">
    <path clip-path="url(#pf6f0c08c07)" d="M 65.83325 284.812556 
L 70.793354 284.671311 
L 75.753458 284.458199 
L 80.713561 284.139567 
L 85.673665 283.668164 
L 90.633769 282.979071 
L 95.593873 281.98524 
L 100.553976 280.573174 
L 105.51408 278.599561 
L 110.474184 275.890101 
L 115.434288 272.242082 
L 120.394391 267.4325 
L 125.354495 261.233349 
L 130.314599 253.435167 
L 135.274703 243.878709 
L 140.234806 232.492815 
L 145.19491 219.334402 
L 150.155014 204.624287 
L 155.115117 188.771085 
L 160.075221 172.375173 
L 165.035325 156.206434 
L 169.995429 141.153109 
L 174.955532 128.144408 
L 179.915636 118.055307 
L 184.87574 111.606946 
L 189.835844 109.278651 
L 194.795947 111.246899 
L 199.756051 117.362386 
L 204.716155 127.169445 
L 209.676259 139.964214 
L 214.636362 154.880895 
L 219.596466 170.991015 
L 224.55657 187.399568 
L 229.516674 203.324315 
L 234.476777 218.149326 
L 239.436881 231.449635 
L 244.396985 242.989283 
L 249.357088 252.698802 
L 254.317192 260.640083 
L 259.277296 266.96647 
L 264.2374 271.884516 
L 269.197503 275.621691 
L 274.157607 278.402123 
L 279.117711 280.430637 
L 284.077815 281.884095 
L 289.037918 282.908418 
L 293.998022 283.619509 
L 298.958126 284.106486 
L 303.91823 284.43596 
L 308.878333 284.656506 
" style="fill:none;stroke:#008000;stroke-linecap:square;stroke-width:4;"/>
   </g>
   <g id="patch_53">
    <path d="M 50.545 285.07875 
L 50.545 13.27875 
" style="fill:none;stroke:#000000;stroke-linecap:square;stroke-linejoin:miter;stroke-width:2;"/>
   </g>
   <g id="patch_54">
    <path d="M 329.545 285.07875 
L 329.545 13.27875 
" style="fill:none;stroke:#000000;stroke-linecap:square;stroke-linejoin:miter;stroke-width:2;"/>
   </g>
   <g id="patch_55">
    <path d="M 50.545 285.07875 
L 329.545 285.07875 
" style="fill:none;stroke:#000000;stroke-linecap:square;stroke-linejoin:miter;stroke-width:2;"/>
   </g>
   <g id="patch_56">
    <path d="M 50.545 13.27875 
L 329.545 13.27875 
" style="fill:none;stroke:#000000;stroke-linecap:square;stroke-linejoin:miter;stroke-width:2;"/>
   </g>
   <g id="legend_1">
    <g id="patch_57">
     <path d="M 163.815 49.56375 
L 318.345 49.56375 
Q 321.545 49.56375 321.545 46.36375 
L 321.545 24.47875 
Q 321.545 21.27875 318.345 21.27875 
L 163.815 21.27875 
Q 160.615 21.27875 160.615 24.47875 
L 160.615 46.36375 
Q 160.615 49.56375 163.815 49.56375 
z
" style="fill:#ffffff;opacity:0.8;stroke:#cccccc;stroke-linejoin:miter;"/>
    </g>
    <g id="line2d_12">
     <path d="M 167.015 34.23625 
L 199.015 34.23625 
" style="fill:none;stroke:#008000;stroke-linecap:square;stroke-width:4;"/>
    </g>
    <g id="line2d_13"/>
    <g id="text_13">
     <text style="font-family:DejaVu Sans;font-size:16px;font-stretch:normal;font-style:normal;font-weight:medium;text-anchor:start;" transform="rotate(-0, 211.815, 39.83625)" x="211.815" y="39.83625">Von Mises Fit</text>
    </g>
   </g>
  </g>
 </g>
 <defs>
  <clipPath id="pf6f0c08c07">
   <rect height="271.8" width="279" x="50.545" y="13.27875"/>
  </clipPath>
 </defs>
</svg>
