<?xml version="1.0" encoding="utf-8" standalone="no"?>
<!DOCTYPE svg PUBLIC "-//W3C//DTD SVG 1.1//EN"
  "http://www.w3.org/Graphics/SVG/1.1/DTD/svg11.dtd">
<!-- Created with matplotlib (https://matplotlib.org/) -->
<svg height="372.35625pt" version="1.1" viewBox="0 0 594.142188 372.35625" width="594.142188pt" xmlns="http://www.w3.org/2000/svg" xmlns:xlink="http://www.w3.org/1999/xlink">
 <defs>
  <style type="text/css">
*{stroke-linecap:butt;stroke-linejoin:round;}
  </style>
 </defs>
 <g id="figure_1">
  <g id="patch_1">
   <path d="M 0 372.35625 
L 594.142188 372.35625 
L 594.142188 0 
L 0 0 
z
" style="fill:#ffffff;"/>
  </g>
  <g id="axes_1">
   <g id="patch_2">
    <path d="M 28.942188 348.478125 
L 586.942188 348.478125 
L 586.942188 22.318125 
L 28.942188 22.318125 
z
" style="fill:#ffffff;"/>
   </g>
   <g id="patch_3">
    <path clip-path="url(#p0cccf84b9b)" d="M 54.305824 214.695435 
L 71.357008 214.695435 
L 71.357008 133.941464 
L 54.305824 133.941464 
z
" style="fill:#a9a9a9;"/>
   </g>
   <g id="patch_4">
    <path clip-path="url(#p0cccf84b9b)" d="M 75.619804 214.695435 
L 92.670988 214.695435 
L 92.670988 173.986824 
L 75.619804 173.986824 
z
" style="fill:#a9a9a9;"/>
   </g>
   <g id="patch_5">
    <path clip-path="url(#p0cccf84b9b)" d="M 96.933784 214.695435 
L 113.984968 214.695435 
L 113.984968 195.127409 
L 96.933784 195.127409 
z
" style="fill:#a9a9a9;"/>
   </g>
   <g id="patch_6">
    <path clip-path="url(#p0cccf84b9b)" d="M 118.247764 214.695435 
L 135.298948 214.695435 
L 135.298948 133.404933 
L 118.247764 133.404933 
z
" style="fill:#a9a9a9;"/>
   </g>
   <g id="patch_7">
    <path clip-path="url(#p0cccf84b9b)" d="M 139.561744 214.695435 
L 156.612929 214.695435 
L 156.612929 101.48083 
L 139.561744 101.48083 
z
" style="fill:#a9a9a9;"/>
   </g>
   <g id="patch_8">
    <path clip-path="url(#p0cccf84b9b)" d="M 160.875725 214.695435 
L 177.926909 214.695435 
L 177.926909 110.429732 
L 160.875725 110.429732 
z
" style="fill:#a9a9a9;"/>
   </g>
   <g id="patch_9">
    <path clip-path="url(#p0cccf84b9b)" d="M 182.189705 214.695435 
L 199.240889 214.695435 
L 199.240889 238.269093 
L 182.189705 238.269093 
z
" style="fill:#a9a9a9;"/>
   </g>
   <g id="patch_10">
    <path clip-path="url(#p0cccf84b9b)" d="M 203.503685 214.695435 
L 220.554869 214.695435 
L 220.554869 165.451218 
L 203.503685 165.451218 
z
" style="fill:#a9a9a9;"/>
   </g>
   <g id="patch_11">
    <path clip-path="url(#p0cccf84b9b)" d="M 224.817665 214.695435 
L 241.868849 214.695435 
L 241.868849 177.20099 
L 224.817665 177.20099 
z
" style="fill:#a9a9a9;"/>
   </g>
   <g id="patch_12">
    <path clip-path="url(#p0cccf84b9b)" d="M 246.131645 214.695435 
L 263.182829 214.695435 
L 263.182829 172.209955 
L 246.131645 172.209955 
z
" style="fill:#a9a9a9;"/>
   </g>
   <g id="patch_13">
    <path clip-path="url(#p0cccf84b9b)" d="M 267.445625 214.695435 
L 284.496809 214.695435 
L 284.496809 127.251134 
L 267.445625 127.251134 
z
" style="fill:#a9a9a9;"/>
   </g>
   <g id="patch_14">
    <path clip-path="url(#p0cccf84b9b)" d="M 288.759605 214.695435 
L 305.810789 214.695435 
L 305.810789 169.344571 
L 288.759605 169.344571 
z
" style="fill:#a9a9a9;"/>
   </g>
   <g id="patch_15">
    <path clip-path="url(#p0cccf84b9b)" d="M 310.073586 214.695435 
L 327.12477 214.695435 
L 327.12477 129.533063 
L 310.073586 129.533063 
z
" style="fill:#a9a9a9;"/>
   </g>
   <g id="patch_16">
    <path clip-path="url(#p0cccf84b9b)" d="M 331.387566 214.695435 
L 348.43875 214.695435 
L 348.43875 163.567365 
L 331.387566 163.567365 
z
" style="fill:#a9a9a9;"/>
   </g>
   <g id="patch_17">
    <path clip-path="url(#p0cccf84b9b)" d="M 352.701546 214.695435 
L 369.75273 214.695435 
L 369.75273 88.302901 
L 352.701546 88.302901 
z
" style="fill:#a9a9a9;"/>
   </g>
   <g id="patch_18">
    <path clip-path="url(#p0cccf84b9b)" d="M 374.015526 214.695435 
L 391.06671 214.695435 
L 391.06671 165.083434 
L 374.015526 165.083434 
z
" style="fill:#a9a9a9;"/>
   </g>
   <g id="patch_19">
    <path clip-path="url(#p0cccf84b9b)" d="M 395.329506 214.695435 
L 412.38069 214.695435 
L 412.38069 165.345513 
L 395.329506 165.345513 
z
" style="fill:#a9a9a9;"/>
   </g>
   <g id="patch_20">
    <path clip-path="url(#p0cccf84b9b)" d="M 416.643486 214.695435 
L 433.69467 214.695435 
L 433.69467 137.885988 
L 416.643486 137.885988 
z
" style="fill:#a9a9a9;"/>
   </g>
   <g id="patch_21">
    <path clip-path="url(#p0cccf84b9b)" d="M 437.957466 214.695435 
L 455.00865 214.695435 
L 455.00865 209.167721 
L 437.957466 209.167721 
z
" style="fill:#a9a9a9;"/>
   </g>
   <g id="patch_22">
    <path clip-path="url(#p0cccf84b9b)" d="M 459.271446 214.695435 
L 476.322631 214.695435 
L 476.322631 147.554617 
L 459.271446 147.554617 
z
" style="fill:#a9a9a9;"/>
   </g>
   <g id="patch_23">
    <path clip-path="url(#p0cccf84b9b)" d="M 480.585427 214.695435 
L 497.636611 214.695435 
L 497.636611 204.606384 
L 480.585427 204.606384 
z
" style="fill:#a9a9a9;"/>
   </g>
   <g id="patch_24">
    <path clip-path="url(#p0cccf84b9b)" d="M 501.899407 214.695435 
L 518.950591 214.695435 
L 518.950591 58.508432 
L 501.899407 58.508432 
z
" style="fill:#a9a9a9;"/>
   </g>
   <g id="patch_25">
    <path clip-path="url(#p0cccf84b9b)" d="M 523.213387 214.695435 
L 540.264571 214.695435 
L 540.264571 309.962137 
L 523.213387 309.962137 
z
" style="fill:#a9a9a9;"/>
   </g>
   <g id="patch_26">
    <path clip-path="url(#p0cccf84b9b)" d="M 544.527367 214.695435 
L 561.578551 214.695435 
L 561.578551 243.886745 
L 544.527367 243.886745 
z
" style="fill:#a9a9a9;"/>
   </g>
   <g id="matplotlib.axis_1">
    <g id="xtick_1">
     <g id="line2d_1">
      <defs>
       <path d="M 0 0 
L 0 3.5 
" id="mfd8fdc5ed5" style="stroke:#000000;stroke-width:0.8;"/>
      </defs>
      <g>
       <use style="stroke:#000000;stroke-width:0.8;" x="62.831416" xlink:href="#mfd8fdc5ed5" y="348.478125"/>
      </g>
     </g>
     <g id="text_1">
      <!-- 0 -->
      <defs>
       <path d="M 31.78125 66.40625 
Q 24.171875 66.40625 20.328125 58.90625 
Q 16.5 51.421875 16.5 36.375 
Q 16.5 21.390625 20.328125 13.890625 
Q 24.171875 6.390625 31.78125 6.390625 
Q 39.453125 6.390625 43.28125 13.890625 
Q 47.125 21.390625 47.125 36.375 
Q 47.125 51.421875 43.28125 58.90625 
Q 39.453125 66.40625 31.78125 66.40625 
z
M 31.78125 74.21875 
Q 44.046875 74.21875 50.515625 64.515625 
Q 56.984375 54.828125 56.984375 36.375 
Q 56.984375 17.96875 50.515625 8.265625 
Q 44.046875 -1.421875 31.78125 -1.421875 
Q 19.53125 -1.421875 13.0625 8.265625 
Q 6.59375 17.96875 6.59375 36.375 
Q 6.59375 54.828125 13.0625 64.515625 
Q 19.53125 74.21875 31.78125 74.21875 
z
" id="DejaVuSans-48"/>
      </defs>
      <g transform="translate(59.650166 363.076563)scale(0.1 -0.1)">
       <use xlink:href="#DejaVuSans-48"/>
      </g>
     </g>
    </g>
    <g id="xtick_2">
     <g id="line2d_2">
      <g>
       <use style="stroke:#000000;stroke-width:0.8;" x="169.401317" xlink:href="#mfd8fdc5ed5" y="348.478125"/>
      </g>
     </g>
     <g id="text_2">
      <!-- 5 -->
      <defs>
       <path d="M 10.796875 72.90625 
L 49.515625 72.90625 
L 49.515625 64.59375 
L 19.828125 64.59375 
L 19.828125 46.734375 
Q 21.96875 47.46875 24.109375 47.828125 
Q 26.265625 48.1875 28.421875 48.1875 
Q 40.625 48.1875 47.75 41.5 
Q 54.890625 34.8125 54.890625 23.390625 
Q 54.890625 11.625 47.5625 5.09375 
Q 40.234375 -1.421875 26.90625 -1.421875 
Q 22.3125 -1.421875 17.546875 -0.640625 
Q 12.796875 0.140625 7.71875 1.703125 
L 7.71875 11.625 
Q 12.109375 9.234375 16.796875 8.0625 
Q 21.484375 6.890625 26.703125 6.890625 
Q 35.15625 6.890625 40.078125 11.328125 
Q 45.015625 15.765625 45.015625 23.390625 
Q 45.015625 31 40.078125 35.4375 
Q 35.15625 39.890625 26.703125 39.890625 
Q 22.75 39.890625 18.8125 39.015625 
Q 14.890625 38.140625 10.796875 36.28125 
z
" id="DejaVuSans-53"/>
      </defs>
      <g transform="translate(166.220067 363.076563)scale(0.1 -0.1)">
       <use xlink:href="#DejaVuSans-53"/>
      </g>
     </g>
    </g>
    <g id="xtick_3">
     <g id="line2d_3">
      <g>
       <use style="stroke:#000000;stroke-width:0.8;" x="275.971217" xlink:href="#mfd8fdc5ed5" y="348.478125"/>
      </g>
     </g>
     <g id="text_3">
      <!-- 10 -->
      <defs>
       <path d="M 12.40625 8.296875 
L 28.515625 8.296875 
L 28.515625 63.921875 
L 10.984375 60.40625 
L 10.984375 69.390625 
L 28.421875 72.90625 
L 38.28125 72.90625 
L 38.28125 8.296875 
L 54.390625 8.296875 
L 54.390625 0 
L 12.40625 0 
z
" id="DejaVuSans-49"/>
      </defs>
      <g transform="translate(269.608717 363.076563)scale(0.1 -0.1)">
       <use xlink:href="#DejaVuSans-49"/>
       <use x="63.623047" xlink:href="#DejaVuSans-48"/>
      </g>
     </g>
    </g>
    <g id="xtick_4">
     <g id="line2d_4">
      <g>
       <use style="stroke:#000000;stroke-width:0.8;" x="382.541118" xlink:href="#mfd8fdc5ed5" y="348.478125"/>
      </g>
     </g>
     <g id="text_4">
      <!-- 15 -->
      <g transform="translate(376.178618 363.076563)scale(0.1 -0.1)">
       <use xlink:href="#DejaVuSans-49"/>
       <use x="63.623047" xlink:href="#DejaVuSans-53"/>
      </g>
     </g>
    </g>
    <g id="xtick_5">
     <g id="line2d_5">
      <g>
       <use style="stroke:#000000;stroke-width:0.8;" x="489.111019" xlink:href="#mfd8fdc5ed5" y="348.478125"/>
      </g>
     </g>
     <g id="text_5">
      <!-- 20 -->
      <defs>
       <path d="M 19.1875 8.296875 
L 53.609375 8.296875 
L 53.609375 0 
L 7.328125 0 
L 7.328125 8.296875 
Q 12.9375 14.109375 22.625 23.890625 
Q 32.328125 33.6875 34.8125 36.53125 
Q 39.546875 41.84375 41.421875 45.53125 
Q 43.3125 49.21875 43.3125 52.78125 
Q 43.3125 58.59375 39.234375 62.25 
Q 35.15625 65.921875 28.609375 65.921875 
Q 23.96875 65.921875 18.8125 64.3125 
Q 13.671875 62.703125 7.8125 59.421875 
L 7.8125 69.390625 
Q 13.765625 71.78125 18.9375 73 
Q 24.125 74.21875 28.421875 74.21875 
Q 39.75 74.21875 46.484375 68.546875 
Q 53.21875 62.890625 53.21875 53.421875 
Q 53.21875 48.921875 51.53125 44.890625 
Q 49.859375 40.875 45.40625 35.40625 
Q 44.1875 33.984375 37.640625 27.21875 
Q 31.109375 20.453125 19.1875 8.296875 
z
" id="DejaVuSans-50"/>
      </defs>
      <g transform="translate(482.748519 363.076563)scale(0.1 -0.1)">
       <use xlink:href="#DejaVuSans-50"/>
       <use x="63.623047" xlink:href="#DejaVuSans-48"/>
      </g>
     </g>
    </g>
   </g>
   <g id="matplotlib.axis_2">
    <g id="ytick_1">
     <g id="line2d_6">
      <defs>
       <path d="M 0 0 
L -3.5 0 
" id="m00819d3ddf" style="stroke:#000000;stroke-width:0.8;"/>
      </defs>
      <g>
       <use style="stroke:#000000;stroke-width:0.8;" x="28.942188" xlink:href="#m00819d3ddf" y="327.431695"/>
      </g>
     </g>
     <g id="text_6">
      <!-- −6 -->
      <defs>
       <path d="M 10.59375 35.5 
L 73.1875 35.5 
L 73.1875 27.203125 
L 10.59375 27.203125 
z
" id="DejaVuSans-8722"/>
       <path d="M 33.015625 40.375 
Q 26.375 40.375 22.484375 35.828125 
Q 18.609375 31.296875 18.609375 23.390625 
Q 18.609375 15.53125 22.484375 10.953125 
Q 26.375 6.390625 33.015625 6.390625 
Q 39.65625 6.390625 43.53125 10.953125 
Q 47.40625 15.53125 47.40625 23.390625 
Q 47.40625 31.296875 43.53125 35.828125 
Q 39.65625 40.375 33.015625 40.375 
z
M 52.59375 71.296875 
L 52.59375 62.3125 
Q 48.875 64.0625 45.09375 64.984375 
Q 41.3125 65.921875 37.59375 65.921875 
Q 27.828125 65.921875 22.671875 59.328125 
Q 17.53125 52.734375 16.796875 39.40625 
Q 19.671875 43.65625 24.015625 45.921875 
Q 28.375 48.1875 33.59375 48.1875 
Q 44.578125 48.1875 50.953125 41.515625 
Q 57.328125 34.859375 57.328125 23.390625 
Q 57.328125 12.15625 50.6875 5.359375 
Q 44.046875 -1.421875 33.015625 -1.421875 
Q 20.359375 -1.421875 13.671875 8.265625 
Q 6.984375 17.96875 6.984375 36.375 
Q 6.984375 53.65625 15.1875 63.9375 
Q 23.390625 74.21875 37.203125 74.21875 
Q 40.921875 74.21875 44.703125 73.484375 
Q 48.484375 72.75 52.59375 71.296875 
z
" id="DejaVuSans-54"/>
      </defs>
      <g transform="translate(7.2 331.230914)scale(0.1 -0.1)">
       <use xlink:href="#DejaVuSans-8722"/>
       <use x="83.789062" xlink:href="#DejaVuSans-54"/>
      </g>
     </g>
    </g>
    <g id="ytick_2">
     <g id="line2d_7">
      <g>
       <use style="stroke:#000000;stroke-width:0.8;" x="28.942188" xlink:href="#m00819d3ddf" y="289.852942"/>
      </g>
     </g>
     <g id="text_7">
      <!-- −4 -->
      <defs>
       <path d="M 37.796875 64.3125 
L 12.890625 25.390625 
L 37.796875 25.390625 
z
M 35.203125 72.90625 
L 47.609375 72.90625 
L 47.609375 25.390625 
L 58.015625 25.390625 
L 58.015625 17.1875 
L 47.609375 17.1875 
L 47.609375 0 
L 37.796875 0 
L 37.796875 17.1875 
L 4.890625 17.1875 
L 4.890625 26.703125 
z
" id="DejaVuSans-52"/>
      </defs>
      <g transform="translate(7.2 293.65216)scale(0.1 -0.1)">
       <use xlink:href="#DejaVuSans-8722"/>
       <use x="83.789062" xlink:href="#DejaVuSans-52"/>
      </g>
     </g>
    </g>
    <g id="ytick_3">
     <g id="line2d_8">
      <g>
       <use style="stroke:#000000;stroke-width:0.8;" x="28.942188" xlink:href="#m00819d3ddf" y="252.274189"/>
      </g>
     </g>
     <g id="text_8">
      <!-- −2 -->
      <g transform="translate(7.2 256.073407)scale(0.1 -0.1)">
       <use xlink:href="#DejaVuSans-8722"/>
       <use x="83.789062" xlink:href="#DejaVuSans-50"/>
      </g>
     </g>
    </g>
    <g id="ytick_4">
     <g id="line2d_9">
      <g>
       <use style="stroke:#000000;stroke-width:0.8;" x="28.942188" xlink:href="#m00819d3ddf" y="214.695435"/>
      </g>
     </g>
     <g id="text_9">
      <!-- 0 -->
      <g transform="translate(15.579688 218.494654)scale(0.1 -0.1)">
       <use xlink:href="#DejaVuSans-48"/>
      </g>
     </g>
    </g>
    <g id="ytick_5">
     <g id="line2d_10">
      <g>
       <use style="stroke:#000000;stroke-width:0.8;" x="28.942188" xlink:href="#m00819d3ddf" y="177.116682"/>
      </g>
     </g>
     <g id="text_10">
      <!-- 2 -->
      <g transform="translate(15.579688 180.915901)scale(0.1 -0.1)">
       <use xlink:href="#DejaVuSans-50"/>
      </g>
     </g>
    </g>
    <g id="ytick_6">
     <g id="line2d_11">
      <g>
       <use style="stroke:#000000;stroke-width:0.8;" x="28.942188" xlink:href="#m00819d3ddf" y="139.537929"/>
      </g>
     </g>
     <g id="text_11">
      <!-- 4 -->
      <g transform="translate(15.579688 143.337148)scale(0.1 -0.1)">
       <use xlink:href="#DejaVuSans-52"/>
      </g>
     </g>
    </g>
    <g id="ytick_7">
     <g id="line2d_12">
      <g>
       <use style="stroke:#000000;stroke-width:0.8;" x="28.942188" xlink:href="#m00819d3ddf" y="101.959176"/>
      </g>
     </g>
     <g id="text_12">
      <!-- 6 -->
      <g transform="translate(15.579688 105.758395)scale(0.1 -0.1)">
       <use xlink:href="#DejaVuSans-54"/>
      </g>
     </g>
    </g>
    <g id="ytick_8">
     <g id="line2d_13">
      <g>
       <use style="stroke:#000000;stroke-width:0.8;" x="28.942188" xlink:href="#m00819d3ddf" y="64.380423"/>
      </g>
     </g>
     <g id="text_13">
      <!-- 8 -->
      <defs>
       <path d="M 31.78125 34.625 
Q 24.75 34.625 20.71875 30.859375 
Q 16.703125 27.09375 16.703125 20.515625 
Q 16.703125 13.921875 20.71875 10.15625 
Q 24.75 6.390625 31.78125 6.390625 
Q 38.8125 6.390625 42.859375 10.171875 
Q 46.921875 13.96875 46.921875 20.515625 
Q 46.921875 27.09375 42.890625 30.859375 
Q 38.875 34.625 31.78125 34.625 
z
M 21.921875 38.8125 
Q 15.578125 40.375 12.03125 44.71875 
Q 8.5 49.078125 8.5 55.328125 
Q 8.5 64.0625 14.71875 69.140625 
Q 20.953125 74.21875 31.78125 74.21875 
Q 42.671875 74.21875 48.875 69.140625 
Q 55.078125 64.0625 55.078125 55.328125 
Q 55.078125 49.078125 51.53125 44.71875 
Q 48 40.375 41.703125 38.8125 
Q 48.828125 37.15625 52.796875 32.3125 
Q 56.78125 27.484375 56.78125 20.515625 
Q 56.78125 9.90625 50.3125 4.234375 
Q 43.84375 -1.421875 31.78125 -1.421875 
Q 19.734375 -1.421875 13.25 4.234375 
Q 6.78125 9.90625 6.78125 20.515625 
Q 6.78125 27.484375 10.78125 32.3125 
Q 14.796875 37.15625 21.921875 38.8125 
z
M 18.3125 54.390625 
Q 18.3125 48.734375 21.84375 45.5625 
Q 25.390625 42.390625 31.78125 42.390625 
Q 38.140625 42.390625 41.71875 45.5625 
Q 45.3125 48.734375 45.3125 54.390625 
Q 45.3125 60.0625 41.71875 63.234375 
Q 38.140625 66.40625 31.78125 66.40625 
Q 25.390625 66.40625 21.84375 63.234375 
Q 18.3125 60.0625 18.3125 54.390625 
z
" id="DejaVuSans-56"/>
      </defs>
      <g transform="translate(15.579688 68.179642)scale(0.1 -0.1)">
       <use xlink:href="#DejaVuSans-56"/>
      </g>
     </g>
    </g>
    <g id="ytick_9">
     <g id="line2d_14">
      <g>
       <use style="stroke:#000000;stroke-width:0.8;" x="28.942188" xlink:href="#m00819d3ddf" y="26.80167"/>
      </g>
     </g>
     <g id="text_14">
      <!-- 10 -->
      <g transform="translate(9.217188 30.600888)scale(0.1 -0.1)">
       <use xlink:href="#DejaVuSans-49"/>
       <use x="63.623047" xlink:href="#DejaVuSans-48"/>
      </g>
     </g>
    </g>
   </g>
   <g id="LineCollection_1">
    <path clip-path="url(#p0cccf84b9b)" d="M 62.831416 153.636376 
L 62.831416 114.701535 
" style="fill:none;stroke:#000000;stroke-width:1.5;"/>
    <path clip-path="url(#p0cccf84b9b)" d="M 84.145396 193.946422 
L 84.145396 154.247306 
" style="fill:none;stroke:#000000;stroke-width:1.5;"/>
    <path clip-path="url(#p0cccf84b9b)" d="M 105.459376 234.535564 
L 105.459376 172.208287 
" style="fill:none;stroke:#000000;stroke-width:1.5;"/>
    <path clip-path="url(#p0cccf84b9b)" d="M 126.773356 150.274753 
L 126.773356 115.397319 
" style="fill:none;stroke:#000000;stroke-width:1.5;"/>
    <path clip-path="url(#p0cccf84b9b)" d="M 148.087336 130.587577 
L 148.087336 72.164164 
" style="fill:none;stroke:#000000;stroke-width:1.5;"/>
    <path clip-path="url(#p0cccf84b9b)" d="M 169.401317 130.782865 
L 169.401317 90.708706 
" style="fill:none;stroke:#000000;stroke-width:1.5;"/>
    <path clip-path="url(#p0cccf84b9b)" d="M 190.715297 284.156483 
L 190.715297 188.560711 
" style="fill:none;stroke:#000000;stroke-width:1.5;"/>
    <path clip-path="url(#p0cccf84b9b)" d="M 212.029277 186.056832 
L 212.029277 146.225281 
" style="fill:none;stroke:#000000;stroke-width:1.5;"/>
    <path clip-path="url(#p0cccf84b9b)" d="M 233.343257 205.465166 
L 233.343257 151.141841 
" style="fill:none;stroke:#000000;stroke-width:1.5;"/>
    <path clip-path="url(#p0cccf84b9b)" d="M 254.657237 197.243932 
L 254.657237 148.442773 
" style="fill:none;stroke:#000000;stroke-width:1.5;"/>
    <path clip-path="url(#p0cccf84b9b)" d="M 275.971217 149.681318 
L 275.971217 105.699467 
" style="fill:none;stroke:#000000;stroke-width:1.5;"/>
    <path clip-path="url(#p0cccf84b9b)" d="M 297.285197 196.186318 
L 297.285197 142.903362 
" style="fill:none;stroke:#000000;stroke-width:1.5;"/>
    <path clip-path="url(#p0cccf84b9b)" d="M 318.599178 152.98519 
L 318.599178 106.893079 
" style="fill:none;stroke:#000000;stroke-width:1.5;"/>
    <path clip-path="url(#p0cccf84b9b)" d="M 339.913158 180.567098 
L 339.913158 147.071859 
" style="fill:none;stroke:#000000;stroke-width:1.5;"/>
    <path clip-path="url(#p0cccf84b9b)" d="M 361.227138 112.623059 
L 361.227138 65.683159 
" style="fill:none;stroke:#000000;stroke-width:1.5;"/>
    <path clip-path="url(#p0cccf84b9b)" d="M 382.541118 197.874186 
L 382.541118 134.165862 
" style="fill:none;stroke:#000000;stroke-width:1.5;"/>
    <path clip-path="url(#p0cccf84b9b)" d="M 403.855098 190.268438 
L 403.855098 141.72423 
" style="fill:none;stroke:#000000;stroke-width:1.5;"/>
    <path clip-path="url(#p0cccf84b9b)" d="M 425.169078 166.708412 
L 425.169078 110.896332 
" style="fill:none;stroke:#000000;stroke-width:1.5;"/>
    <path clip-path="url(#p0cccf84b9b)" d="M 446.483058 235.325277 
L 446.483058 187.68085 
" style="fill:none;stroke:#000000;stroke-width:1.5;"/>
    <path clip-path="url(#p0cccf84b9b)" d="M 467.797039 165.996167 
L 467.797039 129.905155 
" style="fill:none;stroke:#000000;stroke-width:1.5;"/>
    <path clip-path="url(#p0cccf84b9b)" d="M 489.111019 229.100382 
L 489.111019 183.379273 
" style="fill:none;stroke:#000000;stroke-width:1.5;"/>
    <path clip-path="url(#p0cccf84b9b)" d="M 510.424999 80.6623 
L 510.424999 37.14358 
" style="fill:none;stroke:#000000;stroke-width:1.5;"/>
    <path clip-path="url(#p0cccf84b9b)" d="M 531.738979 333.65267 
L 531.738979 288.658594 
" style="fill:none;stroke:#000000;stroke-width:1.5;"/>
    <path clip-path="url(#p0cccf84b9b)" d="M 553.052959 269.810321 
L 553.052959 218.619151 
" style="fill:none;stroke:#000000;stroke-width:1.5;"/>
   </g>
   <g id="line2d_15">
    <defs>
     <path d="M 6 0 
L -6 -0 
" id="m74c88581c4" style="stroke:#000000;"/>
    </defs>
    <g clip-path="url(#p0cccf84b9b)">
     <use style="stroke:#000000;" x="62.831416" xlink:href="#m74c88581c4" y="153.636376"/>
     <use style="stroke:#000000;" x="84.145396" xlink:href="#m74c88581c4" y="193.946422"/>
     <use style="stroke:#000000;" x="105.459376" xlink:href="#m74c88581c4" y="234.535564"/>
     <use style="stroke:#000000;" x="126.773356" xlink:href="#m74c88581c4" y="150.274753"/>
     <use style="stroke:#000000;" x="148.087336" xlink:href="#m74c88581c4" y="130.587577"/>
     <use style="stroke:#000000;" x="169.401317" xlink:href="#m74c88581c4" y="130.782865"/>
     <use style="stroke:#000000;" x="190.715297" xlink:href="#m74c88581c4" y="284.156483"/>
     <use style="stroke:#000000;" x="212.029277" xlink:href="#m74c88581c4" y="186.056832"/>
     <use style="stroke:#000000;" x="233.343257" xlink:href="#m74c88581c4" y="205.465166"/>
     <use style="stroke:#000000;" x="254.657237" xlink:href="#m74c88581c4" y="197.243932"/>
     <use style="stroke:#000000;" x="275.971217" xlink:href="#m74c88581c4" y="149.681318"/>
     <use style="stroke:#000000;" x="297.285197" xlink:href="#m74c88581c4" y="196.186318"/>
     <use style="stroke:#000000;" x="318.599178" xlink:href="#m74c88581c4" y="152.98519"/>
     <use style="stroke:#000000;" x="339.913158" xlink:href="#m74c88581c4" y="180.567098"/>
     <use style="stroke:#000000;" x="361.227138" xlink:href="#m74c88581c4" y="112.623059"/>
     <use style="stroke:#000000;" x="382.541118" xlink:href="#m74c88581c4" y="197.874186"/>
     <use style="stroke:#000000;" x="403.855098" xlink:href="#m74c88581c4" y="190.268438"/>
     <use style="stroke:#000000;" x="425.169078" xlink:href="#m74c88581c4" y="166.708412"/>
     <use style="stroke:#000000;" x="446.483058" xlink:href="#m74c88581c4" y="235.325277"/>
     <use style="stroke:#000000;" x="467.797039" xlink:href="#m74c88581c4" y="165.996167"/>
     <use style="stroke:#000000;" x="489.111019" xlink:href="#m74c88581c4" y="229.100382"/>
     <use style="stroke:#000000;" x="510.424999" xlink:href="#m74c88581c4" y="80.6623"/>
     <use style="stroke:#000000;" x="531.738979" xlink:href="#m74c88581c4" y="333.65267"/>
     <use style="stroke:#000000;" x="553.052959" xlink:href="#m74c88581c4" y="269.810321"/>
    </g>
   </g>
   <g id="line2d_16">
    <g clip-path="url(#p0cccf84b9b)">
     <use style="stroke:#000000;" x="62.831416" xlink:href="#m74c88581c4" y="114.701535"/>
     <use style="stroke:#000000;" x="84.145396" xlink:href="#m74c88581c4" y="154.247306"/>
     <use style="stroke:#000000;" x="105.459376" xlink:href="#m74c88581c4" y="172.208287"/>
     <use style="stroke:#000000;" x="126.773356" xlink:href="#m74c88581c4" y="115.397319"/>
     <use style="stroke:#000000;" x="148.087336" xlink:href="#m74c88581c4" y="72.164164"/>
     <use style="stroke:#000000;" x="169.401317" xlink:href="#m74c88581c4" y="90.708706"/>
     <use style="stroke:#000000;" x="190.715297" xlink:href="#m74c88581c4" y="188.560711"/>
     <use style="stroke:#000000;" x="212.029277" xlink:href="#m74c88581c4" y="146.225281"/>
     <use style="stroke:#000000;" x="233.343257" xlink:href="#m74c88581c4" y="151.141841"/>
     <use style="stroke:#000000;" x="254.657237" xlink:href="#m74c88581c4" y="148.442773"/>
     <use style="stroke:#000000;" x="275.971217" xlink:href="#m74c88581c4" y="105.699467"/>
     <use style="stroke:#000000;" x="297.285197" xlink:href="#m74c88581c4" y="142.903362"/>
     <use style="stroke:#000000;" x="318.599178" xlink:href="#m74c88581c4" y="106.893079"/>
     <use style="stroke:#000000;" x="339.913158" xlink:href="#m74c88581c4" y="147.071859"/>
     <use style="stroke:#000000;" x="361.227138" xlink:href="#m74c88581c4" y="65.683159"/>
     <use style="stroke:#000000;" x="382.541118" xlink:href="#m74c88581c4" y="134.165862"/>
     <use style="stroke:#000000;" x="403.855098" xlink:href="#m74c88581c4" y="141.72423"/>
     <use style="stroke:#000000;" x="425.169078" xlink:href="#m74c88581c4" y="110.896332"/>
     <use style="stroke:#000000;" x="446.483058" xlink:href="#m74c88581c4" y="187.68085"/>
     <use style="stroke:#000000;" x="467.797039" xlink:href="#m74c88581c4" y="129.905155"/>
     <use style="stroke:#000000;" x="489.111019" xlink:href="#m74c88581c4" y="183.379273"/>
     <use style="stroke:#000000;" x="510.424999" xlink:href="#m74c88581c4" y="37.14358"/>
     <use style="stroke:#000000;" x="531.738979" xlink:href="#m74c88581c4" y="288.658594"/>
     <use style="stroke:#000000;" x="553.052959" xlink:href="#m74c88581c4" y="218.619151"/>
    </g>
   </g>
   <g id="patch_27">
    <path d="M 28.942188 348.478125 
L 28.942188 22.318125 
" style="fill:none;stroke:#000000;stroke-linecap:square;stroke-linejoin:miter;stroke-width:2;"/>
   </g>
   <g id="patch_28">
    <path d="M 586.942188 348.478125 
L 586.942188 22.318125 
" style="fill:none;stroke:#000000;stroke-linecap:square;stroke-linejoin:miter;stroke-width:2;"/>
   </g>
   <g id="patch_29">
    <path d="M 28.942188 348.478125 
L 586.942188 348.478125 
" style="fill:none;stroke:#000000;stroke-linecap:square;stroke-linejoin:miter;stroke-width:2;"/>
   </g>
   <g id="patch_30">
    <path d="M 28.942188 22.318125 
L 586.942188 22.318125 
" style="fill:none;stroke:#000000;stroke-linecap:square;stroke-linejoin:miter;stroke-width:2;"/>
   </g>
   <g id="text_15">
    <!-- 24 Bins -->
    <defs>
     <path id="DejaVuSans-32"/>
     <path d="M 19.671875 34.8125 
L 19.671875 8.109375 
L 35.5 8.109375 
Q 43.453125 8.109375 47.28125 11.40625 
Q 51.125 14.703125 51.125 21.484375 
Q 51.125 28.328125 47.28125 31.5625 
Q 43.453125 34.8125 35.5 34.8125 
z
M 19.671875 64.796875 
L 19.671875 42.828125 
L 34.28125 42.828125 
Q 41.5 42.828125 45.03125 45.53125 
Q 48.578125 48.25 48.578125 53.8125 
Q 48.578125 59.328125 45.03125 62.0625 
Q 41.5 64.796875 34.28125 64.796875 
z
M 9.8125 72.90625 
L 35.015625 72.90625 
Q 46.296875 72.90625 52.390625 68.21875 
Q 58.5 63.53125 58.5 54.890625 
Q 58.5 48.1875 55.375 44.234375 
Q 52.25 40.28125 46.1875 39.3125 
Q 53.46875 37.75 57.5 32.78125 
Q 61.53125 27.828125 61.53125 20.40625 
Q 61.53125 10.640625 54.890625 5.3125 
Q 48.25 0 35.984375 0 
L 9.8125 0 
z
" id="DejaVuSans-66"/>
     <path d="M 9.421875 54.6875 
L 18.40625 54.6875 
L 18.40625 0 
L 9.421875 0 
z
M 9.421875 75.984375 
L 18.40625 75.984375 
L 18.40625 64.59375 
L 9.421875 64.59375 
z
" id="DejaVuSans-105"/>
     <path d="M 54.890625 33.015625 
L 54.890625 0 
L 45.90625 0 
L 45.90625 32.71875 
Q 45.90625 40.484375 42.875 44.328125 
Q 39.84375 48.1875 33.796875 48.1875 
Q 26.515625 48.1875 22.3125 43.546875 
Q 18.109375 38.921875 18.109375 30.90625 
L 18.109375 0 
L 9.078125 0 
L 9.078125 54.6875 
L 18.109375 54.6875 
L 18.109375 46.1875 
Q 21.34375 51.125 25.703125 53.5625 
Q 30.078125 56 35.796875 56 
Q 45.21875 56 50.046875 50.171875 
Q 54.890625 44.34375 54.890625 33.015625 
z
" id="DejaVuSans-110"/>
     <path d="M 44.28125 53.078125 
L 44.28125 44.578125 
Q 40.484375 46.53125 36.375 47.5 
Q 32.28125 48.484375 27.875 48.484375 
Q 21.1875 48.484375 17.84375 46.4375 
Q 14.5 44.390625 14.5 40.28125 
Q 14.5 37.15625 16.890625 35.375 
Q 19.28125 33.59375 26.515625 31.984375 
L 29.59375 31.296875 
Q 39.15625 29.25 43.1875 25.515625 
Q 47.21875 21.78125 47.21875 15.09375 
Q 47.21875 7.46875 41.1875 3.015625 
Q 35.15625 -1.421875 24.609375 -1.421875 
Q 20.21875 -1.421875 15.453125 -0.5625 
Q 10.6875 0.296875 5.421875 2 
L 5.421875 11.28125 
Q 10.40625 8.6875 15.234375 7.390625 
Q 20.0625 6.109375 24.8125 6.109375 
Q 31.15625 6.109375 34.5625 8.28125 
Q 37.984375 10.453125 37.984375 14.40625 
Q 37.984375 18.0625 35.515625 20.015625 
Q 33.0625 21.96875 24.703125 23.78125 
L 21.578125 24.515625 
Q 13.234375 26.265625 9.515625 29.90625 
Q 5.8125 33.546875 5.8125 39.890625 
Q 5.8125 47.609375 11.28125 51.796875 
Q 16.75 56 26.8125 56 
Q 31.78125 56 36.171875 55.265625 
Q 40.578125 54.546875 44.28125 53.078125 
z
" id="DejaVuSans-115"/>
    </defs>
    <g transform="translate(285.68875 16.318125)scale(0.12 -0.12)">
     <use xlink:href="#DejaVuSans-50"/>
     <use x="63.623047" xlink:href="#DejaVuSans-52"/>
     <use x="127.246094" xlink:href="#DejaVuSans-32"/>
     <use x="159.033203" xlink:href="#DejaVuSans-66"/>
     <use x="227.636719" xlink:href="#DejaVuSans-105"/>
     <use x="255.419922" xlink:href="#DejaVuSans-110"/>
     <use x="318.798828" xlink:href="#DejaVuSans-115"/>
    </g>
   </g>
  </g>
 </g>
 <defs>
  <clipPath id="p0cccf84b9b">
   <rect height="326.16" width="558" x="28.942188" y="22.318125"/>
  </clipPath>
 </defs>
</svg>
