<?xml version="1.0" encoding="utf-8" standalone="no"?>
<!DOCTYPE svg PUBLIC "-//W3C//DTD SVG 1.1//EN"
  "http://www.w3.org/Graphics/SVG/1.1/DTD/svg11.dtd">
<!-- Created with matplotlib (https://matplotlib.org/) -->
<svg height="372.35625pt" version="1.1" viewBox="0 0 594.142187 372.35625" width="594.142187pt" xmlns="http://www.w3.org/2000/svg" xmlns:xlink="http://www.w3.org/1999/xlink">
 <defs>
  <style type="text/css">
*{stroke-linecap:butt;stroke-linejoin:round;}
  </style>
 </defs>
 <g id="figure_1">
  <g id="patch_1">
   <path d="M 0 372.35625 
L 594.142187 372.35625 
L 594.142187 0 
L 0 0 
z
" style="fill:#ffffff;"/>
  </g>
  <g id="axes_1">
   <g id="patch_2">
    <path d="M 28.942188 348.478125 
L 586.942188 348.478125 
L 586.942188 22.318125 
L 28.942188 22.318125 
z
" style="fill:#ffffff;"/>
   </g>
   <g id="patch_3">
    <path clip-path="url(#p47f18326fa)" d="M 54.305824 239.38106 
L 77.104598 239.38106 
L 77.104598 129.782844 
L 54.305824 129.782844 
z
" style="fill:#a9a9a9;"/>
   </g>
   <g id="patch_4">
    <path clip-path="url(#p47f18326fa)" d="M 82.804292 239.38106 
L 105.603066 239.38106 
L 105.603066 184.131874 
L 82.804292 184.131874 
z
" style="fill:#a9a9a9;"/>
   </g>
   <g id="patch_5">
    <path clip-path="url(#p47f18326fa)" d="M 111.30276 239.38106 
L 134.101534 239.38106 
L 134.101534 212.823595 
L 111.30276 212.823595 
z
" style="fill:#a9a9a9;"/>
   </g>
   <g id="patch_6">
    <path clip-path="url(#p47f18326fa)" d="M 139.801227 239.38106 
L 162.600002 239.38106 
L 162.600002 129.054671 
L 139.801227 129.054671 
z
" style="fill:#a9a9a9;"/>
   </g>
   <g id="patch_7">
    <path clip-path="url(#p47f18326fa)" d="M 168.299695 239.38106 
L 191.098469 239.38106 
L 191.098469 85.727703 
L 168.299695 85.727703 
z
" style="fill:#a9a9a9;"/>
   </g>
   <g id="patch_8">
    <path clip-path="url(#p47f18326fa)" d="M 196.798163 239.38106 
L 219.596937 239.38106 
L 219.596937 97.873034 
L 196.798163 97.873034 
z
" style="fill:#a9a9a9;"/>
   </g>
   <g id="patch_9">
    <path clip-path="url(#p47f18326fa)" d="M 225.296631 239.38106 
L 248.095405 239.38106 
L 248.095405 271.374914 
L 225.296631 271.374914 
z
" style="fill:#a9a9a9;"/>
   </g>
   <g id="patch_10">
    <path clip-path="url(#p47f18326fa)" d="M 253.795099 239.38106 
L 276.593873 239.38106 
L 276.593873 172.547462 
L 253.795099 172.547462 
z
" style="fill:#a9a9a9;"/>
   </g>
   <g id="patch_11">
    <path clip-path="url(#p47f18326fa)" d="M 282.293566 239.38106 
L 305.092341 239.38106 
L 305.092341 188.494097 
L 282.293566 188.494097 
z
" style="fill:#a9a9a9;"/>
   </g>
   <g id="patch_12">
    <path clip-path="url(#p47f18326fa)" d="M 310.792034 239.38106 
L 333.590809 239.38106 
L 333.590809 181.720331 
L 310.792034 181.720331 
z
" style="fill:#a9a9a9;"/>
   </g>
   <g id="patch_13">
    <path clip-path="url(#p47f18326fa)" d="M 339.290502 239.38106 
L 362.089276 239.38106 
L 362.089276 120.702816 
L 339.290502 120.702816 
z
" style="fill:#a9a9a9;"/>
   </g>
   <g id="patch_14">
    <path clip-path="url(#p47f18326fa)" d="M 367.78897 239.38106 
L 390.587744 239.38106 
L 390.587744 177.831469 
L 367.78897 177.831469 
z
" style="fill:#a9a9a9;"/>
   </g>
   <g id="patch_15">
    <path clip-path="url(#p47f18326fa)" d="M 396.287438 239.38106 
L 419.086212 239.38106 
L 419.086212 123.799821 
L 396.287438 123.799821 
z
" style="fill:#a9a9a9;"/>
   </g>
   <g id="patch_16">
    <path clip-path="url(#p47f18326fa)" d="M 424.785906 239.38106 
L 447.58468 239.38106 
L 447.58468 169.990723 
L 424.785906 169.990723 
z
" style="fill:#a9a9a9;"/>
   </g>
   <g id="patch_17">
    <path clip-path="url(#p47f18326fa)" d="M 453.284373 239.38106 
L 476.083148 239.38106 
L 476.083148 67.842792 
L 453.284373 67.842792 
z
" style="fill:#a9a9a9;"/>
   </g>
   <g id="patch_18">
    <path clip-path="url(#p47f18326fa)" d="M 481.782841 239.38106 
L 504.581615 239.38106 
L 504.581615 172.048311 
L 481.782841 172.048311 
z
" style="fill:#a9a9a9;"/>
   </g>
   <g id="patch_19">
    <path clip-path="url(#p47f18326fa)" d="M 510.281309 239.38106 
L 533.080083 239.38106 
L 533.080083 172.404002 
L 510.281309 172.404002 
z
" style="fill:#a9a9a9;"/>
   </g>
   <g id="patch_20">
    <path clip-path="url(#p47f18326fa)" d="M 538.779777 239.38106 
L 561.578551 239.38106 
L 561.578551 135.136299 
L 538.779777 135.136299 
z
" style="fill:#a9a9a9;"/>
   </g>
   <g id="matplotlib.axis_1">
    <g id="xtick_1">
     <g id="line2d_1">
      <defs>
       <path d="M 0 0 
L 0 3.5 
" id="m93c7ef930a" style="stroke:#000000;stroke-width:0.8;"/>
      </defs>
      <g>
       <use style="stroke:#000000;stroke-width:0.8;" x="65.705211" xlink:href="#m93c7ef930a" y="348.478125"/>
      </g>
     </g>
     <g id="text_1">
      <!-- 0.0 -->
      <defs>
       <path d="M 31.78125 66.40625 
Q 24.171875 66.40625 20.328125 58.90625 
Q 16.5 51.421875 16.5 36.375 
Q 16.5 21.390625 20.328125 13.890625 
Q 24.171875 6.390625 31.78125 6.390625 
Q 39.453125 6.390625 43.28125 13.890625 
Q 47.125 21.390625 47.125 36.375 
Q 47.125 51.421875 43.28125 58.90625 
Q 39.453125 66.40625 31.78125 66.40625 
z
M 31.78125 74.21875 
Q 44.046875 74.21875 50.515625 64.515625 
Q 56.984375 54.828125 56.984375 36.375 
Q 56.984375 17.96875 50.515625 8.265625 
Q 44.046875 -1.421875 31.78125 -1.421875 
Q 19.53125 -1.421875 13.0625 8.265625 
Q 6.59375 17.96875 6.59375 36.375 
Q 6.59375 54.828125 13.0625 64.515625 
Q 19.53125 74.21875 31.78125 74.21875 
z
" id="DejaVuSans-48"/>
       <path d="M 10.6875 12.40625 
L 21 12.40625 
L 21 0 
L 10.6875 0 
z
" id="DejaVuSans-46"/>
      </defs>
      <g transform="translate(57.753648 363.076563)scale(0.1 -0.1)">
       <use xlink:href="#DejaVuSans-48"/>
       <use x="63.623047" xlink:href="#DejaVuSans-46"/>
       <use x="95.410156" xlink:href="#DejaVuSans-48"/>
      </g>
     </g>
    </g>
    <g id="xtick_2">
     <g id="line2d_2">
      <g>
       <use style="stroke:#000000;stroke-width:0.8;" x="136.951381" xlink:href="#m93c7ef930a" y="348.478125"/>
      </g>
     </g>
     <g id="text_2">
      <!-- 2.5 -->
      <defs>
       <path d="M 19.1875 8.296875 
L 53.609375 8.296875 
L 53.609375 0 
L 7.328125 0 
L 7.328125 8.296875 
Q 12.9375 14.109375 22.625 23.890625 
Q 32.328125 33.6875 34.8125 36.53125 
Q 39.546875 41.84375 41.421875 45.53125 
Q 43.3125 49.21875 43.3125 52.78125 
Q 43.3125 58.59375 39.234375 62.25 
Q 35.15625 65.921875 28.609375 65.921875 
Q 23.96875 65.921875 18.8125 64.3125 
Q 13.671875 62.703125 7.8125 59.421875 
L 7.8125 69.390625 
Q 13.765625 71.78125 18.9375 73 
Q 24.125 74.21875 28.421875 74.21875 
Q 39.75 74.21875 46.484375 68.546875 
Q 53.21875 62.890625 53.21875 53.421875 
Q 53.21875 48.921875 51.53125 44.890625 
Q 49.859375 40.875 45.40625 35.40625 
Q 44.1875 33.984375 37.640625 27.21875 
Q 31.109375 20.453125 19.1875 8.296875 
z
" id="DejaVuSans-50"/>
       <path d="M 10.796875 72.90625 
L 49.515625 72.90625 
L 49.515625 64.59375 
L 19.828125 64.59375 
L 19.828125 46.734375 
Q 21.96875 47.46875 24.109375 47.828125 
Q 26.265625 48.1875 28.421875 48.1875 
Q 40.625 48.1875 47.75 41.5 
Q 54.890625 34.8125 54.890625 23.390625 
Q 54.890625 11.625 47.5625 5.09375 
Q 40.234375 -1.421875 26.90625 -1.421875 
Q 22.3125 -1.421875 17.546875 -0.640625 
Q 12.796875 0.140625 7.71875 1.703125 
L 7.71875 11.625 
Q 12.109375 9.234375 16.796875 8.0625 
Q 21.484375 6.890625 26.703125 6.890625 
Q 35.15625 6.890625 40.078125 11.328125 
Q 45.015625 15.765625 45.015625 23.390625 
Q 45.015625 31 40.078125 35.4375 
Q 35.15625 39.890625 26.703125 39.890625 
Q 22.75 39.890625 18.8125 39.015625 
Q 14.890625 38.140625 10.796875 36.28125 
z
" id="DejaVuSans-53"/>
      </defs>
      <g transform="translate(128.999818 363.076563)scale(0.1 -0.1)">
       <use xlink:href="#DejaVuSans-50"/>
       <use x="63.623047" xlink:href="#DejaVuSans-46"/>
       <use x="95.410156" xlink:href="#DejaVuSans-53"/>
      </g>
     </g>
    </g>
    <g id="xtick_3">
     <g id="line2d_3">
      <g>
       <use style="stroke:#000000;stroke-width:0.8;" x="208.19755" xlink:href="#m93c7ef930a" y="348.478125"/>
      </g>
     </g>
     <g id="text_3">
      <!-- 5.0 -->
      <g transform="translate(200.245988 363.076563)scale(0.1 -0.1)">
       <use xlink:href="#DejaVuSans-53"/>
       <use x="63.623047" xlink:href="#DejaVuSans-46"/>
       <use x="95.410156" xlink:href="#DejaVuSans-48"/>
      </g>
     </g>
    </g>
    <g id="xtick_4">
     <g id="line2d_4">
      <g>
       <use style="stroke:#000000;stroke-width:0.8;" x="279.44372" xlink:href="#m93c7ef930a" y="348.478125"/>
      </g>
     </g>
     <g id="text_4">
      <!-- 7.5 -->
      <defs>
       <path d="M 8.203125 72.90625 
L 55.078125 72.90625 
L 55.078125 68.703125 
L 28.609375 0 
L 18.3125 0 
L 43.21875 64.59375 
L 8.203125 64.59375 
z
" id="DejaVuSans-55"/>
      </defs>
      <g transform="translate(271.492157 363.076563)scale(0.1 -0.1)">
       <use xlink:href="#DejaVuSans-55"/>
       <use x="63.623047" xlink:href="#DejaVuSans-46"/>
       <use x="95.410156" xlink:href="#DejaVuSans-53"/>
      </g>
     </g>
    </g>
    <g id="xtick_5">
     <g id="line2d_5">
      <g>
       <use style="stroke:#000000;stroke-width:0.8;" x="350.689889" xlink:href="#m93c7ef930a" y="348.478125"/>
      </g>
     </g>
     <g id="text_5">
      <!-- 10.0 -->
      <defs>
       <path d="M 12.40625 8.296875 
L 28.515625 8.296875 
L 28.515625 63.921875 
L 10.984375 60.40625 
L 10.984375 69.390625 
L 28.421875 72.90625 
L 38.28125 72.90625 
L 38.28125 8.296875 
L 54.390625 8.296875 
L 54.390625 0 
L 12.40625 0 
z
" id="DejaVuSans-49"/>
      </defs>
      <g transform="translate(339.557077 363.076563)scale(0.1 -0.1)">
       <use xlink:href="#DejaVuSans-49"/>
       <use x="63.623047" xlink:href="#DejaVuSans-48"/>
       <use x="127.246094" xlink:href="#DejaVuSans-46"/>
       <use x="159.033203" xlink:href="#DejaVuSans-48"/>
      </g>
     </g>
    </g>
    <g id="xtick_6">
     <g id="line2d_6">
      <g>
       <use style="stroke:#000000;stroke-width:0.8;" x="421.936059" xlink:href="#m93c7ef930a" y="348.478125"/>
      </g>
     </g>
     <g id="text_6">
      <!-- 12.5 -->
      <g transform="translate(410.803246 363.076563)scale(0.1 -0.1)">
       <use xlink:href="#DejaVuSans-49"/>
       <use x="63.623047" xlink:href="#DejaVuSans-50"/>
       <use x="127.246094" xlink:href="#DejaVuSans-46"/>
       <use x="159.033203" xlink:href="#DejaVuSans-53"/>
      </g>
     </g>
    </g>
    <g id="xtick_7">
     <g id="line2d_7">
      <g>
       <use style="stroke:#000000;stroke-width:0.8;" x="493.182228" xlink:href="#m93c7ef930a" y="348.478125"/>
      </g>
     </g>
     <g id="text_7">
      <!-- 15.0 -->
      <g transform="translate(482.049416 363.076563)scale(0.1 -0.1)">
       <use xlink:href="#DejaVuSans-49"/>
       <use x="63.623047" xlink:href="#DejaVuSans-53"/>
       <use x="127.246094" xlink:href="#DejaVuSans-46"/>
       <use x="159.033203" xlink:href="#DejaVuSans-48"/>
      </g>
     </g>
    </g>
    <g id="xtick_8">
     <g id="line2d_8">
      <g>
       <use style="stroke:#000000;stroke-width:0.8;" x="564.428398" xlink:href="#m93c7ef930a" y="348.478125"/>
      </g>
     </g>
     <g id="text_8">
      <!-- 17.5 -->
      <g transform="translate(553.295585 363.076563)scale(0.1 -0.1)">
       <use xlink:href="#DejaVuSans-49"/>
       <use x="63.623047" xlink:href="#DejaVuSans-55"/>
       <use x="127.246094" xlink:href="#DejaVuSans-46"/>
       <use x="159.033203" xlink:href="#DejaVuSans-53"/>
      </g>
     </g>
    </g>
   </g>
   <g id="matplotlib.axis_2">
    <g id="ytick_1">
     <g id="line2d_9">
      <defs>
       <path d="M 0 0 
L -3.5 0 
" id="mc0e2023dd5" style="stroke:#000000;stroke-width:0.8;"/>
      </defs>
      <g>
       <use style="stroke:#000000;stroke-width:0.8;" x="28.942188" xlink:href="#mc0e2023dd5" y="341.383828"/>
      </g>
     </g>
     <g id="text_9">
      <!-- −4 -->
      <defs>
       <path d="M 10.59375 35.5 
L 73.1875 35.5 
L 73.1875 27.203125 
L 10.59375 27.203125 
z
" id="DejaVuSans-8722"/>
       <path d="M 37.796875 64.3125 
L 12.890625 25.390625 
L 37.796875 25.390625 
z
M 35.203125 72.90625 
L 47.609375 72.90625 
L 47.609375 25.390625 
L 58.015625 25.390625 
L 58.015625 17.1875 
L 47.609375 17.1875 
L 47.609375 0 
L 37.796875 0 
L 37.796875 17.1875 
L 4.890625 17.1875 
L 4.890625 26.703125 
z
" id="DejaVuSans-52"/>
      </defs>
      <g transform="translate(7.2 345.183047)scale(0.1 -0.1)">
       <use xlink:href="#DejaVuSans-8722"/>
       <use x="83.789062" xlink:href="#DejaVuSans-52"/>
      </g>
     </g>
    </g>
    <g id="ytick_2">
     <g id="line2d_10">
      <g>
       <use style="stroke:#000000;stroke-width:0.8;" x="28.942188" xlink:href="#mc0e2023dd5" y="290.382444"/>
      </g>
     </g>
     <g id="text_10">
      <!-- −2 -->
      <g transform="translate(7.2 294.181663)scale(0.1 -0.1)">
       <use xlink:href="#DejaVuSans-8722"/>
       <use x="83.789062" xlink:href="#DejaVuSans-50"/>
      </g>
     </g>
    </g>
    <g id="ytick_3">
     <g id="line2d_11">
      <g>
       <use style="stroke:#000000;stroke-width:0.8;" x="28.942188" xlink:href="#mc0e2023dd5" y="239.38106"/>
      </g>
     </g>
     <g id="text_11">
      <!-- 0 -->
      <g transform="translate(15.579688 243.180279)scale(0.1 -0.1)">
       <use xlink:href="#DejaVuSans-48"/>
      </g>
     </g>
    </g>
    <g id="ytick_4">
     <g id="line2d_12">
      <g>
       <use style="stroke:#000000;stroke-width:0.8;" x="28.942188" xlink:href="#mc0e2023dd5" y="188.379676"/>
      </g>
     </g>
     <g id="text_12">
      <!-- 2 -->
      <g transform="translate(15.579688 192.178895)scale(0.1 -0.1)">
       <use xlink:href="#DejaVuSans-50"/>
      </g>
     </g>
    </g>
    <g id="ytick_5">
     <g id="line2d_13">
      <g>
       <use style="stroke:#000000;stroke-width:0.8;" x="28.942188" xlink:href="#mc0e2023dd5" y="137.378292"/>
      </g>
     </g>
     <g id="text_13">
      <!-- 4 -->
      <g transform="translate(15.579688 141.177511)scale(0.1 -0.1)">
       <use xlink:href="#DejaVuSans-52"/>
      </g>
     </g>
    </g>
    <g id="ytick_6">
     <g id="line2d_14">
      <g>
       <use style="stroke:#000000;stroke-width:0.8;" x="28.942188" xlink:href="#mc0e2023dd5" y="86.376908"/>
      </g>
     </g>
     <g id="text_14">
      <!-- 6 -->
      <defs>
       <path d="M 33.015625 40.375 
Q 26.375 40.375 22.484375 35.828125 
Q 18.609375 31.296875 18.609375 23.390625 
Q 18.609375 15.53125 22.484375 10.953125 
Q 26.375 6.390625 33.015625 6.390625 
Q 39.65625 6.390625 43.53125 10.953125 
Q 47.40625 15.53125 47.40625 23.390625 
Q 47.40625 31.296875 43.53125 35.828125 
Q 39.65625 40.375 33.015625 40.375 
z
M 52.59375 71.296875 
L 52.59375 62.3125 
Q 48.875 64.0625 45.09375 64.984375 
Q 41.3125 65.921875 37.59375 65.921875 
Q 27.828125 65.921875 22.671875 59.328125 
Q 17.53125 52.734375 16.796875 39.40625 
Q 19.671875 43.65625 24.015625 45.921875 
Q 28.375 48.1875 33.59375 48.1875 
Q 44.578125 48.1875 50.953125 41.515625 
Q 57.328125 34.859375 57.328125 23.390625 
Q 57.328125 12.15625 50.6875 5.359375 
Q 44.046875 -1.421875 33.015625 -1.421875 
Q 20.359375 -1.421875 13.671875 8.265625 
Q 6.984375 17.96875 6.984375 36.375 
Q 6.984375 53.65625 15.1875 63.9375 
Q 23.390625 74.21875 37.203125 74.21875 
Q 40.921875 74.21875 44.703125 73.484375 
Q 48.484375 72.75 52.59375 71.296875 
z
" id="DejaVuSans-54"/>
      </defs>
      <g transform="translate(15.579688 90.176126)scale(0.1 -0.1)">
       <use xlink:href="#DejaVuSans-54"/>
      </g>
     </g>
    </g>
    <g id="ytick_7">
     <g id="line2d_15">
      <g>
       <use style="stroke:#000000;stroke-width:0.8;" x="28.942188" xlink:href="#mc0e2023dd5" y="35.375524"/>
      </g>
     </g>
     <g id="text_15">
      <!-- 8 -->
      <defs>
       <path d="M 31.78125 34.625 
Q 24.75 34.625 20.71875 30.859375 
Q 16.703125 27.09375 16.703125 20.515625 
Q 16.703125 13.921875 20.71875 10.15625 
Q 24.75 6.390625 31.78125 6.390625 
Q 38.8125 6.390625 42.859375 10.171875 
Q 46.921875 13.96875 46.921875 20.515625 
Q 46.921875 27.09375 42.890625 30.859375 
Q 38.875 34.625 31.78125 34.625 
z
M 21.921875 38.8125 
Q 15.578125 40.375 12.03125 44.71875 
Q 8.5 49.078125 8.5 55.328125 
Q 8.5 64.0625 14.71875 69.140625 
Q 20.953125 74.21875 31.78125 74.21875 
Q 42.671875 74.21875 48.875 69.140625 
Q 55.078125 64.0625 55.078125 55.328125 
Q 55.078125 49.078125 51.53125 44.71875 
Q 48 40.375 41.703125 38.8125 
Q 48.828125 37.15625 52.796875 32.3125 
Q 56.78125 27.484375 56.78125 20.515625 
Q 56.78125 9.90625 50.3125 4.234375 
Q 43.84375 -1.421875 31.78125 -1.421875 
Q 19.734375 -1.421875 13.25 4.234375 
Q 6.78125 9.90625 6.78125 20.515625 
Q 6.78125 27.484375 10.78125 32.3125 
Q 14.796875 37.15625 21.921875 38.8125 
z
M 18.3125 54.390625 
Q 18.3125 48.734375 21.84375 45.5625 
Q 25.390625 42.390625 31.78125 42.390625 
Q 38.140625 42.390625 41.71875 45.5625 
Q 45.3125 48.734375 45.3125 54.390625 
Q 45.3125 60.0625 41.71875 63.234375 
Q 38.140625 66.40625 31.78125 66.40625 
Q 25.390625 66.40625 21.84375 63.234375 
Q 18.3125 60.0625 18.3125 54.390625 
z
" id="DejaVuSans-56"/>
      </defs>
      <g transform="translate(15.579688 39.174742)scale(0.1 -0.1)">
       <use xlink:href="#DejaVuSans-56"/>
      </g>
     </g>
    </g>
   </g>
   <g id="LineCollection_1">
    <path clip-path="url(#p47f18326fa)" d="M 65.705211 156.512517 
L 65.705211 103.670668 
" style="fill:none;stroke:#000000;stroke-width:1.5;"/>
    <path clip-path="url(#p47f18326fa)" d="M 94.203679 211.220775 
L 94.203679 157.341662 
" style="fill:none;stroke:#000000;stroke-width:1.5;"/>
    <path clip-path="url(#p47f18326fa)" d="M 122.702147 266.307819 
L 122.702147 181.718068 
" style="fill:none;stroke:#000000;stroke-width:1.5;"/>
    <path clip-path="url(#p47f18326fa)" d="M 151.200614 151.950167 
L 151.200614 104.614977 
" style="fill:none;stroke:#000000;stroke-width:1.5;"/>
    <path clip-path="url(#p47f18326fa)" d="M 179.699082 125.230993 
L 179.699082 45.939514 
" style="fill:none;stroke:#000000;stroke-width:1.5;"/>
    <path clip-path="url(#p47f18326fa)" d="M 208.19755 125.496036 
L 208.19755 71.107919 
" style="fill:none;stroke:#000000;stroke-width:1.5;"/>
    <path clip-path="url(#p47f18326fa)" d="M 236.696018 333.65267 
L 236.696018 203.911359 
" style="fill:none;stroke:#000000;stroke-width:1.5;"/>
    <path clip-path="url(#p47f18326fa)" d="M 265.194486 200.513129 
L 265.194486 146.454276 
" style="fill:none;stroke:#000000;stroke-width:1.5;"/>
    <path clip-path="url(#p47f18326fa)" d="M 293.692954 226.85386 
L 293.692954 153.126967 
" style="fill:none;stroke:#000000;stroke-width:1.5;"/>
    <path clip-path="url(#p47f18326fa)" d="M 322.191421 215.696112 
L 322.191421 149.463827 
" style="fill:none;stroke:#000000;stroke-width:1.5;"/>
    <path clip-path="url(#p47f18326fa)" d="M 350.689889 151.144764 
L 350.689889 91.453181 
" style="fill:none;stroke:#000000;stroke-width:1.5;"/>
    <path clip-path="url(#p47f18326fa)" d="M 379.188357 214.260732 
L 379.188357 141.945812 
" style="fill:none;stroke:#000000;stroke-width:1.5;"/>
    <path clip-path="url(#p47f18326fa)" d="M 407.686825 155.628736 
L 407.686825 93.073135 
" style="fill:none;stroke:#000000;stroke-width:1.5;"/>
    <path clip-path="url(#p47f18326fa)" d="M 436.185293 193.062534 
L 436.185293 147.603241 
" style="fill:none;stroke:#000000;stroke-width:1.5;"/>
    <path clip-path="url(#p47f18326fa)" d="M 464.683761 100.849788 
L 464.683761 37.14358 
" style="fill:none;stroke:#000000;stroke-width:1.5;"/>
    <path clip-path="url(#p47f18326fa)" d="M 493.182228 216.551484 
L 493.182228 130.087393 
" style="fill:none;stroke:#000000;stroke-width:1.5;"/>
    <path clip-path="url(#p47f18326fa)" d="M 521.680696 206.229063 
L 521.680696 140.34551 
" style="fill:none;stroke:#000000;stroke-width:1.5;"/>
    <path clip-path="url(#p47f18326fa)" d="M 550.179164 174.25371 
L 550.179164 98.506297 
" style="fill:none;stroke:#000000;stroke-width:1.5;"/>
   </g>
   <g id="line2d_16">
    <defs>
     <path d="M 6 0 
L -6 -0 
" id="m6c147ab825" style="stroke:#000000;"/>
    </defs>
    <g clip-path="url(#p47f18326fa)">
     <use style="stroke:#000000;" x="65.705211" xlink:href="#m6c147ab825" y="156.512517"/>
     <use style="stroke:#000000;" x="94.203679" xlink:href="#m6c147ab825" y="211.220775"/>
     <use style="stroke:#000000;" x="122.702147" xlink:href="#m6c147ab825" y="266.307819"/>
     <use style="stroke:#000000;" x="151.200614" xlink:href="#m6c147ab825" y="151.950167"/>
     <use style="stroke:#000000;" x="179.699082" xlink:href="#m6c147ab825" y="125.230993"/>
     <use style="stroke:#000000;" x="208.19755" xlink:href="#m6c147ab825" y="125.496036"/>
     <use style="stroke:#000000;" x="236.696018" xlink:href="#m6c147ab825" y="333.65267"/>
     <use style="stroke:#000000;" x="265.194486" xlink:href="#m6c147ab825" y="200.513129"/>
     <use style="stroke:#000000;" x="293.692954" xlink:href="#m6c147ab825" y="226.85386"/>
     <use style="stroke:#000000;" x="322.191421" xlink:href="#m6c147ab825" y="215.696112"/>
     <use style="stroke:#000000;" x="350.689889" xlink:href="#m6c147ab825" y="151.144764"/>
     <use style="stroke:#000000;" x="379.188357" xlink:href="#m6c147ab825" y="214.260732"/>
     <use style="stroke:#000000;" x="407.686825" xlink:href="#m6c147ab825" y="155.628736"/>
     <use style="stroke:#000000;" x="436.185293" xlink:href="#m6c147ab825" y="193.062534"/>
     <use style="stroke:#000000;" x="464.683761" xlink:href="#m6c147ab825" y="100.849788"/>
     <use style="stroke:#000000;" x="493.182228" xlink:href="#m6c147ab825" y="216.551484"/>
     <use style="stroke:#000000;" x="521.680696" xlink:href="#m6c147ab825" y="206.229063"/>
     <use style="stroke:#000000;" x="550.179164" xlink:href="#m6c147ab825" y="174.25371"/>
    </g>
   </g>
   <g id="line2d_17">
    <g clip-path="url(#p47f18326fa)">
     <use style="stroke:#000000;" x="65.705211" xlink:href="#m6c147ab825" y="103.670668"/>
     <use style="stroke:#000000;" x="94.203679" xlink:href="#m6c147ab825" y="157.341662"/>
     <use style="stroke:#000000;" x="122.702147" xlink:href="#m6c147ab825" y="181.718068"/>
     <use style="stroke:#000000;" x="151.200614" xlink:href="#m6c147ab825" y="104.614977"/>
     <use style="stroke:#000000;" x="179.699082" xlink:href="#m6c147ab825" y="45.939514"/>
     <use style="stroke:#000000;" x="208.19755" xlink:href="#m6c147ab825" y="71.107919"/>
     <use style="stroke:#000000;" x="236.696018" xlink:href="#m6c147ab825" y="203.911359"/>
     <use style="stroke:#000000;" x="265.194486" xlink:href="#m6c147ab825" y="146.454276"/>
     <use style="stroke:#000000;" x="293.692954" xlink:href="#m6c147ab825" y="153.126967"/>
     <use style="stroke:#000000;" x="322.191421" xlink:href="#m6c147ab825" y="149.463827"/>
     <use style="stroke:#000000;" x="350.689889" xlink:href="#m6c147ab825" y="91.453181"/>
     <use style="stroke:#000000;" x="379.188357" xlink:href="#m6c147ab825" y="141.945812"/>
     <use style="stroke:#000000;" x="407.686825" xlink:href="#m6c147ab825" y="93.073135"/>
     <use style="stroke:#000000;" x="436.185293" xlink:href="#m6c147ab825" y="147.603241"/>
     <use style="stroke:#000000;" x="464.683761" xlink:href="#m6c147ab825" y="37.14358"/>
     <use style="stroke:#000000;" x="493.182228" xlink:href="#m6c147ab825" y="130.087393"/>
     <use style="stroke:#000000;" x="521.680696" xlink:href="#m6c147ab825" y="140.34551"/>
     <use style="stroke:#000000;" x="550.179164" xlink:href="#m6c147ab825" y="98.506297"/>
    </g>
   </g>
   <g id="patch_21">
    <path d="M 28.942188 348.478125 
L 28.942188 22.318125 
" style="fill:none;stroke:#000000;stroke-linecap:square;stroke-linejoin:miter;stroke-width:2;"/>
   </g>
   <g id="patch_22">
    <path d="M 586.942188 348.478125 
L 586.942188 22.318125 
" style="fill:none;stroke:#000000;stroke-linecap:square;stroke-linejoin:miter;stroke-width:2;"/>
   </g>
   <g id="patch_23">
    <path d="M 28.942187 348.478125 
L 586.942187 348.478125 
" style="fill:none;stroke:#000000;stroke-linecap:square;stroke-linejoin:miter;stroke-width:2;"/>
   </g>
   <g id="patch_24">
    <path d="M 28.942187 22.318125 
L 586.942187 22.318125 
" style="fill:none;stroke:#000000;stroke-linecap:square;stroke-linejoin:miter;stroke-width:2;"/>
   </g>
   <g id="text_16">
    <!-- 18 Bins -->
    <defs>
     <path id="DejaVuSans-32"/>
     <path d="M 19.671875 34.8125 
L 19.671875 8.109375 
L 35.5 8.109375 
Q 43.453125 8.109375 47.28125 11.40625 
Q 51.125 14.703125 51.125 21.484375 
Q 51.125 28.328125 47.28125 31.5625 
Q 43.453125 34.8125 35.5 34.8125 
z
M 19.671875 64.796875 
L 19.671875 42.828125 
L 34.28125 42.828125 
Q 41.5 42.828125 45.03125 45.53125 
Q 48.578125 48.25 48.578125 53.8125 
Q 48.578125 59.328125 45.03125 62.0625 
Q 41.5 64.796875 34.28125 64.796875 
z
M 9.8125 72.90625 
L 35.015625 72.90625 
Q 46.296875 72.90625 52.390625 68.21875 
Q 58.5 63.53125 58.5 54.890625 
Q 58.5 48.1875 55.375 44.234375 
Q 52.25 40.28125 46.1875 39.3125 
Q 53.46875 37.75 57.5 32.78125 
Q 61.53125 27.828125 61.53125 20.40625 
Q 61.53125 10.640625 54.890625 5.3125 
Q 48.25 0 35.984375 0 
L 9.8125 0 
z
" id="DejaVuSans-66"/>
     <path d="M 9.421875 54.6875 
L 18.40625 54.6875 
L 18.40625 0 
L 9.421875 0 
z
M 9.421875 75.984375 
L 18.40625 75.984375 
L 18.40625 64.59375 
L 9.421875 64.59375 
z
" id="DejaVuSans-105"/>
     <path d="M 54.890625 33.015625 
L 54.890625 0 
L 45.90625 0 
L 45.90625 32.71875 
Q 45.90625 40.484375 42.875 44.328125 
Q 39.84375 48.1875 33.796875 48.1875 
Q 26.515625 48.1875 22.3125 43.546875 
Q 18.109375 38.921875 18.109375 30.90625 
L 18.109375 0 
L 9.078125 0 
L 9.078125 54.6875 
L 18.109375 54.6875 
L 18.109375 46.1875 
Q 21.34375 51.125 25.703125 53.5625 
Q 30.078125 56 35.796875 56 
Q 45.21875 56 50.046875 50.171875 
Q 54.890625 44.34375 54.890625 33.015625 
z
" id="DejaVuSans-110"/>
     <path d="M 44.28125 53.078125 
L 44.28125 44.578125 
Q 40.484375 46.53125 36.375 47.5 
Q 32.28125 48.484375 27.875 48.484375 
Q 21.1875 48.484375 17.84375 46.4375 
Q 14.5 44.390625 14.5 40.28125 
Q 14.5 37.15625 16.890625 35.375 
Q 19.28125 33.59375 26.515625 31.984375 
L 29.59375 31.296875 
Q 39.15625 29.25 43.1875 25.515625 
Q 47.21875 21.78125 47.21875 15.09375 
Q 47.21875 7.46875 41.1875 3.015625 
Q 35.15625 -1.421875 24.609375 -1.421875 
Q 20.21875 -1.421875 15.453125 -0.5625 
Q 10.6875 0.296875 5.421875 2 
L 5.421875 11.28125 
Q 10.40625 8.6875 15.234375 7.390625 
Q 20.0625 6.109375 24.8125 6.109375 
Q 31.15625 6.109375 34.5625 8.28125 
Q 37.984375 10.453125 37.984375 14.40625 
Q 37.984375 18.0625 35.515625 20.015625 
Q 33.0625 21.96875 24.703125 23.78125 
L 21.578125 24.515625 
Q 13.234375 26.265625 9.515625 29.90625 
Q 5.8125 33.546875 5.8125 39.890625 
Q 5.8125 47.609375 11.28125 51.796875 
Q 16.75 56 26.8125 56 
Q 31.78125 56 36.171875 55.265625 
Q 40.578125 54.546875 44.28125 53.078125 
z
" id="DejaVuSans-115"/>
    </defs>
    <g transform="translate(285.68875 16.318125)scale(0.12 -0.12)">
     <use xlink:href="#DejaVuSans-49"/>
     <use x="63.623047" xlink:href="#DejaVuSans-56"/>
     <use x="127.246094" xlink:href="#DejaVuSans-32"/>
     <use x="159.033203" xlink:href="#DejaVuSans-66"/>
     <use x="227.636719" xlink:href="#DejaVuSans-105"/>
     <use x="255.419922" xlink:href="#DejaVuSans-110"/>
     <use x="318.798828" xlink:href="#DejaVuSans-115"/>
    </g>
   </g>
  </g>
 </g>
 <defs>
  <clipPath id="p47f18326fa">
   <rect height="326.16" width="558" x="28.942188" y="22.318125"/>
  </clipPath>
 </defs>
</svg>
