<?xml version="1.0" encoding="utf-8" standalone="no"?>
<!DOCTYPE svg PUBLIC "-//W3C//DTD SVG 1.1//EN"
  "http://www.w3.org/Graphics/SVG/1.1/DTD/svg11.dtd">
<!-- Created with matplotlib (https://matplotlib.org/) -->
<svg height="372.35625pt" version="1.1" viewBox="0 0 594.142187 372.35625" width="594.142187pt" xmlns="http://www.w3.org/2000/svg" xmlns:xlink="http://www.w3.org/1999/xlink">
 <defs>
  <style type="text/css">
*{stroke-linecap:butt;stroke-linejoin:round;}
  </style>
 </defs>
 <g id="figure_1">
  <g id="patch_1">
   <path d="M 0 372.35625 
L 594.142187 372.35625 
L 594.142187 0 
L 0 0 
z
" style="fill:#ffffff;"/>
  </g>
  <g id="axes_1">
   <g id="patch_2">
    <path d="M 28.942188 348.478125 
L 586.942188 348.478125 
L 586.942188 22.318125 
L 28.942188 22.318125 
z
" style="fill:#ffffff;"/>
   </g>
   <g id="patch_3">
    <path clip-path="url(#p24100efeca)" d="M 54.305824 235.450873 
L 77.104598 235.450873 
L 77.104598 81.917695 
L 54.305824 81.917695 
z
" style="fill:#a9a9a9;"/>
   </g>
   <g id="patch_4">
    <path clip-path="url(#p24100efeca)" d="M 82.804292 235.450873 
L 105.603066 235.450873 
L 105.603066 178.684409 
L 82.804292 178.684409 
z
" style="fill:#a9a9a9;"/>
   </g>
   <g id="patch_5">
    <path clip-path="url(#p24100efeca)" d="M 111.30276 235.450873 
L 134.101534 235.450873 
L 134.101534 119.350123 
L 111.30276 119.350123 
z
" style="fill:#a9a9a9;"/>
   </g>
   <g id="patch_6">
    <path clip-path="url(#p24100efeca)" d="M 139.801227 235.450873 
L 162.600002 235.450873 
L 162.600002 80.359927 
L 139.801227 80.359927 
z
" style="fill:#a9a9a9;"/>
   </g>
   <g id="patch_7">
    <path clip-path="url(#p24100efeca)" d="M 168.299695 235.450873 
L 191.098469 235.450873 
L 191.098469 173.472132 
L 168.299695 173.472132 
z
" style="fill:#a9a9a9;"/>
   </g>
   <g id="patch_8">
    <path clip-path="url(#p24100efeca)" d="M 196.798163 235.450873 
L 219.596937 235.450873 
L 219.596937 166.296264 
L 196.798163 166.296264 
z
" style="fill:#a9a9a9;"/>
   </g>
   <g id="patch_9">
    <path clip-path="url(#p24100efeca)" d="M 225.296631 235.450873 
L 248.095405 235.450873 
L 248.095405 214.540123 
L 225.296631 214.540123 
z
" style="fill:#a9a9a9;"/>
   </g>
   <g id="patch_10">
    <path clip-path="url(#p24100efeca)" d="M 253.795099 235.450873 
L 276.593873 235.450873 
L 276.593873 130.426943 
L 253.795099 130.426943 
z
" style="fill:#a9a9a9;"/>
   </g>
   <g id="patch_11">
    <path clip-path="url(#p24100efeca)" d="M 282.293566 235.450873 
L 305.092341 235.450873 
L 305.092341 128.749623 
L 282.293566 128.749623 
z
" style="fill:#a9a9a9;"/>
   </g>
   <g id="patch_12">
    <path clip-path="url(#p24100efeca)" d="M 310.792034 235.450873 
L 333.590809 235.450873 
L 333.590809 93.625767 
L 310.792034 93.625767 
z
" style="fill:#a9a9a9;"/>
   </g>
   <g id="patch_13">
    <path clip-path="url(#p24100efeca)" d="M 339.290502 235.450873 
L 362.089276 235.450873 
L 362.089276 128.709862 
L 339.290502 128.709862 
z
" style="fill:#a9a9a9;"/>
   </g>
   <g id="patch_14">
    <path clip-path="url(#p24100efeca)" d="M 367.78897 235.450873 
L 390.587744 235.450873 
L 390.587744 114.575166 
L 367.78897 114.575166 
z
" style="fill:#a9a9a9;"/>
   </g>
   <g id="patch_15">
    <path clip-path="url(#p24100efeca)" d="M 396.287438 235.450873 
L 419.086212 235.450873 
L 419.086212 165.018789 
L 396.287438 165.018789 
z
" style="fill:#a9a9a9;"/>
   </g>
   <g id="patch_16">
    <path clip-path="url(#p24100efeca)" d="M 424.785906 235.450873 
L 447.58468 235.450873 
L 447.58468 231.837381 
L 424.785906 231.837381 
z
" style="fill:#a9a9a9;"/>
   </g>
   <g id="patch_17">
    <path clip-path="url(#p24100efeca)" d="M 453.284373 235.450873 
L 476.083148 235.450873 
L 476.083148 146.262657 
L 453.284373 146.262657 
z
" style="fill:#a9a9a9;"/>
   </g>
   <g id="patch_18">
    <path clip-path="url(#p24100efeca)" d="M 481.782841 235.450873 
L 504.581615 235.450873 
L 504.581615 207.879446 
L 481.782841 207.879446 
z
" style="fill:#a9a9a9;"/>
   </g>
   <g id="patch_19">
    <path clip-path="url(#p24100efeca)" d="M 510.281309 235.450873 
L 533.080083 235.450873 
L 533.080083 149.405086 
L 510.281309 149.405086 
z
" style="fill:#a9a9a9;"/>
   </g>
   <g id="patch_20">
    <path clip-path="url(#p24100efeca)" d="M 538.779777 235.450873 
L 561.578551 235.450873 
L 561.578551 296.545577 
L 538.779777 296.545577 
z
" style="fill:#a9a9a9;"/>
   </g>
   <g id="matplotlib.axis_1">
    <g id="xtick_1">
     <g id="line2d_1">
      <defs>
       <path d="M 0 0 
L 0 3.5 
" id="mf045335455" style="stroke:#000000;stroke-width:0.8;"/>
      </defs>
      <g>
       <use style="stroke:#000000;stroke-width:0.8;" x="65.705211" xlink:href="#mf045335455" y="348.478125"/>
      </g>
     </g>
     <g id="text_1">
      <!-- 0.0 -->
      <defs>
       <path d="M 31.78125 66.40625 
Q 24.171875 66.40625 20.328125 58.90625 
Q 16.5 51.421875 16.5 36.375 
Q 16.5 21.390625 20.328125 13.890625 
Q 24.171875 6.390625 31.78125 6.390625 
Q 39.453125 6.390625 43.28125 13.890625 
Q 47.125 21.390625 47.125 36.375 
Q 47.125 51.421875 43.28125 58.90625 
Q 39.453125 66.40625 31.78125 66.40625 
z
M 31.78125 74.21875 
Q 44.046875 74.21875 50.515625 64.515625 
Q 56.984375 54.828125 56.984375 36.375 
Q 56.984375 17.96875 50.515625 8.265625 
Q 44.046875 -1.421875 31.78125 -1.421875 
Q 19.53125 -1.421875 13.0625 8.265625 
Q 6.59375 17.96875 6.59375 36.375 
Q 6.59375 54.828125 13.0625 64.515625 
Q 19.53125 74.21875 31.78125 74.21875 
z
" id="DejaVuSans-48"/>
       <path d="M 10.6875 12.40625 
L 21 12.40625 
L 21 0 
L 10.6875 0 
z
" id="DejaVuSans-46"/>
      </defs>
      <g transform="translate(57.753648 363.076563)scale(0.1 -0.1)">
       <use xlink:href="#DejaVuSans-48"/>
       <use x="63.623047" xlink:href="#DejaVuSans-46"/>
       <use x="95.410156" xlink:href="#DejaVuSans-48"/>
      </g>
     </g>
    </g>
    <g id="xtick_2">
     <g id="line2d_2">
      <g>
       <use style="stroke:#000000;stroke-width:0.8;" x="136.951381" xlink:href="#mf045335455" y="348.478125"/>
      </g>
     </g>
     <g id="text_2">
      <!-- 2.5 -->
      <defs>
       <path d="M 19.1875 8.296875 
L 53.609375 8.296875 
L 53.609375 0 
L 7.328125 0 
L 7.328125 8.296875 
Q 12.9375 14.109375 22.625 23.890625 
Q 32.328125 33.6875 34.8125 36.53125 
Q 39.546875 41.84375 41.421875 45.53125 
Q 43.3125 49.21875 43.3125 52.78125 
Q 43.3125 58.59375 39.234375 62.25 
Q 35.15625 65.921875 28.609375 65.921875 
Q 23.96875 65.921875 18.8125 64.3125 
Q 13.671875 62.703125 7.8125 59.421875 
L 7.8125 69.390625 
Q 13.765625 71.78125 18.9375 73 
Q 24.125 74.21875 28.421875 74.21875 
Q 39.75 74.21875 46.484375 68.546875 
Q 53.21875 62.890625 53.21875 53.421875 
Q 53.21875 48.921875 51.53125 44.890625 
Q 49.859375 40.875 45.40625 35.40625 
Q 44.1875 33.984375 37.640625 27.21875 
Q 31.109375 20.453125 19.1875 8.296875 
z
" id="DejaVuSans-50"/>
       <path d="M 10.796875 72.90625 
L 49.515625 72.90625 
L 49.515625 64.59375 
L 19.828125 64.59375 
L 19.828125 46.734375 
Q 21.96875 47.46875 24.109375 47.828125 
Q 26.265625 48.1875 28.421875 48.1875 
Q 40.625 48.1875 47.75 41.5 
Q 54.890625 34.8125 54.890625 23.390625 
Q 54.890625 11.625 47.5625 5.09375 
Q 40.234375 -1.421875 26.90625 -1.421875 
Q 22.3125 -1.421875 17.546875 -0.640625 
Q 12.796875 0.140625 7.71875 1.703125 
L 7.71875 11.625 
Q 12.109375 9.234375 16.796875 8.0625 
Q 21.484375 6.890625 26.703125 6.890625 
Q 35.15625 6.890625 40.078125 11.328125 
Q 45.015625 15.765625 45.015625 23.390625 
Q 45.015625 31 40.078125 35.4375 
Q 35.15625 39.890625 26.703125 39.890625 
Q 22.75 39.890625 18.8125 39.015625 
Q 14.890625 38.140625 10.796875 36.28125 
z
" id="DejaVuSans-53"/>
      </defs>
      <g transform="translate(128.999818 363.076563)scale(0.1 -0.1)">
       <use xlink:href="#DejaVuSans-50"/>
       <use x="63.623047" xlink:href="#DejaVuSans-46"/>
       <use x="95.410156" xlink:href="#DejaVuSans-53"/>
      </g>
     </g>
    </g>
    <g id="xtick_3">
     <g id="line2d_3">
      <g>
       <use style="stroke:#000000;stroke-width:0.8;" x="208.19755" xlink:href="#mf045335455" y="348.478125"/>
      </g>
     </g>
     <g id="text_3">
      <!-- 5.0 -->
      <g transform="translate(200.245988 363.076563)scale(0.1 -0.1)">
       <use xlink:href="#DejaVuSans-53"/>
       <use x="63.623047" xlink:href="#DejaVuSans-46"/>
       <use x="95.410156" xlink:href="#DejaVuSans-48"/>
      </g>
     </g>
    </g>
    <g id="xtick_4">
     <g id="line2d_4">
      <g>
       <use style="stroke:#000000;stroke-width:0.8;" x="279.44372" xlink:href="#mf045335455" y="348.478125"/>
      </g>
     </g>
     <g id="text_4">
      <!-- 7.5 -->
      <defs>
       <path d="M 8.203125 72.90625 
L 55.078125 72.90625 
L 55.078125 68.703125 
L 28.609375 0 
L 18.3125 0 
L 43.21875 64.59375 
L 8.203125 64.59375 
z
" id="DejaVuSans-55"/>
      </defs>
      <g transform="translate(271.492157 363.076563)scale(0.1 -0.1)">
       <use xlink:href="#DejaVuSans-55"/>
       <use x="63.623047" xlink:href="#DejaVuSans-46"/>
       <use x="95.410156" xlink:href="#DejaVuSans-53"/>
      </g>
     </g>
    </g>
    <g id="xtick_5">
     <g id="line2d_5">
      <g>
       <use style="stroke:#000000;stroke-width:0.8;" x="350.689889" xlink:href="#mf045335455" y="348.478125"/>
      </g>
     </g>
     <g id="text_5">
      <!-- 10.0 -->
      <defs>
       <path d="M 12.40625 8.296875 
L 28.515625 8.296875 
L 28.515625 63.921875 
L 10.984375 60.40625 
L 10.984375 69.390625 
L 28.421875 72.90625 
L 38.28125 72.90625 
L 38.28125 8.296875 
L 54.390625 8.296875 
L 54.390625 0 
L 12.40625 0 
z
" id="DejaVuSans-49"/>
      </defs>
      <g transform="translate(339.557077 363.076563)scale(0.1 -0.1)">
       <use xlink:href="#DejaVuSans-49"/>
       <use x="63.623047" xlink:href="#DejaVuSans-48"/>
       <use x="127.246094" xlink:href="#DejaVuSans-46"/>
       <use x="159.033203" xlink:href="#DejaVuSans-48"/>
      </g>
     </g>
    </g>
    <g id="xtick_6">
     <g id="line2d_6">
      <g>
       <use style="stroke:#000000;stroke-width:0.8;" x="421.936059" xlink:href="#mf045335455" y="348.478125"/>
      </g>
     </g>
     <g id="text_6">
      <!-- 12.5 -->
      <g transform="translate(410.803246 363.076563)scale(0.1 -0.1)">
       <use xlink:href="#DejaVuSans-49"/>
       <use x="63.623047" xlink:href="#DejaVuSans-50"/>
       <use x="127.246094" xlink:href="#DejaVuSans-46"/>
       <use x="159.033203" xlink:href="#DejaVuSans-53"/>
      </g>
     </g>
    </g>
    <g id="xtick_7">
     <g id="line2d_7">
      <g>
       <use style="stroke:#000000;stroke-width:0.8;" x="493.182228" xlink:href="#mf045335455" y="348.478125"/>
      </g>
     </g>
     <g id="text_7">
      <!-- 15.0 -->
      <g transform="translate(482.049416 363.076563)scale(0.1 -0.1)">
       <use xlink:href="#DejaVuSans-49"/>
       <use x="63.623047" xlink:href="#DejaVuSans-53"/>
       <use x="127.246094" xlink:href="#DejaVuSans-46"/>
       <use x="159.033203" xlink:href="#DejaVuSans-48"/>
      </g>
     </g>
    </g>
    <g id="xtick_8">
     <g id="line2d_8">
      <g>
       <use style="stroke:#000000;stroke-width:0.8;" x="564.428398" xlink:href="#mf045335455" y="348.478125"/>
      </g>
     </g>
     <g id="text_8">
      <!-- 17.5 -->
      <g transform="translate(553.295585 363.076563)scale(0.1 -0.1)">
       <use xlink:href="#DejaVuSans-49"/>
       <use x="63.623047" xlink:href="#DejaVuSans-55"/>
       <use x="127.246094" xlink:href="#DejaVuSans-46"/>
       <use x="159.033203" xlink:href="#DejaVuSans-53"/>
      </g>
     </g>
    </g>
   </g>
   <g id="matplotlib.axis_2">
    <g id="ytick_1">
     <g id="line2d_9">
      <defs>
       <path d="M 0 0 
L -3.5 0 
" id="md0868af217" style="stroke:#000000;stroke-width:0.8;"/>
      </defs>
      <g>
       <use style="stroke:#000000;stroke-width:0.8;" x="28.942188" xlink:href="#md0868af217" y="297.010663"/>
      </g>
     </g>
     <g id="text_9">
      <!-- −2 -->
      <defs>
       <path d="M 10.59375 35.5 
L 73.1875 35.5 
L 73.1875 27.203125 
L 10.59375 27.203125 
z
" id="DejaVuSans-8722"/>
      </defs>
      <g transform="translate(7.2 300.809882)scale(0.1 -0.1)">
       <use xlink:href="#DejaVuSans-8722"/>
       <use x="83.789062" xlink:href="#DejaVuSans-50"/>
      </g>
     </g>
    </g>
    <g id="ytick_2">
     <g id="line2d_10">
      <g>
       <use style="stroke:#000000;stroke-width:0.8;" x="28.942188" xlink:href="#md0868af217" y="235.450873"/>
      </g>
     </g>
     <g id="text_10">
      <!-- 0 -->
      <g transform="translate(15.579688 239.250092)scale(0.1 -0.1)">
       <use xlink:href="#DejaVuSans-48"/>
      </g>
     </g>
    </g>
    <g id="ytick_3">
     <g id="line2d_11">
      <g>
       <use style="stroke:#000000;stroke-width:0.8;" x="28.942188" xlink:href="#md0868af217" y="173.891083"/>
      </g>
     </g>
     <g id="text_11">
      <!-- 2 -->
      <g transform="translate(15.579688 177.690302)scale(0.1 -0.1)">
       <use xlink:href="#DejaVuSans-50"/>
      </g>
     </g>
    </g>
    <g id="ytick_4">
     <g id="line2d_12">
      <g>
       <use style="stroke:#000000;stroke-width:0.8;" x="28.942188" xlink:href="#md0868af217" y="112.331293"/>
      </g>
     </g>
     <g id="text_12">
      <!-- 4 -->
      <defs>
       <path d="M 37.796875 64.3125 
L 12.890625 25.390625 
L 37.796875 25.390625 
z
M 35.203125 72.90625 
L 47.609375 72.90625 
L 47.609375 25.390625 
L 58.015625 25.390625 
L 58.015625 17.1875 
L 47.609375 17.1875 
L 47.609375 0 
L 37.796875 0 
L 37.796875 17.1875 
L 4.890625 17.1875 
L 4.890625 26.703125 
z
" id="DejaVuSans-52"/>
      </defs>
      <g transform="translate(15.579688 116.130511)scale(0.1 -0.1)">
       <use xlink:href="#DejaVuSans-52"/>
      </g>
     </g>
    </g>
    <g id="ytick_5">
     <g id="line2d_13">
      <g>
       <use style="stroke:#000000;stroke-width:0.8;" x="28.942188" xlink:href="#md0868af217" y="50.771502"/>
      </g>
     </g>
     <g id="text_13">
      <!-- 6 -->
      <defs>
       <path d="M 33.015625 40.375 
Q 26.375 40.375 22.484375 35.828125 
Q 18.609375 31.296875 18.609375 23.390625 
Q 18.609375 15.53125 22.484375 10.953125 
Q 26.375 6.390625 33.015625 6.390625 
Q 39.65625 6.390625 43.53125 10.953125 
Q 47.40625 15.53125 47.40625 23.390625 
Q 47.40625 31.296875 43.53125 35.828125 
Q 39.65625 40.375 33.015625 40.375 
z
M 52.59375 71.296875 
L 52.59375 62.3125 
Q 48.875 64.0625 45.09375 64.984375 
Q 41.3125 65.921875 37.59375 65.921875 
Q 27.828125 65.921875 22.671875 59.328125 
Q 17.53125 52.734375 16.796875 39.40625 
Q 19.671875 43.65625 24.015625 45.921875 
Q 28.375 48.1875 33.59375 48.1875 
Q 44.578125 48.1875 50.953125 41.515625 
Q 57.328125 34.859375 57.328125 23.390625 
Q 57.328125 12.15625 50.6875 5.359375 
Q 44.046875 -1.421875 33.015625 -1.421875 
Q 20.359375 -1.421875 13.671875 8.265625 
Q 6.984375 17.96875 6.984375 36.375 
Q 6.984375 53.65625 15.1875 63.9375 
Q 23.390625 74.21875 37.203125 74.21875 
Q 40.921875 74.21875 44.703125 73.484375 
Q 48.484375 72.75 52.59375 71.296875 
z
" id="DejaVuSans-54"/>
      </defs>
      <g transform="translate(15.579688 54.570721)scale(0.1 -0.1)">
       <use xlink:href="#DejaVuSans-54"/>
      </g>
     </g>
    </g>
   </g>
   <g id="LineCollection_1">
    <path clip-path="url(#p24100efeca)" d="M 65.705211 115.655388 
L 65.705211 48.213925 
" style="fill:none;stroke:#000000;stroke-width:1.5;"/>
    <path clip-path="url(#p24100efeca)" d="M 94.203679 210.149351 
L 94.203679 148.17493 
" style="fill:none;stroke:#000000;stroke-width:1.5;"/>
    <path clip-path="url(#p24100efeca)" d="M 122.702147 154.785399 
L 122.702147 85.098352 
" style="fill:none;stroke:#000000;stroke-width:1.5;"/>
    <path clip-path="url(#p24100efeca)" d="M 151.200614 124.161249 
L 151.200614 37.14358 
" style="fill:none;stroke:#000000;stroke-width:1.5;"/>
    <path clip-path="url(#p24100efeca)" d="M 179.699082 257.604034 
L 179.699082 113.340892 
" style="fill:none;stroke:#000000;stroke-width:1.5;"/>
    <path clip-path="url(#p24100efeca)" d="M 208.19755 199.654819 
L 208.19755 134.935817 
" style="fill:none;stroke:#000000;stroke-width:1.5;"/>
    <path clip-path="url(#p24100efeca)" d="M 236.696018 270.803913 
L 236.696018 169.85034 
" style="fill:none;stroke:#000000;stroke-width:1.5;"/>
    <path clip-path="url(#p24100efeca)" d="M 265.194486 170.377479 
L 265.194486 93.346598 
" style="fill:none;stroke:#000000;stroke-width:1.5;"/>
    <path clip-path="url(#p24100efeca)" d="M 293.692954 172.125772 
L 293.692954 84.513569 
" style="fill:none;stroke:#000000;stroke-width:1.5;"/>
    <path clip-path="url(#p24100efeca)" d="M 322.191421 130.340652 
L 322.191421 57.840192 
" style="fill:none;stroke:#000000;stroke-width:1.5;"/>
    <path clip-path="url(#p24100efeca)" d="M 350.689889 157.549251 
L 350.689889 101.286536 
" style="fill:none;stroke:#000000;stroke-width:1.5;"/>
    <path clip-path="url(#p24100efeca)" d="M 379.188357 171.806311 
L 379.188357 61.584253 
" style="fill:none;stroke:#000000;stroke-width:1.5;"/>
    <path clip-path="url(#p24100efeca)" d="M 407.686825 201.658158 
L 407.686825 128.174803 
" style="fill:none;stroke:#000000;stroke-width:1.5;"/>
    <path clip-path="url(#p24100efeca)" d="M 436.185293 280.391457 
L 436.185293 185.278173 
" style="fill:none;stroke:#000000;stroke-width:1.5;"/>
    <path clip-path="url(#p24100efeca)" d="M 464.683761 179.711058 
L 464.683761 113.673543 
" style="fill:none;stroke:#000000;stroke-width:1.5;"/>
    <path clip-path="url(#p24100efeca)" d="M 493.182228 250.947974 
L 493.182228 175.686591 
" style="fill:none;stroke:#000000;stroke-width:1.5;"/>
    <path clip-path="url(#p24100efeca)" d="M 521.680696 197.456476 
L 521.680696 103.199481 
" style="fill:none;stroke:#000000;stroke-width:1.5;"/>
    <path clip-path="url(#p24100efeca)" d="M 550.179164 333.65267 
L 550.179164 261.878822 
" style="fill:none;stroke:#000000;stroke-width:1.5;"/>
   </g>
   <g id="line2d_14">
    <defs>
     <path d="M 6 0 
L -6 -0 
" id="mc0e9b9acee" style="stroke:#000000;"/>
    </defs>
    <g clip-path="url(#p24100efeca)">
     <use style="stroke:#000000;" x="65.705211" xlink:href="#mc0e9b9acee" y="115.655388"/>
     <use style="stroke:#000000;" x="94.203679" xlink:href="#mc0e9b9acee" y="210.149351"/>
     <use style="stroke:#000000;" x="122.702147" xlink:href="#mc0e9b9acee" y="154.785399"/>
     <use style="stroke:#000000;" x="151.200614" xlink:href="#mc0e9b9acee" y="124.161249"/>
     <use style="stroke:#000000;" x="179.699082" xlink:href="#mc0e9b9acee" y="257.604034"/>
     <use style="stroke:#000000;" x="208.19755" xlink:href="#mc0e9b9acee" y="199.654819"/>
     <use style="stroke:#000000;" x="236.696018" xlink:href="#mc0e9b9acee" y="270.803913"/>
     <use style="stroke:#000000;" x="265.194486" xlink:href="#mc0e9b9acee" y="170.377479"/>
     <use style="stroke:#000000;" x="293.692954" xlink:href="#mc0e9b9acee" y="172.125772"/>
     <use style="stroke:#000000;" x="322.191421" xlink:href="#mc0e9b9acee" y="130.340652"/>
     <use style="stroke:#000000;" x="350.689889" xlink:href="#mc0e9b9acee" y="157.549251"/>
     <use style="stroke:#000000;" x="379.188357" xlink:href="#mc0e9b9acee" y="171.806311"/>
     <use style="stroke:#000000;" x="407.686825" xlink:href="#mc0e9b9acee" y="201.658158"/>
     <use style="stroke:#000000;" x="436.185293" xlink:href="#mc0e9b9acee" y="280.391457"/>
     <use style="stroke:#000000;" x="464.683761" xlink:href="#mc0e9b9acee" y="179.711058"/>
     <use style="stroke:#000000;" x="493.182228" xlink:href="#mc0e9b9acee" y="250.947974"/>
     <use style="stroke:#000000;" x="521.680696" xlink:href="#mc0e9b9acee" y="197.456476"/>
     <use style="stroke:#000000;" x="550.179164" xlink:href="#mc0e9b9acee" y="333.65267"/>
    </g>
   </g>
   <g id="line2d_15">
    <g clip-path="url(#p24100efeca)">
     <use style="stroke:#000000;" x="65.705211" xlink:href="#mc0e9b9acee" y="48.213925"/>
     <use style="stroke:#000000;" x="94.203679" xlink:href="#mc0e9b9acee" y="148.17493"/>
     <use style="stroke:#000000;" x="122.702147" xlink:href="#mc0e9b9acee" y="85.098352"/>
     <use style="stroke:#000000;" x="151.200614" xlink:href="#mc0e9b9acee" y="37.14358"/>
     <use style="stroke:#000000;" x="179.699082" xlink:href="#mc0e9b9acee" y="113.340892"/>
     <use style="stroke:#000000;" x="208.19755" xlink:href="#mc0e9b9acee" y="134.935817"/>
     <use style="stroke:#000000;" x="236.696018" xlink:href="#mc0e9b9acee" y="169.85034"/>
     <use style="stroke:#000000;" x="265.194486" xlink:href="#mc0e9b9acee" y="93.346598"/>
     <use style="stroke:#000000;" x="293.692954" xlink:href="#mc0e9b9acee" y="84.513569"/>
     <use style="stroke:#000000;" x="322.191421" xlink:href="#mc0e9b9acee" y="57.840192"/>
     <use style="stroke:#000000;" x="350.689889" xlink:href="#mc0e9b9acee" y="101.286536"/>
     <use style="stroke:#000000;" x="379.188357" xlink:href="#mc0e9b9acee" y="61.584253"/>
     <use style="stroke:#000000;" x="407.686825" xlink:href="#mc0e9b9acee" y="128.174803"/>
     <use style="stroke:#000000;" x="436.185293" xlink:href="#mc0e9b9acee" y="185.278173"/>
     <use style="stroke:#000000;" x="464.683761" xlink:href="#mc0e9b9acee" y="113.673543"/>
     <use style="stroke:#000000;" x="493.182228" xlink:href="#mc0e9b9acee" y="175.686591"/>
     <use style="stroke:#000000;" x="521.680696" xlink:href="#mc0e9b9acee" y="103.199481"/>
     <use style="stroke:#000000;" x="550.179164" xlink:href="#mc0e9b9acee" y="261.878822"/>
    </g>
   </g>
   <g id="patch_21">
    <path d="M 28.942188 348.478125 
L 28.942188 22.318125 
" style="fill:none;stroke:#000000;stroke-linecap:square;stroke-linejoin:miter;stroke-width:2;"/>
   </g>
   <g id="patch_22">
    <path d="M 586.942188 348.478125 
L 586.942188 22.318125 
" style="fill:none;stroke:#000000;stroke-linecap:square;stroke-linejoin:miter;stroke-width:2;"/>
   </g>
   <g id="patch_23">
    <path d="M 28.942187 348.478125 
L 586.942187 348.478125 
" style="fill:none;stroke:#000000;stroke-linecap:square;stroke-linejoin:miter;stroke-width:2;"/>
   </g>
   <g id="patch_24">
    <path d="M 28.942187 22.318125 
L 586.942187 22.318125 
" style="fill:none;stroke:#000000;stroke-linecap:square;stroke-linejoin:miter;stroke-width:2;"/>
   </g>
   <g id="text_14">
    <!-- 18 Bins -->
    <defs>
     <path d="M 31.78125 34.625 
Q 24.75 34.625 20.71875 30.859375 
Q 16.703125 27.09375 16.703125 20.515625 
Q 16.703125 13.921875 20.71875 10.15625 
Q 24.75 6.390625 31.78125 6.390625 
Q 38.8125 6.390625 42.859375 10.171875 
Q 46.921875 13.96875 46.921875 20.515625 
Q 46.921875 27.09375 42.890625 30.859375 
Q 38.875 34.625 31.78125 34.625 
z
M 21.921875 38.8125 
Q 15.578125 40.375 12.03125 44.71875 
Q 8.5 49.078125 8.5 55.328125 
Q 8.5 64.0625 14.71875 69.140625 
Q 20.953125 74.21875 31.78125 74.21875 
Q 42.671875 74.21875 48.875 69.140625 
Q 55.078125 64.0625 55.078125 55.328125 
Q 55.078125 49.078125 51.53125 44.71875 
Q 48 40.375 41.703125 38.8125 
Q 48.828125 37.15625 52.796875 32.3125 
Q 56.78125 27.484375 56.78125 20.515625 
Q 56.78125 9.90625 50.3125 4.234375 
Q 43.84375 -1.421875 31.78125 -1.421875 
Q 19.734375 -1.421875 13.25 4.234375 
Q 6.78125 9.90625 6.78125 20.515625 
Q 6.78125 27.484375 10.78125 32.3125 
Q 14.796875 37.15625 21.921875 38.8125 
z
M 18.3125 54.390625 
Q 18.3125 48.734375 21.84375 45.5625 
Q 25.390625 42.390625 31.78125 42.390625 
Q 38.140625 42.390625 41.71875 45.5625 
Q 45.3125 48.734375 45.3125 54.390625 
Q 45.3125 60.0625 41.71875 63.234375 
Q 38.140625 66.40625 31.78125 66.40625 
Q 25.390625 66.40625 21.84375 63.234375 
Q 18.3125 60.0625 18.3125 54.390625 
z
" id="DejaVuSans-56"/>
     <path id="DejaVuSans-32"/>
     <path d="M 19.671875 34.8125 
L 19.671875 8.109375 
L 35.5 8.109375 
Q 43.453125 8.109375 47.28125 11.40625 
Q 51.125 14.703125 51.125 21.484375 
Q 51.125 28.328125 47.28125 31.5625 
Q 43.453125 34.8125 35.5 34.8125 
z
M 19.671875 64.796875 
L 19.671875 42.828125 
L 34.28125 42.828125 
Q 41.5 42.828125 45.03125 45.53125 
Q 48.578125 48.25 48.578125 53.8125 
Q 48.578125 59.328125 45.03125 62.0625 
Q 41.5 64.796875 34.28125 64.796875 
z
M 9.8125 72.90625 
L 35.015625 72.90625 
Q 46.296875 72.90625 52.390625 68.21875 
Q 58.5 63.53125 58.5 54.890625 
Q 58.5 48.1875 55.375 44.234375 
Q 52.25 40.28125 46.1875 39.3125 
Q 53.46875 37.75 57.5 32.78125 
Q 61.53125 27.828125 61.53125 20.40625 
Q 61.53125 10.640625 54.890625 5.3125 
Q 48.25 0 35.984375 0 
L 9.8125 0 
z
" id="DejaVuSans-66"/>
     <path d="M 9.421875 54.6875 
L 18.40625 54.6875 
L 18.40625 0 
L 9.421875 0 
z
M 9.421875 75.984375 
L 18.40625 75.984375 
L 18.40625 64.59375 
L 9.421875 64.59375 
z
" id="DejaVuSans-105"/>
     <path d="M 54.890625 33.015625 
L 54.890625 0 
L 45.90625 0 
L 45.90625 32.71875 
Q 45.90625 40.484375 42.875 44.328125 
Q 39.84375 48.1875 33.796875 48.1875 
Q 26.515625 48.1875 22.3125 43.546875 
Q 18.109375 38.921875 18.109375 30.90625 
L 18.109375 0 
L 9.078125 0 
L 9.078125 54.6875 
L 18.109375 54.6875 
L 18.109375 46.1875 
Q 21.34375 51.125 25.703125 53.5625 
Q 30.078125 56 35.796875 56 
Q 45.21875 56 50.046875 50.171875 
Q 54.890625 44.34375 54.890625 33.015625 
z
" id="DejaVuSans-110"/>
     <path d="M 44.28125 53.078125 
L 44.28125 44.578125 
Q 40.484375 46.53125 36.375 47.5 
Q 32.28125 48.484375 27.875 48.484375 
Q 21.1875 48.484375 17.84375 46.4375 
Q 14.5 44.390625 14.5 40.28125 
Q 14.5 37.15625 16.890625 35.375 
Q 19.28125 33.59375 26.515625 31.984375 
L 29.59375 31.296875 
Q 39.15625 29.25 43.1875 25.515625 
Q 47.21875 21.78125 47.21875 15.09375 
Q 47.21875 7.46875 41.1875 3.015625 
Q 35.15625 -1.421875 24.609375 -1.421875 
Q 20.21875 -1.421875 15.453125 -0.5625 
Q 10.6875 0.296875 5.421875 2 
L 5.421875 11.28125 
Q 10.40625 8.6875 15.234375 7.390625 
Q 20.0625 6.109375 24.8125 6.109375 
Q 31.15625 6.109375 34.5625 8.28125 
Q 37.984375 10.453125 37.984375 14.40625 
Q 37.984375 18.0625 35.515625 20.015625 
Q 33.0625 21.96875 24.703125 23.78125 
L 21.578125 24.515625 
Q 13.234375 26.265625 9.515625 29.90625 
Q 5.8125 33.546875 5.8125 39.890625 
Q 5.8125 47.609375 11.28125 51.796875 
Q 16.75 56 26.8125 56 
Q 31.78125 56 36.171875 55.265625 
Q 40.578125 54.546875 44.28125 53.078125 
z
" id="DejaVuSans-115"/>
    </defs>
    <g transform="translate(285.68875 16.318125)scale(0.12 -0.12)">
     <use xlink:href="#DejaVuSans-49"/>
     <use x="63.623047" xlink:href="#DejaVuSans-56"/>
     <use x="127.246094" xlink:href="#DejaVuSans-32"/>
     <use x="159.033203" xlink:href="#DejaVuSans-66"/>
     <use x="227.636719" xlink:href="#DejaVuSans-105"/>
     <use x="255.419922" xlink:href="#DejaVuSans-110"/>
     <use x="318.798828" xlink:href="#DejaVuSans-115"/>
    </g>
   </g>
  </g>
 </g>
 <defs>
  <clipPath id="p24100efeca">
   <rect height="326.16" width="558" x="28.942188" y="22.318125"/>
  </clipPath>
 </defs>
</svg>
