<?xml version="1.0" encoding="utf-8" standalone="no"?>
<!DOCTYPE svg PUBLIC "-//W3C//DTD SVG 1.1//EN"
  "http://www.w3.org/Graphics/SVG/1.1/DTD/svg11.dtd">
<!-- Created with matplotlib (https://matplotlib.org/) -->
<svg height="359.99pt" version="1.1" viewBox="0 0 665.398619 359.99" width="665.398619pt" xmlns="http://www.w3.org/2000/svg" xmlns:xlink="http://www.w3.org/1999/xlink">
 <defs>
  <style type="text/css">
*{stroke-linecap:butt;stroke-linejoin:round;}
  </style>
 </defs>
 <g id="figure_1">
  <g id="patch_1">
   <path d="M 0 359.99 
L 665.398619 359.99 
L 665.398619 0 
L 0 0 
z
" style="fill:#ffffff;"/>
  </g>
  <g id="axes_1">
   <g id="patch_2">
    <path d="M 34.2875 333.36 
L 592.2875 333.36 
L 592.2875 7.2 
L 34.2875 7.2 
z
" style="fill:#ffffff;"/>
   </g>
   <g id="patch_3">
    <path clip-path="url(#p9c0b330600)" d="M 59.651136 236.357347 
L 79.161626 236.357347 
L 79.161626 123.14538 
L 59.651136 123.14538 
z
" style="fill:#a9a9a9;"/>
   </g>
   <g id="patch_4">
    <path clip-path="url(#p9c0b330600)" d="M 84.039248 236.357347 
L 103.549738 236.357347 
L 103.549738 188.647109 
L 84.039248 188.647109 
z
" style="fill:#a9a9a9;"/>
   </g>
   <g id="patch_5">
    <path clip-path="url(#p9c0b330600)" d="M 108.42736 236.357347 
L 127.93785 236.357347 
L 127.93785 111.350632 
L 108.42736 111.350632 
z
" style="fill:#a9a9a9;"/>
   </g>
   <g id="patch_6">
    <path clip-path="url(#p9c0b330600)" d="M 132.815472 236.357347 
L 152.325962 236.357347 
L 152.325962 185.031565 
L 132.815472 185.031565 
z
" style="fill:#a9a9a9;"/>
   </g>
   <g id="patch_7">
    <path clip-path="url(#p9c0b330600)" d="M 157.203584 236.357347 
L 176.714073 236.357347 
L 176.714073 144.803027 
L 157.203584 144.803027 
z
" style="fill:#a9a9a9;"/>
   </g>
   <g id="patch_8">
    <path clip-path="url(#p9c0b330600)" d="M 181.591696 236.357347 
L 201.102185 236.357347 
L 201.102185 168.901142 
L 181.591696 168.901142 
z
" style="fill:#a9a9a9;"/>
   </g>
   <g id="patch_9">
    <path clip-path="url(#p9c0b330600)" d="M 205.979808 236.357347 
L 225.490297 236.357347 
L 225.490297 163.58012 
L 205.979808 163.58012 
z
" style="fill:#a9a9a9;"/>
   </g>
   <g id="patch_10">
    <path clip-path="url(#p9c0b330600)" d="M 230.36792 236.357347 
L 249.878409 236.357347 
L 249.878409 203.406436 
L 230.36792 203.406436 
z
" style="fill:#a9a9a9;"/>
   </g>
   <g id="patch_11">
    <path clip-path="url(#p9c0b330600)" d="M 254.756031 236.357347 
L 274.266521 236.357347 
L 274.266521 119.813113 
L 254.756031 119.813113 
z
" style="fill:#a9a9a9;"/>
   </g>
   <g id="patch_12">
    <path clip-path="url(#p9c0b330600)" d="M 279.144143 236.357347 
L 298.654633 236.357347 
L 298.654633 119.696174 
L 279.144143 119.696174 
z
" style="fill:#a9a9a9;"/>
   </g>
   <g id="patch_13">
    <path clip-path="url(#p9c0b330600)" d="M 303.532255 236.357347 
L 323.042745 236.357347 
L 323.042745 141.279631 
L 303.532255 141.279631 
z
" style="fill:#a9a9a9;"/>
   </g>
   <g id="patch_14">
    <path clip-path="url(#p9c0b330600)" d="M 327.920367 236.357347 
L 347.430857 236.357347 
L 347.430857 144.723871 
L 327.920367 144.723871 
z
" style="fill:#a9a9a9;"/>
   </g>
   <g id="patch_15">
    <path clip-path="url(#p9c0b330600)" d="M 352.308479 236.357347 
L 371.818969 236.357347 
L 371.818969 167.095106 
L 352.308479 167.095106 
z
" style="fill:#a9a9a9;"/>
   </g>
   <g id="patch_16">
    <path clip-path="url(#p9c0b330600)" d="M 376.696591 236.357347 
L 396.20708 236.357347 
L 396.20708 133.172319 
L 376.696591 133.172319 
z
" style="fill:#a9a9a9;"/>
   </g>
   <g id="patch_17">
    <path clip-path="url(#p9c0b330600)" d="M 401.084703 236.357347 
L 420.595192 236.357347 
L 420.595192 194.018261 
L 401.084703 194.018261 
z
" style="fill:#a9a9a9;"/>
   </g>
   <g id="patch_18">
    <path clip-path="url(#p9c0b330600)" d="M 425.472815 236.357347 
L 444.983304 236.357347 
L 444.983304 155.530535 
L 425.472815 155.530535 
z
" style="fill:#a9a9a9;"/>
   </g>
   <g id="patch_19">
    <path clip-path="url(#p9c0b330600)" d="M 449.860927 236.357347 
L 469.371416 236.357347 
L 469.371416 140.703562 
L 449.860927 140.703562 
z
" style="fill:#a9a9a9;"/>
   </g>
   <g id="patch_20">
    <path clip-path="url(#p9c0b330600)" d="M 474.249038 236.357347 
L 493.759528 236.357347 
L 493.759528 153.198567 
L 474.249038 153.198567 
z
" style="fill:#a9a9a9;"/>
   </g>
   <g id="patch_21">
    <path clip-path="url(#p9c0b330600)" d="M 498.63715 236.357347 
L 518.14764 236.357347 
L 518.14764 209.328545 
L 498.63715 209.328545 
z
" style="fill:#a9a9a9;"/>
   </g>
   <g id="patch_22">
    <path clip-path="url(#p9c0b330600)" d="M 523.025262 236.357347 
L 542.535752 236.357347 
L 542.535752 122.377221 
L 523.025262 122.377221 
z
" style="fill:#a9a9a9;"/>
   </g>
   <g id="patch_23">
    <path clip-path="url(#p9c0b330600)" d="M 547.413374 236.357347 
L 566.923864 236.357347 
L 566.923864 168.901456 
L 547.413374 168.901456 
z
" style="fill:#a9a9a9;"/>
   </g>
   <g id="matplotlib.axis_1">
    <g id="xtick_1">
     <g id="line2d_1">
      <defs>
       <path d="M 0 0 
L 0 -6 
" id="mab286e8dec" style="stroke:#000000;stroke-width:2;"/>
      </defs>
      <g>
       <use style="stroke:#000000;stroke-width:2;" x="69.406381" xlink:href="#mab286e8dec" y="333.36"/>
      </g>
     </g>
     <g id="text_1">
      <!-- AR -->
      <defs>
       <path d="M 34.1875 63.1875 
L 20.796875 26.90625 
L 47.609375 26.90625 
z
M 28.609375 72.90625 
L 39.796875 72.90625 
L 67.578125 0 
L 57.328125 0 
L 50.6875 18.703125 
L 17.828125 18.703125 
L 11.1875 0 
L 0.78125 0 
z
" id="DejaVuSans-65"/>
       <path d="M 44.390625 34.1875 
Q 47.5625 33.109375 50.5625 29.59375 
Q 53.5625 26.078125 56.59375 19.921875 
L 66.609375 0 
L 56 0 
L 46.6875 18.703125 
Q 43.0625 26.03125 39.671875 28.421875 
Q 36.28125 30.8125 30.421875 30.8125 
L 19.671875 30.8125 
L 19.671875 0 
L 9.8125 0 
L 9.8125 72.90625 
L 32.078125 72.90625 
Q 44.578125 72.90625 50.734375 67.671875 
Q 56.890625 62.453125 56.890625 51.90625 
Q 56.890625 45.015625 53.6875 40.46875 
Q 50.484375 35.9375 44.390625 34.1875 
z
M 19.671875 64.796875 
L 19.671875 38.921875 
L 32.078125 38.921875 
Q 39.203125 38.921875 42.84375 42.21875 
Q 46.484375 45.515625 46.484375 51.90625 
Q 46.484375 58.296875 42.84375 61.546875 
Q 39.203125 64.796875 32.078125 64.796875 
z
" id="DejaVuSans-82"/>
      </defs>
      <g transform="translate(58.375131 349.0175)scale(0.16 -0.16)">
       <use xlink:href="#DejaVuSans-65"/>
       <use x="68.408203" xlink:href="#DejaVuSans-82"/>
      </g>
     </g>
    </g>
    <g id="xtick_2">
     <g id="line2d_2">
      <g>
       <use style="stroke:#000000;stroke-width:2;" x="93.794493" xlink:href="#mab286e8dec" y="333.36"/>
      </g>
     </g>
     <g id="text_2">
      <!-- AS -->
      <defs>
       <path d="M 53.515625 70.515625 
L 53.515625 60.890625 
Q 47.90625 63.578125 42.921875 64.890625 
Q 37.9375 66.21875 33.296875 66.21875 
Q 25.25 66.21875 20.875 63.09375 
Q 16.5 59.96875 16.5 54.203125 
Q 16.5 49.359375 19.40625 46.890625 
Q 22.3125 44.4375 30.421875 42.921875 
L 36.375 41.703125 
Q 47.40625 39.59375 52.65625 34.296875 
Q 57.90625 29 57.90625 20.125 
Q 57.90625 9.515625 50.796875 4.046875 
Q 43.703125 -1.421875 29.984375 -1.421875 
Q 24.8125 -1.421875 18.96875 -0.25 
Q 13.140625 0.921875 6.890625 3.21875 
L 6.890625 13.375 
Q 12.890625 10.015625 18.65625 8.296875 
Q 24.421875 6.59375 29.984375 6.59375 
Q 38.421875 6.59375 43.015625 9.90625 
Q 47.609375 13.234375 47.609375 19.390625 
Q 47.609375 24.75 44.3125 27.78125 
Q 41.015625 30.8125 33.5 32.328125 
L 27.484375 33.5 
Q 16.453125 35.6875 11.515625 40.375 
Q 6.59375 45.0625 6.59375 53.421875 
Q 6.59375 63.09375 13.40625 68.65625 
Q 20.21875 74.21875 32.171875 74.21875 
Q 37.3125 74.21875 42.625 73.28125 
Q 47.953125 72.359375 53.515625 70.515625 
z
" id="DejaVuSans-83"/>
      </defs>
      <g transform="translate(83.243243 349.0175)scale(0.16 -0.16)">
       <use xlink:href="#DejaVuSans-65"/>
       <use x="68.408203" xlink:href="#DejaVuSans-83"/>
      </g>
     </g>
    </g>
    <g id="xtick_3">
     <g id="line2d_3">
      <g>
       <use style="stroke:#000000;stroke-width:2;" x="118.182605" xlink:href="#mab286e8dec" y="333.36"/>
      </g>
     </g>
     <g id="text_3">
      <!-- CAN -->
      <defs>
       <path d="M 64.40625 67.28125 
L 64.40625 56.890625 
Q 59.421875 61.53125 53.78125 63.8125 
Q 48.140625 66.109375 41.796875 66.109375 
Q 29.296875 66.109375 22.65625 58.46875 
Q 16.015625 50.828125 16.015625 36.375 
Q 16.015625 21.96875 22.65625 14.328125 
Q 29.296875 6.6875 41.796875 6.6875 
Q 48.140625 6.6875 53.78125 8.984375 
Q 59.421875 11.28125 64.40625 15.921875 
L 64.40625 5.609375 
Q 59.234375 2.09375 53.4375 0.328125 
Q 47.65625 -1.421875 41.21875 -1.421875 
Q 24.65625 -1.421875 15.125 8.703125 
Q 5.609375 18.84375 5.609375 36.375 
Q 5.609375 53.953125 15.125 64.078125 
Q 24.65625 74.21875 41.21875 74.21875 
Q 47.75 74.21875 53.53125 72.484375 
Q 59.328125 70.75 64.40625 67.28125 
z
" id="DejaVuSans-67"/>
       <path d="M 9.8125 72.90625 
L 23.09375 72.90625 
L 55.421875 11.921875 
L 55.421875 72.90625 
L 64.984375 72.90625 
L 64.984375 0 
L 51.703125 0 
L 19.390625 60.984375 
L 19.390625 0 
L 9.8125 0 
z
" id="DejaVuSans-78"/>
      </defs>
      <g transform="translate(101.138855 349.0175)scale(0.16 -0.16)">
       <use xlink:href="#DejaVuSans-67"/>
       <use x="69.824219" xlink:href="#DejaVuSans-65"/>
       <use x="138.232422" xlink:href="#DejaVuSans-78"/>
      </g>
     </g>
    </g>
    <g id="xtick_4">
     <g id="line2d_4">
      <g>
       <use style="stroke:#000000;stroke-width:2;" x="142.570717" xlink:href="#mab286e8dec" y="333.36"/>
      </g>
     </g>
     <g id="text_4">
      <!-- CG -->
      <defs>
       <path d="M 59.515625 10.40625 
L 59.515625 29.984375 
L 43.40625 29.984375 
L 43.40625 38.09375 
L 69.28125 38.09375 
L 69.28125 6.78125 
Q 63.578125 2.734375 56.6875 0.65625 
Q 49.8125 -1.421875 42 -1.421875 
Q 24.90625 -1.421875 15.25 8.5625 
Q 5.609375 18.5625 5.609375 36.375 
Q 5.609375 54.25 15.25 64.234375 
Q 24.90625 74.21875 42 74.21875 
Q 49.125 74.21875 55.546875 72.453125 
Q 61.96875 70.703125 67.390625 67.28125 
L 67.390625 56.78125 
Q 61.921875 61.421875 55.765625 63.765625 
Q 49.609375 66.109375 42.828125 66.109375 
Q 29.4375 66.109375 22.71875 58.640625 
Q 16.015625 51.171875 16.015625 36.375 
Q 16.015625 21.625 22.71875 14.15625 
Q 29.4375 6.6875 42.828125 6.6875 
Q 48.046875 6.6875 52.140625 7.59375 
Q 56.25 8.5 59.515625 10.40625 
z
" id="DejaVuSans-71"/>
      </defs>
      <g transform="translate(130.785717 349.0175)scale(0.16 -0.16)">
       <use xlink:href="#DejaVuSans-67"/>
       <use x="69.824219" xlink:href="#DejaVuSans-71"/>
      </g>
     </g>
    </g>
    <g id="xtick_5">
     <g id="line2d_5">
      <g>
       <use style="stroke:#000000;stroke-width:2;" x="166.958829" xlink:href="#mab286e8dec" y="333.36"/>
      </g>
     </g>
     <g id="text_5">
      <!-- CK -->
      <defs>
       <path d="M 9.8125 72.90625 
L 19.671875 72.90625 
L 19.671875 42.09375 
L 52.390625 72.90625 
L 65.09375 72.90625 
L 28.90625 38.921875 
L 67.671875 0 
L 54.6875 0 
L 19.671875 35.109375 
L 19.671875 0 
L 9.8125 0 
z
" id="DejaVuSans-75"/>
      </defs>
      <g transform="translate(156.126329 349.0175)scale(0.16 -0.16)">
       <use xlink:href="#DejaVuSans-67"/>
       <use x="69.824219" xlink:href="#DejaVuSans-75"/>
      </g>
     </g>
    </g>
    <g id="xtick_6">
     <g id="line2d_6">
      <g>
       <use style="stroke:#000000;stroke-width:2;" x="191.346941" xlink:href="#mab286e8dec" y="333.36"/>
      </g>
     </g>
     <g id="text_6">
      <!-- CT -->
      <defs>
       <path d="M -0.296875 72.90625 
L 61.375 72.90625 
L 61.375 64.59375 
L 35.5 64.59375 
L 35.5 0 
L 25.59375 0 
L 25.59375 64.59375 
L -0.296875 64.59375 
z
" id="DejaVuSans-84"/>
      </defs>
      <g transform="translate(180.874441 349.0175)scale(0.16 -0.16)">
       <use xlink:href="#DejaVuSans-67"/>
       <use x="69.824219" xlink:href="#DejaVuSans-84"/>
      </g>
     </g>
    </g>
    <g id="xtick_7">
     <g id="line2d_7">
      <g>
       <use style="stroke:#000000;stroke-width:2;" x="215.735052" xlink:href="#mab286e8dec" y="333.36"/>
      </g>
     </g>
     <g id="text_7">
      <!-- EK -->
      <defs>
       <path d="M 9.8125 72.90625 
L 55.90625 72.90625 
L 55.90625 64.59375 
L 19.671875 64.59375 
L 19.671875 43.015625 
L 54.390625 43.015625 
L 54.390625 34.71875 
L 19.671875 34.71875 
L 19.671875 8.296875 
L 56.78125 8.296875 
L 56.78125 0 
L 9.8125 0 
z
" id="DejaVuSans-69"/>
      </defs>
      <g transform="translate(205.433802 349.0175)scale(0.16 -0.16)">
       <use xlink:href="#DejaVuSans-69"/>
       <use x="63.183594" xlink:href="#DejaVuSans-75"/>
      </g>
     </g>
    </g>
    <g id="xtick_8">
     <g id="line2d_8">
      <g>
       <use style="stroke:#000000;stroke-width:2;" x="240.123164" xlink:href="#mab286e8dec" y="333.36"/>
      </g>
     </g>
     <g id="text_8">
      <!-- ES -->
      <g transform="translate(229.989414 349.0175)scale(0.16 -0.16)">
       <use xlink:href="#DejaVuSans-69"/>
       <use x="63.183594" xlink:href="#DejaVuSans-83"/>
      </g>
     </g>
    </g>
    <g id="xtick_9">
     <g id="line2d_9">
      <g>
       <use style="stroke:#000000;stroke-width:2;" x="264.511276" xlink:href="#mab286e8dec" y="333.36"/>
      </g>
     </g>
     <g id="text_9">
      <!-- EW -->
      <defs>
       <path d="M 3.328125 72.90625 
L 13.28125 72.90625 
L 28.609375 11.28125 
L 43.890625 72.90625 
L 54.984375 72.90625 
L 70.3125 11.28125 
L 85.59375 72.90625 
L 95.609375 72.90625 
L 77.296875 0 
L 64.890625 0 
L 49.515625 63.28125 
L 33.984375 0 
L 21.578125 0 
z
" id="DejaVuSans-87"/>
      </defs>
      <g transform="translate(251.546276 349.0175)scale(0.16 -0.16)">
       <use xlink:href="#DejaVuSans-69"/>
       <use x="63.183594" xlink:href="#DejaVuSans-87"/>
      </g>
     </g>
    </g>
    <g id="xtick_10">
     <g id="line2d_10">
      <g>
       <use style="stroke:#000000;stroke-width:2;" x="288.899388" xlink:href="#mab286e8dec" y="333.36"/>
      </g>
     </g>
     <g id="text_10">
      <!-- HE -->
      <defs>
       <path d="M 9.8125 72.90625 
L 19.671875 72.90625 
L 19.671875 43.015625 
L 55.515625 43.015625 
L 55.515625 72.90625 
L 65.375 72.90625 
L 65.375 0 
L 55.515625 0 
L 55.515625 34.71875 
L 19.671875 34.71875 
L 19.671875 0 
L 9.8125 0 
z
" id="DejaVuSans-72"/>
      </defs>
      <g transform="translate(277.828138 349.0175)scale(0.16 -0.16)">
       <use xlink:href="#DejaVuSans-72"/>
       <use x="75.195312" xlink:href="#DejaVuSans-69"/>
      </g>
     </g>
    </g>
    <g id="xtick_11">
     <g id="line2d_11">
      <g>
       <use style="stroke:#000000;stroke-width:2;" x="313.2875" xlink:href="#mab286e8dec" y="333.36"/>
      </g>
     </g>
     <g id="text_11">
      <!-- HL -->
      <defs>
       <path d="M 9.8125 72.90625 
L 19.671875 72.90625 
L 19.671875 8.296875 
L 55.171875 8.296875 
L 55.171875 0 
L 9.8125 0 
z
" id="DejaVuSans-76"/>
      </defs>
      <g transform="translate(302.81375 349.0175)scale(0.16 -0.16)">
       <use xlink:href="#DejaVuSans-72"/>
       <use x="75.195312" xlink:href="#DejaVuSans-76"/>
      </g>
     </g>
    </g>
    <g id="xtick_12">
     <g id="line2d_12">
      <g>
       <use style="stroke:#000000;stroke-width:2;" x="337.675612" xlink:href="#mab286e8dec" y="333.36"/>
      </g>
     </g>
     <g id="text_12">
      <!-- HOL -->
      <defs>
       <path d="M 39.40625 66.21875 
Q 28.65625 66.21875 22.328125 58.203125 
Q 16.015625 50.203125 16.015625 36.375 
Q 16.015625 22.609375 22.328125 14.59375 
Q 28.65625 6.59375 39.40625 6.59375 
Q 50.140625 6.59375 56.421875 14.59375 
Q 62.703125 22.609375 62.703125 36.375 
Q 62.703125 50.203125 56.421875 58.203125 
Q 50.140625 66.21875 39.40625 66.21875 
z
M 39.40625 74.21875 
Q 54.734375 74.21875 63.90625 63.9375 
Q 73.09375 53.65625 73.09375 36.375 
Q 73.09375 19.140625 63.90625 8.859375 
Q 54.734375 -1.421875 39.40625 -1.421875 
Q 24.03125 -1.421875 14.8125 8.828125 
Q 5.609375 19.09375 5.609375 36.375 
Q 5.609375 53.65625 14.8125 63.9375 
Q 24.03125 74.21875 39.40625 74.21875 
z
" id="DejaVuSans-79"/>
      </defs>
      <g transform="translate(320.904362 349.0175)scale(0.16 -0.16)">
       <use xlink:href="#DejaVuSans-72"/>
       <use x="75.195312" xlink:href="#DejaVuSans-79"/>
       <use x="153.90625" xlink:href="#DejaVuSans-76"/>
      </g>
     </g>
    </g>
    <g id="xtick_13">
     <g id="line2d_13">
      <g>
       <use style="stroke:#000000;stroke-width:2;" x="362.063724" xlink:href="#mab286e8dec" y="333.36"/>
      </g>
     </g>
     <g id="text_13">
      <!-- HY -->
      <defs>
       <path d="M -0.203125 72.90625 
L 10.40625 72.90625 
L 30.609375 42.921875 
L 50.6875 72.90625 
L 61.28125 72.90625 
L 35.5 34.71875 
L 35.5 0 
L 25.59375 0 
L 25.59375 34.71875 
z
" id="DejaVuSans-89"/>
      </defs>
      <g transform="translate(351.161224 349.0175)scale(0.16 -0.16)">
       <use xlink:href="#DejaVuSans-72"/>
       <use x="75.195312" xlink:href="#DejaVuSans-89"/>
      </g>
     </g>
    </g>
    <g id="xtick_14">
     <g id="line2d_14">
      <g>
       <use style="stroke:#000000;stroke-width:2;" x="386.451836" xlink:href="#mab286e8dec" y="333.36"/>
      </g>
     </g>
     <g id="text_14">
      <!-- IS -->
      <defs>
       <path d="M 9.8125 72.90625 
L 19.671875 72.90625 
L 19.671875 0 
L 9.8125 0 
z
" id="DejaVuSans-73"/>
      </defs>
      <g transform="translate(379.013086 349.0175)scale(0.16 -0.16)">
       <use xlink:href="#DejaVuSans-73"/>
       <use x="29.492188" xlink:href="#DejaVuSans-83"/>
      </g>
     </g>
    </g>
    <g id="xtick_15">
     <g id="line2d_15">
      <g>
       <use style="stroke:#000000;stroke-width:2;" x="410.839948" xlink:href="#mab286e8dec" y="333.36"/>
      </g>
     </g>
     <g id="text_15">
      <!-- JP -->
      <defs>
       <path d="M 9.8125 72.90625 
L 19.671875 72.90625 
L 19.671875 5.078125 
Q 19.671875 -8.109375 14.671875 -14.0625 
Q 9.671875 -20.015625 -1.421875 -20.015625 
L -5.171875 -20.015625 
L -5.171875 -11.71875 
L -2.09375 -11.71875 
Q 4.4375 -11.71875 7.125 -8.046875 
Q 9.8125 -4.390625 9.8125 5.078125 
z
" id="DejaVuSans-74"/>
       <path d="M 19.671875 64.796875 
L 19.671875 37.40625 
L 32.078125 37.40625 
Q 38.96875 37.40625 42.71875 40.96875 
Q 46.484375 44.53125 46.484375 51.125 
Q 46.484375 57.671875 42.71875 61.234375 
Q 38.96875 64.796875 32.078125 64.796875 
z
M 9.8125 72.90625 
L 32.078125 72.90625 
Q 44.34375 72.90625 50.609375 67.359375 
Q 56.890625 61.8125 56.890625 51.125 
Q 56.890625 40.328125 50.609375 34.8125 
Q 44.34375 29.296875 32.078125 29.296875 
L 19.671875 29.296875 
L 19.671875 0 
L 9.8125 0 
z
" id="DejaVuSans-80"/>
      </defs>
      <g transform="translate(403.656198 349.0175)scale(0.16 -0.16)">
       <use xlink:href="#DejaVuSans-74"/>
       <use x="29.492188" xlink:href="#DejaVuSans-80"/>
      </g>
     </g>
    </g>
    <g id="xtick_16">
     <g id="line2d_16">
      <g>
       <use style="stroke:#000000;stroke-width:2;" x="435.228059" xlink:href="#mab286e8dec" y="333.36"/>
      </g>
     </g>
     <g id="text_16">
      <!-- MF -->
      <defs>
       <path d="M 9.8125 72.90625 
L 24.515625 72.90625 
L 43.109375 23.296875 
L 61.8125 72.90625 
L 76.515625 72.90625 
L 76.515625 0 
L 66.890625 0 
L 66.890625 64.015625 
L 48.09375 14.015625 
L 38.1875 14.015625 
L 19.390625 64.015625 
L 19.390625 0 
L 9.8125 0 
z
" id="DejaVuSans-77"/>
       <path d="M 9.8125 72.90625 
L 51.703125 72.90625 
L 51.703125 64.59375 
L 19.671875 64.59375 
L 19.671875 43.109375 
L 48.578125 43.109375 
L 48.578125 34.8125 
L 19.671875 34.8125 
L 19.671875 0 
L 9.8125 0 
z
" id="DejaVuSans-70"/>
      </defs>
      <g transform="translate(423.724309 349.0175)scale(0.16 -0.16)">
       <use xlink:href="#DejaVuSans-77"/>
       <use x="86.279297" xlink:href="#DejaVuSans-70"/>
      </g>
     </g>
    </g>
    <g id="xtick_17">
     <g id="line2d_17">
      <g>
       <use style="stroke:#000000;stroke-width:2;" x="459.616171" xlink:href="#mab286e8dec" y="333.36"/>
      </g>
     </g>
     <g id="text_17">
      <!-- NC -->
      <g transform="translate(448.044921 349.0175)scale(0.16 -0.16)">
       <use xlink:href="#DejaVuSans-78"/>
       <use x="74.804688" xlink:href="#DejaVuSans-67"/>
      </g>
     </g>
    </g>
    <g id="xtick_18">
     <g id="line2d_18">
      <g>
       <use style="stroke:#000000;stroke-width:2;" x="484.004283" xlink:href="#mab286e8dec" y="333.36"/>
      </g>
     </g>
     <g id="text_18">
      <!-- SA -->
      <g transform="translate(473.451783 349.0175)scale(0.16 -0.16)">
       <use xlink:href="#DejaVuSans-83"/>
       <use x="63.492188" xlink:href="#DejaVuSans-65"/>
      </g>
     </g>
    </g>
    <g id="xtick_19">
     <g id="line2d_19">
      <g>
       <use style="stroke:#000000;stroke-width:2;" x="508.392395" xlink:href="#mab286e8dec" y="333.36"/>
      </g>
     </g>
     <g id="text_19">
      <!-- SK -->
      <g transform="translate(498.067395 349.0175)scale(0.16 -0.16)">
       <use xlink:href="#DejaVuSans-83"/>
       <use x="63.476562" xlink:href="#DejaVuSans-75"/>
      </g>
     </g>
    </g>
    <g id="xtick_20">
     <g id="line2d_20">
      <g>
       <use style="stroke:#000000;stroke-width:2;" x="532.780507" xlink:href="#mab286e8dec" y="333.36"/>
      </g>
     </g>
     <g id="text_20">
      <!-- SS -->
      <g transform="translate(522.623007 349.0175)scale(0.16 -0.16)">
       <use xlink:href="#DejaVuSans-83"/>
       <use x="63.476562" xlink:href="#DejaVuSans-83"/>
      </g>
     </g>
    </g>
    <g id="xtick_21">
     <g id="line2d_21">
      <g>
       <use style="stroke:#000000;stroke-width:2;" x="557.168619" xlink:href="#mab286e8dec" y="333.36"/>
      </g>
     </g>
     <g id="text_21">
      <!-- UnderGrad_SuperSubject -->
      <defs>
       <path d="M 8.6875 72.90625 
L 18.609375 72.90625 
L 18.609375 28.609375 
Q 18.609375 16.890625 22.84375 11.734375 
Q 27.09375 6.59375 36.625 6.59375 
Q 46.09375 6.59375 50.34375 11.734375 
Q 54.59375 16.890625 54.59375 28.609375 
L 54.59375 72.90625 
L 64.5 72.90625 
L 64.5 27.390625 
Q 64.5 13.140625 57.4375 5.859375 
Q 50.390625 -1.421875 36.625 -1.421875 
Q 22.796875 -1.421875 15.734375 5.859375 
Q 8.6875 13.140625 8.6875 27.390625 
z
" id="DejaVuSans-85"/>
       <path d="M 54.890625 33.015625 
L 54.890625 0 
L 45.90625 0 
L 45.90625 32.71875 
Q 45.90625 40.484375 42.875 44.328125 
Q 39.84375 48.1875 33.796875 48.1875 
Q 26.515625 48.1875 22.3125 43.546875 
Q 18.109375 38.921875 18.109375 30.90625 
L 18.109375 0 
L 9.078125 0 
L 9.078125 54.6875 
L 18.109375 54.6875 
L 18.109375 46.1875 
Q 21.34375 51.125 25.703125 53.5625 
Q 30.078125 56 35.796875 56 
Q 45.21875 56 50.046875 50.171875 
Q 54.890625 44.34375 54.890625 33.015625 
z
" id="DejaVuSans-110"/>
       <path d="M 45.40625 46.390625 
L 45.40625 75.984375 
L 54.390625 75.984375 
L 54.390625 0 
L 45.40625 0 
L 45.40625 8.203125 
Q 42.578125 3.328125 38.25 0.953125 
Q 33.9375 -1.421875 27.875 -1.421875 
Q 17.96875 -1.421875 11.734375 6.484375 
Q 5.515625 14.40625 5.515625 27.296875 
Q 5.515625 40.1875 11.734375 48.09375 
Q 17.96875 56 27.875 56 
Q 33.9375 56 38.25 53.625 
Q 42.578125 51.265625 45.40625 46.390625 
z
M 14.796875 27.296875 
Q 14.796875 17.390625 18.875 11.75 
Q 22.953125 6.109375 30.078125 6.109375 
Q 37.203125 6.109375 41.296875 11.75 
Q 45.40625 17.390625 45.40625 27.296875 
Q 45.40625 37.203125 41.296875 42.84375 
Q 37.203125 48.484375 30.078125 48.484375 
Q 22.953125 48.484375 18.875 42.84375 
Q 14.796875 37.203125 14.796875 27.296875 
z
" id="DejaVuSans-100"/>
       <path d="M 56.203125 29.59375 
L 56.203125 25.203125 
L 14.890625 25.203125 
Q 15.484375 15.921875 20.484375 11.0625 
Q 25.484375 6.203125 34.421875 6.203125 
Q 39.59375 6.203125 44.453125 7.46875 
Q 49.3125 8.734375 54.109375 11.28125 
L 54.109375 2.78125 
Q 49.265625 0.734375 44.1875 -0.34375 
Q 39.109375 -1.421875 33.890625 -1.421875 
Q 20.796875 -1.421875 13.15625 6.1875 
Q 5.515625 13.8125 5.515625 26.8125 
Q 5.515625 40.234375 12.765625 48.109375 
Q 20.015625 56 32.328125 56 
Q 43.359375 56 49.78125 48.890625 
Q 56.203125 41.796875 56.203125 29.59375 
z
M 47.21875 32.234375 
Q 47.125 39.59375 43.09375 43.984375 
Q 39.0625 48.390625 32.421875 48.390625 
Q 24.90625 48.390625 20.390625 44.140625 
Q 15.875 39.890625 15.1875 32.171875 
z
" id="DejaVuSans-101"/>
       <path d="M 41.109375 46.296875 
Q 39.59375 47.171875 37.8125 47.578125 
Q 36.03125 48 33.890625 48 
Q 26.265625 48 22.1875 43.046875 
Q 18.109375 38.09375 18.109375 28.8125 
L 18.109375 0 
L 9.078125 0 
L 9.078125 54.6875 
L 18.109375 54.6875 
L 18.109375 46.1875 
Q 20.953125 51.171875 25.484375 53.578125 
Q 30.03125 56 36.53125 56 
Q 37.453125 56 38.578125 55.875 
Q 39.703125 55.765625 41.0625 55.515625 
z
" id="DejaVuSans-114"/>
       <path d="M 34.28125 27.484375 
Q 23.390625 27.484375 19.1875 25 
Q 14.984375 22.515625 14.984375 16.5 
Q 14.984375 11.71875 18.140625 8.90625 
Q 21.296875 6.109375 26.703125 6.109375 
Q 34.1875 6.109375 38.703125 11.40625 
Q 43.21875 16.703125 43.21875 25.484375 
L 43.21875 27.484375 
z
M 52.203125 31.203125 
L 52.203125 0 
L 43.21875 0 
L 43.21875 8.296875 
Q 40.140625 3.328125 35.546875 0.953125 
Q 30.953125 -1.421875 24.3125 -1.421875 
Q 15.921875 -1.421875 10.953125 3.296875 
Q 6 8.015625 6 15.921875 
Q 6 25.140625 12.171875 29.828125 
Q 18.359375 34.515625 30.609375 34.515625 
L 43.21875 34.515625 
L 43.21875 35.40625 
Q 43.21875 41.609375 39.140625 45 
Q 35.0625 48.390625 27.6875 48.390625 
Q 23 48.390625 18.546875 47.265625 
Q 14.109375 46.140625 10.015625 43.890625 
L 10.015625 52.203125 
Q 14.9375 54.109375 19.578125 55.046875 
Q 24.21875 56 28.609375 56 
Q 40.484375 56 46.34375 49.84375 
Q 52.203125 43.703125 52.203125 31.203125 
z
" id="DejaVuSans-97"/>
       <path d="M 50.984375 -16.609375 
L 50.984375 -23.578125 
L -0.984375 -23.578125 
L -0.984375 -16.609375 
z
" id="DejaVuSans-95"/>
       <path d="M 8.5 21.578125 
L 8.5 54.6875 
L 17.484375 54.6875 
L 17.484375 21.921875 
Q 17.484375 14.15625 20.5 10.265625 
Q 23.53125 6.390625 29.59375 6.390625 
Q 36.859375 6.390625 41.078125 11.03125 
Q 45.3125 15.671875 45.3125 23.6875 
L 45.3125 54.6875 
L 54.296875 54.6875 
L 54.296875 0 
L 45.3125 0 
L 45.3125 8.40625 
Q 42.046875 3.421875 37.71875 1 
Q 33.40625 -1.421875 27.6875 -1.421875 
Q 18.265625 -1.421875 13.375 4.4375 
Q 8.5 10.296875 8.5 21.578125 
z
M 31.109375 56 
z
" id="DejaVuSans-117"/>
       <path d="M 18.109375 8.203125 
L 18.109375 -20.796875 
L 9.078125 -20.796875 
L 9.078125 54.6875 
L 18.109375 54.6875 
L 18.109375 46.390625 
Q 20.953125 51.265625 25.265625 53.625 
Q 29.59375 56 35.59375 56 
Q 45.5625 56 51.78125 48.09375 
Q 58.015625 40.1875 58.015625 27.296875 
Q 58.015625 14.40625 51.78125 6.484375 
Q 45.5625 -1.421875 35.59375 -1.421875 
Q 29.59375 -1.421875 25.265625 0.953125 
Q 20.953125 3.328125 18.109375 8.203125 
z
M 48.6875 27.296875 
Q 48.6875 37.203125 44.609375 42.84375 
Q 40.53125 48.484375 33.40625 48.484375 
Q 26.265625 48.484375 22.1875 42.84375 
Q 18.109375 37.203125 18.109375 27.296875 
Q 18.109375 17.390625 22.1875 11.75 
Q 26.265625 6.109375 33.40625 6.109375 
Q 40.53125 6.109375 44.609375 11.75 
Q 48.6875 17.390625 48.6875 27.296875 
z
" id="DejaVuSans-112"/>
       <path d="M 48.6875 27.296875 
Q 48.6875 37.203125 44.609375 42.84375 
Q 40.53125 48.484375 33.40625 48.484375 
Q 26.265625 48.484375 22.1875 42.84375 
Q 18.109375 37.203125 18.109375 27.296875 
Q 18.109375 17.390625 22.1875 11.75 
Q 26.265625 6.109375 33.40625 6.109375 
Q 40.53125 6.109375 44.609375 11.75 
Q 48.6875 17.390625 48.6875 27.296875 
z
M 18.109375 46.390625 
Q 20.953125 51.265625 25.265625 53.625 
Q 29.59375 56 35.59375 56 
Q 45.5625 56 51.78125 48.09375 
Q 58.015625 40.1875 58.015625 27.296875 
Q 58.015625 14.40625 51.78125 6.484375 
Q 45.5625 -1.421875 35.59375 -1.421875 
Q 29.59375 -1.421875 25.265625 0.953125 
Q 20.953125 3.328125 18.109375 8.203125 
L 18.109375 0 
L 9.078125 0 
L 9.078125 75.984375 
L 18.109375 75.984375 
z
" id="DejaVuSans-98"/>
       <path d="M 9.421875 54.6875 
L 18.40625 54.6875 
L 18.40625 -0.984375 
Q 18.40625 -11.421875 14.421875 -16.109375 
Q 10.453125 -20.796875 1.609375 -20.796875 
L -1.8125 -20.796875 
L -1.8125 -13.1875 
L 0.59375 -13.1875 
Q 5.71875 -13.1875 7.5625 -10.8125 
Q 9.421875 -8.453125 9.421875 -0.984375 
z
M 9.421875 75.984375 
L 18.40625 75.984375 
L 18.40625 64.59375 
L 9.421875 64.59375 
z
" id="DejaVuSans-106"/>
       <path d="M 48.78125 52.59375 
L 48.78125 44.1875 
Q 44.96875 46.296875 41.140625 47.34375 
Q 37.3125 48.390625 33.40625 48.390625 
Q 24.65625 48.390625 19.8125 42.84375 
Q 14.984375 37.3125 14.984375 27.296875 
Q 14.984375 17.28125 19.8125 11.734375 
Q 24.65625 6.203125 33.40625 6.203125 
Q 37.3125 6.203125 41.140625 7.25 
Q 44.96875 8.296875 48.78125 10.40625 
L 48.78125 2.09375 
Q 45.015625 0.34375 40.984375 -0.53125 
Q 36.96875 -1.421875 32.421875 -1.421875 
Q 20.0625 -1.421875 12.78125 6.34375 
Q 5.515625 14.109375 5.515625 27.296875 
Q 5.515625 40.671875 12.859375 48.328125 
Q 20.21875 56 33.015625 56 
Q 37.15625 56 41.109375 55.140625 
Q 45.0625 54.296875 48.78125 52.59375 
z
" id="DejaVuSans-99"/>
       <path d="M 18.3125 70.21875 
L 18.3125 54.6875 
L 36.8125 54.6875 
L 36.8125 47.703125 
L 18.3125 47.703125 
L 18.3125 18.015625 
Q 18.3125 11.328125 20.140625 9.421875 
Q 21.96875 7.515625 27.59375 7.515625 
L 36.8125 7.515625 
L 36.8125 0 
L 27.59375 0 
Q 17.1875 0 13.234375 3.875 
Q 9.28125 7.765625 9.28125 18.015625 
L 9.28125 47.703125 
L 2.6875 47.703125 
L 2.6875 54.6875 
L 9.28125 54.6875 
L 9.28125 70.21875 
z
" id="DejaVuSans-116"/>
      </defs>
      <g transform="translate(456.138619 349.0175)scale(0.16 -0.16)">
       <use xlink:href="#DejaVuSans-85"/>
       <use x="73.193359" xlink:href="#DejaVuSans-110"/>
       <use x="136.572266" xlink:href="#DejaVuSans-100"/>
       <use x="200.048828" xlink:href="#DejaVuSans-101"/>
       <use x="261.572266" xlink:href="#DejaVuSans-114"/>
       <use x="302.685547" xlink:href="#DejaVuSans-71"/>
       <use x="380.175781" xlink:href="#DejaVuSans-114"/>
       <use x="421.289062" xlink:href="#DejaVuSans-97"/>
       <use x="482.568359" xlink:href="#DejaVuSans-100"/>
       <use x="546.044922" xlink:href="#DejaVuSans-95"/>
       <use x="596.044922" xlink:href="#DejaVuSans-83"/>
       <use x="659.521484" xlink:href="#DejaVuSans-117"/>
       <use x="722.900391" xlink:href="#DejaVuSans-112"/>
       <use x="786.376953" xlink:href="#DejaVuSans-101"/>
       <use x="847.900391" xlink:href="#DejaVuSans-114"/>
       <use x="889.013672" xlink:href="#DejaVuSans-83"/>
       <use x="952.490234" xlink:href="#DejaVuSans-117"/>
       <use x="1015.869141" xlink:href="#DejaVuSans-98"/>
       <use x="1079.345703" xlink:href="#DejaVuSans-106"/>
       <use x="1107.128906" xlink:href="#DejaVuSans-101"/>
       <use x="1168.652344" xlink:href="#DejaVuSans-99"/>
       <use x="1223.632812" xlink:href="#DejaVuSans-116"/>
      </g>
     </g>
    </g>
   </g>
   <g id="matplotlib.axis_2">
    <g id="ytick_1">
     <g id="line2d_22">
      <defs>
       <path d="M 0 0 
L 6 0 
" id="m2b9fdf1df0" style="stroke:#000000;stroke-width:2;"/>
      </defs>
      <g>
       <use style="stroke:#000000;stroke-width:2;" x="34.2875" xlink:href="#m2b9fdf1df0" y="298.019354"/>
      </g>
     </g>
     <g id="text_22">
      <!-- −2 -->
      <defs>
       <path d="M 10.59375 35.5 
L 73.1875 35.5 
L 73.1875 27.203125 
L 10.59375 27.203125 
z
" id="DejaVuSans-8722"/>
       <path d="M 19.1875 8.296875 
L 53.609375 8.296875 
L 53.609375 0 
L 7.328125 0 
L 7.328125 8.296875 
Q 12.9375 14.109375 22.625 23.890625 
Q 32.328125 33.6875 34.8125 36.53125 
Q 39.546875 41.84375 41.421875 45.53125 
Q 43.3125 49.21875 43.3125 52.78125 
Q 43.3125 58.59375 39.234375 62.25 
Q 35.15625 65.921875 28.609375 65.921875 
Q 23.96875 65.921875 18.8125 64.3125 
Q 13.671875 62.703125 7.8125 59.421875 
L 7.8125 69.390625 
Q 13.765625 71.78125 18.9375 73 
Q 24.125 74.21875 28.421875 74.21875 
Q 39.75 74.21875 46.484375 68.546875 
Q 53.21875 62.890625 53.21875 53.421875 
Q 53.21875 48.921875 51.53125 44.890625 
Q 49.859375 40.875 45.40625 35.40625 
Q 44.1875 33.984375 37.640625 27.21875 
Q 31.109375 20.453125 19.1875 8.296875 
z
" id="DejaVuSans-50"/>
      </defs>
      <g transform="translate(7.2 304.098104)scale(0.16 -0.16)">
       <use xlink:href="#DejaVuSans-8722"/>
       <use x="83.789062" xlink:href="#DejaVuSans-50"/>
      </g>
     </g>
    </g>
    <g id="ytick_2">
     <g id="line2d_23">
      <g>
       <use style="stroke:#000000;stroke-width:2;" x="34.2875" xlink:href="#m2b9fdf1df0" y="236.357347"/>
      </g>
     </g>
     <g id="text_23">
      <!-- 0 -->
      <defs>
       <path d="M 31.78125 66.40625 
Q 24.171875 66.40625 20.328125 58.90625 
Q 16.5 51.421875 16.5 36.375 
Q 16.5 21.390625 20.328125 13.890625 
Q 24.171875 6.390625 31.78125 6.390625 
Q 39.453125 6.390625 43.28125 13.890625 
Q 47.125 21.390625 47.125 36.375 
Q 47.125 51.421875 43.28125 58.90625 
Q 39.453125 66.40625 31.78125 66.40625 
z
M 31.78125 74.21875 
Q 44.046875 74.21875 50.515625 64.515625 
Q 56.984375 54.828125 56.984375 36.375 
Q 56.984375 17.96875 50.515625 8.265625 
Q 44.046875 -1.421875 31.78125 -1.421875 
Q 19.53125 -1.421875 13.0625 8.265625 
Q 6.59375 17.96875 6.59375 36.375 
Q 6.59375 54.828125 13.0625 64.515625 
Q 19.53125 74.21875 31.78125 74.21875 
z
" id="DejaVuSans-48"/>
      </defs>
      <g transform="translate(20.6075 242.436097)scale(0.16 -0.16)">
       <use xlink:href="#DejaVuSans-48"/>
      </g>
     </g>
    </g>
    <g id="ytick_3">
     <g id="line2d_24">
      <g>
       <use style="stroke:#000000;stroke-width:2;" x="34.2875" xlink:href="#m2b9fdf1df0" y="174.695339"/>
      </g>
     </g>
     <g id="text_24">
      <!-- 2 -->
      <g transform="translate(20.6075 180.774089)scale(0.16 -0.16)">
       <use xlink:href="#DejaVuSans-50"/>
      </g>
     </g>
    </g>
    <g id="ytick_4">
     <g id="line2d_25">
      <g>
       <use style="stroke:#000000;stroke-width:2;" x="34.2875" xlink:href="#m2b9fdf1df0" y="113.033331"/>
      </g>
     </g>
     <g id="text_25">
      <!-- 4 -->
      <defs>
       <path d="M 37.796875 64.3125 
L 12.890625 25.390625 
L 37.796875 25.390625 
z
M 35.203125 72.90625 
L 47.609375 72.90625 
L 47.609375 25.390625 
L 58.015625 25.390625 
L 58.015625 17.1875 
L 47.609375 17.1875 
L 47.609375 0 
L 37.796875 0 
L 37.796875 17.1875 
L 4.890625 17.1875 
L 4.890625 26.703125 
z
" id="DejaVuSans-52"/>
      </defs>
      <g transform="translate(20.6075 119.112081)scale(0.16 -0.16)">
       <use xlink:href="#DejaVuSans-52"/>
      </g>
     </g>
    </g>
    <g id="ytick_5">
     <g id="line2d_26">
      <g>
       <use style="stroke:#000000;stroke-width:2;" x="34.2875" xlink:href="#m2b9fdf1df0" y="51.371323"/>
      </g>
     </g>
     <g id="text_26">
      <!-- 6 -->
      <defs>
       <path d="M 33.015625 40.375 
Q 26.375 40.375 22.484375 35.828125 
Q 18.609375 31.296875 18.609375 23.390625 
Q 18.609375 15.53125 22.484375 10.953125 
Q 26.375 6.390625 33.015625 6.390625 
Q 39.65625 6.390625 43.53125 10.953125 
Q 47.40625 15.53125 47.40625 23.390625 
Q 47.40625 31.296875 43.53125 35.828125 
Q 39.65625 40.375 33.015625 40.375 
z
M 52.59375 71.296875 
L 52.59375 62.3125 
Q 48.875 64.0625 45.09375 64.984375 
Q 41.3125 65.921875 37.59375 65.921875 
Q 27.828125 65.921875 22.671875 59.328125 
Q 17.53125 52.734375 16.796875 39.40625 
Q 19.671875 43.65625 24.015625 45.921875 
Q 28.375 48.1875 33.59375 48.1875 
Q 44.578125 48.1875 50.953125 41.515625 
Q 57.328125 34.859375 57.328125 23.390625 
Q 57.328125 12.15625 50.6875 5.359375 
Q 44.046875 -1.421875 33.015625 -1.421875 
Q 20.359375 -1.421875 13.671875 8.265625 
Q 6.984375 17.96875 6.984375 36.375 
Q 6.984375 53.65625 15.1875 63.9375 
Q 23.390625 74.21875 37.203125 74.21875 
Q 40.921875 74.21875 44.703125 73.484375 
Q 48.484375 72.75 52.59375 71.296875 
z
" id="DejaVuSans-54"/>
      </defs>
      <g transform="translate(20.6075 57.450073)scale(0.16 -0.16)">
       <use xlink:href="#DejaVuSans-54"/>
      </g>
     </g>
    </g>
   </g>
   <g id="LineCollection_1">
    <path clip-path="url(#p9c0b330600)" d="M 69.406381 168.413309 
L 69.406381 77.877452 
" style="fill:none;stroke:#000000;stroke-width:1.5;"/>
    <path clip-path="url(#p9c0b330600)" d="M 93.794493 100.682415 
L 93.794493 276.611803 
" style="fill:none;stroke:#000000;stroke-width:1.5;"/>
    <path clip-path="url(#p9c0b330600)" d="M 118.182605 22.025455 
L 118.182605 200.67581 
" style="fill:none;stroke:#000000;stroke-width:1.5;"/>
    <path clip-path="url(#p9c0b330600)" d="M 142.570717 112.152776 
L 142.570717 257.910354 
" style="fill:none;stroke:#000000;stroke-width:1.5;"/>
    <path clip-path="url(#p9c0b330600)" d="M 166.958829 37.699036 
L 166.958829 251.907017 
" style="fill:none;stroke:#000000;stroke-width:1.5;"/>
    <path clip-path="url(#p9c0b330600)" d="M 191.346941 124.321401 
L 191.346941 213.480883 
" style="fill:none;stroke:#000000;stroke-width:1.5;"/>
    <path clip-path="url(#p9c0b330600)" d="M 215.735052 151.63937 
L 215.735052 175.52087 
" style="fill:none;stroke:#000000;stroke-width:1.5;"/>
    <path clip-path="url(#p9c0b330600)" d="M 240.123164 108.176403 
L 240.123164 298.636468 
" style="fill:none;stroke:#000000;stroke-width:1.5;"/>
    <path clip-path="url(#p9c0b330600)" d="M 264.511276 86.303279 
L 264.511276 153.322948 
" style="fill:none;stroke:#000000;stroke-width:1.5;"/>
    <path clip-path="url(#p9c0b330600)" d="M 288.899388 78.182548 
L 288.899388 161.2098 
" style="fill:none;stroke:#000000;stroke-width:1.5;"/>
    <path clip-path="url(#p9c0b330600)" d="M 313.2875 167.936285 
L 313.2875 114.622977 
" style="fill:none;stroke:#000000;stroke-width:1.5;"/>
    <path clip-path="url(#p9c0b330600)" d="M 337.675612 174.903514 
L 337.675612 114.544228 
" style="fill:none;stroke:#000000;stroke-width:1.5;"/>
    <path clip-path="url(#p9c0b330600)" d="M 362.063724 156.541412 
L 362.063724 177.6488 
" style="fill:none;stroke:#000000;stroke-width:1.5;"/>
    <path clip-path="url(#p9c0b330600)" d="M 386.451836 142.136511 
L 386.451836 124.208126 
" style="fill:none;stroke:#000000;stroke-width:1.5;"/>
    <path clip-path="url(#p9c0b330600)" d="M 410.839948 146.167491 
L 410.839948 241.869031 
" style="fill:none;stroke:#000000;stroke-width:1.5;"/>
    <path clip-path="url(#p9c0b330600)" d="M 435.228059 112.404258 
L 435.228059 198.656812 
" style="fill:none;stroke:#000000;stroke-width:1.5;"/>
    <path clip-path="url(#p9c0b330600)" d="M 459.616171 177.72205 
L 459.616171 103.685074 
" style="fill:none;stroke:#000000;stroke-width:1.5;"/>
    <path clip-path="url(#p9c0b330600)" d="M 484.004283 33.690194 
L 484.004283 272.706941 
" style="fill:none;stroke:#000000;stroke-width:1.5;"/>
    <path clip-path="url(#p9c0b330600)" d="M 508.392395 100.122544 
L 508.392395 318.534545 
" style="fill:none;stroke:#000000;stroke-width:1.5;"/>
    <path clip-path="url(#p9c0b330600)" d="M 532.780507 94.462202 
L 532.780507 150.29224 
" style="fill:none;stroke:#000000;stroke-width:1.5;"/>
    <path clip-path="url(#p9c0b330600)" d="M 557.168619 213.76076 
L 557.168619 124.042152 
" style="fill:none;stroke:#000000;stroke-width:1.5;"/>
   </g>
   <g id="line2d_27">
    <defs>
     <path d="M 6 0 
L -6 -0 
" id="md96eda7d00" style="stroke:#000000;"/>
    </defs>
    <g clip-path="url(#p9c0b330600)">
     <use style="stroke:#000000;" x="69.406381" xlink:href="#md96eda7d00" y="168.413309"/>
     <use style="stroke:#000000;" x="93.794493" xlink:href="#md96eda7d00" y="100.682415"/>
     <use style="stroke:#000000;" x="118.182605" xlink:href="#md96eda7d00" y="22.025455"/>
     <use style="stroke:#000000;" x="142.570717" xlink:href="#md96eda7d00" y="112.152776"/>
     <use style="stroke:#000000;" x="166.958829" xlink:href="#md96eda7d00" y="37.699036"/>
     <use style="stroke:#000000;" x="191.346941" xlink:href="#md96eda7d00" y="124.321401"/>
     <use style="stroke:#000000;" x="215.735052" xlink:href="#md96eda7d00" y="151.63937"/>
     <use style="stroke:#000000;" x="240.123164" xlink:href="#md96eda7d00" y="108.176403"/>
     <use style="stroke:#000000;" x="264.511276" xlink:href="#md96eda7d00" y="86.303279"/>
     <use style="stroke:#000000;" x="288.899388" xlink:href="#md96eda7d00" y="78.182548"/>
     <use style="stroke:#000000;" x="313.2875" xlink:href="#md96eda7d00" y="167.936285"/>
     <use style="stroke:#000000;" x="337.675612" xlink:href="#md96eda7d00" y="174.903514"/>
     <use style="stroke:#000000;" x="362.063724" xlink:href="#md96eda7d00" y="156.541412"/>
     <use style="stroke:#000000;" x="386.451836" xlink:href="#md96eda7d00" y="142.136511"/>
     <use style="stroke:#000000;" x="410.839948" xlink:href="#md96eda7d00" y="146.167491"/>
     <use style="stroke:#000000;" x="435.228059" xlink:href="#md96eda7d00" y="112.404258"/>
     <use style="stroke:#000000;" x="459.616171" xlink:href="#md96eda7d00" y="177.72205"/>
     <use style="stroke:#000000;" x="484.004283" xlink:href="#md96eda7d00" y="33.690194"/>
     <use style="stroke:#000000;" x="508.392395" xlink:href="#md96eda7d00" y="100.122544"/>
     <use style="stroke:#000000;" x="532.780507" xlink:href="#md96eda7d00" y="94.462202"/>
     <use style="stroke:#000000;" x="557.168619" xlink:href="#md96eda7d00" y="213.76076"/>
    </g>
   </g>
   <g id="line2d_28">
    <g clip-path="url(#p9c0b330600)">
     <use style="stroke:#000000;" x="69.406381" xlink:href="#md96eda7d00" y="77.877452"/>
     <use style="stroke:#000000;" x="93.794493" xlink:href="#md96eda7d00" y="276.611803"/>
     <use style="stroke:#000000;" x="118.182605" xlink:href="#md96eda7d00" y="200.67581"/>
     <use style="stroke:#000000;" x="142.570717" xlink:href="#md96eda7d00" y="257.910354"/>
     <use style="stroke:#000000;" x="166.958829" xlink:href="#md96eda7d00" y="251.907017"/>
     <use style="stroke:#000000;" x="191.346941" xlink:href="#md96eda7d00" y="213.480883"/>
     <use style="stroke:#000000;" x="215.735052" xlink:href="#md96eda7d00" y="175.52087"/>
     <use style="stroke:#000000;" x="240.123164" xlink:href="#md96eda7d00" y="298.636468"/>
     <use style="stroke:#000000;" x="264.511276" xlink:href="#md96eda7d00" y="153.322948"/>
     <use style="stroke:#000000;" x="288.899388" xlink:href="#md96eda7d00" y="161.2098"/>
     <use style="stroke:#000000;" x="313.2875" xlink:href="#md96eda7d00" y="114.622977"/>
     <use style="stroke:#000000;" x="337.675612" xlink:href="#md96eda7d00" y="114.544228"/>
     <use style="stroke:#000000;" x="362.063724" xlink:href="#md96eda7d00" y="177.6488"/>
     <use style="stroke:#000000;" x="386.451836" xlink:href="#md96eda7d00" y="124.208126"/>
     <use style="stroke:#000000;" x="410.839948" xlink:href="#md96eda7d00" y="241.869031"/>
     <use style="stroke:#000000;" x="435.228059" xlink:href="#md96eda7d00" y="198.656812"/>
     <use style="stroke:#000000;" x="459.616171" xlink:href="#md96eda7d00" y="103.685074"/>
     <use style="stroke:#000000;" x="484.004283" xlink:href="#md96eda7d00" y="272.706941"/>
     <use style="stroke:#000000;" x="508.392395" xlink:href="#md96eda7d00" y="318.534545"/>
     <use style="stroke:#000000;" x="532.780507" xlink:href="#md96eda7d00" y="150.29224"/>
     <use style="stroke:#000000;" x="557.168619" xlink:href="#md96eda7d00" y="124.042152"/>
    </g>
   </g>
   <g id="patch_24">
    <path d="M 34.2875 333.36 
L 34.2875 7.2 
" style="fill:none;stroke:#000000;stroke-linecap:square;stroke-linejoin:miter;stroke-width:2;"/>
   </g>
   <g id="patch_25">
    <path d="M 592.2875 333.36 
L 592.2875 7.2 
" style="fill:none;stroke:#000000;stroke-linecap:square;stroke-linejoin:miter;stroke-width:2;"/>
   </g>
   <g id="patch_26">
    <path d="M 34.2875 333.36 
L 592.2875 333.36 
" style="fill:none;stroke:#000000;stroke-linecap:square;stroke-linejoin:miter;stroke-width:2;"/>
   </g>
   <g id="patch_27">
    <path d="M 34.2875 7.2 
L 592.2875 7.2 
" style="fill:none;stroke:#000000;stroke-linecap:square;stroke-linejoin:miter;stroke-width:2;"/>
   </g>
  </g>
 </g>
 <defs>
  <clipPath id="p9c0b330600">
   <rect height="326.16" width="558" x="34.2875" y="7.2"/>
  </clipPath>
 </defs>
</svg>
