<?xml version="1.0" encoding="utf-8" standalone="no"?>
<!DOCTYPE svg PUBLIC "-//W3C//DTD SVG 1.1//EN"
  "http://www.w3.org/Graphics/SVG/1.1/DTD/svg11.dtd">
<!-- Created with matplotlib (https://matplotlib.org/) -->
<svg height="363.1755pt" version="1.1" viewBox="0 0 408.7075 363.1755" width="408.7075pt" xmlns="http://www.w3.org/2000/svg" xmlns:xlink="http://www.w3.org/1999/xlink">
 <defs>
  <style type="text/css">
*{stroke-linecap:butt;stroke-linejoin:round;}
  </style>
 </defs>
 <g id="figure_1">
  <g id="patch_1">
   <path d="M 0 363.1755 
L 408.7075 363.1755 
L 408.7075 0 
L 0 0 
z
" style="fill:#ffffff;"/>
  </g>
  <g id="axes_1">
   <g id="patch_2">
    <path d="M 71.689 299.589 
L 350.689 299.589 
L 350.689 27.789 
L 71.689 27.789 
z
" style="fill:#ffffff;"/>
   </g>
   <g id="PolyCollection_1">
    <defs>
     <path d="M 71.689 -238.765573 
L 71.689 -189.54435 
L 73.599959 -197.014834 
L 75.510918 -191.785354 
L 77.421877 -188.35355 
L 79.332836 -178.704264 
L 81.243795 -180.434579 
L 83.154753 -173.972997 
L 85.065712 -175.318235 
L 86.976671 -175.576097 
L 88.88763 -182.793797 
L 90.798589 -191.470718 
L 92.709548 -202.905445 
L 94.620507 -197.963147 
L 96.531466 -196.983477 
L 98.442425 -205.721517 
L 100.353384 -201.976266 
L 102.264342 -196.499367 
L 104.175301 -197.857276 
L 106.08626 -189.81657 
L 107.997219 -189.855607 
L 109.908178 -191.754607 
L 111.819137 -188.361882 
L 113.730096 -174.349909 
L 115.641055 -175.33021 
L 117.552014 -168.029869 
L 119.462973 -155.519333 
L 121.373932 -159.732762 
L 123.28489 -155.27838 
L 125.195849 -152.711087 
L 127.106808 -150.598187 
L 129.017767 -157.834726 
L 130.928726 -147.393672 
L 132.839685 -150.630781 
L 134.750644 -158.123818 
L 136.661603 -155.047367 
L 138.572562 -158.835814 
L 140.483521 -157.008551 
L 142.394479 -157.745027 
L 144.305438 -164.204374 
L 146.216397 -161.044879 
L 148.127356 -158.884751 
L 150.038315 -154.855713 
L 151.949274 -147.671629 
L 153.860233 -144.874971 
L 155.771192 -143.215069 
L 157.682151 -140.047322 
L 159.59311 -141.619716 
L 161.504068 -141.657278 
L 163.415027 -139.745351 
L 165.325986 -140.204039 
L 167.236945 -137.028464 
L 169.147904 -133.548237 
L 171.058863 -136.319209 
L 172.969822 -140.833021 
L 174.880781 -144.225171 
L 176.79174 -157.250942 
L 178.702699 -160.845265 
L 180.613658 -160.095266 
L 182.524616 -165.397541 
L 184.435575 -166.56057 
L 186.346534 -171.592579 
L 188.257493 -167.330077 
L 190.168452 -180.913545 
L 192.079411 -184.657116 
L 193.99037 -169.566781 
L 195.901329 -173.089566 
L 197.812288 -173.413692 
L 199.723247 -176.316962 
L 201.634205 -180.149227 
L 203.545164 -174.853208 
L 205.456123 -178.616133 
L 207.367082 -175.83916 
L 209.278041 -176.698586 
L 211.189 -186.829098 
L 213.099959 -195.448347 
L 215.010918 -193.921899 
L 216.921877 -188.373372 
L 218.832836 -184.775053 
L 220.743795 -178.388129 
L 222.654753 -187.149028 
L 224.565712 -194.145503 
L 226.476671 -198.335458 
L 228.38763 -194.085039 
L 230.298589 -190.717308 
L 232.209548 -192.421579 
L 234.120507 -186.769152 
L 236.031466 -189.853683 
L 237.942425 -199.618136 
L 239.853384 -199.210515 
L 241.764342 -200.172687 
L 243.675301 -203.228078 
L 245.58626 -204.267153 
L 247.497219 -205.720318 
L 249.408178 -202.504427 
L 251.319137 -199.35471 
L 253.230096 -203.850674 
L 255.141055 -209.03958 
L 257.052014 -210.011744 
L 258.962973 -223.918814 
L 260.873932 -228.788894 
L 262.78489 -236.048298 
L 264.695849 -240.802149 
L 266.606808 -237.391314 
L 268.517767 -234.180644 
L 270.428726 -228.614171 
L 272.339685 -221.331617 
L 274.250644 -229.731824 
L 276.161603 -228.641295 
L 278.072562 -231.979078 
L 279.983521 -234.315448 
L 281.894479 -227.141469 
L 283.805438 -231.011858 
L 285.716397 -230.206729 
L 287.627356 -231.309874 
L 289.538315 -232.007087 
L 291.449274 -219.625685 
L 293.360233 -222.295271 
L 295.271192 -197.167044 
L 297.182151 -198.415265 
L 299.09311 -204.524173 
L 301.004068 -207.697973 
L 302.915027 -206.186565 
L 304.825986 -214.045252 
L 306.736945 -209.575769 
L 308.647904 -208.569792 
L 310.558863 -202.141801 
L 312.469822 -199.737932 
L 314.380781 -186.62784 
L 316.29174 -189.289359 
L 318.202699 -183.552364 
L 320.113658 -170.3024 
L 322.024616 -165.783121 
L 323.935575 -161.479366 
L 325.846534 -163.092578 
L 327.757493 -169.770456 
L 329.668452 -167.592476 
L 331.579411 -180.376592 
L 333.49037 -171.140268 
L 335.401329 -186.507256 
L 337.312288 -178.372586 
L 339.223247 -186.284675 
L 341.134205 -194.491332 
L 343.045164 -191.649901 
L 344.956123 -191.659959 
L 346.867082 -189.296455 
L 348.778041 -189.792584 
L 350.689 -189.54435 
L 350.689 -238.765573 
L 350.689 -238.765573 
L 348.778041 -239.833146 
L 346.867082 -241.596828 
L 344.956123 -239.234836 
L 343.045164 -239.185426 
L 341.134205 -245.113173 
L 339.223247 -237.573443 
L 337.312288 -239.509553 
L 335.401329 -237.521886 
L 333.49037 -221.228541 
L 331.579411 -230.18014 
L 329.668452 -221.673339 
L 327.757493 -216.91322 
L 325.846534 -214.451467 
L 323.935575 -212.805802 
L 322.024616 -219.06815 
L 320.113658 -221.269874 
L 318.202699 -231.696922 
L 316.29174 -232.925974 
L 314.380781 -229.818754 
L 312.469822 -243.605174 
L 310.558863 -239.248202 
L 308.647904 -241.692363 
L 306.736945 -241.948935 
L 304.825986 -244.212296 
L 302.915027 -237.479045 
L 301.004068 -238.581901 
L 299.09311 -234.637461 
L 297.182151 -234.689545 
L 295.271192 -234.667433 
L 293.360233 -260.415065 
L 291.449274 -260.964502 
L 289.538315 -269.282175 
L 287.627356 -267.313062 
L 285.716397 -267.747277 
L 283.805438 -269.690437 
L 281.894479 -266.262759 
L 279.983521 -272.970949 
L 278.072562 -268.948647 
L 276.161603 -270.31047 
L 274.250644 -272.41257 
L 272.339685 -261.434534 
L 270.428726 -267.343509 
L 268.517767 -274.043149 
L 266.606808 -274.724791 
L 264.695849 -278.155862 
L 262.78489 -272.33739 
L 260.873932 -263.214205 
L 258.962973 -257.337967 
L 257.052014 -244.510054 
L 255.141055 -244.545051 
L 253.230096 -240.969776 
L 251.319137 -237.64275 
L 249.408178 -241.087956 
L 247.497219 -242.601692 
L 245.58626 -238.839108 
L 243.675301 -239.984589 
L 241.764342 -235.407864 
L 239.853384 -238.291613 
L 237.942425 -239.871589 
L 236.031466 -230.423654 
L 234.120507 -221.184444 
L 232.209548 -224.560893 
L 230.298589 -218.566904 
L 228.38763 -220.664411 
L 226.476671 -225.878155 
L 224.565712 -223.938627 
L 222.654753 -222.322021 
L 220.743795 -215.308611 
L 218.832836 -225.335934 
L 216.921877 -232.199307 
L 215.010918 -237.227463 
L 213.099959 -240.941526 
L 211.189 -230.570048 
L 209.278041 -228.733657 
L 207.367082 -226.849547 
L 205.456123 -227.416707 
L 203.545164 -224.084551 
L 201.634205 -232.19819 
L 199.723247 -233.644621 
L 197.812288 -228.040287 
L 195.901329 -229.872905 
L 193.99037 -224.120716 
L 192.079411 -235.978081 
L 190.168452 -232.560491 
L 188.257493 -219.847297 
L 186.346534 -222.96525 
L 184.435575 -222.42155 
L 182.524616 -216.401422 
L 180.613658 -209.480492 
L 178.702699 -213.709081 
L 176.79174 -215.658724 
L 174.880781 -204.82423 
L 172.969822 -202.856804 
L 171.058863 -197.786027 
L 169.147904 -194.93099 
L 167.236945 -197.942119 
L 165.325986 -200.061758 
L 163.415027 -203.164269 
L 161.504068 -202.48851 
L 159.59311 -200.726543 
L 157.682151 -194.71116 
L 155.771192 -206.696504 
L 153.860233 -211.44356 
L 151.949274 -212.923298 
L 150.038315 -220.231965 
L 148.127356 -224.204127 
L 146.216397 -223.530797 
L 144.305438 -223.73732 
L 142.394479 -220.69456 
L 140.483521 -227.972147 
L 138.572562 -231.456158 
L 136.661603 -227.333768 
L 134.750644 -230.809173 
L 132.839685 -227.258395 
L 130.928726 -226.751058 
L 129.017767 -237.130233 
L 127.106808 -229.494399 
L 125.195849 -235.095682 
L 123.28489 -241.217469 
L 121.373932 -249.47889 
L 119.462973 -241.726965 
L 117.552014 -248.568925 
L 115.641055 -254.298088 
L 113.730096 -241.31439 
L 111.819137 -251.423008 
L 109.908178 -250.277629 
L 107.997219 -249.743686 
L 106.08626 -254.464897 
L 104.175301 -254.649748 
L 102.264342 -253.755448 
L 100.353384 -250.709775 
L 98.442425 -255.762529 
L 96.531466 -238.055148 
L 94.620507 -242.13255 
L 92.709548 -246.983201 
L 90.798589 -236.199283 
L 88.88763 -233.781445 
L 86.976671 -230.489064 
L 85.065712 -236.27497 
L 83.154753 -236.777797 
L 81.243795 -239.49181 
L 79.332836 -240.432081 
L 77.421877 -250.105658 
L 75.510918 -245.431181 
L 73.599959 -251.008648 
L 71.689 -238.765573 
z
" id="md8b0f49922" style="stroke:#1e90ff;stroke-opacity:0.2;"/>
    </defs>
    <g clip-path="url(#p0a0b6d6139)">
     <use style="fill:#1e90ff;fill-opacity:0.2;stroke:#1e90ff;stroke-opacity:0.2;" x="0" xlink:href="#md8b0f49922" y="363.1755"/>
    </g>
   </g>
   <g id="PolyCollection_2">
    <defs>
     <path d="M 71.689 -199.4865 
L 71.689 -199.4865 
L 73.599959 -199.408418 
L 75.510918 -199.329594 
L 77.421877 -199.249278 
L 79.332836 -199.166701 
L 81.243795 -199.081069 
L 83.154753 -198.99155 
L 85.065712 -198.897269 
L 86.976671 -198.797293 
L 88.88763 -198.690625 
L 90.798589 -198.576192 
L 92.709548 -198.452836 
L 94.620507 -198.319297 
L 96.531466 -198.174209 
L 98.442425 -198.016083 
L 100.353384 -197.843299 
L 102.264342 -197.654089 
L 104.175301 -197.446533 
L 106.08626 -197.218543 
L 107.997219 -196.967855 
L 109.908178 -196.692023 
L 111.819137 -196.388412 
L 113.730096 -196.054198 
L 115.641055 -195.68637 
L 117.552014 -195.281733 
L 119.462973 -194.836928 
L 121.373932 -194.34845 
L 123.28489 -193.812676 
L 125.195849 -193.225911 
L 127.106808 -192.584434 
L 129.017767 -191.884572 
L 130.928726 -191.122771 
L 132.839685 -190.295703 
L 134.750644 -189.400368 
L 136.661603 -188.434232 
L 138.572562 -187.395364 
L 140.483521 -186.282606 
L 142.394479 -185.095735 
L 144.305438 -183.835657 
L 146.216397 -182.504587 
L 148.127356 -181.106244 
L 150.038315 -179.646037 
L 151.949274 -178.131237 
L 153.860233 -176.571133 
L 155.771192 -174.977162 
L 157.682151 -173.363 
L 159.59311 -171.744615 
L 161.504068 -170.140259 
L 163.415027 -168.570411 
L 165.325986 -167.057635 
L 167.236945 -165.626377 
L 169.147904 -164.30267 
L 171.058863 -163.113757 
L 172.969822 -162.087631 
L 174.880781 -161.252491 
L 176.79174 -160.636125 
L 178.702699 -160.265235 
L 180.613658 -160.164717 
L 182.524616 -160.356926 
L 184.435575 -160.860947 
L 186.346534 -161.691896 
L 188.257493 -162.860294 
L 190.168452 -164.371524 
L 192.079411 -166.225409 
L 193.99037 -168.41593 
L 195.901329 -170.931084 
L 197.812288 -173.752914 
L 199.723247 -176.857692 
L 201.634205 -180.216255 
L 203.545164 -183.794498 
L 205.456123 -187.553984 
L 207.367082 -191.452675 
L 209.278041 -195.445752 
L 211.189 -199.4865 
L 213.099959 -196.706499 
L 215.010918 -194.017783 
L 216.921877 -191.507086 
L 218.832836 -189.252356 
L 220.743795 -187.319117 
L 222.654753 -185.757659 
L 224.565712 -184.601216 
L 226.476671 -183.865219 
L 228.38763 -183.5476 
L 230.298589 -183.630076 
L 232.209548 -184.08024 
L 234.120507 -184.854272 
L 236.031466 -185.90003 
L 237.942425 -187.160282 
L 239.853384 -188.575872 
L 241.764342 -190.088612 
L 243.675301 -191.643767 
L 245.58626 -193.192027 
L 247.497219 -194.69092 
L 249.408178 -196.105663 
L 251.319137 -197.409485 
L 253.230096 -198.583495 
L 255.141055 -199.616174 
L 257.052014 -200.502592 
L 258.962973 -201.243442 
L 260.873932 -201.843989 
L 262.78489 -202.312996 
L 264.695849 -202.661709 
L 266.606808 -202.902937 
L 268.517767 -203.050245 
L 270.428726 -203.117302 
L 272.339685 -203.117363 
L 274.250644 -203.062885 
L 276.161603 -202.965272 
L 278.072562 -202.834718 
L 279.983521 -202.680141 
L 281.894479 -202.509181 
L 283.805438 -202.328256 
L 285.716397 -202.142638 
L 287.627356 -201.956568 
L 289.538315 -201.773365 
L 291.449274 -201.595556 
L 293.360233 -201.424987 
L 295.271192 -201.262934 
L 297.182151 -201.110208 
L 299.09311 -200.967246 
L 301.004068 -200.834182 
L 302.915027 -200.710927 
L 304.825986 -200.597216 
L 306.736945 -200.492659 
L 308.647904 -200.396784 
L 310.558863 -200.309059 
L 312.469822 -200.228927 
L 314.380781 -200.155816 
L 316.29174 -200.089159 
L 318.202699 -200.028401 
L 320.113658 -199.97301 
L 322.024616 -199.922476 
L 323.935575 -199.876321 
L 325.846534 -199.834096 
L 327.757493 -199.79538 
L 329.668452 -199.759785 
L 331.579411 -199.726947 
L 333.49037 -199.696532 
L 335.401329 -199.668227 
L 337.312288 -199.641744 
L 339.223247 -199.616811 
L 341.134205 -199.593176 
L 343.045164 -199.570601 
L 344.956123 -199.54886 
L 346.867082 -199.527734 
L 348.778041 -199.507016 
L 350.689 -199.4865 
L 350.689 -199.4865 
L 350.689 -199.4865 
L 348.778041 -199.564582 
L 346.867082 -199.643406 
L 344.956123 -199.723722 
L 343.045164 -199.806299 
L 341.134205 -199.891931 
L 339.223247 -199.98145 
L 337.312288 -200.075731 
L 335.401329 -200.175707 
L 333.49037 -200.282375 
L 331.579411 -200.396808 
L 329.668452 -200.520164 
L 327.757493 -200.653703 
L 325.846534 -200.798791 
L 323.935575 -200.956917 
L 322.024616 -201.129701 
L 320.113658 -201.318911 
L 318.202699 -201.526467 
L 316.29174 -201.754457 
L 314.380781 -202.005145 
L 312.469822 -202.280977 
L 310.558863 -202.584588 
L 308.647904 -202.918802 
L 306.736945 -203.28663 
L 304.825986 -203.691267 
L 302.915027 -204.136072 
L 301.004068 -204.62455 
L 299.09311 -205.160324 
L 297.182151 -205.747089 
L 295.271192 -206.388566 
L 293.360233 -207.088428 
L 291.449274 -207.850229 
L 289.538315 -208.677297 
L 287.627356 -209.572632 
L 285.716397 -210.538768 
L 283.805438 -211.577636 
L 281.894479 -212.690394 
L 279.983521 -213.877265 
L 278.072562 -215.137343 
L 276.161603 -216.468413 
L 274.250644 -217.866756 
L 272.339685 -219.326963 
L 270.428726 -220.841763 
L 268.517767 -222.401867 
L 266.606808 -223.995838 
L 264.695849 -225.61 
L 262.78489 -227.228385 
L 260.873932 -228.832741 
L 258.962973 -230.402589 
L 257.052014 -231.915365 
L 255.141055 -233.346623 
L 253.230096 -234.67033 
L 251.319137 -235.859243 
L 249.408178 -236.885369 
L 247.497219 -237.720509 
L 245.58626 -238.336875 
L 243.675301 -238.707765 
L 241.764342 -238.808283 
L 239.853384 -238.616074 
L 237.942425 -238.112053 
L 236.031466 -237.281104 
L 234.120507 -236.112706 
L 232.209548 -234.601476 
L 230.298589 -232.747591 
L 228.38763 -230.55707 
L 226.476671 -228.041916 
L 224.565712 -225.220086 
L 222.654753 -222.115308 
L 220.743795 -218.756745 
L 218.832836 -215.178502 
L 216.921877 -211.419016 
L 215.010918 -207.520325 
L 213.099959 -203.527248 
L 211.189 -199.4865 
L 209.278041 -202.266501 
L 207.367082 -204.955217 
L 205.456123 -207.465914 
L 203.545164 -209.720644 
L 201.634205 -211.653883 
L 199.723247 -213.215341 
L 197.812288 -214.371784 
L 195.901329 -215.107781 
L 193.99037 -215.4254 
L 192.079411 -215.342924 
L 190.168452 -214.89276 
L 188.257493 -214.118728 
L 186.346534 -213.07297 
L 184.435575 -211.812718 
L 182.524616 -210.397128 
L 180.613658 -208.884388 
L 178.702699 -207.329233 
L 176.79174 -205.780973 
L 174.880781 -204.28208 
L 172.969822 -202.867337 
L 171.058863 -201.563515 
L 169.147904 -200.389505 
L 167.236945 -199.356826 
L 165.325986 -198.470408 
L 163.415027 -197.729558 
L 161.504068 -197.129011 
L 159.59311 -196.660004 
L 157.682151 -196.311291 
L 155.771192 -196.070063 
L 153.860233 -195.922755 
L 151.949274 -195.855698 
L 150.038315 -195.855637 
L 148.127356 -195.910115 
L 146.216397 -196.007728 
L 144.305438 -196.138282 
L 142.394479 -196.292859 
L 140.483521 -196.463819 
L 138.572562 -196.644744 
L 136.661603 -196.830362 
L 134.750644 -197.016432 
L 132.839685 -197.199635 
L 130.928726 -197.377444 
L 129.017767 -197.548013 
L 127.106808 -197.710066 
L 125.195849 -197.862792 
L 123.28489 -198.005754 
L 121.373932 -198.138818 
L 119.462973 -198.262073 
L 117.552014 -198.375784 
L 115.641055 -198.480341 
L 113.730096 -198.576216 
L 111.819137 -198.663941 
L 109.908178 -198.744073 
L 107.997219 -198.817184 
L 106.08626 -198.883841 
L 104.175301 -198.944599 
L 102.264342 -198.99999 
L 100.353384 -199.050524 
L 98.442425 -199.096679 
L 96.531466 -199.138904 
L 94.620507 -199.17762 
L 92.709548 -199.213215 
L 90.798589 -199.246053 
L 88.88763 -199.276468 
L 86.976671 -199.304773 
L 85.065712 -199.331256 
L 83.154753 -199.356189 
L 81.243795 -199.379824 
L 79.332836 -199.402399 
L 77.421877 -199.42414 
L 75.510918 -199.445266 
L 73.599959 -199.465984 
L 71.689 -199.4865 
z
" id="m0d6f0bd713" style="stroke:#006400;stroke-opacity:0.2;"/>
    </defs>
    <g clip-path="url(#p0a0b6d6139)">
     <use style="fill:#006400;fill-opacity:0.2;stroke:#006400;stroke-opacity:0.2;" x="0" xlink:href="#m0d6f0bd713" y="363.1755"/>
    </g>
   </g>
   <g id="matplotlib.axis_1">
    <g id="xtick_1">
     <g id="line2d_1">
      <defs>
       <path d="M 0 0 
L 0 -6 
" id="m9354257422" style="stroke:#000000;stroke-width:2;"/>
      </defs>
      <g>
       <use style="stroke:#000000;stroke-width:2;" x="71.689" xlink:href="#m9354257422" y="299.589"/>
      </g>
     </g>
     <g id="text_1">
      <!-- -73 -->
      <defs>
       <path d="M 4.890625 31.390625 
L 31.203125 31.390625 
L 31.203125 23.390625 
L 4.890625 23.390625 
z
" id="DejaVuSans-45"/>
       <path d="M 8.203125 72.90625 
L 55.078125 72.90625 
L 55.078125 68.703125 
L 28.609375 0 
L 18.3125 0 
L 43.21875 64.59375 
L 8.203125 64.59375 
z
" id="DejaVuSans-55"/>
       <path d="M 40.578125 39.3125 
Q 47.65625 37.796875 51.625 33 
Q 55.609375 28.21875 55.609375 21.1875 
Q 55.609375 10.40625 48.1875 4.484375 
Q 40.765625 -1.421875 27.09375 -1.421875 
Q 22.515625 -1.421875 17.65625 -0.515625 
Q 12.796875 0.390625 7.625 2.203125 
L 7.625 11.71875 
Q 11.71875 9.328125 16.59375 8.109375 
Q 21.484375 6.890625 26.8125 6.890625 
Q 36.078125 6.890625 40.9375 10.546875 
Q 45.796875 14.203125 45.796875 21.1875 
Q 45.796875 27.640625 41.28125 31.265625 
Q 36.765625 34.90625 28.71875 34.90625 
L 20.21875 34.90625 
L 20.21875 43.015625 
L 29.109375 43.015625 
Q 36.375 43.015625 40.234375 45.921875 
Q 44.09375 48.828125 44.09375 54.296875 
Q 44.09375 59.90625 40.109375 62.90625 
Q 36.140625 65.921875 28.71875 65.921875 
Q 24.65625 65.921875 20.015625 65.03125 
Q 15.375 64.15625 9.8125 62.3125 
L 9.8125 71.09375 
Q 15.4375 72.65625 20.34375 73.4375 
Q 25.25 74.21875 29.59375 74.21875 
Q 40.828125 74.21875 47.359375 69.109375 
Q 53.90625 64.015625 53.90625 55.328125 
Q 53.90625 49.265625 50.4375 45.09375 
Q 46.96875 40.921875 40.578125 39.3125 
z
" id="DejaVuSans-51"/>
      </defs>
      <g transform="translate(58.62275 315.2465)scale(0.16 -0.16)">
       <use xlink:href="#DejaVuSans-45"/>
       <use x="36.083984" xlink:href="#DejaVuSans-55"/>
       <use x="99.707031" xlink:href="#DejaVuSans-51"/>
      </g>
     </g>
    </g>
    <g id="xtick_2">
     <g id="line2d_2">
      <g>
       <use style="stroke:#000000;stroke-width:2;" x="115.641055" xlink:href="#m9354257422" y="299.589"/>
      </g>
     </g>
     <g id="text_2">
      <!-- -50 -->
      <defs>
       <path d="M 10.796875 72.90625 
L 49.515625 72.90625 
L 49.515625 64.59375 
L 19.828125 64.59375 
L 19.828125 46.734375 
Q 21.96875 47.46875 24.109375 47.828125 
Q 26.265625 48.1875 28.421875 48.1875 
Q 40.625 48.1875 47.75 41.5 
Q 54.890625 34.8125 54.890625 23.390625 
Q 54.890625 11.625 47.5625 5.09375 
Q 40.234375 -1.421875 26.90625 -1.421875 
Q 22.3125 -1.421875 17.546875 -0.640625 
Q 12.796875 0.140625 7.71875 1.703125 
L 7.71875 11.625 
Q 12.109375 9.234375 16.796875 8.0625 
Q 21.484375 6.890625 26.703125 6.890625 
Q 35.15625 6.890625 40.078125 11.328125 
Q 45.015625 15.765625 45.015625 23.390625 
Q 45.015625 31 40.078125 35.4375 
Q 35.15625 39.890625 26.703125 39.890625 
Q 22.75 39.890625 18.8125 39.015625 
Q 14.890625 38.140625 10.796875 36.28125 
z
" id="DejaVuSans-53"/>
       <path d="M 31.78125 66.40625 
Q 24.171875 66.40625 20.328125 58.90625 
Q 16.5 51.421875 16.5 36.375 
Q 16.5 21.390625 20.328125 13.890625 
Q 24.171875 6.390625 31.78125 6.390625 
Q 39.453125 6.390625 43.28125 13.890625 
Q 47.125 21.390625 47.125 36.375 
Q 47.125 51.421875 43.28125 58.90625 
Q 39.453125 66.40625 31.78125 66.40625 
z
M 31.78125 74.21875 
Q 44.046875 74.21875 50.515625 64.515625 
Q 56.984375 54.828125 56.984375 36.375 
Q 56.984375 17.96875 50.515625 8.265625 
Q 44.046875 -1.421875 31.78125 -1.421875 
Q 19.53125 -1.421875 13.0625 8.265625 
Q 6.59375 17.96875 6.59375 36.375 
Q 6.59375 54.828125 13.0625 64.515625 
Q 19.53125 74.21875 31.78125 74.21875 
z
" id="DejaVuSans-48"/>
      </defs>
      <g transform="translate(102.574805 315.2465)scale(0.16 -0.16)">
       <use xlink:href="#DejaVuSans-45"/>
       <use x="36.083984" xlink:href="#DejaVuSans-53"/>
       <use x="99.707031" xlink:href="#DejaVuSans-48"/>
      </g>
     </g>
    </g>
    <g id="xtick_3">
     <g id="line2d_3">
      <g>
       <use style="stroke:#000000;stroke-width:2;" x="163.415027" xlink:href="#m9354257422" y="299.589"/>
      </g>
     </g>
     <g id="text_3">
      <!-- -25 -->
      <defs>
       <path d="M 19.1875 8.296875 
L 53.609375 8.296875 
L 53.609375 0 
L 7.328125 0 
L 7.328125 8.296875 
Q 12.9375 14.109375 22.625 23.890625 
Q 32.328125 33.6875 34.8125 36.53125 
Q 39.546875 41.84375 41.421875 45.53125 
Q 43.3125 49.21875 43.3125 52.78125 
Q 43.3125 58.59375 39.234375 62.25 
Q 35.15625 65.921875 28.609375 65.921875 
Q 23.96875 65.921875 18.8125 64.3125 
Q 13.671875 62.703125 7.8125 59.421875 
L 7.8125 69.390625 
Q 13.765625 71.78125 18.9375 73 
Q 24.125 74.21875 28.421875 74.21875 
Q 39.75 74.21875 46.484375 68.546875 
Q 53.21875 62.890625 53.21875 53.421875 
Q 53.21875 48.921875 51.53125 44.890625 
Q 49.859375 40.875 45.40625 35.40625 
Q 44.1875 33.984375 37.640625 27.21875 
Q 31.109375 20.453125 19.1875 8.296875 
z
" id="DejaVuSans-50"/>
      </defs>
      <g transform="translate(150.348777 315.2465)scale(0.16 -0.16)">
       <use xlink:href="#DejaVuSans-45"/>
       <use x="36.083984" xlink:href="#DejaVuSans-50"/>
       <use x="99.707031" xlink:href="#DejaVuSans-53"/>
      </g>
     </g>
    </g>
    <g id="xtick_4">
     <g id="line2d_4">
      <g>
       <use style="stroke:#000000;stroke-width:2;" x="211.189" xlink:href="#m9354257422" y="299.589"/>
      </g>
     </g>
     <g id="text_4">
      <!-- 0 -->
      <g transform="translate(206.099 315.2465)scale(0.16 -0.16)">
       <use xlink:href="#DejaVuSans-48"/>
      </g>
     </g>
    </g>
    <g id="xtick_5">
     <g id="line2d_5">
      <g>
       <use style="stroke:#000000;stroke-width:2;" x="258.962973" xlink:href="#m9354257422" y="299.589"/>
      </g>
     </g>
     <g id="text_5">
      <!-- 25 -->
      <g transform="translate(248.782973 315.2465)scale(0.16 -0.16)">
       <use xlink:href="#DejaVuSans-50"/>
       <use x="63.623047" xlink:href="#DejaVuSans-53"/>
      </g>
     </g>
    </g>
    <g id="xtick_6">
     <g id="line2d_6">
      <g>
       <use style="stroke:#000000;stroke-width:2;" x="306.736945" xlink:href="#m9354257422" y="299.589"/>
      </g>
     </g>
     <g id="text_6">
      <!-- 50 -->
      <g transform="translate(296.556945 315.2465)scale(0.16 -0.16)">
       <use xlink:href="#DejaVuSans-53"/>
       <use x="63.623047" xlink:href="#DejaVuSans-48"/>
      </g>
     </g>
    </g>
    <g id="xtick_7">
     <g id="line2d_7">
      <g>
       <use style="stroke:#000000;stroke-width:2;" x="350.689" xlink:href="#m9354257422" y="299.589"/>
      </g>
     </g>
     <g id="text_7">
      <!-- 73 -->
      <g transform="translate(340.509 315.2465)scale(0.16 -0.16)">
       <use xlink:href="#DejaVuSans-55"/>
       <use x="63.623047" xlink:href="#DejaVuSans-51"/>
      </g>
     </g>
    </g>
    <g id="text_8">
     <!-- Previous Tumor - Current Tumor -->
     <defs>
      <path d="M 19.671875 64.796875 
L 19.671875 37.40625 
L 32.078125 37.40625 
Q 38.96875 37.40625 42.71875 40.96875 
Q 46.484375 44.53125 46.484375 51.125 
Q 46.484375 57.671875 42.71875 61.234375 
Q 38.96875 64.796875 32.078125 64.796875 
z
M 9.8125 72.90625 
L 32.078125 72.90625 
Q 44.34375 72.90625 50.609375 67.359375 
Q 56.890625 61.8125 56.890625 51.125 
Q 56.890625 40.328125 50.609375 34.8125 
Q 44.34375 29.296875 32.078125 29.296875 
L 19.671875 29.296875 
L 19.671875 0 
L 9.8125 0 
z
" id="DejaVuSans-80"/>
      <path d="M 41.109375 46.296875 
Q 39.59375 47.171875 37.8125 47.578125 
Q 36.03125 48 33.890625 48 
Q 26.265625 48 22.1875 43.046875 
Q 18.109375 38.09375 18.109375 28.8125 
L 18.109375 0 
L 9.078125 0 
L 9.078125 54.6875 
L 18.109375 54.6875 
L 18.109375 46.1875 
Q 20.953125 51.171875 25.484375 53.578125 
Q 30.03125 56 36.53125 56 
Q 37.453125 56 38.578125 55.875 
Q 39.703125 55.765625 41.0625 55.515625 
z
" id="DejaVuSans-114"/>
      <path d="M 56.203125 29.59375 
L 56.203125 25.203125 
L 14.890625 25.203125 
Q 15.484375 15.921875 20.484375 11.0625 
Q 25.484375 6.203125 34.421875 6.203125 
Q 39.59375 6.203125 44.453125 7.46875 
Q 49.3125 8.734375 54.109375 11.28125 
L 54.109375 2.78125 
Q 49.265625 0.734375 44.1875 -0.34375 
Q 39.109375 -1.421875 33.890625 -1.421875 
Q 20.796875 -1.421875 13.15625 6.1875 
Q 5.515625 13.8125 5.515625 26.8125 
Q 5.515625 40.234375 12.765625 48.109375 
Q 20.015625 56 32.328125 56 
Q 43.359375 56 49.78125 48.890625 
Q 56.203125 41.796875 56.203125 29.59375 
z
M 47.21875 32.234375 
Q 47.125 39.59375 43.09375 43.984375 
Q 39.0625 48.390625 32.421875 48.390625 
Q 24.90625 48.390625 20.390625 44.140625 
Q 15.875 39.890625 15.1875 32.171875 
z
" id="DejaVuSans-101"/>
      <path d="M 2.984375 54.6875 
L 12.5 54.6875 
L 29.59375 8.796875 
L 46.6875 54.6875 
L 56.203125 54.6875 
L 35.6875 0 
L 23.484375 0 
z
" id="DejaVuSans-118"/>
      <path d="M 9.421875 54.6875 
L 18.40625 54.6875 
L 18.40625 0 
L 9.421875 0 
z
M 9.421875 75.984375 
L 18.40625 75.984375 
L 18.40625 64.59375 
L 9.421875 64.59375 
z
" id="DejaVuSans-105"/>
      <path d="M 30.609375 48.390625 
Q 23.390625 48.390625 19.1875 42.75 
Q 14.984375 37.109375 14.984375 27.296875 
Q 14.984375 17.484375 19.15625 11.84375 
Q 23.34375 6.203125 30.609375 6.203125 
Q 37.796875 6.203125 41.984375 11.859375 
Q 46.1875 17.53125 46.1875 27.296875 
Q 46.1875 37.015625 41.984375 42.703125 
Q 37.796875 48.390625 30.609375 48.390625 
z
M 30.609375 56 
Q 42.328125 56 49.015625 48.375 
Q 55.71875 40.765625 55.71875 27.296875 
Q 55.71875 13.875 49.015625 6.21875 
Q 42.328125 -1.421875 30.609375 -1.421875 
Q 18.84375 -1.421875 12.171875 6.21875 
Q 5.515625 13.875 5.515625 27.296875 
Q 5.515625 40.765625 12.171875 48.375 
Q 18.84375 56 30.609375 56 
z
" id="DejaVuSans-111"/>
      <path d="M 8.5 21.578125 
L 8.5 54.6875 
L 17.484375 54.6875 
L 17.484375 21.921875 
Q 17.484375 14.15625 20.5 10.265625 
Q 23.53125 6.390625 29.59375 6.390625 
Q 36.859375 6.390625 41.078125 11.03125 
Q 45.3125 15.671875 45.3125 23.6875 
L 45.3125 54.6875 
L 54.296875 54.6875 
L 54.296875 0 
L 45.3125 0 
L 45.3125 8.40625 
Q 42.046875 3.421875 37.71875 1 
Q 33.40625 -1.421875 27.6875 -1.421875 
Q 18.265625 -1.421875 13.375 4.4375 
Q 8.5 10.296875 8.5 21.578125 
z
M 31.109375 56 
z
" id="DejaVuSans-117"/>
      <path d="M 44.28125 53.078125 
L 44.28125 44.578125 
Q 40.484375 46.53125 36.375 47.5 
Q 32.28125 48.484375 27.875 48.484375 
Q 21.1875 48.484375 17.84375 46.4375 
Q 14.5 44.390625 14.5 40.28125 
Q 14.5 37.15625 16.890625 35.375 
Q 19.28125 33.59375 26.515625 31.984375 
L 29.59375 31.296875 
Q 39.15625 29.25 43.1875 25.515625 
Q 47.21875 21.78125 47.21875 15.09375 
Q 47.21875 7.46875 41.1875 3.015625 
Q 35.15625 -1.421875 24.609375 -1.421875 
Q 20.21875 -1.421875 15.453125 -0.5625 
Q 10.6875 0.296875 5.421875 2 
L 5.421875 11.28125 
Q 10.40625 8.6875 15.234375 7.390625 
Q 20.0625 6.109375 24.8125 6.109375 
Q 31.15625 6.109375 34.5625 8.28125 
Q 37.984375 10.453125 37.984375 14.40625 
Q 37.984375 18.0625 35.515625 20.015625 
Q 33.0625 21.96875 24.703125 23.78125 
L 21.578125 24.515625 
Q 13.234375 26.265625 9.515625 29.90625 
Q 5.8125 33.546875 5.8125 39.890625 
Q 5.8125 47.609375 11.28125 51.796875 
Q 16.75 56 26.8125 56 
Q 31.78125 56 36.171875 55.265625 
Q 40.578125 54.546875 44.28125 53.078125 
z
" id="DejaVuSans-115"/>
      <path id="DejaVuSans-32"/>
      <path d="M -0.296875 72.90625 
L 61.375 72.90625 
L 61.375 64.59375 
L 35.5 64.59375 
L 35.5 0 
L 25.59375 0 
L 25.59375 64.59375 
L -0.296875 64.59375 
z
" id="DejaVuSans-84"/>
      <path d="M 52 44.1875 
Q 55.375 50.25 60.0625 53.125 
Q 64.75 56 71.09375 56 
Q 79.640625 56 84.28125 50.015625 
Q 88.921875 44.046875 88.921875 33.015625 
L 88.921875 0 
L 79.890625 0 
L 79.890625 32.71875 
Q 79.890625 40.578125 77.09375 44.375 
Q 74.3125 48.1875 68.609375 48.1875 
Q 61.625 48.1875 57.5625 43.546875 
Q 53.515625 38.921875 53.515625 30.90625 
L 53.515625 0 
L 44.484375 0 
L 44.484375 32.71875 
Q 44.484375 40.625 41.703125 44.40625 
Q 38.921875 48.1875 33.109375 48.1875 
Q 26.21875 48.1875 22.15625 43.53125 
Q 18.109375 38.875 18.109375 30.90625 
L 18.109375 0 
L 9.078125 0 
L 9.078125 54.6875 
L 18.109375 54.6875 
L 18.109375 46.1875 
Q 21.1875 51.21875 25.484375 53.609375 
Q 29.78125 56 35.6875 56 
Q 41.65625 56 45.828125 52.96875 
Q 50 49.953125 52 44.1875 
z
" id="DejaVuSans-109"/>
      <path d="M 64.40625 67.28125 
L 64.40625 56.890625 
Q 59.421875 61.53125 53.78125 63.8125 
Q 48.140625 66.109375 41.796875 66.109375 
Q 29.296875 66.109375 22.65625 58.46875 
Q 16.015625 50.828125 16.015625 36.375 
Q 16.015625 21.96875 22.65625 14.328125 
Q 29.296875 6.6875 41.796875 6.6875 
Q 48.140625 6.6875 53.78125 8.984375 
Q 59.421875 11.28125 64.40625 15.921875 
L 64.40625 5.609375 
Q 59.234375 2.09375 53.4375 0.328125 
Q 47.65625 -1.421875 41.21875 -1.421875 
Q 24.65625 -1.421875 15.125 8.703125 
Q 5.609375 18.84375 5.609375 36.375 
Q 5.609375 53.953125 15.125 64.078125 
Q 24.65625 74.21875 41.21875 74.21875 
Q 47.75 74.21875 53.53125 72.484375 
Q 59.328125 70.75 64.40625 67.28125 
z
" id="DejaVuSans-67"/>
      <path d="M 54.890625 33.015625 
L 54.890625 0 
L 45.90625 0 
L 45.90625 32.71875 
Q 45.90625 40.484375 42.875 44.328125 
Q 39.84375 48.1875 33.796875 48.1875 
Q 26.515625 48.1875 22.3125 43.546875 
Q 18.109375 38.921875 18.109375 30.90625 
L 18.109375 0 
L 9.078125 0 
L 9.078125 54.6875 
L 18.109375 54.6875 
L 18.109375 46.1875 
Q 21.34375 51.125 25.703125 53.5625 
Q 30.078125 56 35.796875 56 
Q 45.21875 56 50.046875 50.171875 
Q 54.890625 44.34375 54.890625 33.015625 
z
" id="DejaVuSans-110"/>
      <path d="M 18.3125 70.21875 
L 18.3125 54.6875 
L 36.8125 54.6875 
L 36.8125 47.703125 
L 18.3125 47.703125 
L 18.3125 18.015625 
Q 18.3125 11.328125 20.140625 9.421875 
Q 21.96875 7.515625 27.59375 7.515625 
L 36.8125 7.515625 
L 36.8125 0 
L 27.59375 0 
Q 17.1875 0 13.234375 3.875 
Q 9.28125 7.765625 9.28125 18.015625 
L 9.28125 47.703125 
L 2.6875 47.703125 
L 2.6875 54.6875 
L 9.28125 54.6875 
L 9.28125 70.21875 
z
" id="DejaVuSans-116"/>
     </defs>
     <g transform="translate(81.82525 334.7315)scale(0.16 -0.16)">
      <use xlink:href="#DejaVuSans-80"/>
      <use x="60.287109" xlink:href="#DejaVuSans-114"/>
      <use x="101.369141" xlink:href="#DejaVuSans-101"/>
      <use x="162.892578" xlink:href="#DejaVuSans-118"/>
      <use x="222.072266" xlink:href="#DejaVuSans-105"/>
      <use x="249.855469" xlink:href="#DejaVuSans-111"/>
      <use x="311.037109" xlink:href="#DejaVuSans-117"/>
      <use x="374.416016" xlink:href="#DejaVuSans-115"/>
      <use x="426.515625" xlink:href="#DejaVuSans-32"/>
      <use x="458.302734" xlink:href="#DejaVuSans-84"/>
      <use x="519.152344" xlink:href="#DejaVuSans-117"/>
      <use x="582.53125" xlink:href="#DejaVuSans-109"/>
      <use x="679.943359" xlink:href="#DejaVuSans-111"/>
      <use x="741.125" xlink:href="#DejaVuSans-114"/>
      <use x="782.238281" xlink:href="#DejaVuSans-32"/>
      <use x="814.025391" xlink:href="#DejaVuSans-45"/>
      <use x="850.109375" xlink:href="#DejaVuSans-32"/>
      <use x="881.896484" xlink:href="#DejaVuSans-67"/>
      <use x="951.720703" xlink:href="#DejaVuSans-117"/>
      <use x="1015.099609" xlink:href="#DejaVuSans-114"/>
      <use x="1056.197266" xlink:href="#DejaVuSans-114"/>
      <use x="1097.279297" xlink:href="#DejaVuSans-101"/>
      <use x="1158.802734" xlink:href="#DejaVuSans-110"/>
      <use x="1222.181641" xlink:href="#DejaVuSans-116"/>
      <use x="1261.390625" xlink:href="#DejaVuSans-32"/>
      <use x="1293.177734" xlink:href="#DejaVuSans-84"/>
      <use x="1354.027344" xlink:href="#DejaVuSans-117"/>
      <use x="1417.40625" xlink:href="#DejaVuSans-109"/>
      <use x="1514.818359" xlink:href="#DejaVuSans-111"/>
      <use x="1576" xlink:href="#DejaVuSans-114"/>
     </g>
     <!--  (morph units) -->
     <defs>
      <path d="M 31 75.875 
Q 24.46875 64.65625 21.28125 53.65625 
Q 18.109375 42.671875 18.109375 31.390625 
Q 18.109375 20.125 21.3125 9.0625 
Q 24.515625 -2 31 -13.1875 
L 23.1875 -13.1875 
Q 15.875 -1.703125 12.234375 9.375 
Q 8.59375 20.453125 8.59375 31.390625 
Q 8.59375 42.28125 12.203125 53.3125 
Q 15.828125 64.359375 23.1875 75.875 
z
" id="DejaVuSans-40"/>
      <path d="M 18.109375 8.203125 
L 18.109375 -20.796875 
L 9.078125 -20.796875 
L 9.078125 54.6875 
L 18.109375 54.6875 
L 18.109375 46.390625 
Q 20.953125 51.265625 25.265625 53.625 
Q 29.59375 56 35.59375 56 
Q 45.5625 56 51.78125 48.09375 
Q 58.015625 40.1875 58.015625 27.296875 
Q 58.015625 14.40625 51.78125 6.484375 
Q 45.5625 -1.421875 35.59375 -1.421875 
Q 29.59375 -1.421875 25.265625 0.953125 
Q 20.953125 3.328125 18.109375 8.203125 
z
M 48.6875 27.296875 
Q 48.6875 37.203125 44.609375 42.84375 
Q 40.53125 48.484375 33.40625 48.484375 
Q 26.265625 48.484375 22.1875 42.84375 
Q 18.109375 37.203125 18.109375 27.296875 
Q 18.109375 17.390625 22.1875 11.75 
Q 26.265625 6.109375 33.40625 6.109375 
Q 40.53125 6.109375 44.609375 11.75 
Q 48.6875 17.390625 48.6875 27.296875 
z
" id="DejaVuSans-112"/>
      <path d="M 54.890625 33.015625 
L 54.890625 0 
L 45.90625 0 
L 45.90625 32.71875 
Q 45.90625 40.484375 42.875 44.328125 
Q 39.84375 48.1875 33.796875 48.1875 
Q 26.515625 48.1875 22.3125 43.546875 
Q 18.109375 38.921875 18.109375 30.90625 
L 18.109375 0 
L 9.078125 0 
L 9.078125 75.984375 
L 18.109375 75.984375 
L 18.109375 46.1875 
Q 21.34375 51.125 25.703125 53.5625 
Q 30.078125 56 35.796875 56 
Q 45.21875 56 50.046875 50.171875 
Q 54.890625 44.34375 54.890625 33.015625 
z
" id="DejaVuSans-104"/>
      <path d="M 8.015625 75.875 
L 15.828125 75.875 
Q 23.140625 64.359375 26.78125 53.3125 
Q 30.421875 42.28125 30.421875 31.390625 
Q 30.421875 20.453125 26.78125 9.375 
Q 23.140625 -1.703125 15.828125 -13.1875 
L 8.015625 -13.1875 
Q 14.5 -2 17.703125 9.0625 
Q 20.90625 20.125 20.90625 31.390625 
Q 20.90625 42.671875 17.703125 53.65625 
Q 14.5 64.65625 8.015625 75.875 
z
" id="DejaVuSans-41"/>
     </defs>
     <g transform="translate(154.07025 352.648)scale(0.16 -0.16)">
      <use xlink:href="#DejaVuSans-32"/>
      <use x="31.787109" xlink:href="#DejaVuSans-40"/>
      <use x="70.800781" xlink:href="#DejaVuSans-109"/>
      <use x="168.212891" xlink:href="#DejaVuSans-111"/>
      <use x="229.394531" xlink:href="#DejaVuSans-114"/>
      <use x="270.507812" xlink:href="#DejaVuSans-112"/>
      <use x="333.984375" xlink:href="#DejaVuSans-104"/>
      <use x="397.363281" xlink:href="#DejaVuSans-32"/>
      <use x="429.150391" xlink:href="#DejaVuSans-117"/>
      <use x="492.529297" xlink:href="#DejaVuSans-110"/>
      <use x="555.908203" xlink:href="#DejaVuSans-105"/>
      <use x="583.691406" xlink:href="#DejaVuSans-116"/>
      <use x="622.900391" xlink:href="#DejaVuSans-115"/>
      <use x="675" xlink:href="#DejaVuSans-41"/>
     </g>
    </g>
   </g>
   <g id="matplotlib.axis_2">
    <g id="ytick_1">
     <g id="line2d_8">
      <defs>
       <path d="M 0 0 
L 6 0 
" id="m22610b4bb2" style="stroke:#000000;stroke-width:2;"/>
      </defs>
      <g>
       <use style="stroke:#000000;stroke-width:2;" x="71.689" xlink:href="#m22610b4bb2" y="299.589"/>
      </g>
     </g>
     <g id="text_9">
      <!-- −3 -->
      <defs>
       <path d="M 10.59375 35.5 
L 73.1875 35.5 
L 73.1875 27.203125 
L 10.59375 27.203125 
z
" id="DejaVuSans-8722"/>
      </defs>
      <g transform="translate(44.6015 305.66775)scale(0.16 -0.16)">
       <use xlink:href="#DejaVuSans-8722"/>
       <use x="83.789062" xlink:href="#DejaVuSans-51"/>
      </g>
     </g>
    </g>
    <g id="ytick_2">
     <g id="line2d_9">
      <g>
       <use style="stroke:#000000;stroke-width:2;" x="71.689" xlink:href="#m22610b4bb2" y="254.289"/>
      </g>
     </g>
     <g id="text_10">
      <!-- −2 -->
      <g transform="translate(44.6015 260.36775)scale(0.16 -0.16)">
       <use xlink:href="#DejaVuSans-8722"/>
       <use x="83.789062" xlink:href="#DejaVuSans-50"/>
      </g>
     </g>
    </g>
    <g id="ytick_3">
     <g id="line2d_10">
      <g>
       <use style="stroke:#000000;stroke-width:2;" x="71.689" xlink:href="#m22610b4bb2" y="208.989"/>
      </g>
     </g>
     <g id="text_11">
      <!-- −1 -->
      <defs>
       <path d="M 12.40625 8.296875 
L 28.515625 8.296875 
L 28.515625 63.921875 
L 10.984375 60.40625 
L 10.984375 69.390625 
L 28.421875 72.90625 
L 38.28125 72.90625 
L 38.28125 8.296875 
L 54.390625 8.296875 
L 54.390625 0 
L 12.40625 0 
z
" id="DejaVuSans-49"/>
      </defs>
      <g transform="translate(44.6015 215.06775)scale(0.16 -0.16)">
       <use xlink:href="#DejaVuSans-8722"/>
       <use x="83.789062" xlink:href="#DejaVuSans-49"/>
      </g>
     </g>
    </g>
    <g id="ytick_4">
     <g id="line2d_11">
      <g>
       <use style="stroke:#000000;stroke-width:2;" x="71.689" xlink:href="#m22610b4bb2" y="163.689"/>
      </g>
     </g>
     <g id="text_12">
      <!-- 0 -->
      <g transform="translate(58.009 169.76775)scale(0.16 -0.16)">
       <use xlink:href="#DejaVuSans-48"/>
      </g>
     </g>
    </g>
    <g id="ytick_5">
     <g id="line2d_12">
      <g>
       <use style="stroke:#000000;stroke-width:2;" x="71.689" xlink:href="#m22610b4bb2" y="118.389"/>
      </g>
     </g>
     <g id="text_13">
      <!-- 1 -->
      <g transform="translate(58.009 124.46775)scale(0.16 -0.16)">
       <use xlink:href="#DejaVuSans-49"/>
      </g>
     </g>
    </g>
    <g id="ytick_6">
     <g id="line2d_13">
      <g>
       <use style="stroke:#000000;stroke-width:2;" x="71.689" xlink:href="#m22610b4bb2" y="73.089"/>
      </g>
     </g>
     <g id="text_14">
      <!-- 2 -->
      <g transform="translate(58.009 79.16775)scale(0.16 -0.16)">
       <use xlink:href="#DejaVuSans-50"/>
      </g>
     </g>
    </g>
    <g id="ytick_7">
     <g id="line2d_14">
      <g>
       <use style="stroke:#000000;stroke-width:2;" x="71.689" xlink:href="#m22610b4bb2" y="27.789"/>
      </g>
     </g>
     <g id="text_15">
      <!-- 3 -->
      <g transform="translate(58.009 33.86775)scale(0.16 -0.16)">
       <use xlink:href="#DejaVuSans-51"/>
      </g>
     </g>
    </g>
    <g id="text_16">
     <!-- Response Error on Current Trial -->
     <defs>
      <path d="M 44.390625 34.1875 
Q 47.5625 33.109375 50.5625 29.59375 
Q 53.5625 26.078125 56.59375 19.921875 
L 66.609375 0 
L 56 0 
L 46.6875 18.703125 
Q 43.0625 26.03125 39.671875 28.421875 
Q 36.28125 30.8125 30.421875 30.8125 
L 19.671875 30.8125 
L 19.671875 0 
L 9.8125 0 
L 9.8125 72.90625 
L 32.078125 72.90625 
Q 44.578125 72.90625 50.734375 67.671875 
Q 56.890625 62.453125 56.890625 51.90625 
Q 56.890625 45.015625 53.6875 40.46875 
Q 50.484375 35.9375 44.390625 34.1875 
z
M 19.671875 64.796875 
L 19.671875 38.921875 
L 32.078125 38.921875 
Q 39.203125 38.921875 42.84375 42.21875 
Q 46.484375 45.515625 46.484375 51.90625 
Q 46.484375 58.296875 42.84375 61.546875 
Q 39.203125 64.796875 32.078125 64.796875 
z
" id="DejaVuSans-82"/>
      <path d="M 9.8125 72.90625 
L 55.90625 72.90625 
L 55.90625 64.59375 
L 19.671875 64.59375 
L 19.671875 43.015625 
L 54.390625 43.015625 
L 54.390625 34.71875 
L 19.671875 34.71875 
L 19.671875 8.296875 
L 56.78125 8.296875 
L 56.78125 0 
L 9.8125 0 
z
" id="DejaVuSans-69"/>
      <path d="M 34.28125 27.484375 
Q 23.390625 27.484375 19.1875 25 
Q 14.984375 22.515625 14.984375 16.5 
Q 14.984375 11.71875 18.140625 8.90625 
Q 21.296875 6.109375 26.703125 6.109375 
Q 34.1875 6.109375 38.703125 11.40625 
Q 43.21875 16.703125 43.21875 25.484375 
L 43.21875 27.484375 
z
M 52.203125 31.203125 
L 52.203125 0 
L 43.21875 0 
L 43.21875 8.296875 
Q 40.140625 3.328125 35.546875 0.953125 
Q 30.953125 -1.421875 24.3125 -1.421875 
Q 15.921875 -1.421875 10.953125 3.296875 
Q 6 8.015625 6 15.921875 
Q 6 25.140625 12.171875 29.828125 
Q 18.359375 34.515625 30.609375 34.515625 
L 43.21875 34.515625 
L 43.21875 35.40625 
Q 43.21875 41.609375 39.140625 45 
Q 35.0625 48.390625 27.6875 48.390625 
Q 23 48.390625 18.546875 47.265625 
Q 14.109375 46.140625 10.015625 43.890625 
L 10.015625 52.203125 
Q 14.9375 54.109375 19.578125 55.046875 
Q 24.21875 56 28.609375 56 
Q 40.484375 56 46.34375 49.84375 
Q 52.203125 43.703125 52.203125 31.203125 
z
" id="DejaVuSans-97"/>
      <path d="M 9.421875 75.984375 
L 18.40625 75.984375 
L 18.40625 0 
L 9.421875 0 
z
" id="DejaVuSans-108"/>
     </defs>
     <g transform="translate(19.3575 290.27775)rotate(-90)scale(0.16 -0.16)">
      <use xlink:href="#DejaVuSans-82"/>
      <use x="69.419922" xlink:href="#DejaVuSans-101"/>
      <use x="130.943359" xlink:href="#DejaVuSans-115"/>
      <use x="183.042969" xlink:href="#DejaVuSans-112"/>
      <use x="246.519531" xlink:href="#DejaVuSans-111"/>
      <use x="307.701172" xlink:href="#DejaVuSans-110"/>
      <use x="371.080078" xlink:href="#DejaVuSans-115"/>
      <use x="423.179688" xlink:href="#DejaVuSans-101"/>
      <use x="484.703125" xlink:href="#DejaVuSans-32"/>
      <use x="516.490234" xlink:href="#DejaVuSans-69"/>
      <use x="579.673828" xlink:href="#DejaVuSans-114"/>
      <use x="620.771484" xlink:href="#DejaVuSans-114"/>
      <use x="661.853516" xlink:href="#DejaVuSans-111"/>
      <use x="723.035156" xlink:href="#DejaVuSans-114"/>
      <use x="764.148438" xlink:href="#DejaVuSans-32"/>
      <use x="795.935547" xlink:href="#DejaVuSans-111"/>
      <use x="857.117188" xlink:href="#DejaVuSans-110"/>
      <use x="920.496094" xlink:href="#DejaVuSans-32"/>
      <use x="952.283203" xlink:href="#DejaVuSans-67"/>
      <use x="1022.107422" xlink:href="#DejaVuSans-117"/>
      <use x="1085.486328" xlink:href="#DejaVuSans-114"/>
      <use x="1126.583984" xlink:href="#DejaVuSans-114"/>
      <use x="1167.666016" xlink:href="#DejaVuSans-101"/>
      <use x="1229.189453" xlink:href="#DejaVuSans-110"/>
      <use x="1292.568359" xlink:href="#DejaVuSans-116"/>
      <use x="1331.777344" xlink:href="#DejaVuSans-32"/>
      <use x="1363.564453" xlink:href="#DejaVuSans-84"/>
      <use x="1424.429688" xlink:href="#DejaVuSans-114"/>
      <use x="1465.542969" xlink:href="#DejaVuSans-105"/>
      <use x="1493.326172" xlink:href="#DejaVuSans-97"/>
      <use x="1554.605469" xlink:href="#DejaVuSans-108"/>
     </g>
     <!--  (morph units) -->
     <g transform="translate(37.274 220.80775)rotate(-90)scale(0.16 -0.16)">
      <use xlink:href="#DejaVuSans-32"/>
      <use x="31.787109" xlink:href="#DejaVuSans-40"/>
      <use x="70.800781" xlink:href="#DejaVuSans-109"/>
      <use x="168.212891" xlink:href="#DejaVuSans-111"/>
      <use x="229.394531" xlink:href="#DejaVuSans-114"/>
      <use x="270.507812" xlink:href="#DejaVuSans-112"/>
      <use x="333.984375" xlink:href="#DejaVuSans-104"/>
      <use x="397.363281" xlink:href="#DejaVuSans-32"/>
      <use x="429.150391" xlink:href="#DejaVuSans-117"/>
      <use x="492.529297" xlink:href="#DejaVuSans-110"/>
      <use x="555.908203" xlink:href="#DejaVuSans-105"/>
      <use x="583.691406" xlink:href="#DejaVuSans-116"/>
      <use x="622.900391" xlink:href="#DejaVuSans-115"/>
      <use x="675" xlink:href="#DejaVuSans-41"/>
     </g>
    </g>
   </g>
   <g id="line2d_15">
    <path clip-path="url(#p0a0b6d6139)" d="M 71.689 149.020539 
L 73.599959 139.163759 
L 75.510918 144.567232 
L 77.421877 143.945896 
L 79.332836 153.607327 
L 81.243795 153.212306 
L 83.154753 157.800103 
L 85.065712 157.378898 
L 86.976671 160.14292 
L 90.798589 149.340499 
L 92.709548 138.231177 
L 94.620507 143.127652 
L 96.531466 145.656187 
L 98.442425 132.433477 
L 100.353384 136.83248 
L 102.264342 138.048092 
L 104.175301 136.921988 
L 106.08626 141.034766 
L 107.997219 143.375854 
L 109.908178 142.159382 
L 111.819137 143.283055 
L 113.730096 155.34335 
L 115.641055 148.361351 
L 117.552014 154.876103 
L 119.462973 164.552351 
L 121.373932 158.569674 
L 123.28489 164.927575 
L 125.195849 169.272116 
L 127.106808 173.129207 
L 129.017767 165.693021 
L 130.928726 176.103135 
L 132.839685 174.230912 
L 134.750644 168.709004 
L 136.661603 171.984933 
L 138.572562 168.029514 
L 140.483521 170.685151 
L 142.394479 173.955706 
L 144.305438 169.204653 
L 146.216397 170.887662 
L 148.127356 171.631061 
L 150.038315 175.631661 
L 151.949274 182.878037 
L 153.860233 185.016235 
L 155.771192 188.219713 
L 157.682151 195.796259 
L 159.59311 192.00237 
L 161.504068 191.102606 
L 163.415027 191.72069 
L 165.325986 193.042602 
L 167.236945 195.690209 
L 169.147904 198.935887 
L 171.058863 196.122882 
L 172.969822 191.330587 
L 174.880781 188.6508 
L 176.79174 176.720667 
L 178.702699 175.898327 
L 180.613658 178.387621 
L 182.524616 172.276018 
L 184.435575 168.68444 
L 186.346534 165.896586 
L 188.257493 169.586813 
L 190.168452 156.438482 
L 192.079411 152.857902 
L 193.99037 166.331752 
L 195.901329 161.694264 
L 197.812288 162.44851 
L 199.723247 158.194708 
L 201.634205 157.001791 
L 203.545164 163.706621 
L 205.456123 160.15908 
L 207.367082 161.831147 
L 209.278041 160.459378 
L 211.189 154.475927 
L 213.099959 144.980563 
L 215.010918 147.600819 
L 218.832836 158.120007 
L 220.743795 166.32713 
L 222.654753 158.439976 
L 224.565712 154.133435 
L 226.476671 151.068694 
L 228.38763 155.800775 
L 230.298589 158.533394 
L 232.209548 154.684264 
L 234.120507 159.198702 
L 236.031466 153.036831 
L 237.942425 143.430638 
L 241.764342 145.385225 
L 243.675301 141.569166 
L 245.58626 141.622369 
L 247.497219 139.014495 
L 249.408178 141.379308 
L 251.319137 144.67677 
L 253.230096 140.765275 
L 255.141055 136.383185 
L 257.052014 135.914601 
L 258.962973 122.54711 
L 260.873932 117.173951 
L 262.78489 108.982656 
L 264.695849 103.696494 
L 266.606808 107.117448 
L 268.517767 109.063604 
L 270.428726 115.19666 
L 272.339685 121.792424 
L 274.250644 112.103303 
L 276.161603 113.699618 
L 278.072562 112.711637 
L 279.983521 109.532302 
L 281.894479 116.473386 
L 283.805438 112.824353 
L 285.716397 114.198497 
L 287.627356 113.864032 
L 289.538315 112.530869 
L 291.449274 122.880407 
L 293.360233 121.820332 
L 295.271192 147.258261 
L 297.182151 146.623095 
L 299.09311 143.594683 
L 301.004068 140.035563 
L 302.915027 141.342695 
L 304.825986 134.046726 
L 306.736945 137.413148 
L 308.647904 138.044422 
L 310.558863 142.480499 
L 312.469822 141.503947 
L 314.380781 154.952203 
L 316.29174 152.067833 
L 318.202699 155.550857 
L 320.113658 167.389363 
L 322.024616 170.749864 
L 323.935575 176.032916 
L 325.846534 174.403477 
L 327.757493 169.833662 
L 329.668452 168.542593 
L 331.579411 157.897134 
L 333.49037 166.991095 
L 335.401329 151.160929 
L 337.312288 154.23443 
L 339.223247 151.246441 
L 341.134205 143.373248 
L 343.045164 147.757836 
L 346.867082 147.728859 
L 350.689 149.020539 
L 350.689 149.020539 
" style="fill:none;stroke:#00008b;stroke-linecap:square;stroke-width:1.5;"/>
   </g>
   <g id="line2d_16">
    <path clip-path="url(#p0a0b6d6139)" d="M 71.689 163.689 
L 90.798589 164.264377 
L 100.353384 164.728589 
L 107.997219 165.282981 
L 115.641055 166.092145 
L 121.373932 166.931866 
L 127.106808 168.02825 
L 132.839685 169.427831 
L 138.572562 171.155446 
L 144.305438 173.188531 
L 159.59311 178.973191 
L 163.415027 180.025516 
L 165.325986 180.411478 
L 167.236945 180.683898 
L 169.147904 180.829413 
L 171.058863 180.836864 
L 172.969822 180.698016 
L 174.880781 180.408215 
L 176.79174 179.966951 
L 178.702699 179.378266 
L 180.613658 178.650948 
L 184.435575 176.838667 
L 188.257493 174.685989 
L 195.901329 170.156067 
L 199.723247 168.138984 
L 203.545164 166.417929 
L 207.367082 164.971554 
L 218.832836 160.960071 
L 222.654753 159.239016 
L 226.476671 157.221933 
L 232.209548 153.834642 
L 236.031466 151.584933 
L 239.853384 149.579527 
L 241.764342 148.727052 
L 243.675301 147.999734 
L 245.58626 147.411049 
L 247.497219 146.969785 
L 249.408178 146.679984 
L 251.319137 146.541136 
L 253.230096 146.548587 
L 255.141055 146.694102 
L 257.052014 146.966522 
L 260.873932 147.837135 
L 264.695849 149.039645 
L 270.428726 151.195968 
L 279.983521 154.896797 
L 285.716397 156.834797 
L 291.449274 158.452608 
L 297.182151 159.746851 
L 302.915027 160.752001 
L 308.647904 161.517707 
L 316.29174 162.253692 
L 323.935575 162.758881 
L 335.401329 163.253533 
L 350.689 163.689 
L 350.689 163.689 
" style="fill:none;stroke:#006400;stroke-linecap:square;stroke-width:1.5;"/>
   </g>
   <g id="patch_3">
    <path d="M 71.689 299.589 
L 71.689 27.789 
" style="fill:none;stroke:#000000;stroke-linecap:square;stroke-linejoin:miter;stroke-width:2;"/>
   </g>
   <g id="patch_4">
    <path d="M 71.689 299.589 
L 350.689 299.589 
" style="fill:none;stroke:#000000;stroke-linecap:square;stroke-linejoin:miter;stroke-width:2;"/>
   </g>
   <g id="text_17">
    <!-- 2Trials-Forward Radiologists, Step = 30 -->
    <defs>
     <path d="M 9.8125 72.90625 
L 51.703125 72.90625 
L 51.703125 64.59375 
L 19.671875 64.59375 
L 19.671875 43.109375 
L 48.578125 43.109375 
L 48.578125 34.8125 
L 19.671875 34.8125 
L 19.671875 0 
L 9.8125 0 
z
" id="DejaVuSans-70"/>
     <path d="M 4.203125 54.6875 
L 13.1875 54.6875 
L 24.421875 12.015625 
L 35.59375 54.6875 
L 46.1875 54.6875 
L 57.421875 12.015625 
L 68.609375 54.6875 
L 77.59375 54.6875 
L 63.28125 0 
L 52.6875 0 
L 40.921875 44.828125 
L 29.109375 0 
L 18.5 0 
z
" id="DejaVuSans-119"/>
     <path d="M 45.40625 46.390625 
L 45.40625 75.984375 
L 54.390625 75.984375 
L 54.390625 0 
L 45.40625 0 
L 45.40625 8.203125 
Q 42.578125 3.328125 38.25 0.953125 
Q 33.9375 -1.421875 27.875 -1.421875 
Q 17.96875 -1.421875 11.734375 6.484375 
Q 5.515625 14.40625 5.515625 27.296875 
Q 5.515625 40.1875 11.734375 48.09375 
Q 17.96875 56 27.875 56 
Q 33.9375 56 38.25 53.625 
Q 42.578125 51.265625 45.40625 46.390625 
z
M 14.796875 27.296875 
Q 14.796875 17.390625 18.875 11.75 
Q 22.953125 6.109375 30.078125 6.109375 
Q 37.203125 6.109375 41.296875 11.75 
Q 45.40625 17.390625 45.40625 27.296875 
Q 45.40625 37.203125 41.296875 42.84375 
Q 37.203125 48.484375 30.078125 48.484375 
Q 22.953125 48.484375 18.875 42.84375 
Q 14.796875 37.203125 14.796875 27.296875 
z
" id="DejaVuSans-100"/>
     <path d="M 45.40625 27.984375 
Q 45.40625 37.75 41.375 43.109375 
Q 37.359375 48.484375 30.078125 48.484375 
Q 22.859375 48.484375 18.828125 43.109375 
Q 14.796875 37.75 14.796875 27.984375 
Q 14.796875 18.265625 18.828125 12.890625 
Q 22.859375 7.515625 30.078125 7.515625 
Q 37.359375 7.515625 41.375 12.890625 
Q 45.40625 18.265625 45.40625 27.984375 
z
M 54.390625 6.78125 
Q 54.390625 -7.171875 48.1875 -13.984375 
Q 42 -20.796875 29.203125 -20.796875 
Q 24.46875 -20.796875 20.265625 -20.09375 
Q 16.0625 -19.390625 12.109375 -17.921875 
L 12.109375 -9.1875 
Q 16.0625 -11.328125 19.921875 -12.34375 
Q 23.78125 -13.375 27.78125 -13.375 
Q 36.625 -13.375 41.015625 -8.765625 
Q 45.40625 -4.15625 45.40625 5.171875 
L 45.40625 9.625 
Q 42.625 4.78125 38.28125 2.390625 
Q 33.9375 0 27.875 0 
Q 17.828125 0 11.671875 7.65625 
Q 5.515625 15.328125 5.515625 27.984375 
Q 5.515625 40.671875 11.671875 48.328125 
Q 17.828125 56 27.875 56 
Q 33.9375 56 38.28125 53.609375 
Q 42.625 51.21875 45.40625 46.390625 
L 45.40625 54.6875 
L 54.390625 54.6875 
z
" id="DejaVuSans-103"/>
     <path d="M 11.71875 12.40625 
L 22.015625 12.40625 
L 22.015625 4 
L 14.015625 -11.625 
L 7.71875 -11.625 
L 11.71875 4 
z
" id="DejaVuSans-44"/>
     <path d="M 53.515625 70.515625 
L 53.515625 60.890625 
Q 47.90625 63.578125 42.921875 64.890625 
Q 37.9375 66.21875 33.296875 66.21875 
Q 25.25 66.21875 20.875 63.09375 
Q 16.5 59.96875 16.5 54.203125 
Q 16.5 49.359375 19.40625 46.890625 
Q 22.3125 44.4375 30.421875 42.921875 
L 36.375 41.703125 
Q 47.40625 39.59375 52.65625 34.296875 
Q 57.90625 29 57.90625 20.125 
Q 57.90625 9.515625 50.796875 4.046875 
Q 43.703125 -1.421875 29.984375 -1.421875 
Q 24.8125 -1.421875 18.96875 -0.25 
Q 13.140625 0.921875 6.890625 3.21875 
L 6.890625 13.375 
Q 12.890625 10.015625 18.65625 8.296875 
Q 24.421875 6.59375 29.984375 6.59375 
Q 38.421875 6.59375 43.015625 9.90625 
Q 47.609375 13.234375 47.609375 19.390625 
Q 47.609375 24.75 44.3125 27.78125 
Q 41.015625 30.8125 33.5 32.328125 
L 27.484375 33.5 
Q 16.453125 35.6875 11.515625 40.375 
Q 6.59375 45.0625 6.59375 53.421875 
Q 6.59375 63.09375 13.40625 68.65625 
Q 20.21875 74.21875 32.171875 74.21875 
Q 37.3125 74.21875 42.625 73.28125 
Q 47.953125 72.359375 53.515625 70.515625 
z
" id="DejaVuSans-83"/>
     <path d="M 10.59375 45.40625 
L 73.1875 45.40625 
L 73.1875 37.203125 
L 10.59375 37.203125 
z
M 10.59375 25.484375 
L 73.1875 25.484375 
L 73.1875 17.1875 
L 10.59375 17.1875 
z
" id="DejaVuSans-61"/>
    </defs>
    <g transform="translate(20.8705 21.789)scale(0.192 -0.192)">
     <use xlink:href="#DejaVuSans-50"/>
     <use x="63.623047" xlink:href="#DejaVuSans-84"/>
     <use x="124.488281" xlink:href="#DejaVuSans-114"/>
     <use x="165.601562" xlink:href="#DejaVuSans-105"/>
     <use x="193.384766" xlink:href="#DejaVuSans-97"/>
     <use x="254.664062" xlink:href="#DejaVuSans-108"/>
     <use x="282.447266" xlink:href="#DejaVuSans-115"/>
     <use x="334.546875" xlink:href="#DejaVuSans-45"/>
     <use x="370.630859" xlink:href="#DejaVuSans-70"/>
     <use x="428.103516" xlink:href="#DejaVuSans-111"/>
     <use x="489.285156" xlink:href="#DejaVuSans-114"/>
     <use x="530.398438" xlink:href="#DejaVuSans-119"/>
     <use x="612.185547" xlink:href="#DejaVuSans-97"/>
     <use x="673.464844" xlink:href="#DejaVuSans-114"/>
     <use x="714.5625" xlink:href="#DejaVuSans-100"/>
     <use x="778.039062" xlink:href="#DejaVuSans-32"/>
     <use x="809.826172" xlink:href="#DejaVuSans-82"/>
     <use x="879.277344" xlink:href="#DejaVuSans-97"/>
     <use x="940.556641" xlink:href="#DejaVuSans-100"/>
     <use x="1004.033203" xlink:href="#DejaVuSans-105"/>
     <use x="1031.816406" xlink:href="#DejaVuSans-111"/>
     <use x="1092.998047" xlink:href="#DejaVuSans-108"/>
     <use x="1120.78125" xlink:href="#DejaVuSans-111"/>
     <use x="1181.962891" xlink:href="#DejaVuSans-103"/>
     <use x="1245.439453" xlink:href="#DejaVuSans-105"/>
     <use x="1273.222656" xlink:href="#DejaVuSans-115"/>
     <use x="1325.322266" xlink:href="#DejaVuSans-116"/>
     <use x="1364.53125" xlink:href="#DejaVuSans-115"/>
     <use x="1416.630859" xlink:href="#DejaVuSans-44"/>
     <use x="1448.417969" xlink:href="#DejaVuSans-32"/>
     <use x="1480.205078" xlink:href="#DejaVuSans-83"/>
     <use x="1543.681641" xlink:href="#DejaVuSans-116"/>
     <use x="1582.890625" xlink:href="#DejaVuSans-101"/>
     <use x="1644.414062" xlink:href="#DejaVuSans-112"/>
     <use x="1707.890625" xlink:href="#DejaVuSans-32"/>
     <use x="1739.677734" xlink:href="#DejaVuSans-61"/>
     <use x="1823.466797" xlink:href="#DejaVuSans-32"/>
     <use x="1855.253906" xlink:href="#DejaVuSans-51"/>
     <use x="1918.876953" xlink:href="#DejaVuSans-48"/>
    </g>
   </g>
  </g>
 </g>
 <defs>
  <clipPath id="p0a0b6d6139">
   <rect height="271.8" width="279" x="71.689" y="27.789"/>
  </clipPath>
 </defs>
</svg>
