<?xml version="1.0" encoding="utf-8" standalone="no"?>
<!DOCTYPE svg PUBLIC "-//W3C//DTD SVG 1.1//EN"
  "http://www.w3.org/Graphics/SVG/1.1/DTD/svg11.dtd">
<!-- Created with matplotlib (https://matplotlib.org/) -->
<svg height="363.1755pt" version="1.1" viewBox="0 0 408.7075 363.1755" width="408.7075pt" xmlns="http://www.w3.org/2000/svg" xmlns:xlink="http://www.w3.org/1999/xlink">
 <defs>
  <style type="text/css">
*{stroke-linecap:butt;stroke-linejoin:round;}
  </style>
 </defs>
 <g id="figure_1">
  <g id="patch_1">
   <path d="M 0 363.1755 
L 408.7075 363.1755 
L 408.7075 0 
L 0 0 
z
" style="fill:#ffffff;"/>
  </g>
  <g id="axes_1">
   <g id="patch_2">
    <path d="M 71.689 299.589 
L 350.689 299.589 
L 350.689 27.789 
L 71.689 27.789 
z
" style="fill:#ffffff;"/>
   </g>
   <g id="PolyCollection_1">
    <defs>
     <path d="M 71.689 -233.440989 
L 71.689 -160.482041 
L 73.599959 -166.79433 
L 75.510918 -159.925904 
L 77.421877 -155.627141 
L 79.332836 -162.336475 
L 81.243795 -157.814663 
L 83.154753 -156.760656 
L 85.065712 -153.787927 
L 86.976671 -154.605822 
L 88.88763 -153.61542 
L 90.798589 -163.707682 
L 92.709548 -155.504712 
L 94.620507 -154.170997 
L 96.531466 -160.056836 
L 98.442425 -154.36394 
L 100.353384 -159.35898 
L 102.264342 -154.629084 
L 104.175301 -148.073394 
L 106.08626 -153.851037 
L 107.997219 -149.153919 
L 109.908178 -148.688806 
L 111.819137 -140.246863 
L 113.730096 -140.771392 
L 115.641055 -139.483171 
L 117.552014 -131.83432 
L 119.462973 -124.72075 
L 121.373932 -136.525311 
L 123.28489 -139.45104 
L 125.195849 -151.397248 
L 127.106808 -156.181167 
L 129.017767 -153.176162 
L 130.928726 -159.454807 
L 132.839685 -161.318995 
L 134.750644 -169.109297 
L 136.661603 -166.641282 
L 138.572562 -163.574817 
L 140.483521 -165.643937 
L 142.394479 -156.173103 
L 144.305438 -152.312515 
L 146.216397 -153.273457 
L 148.127356 -152.685085 
L 150.038315 -151.075929 
L 151.949274 -155.55969 
L 153.860233 -147.824296 
L 155.771192 -140.212897 
L 157.682151 -140.54741 
L 159.59311 -140.590229 
L 161.504068 -142.507924 
L 163.415027 -144.99963 
L 165.325986 -143.665467 
L 167.236945 -148.577736 
L 169.147904 -142.808111 
L 171.058863 -151.487936 
L 172.969822 -156.06398 
L 174.880781 -162.816406 
L 176.79174 -157.290649 
L 178.702699 -162.384965 
L 180.613658 -152.19722 
L 182.524616 -159.929221 
L 184.435575 -165.531325 
L 186.346534 -170.681712 
L 188.257493 -176.809359 
L 190.168452 -176.652931 
L 192.079411 -178.307091 
L 193.99037 -172.043941 
L 195.901329 -179.646375 
L 197.812288 -178.740198 
L 199.723247 -180.781809 
L 201.634205 -189.566889 
L 203.545164 -193.355908 
L 205.456123 -193.251091 
L 207.367082 -189.837773 
L 209.278041 -184.362376 
L 211.189 -182.039696 
L 213.099959 -181.065835 
L 215.010918 -173.812109 
L 216.921877 -173.783436 
L 218.832836 -166.950767 
L 220.743795 -160.141006 
L 222.654753 -173.484317 
L 224.565712 -179.887659 
L 226.476671 -188.649738 
L 228.38763 -190.398613 
L 230.298589 -197.703003 
L 232.209548 -191.158408 
L 234.120507 -192.94484 
L 236.031466 -202.403271 
L 237.942425 -193.135319 
L 239.853384 -196.153437 
L 241.764342 -196.352677 
L 243.675301 -184.432565 
L 245.58626 -179.180156 
L 247.497219 -191.047498 
L 249.408178 -174.099542 
L 251.319137 -169.03182 
L 253.230096 -167.330109 
L 255.141055 -164.819358 
L 257.052014 -166.858824 
L 258.962973 -164.388593 
L 260.873932 -162.444022 
L 262.78489 -165.166196 
L 264.695849 -165.56978 
L 266.606808 -172.01338 
L 268.517767 -175.163153 
L 270.428726 -177.316961 
L 272.339685 -192.07298 
L 274.250644 -206.846322 
L 276.161603 -212.686874 
L 278.072562 -217.127404 
L 279.983521 -227.497526 
L 281.894479 -210.782159 
L 283.805438 -211.974116 
L 285.716397 -209.751361 
L 287.627356 -217.566851 
L 289.538315 -205.831852 
L 291.449274 -205.639439 
L 293.360233 -204.022709 
L 295.271192 -203.491154 
L 297.182151 -209.671596 
L 299.09311 -205.992273 
L 301.004068 -203.325209 
L 302.915027 -207.344378 
L 304.825986 -211.227967 
L 306.736945 -205.887752 
L 308.647904 -211.684528 
L 310.558863 -209.357957 
L 312.469822 -205.299577 
L 314.380781 -208.269969 
L 316.29174 -209.289678 
L 318.202699 -201.490349 
L 320.113658 -206.063984 
L 322.024616 -205.921476 
L 323.935575 -210.602069 
L 325.846534 -208.232017 
L 327.757493 -208.912345 
L 329.668452 -209.163088 
L 331.579411 -204.87877 
L 333.49037 -202.941666 
L 335.401329 -201.906822 
L 337.312288 -197.220208 
L 339.223247 -198.626408 
L 341.134205 -209.48628 
L 343.045164 -197.924163 
L 344.956123 -188.749232 
L 346.867082 -177.365544 
L 348.778041 -171.807678 
L 350.689 -160.482041 
L 350.689 -233.440989 
L 350.689 -233.440989 
L 348.778041 -243.435925 
L 346.867082 -243.988547 
L 344.956123 -256.982649 
L 343.045164 -265.31995 
L 341.134205 -277.966072 
L 339.223247 -268.266156 
L 337.312288 -263.16516 
L 335.401329 -267.971399 
L 333.49037 -267.912947 
L 331.579411 -267.552832 
L 329.668452 -265.585574 
L 327.757493 -263.402322 
L 325.846534 -262.747901 
L 323.935575 -264.557446 
L 322.024616 -265.312098 
L 320.113658 -261.424283 
L 318.202699 -256.945044 
L 316.29174 -261.549016 
L 314.380781 -261.498931 
L 312.469822 -253.253947 
L 310.558863 -257.406185 
L 308.647904 -258.458395 
L 306.736945 -256.366588 
L 304.825986 -254.711848 
L 302.915027 -250.168913 
L 301.004068 -247.118765 
L 299.09311 -246.532499 
L 297.182151 -247.32082 
L 295.271192 -239.145721 
L 293.360233 -240.78348 
L 291.449274 -242.74979 
L 289.538315 -240.77326 
L 287.627356 -251.064411 
L 285.716397 -246.61381 
L 283.805438 -251.215835 
L 281.894479 -254.421305 
L 279.983521 -272.303161 
L 278.072562 -267.151699 
L 276.161603 -259.911702 
L 274.250644 -258.147966 
L 272.339685 -250.215672 
L 270.428726 -249.792605 
L 268.517767 -248.759795 
L 266.606808 -248.212359 
L 264.695849 -245.823003 
L 262.78489 -246.482928 
L 260.873932 -242.215654 
L 258.962973 -237.58344 
L 257.052014 -236.359132 
L 255.141055 -238.629857 
L 253.230096 -241.37084 
L 251.319137 -241.265115 
L 249.408178 -238.107362 
L 247.497219 -246.012871 
L 245.58626 -240.555633 
L 243.675301 -244.067251 
L 241.764342 -254.554089 
L 239.853384 -256.965026 
L 237.942425 -254.120372 
L 236.031466 -262.049017 
L 234.120507 -263.747617 
L 232.209548 -259.795398 
L 230.298589 -267.429788 
L 228.38763 -260.247817 
L 226.476671 -259.05922 
L 224.565712 -247.831561 
L 222.654753 -242.434434 
L 220.743795 -229.181156 
L 218.832836 -231.516624 
L 216.921877 -238.364197 
L 215.010918 -246.801015 
L 213.099959 -252.537886 
L 211.189 -252.537275 
L 209.278041 -254.449819 
L 207.367082 -256.823704 
L 205.456123 -258.6081 
L 203.545164 -260.766941 
L 201.634205 -255.347557 
L 199.723247 -244.494998 
L 197.812288 -245.406904 
L 195.901329 -243.761974 
L 193.99037 -233.466585 
L 192.079411 -237.080024 
L 190.168452 -235.963404 
L 188.257493 -236.072376 
L 186.346534 -235.261862 
L 184.435575 -231.418113 
L 182.524616 -232.274176 
L 180.613658 -228.443982 
L 178.702699 -228.279862 
L 176.79174 -217.997066 
L 174.880781 -222.980747 
L 172.969822 -214.298577 
L 171.058863 -212.426709 
L 169.147904 -200.94305 
L 167.236945 -207.792486 
L 165.325986 -203.999215 
L 163.415027 -207.784711 
L 161.504068 -207.215361 
L 159.59311 -202.108923 
L 157.682151 -203.877903 
L 155.771192 -204.078657 
L 153.860233 -209.884634 
L 151.949274 -209.049211 
L 150.038315 -203.665173 
L 148.127356 -210.193894 
L 146.216397 -206.837406 
L 144.305438 -203.152811 
L 142.394479 -209.365315 
L 140.483521 -221.660108 
L 138.572562 -215.091907 
L 136.661603 -209.723488 
L 134.750644 -214.595681 
L 132.839685 -206.825396 
L 130.928726 -210.160698 
L 129.017767 -202.101917 
L 127.106808 -205.15852 
L 125.195849 -202.184663 
L 123.28489 -190.757763 
L 121.373932 -191.963861 
L 119.462973 -176.682656 
L 117.552014 -179.829971 
L 115.641055 -183.90133 
L 113.730096 -187.475719 
L 111.819137 -187.270792 
L 109.908178 -195.474967 
L 107.997219 -196.151275 
L 106.08626 -207.918297 
L 104.175301 -203.205641 
L 102.264342 -206.37491 
L 100.353384 -215.594497 
L 98.442425 -211.053357 
L 96.531466 -214.273743 
L 94.620507 -206.407303 
L 92.709548 -207.775364 
L 90.798589 -220.964673 
L 88.88763 -209.765702 
L 86.976671 -214.050223 
L 85.065712 -217.993658 
L 83.154753 -220.88954 
L 81.243795 -223.803061 
L 79.332836 -224.270912 
L 77.421877 -226.412895 
L 75.510918 -232.234382 
L 73.599959 -244.111901 
L 71.689 -233.440989 
z
" id="m865cc15b7c" style="stroke:#1e90ff;stroke-opacity:0.2;"/>
    </defs>
    <g clip-path="url(#p6decdf009f)">
     <use style="fill:#1e90ff;fill-opacity:0.2;stroke:#1e90ff;stroke-opacity:0.2;" x="0" xlink:href="#m865cc15b7c" y="363.1755"/>
    </g>
   </g>
   <g id="PolyCollection_2">
    <defs>
     <path d="M 71.689 -199.485892 
L 71.689 -199.347701 
L 73.599959 -199.27675 
L 75.510918 -199.203916 
L 77.421877 -199.12854 
L 79.332836 -199.049931 
L 81.243795 -198.967364 
L 83.154753 -198.880069 
L 85.065712 -198.787223 
L 86.976671 -198.687942 
L 88.88763 -198.581272 
L 90.798589 -198.46618 
L 92.709548 -198.34154 
L 94.620507 -198.206131 
L 96.531466 -198.058618 
L 98.442425 -197.897546 
L 100.353384 -197.721328 
L 102.264342 -197.528231 
L 104.175301 -197.316371 
L 106.08626 -197.083696 
L 107.997219 -196.82798 
L 109.908178 -196.546815 
L 111.819137 -196.2376 
L 113.730096 -195.897541 
L 115.641055 -195.523649 
L 117.552014 -195.112738 
L 119.462973 -194.661438 
L 121.373932 -194.166203 
L 123.28489 -193.623336 
L 125.195849 -193.029016 
L 127.106808 -192.379334 
L 129.017767 -191.67035 
L 130.928726 -190.898151 
L 132.839685 -190.05893 
L 134.750644 -189.149086 
L 136.661603 -188.165328 
L 138.572562 -187.104811 
L 140.483521 -185.965286 
L 142.394479 -184.745264 
L 144.305438 -183.444207 
L 146.216397 -182.062732 
L 148.127356 -180.602827 
L 150.038315 -179.06808 
L 151.949274 -177.463912 
L 153.860233 -175.797809 
L 155.771192 -174.079542 
L 157.682151 -172.321364 
L 159.59311 -170.538183 
L 161.504068 -168.747682 
L 163.415027 -166.970382 
L 165.325986 -165.229638 
L 167.236945 -163.551541 
L 169.147904 -161.964726 
L 171.058863 -160.50007 
L 172.969822 -159.190268 
L 174.880781 -158.069293 
L 176.79174 -157.171732 
L 178.702699 -156.532011 
L 180.613658 -156.183516 
L 182.524616 -156.157641 
L 184.435575 -156.482777 
L 186.346534 -157.183282 
L 188.257493 -158.278476 
L 190.168452 -159.781687 
L 192.079411 -161.699411 
L 193.99037 -164.030616 
L 195.901329 -166.766232 
L 197.812288 -169.888873 
L 199.723247 -173.372804 
L 201.634205 -177.184179 
L 203.545164 -181.281552 
L 205.456123 -185.61666 
L 207.367082 -190.135445 
L 209.278041 -194.779305 
L 211.189 -199.4865 
L 213.099959 -198.643012 
L 215.010918 -197.822952 
L 216.921877 -197.048657 
L 218.832836 -196.340349 
L 220.743795 -195.715255 
L 222.654753 -195.186919 
L 224.565712 -194.764744 
L 226.476671 -194.453781 
L 228.38763 -194.254775 
L 230.298589 -194.164435 
L 232.209548 -194.175903 
L 234.120507 -194.279374 
L 236.031466 -194.46281 
L 237.942425 -194.712703 
L 239.853384 -195.014824 
L 241.764342 -195.354923 
L 243.675301 -195.719334 
L 245.58626 -196.095475 
L 247.497219 -196.472215 
L 249.408178 -196.840112 
L 251.319137 -197.191535 
L 253.230096 -197.520666 
L 255.141055 -197.823424 
L 257.052014 -198.097312 
L 258.962973 -198.341216 
L 260.873932 -198.555185 
L 262.78489 -198.740189 
L 264.695849 -198.897898 
L 266.606808 -199.030464 
L 268.517767 -199.140336 
L 270.428726 -199.230102 
L 272.339685 -199.302358 
L 274.250644 -199.359614 
L 276.161603 -199.404219 
L 278.072562 -199.438317 
L 279.983521 -199.463823 
L 281.894479 -199.48241 
L 283.805438 -199.495514 
L 285.716397 -199.504347 
L 287.627356 -199.509914 
L 289.538315 -199.513035 
L 291.449274 -199.514369 
L 293.360233 -199.514435 
L 295.271192 -199.513638 
L 297.182151 -199.512284 
L 299.09311 -199.510602 
L 301.004068 -199.50876 
L 302.915027 -199.506874 
L 304.825986 -199.505025 
L 306.736945 -199.503263 
L 308.647904 -199.50162 
L 310.558863 -199.500109 
L 312.469822 -199.498736 
L 314.380781 -199.497497 
L 316.29174 -199.496384 
L 318.202699 -199.495387 
L 320.113658 -199.494495 
L 322.024616 -199.493696 
L 323.935575 -199.492979 
L 325.846534 -199.492332 
L 327.757493 -199.491746 
L 329.668452 -199.491212 
L 331.579411 -199.490722 
L 333.49037 -199.490269 
L 335.401329 -199.489848 
L 337.312288 -199.489452 
L 339.223247 -199.489078 
L 341.134205 -199.488722 
L 343.045164 -199.488381 
L 344.956123 -199.488051 
L 346.867082 -199.48773 
L 348.778041 -199.487417 
L 350.689 -199.487108 
L 350.689 -199.625299 
L 350.689 -199.625299 
L 348.778041 -199.69625 
L 346.867082 -199.769084 
L 344.956123 -199.84446 
L 343.045164 -199.923069 
L 341.134205 -200.005636 
L 339.223247 -200.092931 
L 337.312288 -200.185777 
L 335.401329 -200.285058 
L 333.49037 -200.391728 
L 331.579411 -200.50682 
L 329.668452 -200.63146 
L 327.757493 -200.766869 
L 325.846534 -200.914382 
L 323.935575 -201.075454 
L 322.024616 -201.251672 
L 320.113658 -201.444769 
L 318.202699 -201.656629 
L 316.29174 -201.889304 
L 314.380781 -202.14502 
L 312.469822 -202.426185 
L 310.558863 -202.7354 
L 308.647904 -203.075459 
L 306.736945 -203.449351 
L 304.825986 -203.860262 
L 302.915027 -204.311562 
L 301.004068 -204.806797 
L 299.09311 -205.349664 
L 297.182151 -205.943984 
L 295.271192 -206.593666 
L 293.360233 -207.30265 
L 291.449274 -208.074849 
L 289.538315 -208.91407 
L 287.627356 -209.823914 
L 285.716397 -210.807672 
L 283.805438 -211.868189 
L 281.894479 -213.007714 
L 279.983521 -214.227736 
L 278.072562 -215.528793 
L 276.161603 -216.910268 
L 274.250644 -218.370173 
L 272.339685 -219.90492 
L 270.428726 -221.509088 
L 268.517767 -223.175191 
L 266.606808 -224.893458 
L 264.695849 -226.651636 
L 262.78489 -228.434817 
L 260.873932 -230.225318 
L 258.962973 -232.002618 
L 257.052014 -233.743362 
L 255.141055 -235.421459 
L 253.230096 -237.008274 
L 251.319137 -238.47293 
L 249.408178 -239.782732 
L 247.497219 -240.903707 
L 245.58626 -241.801268 
L 243.675301 -242.440989 
L 241.764342 -242.789484 
L 239.853384 -242.815359 
L 237.942425 -242.490223 
L 236.031466 -241.789718 
L 234.120507 -240.694524 
L 232.209548 -239.191313 
L 230.298589 -237.273589 
L 228.38763 -234.942384 
L 226.476671 -232.206768 
L 224.565712 -229.084127 
L 222.654753 -225.600196 
L 220.743795 -221.788821 
L 218.832836 -217.691448 
L 216.921877 -213.35634 
L 215.010918 -208.837555 
L 213.099959 -204.193695 
L 211.189 -199.4865 
L 209.278041 -200.329988 
L 207.367082 -201.150048 
L 205.456123 -201.924343 
L 203.545164 -202.632651 
L 201.634205 -203.257745 
L 199.723247 -203.786081 
L 197.812288 -204.208256 
L 195.901329 -204.519219 
L 193.99037 -204.718225 
L 192.079411 -204.808565 
L 190.168452 -204.797097 
L 188.257493 -204.693626 
L 186.346534 -204.51019 
L 184.435575 -204.260297 
L 182.524616 -203.958176 
L 180.613658 -203.618077 
L 178.702699 -203.253666 
L 176.79174 -202.877525 
L 174.880781 -202.500785 
L 172.969822 -202.132888 
L 171.058863 -201.781465 
L 169.147904 -201.452334 
L 167.236945 -201.149576 
L 165.325986 -200.875688 
L 163.415027 -200.631784 
L 161.504068 -200.417815 
L 159.59311 -200.232811 
L 157.682151 -200.075102 
L 155.771192 -199.942536 
L 153.860233 -199.832664 
L 151.949274 -199.742898 
L 150.038315 -199.670642 
L 148.127356 -199.613386 
L 146.216397 -199.568781 
L 144.305438 -199.534683 
L 142.394479 -199.509177 
L 140.483521 -199.49059 
L 138.572562 -199.477486 
L 136.661603 -199.468653 
L 134.750644 -199.463086 
L 132.839685 -199.459965 
L 130.928726 -199.458631 
L 129.017767 -199.458565 
L 127.106808 -199.459362 
L 125.195849 -199.460716 
L 123.28489 -199.462398 
L 121.373932 -199.46424 
L 119.462973 -199.466126 
L 117.552014 -199.467975 
L 115.641055 -199.469737 
L 113.730096 -199.47138 
L 111.819137 -199.472891 
L 109.908178 -199.474264 
L 107.997219 -199.475503 
L 106.08626 -199.476616 
L 104.175301 -199.477613 
L 102.264342 -199.478505 
L 100.353384 -199.479304 
L 98.442425 -199.480021 
L 96.531466 -199.480668 
L 94.620507 -199.481254 
L 92.709548 -199.481788 
L 90.798589 -199.482278 
L 88.88763 -199.482731 
L 86.976671 -199.483152 
L 85.065712 -199.483548 
L 83.154753 -199.483922 
L 81.243795 -199.484278 
L 79.332836 -199.484619 
L 77.421877 -199.484949 
L 75.510918 -199.48527 
L 73.599959 -199.485583 
L 71.689 -199.485892 
z
" id="mf703950141" style="stroke:#006400;stroke-opacity:0.2;"/>
    </defs>
    <g clip-path="url(#p6decdf009f)">
     <use style="fill:#006400;fill-opacity:0.2;stroke:#006400;stroke-opacity:0.2;" x="0" xlink:href="#mf703950141" y="363.1755"/>
    </g>
   </g>
   <g id="matplotlib.axis_1">
    <g id="xtick_1">
     <g id="line2d_1">
      <defs>
       <path d="M 0 0 
L 0 -6 
" id="m4d748c2b02" style="stroke:#000000;stroke-width:2;"/>
      </defs>
      <g>
       <use style="stroke:#000000;stroke-width:2;" x="71.689" xlink:href="#m4d748c2b02" y="299.589"/>
      </g>
     </g>
     <g id="text_1">
      <!-- -73 -->
      <defs>
       <path d="M 4.890625 31.390625 
L 31.203125 31.390625 
L 31.203125 23.390625 
L 4.890625 23.390625 
z
" id="DejaVuSans-45"/>
       <path d="M 8.203125 72.90625 
L 55.078125 72.90625 
L 55.078125 68.703125 
L 28.609375 0 
L 18.3125 0 
L 43.21875 64.59375 
L 8.203125 64.59375 
z
" id="DejaVuSans-55"/>
       <path d="M 40.578125 39.3125 
Q 47.65625 37.796875 51.625 33 
Q 55.609375 28.21875 55.609375 21.1875 
Q 55.609375 10.40625 48.1875 4.484375 
Q 40.765625 -1.421875 27.09375 -1.421875 
Q 22.515625 -1.421875 17.65625 -0.515625 
Q 12.796875 0.390625 7.625 2.203125 
L 7.625 11.71875 
Q 11.71875 9.328125 16.59375 8.109375 
Q 21.484375 6.890625 26.8125 6.890625 
Q 36.078125 6.890625 40.9375 10.546875 
Q 45.796875 14.203125 45.796875 21.1875 
Q 45.796875 27.640625 41.28125 31.265625 
Q 36.765625 34.90625 28.71875 34.90625 
L 20.21875 34.90625 
L 20.21875 43.015625 
L 29.109375 43.015625 
Q 36.375 43.015625 40.234375 45.921875 
Q 44.09375 48.828125 44.09375 54.296875 
Q 44.09375 59.90625 40.109375 62.90625 
Q 36.140625 65.921875 28.71875 65.921875 
Q 24.65625 65.921875 20.015625 65.03125 
Q 15.375 64.15625 9.8125 62.3125 
L 9.8125 71.09375 
Q 15.4375 72.65625 20.34375 73.4375 
Q 25.25 74.21875 29.59375 74.21875 
Q 40.828125 74.21875 47.359375 69.109375 
Q 53.90625 64.015625 53.90625 55.328125 
Q 53.90625 49.265625 50.4375 45.09375 
Q 46.96875 40.921875 40.578125 39.3125 
z
" id="DejaVuSans-51"/>
      </defs>
      <g transform="translate(58.62275 315.2465)scale(0.16 -0.16)">
       <use xlink:href="#DejaVuSans-45"/>
       <use x="36.083984" xlink:href="#DejaVuSans-55"/>
       <use x="99.707031" xlink:href="#DejaVuSans-51"/>
      </g>
     </g>
    </g>
    <g id="xtick_2">
     <g id="line2d_2">
      <g>
       <use style="stroke:#000000;stroke-width:2;" x="115.641055" xlink:href="#m4d748c2b02" y="299.589"/>
      </g>
     </g>
     <g id="text_2">
      <!-- -50 -->
      <defs>
       <path d="M 10.796875 72.90625 
L 49.515625 72.90625 
L 49.515625 64.59375 
L 19.828125 64.59375 
L 19.828125 46.734375 
Q 21.96875 47.46875 24.109375 47.828125 
Q 26.265625 48.1875 28.421875 48.1875 
Q 40.625 48.1875 47.75 41.5 
Q 54.890625 34.8125 54.890625 23.390625 
Q 54.890625 11.625 47.5625 5.09375 
Q 40.234375 -1.421875 26.90625 -1.421875 
Q 22.3125 -1.421875 17.546875 -0.640625 
Q 12.796875 0.140625 7.71875 1.703125 
L 7.71875 11.625 
Q 12.109375 9.234375 16.796875 8.0625 
Q 21.484375 6.890625 26.703125 6.890625 
Q 35.15625 6.890625 40.078125 11.328125 
Q 45.015625 15.765625 45.015625 23.390625 
Q 45.015625 31 40.078125 35.4375 
Q 35.15625 39.890625 26.703125 39.890625 
Q 22.75 39.890625 18.8125 39.015625 
Q 14.890625 38.140625 10.796875 36.28125 
z
" id="DejaVuSans-53"/>
       <path d="M 31.78125 66.40625 
Q 24.171875 66.40625 20.328125 58.90625 
Q 16.5 51.421875 16.5 36.375 
Q 16.5 21.390625 20.328125 13.890625 
Q 24.171875 6.390625 31.78125 6.390625 
Q 39.453125 6.390625 43.28125 13.890625 
Q 47.125 21.390625 47.125 36.375 
Q 47.125 51.421875 43.28125 58.90625 
Q 39.453125 66.40625 31.78125 66.40625 
z
M 31.78125 74.21875 
Q 44.046875 74.21875 50.515625 64.515625 
Q 56.984375 54.828125 56.984375 36.375 
Q 56.984375 17.96875 50.515625 8.265625 
Q 44.046875 -1.421875 31.78125 -1.421875 
Q 19.53125 -1.421875 13.0625 8.265625 
Q 6.59375 17.96875 6.59375 36.375 
Q 6.59375 54.828125 13.0625 64.515625 
Q 19.53125 74.21875 31.78125 74.21875 
z
" id="DejaVuSans-48"/>
      </defs>
      <g transform="translate(102.574805 315.2465)scale(0.16 -0.16)">
       <use xlink:href="#DejaVuSans-45"/>
       <use x="36.083984" xlink:href="#DejaVuSans-53"/>
       <use x="99.707031" xlink:href="#DejaVuSans-48"/>
      </g>
     </g>
    </g>
    <g id="xtick_3">
     <g id="line2d_3">
      <g>
       <use style="stroke:#000000;stroke-width:2;" x="163.415027" xlink:href="#m4d748c2b02" y="299.589"/>
      </g>
     </g>
     <g id="text_3">
      <!-- -25 -->
      <defs>
       <path d="M 19.1875 8.296875 
L 53.609375 8.296875 
L 53.609375 0 
L 7.328125 0 
L 7.328125 8.296875 
Q 12.9375 14.109375 22.625 23.890625 
Q 32.328125 33.6875 34.8125 36.53125 
Q 39.546875 41.84375 41.421875 45.53125 
Q 43.3125 49.21875 43.3125 52.78125 
Q 43.3125 58.59375 39.234375 62.25 
Q 35.15625 65.921875 28.609375 65.921875 
Q 23.96875 65.921875 18.8125 64.3125 
Q 13.671875 62.703125 7.8125 59.421875 
L 7.8125 69.390625 
Q 13.765625 71.78125 18.9375 73 
Q 24.125 74.21875 28.421875 74.21875 
Q 39.75 74.21875 46.484375 68.546875 
Q 53.21875 62.890625 53.21875 53.421875 
Q 53.21875 48.921875 51.53125 44.890625 
Q 49.859375 40.875 45.40625 35.40625 
Q 44.1875 33.984375 37.640625 27.21875 
Q 31.109375 20.453125 19.1875 8.296875 
z
" id="DejaVuSans-50"/>
      </defs>
      <g transform="translate(150.348777 315.2465)scale(0.16 -0.16)">
       <use xlink:href="#DejaVuSans-45"/>
       <use x="36.083984" xlink:href="#DejaVuSans-50"/>
       <use x="99.707031" xlink:href="#DejaVuSans-53"/>
      </g>
     </g>
    </g>
    <g id="xtick_4">
     <g id="line2d_4">
      <g>
       <use style="stroke:#000000;stroke-width:2;" x="211.189" xlink:href="#m4d748c2b02" y="299.589"/>
      </g>
     </g>
     <g id="text_4">
      <!-- 0 -->
      <g transform="translate(206.099 315.2465)scale(0.16 -0.16)">
       <use xlink:href="#DejaVuSans-48"/>
      </g>
     </g>
    </g>
    <g id="xtick_5">
     <g id="line2d_5">
      <g>
       <use style="stroke:#000000;stroke-width:2;" x="258.962973" xlink:href="#m4d748c2b02" y="299.589"/>
      </g>
     </g>
     <g id="text_5">
      <!-- 25 -->
      <g transform="translate(248.782973 315.2465)scale(0.16 -0.16)">
       <use xlink:href="#DejaVuSans-50"/>
       <use x="63.623047" xlink:href="#DejaVuSans-53"/>
      </g>
     </g>
    </g>
    <g id="xtick_6">
     <g id="line2d_6">
      <g>
       <use style="stroke:#000000;stroke-width:2;" x="306.736945" xlink:href="#m4d748c2b02" y="299.589"/>
      </g>
     </g>
     <g id="text_6">
      <!-- 50 -->
      <g transform="translate(296.556945 315.2465)scale(0.16 -0.16)">
       <use xlink:href="#DejaVuSans-53"/>
       <use x="63.623047" xlink:href="#DejaVuSans-48"/>
      </g>
     </g>
    </g>
    <g id="xtick_7">
     <g id="line2d_7">
      <g>
       <use style="stroke:#000000;stroke-width:2;" x="350.689" xlink:href="#m4d748c2b02" y="299.589"/>
      </g>
     </g>
     <g id="text_7">
      <!-- 73 -->
      <g transform="translate(340.509 315.2465)scale(0.16 -0.16)">
       <use xlink:href="#DejaVuSans-55"/>
       <use x="63.623047" xlink:href="#DejaVuSans-51"/>
      </g>
     </g>
    </g>
    <g id="text_8">
     <!-- Previous Tumor - Current Tumor -->
     <defs>
      <path d="M 19.671875 64.796875 
L 19.671875 37.40625 
L 32.078125 37.40625 
Q 38.96875 37.40625 42.71875 40.96875 
Q 46.484375 44.53125 46.484375 51.125 
Q 46.484375 57.671875 42.71875 61.234375 
Q 38.96875 64.796875 32.078125 64.796875 
z
M 9.8125 72.90625 
L 32.078125 72.90625 
Q 44.34375 72.90625 50.609375 67.359375 
Q 56.890625 61.8125 56.890625 51.125 
Q 56.890625 40.328125 50.609375 34.8125 
Q 44.34375 29.296875 32.078125 29.296875 
L 19.671875 29.296875 
L 19.671875 0 
L 9.8125 0 
z
" id="DejaVuSans-80"/>
      <path d="M 41.109375 46.296875 
Q 39.59375 47.171875 37.8125 47.578125 
Q 36.03125 48 33.890625 48 
Q 26.265625 48 22.1875 43.046875 
Q 18.109375 38.09375 18.109375 28.8125 
L 18.109375 0 
L 9.078125 0 
L 9.078125 54.6875 
L 18.109375 54.6875 
L 18.109375 46.1875 
Q 20.953125 51.171875 25.484375 53.578125 
Q 30.03125 56 36.53125 56 
Q 37.453125 56 38.578125 55.875 
Q 39.703125 55.765625 41.0625 55.515625 
z
" id="DejaVuSans-114"/>
      <path d="M 56.203125 29.59375 
L 56.203125 25.203125 
L 14.890625 25.203125 
Q 15.484375 15.921875 20.484375 11.0625 
Q 25.484375 6.203125 34.421875 6.203125 
Q 39.59375 6.203125 44.453125 7.46875 
Q 49.3125 8.734375 54.109375 11.28125 
L 54.109375 2.78125 
Q 49.265625 0.734375 44.1875 -0.34375 
Q 39.109375 -1.421875 33.890625 -1.421875 
Q 20.796875 -1.421875 13.15625 6.1875 
Q 5.515625 13.8125 5.515625 26.8125 
Q 5.515625 40.234375 12.765625 48.109375 
Q 20.015625 56 32.328125 56 
Q 43.359375 56 49.78125 48.890625 
Q 56.203125 41.796875 56.203125 29.59375 
z
M 47.21875 32.234375 
Q 47.125 39.59375 43.09375 43.984375 
Q 39.0625 48.390625 32.421875 48.390625 
Q 24.90625 48.390625 20.390625 44.140625 
Q 15.875 39.890625 15.1875 32.171875 
z
" id="DejaVuSans-101"/>
      <path d="M 2.984375 54.6875 
L 12.5 54.6875 
L 29.59375 8.796875 
L 46.6875 54.6875 
L 56.203125 54.6875 
L 35.6875 0 
L 23.484375 0 
z
" id="DejaVuSans-118"/>
      <path d="M 9.421875 54.6875 
L 18.40625 54.6875 
L 18.40625 0 
L 9.421875 0 
z
M 9.421875 75.984375 
L 18.40625 75.984375 
L 18.40625 64.59375 
L 9.421875 64.59375 
z
" id="DejaVuSans-105"/>
      <path d="M 30.609375 48.390625 
Q 23.390625 48.390625 19.1875 42.75 
Q 14.984375 37.109375 14.984375 27.296875 
Q 14.984375 17.484375 19.15625 11.84375 
Q 23.34375 6.203125 30.609375 6.203125 
Q 37.796875 6.203125 41.984375 11.859375 
Q 46.1875 17.53125 46.1875 27.296875 
Q 46.1875 37.015625 41.984375 42.703125 
Q 37.796875 48.390625 30.609375 48.390625 
z
M 30.609375 56 
Q 42.328125 56 49.015625 48.375 
Q 55.71875 40.765625 55.71875 27.296875 
Q 55.71875 13.875 49.015625 6.21875 
Q 42.328125 -1.421875 30.609375 -1.421875 
Q 18.84375 -1.421875 12.171875 6.21875 
Q 5.515625 13.875 5.515625 27.296875 
Q 5.515625 40.765625 12.171875 48.375 
Q 18.84375 56 30.609375 56 
z
" id="DejaVuSans-111"/>
      <path d="M 8.5 21.578125 
L 8.5 54.6875 
L 17.484375 54.6875 
L 17.484375 21.921875 
Q 17.484375 14.15625 20.5 10.265625 
Q 23.53125 6.390625 29.59375 6.390625 
Q 36.859375 6.390625 41.078125 11.03125 
Q 45.3125 15.671875 45.3125 23.6875 
L 45.3125 54.6875 
L 54.296875 54.6875 
L 54.296875 0 
L 45.3125 0 
L 45.3125 8.40625 
Q 42.046875 3.421875 37.71875 1 
Q 33.40625 -1.421875 27.6875 -1.421875 
Q 18.265625 -1.421875 13.375 4.4375 
Q 8.5 10.296875 8.5 21.578125 
z
M 31.109375 56 
z
" id="DejaVuSans-117"/>
      <path d="M 44.28125 53.078125 
L 44.28125 44.578125 
Q 40.484375 46.53125 36.375 47.5 
Q 32.28125 48.484375 27.875 48.484375 
Q 21.1875 48.484375 17.84375 46.4375 
Q 14.5 44.390625 14.5 40.28125 
Q 14.5 37.15625 16.890625 35.375 
Q 19.28125 33.59375 26.515625 31.984375 
L 29.59375 31.296875 
Q 39.15625 29.25 43.1875 25.515625 
Q 47.21875 21.78125 47.21875 15.09375 
Q 47.21875 7.46875 41.1875 3.015625 
Q 35.15625 -1.421875 24.609375 -1.421875 
Q 20.21875 -1.421875 15.453125 -0.5625 
Q 10.6875 0.296875 5.421875 2 
L 5.421875 11.28125 
Q 10.40625 8.6875 15.234375 7.390625 
Q 20.0625 6.109375 24.8125 6.109375 
Q 31.15625 6.109375 34.5625 8.28125 
Q 37.984375 10.453125 37.984375 14.40625 
Q 37.984375 18.0625 35.515625 20.015625 
Q 33.0625 21.96875 24.703125 23.78125 
L 21.578125 24.515625 
Q 13.234375 26.265625 9.515625 29.90625 
Q 5.8125 33.546875 5.8125 39.890625 
Q 5.8125 47.609375 11.28125 51.796875 
Q 16.75 56 26.8125 56 
Q 31.78125 56 36.171875 55.265625 
Q 40.578125 54.546875 44.28125 53.078125 
z
" id="DejaVuSans-115"/>
      <path id="DejaVuSans-32"/>
      <path d="M -0.296875 72.90625 
L 61.375 72.90625 
L 61.375 64.59375 
L 35.5 64.59375 
L 35.5 0 
L 25.59375 0 
L 25.59375 64.59375 
L -0.296875 64.59375 
z
" id="DejaVuSans-84"/>
      <path d="M 52 44.1875 
Q 55.375 50.25 60.0625 53.125 
Q 64.75 56 71.09375 56 
Q 79.640625 56 84.28125 50.015625 
Q 88.921875 44.046875 88.921875 33.015625 
L 88.921875 0 
L 79.890625 0 
L 79.890625 32.71875 
Q 79.890625 40.578125 77.09375 44.375 
Q 74.3125 48.1875 68.609375 48.1875 
Q 61.625 48.1875 57.5625 43.546875 
Q 53.515625 38.921875 53.515625 30.90625 
L 53.515625 0 
L 44.484375 0 
L 44.484375 32.71875 
Q 44.484375 40.625 41.703125 44.40625 
Q 38.921875 48.1875 33.109375 48.1875 
Q 26.21875 48.1875 22.15625 43.53125 
Q 18.109375 38.875 18.109375 30.90625 
L 18.109375 0 
L 9.078125 0 
L 9.078125 54.6875 
L 18.109375 54.6875 
L 18.109375 46.1875 
Q 21.1875 51.21875 25.484375 53.609375 
Q 29.78125 56 35.6875 56 
Q 41.65625 56 45.828125 52.96875 
Q 50 49.953125 52 44.1875 
z
" id="DejaVuSans-109"/>
      <path d="M 64.40625 67.28125 
L 64.40625 56.890625 
Q 59.421875 61.53125 53.78125 63.8125 
Q 48.140625 66.109375 41.796875 66.109375 
Q 29.296875 66.109375 22.65625 58.46875 
Q 16.015625 50.828125 16.015625 36.375 
Q 16.015625 21.96875 22.65625 14.328125 
Q 29.296875 6.6875 41.796875 6.6875 
Q 48.140625 6.6875 53.78125 8.984375 
Q 59.421875 11.28125 64.40625 15.921875 
L 64.40625 5.609375 
Q 59.234375 2.09375 53.4375 0.328125 
Q 47.65625 -1.421875 41.21875 -1.421875 
Q 24.65625 -1.421875 15.125 8.703125 
Q 5.609375 18.84375 5.609375 36.375 
Q 5.609375 53.953125 15.125 64.078125 
Q 24.65625 74.21875 41.21875 74.21875 
Q 47.75 74.21875 53.53125 72.484375 
Q 59.328125 70.75 64.40625 67.28125 
z
" id="DejaVuSans-67"/>
      <path d="M 54.890625 33.015625 
L 54.890625 0 
L 45.90625 0 
L 45.90625 32.71875 
Q 45.90625 40.484375 42.875 44.328125 
Q 39.84375 48.1875 33.796875 48.1875 
Q 26.515625 48.1875 22.3125 43.546875 
Q 18.109375 38.921875 18.109375 30.90625 
L 18.109375 0 
L 9.078125 0 
L 9.078125 54.6875 
L 18.109375 54.6875 
L 18.109375 46.1875 
Q 21.34375 51.125 25.703125 53.5625 
Q 30.078125 56 35.796875 56 
Q 45.21875 56 50.046875 50.171875 
Q 54.890625 44.34375 54.890625 33.015625 
z
" id="DejaVuSans-110"/>
      <path d="M 18.3125 70.21875 
L 18.3125 54.6875 
L 36.8125 54.6875 
L 36.8125 47.703125 
L 18.3125 47.703125 
L 18.3125 18.015625 
Q 18.3125 11.328125 20.140625 9.421875 
Q 21.96875 7.515625 27.59375 7.515625 
L 36.8125 7.515625 
L 36.8125 0 
L 27.59375 0 
Q 17.1875 0 13.234375 3.875 
Q 9.28125 7.765625 9.28125 18.015625 
L 9.28125 47.703125 
L 2.6875 47.703125 
L 2.6875 54.6875 
L 9.28125 54.6875 
L 9.28125 70.21875 
z
" id="DejaVuSans-116"/>
     </defs>
     <g transform="translate(81.82525 334.7315)scale(0.16 -0.16)">
      <use xlink:href="#DejaVuSans-80"/>
      <use x="60.287109" xlink:href="#DejaVuSans-114"/>
      <use x="101.369141" xlink:href="#DejaVuSans-101"/>
      <use x="162.892578" xlink:href="#DejaVuSans-118"/>
      <use x="222.072266" xlink:href="#DejaVuSans-105"/>
      <use x="249.855469" xlink:href="#DejaVuSans-111"/>
      <use x="311.037109" xlink:href="#DejaVuSans-117"/>
      <use x="374.416016" xlink:href="#DejaVuSans-115"/>
      <use x="426.515625" xlink:href="#DejaVuSans-32"/>
      <use x="458.302734" xlink:href="#DejaVuSans-84"/>
      <use x="519.152344" xlink:href="#DejaVuSans-117"/>
      <use x="582.53125" xlink:href="#DejaVuSans-109"/>
      <use x="679.943359" xlink:href="#DejaVuSans-111"/>
      <use x="741.125" xlink:href="#DejaVuSans-114"/>
      <use x="782.238281" xlink:href="#DejaVuSans-32"/>
      <use x="814.025391" xlink:href="#DejaVuSans-45"/>
      <use x="850.109375" xlink:href="#DejaVuSans-32"/>
      <use x="881.896484" xlink:href="#DejaVuSans-67"/>
      <use x="951.720703" xlink:href="#DejaVuSans-117"/>
      <use x="1015.099609" xlink:href="#DejaVuSans-114"/>
      <use x="1056.197266" xlink:href="#DejaVuSans-114"/>
      <use x="1097.279297" xlink:href="#DejaVuSans-101"/>
      <use x="1158.802734" xlink:href="#DejaVuSans-110"/>
      <use x="1222.181641" xlink:href="#DejaVuSans-116"/>
      <use x="1261.390625" xlink:href="#DejaVuSans-32"/>
      <use x="1293.177734" xlink:href="#DejaVuSans-84"/>
      <use x="1354.027344" xlink:href="#DejaVuSans-117"/>
      <use x="1417.40625" xlink:href="#DejaVuSans-109"/>
      <use x="1514.818359" xlink:href="#DejaVuSans-111"/>
      <use x="1576" xlink:href="#DejaVuSans-114"/>
     </g>
     <!--  (morph units) -->
     <defs>
      <path d="M 31 75.875 
Q 24.46875 64.65625 21.28125 53.65625 
Q 18.109375 42.671875 18.109375 31.390625 
Q 18.109375 20.125 21.3125 9.0625 
Q 24.515625 -2 31 -13.1875 
L 23.1875 -13.1875 
Q 15.875 -1.703125 12.234375 9.375 
Q 8.59375 20.453125 8.59375 31.390625 
Q 8.59375 42.28125 12.203125 53.3125 
Q 15.828125 64.359375 23.1875 75.875 
z
" id="DejaVuSans-40"/>
      <path d="M 18.109375 8.203125 
L 18.109375 -20.796875 
L 9.078125 -20.796875 
L 9.078125 54.6875 
L 18.109375 54.6875 
L 18.109375 46.390625 
Q 20.953125 51.265625 25.265625 53.625 
Q 29.59375 56 35.59375 56 
Q 45.5625 56 51.78125 48.09375 
Q 58.015625 40.1875 58.015625 27.296875 
Q 58.015625 14.40625 51.78125 6.484375 
Q 45.5625 -1.421875 35.59375 -1.421875 
Q 29.59375 -1.421875 25.265625 0.953125 
Q 20.953125 3.328125 18.109375 8.203125 
z
M 48.6875 27.296875 
Q 48.6875 37.203125 44.609375 42.84375 
Q 40.53125 48.484375 33.40625 48.484375 
Q 26.265625 48.484375 22.1875 42.84375 
Q 18.109375 37.203125 18.109375 27.296875 
Q 18.109375 17.390625 22.1875 11.75 
Q 26.265625 6.109375 33.40625 6.109375 
Q 40.53125 6.109375 44.609375 11.75 
Q 48.6875 17.390625 48.6875 27.296875 
z
" id="DejaVuSans-112"/>
      <path d="M 54.890625 33.015625 
L 54.890625 0 
L 45.90625 0 
L 45.90625 32.71875 
Q 45.90625 40.484375 42.875 44.328125 
Q 39.84375 48.1875 33.796875 48.1875 
Q 26.515625 48.1875 22.3125 43.546875 
Q 18.109375 38.921875 18.109375 30.90625 
L 18.109375 0 
L 9.078125 0 
L 9.078125 75.984375 
L 18.109375 75.984375 
L 18.109375 46.1875 
Q 21.34375 51.125 25.703125 53.5625 
Q 30.078125 56 35.796875 56 
Q 45.21875 56 50.046875 50.171875 
Q 54.890625 44.34375 54.890625 33.015625 
z
" id="DejaVuSans-104"/>
      <path d="M 8.015625 75.875 
L 15.828125 75.875 
Q 23.140625 64.359375 26.78125 53.3125 
Q 30.421875 42.28125 30.421875 31.390625 
Q 30.421875 20.453125 26.78125 9.375 
Q 23.140625 -1.703125 15.828125 -13.1875 
L 8.015625 -13.1875 
Q 14.5 -2 17.703125 9.0625 
Q 20.90625 20.125 20.90625 31.390625 
Q 20.90625 42.671875 17.703125 53.65625 
Q 14.5 64.65625 8.015625 75.875 
z
" id="DejaVuSans-41"/>
     </defs>
     <g transform="translate(154.07025 352.648)scale(0.16 -0.16)">
      <use xlink:href="#DejaVuSans-32"/>
      <use x="31.787109" xlink:href="#DejaVuSans-40"/>
      <use x="70.800781" xlink:href="#DejaVuSans-109"/>
      <use x="168.212891" xlink:href="#DejaVuSans-111"/>
      <use x="229.394531" xlink:href="#DejaVuSans-114"/>
      <use x="270.507812" xlink:href="#DejaVuSans-112"/>
      <use x="333.984375" xlink:href="#DejaVuSans-104"/>
      <use x="397.363281" xlink:href="#DejaVuSans-32"/>
      <use x="429.150391" xlink:href="#DejaVuSans-117"/>
      <use x="492.529297" xlink:href="#DejaVuSans-110"/>
      <use x="555.908203" xlink:href="#DejaVuSans-105"/>
      <use x="583.691406" xlink:href="#DejaVuSans-116"/>
      <use x="622.900391" xlink:href="#DejaVuSans-115"/>
      <use x="675" xlink:href="#DejaVuSans-41"/>
     </g>
    </g>
   </g>
   <g id="matplotlib.axis_2">
    <g id="ytick_1">
     <g id="line2d_8">
      <defs>
       <path d="M 0 0 
L 6 0 
" id="m67bc7a1e94" style="stroke:#000000;stroke-width:2;"/>
      </defs>
      <g>
       <use style="stroke:#000000;stroke-width:2;" x="71.689" xlink:href="#m67bc7a1e94" y="299.589"/>
      </g>
     </g>
     <g id="text_9">
      <!-- −3 -->
      <defs>
       <path d="M 10.59375 35.5 
L 73.1875 35.5 
L 73.1875 27.203125 
L 10.59375 27.203125 
z
" id="DejaVuSans-8722"/>
      </defs>
      <g transform="translate(44.6015 305.66775)scale(0.16 -0.16)">
       <use xlink:href="#DejaVuSans-8722"/>
       <use x="83.789062" xlink:href="#DejaVuSans-51"/>
      </g>
     </g>
    </g>
    <g id="ytick_2">
     <g id="line2d_9">
      <g>
       <use style="stroke:#000000;stroke-width:2;" x="71.689" xlink:href="#m67bc7a1e94" y="254.289"/>
      </g>
     </g>
     <g id="text_10">
      <!-- −2 -->
      <g transform="translate(44.6015 260.36775)scale(0.16 -0.16)">
       <use xlink:href="#DejaVuSans-8722"/>
       <use x="83.789062" xlink:href="#DejaVuSans-50"/>
      </g>
     </g>
    </g>
    <g id="ytick_3">
     <g id="line2d_10">
      <g>
       <use style="stroke:#000000;stroke-width:2;" x="71.689" xlink:href="#m67bc7a1e94" y="208.989"/>
      </g>
     </g>
     <g id="text_11">
      <!-- −1 -->
      <defs>
       <path d="M 12.40625 8.296875 
L 28.515625 8.296875 
L 28.515625 63.921875 
L 10.984375 60.40625 
L 10.984375 69.390625 
L 28.421875 72.90625 
L 38.28125 72.90625 
L 38.28125 8.296875 
L 54.390625 8.296875 
L 54.390625 0 
L 12.40625 0 
z
" id="DejaVuSans-49"/>
      </defs>
      <g transform="translate(44.6015 215.06775)scale(0.16 -0.16)">
       <use xlink:href="#DejaVuSans-8722"/>
       <use x="83.789062" xlink:href="#DejaVuSans-49"/>
      </g>
     </g>
    </g>
    <g id="ytick_4">
     <g id="line2d_11">
      <g>
       <use style="stroke:#000000;stroke-width:2;" x="71.689" xlink:href="#m67bc7a1e94" y="163.689"/>
      </g>
     </g>
     <g id="text_12">
      <!-- 0 -->
      <g transform="translate(58.009 169.76775)scale(0.16 -0.16)">
       <use xlink:href="#DejaVuSans-48"/>
      </g>
     </g>
    </g>
    <g id="ytick_5">
     <g id="line2d_12">
      <g>
       <use style="stroke:#000000;stroke-width:2;" x="71.689" xlink:href="#m67bc7a1e94" y="118.389"/>
      </g>
     </g>
     <g id="text_13">
      <!-- 1 -->
      <g transform="translate(58.009 124.46775)scale(0.16 -0.16)">
       <use xlink:href="#DejaVuSans-49"/>
      </g>
     </g>
    </g>
    <g id="ytick_6">
     <g id="line2d_13">
      <g>
       <use style="stroke:#000000;stroke-width:2;" x="71.689" xlink:href="#m67bc7a1e94" y="73.089"/>
      </g>
     </g>
     <g id="text_14">
      <!-- 2 -->
      <g transform="translate(58.009 79.16775)scale(0.16 -0.16)">
       <use xlink:href="#DejaVuSans-50"/>
      </g>
     </g>
    </g>
    <g id="ytick_7">
     <g id="line2d_14">
      <g>
       <use style="stroke:#000000;stroke-width:2;" x="71.689" xlink:href="#m67bc7a1e94" y="27.789"/>
      </g>
     </g>
     <g id="text_15">
      <!-- 3 -->
      <g transform="translate(58.009 33.86775)scale(0.16 -0.16)">
       <use xlink:href="#DejaVuSans-51"/>
      </g>
     </g>
    </g>
    <g id="text_16">
     <!-- Response Error on Current Trial -->
     <defs>
      <path d="M 44.390625 34.1875 
Q 47.5625 33.109375 50.5625 29.59375 
Q 53.5625 26.078125 56.59375 19.921875 
L 66.609375 0 
L 56 0 
L 46.6875 18.703125 
Q 43.0625 26.03125 39.671875 28.421875 
Q 36.28125 30.8125 30.421875 30.8125 
L 19.671875 30.8125 
L 19.671875 0 
L 9.8125 0 
L 9.8125 72.90625 
L 32.078125 72.90625 
Q 44.578125 72.90625 50.734375 67.671875 
Q 56.890625 62.453125 56.890625 51.90625 
Q 56.890625 45.015625 53.6875 40.46875 
Q 50.484375 35.9375 44.390625 34.1875 
z
M 19.671875 64.796875 
L 19.671875 38.921875 
L 32.078125 38.921875 
Q 39.203125 38.921875 42.84375 42.21875 
Q 46.484375 45.515625 46.484375 51.90625 
Q 46.484375 58.296875 42.84375 61.546875 
Q 39.203125 64.796875 32.078125 64.796875 
z
" id="DejaVuSans-82"/>
      <path d="M 9.8125 72.90625 
L 55.90625 72.90625 
L 55.90625 64.59375 
L 19.671875 64.59375 
L 19.671875 43.015625 
L 54.390625 43.015625 
L 54.390625 34.71875 
L 19.671875 34.71875 
L 19.671875 8.296875 
L 56.78125 8.296875 
L 56.78125 0 
L 9.8125 0 
z
" id="DejaVuSans-69"/>
      <path d="M 34.28125 27.484375 
Q 23.390625 27.484375 19.1875 25 
Q 14.984375 22.515625 14.984375 16.5 
Q 14.984375 11.71875 18.140625 8.90625 
Q 21.296875 6.109375 26.703125 6.109375 
Q 34.1875 6.109375 38.703125 11.40625 
Q 43.21875 16.703125 43.21875 25.484375 
L 43.21875 27.484375 
z
M 52.203125 31.203125 
L 52.203125 0 
L 43.21875 0 
L 43.21875 8.296875 
Q 40.140625 3.328125 35.546875 0.953125 
Q 30.953125 -1.421875 24.3125 -1.421875 
Q 15.921875 -1.421875 10.953125 3.296875 
Q 6 8.015625 6 15.921875 
Q 6 25.140625 12.171875 29.828125 
Q 18.359375 34.515625 30.609375 34.515625 
L 43.21875 34.515625 
L 43.21875 35.40625 
Q 43.21875 41.609375 39.140625 45 
Q 35.0625 48.390625 27.6875 48.390625 
Q 23 48.390625 18.546875 47.265625 
Q 14.109375 46.140625 10.015625 43.890625 
L 10.015625 52.203125 
Q 14.9375 54.109375 19.578125 55.046875 
Q 24.21875 56 28.609375 56 
Q 40.484375 56 46.34375 49.84375 
Q 52.203125 43.703125 52.203125 31.203125 
z
" id="DejaVuSans-97"/>
      <path d="M 9.421875 75.984375 
L 18.40625 75.984375 
L 18.40625 0 
L 9.421875 0 
z
" id="DejaVuSans-108"/>
     </defs>
     <g transform="translate(19.3575 290.27775)rotate(-90)scale(0.16 -0.16)">
      <use xlink:href="#DejaVuSans-82"/>
      <use x="69.419922" xlink:href="#DejaVuSans-101"/>
      <use x="130.943359" xlink:href="#DejaVuSans-115"/>
      <use x="183.042969" xlink:href="#DejaVuSans-112"/>
      <use x="246.519531" xlink:href="#DejaVuSans-111"/>
      <use x="307.701172" xlink:href="#DejaVuSans-110"/>
      <use x="371.080078" xlink:href="#DejaVuSans-115"/>
      <use x="423.179688" xlink:href="#DejaVuSans-101"/>
      <use x="484.703125" xlink:href="#DejaVuSans-32"/>
      <use x="516.490234" xlink:href="#DejaVuSans-69"/>
      <use x="579.673828" xlink:href="#DejaVuSans-114"/>
      <use x="620.771484" xlink:href="#DejaVuSans-114"/>
      <use x="661.853516" xlink:href="#DejaVuSans-111"/>
      <use x="723.035156" xlink:href="#DejaVuSans-114"/>
      <use x="764.148438" xlink:href="#DejaVuSans-32"/>
      <use x="795.935547" xlink:href="#DejaVuSans-111"/>
      <use x="857.117188" xlink:href="#DejaVuSans-110"/>
      <use x="920.496094" xlink:href="#DejaVuSans-32"/>
      <use x="952.283203" xlink:href="#DejaVuSans-67"/>
      <use x="1022.107422" xlink:href="#DejaVuSans-117"/>
      <use x="1085.486328" xlink:href="#DejaVuSans-114"/>
      <use x="1126.583984" xlink:href="#DejaVuSans-114"/>
      <use x="1167.666016" xlink:href="#DejaVuSans-101"/>
      <use x="1229.189453" xlink:href="#DejaVuSans-110"/>
      <use x="1292.568359" xlink:href="#DejaVuSans-116"/>
      <use x="1331.777344" xlink:href="#DejaVuSans-32"/>
      <use x="1363.564453" xlink:href="#DejaVuSans-84"/>
      <use x="1424.429688" xlink:href="#DejaVuSans-114"/>
      <use x="1465.542969" xlink:href="#DejaVuSans-105"/>
      <use x="1493.326172" xlink:href="#DejaVuSans-97"/>
      <use x="1554.605469" xlink:href="#DejaVuSans-108"/>
     </g>
     <!--  (morph units) -->
     <g transform="translate(37.274 220.80775)rotate(-90)scale(0.16 -0.16)">
      <use xlink:href="#DejaVuSans-32"/>
      <use x="31.787109" xlink:href="#DejaVuSans-40"/>
      <use x="70.800781" xlink:href="#DejaVuSans-109"/>
      <use x="168.212891" xlink:href="#DejaVuSans-111"/>
      <use x="229.394531" xlink:href="#DejaVuSans-114"/>
      <use x="270.507812" xlink:href="#DejaVuSans-112"/>
      <use x="333.984375" xlink:href="#DejaVuSans-104"/>
      <use x="397.363281" xlink:href="#DejaVuSans-32"/>
      <use x="429.150391" xlink:href="#DejaVuSans-117"/>
      <use x="492.529297" xlink:href="#DejaVuSans-110"/>
      <use x="555.908203" xlink:href="#DejaVuSans-105"/>
      <use x="583.691406" xlink:href="#DejaVuSans-116"/>
      <use x="622.900391" xlink:href="#DejaVuSans-115"/>
      <use x="675" xlink:href="#DejaVuSans-41"/>
     </g>
    </g>
   </g>
   <g id="line2d_15">
    <path clip-path="url(#p6decdf009f)" d="M 71.689 166.213985 
L 73.599959 157.722385 
L 75.510918 167.095357 
L 77.421877 172.155482 
L 79.332836 169.871807 
L 81.243795 172.366638 
L 83.154753 174.350402 
L 85.065712 177.284707 
L 86.976671 178.847477 
L 88.88763 181.484939 
L 90.798589 170.839323 
L 92.709548 181.535462 
L 94.620507 182.88635 
L 96.531466 176.01021 
L 98.442425 180.466851 
L 100.353384 175.698762 
L 102.264342 182.673503 
L 104.175301 187.535983 
L 106.08626 182.290833 
L 107.997219 190.522903 
L 109.908178 191.093613 
L 111.819137 199.416673 
L 113.730096 199.051944 
L 115.641055 201.483249 
L 117.552014 207.343355 
L 119.462973 212.473797 
L 121.373932 198.930914 
L 123.28489 198.071099 
L 125.195849 186.384545 
L 127.106808 182.505656 
L 129.017767 185.536461 
L 130.928726 178.367747 
L 132.839685 179.103304 
L 134.750644 171.323011 
L 136.661603 174.993115 
L 138.572562 173.842138 
L 140.483521 169.523478 
L 142.394479 180.406291 
L 144.305438 185.442837 
L 146.216397 183.120068 
L 148.127356 181.736011 
L 150.038315 185.804949 
L 151.949274 180.87105 
L 153.860233 184.321035 
L 155.771192 191.029723 
L 157.682151 190.962844 
L 159.59311 191.825924 
L 161.504068 188.313858 
L 163.415027 186.783329 
L 165.325986 189.343159 
L 167.236945 184.990389 
L 169.147904 191.29992 
L 171.058863 181.218177 
L 172.969822 177.994221 
L 174.880781 170.276924 
L 176.79174 175.531642 
L 178.702699 167.843087 
L 180.613658 172.854899 
L 182.524616 167.073801 
L 184.435575 164.700781 
L 186.346534 160.203713 
L 188.257493 156.734633 
L 190.168452 156.867332 
L 192.079411 155.481942 
L 193.99037 160.420237 
L 195.901329 151.471326 
L 197.812288 151.101949 
L 199.723247 150.537096 
L 201.634205 140.718277 
L 203.545164 136.114075 
L 205.456123 137.245904 
L 207.367082 139.844761 
L 209.278041 143.769402 
L 211.189 145.887014 
L 213.099959 146.373639 
L 215.010918 152.868938 
L 216.921877 157.101684 
L 218.832836 163.941805 
L 220.743795 168.514419 
L 222.654753 155.216124 
L 224.565712 149.31589 
L 226.476671 139.321021 
L 228.38763 137.852285 
L 230.298589 130.609104 
L 232.209548 137.698597 
L 234.120507 134.829271 
L 236.031466 130.949356 
L 237.942425 139.547655 
L 239.853384 136.616269 
L 241.764342 137.722117 
L 243.675301 148.925592 
L 245.58626 153.307606 
L 247.497219 144.645315 
L 249.408178 157.072048 
L 251.319137 158.027033 
L 253.230096 158.825026 
L 255.141055 161.450893 
L 257.052014 161.566522 
L 258.962973 162.189484 
L 260.873932 160.845662 
L 262.78489 157.350938 
L 264.695849 157.479108 
L 266.606808 153.06263 
L 268.517767 151.214026 
L 270.428726 149.620717 
L 272.339685 142.031174 
L 274.250644 130.678356 
L 276.161603 126.876212 
L 278.072562 121.035949 
L 279.983521 113.275156 
L 281.894479 130.573768 
L 283.805438 131.580525 
L 285.716397 134.992914 
L 287.627356 128.859869 
L 289.538315 139.872944 
L 291.449274 138.980886 
L 293.360233 140.772406 
L 295.271192 141.857062 
L 297.182151 134.679292 
L 299.09311 136.913114 
L 301.004068 137.953513 
L 302.915027 134.418855 
L 304.825986 130.205593 
L 306.736945 132.04833 
L 308.647904 128.104038 
L 310.558863 129.793429 
L 312.469822 133.898738 
L 314.380781 128.29105 
L 316.29174 127.756153 
L 318.202699 133.957804 
L 320.113658 129.431367 
L 323.935575 125.595743 
L 325.846534 127.685541 
L 327.757493 127.018167 
L 329.668452 125.801169 
L 331.579411 126.959699 
L 333.49037 127.748193 
L 335.401329 128.23639 
L 337.312288 132.982816 
L 339.223247 129.729218 
L 341.134205 119.449324 
L 343.045164 131.553444 
L 344.956123 140.30956 
L 346.867082 152.498455 
L 348.778041 155.553699 
L 350.689 166.213985 
L 350.689 166.213985 
" style="fill:none;stroke:#00008b;stroke-linecap:square;stroke-width:1.5;"/>
   </g>
   <g id="line2d_16">
    <path clip-path="url(#p6decdf009f)" d="M 71.689 163.758703 
L 90.798589 164.201271 
L 102.264342 164.672132 
L 109.908178 165.164961 
L 117.552014 165.885143 
L 123.28489 166.632633 
L 129.017767 167.611043 
L 134.750644 168.869414 
L 140.483521 170.447562 
L 146.216397 172.359743 
L 151.949274 174.572095 
L 167.236945 180.824942 
L 171.058863 182.034732 
L 174.880781 182.890461 
L 176.79174 183.150872 
L 178.702699 183.282662 
L 180.613658 183.274703 
L 182.524616 183.117592 
L 184.435575 182.803963 
L 186.346534 182.328764 
L 188.257493 181.689449 
L 190.168452 180.886108 
L 192.079411 179.921512 
L 193.99037 178.80108 
L 195.901329 177.532775 
L 199.723247 174.596058 
L 203.545164 171.218399 
L 207.367082 167.532753 
L 218.832836 156.159601 
L 222.654753 152.781942 
L 226.476671 149.845225 
L 228.38763 148.57692 
L 230.298589 147.456488 
L 232.209548 146.491892 
L 234.120507 145.688551 
L 236.031466 145.049236 
L 237.942425 144.574037 
L 239.853384 144.260408 
L 241.764342 144.103297 
L 243.675301 144.095338 
L 245.58626 144.227128 
L 247.497219 144.487539 
L 251.319137 145.343268 
L 255.141055 146.553058 
L 258.962973 148.003583 
L 276.161603 155.018257 
L 281.894479 156.930438 
L 287.627356 158.508586 
L 293.360233 159.766957 
L 299.09311 160.745367 
L 304.825986 161.492857 
L 312.469822 162.213039 
L 320.113658 162.705868 
L 331.579411 163.176729 
L 346.867082 163.547093 
L 350.689 163.619297 
L 350.689 163.619297 
" style="fill:none;stroke:#006400;stroke-linecap:square;stroke-width:1.5;"/>
   </g>
   <g id="patch_3">
    <path d="M 71.689 299.589 
L 71.689 27.789 
" style="fill:none;stroke:#000000;stroke-linecap:square;stroke-linejoin:miter;stroke-width:2;"/>
   </g>
   <g id="patch_4">
    <path d="M 71.689 299.589 
L 350.689 299.589 
" style="fill:none;stroke:#000000;stroke-linecap:square;stroke-linejoin:miter;stroke-width:2;"/>
   </g>
   <g id="text_17">
    <!-- 3Trials-Forward Radiologists, Step = 30 -->
    <defs>
     <path d="M 9.8125 72.90625 
L 51.703125 72.90625 
L 51.703125 64.59375 
L 19.671875 64.59375 
L 19.671875 43.109375 
L 48.578125 43.109375 
L 48.578125 34.8125 
L 19.671875 34.8125 
L 19.671875 0 
L 9.8125 0 
z
" id="DejaVuSans-70"/>
     <path d="M 4.203125 54.6875 
L 13.1875 54.6875 
L 24.421875 12.015625 
L 35.59375 54.6875 
L 46.1875 54.6875 
L 57.421875 12.015625 
L 68.609375 54.6875 
L 77.59375 54.6875 
L 63.28125 0 
L 52.6875 0 
L 40.921875 44.828125 
L 29.109375 0 
L 18.5 0 
z
" id="DejaVuSans-119"/>
     <path d="M 45.40625 46.390625 
L 45.40625 75.984375 
L 54.390625 75.984375 
L 54.390625 0 
L 45.40625 0 
L 45.40625 8.203125 
Q 42.578125 3.328125 38.25 0.953125 
Q 33.9375 -1.421875 27.875 -1.421875 
Q 17.96875 -1.421875 11.734375 6.484375 
Q 5.515625 14.40625 5.515625 27.296875 
Q 5.515625 40.1875 11.734375 48.09375 
Q 17.96875 56 27.875 56 
Q 33.9375 56 38.25 53.625 
Q 42.578125 51.265625 45.40625 46.390625 
z
M 14.796875 27.296875 
Q 14.796875 17.390625 18.875 11.75 
Q 22.953125 6.109375 30.078125 6.109375 
Q 37.203125 6.109375 41.296875 11.75 
Q 45.40625 17.390625 45.40625 27.296875 
Q 45.40625 37.203125 41.296875 42.84375 
Q 37.203125 48.484375 30.078125 48.484375 
Q 22.953125 48.484375 18.875 42.84375 
Q 14.796875 37.203125 14.796875 27.296875 
z
" id="DejaVuSans-100"/>
     <path d="M 45.40625 27.984375 
Q 45.40625 37.75 41.375 43.109375 
Q 37.359375 48.484375 30.078125 48.484375 
Q 22.859375 48.484375 18.828125 43.109375 
Q 14.796875 37.75 14.796875 27.984375 
Q 14.796875 18.265625 18.828125 12.890625 
Q 22.859375 7.515625 30.078125 7.515625 
Q 37.359375 7.515625 41.375 12.890625 
Q 45.40625 18.265625 45.40625 27.984375 
z
M 54.390625 6.78125 
Q 54.390625 -7.171875 48.1875 -13.984375 
Q 42 -20.796875 29.203125 -20.796875 
Q 24.46875 -20.796875 20.265625 -20.09375 
Q 16.0625 -19.390625 12.109375 -17.921875 
L 12.109375 -9.1875 
Q 16.0625 -11.328125 19.921875 -12.34375 
Q 23.78125 -13.375 27.78125 -13.375 
Q 36.625 -13.375 41.015625 -8.765625 
Q 45.40625 -4.15625 45.40625 5.171875 
L 45.40625 9.625 
Q 42.625 4.78125 38.28125 2.390625 
Q 33.9375 0 27.875 0 
Q 17.828125 0 11.671875 7.65625 
Q 5.515625 15.328125 5.515625 27.984375 
Q 5.515625 40.671875 11.671875 48.328125 
Q 17.828125 56 27.875 56 
Q 33.9375 56 38.28125 53.609375 
Q 42.625 51.21875 45.40625 46.390625 
L 45.40625 54.6875 
L 54.390625 54.6875 
z
" id="DejaVuSans-103"/>
     <path d="M 11.71875 12.40625 
L 22.015625 12.40625 
L 22.015625 4 
L 14.015625 -11.625 
L 7.71875 -11.625 
L 11.71875 4 
z
" id="DejaVuSans-44"/>
     <path d="M 53.515625 70.515625 
L 53.515625 60.890625 
Q 47.90625 63.578125 42.921875 64.890625 
Q 37.9375 66.21875 33.296875 66.21875 
Q 25.25 66.21875 20.875 63.09375 
Q 16.5 59.96875 16.5 54.203125 
Q 16.5 49.359375 19.40625 46.890625 
Q 22.3125 44.4375 30.421875 42.921875 
L 36.375 41.703125 
Q 47.40625 39.59375 52.65625 34.296875 
Q 57.90625 29 57.90625 20.125 
Q 57.90625 9.515625 50.796875 4.046875 
Q 43.703125 -1.421875 29.984375 -1.421875 
Q 24.8125 -1.421875 18.96875 -0.25 
Q 13.140625 0.921875 6.890625 3.21875 
L 6.890625 13.375 
Q 12.890625 10.015625 18.65625 8.296875 
Q 24.421875 6.59375 29.984375 6.59375 
Q 38.421875 6.59375 43.015625 9.90625 
Q 47.609375 13.234375 47.609375 19.390625 
Q 47.609375 24.75 44.3125 27.78125 
Q 41.015625 30.8125 33.5 32.328125 
L 27.484375 33.5 
Q 16.453125 35.6875 11.515625 40.375 
Q 6.59375 45.0625 6.59375 53.421875 
Q 6.59375 63.09375 13.40625 68.65625 
Q 20.21875 74.21875 32.171875 74.21875 
Q 37.3125 74.21875 42.625 73.28125 
Q 47.953125 72.359375 53.515625 70.515625 
z
" id="DejaVuSans-83"/>
     <path d="M 10.59375 45.40625 
L 73.1875 45.40625 
L 73.1875 37.203125 
L 10.59375 37.203125 
z
M 10.59375 25.484375 
L 73.1875 25.484375 
L 73.1875 17.1875 
L 10.59375 17.1875 
z
" id="DejaVuSans-61"/>
    </defs>
    <g transform="translate(20.8705 21.789)scale(0.192 -0.192)">
     <use xlink:href="#DejaVuSans-51"/>
     <use x="63.623047" xlink:href="#DejaVuSans-84"/>
     <use x="124.488281" xlink:href="#DejaVuSans-114"/>
     <use x="165.601562" xlink:href="#DejaVuSans-105"/>
     <use x="193.384766" xlink:href="#DejaVuSans-97"/>
     <use x="254.664062" xlink:href="#DejaVuSans-108"/>
     <use x="282.447266" xlink:href="#DejaVuSans-115"/>
     <use x="334.546875" xlink:href="#DejaVuSans-45"/>
     <use x="370.630859" xlink:href="#DejaVuSans-70"/>
     <use x="428.103516" xlink:href="#DejaVuSans-111"/>
     <use x="489.285156" xlink:href="#DejaVuSans-114"/>
     <use x="530.398438" xlink:href="#DejaVuSans-119"/>
     <use x="612.185547" xlink:href="#DejaVuSans-97"/>
     <use x="673.464844" xlink:href="#DejaVuSans-114"/>
     <use x="714.5625" xlink:href="#DejaVuSans-100"/>
     <use x="778.039062" xlink:href="#DejaVuSans-32"/>
     <use x="809.826172" xlink:href="#DejaVuSans-82"/>
     <use x="879.277344" xlink:href="#DejaVuSans-97"/>
     <use x="940.556641" xlink:href="#DejaVuSans-100"/>
     <use x="1004.033203" xlink:href="#DejaVuSans-105"/>
     <use x="1031.816406" xlink:href="#DejaVuSans-111"/>
     <use x="1092.998047" xlink:href="#DejaVuSans-108"/>
     <use x="1120.78125" xlink:href="#DejaVuSans-111"/>
     <use x="1181.962891" xlink:href="#DejaVuSans-103"/>
     <use x="1245.439453" xlink:href="#DejaVuSans-105"/>
     <use x="1273.222656" xlink:href="#DejaVuSans-115"/>
     <use x="1325.322266" xlink:href="#DejaVuSans-116"/>
     <use x="1364.53125" xlink:href="#DejaVuSans-115"/>
     <use x="1416.630859" xlink:href="#DejaVuSans-44"/>
     <use x="1448.417969" xlink:href="#DejaVuSans-32"/>
     <use x="1480.205078" xlink:href="#DejaVuSans-83"/>
     <use x="1543.681641" xlink:href="#DejaVuSans-116"/>
     <use x="1582.890625" xlink:href="#DejaVuSans-101"/>
     <use x="1644.414062" xlink:href="#DejaVuSans-112"/>
     <use x="1707.890625" xlink:href="#DejaVuSans-32"/>
     <use x="1739.677734" xlink:href="#DejaVuSans-61"/>
     <use x="1823.466797" xlink:href="#DejaVuSans-32"/>
     <use x="1855.253906" xlink:href="#DejaVuSans-51"/>
     <use x="1918.876953" xlink:href="#DejaVuSans-48"/>
    </g>
   </g>
  </g>
 </g>
 <defs>
  <clipPath id="p6decdf009f">
   <rect height="271.8" width="279" x="71.689" y="27.789"/>
  </clipPath>
 </defs>
</svg>
