<?xml version="1.0" encoding="utf-8"?>
<!-- Generator: Adobe Illustrator 24.1.2, SVG Export Plug-In . SVG Version: 6.00 Build 0)  -->
<svg version="1.1" id="Layer_1" xmlns="http://www.w3.org/2000/svg" xmlns:xlink="http://www.w3.org/1999/xlink" x="0px" y="0px"
	 viewBox="0 0 1500 1500" style="enable-background:new 0 0 1500 1500;" xml:space="preserve">
<style type="text/css">
	.st0{fill:#FFFFFF;}
	.st1{clip-path:url(#SVGID_2_);}
	.st2{fill:#88CDEA;fill-opacity:0.2;stroke:#88CDEA;stroke-linejoin:round;stroke-opacity:0.2;}
	.st3{opacity:0.1;clip-path:url(#SVGID_4_);fill:#F47E53;stroke:#F47E53;enable-background:new    ;}
	.st4{fill:#010101;stroke:#010101;stroke-width:2;stroke-linejoin:round;}
	.st5{fill:#010101;}
	.st6{clip-path:url(#SVGID_6_);fill:none;stroke:#4E69B2;stroke-width:3;stroke-linecap:square;stroke-linejoin:round;}
	
		.st7{clip-path:url(#SVGID_8_);fill:none;stroke:#8A181A;stroke-width:3;stroke-linejoin:round;stroke-opacity:0.5;stroke-dasharray:11.1,4.8;}
	.st8{fill:none;stroke:#010101;stroke-width:2;stroke-linecap:square;}
	.st9{font-family:'MyriadPro-Regular';}
	.st10{font-size:18px;}
	.st11{fill:none;stroke:#4E69B2;stroke-width:3;stroke-linecap:square;stroke-linejoin:round;}
	.st12{fill:none;stroke:#8A181A;stroke-width:3;stroke-linejoin:round;stroke-opacity:0.5;stroke-dasharray:11.1,4.8;}
</style>
<g id="figure_1">
	<g id="patch_1">
		<path class="st0" d="M439.5,988.07h620.99V511.93H439.5V988.07z"/>
	</g>
	<g id="axes_1">
		<g id="patch_2">
			<path class="st0" d="M655.35,904.7h381.39V548.37H655.35V904.7z"/>
		</g>
		<g id="PolyCollection_1">
			<g>
				<defs>
					<rect id="SVGID_1_" x="655.35" y="548.37" width="381.39" height="356.34"/>
				</defs>
				<clipPath id="SVGID_2_">
					<use xlink:href="#SVGID_1_"  style="overflow:visible;"/>
				</clipPath>
				<g class="st1">
					<g>
						<path id="m8d6cd32a9b" class="st2" d="M655.35,753.01v-47.66l2.61-2.25l2.61,3.11l2.61,13.55l2.61,1.88l2.61,10.85l2.61-2.97
							l2.61,2.82l2.61,11.77l2.61,9.61l2.61,1.58l2.61-5.63l2.61-9.28l2.61,5.43l2.61-0.09l2.61,3.32l2.61-3.06l2.61,2.95l2.61-5.78
							l2.61-1.2l2.61,14.52l2.61,6.01l2.61-1.47l2.61-6.91l2.61,6l2.61,7.5l2.61-2.01l2.61,5.45l2.61,5.74l2.61-7.89l2.61,6.89
							l2.61-4.09l2.61,5.02l2.61,1.73l2.61-3.9l2.61,10.62l2.61,12.89l2.61,7.25l2.61-10.37l2.61-11.95l2.61,4.83l2.61-3.7
							l2.61-2.29l2.61,5.95l2.61-10.35l2.61,7.13l2.61-0.52l2.61,9.78l2.61,2.68l2.61-3.06l2.61,5.49l2.61,0.68l2.61,0.64l2.61,9.21
							l2.61,3.55l2.61-3.86l2.61-3.65l2.61,4.69l2.61,5.45l2.61-13.42l2.61,4.8l2.61-23.55l2.61,5.51l2.61-5.39l2.61-5.38
							l2.61-12.41l2.61-9l2.61-10.73l2.61-9.16l2.61,7.73l2.61-5.21l2.61-0.47l2.61-11.86l2.61-1.28l2.61-5.35l2.61,1.19l2.61-17.12
							l2.61-0.88l2.61-18.89l2.61-10.92l2.61-18.04l2.61,0.17l2.61-19.21l2.61-6.43l2.61-1.9l2.61-8.83l2.61-2l2.61,2.35l2.61,3.39
							l2.61,3.35l2.61,3.23l2.61-11.88l2.61,0.51l2.61-5.47l2.61,7.2l2.61,5.59l2.61,10.41l2.61-0.34l2.61-0.08l2.61-3.02l2.61-9.24
							l2.61,3.28l2.61-21.77l2.61,2.08l2.61-2.3l2.61-12.62l2.61,9.17l2.61,4.84l2.61-11.56l2.61,11.11l2.61,9.35l2.61,2.82
							l2.61-14.49l2.61,2.26l2.61,0.94l2.61-7.88l2.61,11.93l2.61-1.05l2.61-1.18l2.61-13.3l2.61-7.81l2.61-9.97l2.61,9l2.61,12.18
							l2.61,4.27l2.61-10.74l2.61,8.05l2.61,3.78l2.61,23.85l2.61,6.06l2.61,9.61l2.61-5.05l2.61-5.32l2.61,21.07l2.61,16.35
							l2.61,5.96l2.61-0.6l2.61,6.68l2.61,1.68l2.61,5.74l2.61-1.09l2.61-4.7l2.61-2l2.61-4.77l2.61-1.89l2.61,7.06l2.61,22.68
							v47.66l0,0l-2.61-23.78l-2.61-3.75l-2.61-10.19l-2.61,2.69l-2.61,2.62l-2.61,2.39l-2.61,4.55l-2.61-4.62l-2.61,3.78
							l-2.61-2.57l-2.61-3.96l-2.61-3.91l-2.61-20.34l-2.61-19.47l-2.61,8.32l-2.61-4.95l-2.61-9.36l-2.61-6.86l-2.61-12.13
							l-2.61,2.09l-2.61-2.34l-2.61,4l-2.61-2.41l-2.61-12.04l-2.61-7.93l-2.61,13.92l-2.61,4.06l-2.61,9.68l-2.61-2.88l-2.61,1.72
							l-2.61-10.91l-2.61,12.35l-2.61-0.09l-2.61-10.66l-2.61,10.54l-2.61-6.84l-2.61-7.91l-2.61-16.05l-2.61,10.79l-2.61-1.76
							l-2.61-1.19l-2.61,11.94l-2.61-2.45l-2.61,0.86l-2.61,21.97l-2.61-7.03l-2.61,6.87l-2.61,6.33l-2.61,5.87l-2.61,1.58
							l-2.61-3.91l-2.61-1.83l-2.61-3.12l-2.61,9.91l-2.61,0.37l-2.61,5.73l-2.61,1.97l-2.61-2.76l-2.61-2.24l-2.61-1.7l-2.61-0.84
							l-2.61,4.17l-2.61,1.64l-2.61,9.57l-2.61,14.02l-2.61,2.84l-2.61,13.16l-2.61,10.43l-2.61,14.76l-2.61-3.94l-2.61,16.73
							l-2.61,5.78l-2.61,4.71l-2.61-6.98l-2.61,11.22l-2.61-0.23l-2.61,3.54l-2.61-4.88l-2.61,9.1l-2.61,15.7l-2.61,10.15
							l-2.61,10.34l-2.61,13.61l-2.61,14.06l-2.61-5.31l-2.61,24.48l-2.61-14.81l-2.61,6.16l-2.61-2.46l-2.61-10.78l-2.61,3.28
							l-2.61,7.33l-2.61-2.78l-2.61-7.12l-2.61-1.42l-2.61-1.7l-2.61-7.28l-2.61,1.84l-2.61,1.21l-2.61-14.19l-2.61-3.23l-2.61-9.77
							l-2.61,10.53l-2.61-5.77l-2.61,0.18l-2.61,6.63l-2.61-1.71l-2.61,8.88L752,846.82l-2.61-6.92l-2.61-5.37l-2.61-7.53
							l-2.61,4.22l-2.61,0.8l-2.61-5.15l-2.61,8.19l-2.61-5.36l-2.61,5.83l-2.61-4.65l-2.61-5.28l-2.61,1.4l-2.61-3.82l-2.61,1.09
							l-2.61,8.87l-2.61-2.38l-2.61-1.74l-2.61-11.21l-2.61,0.27l-2.61,2.65l-2.61-3.02l-2.61,2.65l-2.61-2.21l-2.61-6.81
							l-2.61-6.03l-2.61,10.66l-2.61,4.67l-2.61-7.7l-2.61-19.78l-2.61-12.51l-2.61-2.62l-2.61,4.34l-2.61-7.83l-2.61,1.42
							l-2.61-14.25l-2.61-4.92L655.35,753.01z"/>
					</g>
				</g>
			</g>
		</g>
		<g id="patch_3">
			<g>
				<defs>
					<rect id="SVGID_3_" x="655.35" y="548.37" width="381.39" height="356.34"/>
				</defs>
				<clipPath id="SVGID_4_">
					<use xlink:href="#SVGID_3_"  style="overflow:visible;"/>
				</clipPath>
				<path class="st3" d="M799.02,904.7V548.37h94.04V904.7H799.02z"/>
			</g>
		</g>
		<g id="matplotlib.axis_1">
			<g id="xtick_1">
				<g id="line2d_1">
					<g>
						<g>
							<path id="m7c3f22ed70" class="st4" d="M655.35,904.7v-7.87"/>
						</g>
					</g>
				</g>
				<g id="text_1">
					<g transform="translate(144.83125 315.2465)scale(0.16 -0.16)">
						<g>
							<path id="DejaVuSans-45" class="st5" d="M3085.78-3771.25h35.97v-10.49h-35.97V-3771.25z"/>
						</g>
						<g>
							<path id="DejaVuSans-55" class="st5" d="M3139.63-3716.82h64.08v-5.51l-36.18-90.07h-14.08l34.05,84.68h-47.87V-3716.82z"/>
						</g>
						<g>
							<path id="DejaVuSans-51" class="st5" d="M3270.86-3760.86c6.45-1.32,11.48-4.08,15.1-8.28c3.63-4.18,5.45-9.34,5.45-15.49
								c0-9.42-3.38-16.72-10.15-21.9c-6.76-5.16-16.38-7.74-28.83-7.74c-4.17,0-8.47,0.4-12.9,1.19c-4.43,0.79-9,1.98-13.71,3.56
								v12.48c3.73-2.09,7.82-3.67,12.26-4.73c4.46-1.07,9.11-1.6,13.97-1.6c8.44,0,14.88,1.6,19.31,4.79
								c4.43,3.2,6.64,7.85,6.64,13.95c0,5.64-2.06,10.04-6.17,13.21c-4.12,3.18-9.84,4.77-17.17,4.77h-11.62v10.63h12.15
								c6.62,0,11.69,1.27,15.21,3.81c3.52,2.54,5.28,6.2,5.28,10.98c0,4.9-1.82,8.67-5.45,11.29c-3.62,2.64-8.81,3.95-15.57,3.95
								c-3.7,0-7.67-0.39-11.9-1.17c-4.23-0.76-8.88-1.95-13.95-3.56v11.51c5.13,1.37,9.92,2.39,14.4,3.07s8.69,1.02,12.64,1.02
								c10.24,0,18.33-2.23,24.29-6.7c5.97-4.45,8.95-10.47,8.95-18.07c0-5.3-1.58-9.77-4.74-13.42
								C3281.18-3756.93,3276.69-3759.45,3270.86-3760.86z"/>
						</g>
					</g>
				</g>
			</g>
			<g id="xtick_2">
				<g id="line2d_2">
					<g>
						<g>
							<path id="m7c3f22ed70_1_" class="st4" d="M715.43,904.7v-7.87"/>
						</g>
					</g>
				</g>
				<g id="text_2">
					<g transform="translate(188.783305 315.2465)scale(0.16 -0.16)">
						<g>
							<path id="DejaVuSans-45_1_" class="st5" d="M3186.59-3771.25h35.97v-10.49h-35.97V-3771.25z"/>
						</g>
						<g>
							<path id="DejaVuSans-53" class="st5" d="M3243.99-3716.82h52.93v-10.9h-40.58v-23.41c1.95,0.64,3.9,1.12,5.85,1.43
								c1.97,0.31,3.93,0.47,5.9,0.47c11.12,0,19.93-2.92,26.42-8.77c6.51-5.84,9.76-13.76,9.76-23.74
								c0-10.28-3.34-18.28-10.02-23.99c-6.68-5.69-16.09-8.54-28.24-8.54c-4.19,0-8.45,0.34-12.79,1.02
								c-4.33,0.68-8.81,1.71-13.44,3.07v13.01c4-2.09,8.14-3.65,12.41-4.67c4.27-1.02,8.79-1.54,13.54-1.54
								c7.7,0,13.8,1.94,18.28,5.82c4.5,3.88,6.75,9.15,6.75,15.81c0,6.65-2.25,11.92-6.75,15.79c-4.49,3.89-10.58,5.84-18.28,5.84
								c-3.6,0-7.2-0.38-10.79-1.15c-3.57-0.76-7.23-1.96-10.96-3.58V-3716.82z"/>
						</g>
						<g>
							<path id="DejaVuSans-48" class="st5" d="M3359.65-3725.34c-6.93,0-12.15-3.28-15.66-9.83c-3.49-6.54-5.23-16.39-5.23-29.54
								c0-13.1,1.74-22.92,5.23-29.48c3.5-6.55,8.72-9.83,15.66-9.83c6.99,0,12.23,3.28,15.72,9.83c3.5,6.56,5.25,16.38,5.25,29.48
								c0,13.15-1.75,23-5.25,29.54C3371.88-3728.62,3366.64-3725.34,3359.65-3725.34z M3359.65-3715.1
								c11.18,0,19.71-4.24,25.61-12.72c5.9-8.47,8.84-20.76,8.84-36.89c0-16.09-2.95-28.37-8.84-36.85
								c-5.9-8.47-14.43-12.7-25.61-12.7c-11.16,0-19.69,4.23-25.59,12.7c-5.9,8.48-8.84,20.76-8.84,36.85
								c0,16.13,2.95,28.43,8.84,36.89C3339.96-3719.34,3348.49-3715.1,3359.65-3715.1z"/>
						</g>
					</g>
				</g>
			</g>
			<g id="xtick_3">
				<g id="line2d_3">
					<g>
						<g>
							<path id="m7c3f22ed70_2_" class="st4" d="M780.74,904.7v-7.87"/>
						</g>
					</g>
				</g>
				<g id="text_3">
					<g transform="translate(236.557277 315.2465)scale(0.16 -0.16)">
						<g>
							<path id="DejaVuSans-45_2_" class="st5" d="M3296.17-3771.25h35.97v-10.49h-35.97V-3771.25z"/>
						</g>
						<g>
							<path id="DejaVuSans-50" class="st5" d="M3365.04-3801.52h47.05v-10.88h-63.27v10.88c5.11,5.08,12.08,11.9,20.91,20.44
								c8.84,8.56,14.4,14.09,16.66,16.57c4.31,4.64,7.33,8.58,9.03,11.8c1.72,3.22,2.58,6.39,2.58,9.5c0,5.08-1.86,9.22-5.57,12.41
								c-3.72,3.21-8.56,4.81-14.52,4.81c-4.23,0-8.69-0.7-13.39-2.11c-4.68-1.41-9.7-3.54-15.04-6.41v13.07
								c5.43,2.09,10.49,3.67,15.21,4.73c4.73,1.07,9.05,1.6,12.97,1.6c10.32,0,18.55-2.48,24.69-7.44
								c6.14-4.94,9.21-11.55,9.21-19.83c0-3.93-0.77-7.66-2.31-11.18c-1.52-3.51-4.31-7.65-8.37-12.43
								c-1.11-1.24-4.65-4.82-10.62-10.73C3384.31-3782.63,3375.91-3790.9,3365.04-3801.52z"/>
						</g>
						<g>
							<path id="DejaVuSans-53_1_" class="st5" d="M3440.54-3716.82h52.93v-10.9h-40.58v-23.41c1.95,0.64,3.9,1.12,5.85,1.43
								c1.97,0.31,3.93,0.47,5.9,0.47c11.12,0,19.93-2.92,26.42-8.77c6.51-5.84,9.76-13.76,9.76-23.74
								c0-10.28-3.34-18.28-10.02-23.99c-6.68-5.69-16.09-8.54-28.24-8.54c-4.19,0-8.45,0.34-12.79,1.02
								c-4.33,0.68-8.81,1.71-13.44,3.07v13.01c4-2.09,8.14-3.65,12.41-4.67c4.27-1.02,8.79-1.54,13.54-1.54
								c7.7,0,13.8,1.94,18.28,5.82c4.5,3.88,6.75,9.15,6.75,15.81c0,6.65-2.25,11.92-6.75,15.79c-4.49,3.89-10.58,5.84-18.28,5.84
								c-3.6,0-7.2-0.38-10.79-1.15c-3.57-0.76-7.23-1.96-10.96-3.58V-3716.82z"/>
						</g>
					</g>
				</g>
			</g>
			<g id="xtick_4">
				<g id="line2d_4">
					<g>
						<g>
							<path id="m7c3f22ed70_3_" class="st4" d="M846.04,904.7v-7.87"/>
						</g>
					</g>
				</g>
				<g id="text_4">
					<g transform="translate(292.3075 315.2465)scale(0.16 -0.16)">
						<g>
							<path id="DejaVuSans-48_1_" class="st5" d="M3460.8-3725.34c-6.93,0-12.15-3.28-15.66-9.83c-3.49-6.54-5.23-16.39-5.23-29.54
								c0-13.1,1.74-22.92,5.23-29.48c3.5-6.55,8.72-9.83,15.66-9.83c6.99,0,12.23,3.28,15.72,9.83c3.5,6.56,5.25,16.38,5.25,29.48
								c0,13.15-1.75,23-5.25,29.54C3473.04-3728.62,3467.8-3725.34,3460.8-3725.34z M3460.8-3715.1c11.18,0,19.71-4.24,25.61-12.72
								c5.9-8.47,8.84-20.76,8.84-36.89c0-16.09-2.95-28.37-8.84-36.85c-5.9-8.47-14.43-12.7-25.61-12.7
								c-11.16,0-19.69,4.23-25.59,12.7c-5.9,8.48-8.84,20.76-8.84,36.85c0,16.13,2.95,28.43,8.84,36.89
								C3441.11-3719.34,3449.64-3715.1,3460.8-3715.1z"/>
						</g>
					</g>
				</g>
			</g>
			<g id="xtick_5">
				<g id="line2d_5">
					<g>
						<g>
							<path id="m7c3f22ed70_4_" class="st4" d="M911.35,904.7v-7.87"/>
						</g>
					</g>
				</g>
				<g id="text_5">
					<g transform="translate(334.991473 315.2465)scale(0.16 -0.16)">
						<g>
							<path id="DejaVuSans-50_1_" class="st5" d="M3541.49-3801.52h47.05v-10.88h-63.27v10.88c5.11,5.08,12.08,11.9,20.91,20.44
								c8.84,8.56,14.4,14.09,16.66,16.57c4.31,4.64,7.33,8.58,9.04,11.8c1.72,3.22,2.58,6.39,2.58,9.5c0,5.08-1.86,9.22-5.57,12.41
								c-3.72,3.21-8.56,4.81-14.52,4.81c-4.23,0-8.69-0.7-13.39-2.11c-4.68-1.41-9.7-3.54-15.04-6.41v13.07
								c5.43,2.09,10.49,3.67,15.21,4.73c4.73,1.07,9.05,1.6,12.97,1.6c10.32,0,18.55-2.48,24.69-7.44
								c6.14-4.94,9.21-11.55,9.21-19.83c0-3.93-0.77-7.66-2.31-11.18c-1.52-3.51-4.31-7.65-8.37-12.43
								c-1.11-1.24-4.65-4.82-10.62-10.73C3560.77-3782.63,3552.36-3790.9,3541.49-3801.52z"/>
						</g>
						<g>
							<path id="DejaVuSans-53_2_" class="st5" d="M3617-3716.82h52.93v-10.9h-40.58v-23.41c1.95,0.64,3.9,1.12,5.85,1.43
								c1.96,0.31,3.93,0.47,5.9,0.47c11.12,0,19.93-2.92,26.42-8.77c6.51-5.84,9.76-13.76,9.76-23.74
								c0-10.28-3.34-18.28-10.02-23.99c-6.68-5.69-16.09-8.54-28.24-8.54c-4.19,0-8.45,0.34-12.79,1.02
								c-4.33,0.68-8.81,1.71-13.44,3.07v13.01c4-2.09,8.14-3.65,12.41-4.67c4.27-1.02,8.79-1.54,13.54-1.54
								c7.7,0,13.8,1.94,18.28,5.82c4.5,3.88,6.75,9.15,6.75,15.81c0,6.65-2.25,11.92-6.75,15.79c-4.49,3.89-10.58,5.84-18.28,5.84
								c-3.6,0-7.2-0.38-10.79-1.15c-3.57-0.76-7.23-1.96-10.96-3.58V-3716.82z"/>
						</g>
					</g>
				</g>
			</g>
			<g id="xtick_6">
				<g id="line2d_6">
					<g>
						<g>
							<path id="m7c3f22ed70_5_" class="st4" d="M976.66,904.7v-7.87"/>
						</g>
					</g>
				</g>
				<g id="text_6">
					<g transform="translate(382.765445 315.2465)scale(0.16 -0.16)">
						<g>
							<path id="DejaVuSans-53_3_" class="st5" d="M3639.6-3716.82h52.93v-10.9h-40.58v-23.41c1.95,0.64,3.9,1.12,5.85,1.43
								c1.97,0.31,3.93,0.47,5.9,0.47c11.12,0,19.93-2.92,26.42-8.77c6.51-5.84,9.76-13.76,9.76-23.74
								c0-10.28-3.34-18.28-10.02-23.99c-6.68-5.69-16.09-8.54-28.24-8.54c-4.19,0-8.45,0.34-12.79,1.02
								c-4.33,0.68-8.81,1.71-13.44,3.07v13.01c4-2.09,8.14-3.65,12.41-4.67c4.27-1.02,8.79-1.54,13.54-1.54
								c7.7,0,13.8,1.94,18.28,5.82c4.5,3.88,6.75,9.15,6.75,15.81c0,6.65-2.25,11.92-6.75,15.79c-4.49,3.89-10.58,5.84-18.28,5.84
								c-3.6,0-7.2-0.38-10.79-1.15c-3.57-0.76-7.23-1.96-10.96-3.58V-3716.82z"/>
						</g>
						<g>
							<path id="DejaVuSans-48_2_" class="st5" d="M3755.26-3725.34c-6.93,0-12.15-3.28-15.66-9.83
								c-3.49-6.54-5.23-16.39-5.23-29.54c0-13.1,1.74-22.92,5.23-29.48c3.5-6.55,8.72-9.83,15.66-9.83
								c6.99,0,12.23,3.28,15.72,9.83c3.5,6.56,5.25,16.38,5.25,29.48c0,13.15-1.75,23-5.25,29.54
								C3767.49-3728.62,3762.25-3725.34,3755.26-3725.34z M3755.26-3715.1c11.18,0,19.71-4.24,25.61-12.72
								c5.9-8.47,8.84-20.76,8.84-36.89c0-16.09-2.95-28.37-8.84-36.85c-5.9-8.47-14.43-12.7-25.61-12.7
								c-11.16,0-19.69,4.23-25.59,12.7c-5.9,8.48-8.84,20.76-8.84,36.85c0,16.13,2.95,28.43,8.84,36.89
								C3735.57-3719.34,3744.1-3715.1,3755.26-3715.1z"/>
						</g>
					</g>
				</g>
			</g>
			<g id="xtick_7">
				<g id="line2d_7">
					<g>
						<g>
							<path id="m7c3f22ed70_6_" class="st4" d="M1036.74,904.7v-7.87"/>
						</g>
					</g>
				</g>
				<g id="text_7">
					<g transform="translate(426.7175 315.2465)scale(0.16 -0.16)">
						<g>
							<path id="DejaVuSans-55_1_" class="st5" d="M3736.87-3716.82h64.08v-5.51l-36.18-90.07h-14.08l34.05,84.68h-47.87V-3716.82z"
								/>
						</g>
						<g>
							<path id="DejaVuSans-51_1_" class="st5" d="M3868.1-3760.86c6.45-1.32,11.48-4.08,15.1-8.28c3.63-4.18,5.45-9.34,5.45-15.49
								c0-9.42-3.38-16.72-10.15-21.9c-6.76-5.16-16.38-7.74-28.83-7.74c-4.17,0-8.47,0.4-12.9,1.19c-4.43,0.79-9,1.98-13.71,3.56
								v12.48c3.73-2.09,7.82-3.67,12.26-4.73c4.46-1.07,9.11-1.6,13.97-1.6c8.44,0,14.88,1.6,19.31,4.79
								c4.43,3.2,6.64,7.85,6.64,13.95c0,5.64-2.06,10.04-6.17,13.21c-4.12,3.18-9.84,4.77-17.17,4.77h-11.62v10.63h12.15
								c6.62,0,11.69,1.27,15.21,3.81c3.52,2.54,5.28,6.2,5.28,10.98c0,4.9-1.82,8.67-5.45,11.29c-3.62,2.64-8.81,3.95-15.57,3.95
								c-3.7,0-7.67-0.39-11.9-1.17c-4.23-0.76-8.88-1.95-13.95-3.56v11.51c5.13,1.37,9.93,2.39,14.4,3.07s8.69,1.02,12.64,1.02
								c10.24,0,18.33-2.23,24.29-6.7c5.97-4.45,8.95-10.47,8.95-18.07c0-5.3-1.58-9.77-4.74-13.42
								C3878.42-3756.93,3873.92-3759.45,3868.1-3760.86z"/>
						</g>
					</g>
				</g>
			</g>
			<g id="text_8">
				<g transform="translate(168.03375 334.7315)scale(0.16 -0.16)">
					<g>
						<path id="DejaVuSans-80" class="st5" d="M3159.21-3765.33v-35.91h16.96c6.28,0,11.13,1.56,14.55,4.67
							c3.43,3.11,5.15,7.55,5.15,13.32c0,5.72-1.72,10.14-5.15,13.25c-3.42,3.11-8.27,4.67-14.55,4.67H3159.21z M3145.73-3754.7
							h30.44c11.18,0,19.62-2.42,25.33-7.27c5.72-4.85,8.59-11.94,8.59-21.28c0-9.44-2.86-16.57-8.59-21.39
							c-5.71-4.82-14.15-7.23-25.33-7.23h-16.96v-38.41h-13.48V-3754.7z"/>
					</g>
					<g>
						<path id="DejaVuSans-114" class="st5" d="M3270.92-3789.58c-1.38,0.76-2.88,1.32-4.51,1.68c-1.62,0.37-3.41,0.55-5.36,0.55
							c-6.95,0-12.28-2.16-16-6.49s-5.57-10.55-5.57-18.66v-37.77h-12.35v71.7h12.35v-11.14c2.59,4.36,5.95,7.59,10.08,9.69
							c4.14,2.12,9.18,3.18,15.1,3.18c0.84,0,1.77-0.05,2.8-0.16c1.03-0.1,2.16-0.25,3.4-0.47L3270.92-3789.58z"/>
					</g>
					<g>
						<path id="DejaVuSans-101" class="st5" d="M3347.71-3811.48v-5.76h-56.47c0.54-8.11,3.09-14.29,7.65-18.54
							c4.56-4.25,10.91-6.37,19.05-6.37c4.71,0,9.28,0.55,13.71,1.66c4.43,1.11,8.83,2.77,13.2,5v-11.14
							c-4.41-1.79-8.94-3.15-13.56-4.1c-4.63-0.94-9.32-1.41-14.08-1.41c-11.93,0-21.38,3.33-28.34,9.98
							c-6.96,6.66-10.44,15.68-10.44,27.04c0,11.73,3.3,21.04,9.91,27.92c6.61,6.9,15.52,10.34,26.74,10.34
							c10.05,0,18.01-3.11,23.86-9.32C3344.79-3792.38,3347.71-3800.81,3347.71-3811.48z M3335.43-3808.02
							c-0.09,6.43-1.97,11.57-5.64,15.4c-3.67,3.85-8.54,5.78-14.59,5.78c-6.85,0-12.33-1.86-16.45-5.57s-6.49-8.95-7.11-15.69
							L3335.43-3808.02z"/>
					</g>
					<g>
						<path id="DejaVuSans-118" class="st5" d="M3359.07-3778.58h13.01l23.37-60.16l23.37,60.16h13.01l-28.04-71.7h-16.68
							L3359.07-3778.58z"/>
					</g>
					<g>
						<path id="DejaVuSans-105" class="st5" d="M3448.76-3778.58h12.28v-71.7h-12.28V-3778.58z M3448.76-3750.66h12.28v-14.93
							h-12.28V-3750.66z"/>
					</g>
					<g>
						<path id="DejaVuSans-111" class="st5" d="M3515.71-3786.84c-6.58,0-11.78-2.47-15.61-7.4c-3.83-4.93-5.75-11.68-5.75-20.26
							c0-8.58,1.9-15.33,5.7-20.26c3.82-4.93,9.03-7.4,15.66-7.4c6.55,0,11.73,2.47,15.55,7.42c3.83,4.96,5.75,11.7,5.75,20.24
							c0,8.49-1.92,15.23-5.75,20.2C3527.44-3789.32,3522.26-3786.84,3515.71-3786.84z M3515.71-3776.86
							c10.68,0,19.07-3.33,25.16-10c6.11-6.65,9.16-15.86,9.16-27.63c0-11.73-3.05-20.94-9.16-27.63
							c-6.09-6.68-14.48-10.02-25.16-10.02c-10.72,0-19.12,3.34-25.2,10.02c-6.07,6.69-9.1,15.9-9.1,27.63
							c0,11.77,3.03,20.98,9.1,27.63C3496.58-3780.19,3504.98-3776.86,3515.71-3776.86z"/>
					</g>
					<g>
						<path id="DejaVuSans-117" class="st5" d="M3569.12-3821.99v43.41h12.28v-42.96c0-6.79,1.37-11.88,4.12-15.28
							c2.76-3.39,6.91-5.08,12.43-5.08c6.62,0,11.85,2.03,15.7,6.08c3.86,4.06,5.79,9.59,5.79,16.59v40.64h12.28v-71.7h-12.28v11.02
							c-2.98-4.36-6.44-7.59-10.38-9.71c-3.93-2.12-8.5-3.18-13.71-3.18c-8.59,0-15.11,2.56-19.56,7.68
							C3571.34-3839.34,3569.12-3831.85,3569.12-3821.99z"/>
					</g>
					<g>
						<path id="DejaVuSans-115" class="st5" d="M3704.67-3780.69v-11.14c-3.46,1.71-7.06,2.98-10.81,3.83
							c-3.73,0.86-7.6,1.29-11.62,1.29c-6.09,0-10.67-0.89-13.71-2.68c-3.05-1.79-4.57-4.48-4.57-8.07c0-2.73,1.09-4.88,3.27-6.43
							c2.18-1.56,6.56-3.04,13.16-4.45l4.21-0.9c8.71-1.79,14.91-4.32,18.58-7.58s5.51-7.82,5.51-13.66
							c0-6.66-2.75-11.94-8.24-15.83c-5.5-3.88-13.05-5.82-22.66-5.82c-4,0-8.17,0.38-12.52,1.13c-4.34,0.75-8.91,1.87-13.71,3.36
							v12.17c4.54-2.27,9.01-3.97,13.41-5.1c4.4-1.12,8.76-1.68,13.09-1.68c5.78,0,10.22,0.95,13.33,2.85
							c3.12,1.9,4.68,4.57,4.68,8.03c0,3.2-1.12,5.65-3.37,7.35c-2.24,1.71-7.16,3.35-14.78,4.94l-4.27,0.96
							c-7.6,1.53-13.1,3.89-16.49,7.07c-3.37,3.18-5.06,7.55-5.06,13.09c0,6.75,2.49,11.95,7.48,15.61
							c4.98,3.67,12.06,5.51,21.23,5.51c4.53,0,8.79-0.32,12.79-0.96C3697.6-3778.45,3701.29-3779.41,3704.67-3780.69z"/>
					</g>
					<g>
						<path id="DejaVuSans-32" class="st5" d="M3715.36-3850.28"/>
					</g>
					<g>
						<path id="DejaVuSans-84" class="st5" d="M3758.4-3754.7h84.3v-10.9h-35.37v-84.68h-13.54v84.68h-35.39V-3754.7z"/>
					</g>
					<g>
						<path id="DejaVuSans-117_1_" class="st5" d="M3853.61-3821.99v43.41h12.28v-42.96c0-6.79,1.37-11.88,4.12-15.28
							c2.76-3.39,6.91-5.08,12.43-5.08c6.62,0,11.85,2.03,15.7,6.08c3.86,4.06,5.79,9.59,5.79,16.59v40.64h12.28v-71.7h-12.28v11.02
							c-2.98-4.36-6.44-7.59-10.38-9.71c-3.93-2.12-8.5-3.18-13.71-3.18c-8.59,0-15.11,2.56-19.57,7.68
							C3855.83-3839.34,3853.61-3831.85,3853.61-3821.99z"/>
					</g>
					<g>
						<path id="DejaVuSans-109" class="st5" d="M3999.71-3792.35c3.08,5.3,6.75,9.2,11.02,11.72c4.27,2.51,9.3,3.77,15.08,3.77
							c7.79,0,13.8-2.62,18.03-7.85c4.23-5.22,6.34-12.65,6.34-22.29v-43.28h-12.35v42.9c0,6.87-1.27,11.96-3.82,15.28
							c-2.53,3.33-6.4,5-11.6,5c-6.37,0-11.4-2.03-15.1-6.08c-3.69-4.04-5.53-9.57-5.53-16.57v-40.52h-12.35v42.9
							c0,6.91-1.27,12.02-3.8,15.32s-6.45,4.96-11.75,4.96c-6.28,0-11.27-2.03-14.97-6.1c-3.69-4.07-5.53-9.59-5.53-16.55v-40.52
							h-12.35v71.7h12.35v-11.14c2.81,4.4,6.17,7.64,10.08,9.73c3.92,2.09,8.57,3.13,13.95,3.13c5.44,0,10.06-1.32,13.86-3.97
							C3995.08-3783.47,3997.89-3787.31,3999.71-3792.35z"/>
					</g>
					<g>
						<path id="DejaVuSans-111_1_" class="st5" d="M4103.63-3786.84c-6.58,0-11.78-2.47-15.61-7.4c-3.83-4.93-5.75-11.68-5.75-20.26
							c0-8.58,1.9-15.33,5.7-20.26c3.82-4.93,9.03-7.4,15.66-7.4c6.55,0,11.73,2.47,15.55,7.42c3.83,4.96,5.75,11.7,5.75,20.24
							c0,8.49-1.92,15.23-5.75,20.2C4115.37-3789.32,4110.18-3786.84,4103.63-3786.84z M4103.63-3776.86
							c10.68,0,19.07-3.33,25.16-10c6.11-6.65,9.16-15.86,9.16-27.63c0-11.73-3.05-20.94-9.16-27.63
							c-6.09-6.68-14.48-10.02-25.16-10.02c-10.72,0-19.12,3.34-25.2,10.02c-6.07,6.69-9.1,15.9-9.1,27.63
							c0,11.77,3.03,20.98,9.1,27.63C4084.51-3780.19,4092.91-3776.86,4103.63-3776.86z"/>
					</g>
					<g>
						<path id="DejaVuSans-114_1_" class="st5" d="M4201.62-3789.58c-1.38,0.76-2.88,1.32-4.51,1.68c-1.62,0.37-3.41,0.55-5.36,0.55
							c-6.95,0-12.28-2.16-16-6.49c-3.72-4.33-5.58-10.55-5.58-18.66v-37.77h-12.35v71.7h12.35v-11.14
							c2.59,4.36,5.95,7.59,10.08,9.69c4.14,2.12,9.18,3.18,15.1,3.18c0.84,0,1.77-0.05,2.8-0.16c1.02-0.1,2.16-0.25,3.4-0.47
							L4201.62-3789.58z"/>
					</g>
					<g>
						<path id="DejaVuSans-32_1_" class="st5" d="M4201.63-3850.28"/>
					</g>
					<g>
						<path id="DejaVuSans-45_3_" class="st5" d="M4251.77-3809.12h35.97v-10.49h-35.97V-3809.12z"/>
					</g>
					<g>
						<path id="DejaVuSans-32_2_" class="st5" d="M4294.41-3850.28"/>
					</g>
					<g>
						<path id="DejaVuSans-67" class="st5" d="M4425.9-3762.07v-13.62c-4.54,4.06-9.38,7.08-14.52,9.07
							c-5.14,2.01-10.6,3.01-16.38,3.01c-11.39,0-20.11-3.34-26.17-10.02c-6.05-6.68-9.08-16.33-9.08-28.97
							c0-12.59,3.03-22.23,9.08-28.9c6.05-6.68,14.77-10.02,26.17-10.02c5.78,0,11.24,1,16.38,3.01c5.14,2.01,9.98,5.04,14.52,9.1
							v-13.52c-4.71-3.07-9.71-5.38-14.99-6.92c-5.27-1.53-10.84-2.29-16.7-2.29c-15.09,0-26.98,4.42-35.67,13.27
							c-8.67,8.86-13.01,20.96-13.01,36.28c0,15.36,4.34,27.47,13.01,36.32c8.69,8.86,20.58,13.29,35.67,13.29
							c5.95,0,11.56-0.76,16.83-2.27C4416.32-3756.76,4421.27-3759.04,4425.9-3762.07z"/>
					</g>
					<g>
						<path id="DejaVuSans-117_2_" class="st5" d="M4444.93-3821.99v43.41h12.28v-42.96c0-6.79,1.37-11.88,4.12-15.28
							c2.76-3.39,6.91-5.08,12.43-5.08c6.62,0,11.85,2.03,15.7,6.08c3.86,4.06,5.79,9.59,5.79,16.59v40.64h12.28v-71.7h-12.28v11.02
							c-2.98-4.36-6.44-7.59-10.38-9.71c-3.93-2.12-8.5-3.18-13.71-3.18c-8.59,0-15.11,2.56-19.56,7.68
							C4447.15-3839.34,4444.93-3831.85,4444.93-3821.99z"/>
					</g>
					<g>
						<path id="DejaVuSans-114_2_" class="st5" d="M4576.14-3789.58c-1.38,0.76-2.88,1.32-4.51,1.68c-1.62,0.37-3.41,0.55-5.36,0.55
							c-6.95,0-12.28-2.16-16-6.49c-3.72-4.33-5.57-10.55-5.57-18.66v-37.77h-12.35v71.7h12.35v-11.14
							c2.59,4.36,5.95,7.59,10.08,9.69c4.14,2.12,9.18,3.18,15.1,3.18c0.84,0,1.77-0.05,2.8-0.16c1.03-0.1,2.16-0.25,3.4-0.47
							L4576.14-3789.58z"/>
					</g>
					<g>
						<path id="DejaVuSans-114_3_" class="st5" d="M4632.32-3789.58c-1.38,0.76-2.88,1.32-4.51,1.68c-1.62,0.37-3.41,0.55-5.36,0.55
							c-6.95,0-12.28-2.16-16-6.49c-3.72-4.33-5.57-10.55-5.57-18.66v-37.77h-12.35v71.7h12.35v-11.14
							c2.59,4.36,5.95,7.59,10.08,9.69c4.14,2.12,9.18,3.18,15.1,3.18c0.84,0,1.77-0.05,2.8-0.16c1.03-0.1,2.16-0.25,3.4-0.47
							L4632.32-3789.58z"/>
					</g>
					<g>
						<path id="DejaVuSans-101_1_" class="st5" d="M4709.11-3811.48v-5.76h-56.47c0.54-8.11,3.09-14.29,7.65-18.54
							c4.56-4.25,10.91-6.37,19.05-6.37c4.71,0,9.28,0.55,13.71,1.66c4.43,1.11,8.83,2.77,13.2,5v-11.14
							c-4.41-1.79-8.94-3.15-13.56-4.1c-4.63-0.94-9.32-1.41-14.08-1.41c-11.93,0-21.38,3.33-28.34,9.98
							c-6.96,6.66-10.44,15.68-10.44,27.04c0,11.73,3.3,21.04,9.91,27.92c6.61,6.9,15.52,10.34,26.74,10.34
							c10.05,0,18.01-3.11,23.86-9.32C4706.19-3792.38,4709.11-3800.81,4709.11-3811.48z M4696.83-3808.02
							c-0.09,6.43-1.96,11.57-5.64,15.4c-3.67,3.85-8.54,5.78-14.59,5.78c-6.85,0-12.33-1.86-16.45-5.57s-6.49-8.95-7.11-15.69
							L4696.83-3808.02z"/>
					</g>
					<g>
						<path id="DejaVuSans-110" class="st5" d="M4791.42-3806.99v-43.28h-12.28v42.9c0,6.79-1.38,11.86-4.14,15.22
							c-2.76,3.37-6.9,5.06-12.41,5.06c-6.64,0-11.87-2.03-15.7-6.08c-3.83-4.04-5.75-9.57-5.75-16.57v-40.52h-12.35v71.7h12.35
							v-11.14c2.95,4.32,6.41,7.54,10.38,9.67c3.99,2.13,8.59,3.2,13.8,3.2c8.59,0,15.08-2.55,19.48-7.64
							C4789.22-3789.59,4791.42-3797.09,4791.42-3806.99z"/>
					</g>
					<g>
						<path id="DejaVuSans-116" class="st5" d="M4828.06-3758.22v-20.36h25.29v-9.16h-25.29v-38.92c0-5.84,0.83-9.6,2.5-11.27
							c1.67-1.67,5.06-2.5,10.19-2.5h12.6v-9.85h-12.6c-9.48,0-16.03,1.69-19.63,5.08c-3.6,3.4-5.4,9.58-5.4,18.54v38.92h-9.01v9.16
							h9.01v20.36H4828.06z"/>
					</g>
					<g>
						<path id="DejaVuSans-32_3_" class="st5" d="M4856.62-3850.28"/>
					</g>
					<g>
						<path id="DejaVuSans-84_1_" class="st5" d="M4899.67-3754.7h84.3v-10.9h-35.37v-84.68h-13.54v84.68h-35.39V-3754.7z"/>
					</g>
					<g>
						<path id="DejaVuSans-117_3_" class="st5" d="M4994.88-3821.99v43.41h12.28v-42.96c0-6.79,1.37-11.88,4.12-15.28
							c2.76-3.39,6.91-5.08,12.43-5.08c6.62,0,11.85,2.03,15.7,6.08c3.86,4.06,5.79,9.59,5.79,16.59v40.64h12.28v-71.7h-12.28v11.02
							c-2.98-4.36-6.44-7.59-10.38-9.71c-3.93-2.12-8.5-3.18-13.71-3.18c-8.59,0-15.11,2.56-19.56,7.68
							C4997.1-3839.34,4994.88-3831.85,4994.88-3821.99z"/>
					</g>
					<g>
						<path id="DejaVuSans-109_1_" class="st5" d="M5140.98-3792.35c3.08,5.3,6.75,9.2,11.02,11.72c4.27,2.51,9.3,3.77,15.08,3.77
							c7.79,0,13.8-2.62,18.03-7.85c4.23-5.22,6.34-12.65,6.34-22.29v-43.28h-12.35v42.9c0,6.87-1.27,11.96-3.82,15.28
							c-2.53,3.33-6.4,5-11.6,5c-6.37,0-11.4-2.03-15.1-6.08c-3.69-4.04-5.53-9.57-5.53-16.57v-40.52h-12.35v42.9
							c0,6.91-1.27,12.02-3.8,15.32s-6.45,4.96-11.75,4.96c-6.28,0-11.27-2.03-14.97-6.1c-3.69-4.07-5.53-9.59-5.53-16.55v-40.52
							h-12.35v71.7h12.35v-11.14c2.81,4.4,6.17,7.64,10.08,9.73c3.92,2.09,8.56,3.13,13.95,3.13c5.44,0,10.06-1.32,13.86-3.97
							C5136.35-3783.47,5139.16-3787.31,5140.98-3792.35z"/>
					</g>
					<g>
						<path id="DejaVuSans-111_2_" class="st5" d="M5244.9-3786.84c-6.58,0-11.78-2.47-15.61-7.4s-5.75-11.68-5.75-20.26
							c0-8.58,1.9-15.33,5.7-20.26c3.82-4.93,9.03-7.4,15.66-7.4c6.55,0,11.73,2.47,15.55,7.42c3.83,4.96,5.75,11.7,5.75,20.24
							c0,8.49-1.92,15.23-5.75,20.2C5256.63-3789.32,5251.45-3786.84,5244.9-3786.84z M5244.9-3776.86c10.68,0,19.07-3.33,25.16-10
							c6.11-6.65,9.16-15.86,9.16-27.63c0-11.73-3.05-20.94-9.16-27.63c-6.09-6.68-14.48-10.02-25.16-10.02
							c-10.72,0-19.12,3.34-25.2,10.02c-6.07,6.69-9.1,15.9-9.1,27.63c0,11.77,3.03,20.98,9.1,27.63
							C5225.78-3780.19,5234.18-3776.86,5244.9-3776.86z"/>
					</g>
					<g>
						<path id="DejaVuSans-114_4_" class="st5" d="M5342.89-3789.58c-1.38,0.76-2.88,1.32-4.51,1.68c-1.62,0.37-3.41,0.55-5.36,0.55
							c-6.95,0-12.28-2.16-16-6.49c-3.72-4.33-5.57-10.55-5.57-18.66v-37.77h-12.35v71.7h12.35v-11.14
							c2.59,4.36,5.95,7.59,10.08,9.69c4.14,2.12,9.18,3.18,15.1,3.18c0.84,0,1.77-0.05,2.8-0.16c1.03-0.1,2.16-0.25,3.4-0.47
							L5342.89-3789.58z"/>
					</g>
				</g>
				<g transform="translate(240.27875 352.648)scale(0.16 -0.16)">
					<g>
						<path id="DejaVuSans-32_4_" class="st5" d="M3298.02-3885.11"/>
					</g>
					<g>
						<path id="DejaVuSans-40" class="st5" d="M3383.85-3785.63c-5.95-9.81-10.38-19.52-13.29-29.13
							c-2.89-9.6-4.34-19.33-4.34-29.19c0-9.85,1.46-19.6,4.38-29.27c2.92-9.67,7.33-19.39,13.24-29.17h-10.68
							c-6.66,10.04-11.66,19.9-14.97,29.58c-3.32,9.68-4.98,19.3-4.98,28.86c0,9.52,1.64,19.1,4.93,28.74
							c3.3,9.66,8.31,19.52,15.02,29.58H3383.85z"/>
					</g>
					<g>
						<path id="DejaVuSans-109_2_" class="st5" d="M3465.89-3827.18c3.08,5.3,6.75,9.2,11.02,11.72c4.27,2.51,9.3,3.77,15.08,3.77
							c7.79,0,13.8-2.62,18.03-7.85c4.23-5.22,6.34-12.65,6.34-22.29v-43.28h-12.35v42.9c0,6.87-1.27,11.96-3.82,15.28
							c-2.53,3.33-6.4,5-11.6,5c-6.36,0-11.4-2.03-15.1-6.08c-3.69-4.04-5.53-9.57-5.53-16.57v-40.52h-12.35v42.9
							c0,6.91-1.27,12.02-3.8,15.32c-2.53,3.3-6.45,4.96-11.75,4.96c-6.28,0-11.27-2.03-14.97-6.1c-3.69-4.07-5.53-9.59-5.53-16.55
							v-40.52h-12.35v71.7h12.35v-11.14c2.81,4.4,6.17,7.64,10.08,9.73c3.92,2.09,8.56,3.13,13.95,3.13
							c5.44,0,10.06-1.32,13.86-3.97C3461.25-3818.3,3464.07-3822.14,3465.89-3827.18z"/>
					</g>
					<g>
						<path id="DejaVuSans-111_3_" class="st5" d="M3569.81-3821.66c-6.58,0-11.78-2.47-15.61-7.4c-3.83-4.93-5.75-11.68-5.75-20.26
							c0-8.58,1.9-15.33,5.7-20.26c3.82-4.93,9.03-7.4,15.66-7.4c6.55,0,11.73,2.47,15.55,7.42c3.83,4.96,5.75,11.7,5.75,20.24
							c0,8.49-1.92,15.23-5.75,20.2C3581.54-3824.15,3576.36-3821.66,3569.81-3821.66z M3569.81-3811.69
							c10.68,0,19.07-3.33,25.16-10c6.11-6.65,9.16-15.86,9.16-27.63c0-11.73-3.05-20.94-9.16-27.63
							c-6.09-6.68-14.48-10.02-25.16-10.02c-10.72,0-19.12,3.34-25.2,10.02c-6.07,6.69-9.1,15.9-9.1,27.63
							c0,11.77,3.03,20.98,9.1,27.63C3550.69-3815.02,3559.09-3811.69,3569.81-3811.69z"/>
					</g>
					<g>
						<path id="DejaVuSans-114_5_" class="st5" d="M3667.8-3824.41c-1.38,0.76-2.88,1.32-4.51,1.68c-1.62,0.37-3.41,0.55-5.36,0.55
							c-6.95,0-12.28-2.16-16-6.49s-5.57-10.55-5.57-18.66v-37.77h-12.35v71.7h12.35v-11.14c2.59,4.36,5.95,7.59,10.08,9.69
							c4.14,2.12,9.18,3.18,15.1,3.18c0.84,0,1.77-0.05,2.8-0.16c1.03-0.1,2.16-0.25,3.4-0.47L3667.8-3824.41z"/>
					</g>
					<g>
						<path id="DejaVuSans-112" class="st5" d="M3692.56-3874.35v-38.02h-12.35v98.96h12.35v-10.88c2.59,4.26,5.85,7.42,9.78,9.48
							c3.94,2.08,8.65,3.11,14.12,3.11c9.08,0,16.46-3.46,22.13-10.37c5.68-6.91,8.52-16,8.52-27.27c0-11.27-2.84-20.36-8.52-27.29
							c-5.67-6.91-13.04-10.37-22.13-10.37c-5.47,0-10.17,1.04-14.12,3.11C3698.41-3881.78,3695.15-3878.61,3692.56-3874.35z
							 M3734.36-3849.32c0,8.66-1.86,15.45-5.57,20.38s-8.82,7.4-15.31,7.4c-6.51,0-11.62-2.47-15.34-7.4s-5.57-11.72-5.57-20.38
							c0-8.66,1.86-15.45,5.57-20.38c3.72-4.93,8.83-7.4,15.34-7.4c6.49,0,11.6,2.47,15.31,7.4
							C3732.5-3864.77,3734.36-3857.98,3734.36-3849.32z"/>
					</g>
					<g>
						<path id="DejaVuSans-104" class="st5" d="M3829.61-3841.82v-43.28h-12.28v42.9c0,6.79-1.38,11.86-4.14,15.22
							c-2.76,3.37-6.9,5.06-12.41,5.06c-6.64,0-11.87-2.03-15.7-6.08c-3.83-4.04-5.75-9.57-5.75-16.57v-40.52h-12.35v99.62h12.35
							v-39.06c2.95,4.32,6.41,7.54,10.38,9.67c3.99,2.13,8.59,3.2,13.8,3.2c8.59,0,15.08-2.55,19.48-7.64
							C3827.4-3824.42,3829.61-3831.92,3829.61-3841.82z"/>
					</g>
					<g>
						<path id="DejaVuSans-32_5_" class="st5" d="M3841.21-3885.11"/>
					</g>
					<g>
						<path id="DejaVuSans-117_4_" class="st5" d="M3896.29-3856.82v43.41h12.28v-42.96c0-6.79,1.37-11.88,4.12-15.28
							c2.76-3.39,6.91-5.08,12.43-5.08c6.62,0,11.85,2.03,15.7,6.08c3.86,4.06,5.79,9.59,5.79,16.59v40.64h12.28v-71.7h-12.28v11.02
							c-2.98-4.36-6.44-7.59-10.38-9.71c-3.93-2.12-8.5-3.18-13.71-3.18c-8.59,0-15.11,2.56-19.56,7.68
							C3898.51-3874.17,3896.29-3866.68,3896.29-3856.82z"/>
					</g>
					<g>
						<path id="DejaVuSans-110_1_" class="st5" d="M4046.34-3841.82v-43.28h-12.28v42.9c0,6.79-1.38,11.86-4.14,15.22
							c-2.76,3.37-6.9,5.06-12.41,5.06c-6.64,0-11.87-2.03-15.7-6.08c-3.83-4.04-5.75-9.57-5.75-16.57v-40.52h-12.35v71.7h12.35
							v-11.14c2.95,4.32,6.41,7.54,10.38,9.67c3.99,2.13,8.59,3.2,13.8,3.2c8.59,0,15.08-2.55,19.48-7.64
							C4044.13-3824.42,4046.34-3831.92,4046.34-3841.82z"/>
					</g>
					<g>
						<path id="DejaVuSans-105_1_" class="st5" d="M4070.82-3813.41h12.28v-71.7h-12.28V-3813.41z M4070.82-3785.49h12.28v-14.93
							h-12.28V-3785.49z"/>
					</g>
					<g>
						<path id="DejaVuSans-116_1_" class="st5" d="M4120.96-3793.05v-20.36h25.29v-9.16h-25.29v-38.92c0-5.84,0.83-9.6,2.5-11.27
							c1.67-1.67,5.06-2.5,10.19-2.5h12.6v-9.85h-12.6c-9.48,0-16.03,1.69-19.63,5.08c-3.6,3.4-5.4,9.58-5.4,18.54v38.92h-9.01v9.16
							h9.01v20.36H4120.96z"/>
					</g>
					<g>
						<path id="DejaVuSans-115_1_" class="st5" d="M4210.05-3815.52v-11.14c-3.46,1.71-7.06,2.98-10.81,3.83
							c-3.73,0.86-7.6,1.29-11.62,1.29c-6.09,0-10.67-0.89-13.71-2.68c-3.05-1.79-4.57-4.48-4.57-8.07c0-2.73,1.09-4.88,3.27-6.43
							c2.18-1.56,6.56-3.04,13.16-4.45l4.21-0.9c8.71-1.79,14.91-4.32,18.58-7.58s5.51-7.82,5.51-13.66
							c0-6.66-2.75-11.94-8.24-15.83c-5.5-3.88-13.05-5.82-22.66-5.82c-4,0-8.17,0.38-12.52,1.13c-4.34,0.75-8.91,1.87-13.71,3.36
							v12.17c4.54-2.27,9.01-3.97,13.41-5.1c4.4-1.12,8.76-1.68,13.09-1.68c5.78,0,10.22,0.95,13.33,2.85
							c3.12,1.9,4.68,4.57,4.68,8.03c0,3.2-1.12,5.65-3.37,7.35c-2.24,1.71-7.16,3.35-14.78,4.94l-4.27,0.96
							c-7.6,1.53-13.1,3.89-16.49,7.07c-3.37,3.18-5.06,7.55-5.06,13.09c0,6.75,2.49,11.95,7.48,15.61
							c4.98,3.67,12.06,5.51,21.23,5.51c4.53,0,8.79-0.32,12.79-0.96C4202.98-3813.28,4206.68-3814.24,4210.05-3815.52z"/>
					</g>
					<g>
						<path id="DejaVuSans-41" class="st5" d="M4231.7-3785.63h10.68c6.66-10.06,11.65-19.92,14.97-29.58
							c3.32-9.64,4.98-19.22,4.98-28.74c0-9.56-1.66-19.18-4.98-28.86c-3.32-9.68-8.31-19.54-14.97-29.58h-10.68
							c5.91,9.78,10.32,19.5,13.24,29.17c2.92,9.67,4.38,19.43,4.38,29.27c0,9.86-1.46,19.59-4.38,29.19
							C4242.02-3805.15,4237.61-3795.44,4231.7-3785.63z"/>
					</g>
				</g>
			</g>
		</g>
		<g id="matplotlib.axis_2">
			<g id="ytick_1">
				<g id="line2d_8">
					<g>
						<g>
							<path id="m013f687cd3" class="st4" d="M655.35,904.7h8.2"/>
						</g>
					</g>
				</g>
				<g id="text_9">
					<g transform="translate(130.81 305.66775)scale(0.16 -0.16)">
						<g>
							<path id="DejaVuSans-8722" class="st5" d="M3061.42-3747.24h85.57v-10.88h-85.57V-3747.24z"/>
						</g>
						<g>
							<path id="DejaVuSans-51_2_" class="st5" d="M3216.94-3742.24c6.45-1.32,11.48-4.08,15.1-8.28c3.63-4.18,5.45-9.34,5.45-15.49
								c0-9.42-3.38-16.72-10.15-21.9c-6.76-5.16-16.38-7.74-28.83-7.74c-4.17,0-8.47,0.4-12.9,1.19c-4.43,0.79-9,1.98-13.71,3.56
								v12.48c3.73-2.09,7.82-3.67,12.26-4.73c4.46-1.07,9.11-1.6,13.97-1.6c8.44,0,14.88,1.6,19.31,4.79s6.64,7.85,6.64,13.95
								c0,5.64-2.06,10.04-6.17,13.21c-4.12,3.18-9.84,4.77-17.17,4.77h-11.62v10.63h12.15c6.62,0,11.69,1.27,15.21,3.81
								c3.52,2.54,5.28,6.2,5.28,10.98c0,4.9-1.82,8.67-5.45,11.29c-3.62,2.64-8.81,3.95-15.57,3.95c-3.7,0-7.67-0.39-11.9-1.17
								c-4.23-0.76-8.88-1.95-13.95-3.56v11.51c5.13,1.37,9.93,2.39,14.4,3.07s8.69,1.02,12.64,1.02c10.24,0,18.33-2.23,24.29-6.7
								c5.97-4.45,8.95-10.47,8.95-18.07c0-5.3-1.58-9.77-4.74-13.42C3227.26-3738.31,3222.77-3740.83,3216.94-3742.24z"/>
						</g>
					</g>
				</g>
			</g>
			<g id="ytick_2">
				<g id="line2d_9">
					<g>
						<g>
							<path id="m013f687cd3_1_" class="st4" d="M655.35,845.31h8.2"/>
						</g>
					</g>
				</g>
				<g id="text_10">
					<g transform="translate(130.81 260.36775)scale(0.16 -0.16)">
						<g>
							<path id="DejaVuSans-8722_1_" class="st5" d="M3061.42-3659.18h85.57v-10.88h-85.57V-3659.18z"/>
						</g>
						<g>
							<path id="DejaVuSans-50_2_" class="st5" d="M3187.7-3694.84h47.05v-10.88h-63.27v10.88c5.11,5.08,12.08,11.9,20.91,20.44
								c8.84,8.56,14.4,14.09,16.66,16.57c4.31,4.64,7.33,8.58,9.03,11.8c1.72,3.22,2.58,6.39,2.58,9.5c0,5.08-1.86,9.22-5.57,12.41
								c-3.72,3.21-8.56,4.81-14.52,4.81c-4.23,0-8.69-0.7-13.39-2.11c-4.68-1.41-9.7-3.54-15.04-6.41v13.07
								c5.43,2.09,10.49,3.67,15.21,4.73c4.73,1.07,9.05,1.6,12.97,1.6c10.32,0,18.55-2.48,24.69-7.44
								c6.14-4.94,9.21-11.55,9.21-19.83c0-3.93-0.77-7.66-2.31-11.18c-1.52-3.51-4.31-7.65-8.37-12.43
								c-1.11-1.24-4.65-4.82-10.62-10.73C3206.97-3675.95,3198.57-3684.22,3187.7-3694.84z"/>
						</g>
					</g>
				</g>
			</g>
			<g id="ytick_3">
				<g id="line2d_10">
					<g>
						<g>
							<path id="m013f687cd3_2_" class="st4" d="M655.35,785.92h8.2"/>
						</g>
					</g>
				</g>
				<g id="text_11">
					<g transform="translate(130.81 215.06775)scale(0.16 -0.16)">
						<g>
							<path id="DejaVuSans-8722_2_" class="st5" d="M3061.42-3571.12h85.57V-3582h-85.57V-3571.12z"/>
						</g>
						<g>
							<path id="DejaVuSans-49" class="st5" d="M3178.43-3606.78h22.02v72.93l-23.97-4.61v11.78l23.84,4.61h13.48v-84.7h22.02
								v-10.88h-57.39V-3606.78z"/>
						</g>
					</g>
				</g>
			</g>
			<g id="ytick_4">
				<g id="line2d_11">
					<g>
						<g>
							<path id="m013f687cd3_3_" class="st4" d="M655.35,726.53h8.2"/>
						</g>
					</g>
				</g>
				<g id="text_12">
					<g transform="translate(144.2175 169.76775)scale(0.16 -0.16)">
						<g>
							<path id="DejaVuSans-48_3_" class="st5" d="M3121.13-3442.54c-6.93,0-12.15-3.28-15.66-9.83
								c-3.49-6.54-5.23-16.39-5.23-29.54c0-13.1,1.74-22.92,5.23-29.48c3.5-6.56,8.72-9.83,15.66-9.83
								c6.99,0,12.23,3.28,15.72,9.83c3.5,6.56,5.25,16.38,5.25,29.48c0,13.15-1.75,23-5.25,29.54
								C3133.36-3445.82,3128.12-3442.54,3121.13-3442.54z M3121.13-3432.3c11.18,0,19.71-4.24,25.61-12.72
								c5.9-8.47,8.84-20.76,8.84-36.89c0-16.09-2.95-28.37-8.84-36.85c-5.9-8.47-14.43-12.7-25.61-12.7
								c-11.16,0-19.69,4.23-25.59,12.7c-5.9,8.48-8.84,20.76-8.84,36.85c0,16.13,2.95,28.43,8.84,36.89
								C3101.44-3436.54,3109.97-3432.3,3121.13-3432.3z"/>
						</g>
					</g>
				</g>
			</g>
			<g id="ytick_5">
				<g id="line2d_12">
					<g>
						<g>
							<path id="m013f687cd3_4_" class="st4" d="M655.35,667.14h8.2"/>
						</g>
					</g>
				</g>
				<g id="text_13">
					<g transform="translate(144.2175 124.46775)scale(0.16 -0.16)">
						<g>
							<path id="DejaVuSans-49_1_" class="st5" d="M3094.65-3430.66h22.02v72.93l-23.97-4.61v11.78l23.84,4.61h13.48v-84.7h22.02
								v-10.88h-57.39V-3430.66z"/>
						</g>
					</g>
				</g>
			</g>
			<g id="ytick_6">
				<g id="line2d_13">
					<g>
						<g>
							<path id="m013f687cd3_5_" class="st4" d="M655.35,607.75h8.2"/>
						</g>
					</g>
				</g>
				<g id="text_14">
					<g transform="translate(144.2175 79.16775)scale(0.16 -0.16)">
						<g>
							<path id="DejaVuSans-50_3_" class="st5" d="M3103.92-3342.6h47.05v-10.88h-63.27v10.88c5.11,5.08,12.08,11.89,20.91,20.44
								c8.84,8.56,14.4,14.09,16.66,16.57c4.31,4.64,7.33,8.58,9.03,11.8c1.72,3.22,2.58,6.39,2.58,9.5c0,5.08-1.86,9.22-5.57,12.41
								c-3.72,3.21-8.56,4.81-14.52,4.81c-4.23,0-8.69-0.7-13.39-2.11c-4.68-1.41-9.7-3.54-15.04-6.41v13.07
								c5.43,2.09,10.49,3.67,15.21,4.73c4.73,1.07,9.05,1.6,12.96,1.6c10.32,0,18.55-2.48,24.69-7.44
								c6.14-4.94,9.21-11.55,9.21-19.83c0-3.93-0.77-7.66-2.31-11.18c-1.52-3.51-4.31-7.65-8.37-12.43
								c-1.11-1.24-4.65-4.82-10.62-10.73C3123.19-3323.71,3114.78-3331.98,3103.92-3342.6z"/>
						</g>
					</g>
				</g>
			</g>
			<g id="ytick_7">
				<g id="line2d_14">
					<g>
						<g>
							<path id="m013f687cd3_6_" class="st4" d="M655.35,548.37h8.2"/>
						</g>
					</g>
				</g>
				<g id="text_15">
					<g transform="translate(144.2175 33.86775)scale(0.16 -0.16)">
						<g>
							<path id="DejaVuSans-51_3_" class="st5" d="M3133.16-3213.88c6.45-1.32,11.48-4.08,15.1-8.28c3.63-4.18,5.45-9.34,5.45-15.49
								c0-9.42-3.38-16.72-10.15-21.9c-6.76-5.16-16.38-7.74-28.83-7.74c-4.17,0-8.47,0.4-12.9,1.19c-4.43,0.79-9,1.98-13.71,3.56
								v12.48c3.73-2.09,7.82-3.67,12.26-4.73c4.46-1.07,9.11-1.6,13.97-1.6c8.44,0,14.88,1.6,19.31,4.79s6.64,7.85,6.64,13.95
								c0,5.64-2.06,10.04-6.17,13.21c-4.12,3.18-9.84,4.77-17.17,4.77h-11.62v10.63h12.15c6.62,0,11.69,1.27,15.21,3.81
								s5.28,6.2,5.28,10.98c0,4.9-1.82,8.67-5.45,11.29c-3.62,2.64-8.81,3.95-15.57,3.95c-3.7,0-7.67-0.39-11.9-1.17
								c-4.23-0.76-8.88-1.95-13.95-3.56v11.51c5.13,1.37,9.92,2.39,14.4,3.07c4.47,0.68,8.69,1.02,12.64,1.02
								c10.24,0,18.33-2.23,24.29-6.7c5.97-4.45,8.95-10.47,8.95-18.07c0-5.3-1.58-9.77-4.74-13.42S3138.98-3212.47,3133.16-3213.88
								z"/>
						</g>
					</g>
				</g>
			</g>
			<g id="text_16">
				<g transform="translate(7.2 106.612)scale(0.16 -0.16)">
					<g>
						<path id="DejaVuSans-82" class="st5" d="M2824.09-3362.01c2.89-0.94,5.7-2.95,8.44-6.02c2.73-3.07,5.48-7.3,8.24-12.68
							l13.69-26.12h-14.5l-12.73,24.52c-3.3,6.41-6.5,10.65-9.59,12.74c-3.09,2.09-7.3,3.13-12.64,3.13h-14.7v-40.4h-13.48v95.58
							h30.44c11.39,0,19.89-2.29,25.5-6.86c5.61-4.56,8.42-11.45,8.42-20.67c0-6.02-1.46-11.02-4.38-14.99
							C2833.88-3357.73,2829.64-3360.48,2824.09-3362.01z M2790.3-3321.88v-33.92h16.96c6.49,0,11.4,1.44,14.72,4.32
							c3.32,2.88,4.98,7.11,4.98,12.7c0,5.59-1.66,9.8-4.98,12.64c-3.32,2.84-8.22,4.26-14.72,4.26H2790.3z"/>
					</g>
					<g>
						<path id="DejaVuSans-101_2_" class="st5" d="M2935.14-3368.03v-5.76h-56.47c0.54-8.11,3.09-14.29,7.65-18.54
							c4.56-4.25,10.91-6.37,19.05-6.37c4.71,0,9.28,0.55,13.71,1.66s8.83,2.77,13.2,5v-11.14c-4.41-1.79-8.94-3.15-13.56-4.1
							c-4.63-0.94-9.32-1.41-14.08-1.41c-11.93,0-21.38,3.33-28.34,9.98c-6.96,6.66-10.44,15.68-10.44,27.04
							c0,11.73,3.3,21.04,9.91,27.92c6.61,6.9,15.52,10.34,26.74,10.34c10.05,0,18.01-3.11,23.86-9.32
							C2932.21-3348.93,2935.14-3357.36,2935.14-3368.03z M2922.85-3364.57c-0.09,6.43-1.97,11.57-5.64,15.4
							c-3.67,3.85-8.54,5.78-14.59,5.78c-6.85,0-12.33-1.86-16.45-5.57s-6.49-8.95-7.11-15.69L2922.85-3364.57z"/>
					</g>
					<g>
						<path id="DejaVuSans-115_2_" class="st5" d="M3002.94-3337.24v-11.14c-3.46,1.71-7.06,2.98-10.81,3.83
							c-3.73,0.86-7.6,1.29-11.62,1.29c-6.09,0-10.67-0.89-13.71-2.68c-3.05-1.79-4.57-4.48-4.57-8.07c0-2.73,1.09-4.88,3.27-6.43
							c2.18-1.56,6.56-3.04,13.16-4.45l4.21-0.9c8.71-1.79,14.91-4.32,18.58-7.58s5.51-7.82,5.51-13.66
							c0-6.66-2.75-11.94-8.24-15.83c-5.5-3.88-13.05-5.82-22.66-5.82c-4,0-8.17,0.38-12.52,1.13c-4.34,0.75-8.91,1.87-13.71,3.36
							v12.17c4.54-2.27,9.01-3.97,13.41-5.1c4.4-1.12,8.76-1.68,13.09-1.68c5.78,0,10.22,0.95,13.33,2.85
							c3.12,1.9,4.68,4.57,4.68,8.03c0,3.2-1.12,5.65-3.37,7.35c-2.24,1.71-7.16,3.35-14.78,4.94l-4.27,0.96
							c-7.6,1.53-13.1,3.89-16.49,7.07c-3.37,3.18-5.06,7.55-5.06,13.09c0,6.75,2.49,11.95,7.48,15.61
							c4.98,3.67,12.06,5.51,21.23,5.51c4.53,0,8.79-0.32,12.79-0.96C2995.87-3335,2999.57-3335.96,3002.94-3337.24z"/>
					</g>
					<g>
						<path id="DejaVuSans-112_1_" class="st5" d="M3038.38-3396.07v-38.02h-12.35v98.96h12.35v-10.88
							c2.59,4.26,5.85,7.42,9.78,9.48c3.94,2.08,8.65,3.11,14.12,3.11c9.08,0,16.46-3.46,22.13-10.37c5.68-6.91,8.52-16,8.52-27.27
							c0-11.27-2.84-20.36-8.52-27.29c-5.67-6.91-13.04-10.37-22.13-10.37c-5.47,0-10.17,1.04-14.12,3.11
							C3044.24-3403.5,3040.97-3400.33,3038.38-3396.07z M3080.18-3371.04c0,8.66-1.86,15.45-5.57,20.38
							c-3.72,4.93-8.82,7.4-15.31,7.4c-6.51,0-11.62-2.47-15.34-7.4s-5.57-11.72-5.57-20.38c0-8.66,1.86-15.45,5.57-20.38
							c3.72-4.93,8.83-7.4,15.34-7.4c6.49,0,11.6,2.47,15.31,7.4C3078.32-3386.49,3080.18-3379.7,3080.18-3371.04z"/>
					</g>
					<g>
						<path id="DejaVuSans-111_4_" class="st5" d="M3142.24-3343.39c-6.58,0-11.78-2.47-15.61-7.4c-3.83-4.93-5.75-11.68-5.75-20.26
							c0-8.58,1.9-15.33,5.7-20.26c3.82-4.93,9.03-7.4,15.66-7.4c6.55,0,11.73,2.47,15.55,7.42c3.83,4.96,5.75,11.7,5.75,20.24
							c0,8.49-1.92,15.23-5.75,20.2C3153.98-3345.87,3148.79-3343.39,3142.24-3343.39z M3142.24-3333.41
							c10.68,0,19.07-3.33,25.16-10c6.11-6.65,9.16-15.86,9.16-27.63c0-11.73-3.05-20.94-9.16-27.63
							c-6.09-6.68-14.48-10.02-25.16-10.02c-10.72,0-19.12,3.34-25.2,10.02c-6.07,6.69-9.1,15.9-9.1,27.63
							c0,11.77,3.03,20.98,9.1,27.63C3123.12-3336.74,3131.52-3333.41,3142.24-3333.41z"/>
					</g>
					<g>
						<path id="DejaVuSans-110_2_" class="st5" d="M3259.07-3363.54v-43.28h-12.28v42.9c0,6.79-1.38,11.86-4.14,15.22
							c-2.76,3.37-6.9,5.06-12.41,5.06c-6.64,0-11.87-2.03-15.7-6.08c-3.83-4.04-5.75-9.57-5.75-16.57v-40.52h-12.35v71.7h12.35
							v-11.14c2.95,4.32,6.41,7.54,10.38,9.67c3.99,2.13,8.59,3.2,13.8,3.2c8.59,0,15.08-2.55,19.48-7.64
							C3256.86-3346.15,3259.07-3353.64,3259.07-3363.54z"/>
					</g>
					<g>
						<path id="DejaVuSans-115_3_" class="st5" d="M3331.21-3337.24v-11.14c-3.46,1.71-7.06,2.98-10.81,3.83
							c-3.73,0.86-7.6,1.29-11.62,1.29c-6.09,0-10.67-0.89-13.71-2.68c-3.05-1.79-4.57-4.48-4.57-8.07c0-2.73,1.09-4.88,3.27-6.43
							c2.18-1.56,6.56-3.04,13.16-4.45l4.21-0.9c8.71-1.79,14.91-4.32,18.58-7.58s5.51-7.82,5.51-13.66
							c0-6.66-2.75-11.94-8.24-15.83c-5.5-3.88-13.05-5.82-22.66-5.82c-4,0-8.17,0.38-12.52,1.13c-4.34,0.75-8.91,1.87-13.71,3.36
							v12.17c4.54-2.27,9.01-3.97,13.41-5.1c4.4-1.12,8.76-1.68,13.09-1.68c5.78,0,10.22,0.95,13.33,2.85
							c3.12,1.9,4.68,4.57,4.68,8.03c0,3.2-1.12,5.65-3.37,7.35c-2.24,1.71-7.16,3.35-14.78,4.94l-4.27,0.96
							c-7.6,1.53-13.1,3.89-16.49,7.07c-3.37,3.18-5.06,7.55-5.06,13.09c0,6.75,2.49,11.95,7.48,15.61
							c4.98,3.67,12.06,5.51,21.23,5.51c4.53,0,8.79-0.32,12.79-0.96C3324.14-3335,3327.83-3335.96,3331.21-3337.24z"/>
					</g>
					<g>
						<path id="DejaVuSans-101_3_" class="st5" d="M3418.72-3368.03v-5.76h-56.47c0.54-8.11,3.09-14.29,7.65-18.54
							c4.56-4.25,10.91-6.37,19.05-6.37c4.71,0,9.28,0.55,13.71,1.66s8.83,2.77,13.2,5v-11.14c-4.41-1.79-8.94-3.15-13.56-4.1
							c-4.63-0.94-9.32-1.41-14.08-1.41c-11.93,0-21.38,3.33-28.34,9.98c-6.96,6.66-10.44,15.68-10.44,27.04
							c0,11.73,3.3,21.04,9.91,27.92c6.61,6.9,15.52,10.34,26.74,10.34c10.05,0,18.01-3.11,23.86-9.32
							C3415.8-3348.93,3418.72-3357.36,3418.72-3368.03z M3406.44-3364.57c-0.09,6.43-1.97,11.57-5.64,15.4
							c-3.67,3.85-8.54,5.78-14.59,5.78c-6.85,0-12.33-1.86-16.45-5.57s-6.49-8.95-7.11-15.69L3406.44-3364.57z"/>
					</g>
					<g>
						<path id="DejaVuSans-32_6_" class="st5" d="M3425.99-3406.83"/>
					</g>
					<g>
						<path id="DejaVuSans-69" class="st5" d="M3482.86-3311.25h63.01v-10.9h-49.53v-28.29h47.46v-10.88h-47.46v-34.64h50.73v-10.88
							h-64.21V-3311.25z"/>
					</g>
					<g>
						<path id="DejaVuSans-114_6_" class="st5" d="M3612.02-3346.13c-1.38,0.76-2.88,1.32-4.51,1.68c-1.62,0.37-3.41,0.55-5.36,0.55
							c-6.95,0-12.28-2.16-16-6.49s-5.57-10.55-5.57-18.66v-37.77h-12.35v71.7h12.35v-11.14c2.59,4.36,5.95,7.59,10.08,9.69
							c4.14,2.12,9.18,3.18,15.1,3.18c0.84,0,1.77-0.05,2.8-0.16c1.03-0.1,2.16-0.25,3.4-0.47L3612.02-3346.13z"/>
					</g>
					<g>
						<path id="DejaVuSans-114_7_" class="st5" d="M3668.2-3346.13c-1.38,0.76-2.88,1.32-4.51,1.68c-1.62,0.37-3.41,0.55-5.36,0.55
							c-6.95,0-12.28-2.16-16-6.49c-3.72-4.33-5.57-10.55-5.57-18.66v-37.77h-12.35v71.7h12.35v-11.14
							c2.59,4.36,5.95,7.59,10.08,9.69c4.14,2.12,9.18,3.18,15.1,3.18c0.84,0,1.77-0.05,2.8-0.16c1.03-0.1,2.16-0.25,3.4-0.47
							L3668.2-3346.13z"/>
					</g>
					<g>
						<path id="DejaVuSans-111_5_" class="st5" d="M3710-3343.39c-6.58,0-11.78-2.47-15.61-7.4c-3.83-4.93-5.75-11.68-5.75-20.26
							c0-8.58,1.9-15.33,5.7-20.26c3.82-4.93,9.04-7.4,15.66-7.4c6.55,0,11.73,2.47,15.55,7.42c3.83,4.96,5.75,11.7,5.75,20.24
							c0,8.49-1.92,15.23-5.75,20.2C3721.73-3345.87,3716.55-3343.39,3710-3343.39z M3710-3333.41c10.68,0,19.07-3.33,25.16-10
							c6.11-6.65,9.16-15.86,9.16-27.63c0-11.73-3.05-20.94-9.16-27.63c-6.09-6.68-14.48-10.02-25.16-10.02
							c-10.72,0-19.12,3.34-25.2,10.02c-6.07,6.69-9.1,15.9-9.1,27.63c0,11.77,3.03,20.98,9.1,27.63
							C3690.88-3336.74,3699.28-3333.41,3710-3333.41z"/>
					</g>
					<g>
						<path id="DejaVuSans-114_8_" class="st5" d="M3807.99-3346.13c-1.38,0.76-2.88,1.32-4.51,1.68c-1.62,0.37-3.41,0.55-5.36,0.55
							c-6.95,0-12.28-2.16-16-6.49s-5.57-10.55-5.57-18.66v-37.77h-12.35v71.7h12.35v-11.14c2.59,4.36,5.95,7.59,10.08,9.69
							c4.14,2.12,9.18,3.18,15.1,3.18c0.84,0,1.77-0.05,2.8-0.16c1.03-0.1,2.16-0.25,3.4-0.47L3807.99-3346.13z"/>
					</g>
					<g>
						<path id="DejaVuSans-32_7_" class="st5" d="M3807.99-3406.83"/>
					</g>
					<g>
						<path id="DejaVuSans-32_8_" class="st5" d="M3851.45-3406.83"/>
					</g>
					<g>
						<path id="DejaVuSans-32_9_" class="st5" d="M3894.9-3406.83"/>
					</g>
					<g>
						<path id="DejaVuSans-32_10_" class="st5" d="M3938.35-3406.83"/>
					</g>
					<g>
						<path id="DejaVuSans-32_11_" class="st5" d="M3981.81-3406.83"/>
					</g>
					<g>
						<path id="DejaVuSans-32_12_" class="st5" d="M4025.26-3406.83"/>
					</g>
					<g>
						<path id="DejaVuSans-32_13_" class="st5" d="M4068.71-3406.83"/>
					</g>
					<g>
						<path id="DejaVuSans-32_14_" class="st5" d="M4112.16-3406.83"/>
					</g>
					<g>
						<path id="DejaVuSans-32_15_" class="st5" d="M4155.62-3406.83"/>
					</g>
					<g>
						<path id="DejaVuSans-32_16_" class="st5" d="M4199.07-3406.83"/>
					</g>
					<g>
						<path id="DejaVuSans-32_17_" class="st5" d="M4242.52-3406.83"/>
					</g>
					<g>
						<path id="DejaVuSans-32_18_" class="st5" d="M4285.97-3406.83"/>
					</g>
					<g>
						<path id="DejaVuSans-32_19_" class="st5" d="M4329.43-3406.83"/>
					</g>
					<g>
						<path id="DejaVuSans-32_20_" class="st5" d="M4372.88-3406.83"/>
					</g>
					<g>
						<path id="DejaVuSans-32_21_" class="st5" d="M4416.33-3406.83"/>
					</g>
					<g>
						<path id="DejaVuSans-32_22_" class="st5" d="M4459.79-3406.83"/>
					</g>
					<g>
						<path id="DejaVuSans-32_23_" class="st5" d="M4503.24-3406.83"/>
					</g>
					<g>
						<path id="DejaVuSans-32_24_" class="st5" d="M4546.69-3406.83"/>
					</g>
					<g>
						<path id="DejaVuSans-32_25_" class="st5" d="M4590.14-3406.83"/>
					</g>
					<g>
						<path id="DejaVuSans-32_26_" class="st5" d="M4633.6-3406.83"/>
					</g>
					<g>
						<path id="DejaVuSans-32_27_" class="st5" d="M4677.05-3406.83"/>
					</g>
					<g>
						<path id="DejaVuSans-32_28_" class="st5" d="M4720.5-3406.83"/>
					</g>
					<g>
						<path id="DejaVuSans-32_29_" class="st5" d="M4763.95-3406.83"/>
					</g>
				</g>
				<g transform="translate(58.3675 124.5285)scale(0.16 -0.16)">
					<g>
						<path id="DejaVuSans-111_6_" class="st5" d="M2922.62-3378.22c-6.58,0-11.78-2.47-15.61-7.4c-3.83-4.93-5.75-11.68-5.75-20.26
							s1.9-15.33,5.7-20.26c3.82-4.93,9.03-7.4,15.66-7.4c6.55,0,11.73,2.47,15.55,7.42c3.83,4.96,5.75,11.7,5.75,20.24
							c0,8.49-1.92,15.23-5.75,20.2C2934.35-3380.7,2929.17-3378.22,2922.62-3378.22z M2922.62-3368.24c10.68,0,19.07-3.33,25.16-10
							c6.11-6.65,9.16-15.86,9.16-27.63c0-11.73-3.05-20.94-9.16-27.63c-6.09-6.68-14.48-10.02-25.16-10.02
							c-10.72,0-19.12,3.34-25.2,10.02c-6.07,6.69-9.1,15.9-9.1,27.63c0,11.77,3.03,20.98,9.1,27.63
							C2903.49-3371.57,2911.89-3368.24,2922.62-3368.24z"/>
					</g>
					<g>
						<path id="DejaVuSans-110_3_" class="st5" d="M3039.44-3398.37v-43.28h-12.28v42.9c0,6.79-1.38,11.86-4.14,15.22
							c-2.76,3.37-6.9,5.06-12.41,5.06c-6.64,0-11.87-2.03-15.7-6.08c-3.83-4.04-5.75-9.57-5.75-16.57v-40.52h-12.35v71.7h12.35
							v-11.14c2.95,4.32,6.41,7.54,10.38,9.67c3.99,2.13,8.59,3.2,13.8,3.2c8.59,0,15.08-2.55,19.48-7.64
							C3037.24-3380.97,3039.44-3388.47,3039.44-3398.37z"/>
					</g>
					<g>
						<path id="DejaVuSans-32_30_" class="st5" d="M3051.05-3441.66"/>
					</g>
					<g>
						<path id="DejaVuSans-32_31_" class="st5" d="M3094.5-3441.66"/>
					</g>
					<g>
						<path id="DejaVuSans-32_32_" class="st5" d="M3137.95-3441.66"/>
					</g>
					<g>
						<path id="DejaVuSans-32_33_" class="st5" d="M3181.4-3441.66"/>
					</g>
					<g>
						<path id="DejaVuSans-32_34_" class="st5" d="M3224.86-3441.66"/>
					</g>
					<g>
						<path id="DejaVuSans-32_35_" class="st5" d="M3268.31-3441.66"/>
					</g>
					<g>
						<path id="DejaVuSans-32_36_" class="st5" d="M3311.76-3441.66"/>
					</g>
					<g>
						<path id="DejaVuSans-32_37_" class="st5" d="M3355.21-3441.66"/>
					</g>
					<g>
						<path id="DejaVuSans-32_38_" class="st5" d="M3398.67-3441.66"/>
					</g>
					<g>
						<path id="DejaVuSans-32_39_" class="st5" d="M3442.12-3441.66"/>
					</g>
					<g>
						<path id="DejaVuSans-32_40_" class="st5" d="M3485.57-3441.66"/>
					</g>
					<g>
						<path id="DejaVuSans-32_41_" class="st5" d="M3529.03-3441.66"/>
					</g>
					<g>
						<path id="DejaVuSans-32_42_" class="st5" d="M3572.48-3441.66"/>
					</g>
					<g>
						<path id="DejaVuSans-32_43_" class="st5" d="M3615.93-3441.66"/>
					</g>
					<g>
						<path id="DejaVuSans-32_44_" class="st5" d="M3659.38-3441.66"/>
					</g>
					<g>
						<path id="DejaVuSans-32_45_" class="st5" d="M3702.84-3441.66"/>
					</g>
					<g>
						<path id="DejaVuSans-32_46_" class="st5" d="M3746.29-3441.66"/>
					</g>
					<g>
						<path id="DejaVuSans-32_47_" class="st5" d="M3789.74-3441.66"/>
					</g>
					<g>
						<path id="DejaVuSans-32_48_" class="st5" d="M3833.19-3441.66"/>
					</g>
					<g>
						<path id="DejaVuSans-32_49_" class="st5" d="M3876.65-3441.66"/>
					</g>
					<g>
						<path id="DejaVuSans-32_50_" class="st5" d="M3920.1-3441.66"/>
					</g>
					<g>
						<path id="DejaVuSans-32_51_" class="st5" d="M3963.55-3441.66"/>
					</g>
					<g>
						<path id="DejaVuSans-32_52_" class="st5" d="M4007.01-3441.66"/>
					</g>
				</g>
				<g transform="translate(17.92625 142.445)scale(0.16 -0.16)">
					<g>
						<path id="DejaVuSans-67_1_" class="st5" d="M2876.06-3388.28v-13.62c-4.54,4.06-9.38,7.08-14.52,9.07
							c-5.14,2.01-10.6,3.01-16.38,3.01c-11.39,0-20.11-3.34-26.17-10.02c-6.05-6.68-9.08-16.33-9.08-28.97
							c0-12.59,3.03-22.23,9.08-28.9c6.05-6.68,14.77-10.02,26.17-10.02c5.78,0,11.24,1,16.38,3.01c5.14,2.01,9.98,5.04,14.52,9.1
							v-13.52c-4.71-3.07-9.71-5.38-14.99-6.92c-5.27-1.53-10.84-2.29-16.7-2.29c-15.09,0-26.98,4.42-35.67,13.27
							c-8.67,8.86-13.01,20.96-13.01,36.28c0,15.36,4.34,27.47,13.01,36.32c8.69,8.86,20.58,13.29,35.67,13.29
							c5.95,0,11.56-0.76,16.83-2.27C2866.47-3382.97,2871.43-3385.25,2876.06-3388.28z"/>
					</g>
					<g>
						<path id="DejaVuSans-117_5_" class="st5" d="M2895.08-3448.2v43.41h12.28v-42.96c0-6.79,1.37-11.88,4.12-15.28
							c2.76-3.39,6.91-5.08,12.43-5.08c6.62,0,11.85,2.03,15.7,6.08c3.86,4.06,5.79,9.59,5.79,16.59v40.64h12.28v-71.7h-12.28v11.02
							c-2.98-4.36-6.44-7.59-10.38-9.71c-3.93-2.12-8.5-3.18-13.71-3.18c-8.59,0-15.11,2.56-19.56,7.68
							C2897.3-3465.55,2895.08-3458.06,2895.08-3448.2z"/>
					</g>
					<g>
						<path id="DejaVuSans-114_9_" class="st5" d="M3026.3-3415.79c-1.38,0.76-2.88,1.32-4.51,1.68c-1.62,0.37-3.41,0.55-5.36,0.55
							c-6.95,0-12.28-2.16-16-6.49s-5.57-10.55-5.57-18.66v-37.77h-12.35v71.7h12.35v-11.14c2.59,4.36,5.95,7.59,10.08,9.69
							c4.14,2.12,9.18,3.18,15.1,3.18c0.84,0,1.77-0.05,2.8-0.16c1.03-0.1,2.16-0.25,3.4-0.47L3026.3-3415.79z"/>
					</g>
					<g>
						<path id="DejaVuSans-114_10_" class="st5" d="M3082.48-3415.79c-1.38,0.76-2.88,1.32-4.51,1.68
							c-1.62,0.37-3.41,0.55-5.36,0.55c-6.95,0-12.28-2.16-16-6.49s-5.57-10.55-5.57-18.66v-37.77h-12.35v71.7h12.35v-11.14
							c2.59,4.36,5.95,7.59,10.08,9.69c4.14,2.12,9.18,3.18,15.1,3.18c0.84,0,1.77-0.05,2.8-0.16c1.03-0.1,2.16-0.25,3.4-0.47
							L3082.48-3415.79z"/>
					</g>
					<g>
						<path id="DejaVuSans-101_4_" class="st5" d="M3159.27-3437.69v-5.76h-56.47c0.54-8.11,3.09-14.29,7.65-18.54
							c4.56-4.25,10.91-6.37,19.05-6.37c4.71,0,9.28,0.55,13.71,1.66s8.83,2.77,13.2,5v-11.14c-4.41-1.79-8.94-3.15-13.56-4.1
							c-4.63-0.94-9.32-1.41-14.08-1.41c-11.93,0-21.38,3.33-28.34,9.98c-6.96,6.66-10.44,15.68-10.44,27.04
							c0,11.73,3.3,21.04,9.91,27.92c6.61,6.9,15.52,10.34,26.74,10.34c10.05,0,18.01-3.11,23.86-9.32
							C3156.34-3418.59,3159.27-3427.02,3159.27-3437.69z M3146.99-3434.23c-0.09,6.43-1.97,11.57-5.64,15.4
							c-3.67,3.85-8.54,5.78-14.59,5.78c-6.85,0-12.33-1.86-16.45-5.57s-6.49-8.95-7.11-15.69L3146.99-3434.23z"/>
					</g>
					<g>
						<path id="DejaVuSans-110_4_" class="st5" d="M3241.58-3433.2v-43.28h-12.28v42.9c0,6.79-1.38,11.86-4.14,15.22
							c-2.76,3.37-6.9,5.06-12.41,5.06c-6.64,0-11.87-2.03-15.7-6.08c-3.83-4.04-5.75-9.57-5.75-16.57v-40.52h-12.35v71.7h12.35
							v-11.14c2.95,4.32,6.41,7.54,10.38,9.67c3.99,2.13,8.59,3.2,13.8,3.2c8.59,0,15.08-2.55,19.48-7.64
							C3239.37-3415.8,3241.58-3423.3,3241.58-3433.2z"/>
					</g>
					<g>
						<path id="DejaVuSans-116_2_" class="st5" d="M3278.21-3384.43v-20.36h25.29v-9.16h-25.29v-38.92c0-5.84,0.83-9.6,2.5-11.27
							c1.67-1.67,5.06-2.5,10.19-2.5h12.6v-9.85h-12.6c-9.48,0-16.03,1.69-19.63,5.08c-3.6,3.4-5.4,9.58-5.4,18.54v38.92h-9.01v9.16
							h9.01v20.36H3278.21z"/>
					</g>
					<g>
						<path id="DejaVuSans-32_53_" class="st5" d="M3306.78-3476.49"/>
					</g>
					<g>
						<path id="DejaVuSans-84_2_" class="st5" d="M3349.82-3380.9h84.3v-10.9h-35.37v-84.68h-13.54v84.68h-35.39V-3380.9z"/>
					</g>
					<g>
						<path id="DejaVuSans-114_11_" class="st5" d="M3489.63-3415.79c-1.38,0.76-2.88,1.32-4.51,1.68
							c-1.62,0.37-3.41,0.55-5.36,0.55c-6.95,0-12.28-2.16-16-6.49s-5.57-10.55-5.57-18.66v-37.77h-12.35v71.7h12.35v-11.14
							c2.59,4.36,5.95,7.59,10.08,9.69c4.14,2.12,9.18,3.18,15.1,3.18c0.84,0,1.77-0.05,2.8-0.16c1.03-0.1,2.16-0.25,3.4-0.47
							L3489.63-3415.79z"/>
					</g>
					<g>
						<path id="DejaVuSans-105_2_" class="st5" d="M3502.51-3404.79h12.28v-71.7h-12.28V-3404.79z M3502.51-3376.87h12.28v-14.93
							h-12.28V-3376.87z"/>
					</g>
					<g>
						<path id="DejaVuSans-97" class="st5" d="M3574.48-3440.45c-9.92,0-16.8-1.09-20.63-3.26c-3.83-2.17-5.75-5.89-5.75-11.14
							c0-4.18,1.44-7.5,4.31-9.96c2.88-2.44,6.78-3.67,11.7-3.67c6.82,0,12.29,2.31,16.4,6.94s6.17,10.78,6.17,18.46v2.62H3574.48z
							 M3598.97-3435.58v-40.91h-12.28v10.88c-2.81-4.34-6.3-7.55-10.49-9.63c-4.19-2.08-9.31-3.11-15.36-3.11
							c-7.65,0-13.73,2.06-18.26,6.19c-4.51,4.12-6.77,9.64-6.77,16.55c0,8.06,2.81,14.13,8.44,18.23c5.64,4.1,14.04,6.15,25.2,6.15
							h17.24v1.17c0,5.42-1.86,9.61-5.57,12.58c-3.72,2.96-8.94,4.45-15.66,4.45c-4.27,0-8.44-0.49-12.5-1.47
							c-4.04-0.98-7.93-2.46-11.66-4.42v10.9c4.49,1.67,8.84,2.91,13.07,3.73c4.23,0.83,8.34,1.25,12.35,1.25
							c10.82,0,18.9-2.69,24.24-8.07C3596.3-3416.51,3598.97-3424.65,3598.97-3435.58z"/>
					</g>
					<g>
						<path id="DejaVuSans-108" class="st5" d="M3624.26-3376.87h12.28v-99.62h-12.28V-3376.87z"/>
					</g>
					<g>
						<path id="DejaVuSans-32_54_" class="st5" d="M3649.36-3476.49"/>
					</g>
					<g>
						<path id="DejaVuSans-32_55_" class="st5" d="M3692.81-3476.49"/>
					</g>
					<g>
						<path id="DejaVuSans-32_56_" class="st5" d="M3736.27-3476.49"/>
					</g>
					<g>
						<path id="DejaVuSans-32_57_" class="st5" d="M3779.72-3476.49"/>
					</g>
					<g>
						<path id="DejaVuSans-32_58_" class="st5" d="M3823.17-3476.49"/>
					</g>
					<g>
						<path id="DejaVuSans-32_59_" class="st5" d="M3866.62-3476.49"/>
					</g>
					<g>
						<path id="DejaVuSans-32_60_" class="st5" d="M3910.08-3476.49"/>
					</g>
					<g>
						<path id="DejaVuSans-32_61_" class="st5" d="M3953.53-3476.49"/>
					</g>
					<g>
						<path id="DejaVuSans-32_62_" class="st5" d="M3996.98-3476.49"/>
					</g>
					<g>
						<path id="DejaVuSans-32_63_" class="st5" d="M4040.44-3476.49"/>
					</g>
					<g>
						<path id="DejaVuSans-32_64_" class="st5" d="M4083.89-3476.49"/>
					</g>
					<g>
						<path id="DejaVuSans-32_65_" class="st5" d="M4127.34-3476.49"/>
					</g>
					<g>
						<path id="DejaVuSans-32_66_" class="st5" d="M4170.79-3476.49"/>
					</g>
					<g>
						<path id="DejaVuSans-32_67_" class="st5" d="M4214.25-3476.49"/>
					</g>
					<g>
						<path id="DejaVuSans-32_68_" class="st5" d="M4257.7-3476.49"/>
					</g>
					<g>
						<path id="DejaVuSans-32_69_" class="st5" d="M4301.15-3476.49"/>
					</g>
					<g>
						<path id="DejaVuSans-32_70_" class="st5" d="M4344.6-3476.49"/>
					</g>
					<g>
						<path id="DejaVuSans-32_71_" class="st5" d="M4388.06-3476.49"/>
					</g>
					<g>
						<path id="DejaVuSans-32_72_" class="st5" d="M4431.51-3476.49"/>
					</g>
					<g>
						<path id="DejaVuSans-32_73_" class="st5" d="M4474.96-3476.49"/>
					</g>
					<g>
						<path id="DejaVuSans-32_74_" class="st5" d="M4518.42-3476.49"/>
					</g>
					<g>
						<path id="DejaVuSans-32_75_" class="st5" d="M4561.87-3476.49"/>
					</g>
					<g>
						<path id="DejaVuSans-32_76_" class="st5" d="M4605.32-3476.49"/>
					</g>
				</g>
				<g transform="translate(13.75625 160.3615)scale(0.16 -0.16)">
					<g>
						<path id="DejaVuSans-40_1_" class="st5" d="M2820.82-3411.84c-5.95-9.81-10.38-19.52-13.29-29.13
							c-2.89-9.6-4.34-19.33-4.34-29.19c0-9.85,1.46-19.6,4.38-29.27c2.92-9.67,7.33-19.39,13.24-29.17h-10.68
							c-6.66,10.04-11.66,19.9-14.97,29.58c-3.32,9.68-4.98,19.3-4.98,28.86c0,9.52,1.64,19.1,4.93,28.74
							c3.3,9.66,8.31,19.52,15.02,29.58H2820.82z"/>
					</g>
					<g>
						<path id="DejaVuSans-109_3_" class="st5" d="M2902.86-3453.38c3.08,5.3,6.75,9.2,11.02,11.72c4.27,2.51,9.3,3.77,15.08,3.77
							c7.79,0,13.8-2.62,18.03-7.85c4.23-5.22,6.34-12.65,6.34-22.29v-43.28h-12.35v42.9c0,6.87-1.27,11.96-3.82,15.28
							c-2.53,3.33-6.4,5-11.6,5c-6.37,0-11.4-2.03-15.1-6.08c-3.69-4.04-5.53-9.57-5.53-16.57v-40.52h-12.35v42.9
							c0,6.91-1.27,12.02-3.8,15.32s-6.45,4.96-11.75,4.96c-6.28,0-11.27-2.03-14.97-6.1c-3.69-4.07-5.53-9.59-5.53-16.55v-40.52
							h-12.35v71.7h12.35v-11.14c2.81,4.4,6.17,7.64,10.08,9.73c3.92,2.09,8.57,3.13,13.95,3.13c5.44,0,10.06-1.32,13.86-3.97
							C2898.23-3444.51,2901.04-3448.34,2902.86-3453.38z"/>
					</g>
					<g>
						<path id="DejaVuSans-111_7_" class="st5" d="M3006.78-3447.87c-6.58,0-11.78-2.47-15.61-7.4c-3.83-4.93-5.75-11.68-5.75-20.26
							s1.9-15.33,5.7-20.26c3.82-4.93,9.04-7.4,15.66-7.4c6.55,0,11.73,2.47,15.55,7.42c3.83,4.96,5.75,11.7,5.75,20.24
							c0,8.49-1.92,15.23-5.75,20.2C3018.52-3450.36,3013.33-3447.87,3006.78-3447.87z M3006.78-3437.9c10.68,0,19.07-3.33,25.16-10
							c6.11-6.65,9.16-15.86,9.16-27.63c0-11.73-3.05-20.94-9.16-27.63c-6.09-6.68-14.48-10.02-25.16-10.02
							c-10.72,0-19.12,3.34-25.2,10.02c-6.07,6.69-9.1,15.9-9.1,27.63c0,11.77,3.03,20.98,9.1,27.63
							C2987.66-3441.23,2996.06-3437.9,3006.78-3437.9z"/>
					</g>
					<g>
						<path id="DejaVuSans-114_12_" class="st5" d="M3104.77-3450.62c-1.38,0.76-2.88,1.32-4.51,1.68
							c-1.62,0.37-3.41,0.55-5.36,0.55c-6.95,0-12.28-2.16-16-6.49s-5.57-10.55-5.57-18.66v-37.77h-12.35v71.7h12.35v-11.14
							c2.59,4.36,5.95,7.59,10.08,9.69c4.14,2.12,9.18,3.18,15.1,3.18c0.84,0,1.77-0.05,2.8-0.16c1.03-0.1,2.16-0.25,3.4-0.47
							L3104.77-3450.62z"/>
					</g>
					<g>
						<path id="DejaVuSans-112_2_" class="st5" d="M3129.53-3500.56v-38.02h-12.35v98.96h12.35v-10.88
							c2.59,4.26,5.85,7.42,9.78,9.48c3.94,2.08,8.65,3.11,14.12,3.11c9.08,0,16.46-3.46,22.13-10.37c5.68-6.91,8.52-16,8.52-27.27
							s-2.84-20.36-8.52-27.29c-5.67-6.91-13.04-10.37-22.13-10.37c-5.47,0-10.17,1.04-14.12,3.11
							C3135.38-3507.99,3132.12-3504.82,3129.53-3500.56z M3171.33-3475.53c0,8.66-1.86,15.45-5.57,20.38
							c-3.72,4.93-8.82,7.4-15.31,7.4c-6.51,0-11.62-2.46-15.34-7.4c-3.72-4.93-5.57-11.72-5.57-20.38s1.86-15.45,5.57-20.38
							c3.72-4.93,8.83-7.4,15.34-7.4c6.49,0,11.6,2.46,15.31,7.4C3169.47-3490.98,3171.33-3484.19,3171.33-3475.53z"/>
					</g>
					<g>
						<path id="DejaVuSans-104_1_" class="st5" d="M3266.58-3468.03v-43.28h-12.28v42.9c0,6.79-1.38,11.86-4.14,15.22
							c-2.76,3.37-6.9,5.06-12.41,5.06c-6.64,0-11.87-2.03-15.7-6.08c-3.83-4.04-5.75-9.57-5.75-16.57v-40.52h-12.35v99.62h12.35
							v-39.06c2.95,4.32,6.41,7.54,10.38,9.67c3.99,2.13,8.59,3.2,13.8,3.2c8.59,0,15.08-2.55,19.48-7.64
							C3264.38-3450.63,3266.58-3458.13,3266.58-3468.03z"/>
					</g>
					<g>
						<path id="DejaVuSans-32_77_" class="st5" d="M3278.19-3511.31"/>
					</g>
					<g>
						<path id="DejaVuSans-117_6_" class="st5" d="M3333.26-3483.02v43.41h12.28v-42.96c0-6.79,1.37-11.88,4.12-15.28
							c2.76-3.39,6.91-5.08,12.43-5.08c6.62,0,11.85,2.03,15.7,6.08c3.86,4.06,5.79,9.59,5.79,16.59v40.64h12.28v-71.7h-12.28v11.02
							c-2.98-4.36-6.44-7.59-10.38-9.71c-3.93-2.12-8.5-3.18-13.71-3.18c-8.59,0-15.11,2.56-19.56,7.68
							C3335.48-3500.38,3333.26-3492.88,3333.26-3483.02z"/>
					</g>
					<g>
						<path id="DejaVuSans-110_5_" class="st5" d="M3483.31-3468.03v-43.28h-12.28v42.9c0,6.79-1.38,11.86-4.14,15.22
							c-2.76,3.37-6.9,5.06-12.41,5.06c-6.64,0-11.87-2.03-15.7-6.08c-3.83-4.04-5.75-9.57-5.75-16.57v-40.52h-12.35v71.7h12.35
							v-11.14c2.95,4.32,6.41,7.54,10.38,9.67c3.99,2.13,8.59,3.2,13.8,3.2c8.59,0,15.08-2.55,19.48-7.64
							C3481.11-3450.63,3483.31-3458.13,3483.31-3468.03z"/>
					</g>
					<g>
						<path id="DejaVuSans-105_3_" class="st5" d="M3507.8-3439.62h12.28v-71.7h-12.28V-3439.62z M3507.8-3411.7h12.28v-14.93
							h-12.28V-3411.7z"/>
					</g>
					<g>
						<path id="DejaVuSans-116_3_" class="st5" d="M3557.93-3419.26v-20.36h25.29v-9.16h-25.29v-38.92c0-5.84,0.83-9.6,2.5-11.27
							c1.67-1.67,5.06-2.5,10.19-2.5h12.6v-9.85h-12.6c-9.48,0-16.03,1.69-19.63,5.08c-3.6,3.4-5.4,9.58-5.4,18.54v38.92h-9.01v9.16
							h9.01v20.36H3557.93z"/>
					</g>
					<g>
						<path id="DejaVuSans-115_4_" class="st5" d="M3647.03-3441.73v-11.14c-3.46,1.71-7.06,2.98-10.81,3.83
							c-3.73,0.86-7.6,1.29-11.62,1.29c-6.09,0-10.67-0.89-13.71-2.68c-3.05-1.79-4.57-4.48-4.57-8.07c0-2.73,1.09-4.88,3.27-6.43
							c2.18-1.56,6.56-3.04,13.16-4.45l4.21-0.9c8.71-1.79,14.91-4.32,18.58-7.58c3.67-3.26,5.51-7.82,5.51-13.66
							c0-6.66-2.75-11.94-8.24-15.83c-5.5-3.88-13.05-5.82-22.66-5.82c-4,0-8.17,0.38-12.52,1.13c-4.34,0.75-8.91,1.87-13.71,3.36
							v12.17c4.54-2.27,9.01-3.97,13.41-5.1c4.4-1.12,8.76-1.68,13.09-1.68c5.78,0,10.22,0.95,13.33,2.85
							c3.12,1.9,4.68,4.57,4.68,8.03c0,3.2-1.12,5.65-3.37,7.35c-2.24,1.71-7.16,3.35-14.78,4.94l-4.27,0.96
							c-7.6,1.53-13.1,3.89-16.49,7.07c-3.37,3.18-5.06,7.55-5.06,13.09c0,6.75,2.49,11.95,7.48,15.61
							c4.98,3.67,12.06,5.51,21.23,5.51c4.53,0,8.79-0.32,12.79-0.96C3639.96-3439.49,3643.65-3440.44,3647.03-3441.73z"/>
					</g>
					<g>
						<path id="DejaVuSans-41_1_" class="st5" d="M3668.67-3411.84h10.68c6.66-10.06,11.66-19.92,14.97-29.58
							c3.32-9.64,4.98-19.22,4.98-28.74c0-9.56-1.66-19.18-4.98-28.86c-3.32-9.68-8.31-19.54-14.97-29.58h-10.68
							c5.91,9.78,10.32,19.5,13.24,29.17c2.92,9.67,4.38,19.43,4.38,29.27c0,9.86-1.46,19.59-4.38,29.19
							C3679-3431.35,3674.58-3421.65,3668.67-3411.84z"/>
					</g>
					<g>
						<path id="DejaVuSans-32_78_" class="st5" d="M3711.05-3511.31"/>
					</g>
					<g>
						<path id="DejaVuSans-32_79_" class="st5" d="M3754.5-3511.31"/>
					</g>
					<g>
						<path id="DejaVuSans-32_80_" class="st5" d="M3797.95-3511.31"/>
					</g>
					<g>
						<path id="DejaVuSans-32_81_" class="st5" d="M3841.4-3511.31"/>
					</g>
					<g>
						<path id="DejaVuSans-32_82_" class="st5" d="M3884.86-3511.31"/>
					</g>
					<g>
						<path id="DejaVuSans-32_83_" class="st5" d="M3928.31-3511.31"/>
					</g>
					<g>
						<path id="DejaVuSans-32_84_" class="st5" d="M3971.76-3511.31"/>
					</g>
					<g>
						<path id="DejaVuSans-32_85_" class="st5" d="M4015.21-3511.31"/>
					</g>
					<g>
						<path id="DejaVuSans-32_86_" class="st5" d="M4058.67-3511.31"/>
					</g>
					<g>
						<path id="DejaVuSans-32_87_" class="st5" d="M4102.12-3511.31"/>
					</g>
					<g>
						<path id="DejaVuSans-32_88_" class="st5" d="M4145.57-3511.31"/>
					</g>
					<g>
						<path id="DejaVuSans-32_89_" class="st5" d="M4189.03-3511.31"/>
					</g>
					<g>
						<path id="DejaVuSans-32_90_" class="st5" d="M4232.48-3511.31"/>
					</g>
					<g>
						<path id="DejaVuSans-32_91_" class="st5" d="M4275.93-3511.31"/>
					</g>
					<g>
						<path id="DejaVuSans-32_92_" class="st5" d="M4319.38-3511.31"/>
					</g>
					<g>
						<path id="DejaVuSans-32_93_" class="st5" d="M4362.84-3511.31"/>
					</g>
					<g>
						<path id="DejaVuSans-32_94_" class="st5" d="M4406.29-3511.31"/>
					</g>
					<g>
						<path id="DejaVuSans-32_95_" class="st5" d="M4449.74-3511.31"/>
					</g>
					<g>
						<path id="DejaVuSans-32_96_" class="st5" d="M4493.19-3511.31"/>
					</g>
					<g>
						<path id="DejaVuSans-32_97_" class="st5" d="M4536.65-3511.31"/>
					</g>
					<g>
						<path id="DejaVuSans-32_98_" class="st5" d="M4580.1-3511.31"/>
					</g>
					<g>
						<path id="DejaVuSans-32_99_" class="st5" d="M4623.55-3511.31"/>
					</g>
					<g>
						<path id="DejaVuSans-32_100_" class="st5" d="M4667.01-3511.31"/>
					</g>
				</g>
			</g>
		</g>
		<g id="line2d_15">
			<g>
				<defs>
					<rect id="SVGID_5_" x="655.35" y="548.37" width="381.39" height="356.34"/>
				</defs>
				<clipPath id="SVGID_6_">
					<use xlink:href="#SVGID_5_"  style="overflow:visible;"/>
				</clipPath>
				<path class="st6" d="M655.35,729.18l2.61,0.77l2.61,4.02l2.61,13.9l2.61,0.23l2.61,9.34l2.61-3.66l2.61,2.72l2.61,12.14
					l2.61,14.69l2.61,4.64l2.61-5.15l2.61-9.97l2.61,5.73l2.61,3.36l2.61,2.77l2.61-2.85l2.61,2.98l2.61-4.22l2.61-0.74l2.61,12.87
					l2.61,3.87l2.61,0.46l2.61-7.89l2.61,2.46l2.61,5.66l2.61-1.71l5.22,10.56l2.61-6.86l2.61,6.12l2.61-6.14l2.61,5.08l2.61,0.46
					l2.61-4.06l5.22,18.2l2.61,7.09l5.22-20.62l2.61,3.27l2.61-5.16l2.61-1.24l2.61,5.86l2.61-10.44l2.61,8.45l2.61,1.35l2.61,11.98
					l2.61,0.73l2.61-2.45l2.61,6.39l5.22,2.22l2.61,8.16l2.61,3.16l2.61-5.6l2.61-3.46l2.61,7.74l2.61,3.96l2.61-9.79l2.61,9.81
					l2.61-24.01l2.61,5.41l5.22-19.22l2.61-11.38l2.61-9.57l2.61-13.22l2.61-9.13l2.61,6.3l2.61-4.38l2.61-0.12l2.61-11.54
					l2.61,2.85l2.61-5.03l2.61-2.29l2.61-16.92l2.61,1.53l2.61-16.83l2.61-10.68l2.61-15.6l2.61-1.33l2.61-16.61l2.61-8l2.61-1.77
					l2.61-6.5l2.61-0.58l2.61,2.03l2.61,2.81l2.61,3.05l2.61,0.63l2.61-8.81l2.61,0.07l2.61-7.69l2.61,5.16l2.61,3.71l2.61,7.16
					l2.61-0.96l2.61-2.97l2.61-4.67l2.61-8.06l2.61,5.15l2.61-21.87l2.61,0.61l2.61,0.08l2.61-12.28l2.61,5.18l2.61,3.3l2.61-11.18
					l2.61,13.58l2.61,8.63l2.61,4.83l2.61-12.51l2.61,6.46l2.61,0.52l2.61-10.12l2.61,11.42l2.61-1.39l2.61,0.85l2.61-11.49
					l2.61-5.94l2.61-11.95l2.61,8.47l2.61,12.11l2.61,3.34l2.61-7.37l2.61,5.2l2.61,0.85l2.61,17.99l2.61,6.46l2.61,9.49l2.61-0.05
					l2.61-6.82l2.61,20.27l2.61,18.34l2.61,4.93l2.61,1.68l2.61,4.62l2.61-1.05l2.61,5.18l2.61-2.82l2.61-3.54l2.61-2.31l2.61-3.73
					l2.61,4.15l2.61,5.41l2.61,23.23l0,0"/>
			</g>
		</g>
		<g id="line2d_16">
			<g>
				<defs>
					<rect id="SVGID_7_" x="655.35" y="548.37" width="381.39" height="356.34"/>
				</defs>
				<clipPath id="SVGID_8_">
					<use xlink:href="#SVGID_7_"  style="overflow:visible;"/>
				</clipPath>
				<path class="st7" d="M799.02,892.18l2.61-7.72l2.61-7.72l2.61-7.72l2.61-7.72l2.61-7.72l2.61-7.72l2.61-7.72l2.61-7.72
					l2.61-7.72l2.61-7.72l2.61-7.72l2.61-7.72l2.61-7.72l2.61-7.72l2.61-7.72l2.61-7.72l2.61-7.72l2.61-7.72l2.61-7.72l2.61-7.72
					l2.61-7.72l2.61-7.72l2.61-7.72l2.61-7.72l2.61-7.72l2.61-7.72l2.61-7.72l2.61-7.72l2.61-7.72l2.61-7.72l2.61-7.72l2.61-7.72
					l2.61-7.72l2.61-7.72l2.61-7.72l2.61-7.72"/>
			</g>
		</g>
		<g id="patch_4">
			<path class="st8" d="M655.35,904.7V548.37"/>
		</g>
		<g id="patch_5">
			<path class="st8" d="M655.35,904.7h381.39"/>
		</g>
		<g id="text_17">
			<g transform="translate(239.1435 21.789)scale(0.192 -0.192)">
				<g>
					<path id="DejaVuSans-82_1_" class="st5" d="M2806.86-2656.79c2.89-0.94,5.7-2.95,8.44-6.02c2.73-3.07,5.48-7.3,8.24-12.68
						l13.69-26.12h-14.5l-12.73,24.52c-3.3,6.41-6.5,10.65-9.59,12.74c-3.09,2.09-7.3,3.13-12.64,3.13h-14.7v-40.4h-13.48v95.58
						h30.44c11.39,0,19.89-2.29,25.5-6.86c5.61-4.56,8.42-11.45,8.42-20.67c0-6.02-1.46-11.02-4.38-14.99
						C2816.65-2652.52,2812.42-2655.26,2806.86-2656.79z M2773.07-2616.66v-33.92h16.96c6.49,0,11.4,1.44,14.72,4.32
						s4.98,7.11,4.98,12.7c0,5.59-1.66,9.8-4.98,12.64s-8.22,4.26-14.72,4.26H2773.07z"/>
				</g>
				<g>
					<path id="DejaVuSans-97_1_" class="st5" d="M2887.98-2665.58c-9.93,0-16.8-1.09-20.63-3.26c-3.83-2.17-5.75-5.89-5.75-11.14
						c0-4.18,1.44-7.5,4.31-9.96c2.88-2.44,6.78-3.67,11.7-3.67c6.82,0,12.29,2.31,16.4,6.94c4.12,4.63,6.17,10.78,6.17,18.46v2.62
						H2887.98z M2912.48-2660.71v-40.91h-12.28v10.88c-2.81-4.34-6.3-7.55-10.49-9.63c-4.19-2.08-9.31-3.11-15.36-3.11
						c-7.65,0-13.73,2.06-18.26,6.19c-4.51,4.12-6.77,9.64-6.77,16.55c0,8.06,2.81,14.13,8.44,18.23c5.64,4.1,14.04,6.15,25.2,6.15
						h17.24v1.17c0,5.42-1.86,9.61-5.57,12.58c-3.72,2.96-8.94,4.45-15.66,4.45c-4.27,0-8.44-0.49-12.5-1.48
						c-4.04-0.98-7.93-2.46-11.66-4.42v10.9c4.49,1.67,8.84,2.91,13.07,3.73c4.23,0.83,8.34,1.25,12.35,1.25
						c10.82,0,18.9-2.69,24.24-8.07C2909.81-2641.64,2912.48-2649.78,2912.48-2660.71z"/>
				</g>
				<g>
					<path id="DejaVuSans-100" class="st5" d="M2986.96-2640.8v38.8h12.28v-99.62h-12.28v10.75c-2.58-4.26-5.84-7.43-9.78-9.51
						c-3.93-2.08-8.66-3.11-14.18-3.11c-9.03,0-16.38,3.46-22.06,10.37c-5.67,6.92-8.5,16.02-8.5,27.29
						c0,11.27,2.83,20.35,8.5,27.27c5.68,6.91,13.04,10.37,22.06,10.37c5.52,0,10.25-1.04,14.18-3.11
						C2981.12-2633.37,2984.38-2636.53,2986.96-2640.8z M2945.12-2665.83c0-8.66,1.86-15.45,5.57-20.38
						c3.72-4.93,8.82-7.4,15.31-7.4c6.49,0,11.6,2.47,15.34,7.4c3.74,4.93,5.62,11.72,5.62,20.38c0,8.66-1.87,15.45-5.62,20.38
						c-3.73,4.93-8.84,7.4-15.34,7.4c-6.49,0-11.6-2.47-15.31-7.4S2945.12-2657.17,2945.12-2665.83z"/>
				</g>
				<g>
					<path id="DejaVuSans-105_4_" class="st5" d="M3024.54-2629.92h12.28v-71.7h-12.28V-2629.92z M3024.54-2602h12.28v-14.93h-12.28
						V-2602z"/>
				</g>
				<g>
					<path id="DejaVuSans-111_8_" class="st5" d="M3091.48-2638.17c-6.58,0-11.78-2.47-15.61-7.4c-3.83-4.93-5.75-11.68-5.75-20.26
						c0-8.58,1.9-15.33,5.7-20.26c3.82-4.93,9.04-7.4,15.66-7.4c6.55,0,11.73,2.47,15.55,7.42c3.83,4.96,5.75,11.7,5.75,20.24
						c0,8.49-1.92,15.23-5.75,20.2C3103.22-2640.66,3098.03-2638.17,3091.48-2638.17z M3091.48-2628.2c10.68,0,19.07-3.33,25.16-10
						c6.11-6.65,9.16-15.86,9.16-27.63c0-11.73-3.05-20.94-9.16-27.63c-6.09-6.68-14.48-10.02-25.16-10.02
						c-10.72,0-19.12,3.34-25.2,10.02c-6.07,6.69-9.1,15.9-9.1,27.63c0,11.77,3.03,20.98,9.1,27.63
						C3072.36-2631.53,3080.76-2628.2,3091.48-2628.2z"/>
				</g>
				<g>
					<path id="DejaVuSans-108_1_" class="st5" d="M3146.16-2602h12.28v-99.62h-12.28V-2602z"/>
				</g>
				<g>
					<path id="DejaVuSans-111_9_" class="st5" d="M3213.1-2638.17c-6.58,0-11.78-2.47-15.61-7.4c-3.83-4.93-5.75-11.68-5.75-20.26
						c0-8.58,1.9-15.33,5.7-20.26c3.82-4.93,9.03-7.4,15.66-7.4c6.55,0,11.73,2.47,15.55,7.42c3.83,4.96,5.75,11.7,5.75,20.24
						c0,8.49-1.92,15.23-5.75,20.2C3224.83-2640.66,3219.65-2638.17,3213.1-2638.17z M3213.1-2628.2c10.68,0,19.07-3.33,25.16-10
						c6.11-6.65,9.16-15.86,9.16-27.63c0-11.73-3.05-20.94-9.16-27.63c-6.09-6.68-14.48-10.02-25.16-10.02
						c-10.72,0-19.12,3.34-25.2,10.02c-6.07,6.69-9.1,15.9-9.1,27.63c0,11.77,3.03,20.98,9.1,27.63
						C3193.97-2631.53,3202.38-2628.2,3213.1-2628.2z"/>
				</g>
				<g>
					<path id="DejaVuSans-103" class="st5" d="M3316.96-2664.93c0,8.54-1.84,15.15-5.51,19.83c-3.66,4.7-8.81,7.05-15.44,7.05
						c-6.58,0-11.7-2.35-15.38-7.05c-3.67-4.68-5.51-11.29-5.51-19.83c0-8.49,1.84-15.09,5.51-19.79c3.67-4.7,8.8-7.05,15.38-7.05
						c6.64,0,11.78,2.35,15.44,7.05C3315.12-2680.02,3316.96-2673.42,3316.96-2664.93z M3329.24-2692.72
						c0-12.2-2.83-21.27-8.48-27.22c-5.64-5.95-14.29-8.93-25.95-8.93c-4.31,0-8.39,0.31-12.22,0.92s-7.55,1.56-11.15,2.85v11.45
						c3.6-1.87,7.16-3.25,10.68-4.14c3.52-0.9,7.1-1.35,10.74-1.35c8.06,0,14.09,2.01,18.09,6.04c4,4.03,6,10.12,6,18.27v5.84
						c-2.53-4.23-5.78-7.4-9.74-9.48c-3.96-2.09-8.7-3.13-14.23-3.13c-9.16,0-16.54,3.35-22.15,10.04
						c-5.61,6.71-8.42,15.59-8.42,26.65c0,11.09,2.81,19.98,8.42,26.67c5.61,6.71,12.99,10.06,22.15,10.06
						c5.52,0,10.27-1.04,14.23-3.13c3.96-2.09,7.21-5.24,9.74-9.46v10.88h12.28V-2692.72z"/>
				</g>
				<g>
					<path id="DejaVuSans-105_5_" class="st5" d="M3354.54-2629.92h12.28v-71.7h-12.28V-2629.92z M3354.54-2602h12.28v-14.93h-12.28
						V-2602z"/>
				</g>
				<g>
					<path id="DejaVuSans-115_5_" class="st5" d="M3440.17-2632.03v-11.14c-3.46,1.71-7.06,2.98-10.81,3.83
						c-3.73,0.86-7.6,1.29-11.62,1.29c-6.09,0-10.67-0.89-13.71-2.68c-3.05-1.79-4.57-4.48-4.57-8.07c0-2.73,1.09-4.88,3.27-6.43
						s6.56-3.04,13.16-4.45l4.21-0.9c8.71-1.79,14.91-4.32,18.58-7.58c3.67-3.26,5.51-7.82,5.51-13.66c0-6.66-2.75-11.94-8.24-15.83
						c-5.5-3.88-13.05-5.82-22.66-5.82c-4,0-8.17,0.38-12.52,1.13c-4.34,0.75-8.91,1.87-13.71,3.36v12.17
						c4.54-2.27,9.01-3.97,13.41-5.1c4.4-1.12,8.76-1.68,13.09-1.68c5.78,0,10.22,0.95,13.33,2.85c3.12,1.9,4.68,4.57,4.68,8.03
						c0,3.2-1.12,5.65-3.37,7.35c-2.24,1.71-7.16,3.35-14.78,4.94l-4.27,0.96c-7.6,1.53-13.1,3.89-16.49,7.07
						c-3.37,3.18-5.06,7.55-5.06,13.09c0,6.75,2.49,11.95,7.48,15.61c4.98,3.67,12.06,5.51,21.23,5.51c4.53,0,8.79-0.32,12.79-0.96
						C3433.1-2629.79,3436.8-2630.74,3440.17-2632.03z"/>
				</g>
				<g>
					<path id="DejaVuSans-116_4_" class="st5" d="M3475.89-2609.56v-20.36h25.29v-9.16h-25.29V-2678c0-5.85,0.83-9.6,2.5-11.27
						c1.67-1.67,5.06-2.5,10.19-2.5h12.6v-9.85h-12.6c-9.48,0-16.03,1.69-19.63,5.08c-3.6,3.4-5.4,9.58-5.4,18.54v38.92h-9.01v9.16
						h9.01v20.36H3475.89z"/>
				</g>
				<g>
					<path id="DejaVuSans-115_6_" class="st5" d="M3564.99-2632.03v-11.14c-3.46,1.71-7.06,2.98-10.81,3.83
						c-3.73,0.86-7.6,1.29-11.62,1.29c-6.09,0-10.67-0.89-13.71-2.68c-3.05-1.79-4.57-4.48-4.57-8.07c0-2.73,1.09-4.88,3.27-6.43
						s6.56-3.04,13.16-4.45l4.21-0.9c8.71-1.79,14.91-4.32,18.58-7.58c3.67-3.26,5.51-7.82,5.51-13.66c0-6.66-2.75-11.94-8.24-15.83
						c-5.5-3.88-13.05-5.82-22.66-5.82c-4,0-8.17,0.38-12.52,1.13c-4.34,0.75-8.91,1.87-13.71,3.36v12.17
						c4.54-2.27,9.01-3.97,13.41-5.1c4.4-1.12,8.76-1.68,13.09-1.68c5.78,0,10.22,0.95,13.33,2.85c3.12,1.9,4.68,4.57,4.68,8.03
						c0,3.2-1.12,5.65-3.37,7.35c-2.24,1.71-7.16,3.35-14.78,4.94l-4.27,0.96c-7.6,1.53-13.1,3.89-16.49,7.07
						c-3.37,3.18-5.06,7.55-5.06,13.09c0,6.75,2.49,11.95,7.48,15.61c4.98,3.67,12.06,5.51,21.23,5.51c4.53,0,8.79-0.32,12.79-0.96
						C3557.92-2629.79,3561.62-2630.74,3564.99-2632.03z"/>
				</g>
			</g>
		</g>
	</g>
</g>
<text transform="matrix(1 0 0 1 915.0988 838.8287)" class="st9 st10">Average</text>
<rect x="984.3" y="827.35" class="st2" width="65.56" height="15.99"/>
<line class="st11" x1="984.3" y1="835.34" x2="1049.86" y2="835.34"/>
<text transform="matrix(1 0 0 1 894.5851 863.2797)" class="st9 st10">Regression</text>
<line class="st12" x1="984.3" y1="858.74" x2="1049.86" y2="858.74"/>
</svg>
