<?xml version="1.0" encoding="utf-8" standalone="no"?>
<!DOCTYPE svg PUBLIC "-//W3C//DTD SVG 1.1//EN"
  "http://www.w3.org/Graphics/SVG/1.1/DTD/svg11.dtd">
<!-- Created with matplotlib (https://matplotlib.org/) -->
<svg height="363.1755pt" version="1.1" viewBox="0 0 402.5995 363.1755" width="402.5995pt" xmlns="http://www.w3.org/2000/svg" xmlns:xlink="http://www.w3.org/1999/xlink">
 <defs>
  <style type="text/css">
*{stroke-linecap:butt;stroke-linejoin:round;}
  </style>
 </defs>
 <g id="figure_1">
  <g id="patch_1">
   <path d="M 0 363.1755 
L 402.5995 363.1755 
L 402.5995 0 
L 0 0 
z
" style="fill:#ffffff;"/>
  </g>
  <g id="axes_1">
   <g id="patch_2">
    <path d="M 71.689 299.589 
L 350.689 299.589 
L 350.689 27.789 
L 71.689 27.789 
z
" style="fill:#ffffff;"/>
   </g>
   <g id="PolyCollection_1">
    <defs>
     <path d="M 71.689 -204.57487 
L 71.689 -177.378735 
L 73.599959 -185.252811 
L 75.510918 -183.35704 
L 77.421877 -178.996471 
L 79.332836 -174.437759 
L 81.243795 -176.482161 
L 83.154753 -178.23451 
L 85.065712 -175.794558 
L 86.976671 -172.541541 
L 88.88763 -173.860737 
L 90.798589 -178.272382 
L 92.709548 -186.915023 
L 94.620507 -178.630771 
L 96.531466 -173.833965 
L 98.442425 -175.355901 
L 100.353384 -172.293411 
L 102.264342 -175.005698 
L 104.175301 -176.65005 
L 106.08626 -170.787287 
L 107.997219 -172.093901 
L 109.908178 -180.955729 
L 111.819137 -182.721385 
L 113.730096 -167.789443 
L 115.641055 -168.154157 
L 117.552014 -164.281214 
L 119.462973 -155.828411 
L 121.373932 -164.363154 
L 123.28489 -161.730433 
L 125.195849 -157.283877 
L 127.106808 -152.012496 
L 129.017767 -153.053568 
L 130.928726 -138.856745 
L 132.839685 -144.167877 
L 134.750644 -148.911611 
L 136.661603 -150.079668 
L 138.572562 -151.421559 
L 140.483521 -149.948666 
L 142.394479 -147.608575 
L 144.305438 -154.437924 
L 146.216397 -153.334095 
L 148.127356 -156.797942 
L 150.038315 -153.08435 
L 151.949274 -149.626039 
L 153.860233 -149.174242 
L 155.771192 -145.004237 
L 157.682151 -142.521809 
L 159.59311 -141.058099 
L 161.504068 -144.391241 
L 163.415027 -142.752943 
L 165.325986 -147.889796 
L 167.236945 -146.097107 
L 169.147904 -145.343164 
L 171.058863 -151.53349 
L 172.969822 -157.145687 
L 174.880781 -158.604286 
L 176.79174 -170.365868 
L 178.702699 -172.677091 
L 180.613658 -167.447277 
L 182.524616 -169.621908 
L 184.435575 -170.123496 
L 186.346534 -176.303459 
L 188.257493 -173.835729 
L 190.168452 -197.210342 
L 192.079411 -197.236232 
L 193.99037 -187.040479 
L 195.901329 -187.039955 
L 197.812288 -182.317402 
L 199.723247 -183.552235 
L 201.634205 -186.913732 
L 203.545164 -190.247386 
L 205.456123 -191.013286 
L 207.367082 -180.395718 
L 209.278041 -177.918695 
L 211.189 -186.58275 
L 213.099959 -195.577086 
L 215.010918 -198.405124 
L 216.921877 -196.704539 
L 218.832836 -192.057406 
L 220.743795 -182.364716 
L 222.654753 -188.90252 
L 224.565712 -196.935014 
L 226.476671 -203.229215 
L 228.38763 -195.198068 
L 230.298589 -184.94121 
L 232.209548 -185.629172 
L 234.120507 -179.021501 
L 236.031466 -186.009589 
L 237.942425 -193.724683 
L 239.853384 -195.934191 
L 241.764342 -195.389842 
L 243.675301 -198.942734 
L 245.58626 -200.649884 
L 247.497219 -208.999307 
L 249.408178 -199.952616 
L 251.319137 -200.076142 
L 253.230096 -203.058824 
L 255.141055 -209.257517 
L 257.052014 -212.864311 
L 258.962973 -221.99472 
L 260.873932 -227.595592 
L 262.78489 -228.079068 
L 264.695849 -231.936242 
L 266.606808 -229.946066 
L 268.517767 -229.797483 
L 270.428726 -224.625057 
L 272.339685 -218.963598 
L 274.250644 -227.768149 
L 276.161603 -223.125486 
L 278.072562 -221.902445 
L 279.983521 -229.071167 
L 281.894479 -221.914229 
L 283.805438 -224.390571 
L 285.716397 -221.538235 
L 287.627356 -220.917836 
L 289.538315 -222.99653 
L 291.449274 -215.682481 
L 293.360233 -209.434581 
L 295.271192 -185.943718 
L 297.182151 -185.055526 
L 299.09311 -182.587495 
L 301.004068 -183.85738 
L 302.915027 -182.197828 
L 304.825986 -185.424541 
L 306.736945 -180.873811 
L 308.647904 -181.331486 
L 310.558863 -178.383102 
L 312.469822 -176.163325 
L 314.380781 -163.782016 
L 316.29174 -165.548606 
L 318.202699 -170.151022 
L 320.113658 -167.089733 
L 322.024616 -166.278852 
L 323.935575 -158.569479 
L 325.846534 -160.515846 
L 327.757493 -161.05624 
L 329.668452 -159.861994 
L 331.579411 -158.894037 
L 333.49037 -150.703187 
L 335.401329 -164.602827 
L 337.312288 -162.239139 
L 339.223247 -165.027033 
L 341.134205 -175.648452 
L 343.045164 -167.476174 
L 344.956123 -169.864574 
L 346.867082 -173.9291 
L 348.778041 -173.467392 
L 350.689 -177.378735 
L 350.689 -204.57487 
L 350.689 -204.57487 
L 348.778041 -204.39804 
L 346.867082 -204.198745 
L 344.956123 -204.486932 
L 343.045164 -204.77391 
L 341.134205 -209.981945 
L 339.223247 -208.545313 
L 337.312288 -211.0504 
L 335.401329 -211.30741 
L 333.49037 -199.305413 
L 331.579411 -209.011787 
L 329.668452 -209.471085 
L 327.757493 -208.47339 
L 325.846534 -209.146073 
L 323.935575 -206.834513 
L 322.024616 -211.51797 
L 320.113658 -210.033762 
L 318.202699 -212.56892 
L 316.29174 -206.685996 
L 314.380781 -204.785475 
L 312.469822 -215.856087 
L 310.558863 -212.840149 
L 308.647904 -216.157473 
L 306.736945 -212.98439 
L 304.825986 -218.099458 
L 302.915027 -217.580325 
L 301.004068 -216.491507 
L 299.09311 -217.494736 
L 297.182151 -219.813575 
L 295.271192 -221.27412 
L 293.360233 -238.569856 
L 291.449274 -243.19586 
L 289.538315 -247.343363 
L 287.627356 -246.417835 
L 285.716397 -253.529828 
L 283.805438 -257.153118 
L 281.894479 -255.271743 
L 279.983521 -265.689908 
L 278.072562 -259.814149 
L 276.161603 -261.116428 
L 274.250644 -265.17707 
L 272.339685 -252.898956 
L 270.428726 -256.106608 
L 268.517767 -266.694125 
L 266.606808 -270.481137 
L 264.695849 -273.868202 
L 262.78489 -269.213753 
L 260.873932 -266.381233 
L 258.962973 -266.757514 
L 257.052014 -256.049469 
L 255.141055 -251.945521 
L 253.230096 -242.628859 
L 251.319137 -235.46802 
L 249.408178 -235.783724 
L 247.497219 -247.31802 
L 245.58626 -239.59839 
L 243.675301 -240.42857 
L 241.764342 -237.543071 
L 239.853384 -235.150523 
L 237.942425 -231.297114 
L 236.031466 -221.47726 
L 234.120507 -219.269513 
L 232.209548 -222.445864 
L 230.298589 -217.936705 
L 228.38763 -222.463443 
L 226.476671 -225.017428 
L 224.565712 -220.413986 
L 222.654753 -219.367323 
L 220.743795 -207.882644 
L 218.832836 -220.404743 
L 216.921877 -226.956656 
L 215.010918 -225.125599 
L 213.099959 -229.755764 
L 211.189 -221.146299 
L 209.278041 -218.556215 
L 207.367082 -215.945009 
L 205.456123 -221.214939 
L 203.545164 -215.320109 
L 201.634205 -218.540156 
L 199.723247 -220.372156 
L 197.812288 -215.781053 
L 195.901329 -220.605218 
L 193.99037 -219.309397 
L 192.079411 -227.577631 
L 190.168452 -229.196775 
L 188.257493 -208.968023 
L 186.346534 -206.339523 
L 184.435575 -204.388502 
L 182.524616 -195.993081 
L 180.613658 -191.560266 
L 178.702699 -198.401827 
L 176.79174 -197.889734 
L 174.880781 -191.207029 
L 172.969822 -184.353994 
L 171.058863 -179.332982 
L 169.147904 -174.946308 
L 167.236945 -174.317995 
L 165.325986 -176.496972 
L 163.415027 -176.133168 
L 161.504068 -177.291708 
L 159.59311 -176.062235 
L 157.682151 -171.441576 
L 155.771192 -181.370133 
L 153.860233 -190.76515 
L 151.949274 -188.736095 
L 150.038315 -195.529051 
L 148.127356 -200.382878 
L 146.216397 -195.123546 
L 144.305438 -195.729326 
L 142.394479 -195.835959 
L 140.483521 -203.333342 
L 138.572562 -210.811447 
L 136.661603 -207.161923 
L 134.750644 -207.226582 
L 132.839685 -205.843557 
L 130.928726 -203.31958 
L 129.017767 -215.685053 
L 127.106808 -210.700773 
L 125.195849 -218.875465 
L 123.28489 -226.695972 
L 121.373932 -232.696012 
L 119.462973 -222.091544 
L 117.552014 -228.733306 
L 115.641055 -233.551577 
L 113.730096 -218.56104 
L 111.819137 -226.690669 
L 109.908178 -224.287875 
L 107.997219 -213.883309 
L 106.08626 -212.670984 
L 104.175301 -212.683116 
L 102.264342 -212.757955 
L 100.353384 -210.931859 
L 98.442425 -211.599207 
L 96.531466 -204.753826 
L 94.620507 -207.85131 
L 92.709548 -216.18119 
L 90.798589 -207.286423 
L 88.88763 -205.162692 
L 86.976671 -203.625583 
L 85.065712 -208.885709 
L 83.154753 -214.492635 
L 81.243795 -214.201197 
L 79.332836 -211.06045 
L 77.421877 -215.548257 
L 75.510918 -212.428186 
L 73.599959 -216.227927 
L 71.689 -204.57487 
z
" id="m50da1b7b41" style="stroke:#1e90ff;stroke-opacity:0.2;"/>
    </defs>
    <g clip-path="url(#p3b95931032)">
     <use style="fill:#1e90ff;fill-opacity:0.2;stroke:#1e90ff;stroke-opacity:0.2;" x="0" xlink:href="#m50da1b7b41" y="363.1755"/>
    </g>
   </g>
   <g id="PolyCollection_2">
    <defs>
     <path d="M 71.689 -199.451535 
L 71.689 -199.332162 
L 73.599959 -199.253295 
L 75.510918 -199.17237 
L 77.421877 -199.088667 
L 79.332836 -199.001434 
L 81.243795 -198.909885 
L 83.154753 -198.813185 
L 85.065712 -198.710447 
L 86.976671 -198.600719 
L 88.88763 -198.482982 
L 90.798589 -198.356131 
L 92.709548 -198.218978 
L 94.620507 -198.07023 
L 96.531466 -197.90849 
L 98.442425 -197.732242 
L 100.353384 -197.539843 
L 102.264342 -197.329518 
L 104.175301 -197.099346 
L 106.08626 -196.847262 
L 107.997219 -196.571045 
L 109.908178 -196.268319 
L 111.819137 -195.936553 
L 113.730096 -195.573066 
L 115.641055 -195.175032 
L 117.552014 -194.739498 
L 119.462973 -194.263399 
L 121.373932 -193.743586 
L 123.28489 -193.176862 
L 125.195849 -192.560024 
L 127.106808 -191.889919 
L 129.017767 -191.163505 
L 130.928726 -190.37793 
L 132.839685 -189.53062 
L 134.750644 -188.619375 
L 136.661603 -187.642485 
L 138.572562 -186.598849 
L 140.483521 -185.488105 
L 142.394479 -184.31077 
L 144.305438 -183.068381 
L 146.216397 -181.76364 
L 148.127356 -180.400554 
L 150.038315 -178.984573 
L 151.949274 -177.522716 
L 153.860233 -176.023684 
L 155.771192 -174.497956 
L 157.682151 -172.957861 
L 159.59311 -171.417629 
L 161.504068 -169.893406 
L 163.415027 -168.403239 
L 165.325986 -166.967021 
L 167.236945 -165.606389 
L 169.147904 -164.344566 
L 171.058863 -163.206145 
L 172.969822 -162.216804 
L 174.880781 -161.402941 
L 176.79174 -160.791229 
L 178.702699 -160.408084 
L 180.613658 -160.279054 
L 182.524616 -160.428133 
L 184.435575 -160.87701 
L 186.346534 -161.644283 
L 188.257493 -162.744663 
L 190.168452 -164.188197 
L 192.079411 -165.97955 
L 193.99037 -168.117389 
L 195.901329 -170.593903 
L 197.812288 -173.394505 
L 199.723247 -176.497726 
L 201.634205 -179.875357 
L 203.545164 -183.492812 
L 205.456123 -187.309747 
L 207.367082 -191.280891 
L 209.278041 -195.357089 
L 211.189 -199.4865 
L 213.099959 -198.064223 
L 215.010918 -196.691911 
L 216.921877 -195.417044 
L 218.832836 -194.282296 
L 220.743795 -193.323541 
L 222.654753 -192.568291 
L 224.565712 -192.034678 
L 226.476671 -191.731012 
L 228.38763 -191.655907 
L 230.298589 -191.798957 
L 232.209548 -192.141858 
L 234.120507 -192.659878 
L 236.031466 -193.323565 
L 237.942425 -194.100536 
L 239.853384 -194.957259 
L 241.764342 -195.860688 
L 243.675301 -196.779693 
L 245.58626 -197.686198 
L 247.497219 -198.556025 
L 249.408178 -199.369401 
L 251.319137 -200.111178 
L 253.230096 -200.770778 
L 255.141055 -201.341916 
L 257.052014 -201.822164 
L 258.962973 -202.212394 
L 260.873932 -202.51617 
L 262.78489 -202.739121 
L 264.695849 -202.888347 
L 266.606808 -202.971872 
L 268.517767 -202.998172 
L 270.428726 -202.975779 
L 272.339685 -202.912974 
L 274.250644 -202.817555 
L 276.161603 -202.696681 
L 278.072562 -202.556772 
L 279.983521 -202.403469 
L 281.894479 -202.241624 
L 283.805438 -202.075332 
L 285.716397 -201.907972 
L 287.627356 -201.742277 
L 289.538315 -201.580392 
L 291.449274 -201.423957 
L 293.360233 -201.274171 
L 295.271192 -201.131859 
L 297.182151 -200.997541 
L 299.09311 -200.871481 
L 301.004068 -200.753745 
L 302.915027 -200.644236 
L 304.825986 -200.542738 
L 306.736945 -200.448946 
L 308.647904 -200.362492 
L 310.558863 -200.282963 
L 312.469822 -200.209924 
L 314.380781 -200.142928 
L 316.29174 -200.081527 
L 318.202699 -200.025283 
L 320.113658 -199.973767 
L 322.024616 -199.92657 
L 323.935575 -199.883303 
L 325.846534 -199.843598 
L 327.757493 -199.807108 
L 329.668452 -199.773512 
L 331.579411 -199.742505 
L 333.49037 -199.713808 
L 335.401329 -199.687158 
L 337.312288 -199.662312 
L 339.223247 -199.639042 
L 341.134205 -199.617136 
L 343.045164 -199.596395 
L 344.956123 -199.576631 
L 346.867082 -199.557667 
L 348.778041 -199.539333 
L 350.689 -199.521465 
L 350.689 -199.640838 
L 350.689 -199.640838 
L 348.778041 -199.719705 
L 346.867082 -199.80063 
L 344.956123 -199.884333 
L 343.045164 -199.971566 
L 341.134205 -200.063115 
L 339.223247 -200.159815 
L 337.312288 -200.262553 
L 335.401329 -200.372281 
L 333.49037 -200.490018 
L 331.579411 -200.616869 
L 329.668452 -200.754022 
L 327.757493 -200.90277 
L 325.846534 -201.06451 
L 323.935575 -201.240758 
L 322.024616 -201.433157 
L 320.113658 -201.643482 
L 318.202699 -201.873654 
L 316.29174 -202.125738 
L 314.380781 -202.401955 
L 312.469822 -202.704681 
L 310.558863 -203.036447 
L 308.647904 -203.399934 
L 306.736945 -203.797968 
L 304.825986 -204.233502 
L 302.915027 -204.709601 
L 301.004068 -205.229414 
L 299.09311 -205.796138 
L 297.182151 -206.412976 
L 295.271192 -207.083081 
L 293.360233 -207.809495 
L 291.449274 -208.59507 
L 289.538315 -209.44238 
L 287.627356 -210.353625 
L 285.716397 -211.330515 
L 283.805438 -212.374151 
L 281.894479 -213.484895 
L 279.983521 -214.66223 
L 278.072562 -215.904619 
L 276.161603 -217.20936 
L 274.250644 -218.572446 
L 272.339685 -219.988427 
L 270.428726 -221.450284 
L 268.517767 -222.949316 
L 266.606808 -224.475044 
L 264.695849 -226.015139 
L 262.78489 -227.555371 
L 260.873932 -229.079594 
L 258.962973 -230.569761 
L 257.052014 -232.005979 
L 255.141055 -233.366611 
L 253.230096 -234.628434 
L 251.319137 -235.766855 
L 249.408178 -236.756196 
L 247.497219 -237.570059 
L 245.58626 -238.181771 
L 243.675301 -238.564916 
L 241.764342 -238.693946 
L 239.853384 -238.544867 
L 237.942425 -238.09599 
L 236.031466 -237.328717 
L 234.120507 -236.228337 
L 232.209548 -234.784803 
L 230.298589 -232.99345 
L 228.38763 -230.855611 
L 226.476671 -228.379097 
L 224.565712 -225.578495 
L 222.654753 -222.475274 
L 220.743795 -219.097643 
L 218.832836 -215.480188 
L 216.921877 -211.663253 
L 215.010918 -207.692109 
L 213.099959 -203.615911 
L 211.189 -199.4865 
L 209.278041 -200.908777 
L 207.367082 -202.281089 
L 205.456123 -203.555956 
L 203.545164 -204.690704 
L 201.634205 -205.649459 
L 199.723247 -206.404709 
L 197.812288 -206.938322 
L 195.901329 -207.241988 
L 193.99037 -207.317093 
L 192.079411 -207.174043 
L 190.168452 -206.831142 
L 188.257493 -206.313122 
L 186.346534 -205.649435 
L 184.435575 -204.872464 
L 182.524616 -204.015741 
L 180.613658 -203.112312 
L 178.702699 -202.193307 
L 176.79174 -201.286802 
L 174.880781 -200.416975 
L 172.969822 -199.603599 
L 171.058863 -198.861822 
L 169.147904 -198.202222 
L 167.236945 -197.631084 
L 165.325986 -197.150836 
L 163.415027 -196.760606 
L 161.504068 -196.45683 
L 159.59311 -196.233879 
L 157.682151 -196.084653 
L 155.771192 -196.001128 
L 153.860233 -195.974828 
L 151.949274 -195.997221 
L 150.038315 -196.060026 
L 148.127356 -196.155445 
L 146.216397 -196.276319 
L 144.305438 -196.416228 
L 142.394479 -196.569531 
L 140.483521 -196.731376 
L 138.572562 -196.897668 
L 136.661603 -197.065028 
L 134.750644 -197.230723 
L 132.839685 -197.392608 
L 130.928726 -197.549043 
L 129.017767 -197.698829 
L 127.106808 -197.841141 
L 125.195849 -197.975459 
L 123.28489 -198.101519 
L 121.373932 -198.219255 
L 119.462973 -198.328764 
L 117.552014 -198.430262 
L 115.641055 -198.524054 
L 113.730096 -198.610508 
L 111.819137 -198.690037 
L 109.908178 -198.763076 
L 107.997219 -198.830072 
L 106.08626 -198.891473 
L 104.175301 -198.947717 
L 102.264342 -198.999233 
L 100.353384 -199.04643 
L 98.442425 -199.089697 
L 96.531466 -199.129402 
L 94.620507 -199.165892 
L 92.709548 -199.199488 
L 90.798589 -199.230495 
L 88.88763 -199.259192 
L 86.976671 -199.285842 
L 85.065712 -199.310688 
L 83.154753 -199.333958 
L 81.243795 -199.355864 
L 79.332836 -199.376605 
L 77.421877 -199.396369 
L 75.510918 -199.415333 
L 73.599959 -199.433667 
L 71.689 -199.451535 
z
" id="m45a43937ac" style="stroke:#006400;stroke-opacity:0.2;"/>
    </defs>
    <g clip-path="url(#p3b95931032)">
     <use style="fill:#006400;fill-opacity:0.2;stroke:#006400;stroke-opacity:0.2;" x="0" xlink:href="#m45a43937ac" y="363.1755"/>
    </g>
   </g>
   <g id="matplotlib.axis_1">
    <g id="xtick_1">
     <g id="line2d_1">
      <defs>
       <path d="M 0 0 
L 0 -6 
" id="m83660387eb" style="stroke:#000000;stroke-width:2;"/>
      </defs>
      <g>
       <use style="stroke:#000000;stroke-width:2;" x="71.689" xlink:href="#m83660387eb" y="299.589"/>
      </g>
     </g>
     <g id="text_1">
      <!-- -73 -->
      <defs>
       <path d="M 4.890625 31.390625 
L 31.203125 31.390625 
L 31.203125 23.390625 
L 4.890625 23.390625 
z
" id="DejaVuSans-45"/>
       <path d="M 8.203125 72.90625 
L 55.078125 72.90625 
L 55.078125 68.703125 
L 28.609375 0 
L 18.3125 0 
L 43.21875 64.59375 
L 8.203125 64.59375 
z
" id="DejaVuSans-55"/>
       <path d="M 40.578125 39.3125 
Q 47.65625 37.796875 51.625 33 
Q 55.609375 28.21875 55.609375 21.1875 
Q 55.609375 10.40625 48.1875 4.484375 
Q 40.765625 -1.421875 27.09375 -1.421875 
Q 22.515625 -1.421875 17.65625 -0.515625 
Q 12.796875 0.390625 7.625 2.203125 
L 7.625 11.71875 
Q 11.71875 9.328125 16.59375 8.109375 
Q 21.484375 6.890625 26.8125 6.890625 
Q 36.078125 6.890625 40.9375 10.546875 
Q 45.796875 14.203125 45.796875 21.1875 
Q 45.796875 27.640625 41.28125 31.265625 
Q 36.765625 34.90625 28.71875 34.90625 
L 20.21875 34.90625 
L 20.21875 43.015625 
L 29.109375 43.015625 
Q 36.375 43.015625 40.234375 45.921875 
Q 44.09375 48.828125 44.09375 54.296875 
Q 44.09375 59.90625 40.109375 62.90625 
Q 36.140625 65.921875 28.71875 65.921875 
Q 24.65625 65.921875 20.015625 65.03125 
Q 15.375 64.15625 9.8125 62.3125 
L 9.8125 71.09375 
Q 15.4375 72.65625 20.34375 73.4375 
Q 25.25 74.21875 29.59375 74.21875 
Q 40.828125 74.21875 47.359375 69.109375 
Q 53.90625 64.015625 53.90625 55.328125 
Q 53.90625 49.265625 50.4375 45.09375 
Q 46.96875 40.921875 40.578125 39.3125 
z
" id="DejaVuSans-51"/>
      </defs>
      <g transform="translate(58.62275 315.2465)scale(0.16 -0.16)">
       <use xlink:href="#DejaVuSans-45"/>
       <use x="36.083984" xlink:href="#DejaVuSans-55"/>
       <use x="99.707031" xlink:href="#DejaVuSans-51"/>
      </g>
     </g>
    </g>
    <g id="xtick_2">
     <g id="line2d_2">
      <g>
       <use style="stroke:#000000;stroke-width:2;" x="115.641055" xlink:href="#m83660387eb" y="299.589"/>
      </g>
     </g>
     <g id="text_2">
      <!-- -50 -->
      <defs>
       <path d="M 10.796875 72.90625 
L 49.515625 72.90625 
L 49.515625 64.59375 
L 19.828125 64.59375 
L 19.828125 46.734375 
Q 21.96875 47.46875 24.109375 47.828125 
Q 26.265625 48.1875 28.421875 48.1875 
Q 40.625 48.1875 47.75 41.5 
Q 54.890625 34.8125 54.890625 23.390625 
Q 54.890625 11.625 47.5625 5.09375 
Q 40.234375 -1.421875 26.90625 -1.421875 
Q 22.3125 -1.421875 17.546875 -0.640625 
Q 12.796875 0.140625 7.71875 1.703125 
L 7.71875 11.625 
Q 12.109375 9.234375 16.796875 8.0625 
Q 21.484375 6.890625 26.703125 6.890625 
Q 35.15625 6.890625 40.078125 11.328125 
Q 45.015625 15.765625 45.015625 23.390625 
Q 45.015625 31 40.078125 35.4375 
Q 35.15625 39.890625 26.703125 39.890625 
Q 22.75 39.890625 18.8125 39.015625 
Q 14.890625 38.140625 10.796875 36.28125 
z
" id="DejaVuSans-53"/>
       <path d="M 31.78125 66.40625 
Q 24.171875 66.40625 20.328125 58.90625 
Q 16.5 51.421875 16.5 36.375 
Q 16.5 21.390625 20.328125 13.890625 
Q 24.171875 6.390625 31.78125 6.390625 
Q 39.453125 6.390625 43.28125 13.890625 
Q 47.125 21.390625 47.125 36.375 
Q 47.125 51.421875 43.28125 58.90625 
Q 39.453125 66.40625 31.78125 66.40625 
z
M 31.78125 74.21875 
Q 44.046875 74.21875 50.515625 64.515625 
Q 56.984375 54.828125 56.984375 36.375 
Q 56.984375 17.96875 50.515625 8.265625 
Q 44.046875 -1.421875 31.78125 -1.421875 
Q 19.53125 -1.421875 13.0625 8.265625 
Q 6.59375 17.96875 6.59375 36.375 
Q 6.59375 54.828125 13.0625 64.515625 
Q 19.53125 74.21875 31.78125 74.21875 
z
" id="DejaVuSans-48"/>
      </defs>
      <g transform="translate(102.574805 315.2465)scale(0.16 -0.16)">
       <use xlink:href="#DejaVuSans-45"/>
       <use x="36.083984" xlink:href="#DejaVuSans-53"/>
       <use x="99.707031" xlink:href="#DejaVuSans-48"/>
      </g>
     </g>
    </g>
    <g id="xtick_3">
     <g id="line2d_3">
      <g>
       <use style="stroke:#000000;stroke-width:2;" x="163.415027" xlink:href="#m83660387eb" y="299.589"/>
      </g>
     </g>
     <g id="text_3">
      <!-- -25 -->
      <defs>
       <path d="M 19.1875 8.296875 
L 53.609375 8.296875 
L 53.609375 0 
L 7.328125 0 
L 7.328125 8.296875 
Q 12.9375 14.109375 22.625 23.890625 
Q 32.328125 33.6875 34.8125 36.53125 
Q 39.546875 41.84375 41.421875 45.53125 
Q 43.3125 49.21875 43.3125 52.78125 
Q 43.3125 58.59375 39.234375 62.25 
Q 35.15625 65.921875 28.609375 65.921875 
Q 23.96875 65.921875 18.8125 64.3125 
Q 13.671875 62.703125 7.8125 59.421875 
L 7.8125 69.390625 
Q 13.765625 71.78125 18.9375 73 
Q 24.125 74.21875 28.421875 74.21875 
Q 39.75 74.21875 46.484375 68.546875 
Q 53.21875 62.890625 53.21875 53.421875 
Q 53.21875 48.921875 51.53125 44.890625 
Q 49.859375 40.875 45.40625 35.40625 
Q 44.1875 33.984375 37.640625 27.21875 
Q 31.109375 20.453125 19.1875 8.296875 
z
" id="DejaVuSans-50"/>
      </defs>
      <g transform="translate(150.348777 315.2465)scale(0.16 -0.16)">
       <use xlink:href="#DejaVuSans-45"/>
       <use x="36.083984" xlink:href="#DejaVuSans-50"/>
       <use x="99.707031" xlink:href="#DejaVuSans-53"/>
      </g>
     </g>
    </g>
    <g id="xtick_4">
     <g id="line2d_4">
      <g>
       <use style="stroke:#000000;stroke-width:2;" x="211.189" xlink:href="#m83660387eb" y="299.589"/>
      </g>
     </g>
     <g id="text_4">
      <!-- 0 -->
      <g transform="translate(206.099 315.2465)scale(0.16 -0.16)">
       <use xlink:href="#DejaVuSans-48"/>
      </g>
     </g>
    </g>
    <g id="xtick_5">
     <g id="line2d_5">
      <g>
       <use style="stroke:#000000;stroke-width:2;" x="258.962973" xlink:href="#m83660387eb" y="299.589"/>
      </g>
     </g>
     <g id="text_5">
      <!-- 25 -->
      <g transform="translate(248.782973 315.2465)scale(0.16 -0.16)">
       <use xlink:href="#DejaVuSans-50"/>
       <use x="63.623047" xlink:href="#DejaVuSans-53"/>
      </g>
     </g>
    </g>
    <g id="xtick_6">
     <g id="line2d_6">
      <g>
       <use style="stroke:#000000;stroke-width:2;" x="306.736945" xlink:href="#m83660387eb" y="299.589"/>
      </g>
     </g>
     <g id="text_6">
      <!-- 50 -->
      <g transform="translate(296.556945 315.2465)scale(0.16 -0.16)">
       <use xlink:href="#DejaVuSans-53"/>
       <use x="63.623047" xlink:href="#DejaVuSans-48"/>
      </g>
     </g>
    </g>
    <g id="xtick_7">
     <g id="line2d_7">
      <g>
       <use style="stroke:#000000;stroke-width:2;" x="350.689" xlink:href="#m83660387eb" y="299.589"/>
      </g>
     </g>
     <g id="text_7">
      <!-- 73 -->
      <g transform="translate(340.509 315.2465)scale(0.16 -0.16)">
       <use xlink:href="#DejaVuSans-55"/>
       <use x="63.623047" xlink:href="#DejaVuSans-51"/>
      </g>
     </g>
    </g>
    <g id="text_8">
     <!-- Previous Tumor - Current Tumor -->
     <defs>
      <path d="M 19.671875 64.796875 
L 19.671875 37.40625 
L 32.078125 37.40625 
Q 38.96875 37.40625 42.71875 40.96875 
Q 46.484375 44.53125 46.484375 51.125 
Q 46.484375 57.671875 42.71875 61.234375 
Q 38.96875 64.796875 32.078125 64.796875 
z
M 9.8125 72.90625 
L 32.078125 72.90625 
Q 44.34375 72.90625 50.609375 67.359375 
Q 56.890625 61.8125 56.890625 51.125 
Q 56.890625 40.328125 50.609375 34.8125 
Q 44.34375 29.296875 32.078125 29.296875 
L 19.671875 29.296875 
L 19.671875 0 
L 9.8125 0 
z
" id="DejaVuSans-80"/>
      <path d="M 41.109375 46.296875 
Q 39.59375 47.171875 37.8125 47.578125 
Q 36.03125 48 33.890625 48 
Q 26.265625 48 22.1875 43.046875 
Q 18.109375 38.09375 18.109375 28.8125 
L 18.109375 0 
L 9.078125 0 
L 9.078125 54.6875 
L 18.109375 54.6875 
L 18.109375 46.1875 
Q 20.953125 51.171875 25.484375 53.578125 
Q 30.03125 56 36.53125 56 
Q 37.453125 56 38.578125 55.875 
Q 39.703125 55.765625 41.0625 55.515625 
z
" id="DejaVuSans-114"/>
      <path d="M 56.203125 29.59375 
L 56.203125 25.203125 
L 14.890625 25.203125 
Q 15.484375 15.921875 20.484375 11.0625 
Q 25.484375 6.203125 34.421875 6.203125 
Q 39.59375 6.203125 44.453125 7.46875 
Q 49.3125 8.734375 54.109375 11.28125 
L 54.109375 2.78125 
Q 49.265625 0.734375 44.1875 -0.34375 
Q 39.109375 -1.421875 33.890625 -1.421875 
Q 20.796875 -1.421875 13.15625 6.1875 
Q 5.515625 13.8125 5.515625 26.8125 
Q 5.515625 40.234375 12.765625 48.109375 
Q 20.015625 56 32.328125 56 
Q 43.359375 56 49.78125 48.890625 
Q 56.203125 41.796875 56.203125 29.59375 
z
M 47.21875 32.234375 
Q 47.125 39.59375 43.09375 43.984375 
Q 39.0625 48.390625 32.421875 48.390625 
Q 24.90625 48.390625 20.390625 44.140625 
Q 15.875 39.890625 15.1875 32.171875 
z
" id="DejaVuSans-101"/>
      <path d="M 2.984375 54.6875 
L 12.5 54.6875 
L 29.59375 8.796875 
L 46.6875 54.6875 
L 56.203125 54.6875 
L 35.6875 0 
L 23.484375 0 
z
" id="DejaVuSans-118"/>
      <path d="M 9.421875 54.6875 
L 18.40625 54.6875 
L 18.40625 0 
L 9.421875 0 
z
M 9.421875 75.984375 
L 18.40625 75.984375 
L 18.40625 64.59375 
L 9.421875 64.59375 
z
" id="DejaVuSans-105"/>
      <path d="M 30.609375 48.390625 
Q 23.390625 48.390625 19.1875 42.75 
Q 14.984375 37.109375 14.984375 27.296875 
Q 14.984375 17.484375 19.15625 11.84375 
Q 23.34375 6.203125 30.609375 6.203125 
Q 37.796875 6.203125 41.984375 11.859375 
Q 46.1875 17.53125 46.1875 27.296875 
Q 46.1875 37.015625 41.984375 42.703125 
Q 37.796875 48.390625 30.609375 48.390625 
z
M 30.609375 56 
Q 42.328125 56 49.015625 48.375 
Q 55.71875 40.765625 55.71875 27.296875 
Q 55.71875 13.875 49.015625 6.21875 
Q 42.328125 -1.421875 30.609375 -1.421875 
Q 18.84375 -1.421875 12.171875 6.21875 
Q 5.515625 13.875 5.515625 27.296875 
Q 5.515625 40.765625 12.171875 48.375 
Q 18.84375 56 30.609375 56 
z
" id="DejaVuSans-111"/>
      <path d="M 8.5 21.578125 
L 8.5 54.6875 
L 17.484375 54.6875 
L 17.484375 21.921875 
Q 17.484375 14.15625 20.5 10.265625 
Q 23.53125 6.390625 29.59375 6.390625 
Q 36.859375 6.390625 41.078125 11.03125 
Q 45.3125 15.671875 45.3125 23.6875 
L 45.3125 54.6875 
L 54.296875 54.6875 
L 54.296875 0 
L 45.3125 0 
L 45.3125 8.40625 
Q 42.046875 3.421875 37.71875 1 
Q 33.40625 -1.421875 27.6875 -1.421875 
Q 18.265625 -1.421875 13.375 4.4375 
Q 8.5 10.296875 8.5 21.578125 
z
M 31.109375 56 
z
" id="DejaVuSans-117"/>
      <path d="M 44.28125 53.078125 
L 44.28125 44.578125 
Q 40.484375 46.53125 36.375 47.5 
Q 32.28125 48.484375 27.875 48.484375 
Q 21.1875 48.484375 17.84375 46.4375 
Q 14.5 44.390625 14.5 40.28125 
Q 14.5 37.15625 16.890625 35.375 
Q 19.28125 33.59375 26.515625 31.984375 
L 29.59375 31.296875 
Q 39.15625 29.25 43.1875 25.515625 
Q 47.21875 21.78125 47.21875 15.09375 
Q 47.21875 7.46875 41.1875 3.015625 
Q 35.15625 -1.421875 24.609375 -1.421875 
Q 20.21875 -1.421875 15.453125 -0.5625 
Q 10.6875 0.296875 5.421875 2 
L 5.421875 11.28125 
Q 10.40625 8.6875 15.234375 7.390625 
Q 20.0625 6.109375 24.8125 6.109375 
Q 31.15625 6.109375 34.5625 8.28125 
Q 37.984375 10.453125 37.984375 14.40625 
Q 37.984375 18.0625 35.515625 20.015625 
Q 33.0625 21.96875 24.703125 23.78125 
L 21.578125 24.515625 
Q 13.234375 26.265625 9.515625 29.90625 
Q 5.8125 33.546875 5.8125 39.890625 
Q 5.8125 47.609375 11.28125 51.796875 
Q 16.75 56 26.8125 56 
Q 31.78125 56 36.171875 55.265625 
Q 40.578125 54.546875 44.28125 53.078125 
z
" id="DejaVuSans-115"/>
      <path id="DejaVuSans-32"/>
      <path d="M -0.296875 72.90625 
L 61.375 72.90625 
L 61.375 64.59375 
L 35.5 64.59375 
L 35.5 0 
L 25.59375 0 
L 25.59375 64.59375 
L -0.296875 64.59375 
z
" id="DejaVuSans-84"/>
      <path d="M 52 44.1875 
Q 55.375 50.25 60.0625 53.125 
Q 64.75 56 71.09375 56 
Q 79.640625 56 84.28125 50.015625 
Q 88.921875 44.046875 88.921875 33.015625 
L 88.921875 0 
L 79.890625 0 
L 79.890625 32.71875 
Q 79.890625 40.578125 77.09375 44.375 
Q 74.3125 48.1875 68.609375 48.1875 
Q 61.625 48.1875 57.5625 43.546875 
Q 53.515625 38.921875 53.515625 30.90625 
L 53.515625 0 
L 44.484375 0 
L 44.484375 32.71875 
Q 44.484375 40.625 41.703125 44.40625 
Q 38.921875 48.1875 33.109375 48.1875 
Q 26.21875 48.1875 22.15625 43.53125 
Q 18.109375 38.875 18.109375 30.90625 
L 18.109375 0 
L 9.078125 0 
L 9.078125 54.6875 
L 18.109375 54.6875 
L 18.109375 46.1875 
Q 21.1875 51.21875 25.484375 53.609375 
Q 29.78125 56 35.6875 56 
Q 41.65625 56 45.828125 52.96875 
Q 50 49.953125 52 44.1875 
z
" id="DejaVuSans-109"/>
      <path d="M 64.40625 67.28125 
L 64.40625 56.890625 
Q 59.421875 61.53125 53.78125 63.8125 
Q 48.140625 66.109375 41.796875 66.109375 
Q 29.296875 66.109375 22.65625 58.46875 
Q 16.015625 50.828125 16.015625 36.375 
Q 16.015625 21.96875 22.65625 14.328125 
Q 29.296875 6.6875 41.796875 6.6875 
Q 48.140625 6.6875 53.78125 8.984375 
Q 59.421875 11.28125 64.40625 15.921875 
L 64.40625 5.609375 
Q 59.234375 2.09375 53.4375 0.328125 
Q 47.65625 -1.421875 41.21875 -1.421875 
Q 24.65625 -1.421875 15.125 8.703125 
Q 5.609375 18.84375 5.609375 36.375 
Q 5.609375 53.953125 15.125 64.078125 
Q 24.65625 74.21875 41.21875 74.21875 
Q 47.75 74.21875 53.53125 72.484375 
Q 59.328125 70.75 64.40625 67.28125 
z
" id="DejaVuSans-67"/>
      <path d="M 54.890625 33.015625 
L 54.890625 0 
L 45.90625 0 
L 45.90625 32.71875 
Q 45.90625 40.484375 42.875 44.328125 
Q 39.84375 48.1875 33.796875 48.1875 
Q 26.515625 48.1875 22.3125 43.546875 
Q 18.109375 38.921875 18.109375 30.90625 
L 18.109375 0 
L 9.078125 0 
L 9.078125 54.6875 
L 18.109375 54.6875 
L 18.109375 46.1875 
Q 21.34375 51.125 25.703125 53.5625 
Q 30.078125 56 35.796875 56 
Q 45.21875 56 50.046875 50.171875 
Q 54.890625 44.34375 54.890625 33.015625 
z
" id="DejaVuSans-110"/>
      <path d="M 18.3125 70.21875 
L 18.3125 54.6875 
L 36.8125 54.6875 
L 36.8125 47.703125 
L 18.3125 47.703125 
L 18.3125 18.015625 
Q 18.3125 11.328125 20.140625 9.421875 
Q 21.96875 7.515625 27.59375 7.515625 
L 36.8125 7.515625 
L 36.8125 0 
L 27.59375 0 
Q 17.1875 0 13.234375 3.875 
Q 9.28125 7.765625 9.28125 18.015625 
L 9.28125 47.703125 
L 2.6875 47.703125 
L 2.6875 54.6875 
L 9.28125 54.6875 
L 9.28125 70.21875 
z
" id="DejaVuSans-116"/>
     </defs>
     <g transform="translate(81.82525 334.7315)scale(0.16 -0.16)">
      <use xlink:href="#DejaVuSans-80"/>
      <use x="60.287109" xlink:href="#DejaVuSans-114"/>
      <use x="101.369141" xlink:href="#DejaVuSans-101"/>
      <use x="162.892578" xlink:href="#DejaVuSans-118"/>
      <use x="222.072266" xlink:href="#DejaVuSans-105"/>
      <use x="249.855469" xlink:href="#DejaVuSans-111"/>
      <use x="311.037109" xlink:href="#DejaVuSans-117"/>
      <use x="374.416016" xlink:href="#DejaVuSans-115"/>
      <use x="426.515625" xlink:href="#DejaVuSans-32"/>
      <use x="458.302734" xlink:href="#DejaVuSans-84"/>
      <use x="519.152344" xlink:href="#DejaVuSans-117"/>
      <use x="582.53125" xlink:href="#DejaVuSans-109"/>
      <use x="679.943359" xlink:href="#DejaVuSans-111"/>
      <use x="741.125" xlink:href="#DejaVuSans-114"/>
      <use x="782.238281" xlink:href="#DejaVuSans-32"/>
      <use x="814.025391" xlink:href="#DejaVuSans-45"/>
      <use x="850.109375" xlink:href="#DejaVuSans-32"/>
      <use x="881.896484" xlink:href="#DejaVuSans-67"/>
      <use x="951.720703" xlink:href="#DejaVuSans-117"/>
      <use x="1015.099609" xlink:href="#DejaVuSans-114"/>
      <use x="1056.197266" xlink:href="#DejaVuSans-114"/>
      <use x="1097.279297" xlink:href="#DejaVuSans-101"/>
      <use x="1158.802734" xlink:href="#DejaVuSans-110"/>
      <use x="1222.181641" xlink:href="#DejaVuSans-116"/>
      <use x="1261.390625" xlink:href="#DejaVuSans-32"/>
      <use x="1293.177734" xlink:href="#DejaVuSans-84"/>
      <use x="1354.027344" xlink:href="#DejaVuSans-117"/>
      <use x="1417.40625" xlink:href="#DejaVuSans-109"/>
      <use x="1514.818359" xlink:href="#DejaVuSans-111"/>
      <use x="1576" xlink:href="#DejaVuSans-114"/>
     </g>
     <!--  (morph units) -->
     <defs>
      <path d="M 31 75.875 
Q 24.46875 64.65625 21.28125 53.65625 
Q 18.109375 42.671875 18.109375 31.390625 
Q 18.109375 20.125 21.3125 9.0625 
Q 24.515625 -2 31 -13.1875 
L 23.1875 -13.1875 
Q 15.875 -1.703125 12.234375 9.375 
Q 8.59375 20.453125 8.59375 31.390625 
Q 8.59375 42.28125 12.203125 53.3125 
Q 15.828125 64.359375 23.1875 75.875 
z
" id="DejaVuSans-40"/>
      <path d="M 18.109375 8.203125 
L 18.109375 -20.796875 
L 9.078125 -20.796875 
L 9.078125 54.6875 
L 18.109375 54.6875 
L 18.109375 46.390625 
Q 20.953125 51.265625 25.265625 53.625 
Q 29.59375 56 35.59375 56 
Q 45.5625 56 51.78125 48.09375 
Q 58.015625 40.1875 58.015625 27.296875 
Q 58.015625 14.40625 51.78125 6.484375 
Q 45.5625 -1.421875 35.59375 -1.421875 
Q 29.59375 -1.421875 25.265625 0.953125 
Q 20.953125 3.328125 18.109375 8.203125 
z
M 48.6875 27.296875 
Q 48.6875 37.203125 44.609375 42.84375 
Q 40.53125 48.484375 33.40625 48.484375 
Q 26.265625 48.484375 22.1875 42.84375 
Q 18.109375 37.203125 18.109375 27.296875 
Q 18.109375 17.390625 22.1875 11.75 
Q 26.265625 6.109375 33.40625 6.109375 
Q 40.53125 6.109375 44.609375 11.75 
Q 48.6875 17.390625 48.6875 27.296875 
z
" id="DejaVuSans-112"/>
      <path d="M 54.890625 33.015625 
L 54.890625 0 
L 45.90625 0 
L 45.90625 32.71875 
Q 45.90625 40.484375 42.875 44.328125 
Q 39.84375 48.1875 33.796875 48.1875 
Q 26.515625 48.1875 22.3125 43.546875 
Q 18.109375 38.921875 18.109375 30.90625 
L 18.109375 0 
L 9.078125 0 
L 9.078125 75.984375 
L 18.109375 75.984375 
L 18.109375 46.1875 
Q 21.34375 51.125 25.703125 53.5625 
Q 30.078125 56 35.796875 56 
Q 45.21875 56 50.046875 50.171875 
Q 54.890625 44.34375 54.890625 33.015625 
z
" id="DejaVuSans-104"/>
      <path d="M 8.015625 75.875 
L 15.828125 75.875 
Q 23.140625 64.359375 26.78125 53.3125 
Q 30.421875 42.28125 30.421875 31.390625 
Q 30.421875 20.453125 26.78125 9.375 
Q 23.140625 -1.703125 15.828125 -13.1875 
L 8.015625 -13.1875 
Q 14.5 -2 17.703125 9.0625 
Q 20.90625 20.125 20.90625 31.390625 
Q 20.90625 42.671875 17.703125 53.65625 
Q 14.5 64.65625 8.015625 75.875 
z
" id="DejaVuSans-41"/>
     </defs>
     <g transform="translate(154.07025 352.648)scale(0.16 -0.16)">
      <use xlink:href="#DejaVuSans-32"/>
      <use x="31.787109" xlink:href="#DejaVuSans-40"/>
      <use x="70.800781" xlink:href="#DejaVuSans-109"/>
      <use x="168.212891" xlink:href="#DejaVuSans-111"/>
      <use x="229.394531" xlink:href="#DejaVuSans-114"/>
      <use x="270.507812" xlink:href="#DejaVuSans-112"/>
      <use x="333.984375" xlink:href="#DejaVuSans-104"/>
      <use x="397.363281" xlink:href="#DejaVuSans-32"/>
      <use x="429.150391" xlink:href="#DejaVuSans-117"/>
      <use x="492.529297" xlink:href="#DejaVuSans-110"/>
      <use x="555.908203" xlink:href="#DejaVuSans-105"/>
      <use x="583.691406" xlink:href="#DejaVuSans-116"/>
      <use x="622.900391" xlink:href="#DejaVuSans-115"/>
      <use x="675" xlink:href="#DejaVuSans-41"/>
     </g>
    </g>
   </g>
   <g id="matplotlib.axis_2">
    <g id="ytick_1">
     <g id="line2d_8">
      <defs>
       <path d="M 0 0 
L 6 0 
" id="mf149409ebc" style="stroke:#000000;stroke-width:2;"/>
      </defs>
      <g>
       <use style="stroke:#000000;stroke-width:2;" x="71.689" xlink:href="#mf149409ebc" y="299.589"/>
      </g>
     </g>
     <g id="text_9">
      <!-- −3 -->
      <defs>
       <path d="M 10.59375 35.5 
L 73.1875 35.5 
L 73.1875 27.203125 
L 10.59375 27.203125 
z
" id="DejaVuSans-8722"/>
      </defs>
      <g transform="translate(44.6015 305.66775)scale(0.16 -0.16)">
       <use xlink:href="#DejaVuSans-8722"/>
       <use x="83.789062" xlink:href="#DejaVuSans-51"/>
      </g>
     </g>
    </g>
    <g id="ytick_2">
     <g id="line2d_9">
      <g>
       <use style="stroke:#000000;stroke-width:2;" x="71.689" xlink:href="#mf149409ebc" y="254.289"/>
      </g>
     </g>
     <g id="text_10">
      <!-- −2 -->
      <g transform="translate(44.6015 260.36775)scale(0.16 -0.16)">
       <use xlink:href="#DejaVuSans-8722"/>
       <use x="83.789062" xlink:href="#DejaVuSans-50"/>
      </g>
     </g>
    </g>
    <g id="ytick_3">
     <g id="line2d_10">
      <g>
       <use style="stroke:#000000;stroke-width:2;" x="71.689" xlink:href="#mf149409ebc" y="208.989"/>
      </g>
     </g>
     <g id="text_11">
      <!-- −1 -->
      <defs>
       <path d="M 12.40625 8.296875 
L 28.515625 8.296875 
L 28.515625 63.921875 
L 10.984375 60.40625 
L 10.984375 69.390625 
L 28.421875 72.90625 
L 38.28125 72.90625 
L 38.28125 8.296875 
L 54.390625 8.296875 
L 54.390625 0 
L 12.40625 0 
z
" id="DejaVuSans-49"/>
      </defs>
      <g transform="translate(44.6015 215.06775)scale(0.16 -0.16)">
       <use xlink:href="#DejaVuSans-8722"/>
       <use x="83.789062" xlink:href="#DejaVuSans-49"/>
      </g>
     </g>
    </g>
    <g id="ytick_4">
     <g id="line2d_11">
      <g>
       <use style="stroke:#000000;stroke-width:2;" x="71.689" xlink:href="#mf149409ebc" y="163.689"/>
      </g>
     </g>
     <g id="text_12">
      <!-- 0 -->
      <g transform="translate(58.009 169.76775)scale(0.16 -0.16)">
       <use xlink:href="#DejaVuSans-48"/>
      </g>
     </g>
    </g>
    <g id="ytick_5">
     <g id="line2d_12">
      <g>
       <use style="stroke:#000000;stroke-width:2;" x="71.689" xlink:href="#mf149409ebc" y="118.389"/>
      </g>
     </g>
     <g id="text_13">
      <!-- 1 -->
      <g transform="translate(58.009 124.46775)scale(0.16 -0.16)">
       <use xlink:href="#DejaVuSans-49"/>
      </g>
     </g>
    </g>
    <g id="ytick_6">
     <g id="line2d_13">
      <g>
       <use style="stroke:#000000;stroke-width:2;" x="71.689" xlink:href="#mf149409ebc" y="73.089"/>
      </g>
     </g>
     <g id="text_14">
      <!-- 2 -->
      <g transform="translate(58.009 79.16775)scale(0.16 -0.16)">
       <use xlink:href="#DejaVuSans-50"/>
      </g>
     </g>
    </g>
    <g id="ytick_7">
     <g id="line2d_14">
      <g>
       <use style="stroke:#000000;stroke-width:2;" x="71.689" xlink:href="#mf149409ebc" y="27.789"/>
      </g>
     </g>
     <g id="text_15">
      <!-- 3 -->
      <g transform="translate(58.009 33.86775)scale(0.16 -0.16)">
       <use xlink:href="#DejaVuSans-51"/>
      </g>
     </g>
    </g>
    <g id="text_16">
     <!-- Response Error on Current Trial -->
     <defs>
      <path d="M 44.390625 34.1875 
Q 47.5625 33.109375 50.5625 29.59375 
Q 53.5625 26.078125 56.59375 19.921875 
L 66.609375 0 
L 56 0 
L 46.6875 18.703125 
Q 43.0625 26.03125 39.671875 28.421875 
Q 36.28125 30.8125 30.421875 30.8125 
L 19.671875 30.8125 
L 19.671875 0 
L 9.8125 0 
L 9.8125 72.90625 
L 32.078125 72.90625 
Q 44.578125 72.90625 50.734375 67.671875 
Q 56.890625 62.453125 56.890625 51.90625 
Q 56.890625 45.015625 53.6875 40.46875 
Q 50.484375 35.9375 44.390625 34.1875 
z
M 19.671875 64.796875 
L 19.671875 38.921875 
L 32.078125 38.921875 
Q 39.203125 38.921875 42.84375 42.21875 
Q 46.484375 45.515625 46.484375 51.90625 
Q 46.484375 58.296875 42.84375 61.546875 
Q 39.203125 64.796875 32.078125 64.796875 
z
" id="DejaVuSans-82"/>
      <path d="M 9.8125 72.90625 
L 55.90625 72.90625 
L 55.90625 64.59375 
L 19.671875 64.59375 
L 19.671875 43.015625 
L 54.390625 43.015625 
L 54.390625 34.71875 
L 19.671875 34.71875 
L 19.671875 8.296875 
L 56.78125 8.296875 
L 56.78125 0 
L 9.8125 0 
z
" id="DejaVuSans-69"/>
      <path d="M 34.28125 27.484375 
Q 23.390625 27.484375 19.1875 25 
Q 14.984375 22.515625 14.984375 16.5 
Q 14.984375 11.71875 18.140625 8.90625 
Q 21.296875 6.109375 26.703125 6.109375 
Q 34.1875 6.109375 38.703125 11.40625 
Q 43.21875 16.703125 43.21875 25.484375 
L 43.21875 27.484375 
z
M 52.203125 31.203125 
L 52.203125 0 
L 43.21875 0 
L 43.21875 8.296875 
Q 40.140625 3.328125 35.546875 0.953125 
Q 30.953125 -1.421875 24.3125 -1.421875 
Q 15.921875 -1.421875 10.953125 3.296875 
Q 6 8.015625 6 15.921875 
Q 6 25.140625 12.171875 29.828125 
Q 18.359375 34.515625 30.609375 34.515625 
L 43.21875 34.515625 
L 43.21875 35.40625 
Q 43.21875 41.609375 39.140625 45 
Q 35.0625 48.390625 27.6875 48.390625 
Q 23 48.390625 18.546875 47.265625 
Q 14.109375 46.140625 10.015625 43.890625 
L 10.015625 52.203125 
Q 14.9375 54.109375 19.578125 55.046875 
Q 24.21875 56 28.609375 56 
Q 40.484375 56 46.34375 49.84375 
Q 52.203125 43.703125 52.203125 31.203125 
z
" id="DejaVuSans-97"/>
      <path d="M 9.421875 75.984375 
L 18.40625 75.984375 
L 18.40625 0 
L 9.421875 0 
z
" id="DejaVuSans-108"/>
     </defs>
     <g transform="translate(19.3575 290.27775)rotate(-90)scale(0.16 -0.16)">
      <use xlink:href="#DejaVuSans-82"/>
      <use x="69.419922" xlink:href="#DejaVuSans-101"/>
      <use x="130.943359" xlink:href="#DejaVuSans-115"/>
      <use x="183.042969" xlink:href="#DejaVuSans-112"/>
      <use x="246.519531" xlink:href="#DejaVuSans-111"/>
      <use x="307.701172" xlink:href="#DejaVuSans-110"/>
      <use x="371.080078" xlink:href="#DejaVuSans-115"/>
      <use x="423.179688" xlink:href="#DejaVuSans-101"/>
      <use x="484.703125" xlink:href="#DejaVuSans-32"/>
      <use x="516.490234" xlink:href="#DejaVuSans-69"/>
      <use x="579.673828" xlink:href="#DejaVuSans-114"/>
      <use x="620.771484" xlink:href="#DejaVuSans-114"/>
      <use x="661.853516" xlink:href="#DejaVuSans-111"/>
      <use x="723.035156" xlink:href="#DejaVuSans-114"/>
      <use x="764.148438" xlink:href="#DejaVuSans-32"/>
      <use x="795.935547" xlink:href="#DejaVuSans-111"/>
      <use x="857.117188" xlink:href="#DejaVuSans-110"/>
      <use x="920.496094" xlink:href="#DejaVuSans-32"/>
      <use x="952.283203" xlink:href="#DejaVuSans-67"/>
      <use x="1022.107422" xlink:href="#DejaVuSans-117"/>
      <use x="1085.486328" xlink:href="#DejaVuSans-114"/>
      <use x="1126.583984" xlink:href="#DejaVuSans-114"/>
      <use x="1167.666016" xlink:href="#DejaVuSans-101"/>
      <use x="1229.189453" xlink:href="#DejaVuSans-110"/>
      <use x="1292.568359" xlink:href="#DejaVuSans-116"/>
      <use x="1331.777344" xlink:href="#DejaVuSans-32"/>
      <use x="1363.564453" xlink:href="#DejaVuSans-84"/>
      <use x="1424.429688" xlink:href="#DejaVuSans-114"/>
      <use x="1465.542969" xlink:href="#DejaVuSans-105"/>
      <use x="1493.326172" xlink:href="#DejaVuSans-97"/>
      <use x="1554.605469" xlink:href="#DejaVuSans-108"/>
     </g>
     <!--  (morph units) -->
     <g transform="translate(37.274 220.80775)rotate(-90)scale(0.16 -0.16)">
      <use xlink:href="#DejaVuSans-32"/>
      <use x="31.787109" xlink:href="#DejaVuSans-40"/>
      <use x="70.800781" xlink:href="#DejaVuSans-109"/>
      <use x="168.212891" xlink:href="#DejaVuSans-111"/>
      <use x="229.394531" xlink:href="#DejaVuSans-114"/>
      <use x="270.507812" xlink:href="#DejaVuSans-112"/>
      <use x="333.984375" xlink:href="#DejaVuSans-104"/>
      <use x="397.363281" xlink:href="#DejaVuSans-32"/>
      <use x="429.150391" xlink:href="#DejaVuSans-117"/>
      <use x="492.529297" xlink:href="#DejaVuSans-110"/>
      <use x="555.908203" xlink:href="#DejaVuSans-105"/>
      <use x="583.691406" xlink:href="#DejaVuSans-116"/>
      <use x="622.900391" xlink:href="#DejaVuSans-115"/>
      <use x="675" xlink:href="#DejaVuSans-41"/>
     </g>
    </g>
   </g>
   <g id="line2d_15">
    <path clip-path="url(#p3b95931032)" d="M 71.689 172.198697 
L 73.599959 162.435131 
L 75.510918 165.282887 
L 77.421877 165.903136 
L 79.332836 170.426395 
L 81.243795 167.833821 
L 83.154753 166.811927 
L 86.976671 175.091938 
L 88.88763 173.663785 
L 90.798589 170.396098 
L 92.709548 161.627393 
L 94.620507 169.934459 
L 96.531466 173.881605 
L 98.442425 169.697946 
L 100.353384 171.562865 
L 102.264342 169.293674 
L 104.175301 168.508917 
L 106.08626 171.446365 
L 107.997219 170.186895 
L 109.908178 160.553698 
L 111.819137 158.469473 
L 113.730096 170.000259 
L 115.641055 162.322633 
L 117.552014 166.66824 
L 119.462973 174.215523 
L 121.373932 164.645917 
L 123.28489 168.962298 
L 125.195849 175.095829 
L 127.106808 181.818865 
L 129.017767 178.806189 
L 130.928726 192.087338 
L 132.839685 188.169783 
L 134.750644 185.106404 
L 136.661603 184.554705 
L 138.572562 182.058997 
L 140.483521 186.534496 
L 142.394479 191.453233 
L 144.305438 188.091875 
L 146.216397 188.946679 
L 148.127356 184.58509 
L 150.038315 188.868799 
L 151.949274 193.994433 
L 153.860233 193.205804 
L 155.771192 199.988315 
L 157.682151 206.193808 
L 159.59311 204.615333 
L 161.504068 202.334025 
L 163.415027 203.732444 
L 165.325986 200.982116 
L 167.236945 202.967949 
L 169.147904 203.030764 
L 172.969822 192.425659 
L 174.880781 188.269842 
L 176.79174 179.047699 
L 178.702699 177.636041 
L 180.613658 183.671729 
L 182.524616 180.368006 
L 184.435575 175.919501 
L 186.346534 171.854009 
L 188.257493 171.773624 
L 190.168452 149.971941 
L 192.079411 150.768568 
L 193.99037 160.000562 
L 195.901329 159.352913 
L 197.812288 164.126272 
L 199.723247 161.213305 
L 201.634205 160.448556 
L 203.545164 160.391752 
L 205.456123 157.061387 
L 207.367082 165.005136 
L 209.278041 164.938045 
L 211.189 159.310976 
L 213.099959 150.509075 
L 215.010918 151.410139 
L 216.921877 151.344902 
L 218.832836 156.944426 
L 220.743795 168.05182 
L 222.654753 159.040579 
L 224.565712 154.501 
L 226.476671 149.052179 
L 228.38763 154.344745 
L 230.298589 161.736542 
L 232.209548 159.137982 
L 234.120507 164.029993 
L 236.031466 159.432076 
L 237.942425 150.664601 
L 239.853384 147.633143 
L 241.764342 146.709044 
L 243.675301 143.489848 
L 245.58626 143.051363 
L 247.497219 135.016837 
L 249.408178 145.30733 
L 251.319137 145.403419 
L 253.230096 140.331658 
L 255.141055 132.573981 
L 257.052014 128.71861 
L 258.962973 118.799383 
L 260.873932 116.187087 
L 262.78489 114.529089 
L 264.695849 110.273278 
L 266.606808 112.961898 
L 268.517767 114.929696 
L 270.428726 122.809668 
L 272.339685 127.244223 
L 274.250644 116.70289 
L 276.161603 121.054543 
L 278.072562 122.317203 
L 279.983521 115.794963 
L 281.894479 124.582514 
L 283.805438 122.403656 
L 285.716397 125.641468 
L 287.627356 129.507665 
L 289.538315 128.005554 
L 293.360233 139.173281 
L 295.271192 159.566581 
L 297.182151 160.74095 
L 299.09311 163.134384 
L 301.004068 163.001056 
L 302.915027 163.286423 
L 304.825986 161.4135 
L 306.736945 166.246399 
L 308.647904 164.43102 
L 310.558863 167.563874 
L 312.469822 167.165794 
L 314.380781 178.891755 
L 316.29174 177.058199 
L 318.202699 171.815529 
L 320.113658 174.613752 
L 322.024616 174.277089 
L 323.935575 180.473504 
L 325.846534 178.34454 
L 329.668452 178.508961 
L 331.579411 179.222588 
L 333.49037 188.1712 
L 335.401329 175.220382 
L 337.312288 176.530731 
L 339.223247 176.389327 
L 341.134205 170.360302 
L 343.045164 177.050458 
L 344.956123 175.999747 
L 346.867082 174.111578 
L 348.778041 174.242784 
L 350.689 172.198697 
L 350.689 172.198697 
" style="fill:none;stroke:#00008b;stroke-linecap:square;stroke-width:1.5;"/>
   </g>
   <g id="line2d_16">
    <path clip-path="url(#p3b95931032)" d="M 71.689 163.783652 
L 88.88763 164.304413 
L 98.442425 164.764531 
L 106.08626 165.306133 
L 113.730096 166.083713 
L 119.462973 166.879418 
L 125.195849 167.907758 
L 130.928726 169.212013 
L 136.661603 170.821744 
L 142.394479 172.735349 
L 148.127356 174.8975 
L 159.59311 179.349746 
L 163.415027 180.593578 
L 167.236945 181.556764 
L 171.058863 182.141517 
L 172.969822 182.265299 
L 174.880781 182.265542 
L 176.79174 182.136485 
L 178.702699 181.874805 
L 180.613658 181.479817 
L 182.524616 180.953563 
L 184.435575 180.300763 
L 188.257493 178.646607 
L 192.079411 176.598703 
L 195.901329 174.257554 
L 201.634205 170.413092 
L 215.010918 160.98349 
L 224.565712 154.368913 
L 228.38763 151.919741 
L 232.209548 149.71217 
L 236.031466 147.849359 
L 239.853384 146.424437 
L 241.764342 145.898183 
L 243.675301 145.503195 
L 245.58626 145.241515 
L 247.497219 145.112458 
L 249.408178 145.112701 
L 251.319137 145.236483 
L 255.141055 145.821236 
L 258.962973 146.784422 
L 262.78489 148.028254 
L 268.517767 150.201756 
L 278.072562 153.944805 
L 283.805438 155.950758 
L 289.538315 157.664114 
L 295.271192 159.06803 
L 301.004068 160.18392 
L 306.736945 161.052043 
L 312.469822 161.718197 
L 320.113658 162.366875 
L 329.668452 162.911733 
L 343.045164 163.39152 
L 350.689 163.594348 
L 350.689 163.594348 
" style="fill:none;stroke:#006400;stroke-linecap:square;stroke-width:1.5;"/>
   </g>
   <g id="patch_3">
    <path d="M 71.689 299.589 
L 71.689 27.789 
" style="fill:none;stroke:#000000;stroke-linecap:square;stroke-linejoin:miter;stroke-width:2;"/>
   </g>
   <g id="patch_4">
    <path d="M 71.689 299.589 
L 350.689 299.589 
" style="fill:none;stroke:#000000;stroke-linecap:square;stroke-linejoin:miter;stroke-width:2;"/>
   </g>
   <g id="text_17">
    <!-- Trials-Forward Radiologists, Step = 30 -->
    <defs>
     <path d="M 9.8125 72.90625 
L 51.703125 72.90625 
L 51.703125 64.59375 
L 19.671875 64.59375 
L 19.671875 43.109375 
L 48.578125 43.109375 
L 48.578125 34.8125 
L 19.671875 34.8125 
L 19.671875 0 
L 9.8125 0 
z
" id="DejaVuSans-70"/>
     <path d="M 4.203125 54.6875 
L 13.1875 54.6875 
L 24.421875 12.015625 
L 35.59375 54.6875 
L 46.1875 54.6875 
L 57.421875 12.015625 
L 68.609375 54.6875 
L 77.59375 54.6875 
L 63.28125 0 
L 52.6875 0 
L 40.921875 44.828125 
L 29.109375 0 
L 18.5 0 
z
" id="DejaVuSans-119"/>
     <path d="M 45.40625 46.390625 
L 45.40625 75.984375 
L 54.390625 75.984375 
L 54.390625 0 
L 45.40625 0 
L 45.40625 8.203125 
Q 42.578125 3.328125 38.25 0.953125 
Q 33.9375 -1.421875 27.875 -1.421875 
Q 17.96875 -1.421875 11.734375 6.484375 
Q 5.515625 14.40625 5.515625 27.296875 
Q 5.515625 40.1875 11.734375 48.09375 
Q 17.96875 56 27.875 56 
Q 33.9375 56 38.25 53.625 
Q 42.578125 51.265625 45.40625 46.390625 
z
M 14.796875 27.296875 
Q 14.796875 17.390625 18.875 11.75 
Q 22.953125 6.109375 30.078125 6.109375 
Q 37.203125 6.109375 41.296875 11.75 
Q 45.40625 17.390625 45.40625 27.296875 
Q 45.40625 37.203125 41.296875 42.84375 
Q 37.203125 48.484375 30.078125 48.484375 
Q 22.953125 48.484375 18.875 42.84375 
Q 14.796875 37.203125 14.796875 27.296875 
z
" id="DejaVuSans-100"/>
     <path d="M 45.40625 27.984375 
Q 45.40625 37.75 41.375 43.109375 
Q 37.359375 48.484375 30.078125 48.484375 
Q 22.859375 48.484375 18.828125 43.109375 
Q 14.796875 37.75 14.796875 27.984375 
Q 14.796875 18.265625 18.828125 12.890625 
Q 22.859375 7.515625 30.078125 7.515625 
Q 37.359375 7.515625 41.375 12.890625 
Q 45.40625 18.265625 45.40625 27.984375 
z
M 54.390625 6.78125 
Q 54.390625 -7.171875 48.1875 -13.984375 
Q 42 -20.796875 29.203125 -20.796875 
Q 24.46875 -20.796875 20.265625 -20.09375 
Q 16.0625 -19.390625 12.109375 -17.921875 
L 12.109375 -9.1875 
Q 16.0625 -11.328125 19.921875 -12.34375 
Q 23.78125 -13.375 27.78125 -13.375 
Q 36.625 -13.375 41.015625 -8.765625 
Q 45.40625 -4.15625 45.40625 5.171875 
L 45.40625 9.625 
Q 42.625 4.78125 38.28125 2.390625 
Q 33.9375 0 27.875 0 
Q 17.828125 0 11.671875 7.65625 
Q 5.515625 15.328125 5.515625 27.984375 
Q 5.515625 40.671875 11.671875 48.328125 
Q 17.828125 56 27.875 56 
Q 33.9375 56 38.28125 53.609375 
Q 42.625 51.21875 45.40625 46.390625 
L 45.40625 54.6875 
L 54.390625 54.6875 
z
" id="DejaVuSans-103"/>
     <path d="M 11.71875 12.40625 
L 22.015625 12.40625 
L 22.015625 4 
L 14.015625 -11.625 
L 7.71875 -11.625 
L 11.71875 4 
z
" id="DejaVuSans-44"/>
     <path d="M 53.515625 70.515625 
L 53.515625 60.890625 
Q 47.90625 63.578125 42.921875 64.890625 
Q 37.9375 66.21875 33.296875 66.21875 
Q 25.25 66.21875 20.875 63.09375 
Q 16.5 59.96875 16.5 54.203125 
Q 16.5 49.359375 19.40625 46.890625 
Q 22.3125 44.4375 30.421875 42.921875 
L 36.375 41.703125 
Q 47.40625 39.59375 52.65625 34.296875 
Q 57.90625 29 57.90625 20.125 
Q 57.90625 9.515625 50.796875 4.046875 
Q 43.703125 -1.421875 29.984375 -1.421875 
Q 24.8125 -1.421875 18.96875 -0.25 
Q 13.140625 0.921875 6.890625 3.21875 
L 6.890625 13.375 
Q 12.890625 10.015625 18.65625 8.296875 
Q 24.421875 6.59375 29.984375 6.59375 
Q 38.421875 6.59375 43.015625 9.90625 
Q 47.609375 13.234375 47.609375 19.390625 
Q 47.609375 24.75 44.3125 27.78125 
Q 41.015625 30.8125 33.5 32.328125 
L 27.484375 33.5 
Q 16.453125 35.6875 11.515625 40.375 
Q 6.59375 45.0625 6.59375 53.421875 
Q 6.59375 63.09375 13.40625 68.65625 
Q 20.21875 74.21875 32.171875 74.21875 
Q 37.3125 74.21875 42.625 73.28125 
Q 47.953125 72.359375 53.515625 70.515625 
z
" id="DejaVuSans-83"/>
     <path d="M 10.59375 45.40625 
L 73.1875 45.40625 
L 73.1875 37.203125 
L 10.59375 37.203125 
z
M 10.59375 25.484375 
L 73.1875 25.484375 
L 73.1875 17.1875 
L 10.59375 17.1875 
z
" id="DejaVuSans-61"/>
    </defs>
    <g transform="translate(26.9785 21.789)scale(0.192 -0.192)">
     <use xlink:href="#DejaVuSans-84"/>
     <use x="60.865234" xlink:href="#DejaVuSans-114"/>
     <use x="101.978516" xlink:href="#DejaVuSans-105"/>
     <use x="129.761719" xlink:href="#DejaVuSans-97"/>
     <use x="191.041016" xlink:href="#DejaVuSans-108"/>
     <use x="218.824219" xlink:href="#DejaVuSans-115"/>
     <use x="270.923828" xlink:href="#DejaVuSans-45"/>
     <use x="307.007812" xlink:href="#DejaVuSans-70"/>
     <use x="364.480469" xlink:href="#DejaVuSans-111"/>
     <use x="425.662109" xlink:href="#DejaVuSans-114"/>
     <use x="466.775391" xlink:href="#DejaVuSans-119"/>
     <use x="548.5625" xlink:href="#DejaVuSans-97"/>
     <use x="609.841797" xlink:href="#DejaVuSans-114"/>
     <use x="650.939453" xlink:href="#DejaVuSans-100"/>
     <use x="714.416016" xlink:href="#DejaVuSans-32"/>
     <use x="746.203125" xlink:href="#DejaVuSans-82"/>
     <use x="815.654297" xlink:href="#DejaVuSans-97"/>
     <use x="876.933594" xlink:href="#DejaVuSans-100"/>
     <use x="940.410156" xlink:href="#DejaVuSans-105"/>
     <use x="968.193359" xlink:href="#DejaVuSans-111"/>
     <use x="1029.375" xlink:href="#DejaVuSans-108"/>
     <use x="1057.158203" xlink:href="#DejaVuSans-111"/>
     <use x="1118.339844" xlink:href="#DejaVuSans-103"/>
     <use x="1181.816406" xlink:href="#DejaVuSans-105"/>
     <use x="1209.599609" xlink:href="#DejaVuSans-115"/>
     <use x="1261.699219" xlink:href="#DejaVuSans-116"/>
     <use x="1300.908203" xlink:href="#DejaVuSans-115"/>
     <use x="1353.007812" xlink:href="#DejaVuSans-44"/>
     <use x="1384.794922" xlink:href="#DejaVuSans-32"/>
     <use x="1416.582031" xlink:href="#DejaVuSans-83"/>
     <use x="1480.058594" xlink:href="#DejaVuSans-116"/>
     <use x="1519.267578" xlink:href="#DejaVuSans-101"/>
     <use x="1580.791016" xlink:href="#DejaVuSans-112"/>
     <use x="1644.267578" xlink:href="#DejaVuSans-32"/>
     <use x="1676.054688" xlink:href="#DejaVuSans-61"/>
     <use x="1759.84375" xlink:href="#DejaVuSans-32"/>
     <use x="1791.630859" xlink:href="#DejaVuSans-51"/>
     <use x="1855.253906" xlink:href="#DejaVuSans-48"/>
    </g>
   </g>
  </g>
 </g>
 <defs>
  <clipPath id="p3b95931032">
   <rect height="271.8" width="279" x="71.689" y="27.789"/>
  </clipPath>
 </defs>
</svg>
