<?xml version="1.0" encoding="utf-8" standalone="no"?>
<!DOCTYPE svg PUBLIC "-//W3C//DTD SVG 1.1//EN"
  "http://www.w3.org/Graphics/SVG/1.1/DTD/svg11.dtd">
<!-- Created with matplotlib (https://matplotlib.org/) -->
<svg height="363.1755pt" version="1.1" viewBox="0 0 368.069 363.1755" width="368.069pt" xmlns="http://www.w3.org/2000/svg" xmlns:xlink="http://www.w3.org/1999/xlink">
 <defs>
  <style type="text/css">
*{stroke-linecap:butt;stroke-linejoin:round;}
  </style>
 </defs>
 <g id="figure_1">
  <g id="patch_1">
   <path d="M 0 363.1755 
L 368.069 363.1755 
L 368.069 0 
L 0 0 
z
" style="fill:#ffffff;"/>
  </g>
  <g id="axes_1">
   <g id="patch_2">
    <path d="M 71.689 299.589 
L 350.689 299.589 
L 350.689 27.789 
L 71.689 27.789 
z
" style="fill:#ffffff;"/>
   </g>
   <g id="PolyCollection_1">
    <defs>
     <path d="M 71.689 -127.879572 
L 71.689 -186.286806 
L 73.599959 -194.342303 
L 75.510918 -205.637632 
L 77.421877 -203.664145 
L 79.332836 -204.003545 
L 81.243795 -218.123161 
L 83.154753 -221.688573 
L 85.065712 -225.010252 
L 86.976671 -242.6349 
L 88.88763 -236.116721 
L 90.798589 -215.395529 
L 92.709548 -219.43825 
L 94.620507 -206.424599 
L 96.531466 -201.879998 
L 98.442425 -206.12344 
L 100.353384 -201.68667 
L 102.264342 -196.462173 
L 104.175301 -171.811417 
L 106.08626 -166.797033 
L 107.997219 -168.900217 
L 109.908178 -175.994762 
L 111.819137 -189.11294 
L 113.730096 -176.403684 
L 115.641055 -172.502788 
L 117.552014 -178.707468 
L 119.462973 -172.829979 
L 121.373932 -176.786476 
L 123.28489 -163.531254 
L 125.195849 -170.186981 
L 127.106808 -194.479579 
L 129.017767 -178.315569 
L 130.928726 -166.39506 
L 132.839685 -174.201129 
L 134.750644 -182.098402 
L 136.661603 -188.877375 
L 138.572562 -190.437076 
L 140.483521 -205.282233 
L 142.394479 -196.670906 
L 144.305438 -183.894233 
L 146.216397 -209.58622 
L 148.127356 -193.917677 
L 150.038315 -196.800539 
L 151.949274 -200.912493 
L 153.860233 -187.622753 
L 155.771192 -170.418741 
L 157.682151 -167.210759 
L 159.59311 -162.234016 
L 161.504068 -147.738423 
L 163.415027 -151.578647 
L 165.325986 -167.407988 
L 167.236945 -151.249884 
L 169.147904 -174.96997 
L 171.058863 -187.80459 
L 172.969822 -161.690027 
L 174.880781 -170.441993 
L 176.79174 -169.855169 
L 178.702699 -170.926122 
L 180.613658 -179.539683 
L 182.524616 -177.696332 
L 184.435575 -173.987354 
L 186.346534 -156.693634 
L 188.257493 -141.606954 
L 190.168452 -135.54199 
L 192.079411 -117.802285 
L 193.99037 -132.903455 
L 195.901329 -127.893688 
L 197.812288 -148.825617 
L 199.723247 -160.001745 
L 201.634205 -170.627993 
L 203.545164 -183.694713 
L 205.456123 -200.205445 
L 207.367082 -219.898985 
L 209.278041 -208.724662 
L 211.189 -236.171399 
L 213.099959 -251.589126 
L 215.010918 -264.241935 
L 216.921877 -266.558811 
L 218.832836 -274.399927 
L 220.743795 -291.591123 
L 222.654753 -281.910205 
L 224.565712 -288.24596 
L 226.476671 -292.210529 
L 228.38763 -292.905637 
L 230.298589 -301.329779 
L 232.209548 -269.362083 
L 234.120507 -256.758861 
L 236.031466 -258.193544 
L 237.942425 -244.215833 
L 239.853384 -246.145572 
L 241.764342 -238.326628 
L 243.675301 -260.614891 
L 245.58626 -249.642616 
L 247.497219 -267.305135 
L 249.408178 -264.116255 
L 251.319137 -255.968775 
L 253.230096 -276.214568 
L 255.141055 -273.910089 
L 257.052014 -268.761966 
L 258.962973 -279.146382 
L 260.873932 -263.526969 
L 262.78489 -249.985974 
L 264.695849 -247.809944 
L 266.606808 -274.432848 
L 268.517767 -266.887387 
L 270.428726 -269.828129 
L 272.339685 -272.846585 
L 274.250644 -252.022283 
L 276.161603 -253.463741 
L 278.072562 -273.835669 
L 279.983521 -308.495293 
L 281.894479 -322.908352 
L 283.805438 -310.929271 
L 285.716397 -319.990507 
L 287.627356 -315.447284 
L 289.538315 -307.629546 
L 291.449274 -314.407089 
L 293.360233 -313.399189 
L 295.271192 -325.029824 
L 297.182151 -318.042111 
L 299.09311 -298.519126 
L 301.004068 -264.846239 
L 302.915027 -274.623523 
L 304.825986 -291.276339 
L 306.736945 -261.512834 
L 308.647904 -258.06575 
L 310.558863 -256.691013 
L 312.469822 -239.988644 
L 314.380781 -249.997408 
L 316.29174 -248.19957 
L 318.202699 -257.47982 
L 320.113658 -275.134859 
L 322.024616 -294.539308 
L 323.935575 -282.873007 
L 325.846534 -267.97285 
L 327.757493 -271.567959 
L 329.668452 -278.227969 
L 331.579411 -262.928258 
L 333.49037 -258.690629 
L 335.401329 -234.517629 
L 337.312288 -236.905553 
L 339.223247 -231.962777 
L 341.134205 -228.794269 
L 343.045164 -216.108816 
L 344.956123 -212.845329 
L 346.867082 -201.22851 
L 348.778041 -197.084557 
L 350.689 -186.286806 
L 350.689 -127.879572 
L 350.689 -127.879572 
L 348.778041 -143.714128 
L 346.867082 -153.527088 
L 344.956123 -159.452945 
L 343.045164 -160.845923 
L 341.134205 -171.400659 
L 339.223247 -177.180025 
L 337.312288 -188.110838 
L 335.401329 -196.755358 
L 333.49037 -232.773188 
L 331.579411 -228.677567 
L 329.668452 -241.251811 
L 327.757493 -226.718145 
L 325.846534 -225.494067 
L 323.935575 -240.745918 
L 322.024616 -247.781542 
L 320.113658 -222.472097 
L 318.202699 -211.650686 
L 316.29174 -198.647356 
L 314.380781 -199.518568 
L 312.469822 -190.781552 
L 310.558863 -212.845838 
L 308.647904 -202.654043 
L 306.736945 -202.057633 
L 304.825986 -231.482968 
L 302.915027 -230.158776 
L 301.004068 -225.406186 
L 299.09311 -240.854084 
L 297.182151 -261.166479 
L 295.271192 -260.661401 
L 293.360233 -246.42581 
L 291.449274 -257.390769 
L 289.538315 -254.357209 
L 287.627356 -263.101678 
L 285.716397 -268.359763 
L 283.805438 -252.288392 
L 281.894479 -255.591524 
L 279.983521 -259.493163 
L 278.072562 -240.65944 
L 276.161603 -226.914483 
L 274.250644 -214.867042 
L 272.339685 -227.150281 
L 270.428726 -215.340013 
L 268.517767 -224.407639 
L 266.606808 -223.908369 
L 264.695849 -200.637906 
L 262.78489 -209.645649 
L 260.873932 -218.292341 
L 258.962973 -225.573169 
L 257.052014 -211.551794 
L 255.141055 -223.464689 
L 253.230096 -228.377223 
L 251.319137 -215.67963 
L 249.408178 -222.993119 
L 247.497219 -225.106057 
L 245.58626 -209.660342 
L 243.675301 -222.39941 
L 241.764342 -197.940094 
L 239.853384 -196.77022 
L 237.942425 -196.209173 
L 236.031466 -214.065466 
L 234.120507 -209.919289 
L 232.209548 -210.636932 
L 230.298589 -225.554102 
L 228.38763 -214.749827 
L 226.476671 -202.663312 
L 224.565712 -220.213387 
L 222.654753 -215.743146 
L 220.743795 -237.581201 
L 218.832836 -226.384408 
L 216.921877 -209.355621 
L 215.010918 -211.62898 
L 213.099959 -209.358745 
L 211.189 -194.51016 
L 209.278041 -167.80026 
L 207.367082 -162.116505 
L 205.456123 -128.714076 
L 203.545164 -120.04406 
L 201.634205 -113.308188 
L 199.723247 -104.582534 
L 197.812288 -101.520646 
L 195.901329 -81.130652 
L 193.99037 -84.748303 
L 192.079411 -66.82076 
L 190.168452 -82.726932 
L 188.257493 -85.399063 
L 186.346534 -98.413594 
L 184.435575 -106.306226 
L 182.524616 -119.280441 
L 180.613658 -122.497956 
L 178.702699 -119.421627 
L 176.79174 -117.251209 
L 174.880781 -133.864079 
L 172.969822 -118.413571 
L 171.058863 -139.119076 
L 169.147904 -128.699073 
L 167.236945 -108.069065 
L 165.325986 -129.562608 
L 163.415027 -116.40342 
L 161.504068 -115.586843 
L 159.59311 -134.3728 
L 157.682151 -136.03932 
L 155.771192 -136.493794 
L 153.860233 -148.258236 
L 151.949274 -157.20227 
L 150.038315 -153.577294 
L 148.127356 -147.7818 
L 146.216397 -158.480588 
L 144.305438 -124.929455 
L 142.394479 -131.979545 
L 140.483521 -144.43344 
L 138.572562 -130.003589 
L 136.661603 -131.85992 
L 134.750644 -132.819706 
L 132.839685 -129.352334 
L 130.928726 -124.109179 
L 129.017767 -118.895638 
L 127.106808 -126.883506 
L 125.195849 -103.628301 
L 123.28489 -109.062556 
L 121.373932 -113.808915 
L 119.462973 -104.992479 
L 117.552014 -112.160061 
L 115.641055 -112.637759 
L 113.730096 -115.047563 
L 111.819137 -129.553962 
L 109.908178 -114.903133 
L 107.997219 -112.040124 
L 106.08626 -117.968425 
L 104.175301 -132.816775 
L 102.264342 -163.186085 
L 100.353384 -155.374564 
L 98.442425 -152.766126 
L 96.531466 -147.480513 
L 94.620507 -148.509098 
L 92.709548 -163.667194 
L 90.798589 -146.98381 
L 88.88763 -176.375749 
L 86.976671 -179.14825 
L 85.065712 -168.004796 
L 83.154753 -175.702072 
L 81.243795 -164.622577 
L 79.332836 -161.544035 
L 77.421877 -162.214134 
L 75.510918 -168.466893 
L 73.599959 -141.176839 
L 71.689 -127.879572 
z
" id="mf5bdfe903c" style="stroke:#1e90ff;stroke-opacity:0.2;"/>
    </defs>
    <g clip-path="url(#p9528dbc7ff)">
     <use style="fill:#1e90ff;fill-opacity:0.2;stroke:#1e90ff;stroke-opacity:0.2;" x="0" xlink:href="#mf5bdfe903c" y="363.1755"/>
    </g>
   </g>
   <g id="PolyCollection_2">
    <defs>
     <path d="M 71.689 -199.265479 
L 71.689 -199.359744 
L 73.599959 -199.294871 
L 75.510918 -199.228182 
L 77.421877 -199.159037 
L 79.332836 -199.086765 
L 81.243795 -199.010654 
L 83.154753 -198.929946 
L 85.065712 -198.843825 
L 86.976671 -198.751407 
L 88.88763 -198.651729 
L 90.798589 -198.543738 
L 92.709548 -198.426281 
L 94.620507 -198.298087 
L 96.531466 -198.157753 
L 98.442425 -198.003734 
L 100.353384 -197.834317 
L 102.264342 -197.647609 
L 104.175301 -197.441519 
L 106.08626 -197.21373 
L 107.997219 -196.961683 
L 109.908178 -196.682554 
L 111.819137 -196.373228 
L 113.730096 -196.030275 
L 115.641055 -195.649929 
L 117.552014 -195.228062 
L 119.462973 -194.760165 
L 121.373932 -194.241324 
L 123.28489 -193.666215 
L 125.195849 -193.029085 
L 127.106808 -192.323761 
L 129.017767 -191.543661 
L 130.928726 -190.681818 
L 132.839685 -189.730933 
L 134.750644 -188.683445 
L 136.661603 -187.531636 
L 138.572562 -186.267775 
L 140.483521 -184.884298 
L 142.394479 -183.37405 
L 144.305438 -181.730578 
L 146.216397 -179.948486 
L 148.127356 -178.023856 
L 150.038315 -175.954731 
L 151.949274 -173.74166 
L 153.860233 -171.388275 
L 155.771192 -168.901907 
L 157.682151 -166.29419 
L 159.59311 -163.581637 
L 161.504068 -160.786137 
L 163.415027 -157.935348 
L 165.325986 -155.062928 
L 167.236945 -152.208596 
L 169.147904 -149.417976 
L 171.058863 -146.742207 
L 172.969822 -144.237328 
L 174.880781 -141.963403 
L 176.79174 -139.983416 
L 178.702699 -138.361918 
L 180.613658 -137.163456 
L 182.524616 -136.450794 
L 184.435575 -136.282968 
L 186.346534 -136.71322 
L 188.257493 -137.786871 
L 190.168452 -139.539231 
L 192.079411 -141.993614 
L 193.99037 -145.159593 
L 195.901329 -149.031572 
L 197.812288 -153.587798 
L 199.723247 -158.7899 
L 201.634205 -164.583009 
L 203.545164 -170.896518 
L 205.456123 -177.645485 
L 207.367082 -184.732634 
L 209.278041 -192.050916 
L 211.189 -199.4865 
L 213.099959 -211.859515 
L 215.010918 -224.008542 
L 216.921877 -235.717542 
L 218.832836 -246.785932 
L 220.743795 -257.035253 
L 222.654753 -266.314645 
L 224.565712 -274.504884 
L 226.476671 -281.52083 
L 228.38763 -287.312241 
L 230.298589 -291.86301 
L 232.209548 -295.189002 
L 234.120507 -297.334708 
L 236.031466 -298.369002 
L 237.942425 -298.380318 
L 239.853384 -297.471555 
L 241.764342 -295.754999 
L 243.675301 -293.347527 
L 245.58626 -290.366285 
L 247.497219 -286.925007 
L 249.408178 -283.131042 
L 251.319137 -279.083151 
L 253.230096 -274.87003 
L 255.141055 -270.569523 
L 257.052014 -266.248419 
L 258.962973 -261.962722 
L 260.873932 -257.758285 
L 262.78489 -253.671672 
L 264.695849 -249.731161 
L 266.606808 -245.957789 
L 268.517767 -242.366376 
L 270.428726 -238.966492 
L 272.339685 -235.763331 
L 274.250644 -232.758493 
L 276.161603 -229.950665 
L 278.072562 -227.336205 
L 279.983521 -224.90965 
L 281.894479 -222.664142 
L 283.805438 -220.591794 
L 285.716397 -218.683994 
L 287.627356 -216.931664 
L 289.538315 -215.325469 
L 291.449274 -213.856001 
L 293.360233 -212.513917 
L 295.271192 -211.290053 
L 297.182151 -210.175519 
L 299.09311 -209.161765 
L 301.004068 -208.240628 
L 302.915027 -207.404374 
L 304.825986 -206.645714 
L 306.736945 -205.957813 
L 308.647904 -205.334299 
L 310.558863 -204.769247 
L 312.469822 -204.257177 
L 314.380781 -203.793029 
L 316.29174 -203.372151 
L 318.202699 -202.990272 
L 320.113658 -202.643482 
L 322.024616 -202.328205 
L 323.935575 -202.041178 
L 325.846534 -201.779424 
L 327.757493 -201.540229 
L 329.668452 -201.321119 
L 331.579411 -201.119838 
L 333.49037 -200.934327 
L 335.401329 -200.762701 
L 337.312288 -200.603236 
L 339.223247 -200.454342 
L 341.134205 -200.314556 
L 343.045164 -200.182518 
L 344.956123 -200.056958 
L 346.867082 -199.936684 
L 348.778041 -199.820566 
L 350.689 -199.707521 
L 350.689 -199.613256 
L 350.689 -199.613256 
L 348.778041 -199.678129 
L 346.867082 -199.744818 
L 344.956123 -199.813963 
L 343.045164 -199.886235 
L 341.134205 -199.962346 
L 339.223247 -200.043054 
L 337.312288 -200.129175 
L 335.401329 -200.221593 
L 333.49037 -200.321271 
L 331.579411 -200.429262 
L 329.668452 -200.546719 
L 327.757493 -200.674913 
L 325.846534 -200.815247 
L 323.935575 -200.969266 
L 322.024616 -201.138683 
L 320.113658 -201.325391 
L 318.202699 -201.531481 
L 316.29174 -201.75927 
L 314.380781 -202.011317 
L 312.469822 -202.290446 
L 310.558863 -202.599772 
L 308.647904 -202.942725 
L 306.736945 -203.323071 
L 304.825986 -203.744938 
L 302.915027 -204.212835 
L 301.004068 -204.731676 
L 299.09311 -205.306785 
L 297.182151 -205.943915 
L 295.271192 -206.649239 
L 293.360233 -207.429339 
L 291.449274 -208.291182 
L 289.538315 -209.242067 
L 287.627356 -210.289555 
L 285.716397 -211.441364 
L 283.805438 -212.705225 
L 281.894479 -214.088702 
L 279.983521 -215.59895 
L 278.072562 -217.242422 
L 276.161603 -219.024514 
L 274.250644 -220.949144 
L 272.339685 -223.018269 
L 270.428726 -225.23134 
L 268.517767 -227.584725 
L 266.606808 -230.071093 
L 264.695849 -232.67881 
L 262.78489 -235.391363 
L 260.873932 -238.186863 
L 258.962973 -241.037652 
L 257.052014 -243.910072 
L 255.141055 -246.764404 
L 253.230096 -249.555024 
L 251.319137 -252.230793 
L 249.408178 -254.735672 
L 247.497219 -257.009597 
L 245.58626 -258.989584 
L 243.675301 -260.611082 
L 241.764342 -261.809544 
L 239.853384 -262.522206 
L 237.942425 -262.690032 
L 236.031466 -262.25978 
L 234.120507 -261.186129 
L 232.209548 -259.433769 
L 230.298589 -256.979386 
L 228.38763 -253.813407 
L 226.476671 -249.941428 
L 224.565712 -245.385202 
L 222.654753 -240.1831 
L 220.743795 -234.389991 
L 218.832836 -228.076482 
L 216.921877 -221.327515 
L 215.010918 -214.240366 
L 213.099959 -206.922084 
L 211.189 -199.4865 
L 209.278041 -187.113485 
L 207.367082 -174.964458 
L 205.456123 -163.255458 
L 203.545164 -152.187068 
L 201.634205 -141.937747 
L 199.723247 -132.658355 
L 197.812288 -124.468116 
L 195.901329 -117.45217 
L 193.99037 -111.660759 
L 192.079411 -107.10999 
L 190.168452 -103.783998 
L 188.257493 -101.638292 
L 186.346534 -100.603998 
L 184.435575 -100.592682 
L 182.524616 -101.501445 
L 180.613658 -103.218001 
L 178.702699 -105.625473 
L 176.79174 -108.606715 
L 174.880781 -112.047993 
L 172.969822 -115.841958 
L 171.058863 -119.889849 
L 169.147904 -124.10297 
L 167.236945 -128.403477 
L 165.325986 -132.724581 
L 163.415027 -137.010278 
L 161.504068 -141.214715 
L 159.59311 -145.301328 
L 157.682151 -149.241839 
L 155.771192 -153.015211 
L 153.860233 -156.606624 
L 151.949274 -160.006508 
L 150.038315 -163.209669 
L 148.127356 -166.214507 
L 146.216397 -169.022335 
L 144.305438 -171.636795 
L 142.394479 -174.06335 
L 140.483521 -176.308858 
L 138.572562 -178.381206 
L 136.661603 -180.289006 
L 134.750644 -182.041336 
L 132.839685 -183.647531 
L 130.928726 -185.116999 
L 129.017767 -186.459083 
L 127.106808 -187.682947 
L 125.195849 -188.797481 
L 123.28489 -189.811235 
L 121.373932 -190.732372 
L 119.462973 -191.568626 
L 117.552014 -192.327286 
L 115.641055 -193.015187 
L 113.730096 -193.638701 
L 111.819137 -194.203753 
L 109.908178 -194.715823 
L 107.997219 -195.179971 
L 106.08626 -195.600849 
L 104.175301 -195.982728 
L 102.264342 -196.329518 
L 100.353384 -196.644795 
L 98.442425 -196.931822 
L 96.531466 -197.193576 
L 94.620507 -197.432771 
L 92.709548 -197.651881 
L 90.798589 -197.853162 
L 88.88763 -198.038673 
L 86.976671 -198.210299 
L 85.065712 -198.369764 
L 83.154753 -198.518658 
L 81.243795 -198.658444 
L 79.332836 -198.790482 
L 77.421877 -198.916042 
L 75.510918 -199.036316 
L 73.599959 -199.152434 
L 71.689 -199.265479 
z
" id="mfc3f253745" style="stroke:#ffff00;stroke-opacity:0.2;"/>
    </defs>
    <g clip-path="url(#p9528dbc7ff)">
     <use style="fill:#ffff00;fill-opacity:0.2;stroke:#ffff00;stroke-opacity:0.2;" x="0" xlink:href="#mfc3f253745" y="363.1755"/>
    </g>
   </g>
   <g id="matplotlib.axis_1">
    <g id="xtick_1">
     <g id="line2d_1">
      <defs>
       <path d="M 0 0 
L 0 -6 
" id="m3a6f52b7e6" style="stroke:#000000;stroke-width:2;"/>
      </defs>
      <g>
       <use style="stroke:#000000;stroke-width:2;" x="71.689" xlink:href="#m3a6f52b7e6" y="299.589"/>
      </g>
     </g>
     <g id="text_1">
      <!-- -73 -->
      <defs>
       <path d="M 4.890625 31.390625 
L 31.203125 31.390625 
L 31.203125 23.390625 
L 4.890625 23.390625 
z
" id="DejaVuSans-45"/>
       <path d="M 8.203125 72.90625 
L 55.078125 72.90625 
L 55.078125 68.703125 
L 28.609375 0 
L 18.3125 0 
L 43.21875 64.59375 
L 8.203125 64.59375 
z
" id="DejaVuSans-55"/>
       <path d="M 40.578125 39.3125 
Q 47.65625 37.796875 51.625 33 
Q 55.609375 28.21875 55.609375 21.1875 
Q 55.609375 10.40625 48.1875 4.484375 
Q 40.765625 -1.421875 27.09375 -1.421875 
Q 22.515625 -1.421875 17.65625 -0.515625 
Q 12.796875 0.390625 7.625 2.203125 
L 7.625 11.71875 
Q 11.71875 9.328125 16.59375 8.109375 
Q 21.484375 6.890625 26.8125 6.890625 
Q 36.078125 6.890625 40.9375 10.546875 
Q 45.796875 14.203125 45.796875 21.1875 
Q 45.796875 27.640625 41.28125 31.265625 
Q 36.765625 34.90625 28.71875 34.90625 
L 20.21875 34.90625 
L 20.21875 43.015625 
L 29.109375 43.015625 
Q 36.375 43.015625 40.234375 45.921875 
Q 44.09375 48.828125 44.09375 54.296875 
Q 44.09375 59.90625 40.109375 62.90625 
Q 36.140625 65.921875 28.71875 65.921875 
Q 24.65625 65.921875 20.015625 65.03125 
Q 15.375 64.15625 9.8125 62.3125 
L 9.8125 71.09375 
Q 15.4375 72.65625 20.34375 73.4375 
Q 25.25 74.21875 29.59375 74.21875 
Q 40.828125 74.21875 47.359375 69.109375 
Q 53.90625 64.015625 53.90625 55.328125 
Q 53.90625 49.265625 50.4375 45.09375 
Q 46.96875 40.921875 40.578125 39.3125 
z
" id="DejaVuSans-51"/>
      </defs>
      <g transform="translate(58.62275 315.2465)scale(0.16 -0.16)">
       <use xlink:href="#DejaVuSans-45"/>
       <use x="36.083984" xlink:href="#DejaVuSans-55"/>
       <use x="99.707031" xlink:href="#DejaVuSans-51"/>
      </g>
     </g>
    </g>
    <g id="xtick_2">
     <g id="line2d_2">
      <g>
       <use style="stroke:#000000;stroke-width:2;" x="115.641055" xlink:href="#m3a6f52b7e6" y="299.589"/>
      </g>
     </g>
     <g id="text_2">
      <!-- -50 -->
      <defs>
       <path d="M 10.796875 72.90625 
L 49.515625 72.90625 
L 49.515625 64.59375 
L 19.828125 64.59375 
L 19.828125 46.734375 
Q 21.96875 47.46875 24.109375 47.828125 
Q 26.265625 48.1875 28.421875 48.1875 
Q 40.625 48.1875 47.75 41.5 
Q 54.890625 34.8125 54.890625 23.390625 
Q 54.890625 11.625 47.5625 5.09375 
Q 40.234375 -1.421875 26.90625 -1.421875 
Q 22.3125 -1.421875 17.546875 -0.640625 
Q 12.796875 0.140625 7.71875 1.703125 
L 7.71875 11.625 
Q 12.109375 9.234375 16.796875 8.0625 
Q 21.484375 6.890625 26.703125 6.890625 
Q 35.15625 6.890625 40.078125 11.328125 
Q 45.015625 15.765625 45.015625 23.390625 
Q 45.015625 31 40.078125 35.4375 
Q 35.15625 39.890625 26.703125 39.890625 
Q 22.75 39.890625 18.8125 39.015625 
Q 14.890625 38.140625 10.796875 36.28125 
z
" id="DejaVuSans-53"/>
       <path d="M 31.78125 66.40625 
Q 24.171875 66.40625 20.328125 58.90625 
Q 16.5 51.421875 16.5 36.375 
Q 16.5 21.390625 20.328125 13.890625 
Q 24.171875 6.390625 31.78125 6.390625 
Q 39.453125 6.390625 43.28125 13.890625 
Q 47.125 21.390625 47.125 36.375 
Q 47.125 51.421875 43.28125 58.90625 
Q 39.453125 66.40625 31.78125 66.40625 
z
M 31.78125 74.21875 
Q 44.046875 74.21875 50.515625 64.515625 
Q 56.984375 54.828125 56.984375 36.375 
Q 56.984375 17.96875 50.515625 8.265625 
Q 44.046875 -1.421875 31.78125 -1.421875 
Q 19.53125 -1.421875 13.0625 8.265625 
Q 6.59375 17.96875 6.59375 36.375 
Q 6.59375 54.828125 13.0625 64.515625 
Q 19.53125 74.21875 31.78125 74.21875 
z
" id="DejaVuSans-48"/>
      </defs>
      <g transform="translate(102.574805 315.2465)scale(0.16 -0.16)">
       <use xlink:href="#DejaVuSans-45"/>
       <use x="36.083984" xlink:href="#DejaVuSans-53"/>
       <use x="99.707031" xlink:href="#DejaVuSans-48"/>
      </g>
     </g>
    </g>
    <g id="xtick_3">
     <g id="line2d_3">
      <g>
       <use style="stroke:#000000;stroke-width:2;" x="163.415027" xlink:href="#m3a6f52b7e6" y="299.589"/>
      </g>
     </g>
     <g id="text_3">
      <!-- -25 -->
      <defs>
       <path d="M 19.1875 8.296875 
L 53.609375 8.296875 
L 53.609375 0 
L 7.328125 0 
L 7.328125 8.296875 
Q 12.9375 14.109375 22.625 23.890625 
Q 32.328125 33.6875 34.8125 36.53125 
Q 39.546875 41.84375 41.421875 45.53125 
Q 43.3125 49.21875 43.3125 52.78125 
Q 43.3125 58.59375 39.234375 62.25 
Q 35.15625 65.921875 28.609375 65.921875 
Q 23.96875 65.921875 18.8125 64.3125 
Q 13.671875 62.703125 7.8125 59.421875 
L 7.8125 69.390625 
Q 13.765625 71.78125 18.9375 73 
Q 24.125 74.21875 28.421875 74.21875 
Q 39.75 74.21875 46.484375 68.546875 
Q 53.21875 62.890625 53.21875 53.421875 
Q 53.21875 48.921875 51.53125 44.890625 
Q 49.859375 40.875 45.40625 35.40625 
Q 44.1875 33.984375 37.640625 27.21875 
Q 31.109375 20.453125 19.1875 8.296875 
z
" id="DejaVuSans-50"/>
      </defs>
      <g transform="translate(150.348777 315.2465)scale(0.16 -0.16)">
       <use xlink:href="#DejaVuSans-45"/>
       <use x="36.083984" xlink:href="#DejaVuSans-50"/>
       <use x="99.707031" xlink:href="#DejaVuSans-53"/>
      </g>
     </g>
    </g>
    <g id="xtick_4">
     <g id="line2d_4">
      <g>
       <use style="stroke:#000000;stroke-width:2;" x="211.189" xlink:href="#m3a6f52b7e6" y="299.589"/>
      </g>
     </g>
     <g id="text_4">
      <!-- 0 -->
      <g transform="translate(206.099 315.2465)scale(0.16 -0.16)">
       <use xlink:href="#DejaVuSans-48"/>
      </g>
     </g>
    </g>
    <g id="xtick_5">
     <g id="line2d_5">
      <g>
       <use style="stroke:#000000;stroke-width:2;" x="258.962973" xlink:href="#m3a6f52b7e6" y="299.589"/>
      </g>
     </g>
     <g id="text_5">
      <!-- 25 -->
      <g transform="translate(248.782973 315.2465)scale(0.16 -0.16)">
       <use xlink:href="#DejaVuSans-50"/>
       <use x="63.623047" xlink:href="#DejaVuSans-53"/>
      </g>
     </g>
    </g>
    <g id="xtick_6">
     <g id="line2d_6">
      <g>
       <use style="stroke:#000000;stroke-width:2;" x="306.736945" xlink:href="#m3a6f52b7e6" y="299.589"/>
      </g>
     </g>
     <g id="text_6">
      <!-- 50 -->
      <g transform="translate(296.556945 315.2465)scale(0.16 -0.16)">
       <use xlink:href="#DejaVuSans-53"/>
       <use x="63.623047" xlink:href="#DejaVuSans-48"/>
      </g>
     </g>
    </g>
    <g id="xtick_7">
     <g id="line2d_7">
      <g>
       <use style="stroke:#000000;stroke-width:2;" x="350.689" xlink:href="#m3a6f52b7e6" y="299.589"/>
      </g>
     </g>
     <g id="text_7">
      <!-- 73 -->
      <g transform="translate(340.509 315.2465)scale(0.16 -0.16)">
       <use xlink:href="#DejaVuSans-55"/>
       <use x="63.623047" xlink:href="#DejaVuSans-51"/>
      </g>
     </g>
    </g>
    <g id="text_8">
     <!-- Previous Tumor - Current Tumor -->
     <defs>
      <path d="M 19.671875 64.796875 
L 19.671875 37.40625 
L 32.078125 37.40625 
Q 38.96875 37.40625 42.71875 40.96875 
Q 46.484375 44.53125 46.484375 51.125 
Q 46.484375 57.671875 42.71875 61.234375 
Q 38.96875 64.796875 32.078125 64.796875 
z
M 9.8125 72.90625 
L 32.078125 72.90625 
Q 44.34375 72.90625 50.609375 67.359375 
Q 56.890625 61.8125 56.890625 51.125 
Q 56.890625 40.328125 50.609375 34.8125 
Q 44.34375 29.296875 32.078125 29.296875 
L 19.671875 29.296875 
L 19.671875 0 
L 9.8125 0 
z
" id="DejaVuSans-80"/>
      <path d="M 41.109375 46.296875 
Q 39.59375 47.171875 37.8125 47.578125 
Q 36.03125 48 33.890625 48 
Q 26.265625 48 22.1875 43.046875 
Q 18.109375 38.09375 18.109375 28.8125 
L 18.109375 0 
L 9.078125 0 
L 9.078125 54.6875 
L 18.109375 54.6875 
L 18.109375 46.1875 
Q 20.953125 51.171875 25.484375 53.578125 
Q 30.03125 56 36.53125 56 
Q 37.453125 56 38.578125 55.875 
Q 39.703125 55.765625 41.0625 55.515625 
z
" id="DejaVuSans-114"/>
      <path d="M 56.203125 29.59375 
L 56.203125 25.203125 
L 14.890625 25.203125 
Q 15.484375 15.921875 20.484375 11.0625 
Q 25.484375 6.203125 34.421875 6.203125 
Q 39.59375 6.203125 44.453125 7.46875 
Q 49.3125 8.734375 54.109375 11.28125 
L 54.109375 2.78125 
Q 49.265625 0.734375 44.1875 -0.34375 
Q 39.109375 -1.421875 33.890625 -1.421875 
Q 20.796875 -1.421875 13.15625 6.1875 
Q 5.515625 13.8125 5.515625 26.8125 
Q 5.515625 40.234375 12.765625 48.109375 
Q 20.015625 56 32.328125 56 
Q 43.359375 56 49.78125 48.890625 
Q 56.203125 41.796875 56.203125 29.59375 
z
M 47.21875 32.234375 
Q 47.125 39.59375 43.09375 43.984375 
Q 39.0625 48.390625 32.421875 48.390625 
Q 24.90625 48.390625 20.390625 44.140625 
Q 15.875 39.890625 15.1875 32.171875 
z
" id="DejaVuSans-101"/>
      <path d="M 2.984375 54.6875 
L 12.5 54.6875 
L 29.59375 8.796875 
L 46.6875 54.6875 
L 56.203125 54.6875 
L 35.6875 0 
L 23.484375 0 
z
" id="DejaVuSans-118"/>
      <path d="M 9.421875 54.6875 
L 18.40625 54.6875 
L 18.40625 0 
L 9.421875 0 
z
M 9.421875 75.984375 
L 18.40625 75.984375 
L 18.40625 64.59375 
L 9.421875 64.59375 
z
" id="DejaVuSans-105"/>
      <path d="M 30.609375 48.390625 
Q 23.390625 48.390625 19.1875 42.75 
Q 14.984375 37.109375 14.984375 27.296875 
Q 14.984375 17.484375 19.15625 11.84375 
Q 23.34375 6.203125 30.609375 6.203125 
Q 37.796875 6.203125 41.984375 11.859375 
Q 46.1875 17.53125 46.1875 27.296875 
Q 46.1875 37.015625 41.984375 42.703125 
Q 37.796875 48.390625 30.609375 48.390625 
z
M 30.609375 56 
Q 42.328125 56 49.015625 48.375 
Q 55.71875 40.765625 55.71875 27.296875 
Q 55.71875 13.875 49.015625 6.21875 
Q 42.328125 -1.421875 30.609375 -1.421875 
Q 18.84375 -1.421875 12.171875 6.21875 
Q 5.515625 13.875 5.515625 27.296875 
Q 5.515625 40.765625 12.171875 48.375 
Q 18.84375 56 30.609375 56 
z
" id="DejaVuSans-111"/>
      <path d="M 8.5 21.578125 
L 8.5 54.6875 
L 17.484375 54.6875 
L 17.484375 21.921875 
Q 17.484375 14.15625 20.5 10.265625 
Q 23.53125 6.390625 29.59375 6.390625 
Q 36.859375 6.390625 41.078125 11.03125 
Q 45.3125 15.671875 45.3125 23.6875 
L 45.3125 54.6875 
L 54.296875 54.6875 
L 54.296875 0 
L 45.3125 0 
L 45.3125 8.40625 
Q 42.046875 3.421875 37.71875 1 
Q 33.40625 -1.421875 27.6875 -1.421875 
Q 18.265625 -1.421875 13.375 4.4375 
Q 8.5 10.296875 8.5 21.578125 
z
M 31.109375 56 
z
" id="DejaVuSans-117"/>
      <path d="M 44.28125 53.078125 
L 44.28125 44.578125 
Q 40.484375 46.53125 36.375 47.5 
Q 32.28125 48.484375 27.875 48.484375 
Q 21.1875 48.484375 17.84375 46.4375 
Q 14.5 44.390625 14.5 40.28125 
Q 14.5 37.15625 16.890625 35.375 
Q 19.28125 33.59375 26.515625 31.984375 
L 29.59375 31.296875 
Q 39.15625 29.25 43.1875 25.515625 
Q 47.21875 21.78125 47.21875 15.09375 
Q 47.21875 7.46875 41.1875 3.015625 
Q 35.15625 -1.421875 24.609375 -1.421875 
Q 20.21875 -1.421875 15.453125 -0.5625 
Q 10.6875 0.296875 5.421875 2 
L 5.421875 11.28125 
Q 10.40625 8.6875 15.234375 7.390625 
Q 20.0625 6.109375 24.8125 6.109375 
Q 31.15625 6.109375 34.5625 8.28125 
Q 37.984375 10.453125 37.984375 14.40625 
Q 37.984375 18.0625 35.515625 20.015625 
Q 33.0625 21.96875 24.703125 23.78125 
L 21.578125 24.515625 
Q 13.234375 26.265625 9.515625 29.90625 
Q 5.8125 33.546875 5.8125 39.890625 
Q 5.8125 47.609375 11.28125 51.796875 
Q 16.75 56 26.8125 56 
Q 31.78125 56 36.171875 55.265625 
Q 40.578125 54.546875 44.28125 53.078125 
z
" id="DejaVuSans-115"/>
      <path id="DejaVuSans-32"/>
      <path d="M -0.296875 72.90625 
L 61.375 72.90625 
L 61.375 64.59375 
L 35.5 64.59375 
L 35.5 0 
L 25.59375 0 
L 25.59375 64.59375 
L -0.296875 64.59375 
z
" id="DejaVuSans-84"/>
      <path d="M 52 44.1875 
Q 55.375 50.25 60.0625 53.125 
Q 64.75 56 71.09375 56 
Q 79.640625 56 84.28125 50.015625 
Q 88.921875 44.046875 88.921875 33.015625 
L 88.921875 0 
L 79.890625 0 
L 79.890625 32.71875 
Q 79.890625 40.578125 77.09375 44.375 
Q 74.3125 48.1875 68.609375 48.1875 
Q 61.625 48.1875 57.5625 43.546875 
Q 53.515625 38.921875 53.515625 30.90625 
L 53.515625 0 
L 44.484375 0 
L 44.484375 32.71875 
Q 44.484375 40.625 41.703125 44.40625 
Q 38.921875 48.1875 33.109375 48.1875 
Q 26.21875 48.1875 22.15625 43.53125 
Q 18.109375 38.875 18.109375 30.90625 
L 18.109375 0 
L 9.078125 0 
L 9.078125 54.6875 
L 18.109375 54.6875 
L 18.109375 46.1875 
Q 21.1875 51.21875 25.484375 53.609375 
Q 29.78125 56 35.6875 56 
Q 41.65625 56 45.828125 52.96875 
Q 50 49.953125 52 44.1875 
z
" id="DejaVuSans-109"/>
      <path d="M 64.40625 67.28125 
L 64.40625 56.890625 
Q 59.421875 61.53125 53.78125 63.8125 
Q 48.140625 66.109375 41.796875 66.109375 
Q 29.296875 66.109375 22.65625 58.46875 
Q 16.015625 50.828125 16.015625 36.375 
Q 16.015625 21.96875 22.65625 14.328125 
Q 29.296875 6.6875 41.796875 6.6875 
Q 48.140625 6.6875 53.78125 8.984375 
Q 59.421875 11.28125 64.40625 15.921875 
L 64.40625 5.609375 
Q 59.234375 2.09375 53.4375 0.328125 
Q 47.65625 -1.421875 41.21875 -1.421875 
Q 24.65625 -1.421875 15.125 8.703125 
Q 5.609375 18.84375 5.609375 36.375 
Q 5.609375 53.953125 15.125 64.078125 
Q 24.65625 74.21875 41.21875 74.21875 
Q 47.75 74.21875 53.53125 72.484375 
Q 59.328125 70.75 64.40625 67.28125 
z
" id="DejaVuSans-67"/>
      <path d="M 54.890625 33.015625 
L 54.890625 0 
L 45.90625 0 
L 45.90625 32.71875 
Q 45.90625 40.484375 42.875 44.328125 
Q 39.84375 48.1875 33.796875 48.1875 
Q 26.515625 48.1875 22.3125 43.546875 
Q 18.109375 38.921875 18.109375 30.90625 
L 18.109375 0 
L 9.078125 0 
L 9.078125 54.6875 
L 18.109375 54.6875 
L 18.109375 46.1875 
Q 21.34375 51.125 25.703125 53.5625 
Q 30.078125 56 35.796875 56 
Q 45.21875 56 50.046875 50.171875 
Q 54.890625 44.34375 54.890625 33.015625 
z
" id="DejaVuSans-110"/>
      <path d="M 18.3125 70.21875 
L 18.3125 54.6875 
L 36.8125 54.6875 
L 36.8125 47.703125 
L 18.3125 47.703125 
L 18.3125 18.015625 
Q 18.3125 11.328125 20.140625 9.421875 
Q 21.96875 7.515625 27.59375 7.515625 
L 36.8125 7.515625 
L 36.8125 0 
L 27.59375 0 
Q 17.1875 0 13.234375 3.875 
Q 9.28125 7.765625 9.28125 18.015625 
L 9.28125 47.703125 
L 2.6875 47.703125 
L 2.6875 54.6875 
L 9.28125 54.6875 
L 9.28125 70.21875 
z
" id="DejaVuSans-116"/>
     </defs>
     <g transform="translate(81.82525 334.7315)scale(0.16 -0.16)">
      <use xlink:href="#DejaVuSans-80"/>
      <use x="60.287109" xlink:href="#DejaVuSans-114"/>
      <use x="101.369141" xlink:href="#DejaVuSans-101"/>
      <use x="162.892578" xlink:href="#DejaVuSans-118"/>
      <use x="222.072266" xlink:href="#DejaVuSans-105"/>
      <use x="249.855469" xlink:href="#DejaVuSans-111"/>
      <use x="311.037109" xlink:href="#DejaVuSans-117"/>
      <use x="374.416016" xlink:href="#DejaVuSans-115"/>
      <use x="426.515625" xlink:href="#DejaVuSans-32"/>
      <use x="458.302734" xlink:href="#DejaVuSans-84"/>
      <use x="519.152344" xlink:href="#DejaVuSans-117"/>
      <use x="582.53125" xlink:href="#DejaVuSans-109"/>
      <use x="679.943359" xlink:href="#DejaVuSans-111"/>
      <use x="741.125" xlink:href="#DejaVuSans-114"/>
      <use x="782.238281" xlink:href="#DejaVuSans-32"/>
      <use x="814.025391" xlink:href="#DejaVuSans-45"/>
      <use x="850.109375" xlink:href="#DejaVuSans-32"/>
      <use x="881.896484" xlink:href="#DejaVuSans-67"/>
      <use x="951.720703" xlink:href="#DejaVuSans-117"/>
      <use x="1015.099609" xlink:href="#DejaVuSans-114"/>
      <use x="1056.197266" xlink:href="#DejaVuSans-114"/>
      <use x="1097.279297" xlink:href="#DejaVuSans-101"/>
      <use x="1158.802734" xlink:href="#DejaVuSans-110"/>
      <use x="1222.181641" xlink:href="#DejaVuSans-116"/>
      <use x="1261.390625" xlink:href="#DejaVuSans-32"/>
      <use x="1293.177734" xlink:href="#DejaVuSans-84"/>
      <use x="1354.027344" xlink:href="#DejaVuSans-117"/>
      <use x="1417.40625" xlink:href="#DejaVuSans-109"/>
      <use x="1514.818359" xlink:href="#DejaVuSans-111"/>
      <use x="1576" xlink:href="#DejaVuSans-114"/>
     </g>
     <!--  (morph units) -->
     <defs>
      <path d="M 31 75.875 
Q 24.46875 64.65625 21.28125 53.65625 
Q 18.109375 42.671875 18.109375 31.390625 
Q 18.109375 20.125 21.3125 9.0625 
Q 24.515625 -2 31 -13.1875 
L 23.1875 -13.1875 
Q 15.875 -1.703125 12.234375 9.375 
Q 8.59375 20.453125 8.59375 31.390625 
Q 8.59375 42.28125 12.203125 53.3125 
Q 15.828125 64.359375 23.1875 75.875 
z
" id="DejaVuSans-40"/>
      <path d="M 18.109375 8.203125 
L 18.109375 -20.796875 
L 9.078125 -20.796875 
L 9.078125 54.6875 
L 18.109375 54.6875 
L 18.109375 46.390625 
Q 20.953125 51.265625 25.265625 53.625 
Q 29.59375 56 35.59375 56 
Q 45.5625 56 51.78125 48.09375 
Q 58.015625 40.1875 58.015625 27.296875 
Q 58.015625 14.40625 51.78125 6.484375 
Q 45.5625 -1.421875 35.59375 -1.421875 
Q 29.59375 -1.421875 25.265625 0.953125 
Q 20.953125 3.328125 18.109375 8.203125 
z
M 48.6875 27.296875 
Q 48.6875 37.203125 44.609375 42.84375 
Q 40.53125 48.484375 33.40625 48.484375 
Q 26.265625 48.484375 22.1875 42.84375 
Q 18.109375 37.203125 18.109375 27.296875 
Q 18.109375 17.390625 22.1875 11.75 
Q 26.265625 6.109375 33.40625 6.109375 
Q 40.53125 6.109375 44.609375 11.75 
Q 48.6875 17.390625 48.6875 27.296875 
z
" id="DejaVuSans-112"/>
      <path d="M 54.890625 33.015625 
L 54.890625 0 
L 45.90625 0 
L 45.90625 32.71875 
Q 45.90625 40.484375 42.875 44.328125 
Q 39.84375 48.1875 33.796875 48.1875 
Q 26.515625 48.1875 22.3125 43.546875 
Q 18.109375 38.921875 18.109375 30.90625 
L 18.109375 0 
L 9.078125 0 
L 9.078125 75.984375 
L 18.109375 75.984375 
L 18.109375 46.1875 
Q 21.34375 51.125 25.703125 53.5625 
Q 30.078125 56 35.796875 56 
Q 45.21875 56 50.046875 50.171875 
Q 54.890625 44.34375 54.890625 33.015625 
z
" id="DejaVuSans-104"/>
      <path d="M 8.015625 75.875 
L 15.828125 75.875 
Q 23.140625 64.359375 26.78125 53.3125 
Q 30.421875 42.28125 30.421875 31.390625 
Q 30.421875 20.453125 26.78125 9.375 
Q 23.140625 -1.703125 15.828125 -13.1875 
L 8.015625 -13.1875 
Q 14.5 -2 17.703125 9.0625 
Q 20.90625 20.125 20.90625 31.390625 
Q 20.90625 42.671875 17.703125 53.65625 
Q 14.5 64.65625 8.015625 75.875 
z
" id="DejaVuSans-41"/>
     </defs>
     <g transform="translate(154.07025 352.648)scale(0.16 -0.16)">
      <use xlink:href="#DejaVuSans-32"/>
      <use x="31.787109" xlink:href="#DejaVuSans-40"/>
      <use x="70.800781" xlink:href="#DejaVuSans-109"/>
      <use x="168.212891" xlink:href="#DejaVuSans-111"/>
      <use x="229.394531" xlink:href="#DejaVuSans-114"/>
      <use x="270.507812" xlink:href="#DejaVuSans-112"/>
      <use x="333.984375" xlink:href="#DejaVuSans-104"/>
      <use x="397.363281" xlink:href="#DejaVuSans-32"/>
      <use x="429.150391" xlink:href="#DejaVuSans-117"/>
      <use x="492.529297" xlink:href="#DejaVuSans-110"/>
      <use x="555.908203" xlink:href="#DejaVuSans-105"/>
      <use x="583.691406" xlink:href="#DejaVuSans-116"/>
      <use x="622.900391" xlink:href="#DejaVuSans-115"/>
      <use x="675" xlink:href="#DejaVuSans-41"/>
     </g>
    </g>
   </g>
   <g id="matplotlib.axis_2">
    <g id="ytick_1">
     <g id="line2d_8">
      <defs>
       <path d="M 0 0 
L 6 0 
" id="m9d1f0c041d" style="stroke:#000000;stroke-width:2;"/>
      </defs>
      <g>
       <use style="stroke:#000000;stroke-width:2;" x="71.689" xlink:href="#m9d1f0c041d" y="299.589"/>
      </g>
     </g>
     <g id="text_9">
      <!-- −4 -->
      <defs>
       <path d="M 10.59375 35.5 
L 73.1875 35.5 
L 73.1875 27.203125 
L 10.59375 27.203125 
z
" id="DejaVuSans-8722"/>
       <path d="M 37.796875 64.3125 
L 12.890625 25.390625 
L 37.796875 25.390625 
z
M 35.203125 72.90625 
L 47.609375 72.90625 
L 47.609375 25.390625 
L 58.015625 25.390625 
L 58.015625 17.1875 
L 47.609375 17.1875 
L 47.609375 0 
L 37.796875 0 
L 37.796875 17.1875 
L 4.890625 17.1875 
L 4.890625 26.703125 
z
" id="DejaVuSans-52"/>
      </defs>
      <g transform="translate(44.6015 305.66775)scale(0.16 -0.16)">
       <use xlink:href="#DejaVuSans-8722"/>
       <use x="83.789062" xlink:href="#DejaVuSans-52"/>
      </g>
     </g>
    </g>
    <g id="ytick_2">
     <g id="line2d_9">
      <g>
       <use style="stroke:#000000;stroke-width:2;" x="71.689" xlink:href="#m9d1f0c041d" y="265.614"/>
      </g>
     </g>
     <g id="text_10">
      <!-- −3 -->
      <g transform="translate(44.6015 271.69275)scale(0.16 -0.16)">
       <use xlink:href="#DejaVuSans-8722"/>
       <use x="83.789062" xlink:href="#DejaVuSans-51"/>
      </g>
     </g>
    </g>
    <g id="ytick_3">
     <g id="line2d_10">
      <g>
       <use style="stroke:#000000;stroke-width:2;" x="71.689" xlink:href="#m9d1f0c041d" y="231.639"/>
      </g>
     </g>
     <g id="text_11">
      <!-- −2 -->
      <g transform="translate(44.6015 237.71775)scale(0.16 -0.16)">
       <use xlink:href="#DejaVuSans-8722"/>
       <use x="83.789062" xlink:href="#DejaVuSans-50"/>
      </g>
     </g>
    </g>
    <g id="ytick_4">
     <g id="line2d_11">
      <g>
       <use style="stroke:#000000;stroke-width:2;" x="71.689" xlink:href="#m9d1f0c041d" y="197.664"/>
      </g>
     </g>
     <g id="text_12">
      <!-- −1 -->
      <defs>
       <path d="M 12.40625 8.296875 
L 28.515625 8.296875 
L 28.515625 63.921875 
L 10.984375 60.40625 
L 10.984375 69.390625 
L 28.421875 72.90625 
L 38.28125 72.90625 
L 38.28125 8.296875 
L 54.390625 8.296875 
L 54.390625 0 
L 12.40625 0 
z
" id="DejaVuSans-49"/>
      </defs>
      <g transform="translate(44.6015 203.74275)scale(0.16 -0.16)">
       <use xlink:href="#DejaVuSans-8722"/>
       <use x="83.789062" xlink:href="#DejaVuSans-49"/>
      </g>
     </g>
    </g>
    <g id="ytick_5">
     <g id="line2d_12">
      <g>
       <use style="stroke:#000000;stroke-width:2;" x="71.689" xlink:href="#m9d1f0c041d" y="163.689"/>
      </g>
     </g>
     <g id="text_13">
      <!-- 0 -->
      <g transform="translate(58.009 169.76775)scale(0.16 -0.16)">
       <use xlink:href="#DejaVuSans-48"/>
      </g>
     </g>
    </g>
    <g id="ytick_6">
     <g id="line2d_13">
      <g>
       <use style="stroke:#000000;stroke-width:2;" x="71.689" xlink:href="#m9d1f0c041d" y="129.714"/>
      </g>
     </g>
     <g id="text_14">
      <!-- 1 -->
      <g transform="translate(58.009 135.79275)scale(0.16 -0.16)">
       <use xlink:href="#DejaVuSans-49"/>
      </g>
     </g>
    </g>
    <g id="ytick_7">
     <g id="line2d_14">
      <g>
       <use style="stroke:#000000;stroke-width:2;" x="71.689" xlink:href="#m9d1f0c041d" y="95.739"/>
      </g>
     </g>
     <g id="text_15">
      <!-- 2 -->
      <g transform="translate(58.009 101.81775)scale(0.16 -0.16)">
       <use xlink:href="#DejaVuSans-50"/>
      </g>
     </g>
    </g>
    <g id="ytick_8">
     <g id="line2d_15">
      <g>
       <use style="stroke:#000000;stroke-width:2;" x="71.689" xlink:href="#m9d1f0c041d" y="61.764"/>
      </g>
     </g>
     <g id="text_16">
      <!-- 3 -->
      <g transform="translate(58.009 67.84275)scale(0.16 -0.16)">
       <use xlink:href="#DejaVuSans-51"/>
      </g>
     </g>
    </g>
    <g id="ytick_9">
     <g id="line2d_16">
      <g>
       <use style="stroke:#000000;stroke-width:2;" x="71.689" xlink:href="#m9d1f0c041d" y="27.789"/>
      </g>
     </g>
     <g id="text_17">
      <!-- 4 -->
      <g transform="translate(58.009 33.86775)scale(0.16 -0.16)">
       <use xlink:href="#DejaVuSans-52"/>
      </g>
     </g>
    </g>
    <g id="text_18">
     <!-- Response Error on Current Trial -->
     <defs>
      <path d="M 44.390625 34.1875 
Q 47.5625 33.109375 50.5625 29.59375 
Q 53.5625 26.078125 56.59375 19.921875 
L 66.609375 0 
L 56 0 
L 46.6875 18.703125 
Q 43.0625 26.03125 39.671875 28.421875 
Q 36.28125 30.8125 30.421875 30.8125 
L 19.671875 30.8125 
L 19.671875 0 
L 9.8125 0 
L 9.8125 72.90625 
L 32.078125 72.90625 
Q 44.578125 72.90625 50.734375 67.671875 
Q 56.890625 62.453125 56.890625 51.90625 
Q 56.890625 45.015625 53.6875 40.46875 
Q 50.484375 35.9375 44.390625 34.1875 
z
M 19.671875 64.796875 
L 19.671875 38.921875 
L 32.078125 38.921875 
Q 39.203125 38.921875 42.84375 42.21875 
Q 46.484375 45.515625 46.484375 51.90625 
Q 46.484375 58.296875 42.84375 61.546875 
Q 39.203125 64.796875 32.078125 64.796875 
z
" id="DejaVuSans-82"/>
      <path d="M 9.8125 72.90625 
L 55.90625 72.90625 
L 55.90625 64.59375 
L 19.671875 64.59375 
L 19.671875 43.015625 
L 54.390625 43.015625 
L 54.390625 34.71875 
L 19.671875 34.71875 
L 19.671875 8.296875 
L 56.78125 8.296875 
L 56.78125 0 
L 9.8125 0 
z
" id="DejaVuSans-69"/>
      <path d="M 34.28125 27.484375 
Q 23.390625 27.484375 19.1875 25 
Q 14.984375 22.515625 14.984375 16.5 
Q 14.984375 11.71875 18.140625 8.90625 
Q 21.296875 6.109375 26.703125 6.109375 
Q 34.1875 6.109375 38.703125 11.40625 
Q 43.21875 16.703125 43.21875 25.484375 
L 43.21875 27.484375 
z
M 52.203125 31.203125 
L 52.203125 0 
L 43.21875 0 
L 43.21875 8.296875 
Q 40.140625 3.328125 35.546875 0.953125 
Q 30.953125 -1.421875 24.3125 -1.421875 
Q 15.921875 -1.421875 10.953125 3.296875 
Q 6 8.015625 6 15.921875 
Q 6 25.140625 12.171875 29.828125 
Q 18.359375 34.515625 30.609375 34.515625 
L 43.21875 34.515625 
L 43.21875 35.40625 
Q 43.21875 41.609375 39.140625 45 
Q 35.0625 48.390625 27.6875 48.390625 
Q 23 48.390625 18.546875 47.265625 
Q 14.109375 46.140625 10.015625 43.890625 
L 10.015625 52.203125 
Q 14.9375 54.109375 19.578125 55.046875 
Q 24.21875 56 28.609375 56 
Q 40.484375 56 46.34375 49.84375 
Q 52.203125 43.703125 52.203125 31.203125 
z
" id="DejaVuSans-97"/>
      <path d="M 9.421875 75.984375 
L 18.40625 75.984375 
L 18.40625 0 
L 9.421875 0 
z
" id="DejaVuSans-108"/>
     </defs>
     <g transform="translate(19.3575 290.27775)rotate(-90)scale(0.16 -0.16)">
      <use xlink:href="#DejaVuSans-82"/>
      <use x="69.419922" xlink:href="#DejaVuSans-101"/>
      <use x="130.943359" xlink:href="#DejaVuSans-115"/>
      <use x="183.042969" xlink:href="#DejaVuSans-112"/>
      <use x="246.519531" xlink:href="#DejaVuSans-111"/>
      <use x="307.701172" xlink:href="#DejaVuSans-110"/>
      <use x="371.080078" xlink:href="#DejaVuSans-115"/>
      <use x="423.179688" xlink:href="#DejaVuSans-101"/>
      <use x="484.703125" xlink:href="#DejaVuSans-32"/>
      <use x="516.490234" xlink:href="#DejaVuSans-69"/>
      <use x="579.673828" xlink:href="#DejaVuSans-114"/>
      <use x="620.771484" xlink:href="#DejaVuSans-114"/>
      <use x="661.853516" xlink:href="#DejaVuSans-111"/>
      <use x="723.035156" xlink:href="#DejaVuSans-114"/>
      <use x="764.148438" xlink:href="#DejaVuSans-32"/>
      <use x="795.935547" xlink:href="#DejaVuSans-111"/>
      <use x="857.117188" xlink:href="#DejaVuSans-110"/>
      <use x="920.496094" xlink:href="#DejaVuSans-32"/>
      <use x="952.283203" xlink:href="#DejaVuSans-67"/>
      <use x="1022.107422" xlink:href="#DejaVuSans-117"/>
      <use x="1085.486328" xlink:href="#DejaVuSans-114"/>
      <use x="1126.583984" xlink:href="#DejaVuSans-114"/>
      <use x="1167.666016" xlink:href="#DejaVuSans-101"/>
      <use x="1229.189453" xlink:href="#DejaVuSans-110"/>
      <use x="1292.568359" xlink:href="#DejaVuSans-116"/>
      <use x="1331.777344" xlink:href="#DejaVuSans-32"/>
      <use x="1363.564453" xlink:href="#DejaVuSans-84"/>
      <use x="1424.429688" xlink:href="#DejaVuSans-114"/>
      <use x="1465.542969" xlink:href="#DejaVuSans-105"/>
      <use x="1493.326172" xlink:href="#DejaVuSans-97"/>
      <use x="1554.605469" xlink:href="#DejaVuSans-108"/>
     </g>
     <!--  (morph units) -->
     <g transform="translate(37.274 220.80775)rotate(-90)scale(0.16 -0.16)">
      <use xlink:href="#DejaVuSans-32"/>
      <use x="31.787109" xlink:href="#DejaVuSans-40"/>
      <use x="70.800781" xlink:href="#DejaVuSans-109"/>
      <use x="168.212891" xlink:href="#DejaVuSans-111"/>
      <use x="229.394531" xlink:href="#DejaVuSans-114"/>
      <use x="270.507812" xlink:href="#DejaVuSans-112"/>
      <use x="333.984375" xlink:href="#DejaVuSans-104"/>
      <use x="397.363281" xlink:href="#DejaVuSans-32"/>
      <use x="429.150391" xlink:href="#DejaVuSans-117"/>
      <use x="492.529297" xlink:href="#DejaVuSans-110"/>
      <use x="555.908203" xlink:href="#DejaVuSans-105"/>
      <use x="583.691406" xlink:href="#DejaVuSans-116"/>
      <use x="622.900391" xlink:href="#DejaVuSans-115"/>
      <use x="675" xlink:href="#DejaVuSans-41"/>
     </g>
    </g>
   </g>
   <g id="line2d_17">
    <path clip-path="url(#p9528dbc7ff)" d="M 71.689 206.092311 
L 73.599959 195.415929 
L 75.510918 176.123237 
L 77.421877 180.236361 
L 79.332836 180.40171 
L 81.243795 171.802631 
L 83.154753 164.480178 
L 85.065712 166.667976 
L 86.976671 152.283925 
L 88.88763 156.929265 
L 90.798589 181.985831 
L 92.709548 171.622778 
L 94.620507 185.708652 
L 96.531466 188.495245 
L 98.442425 183.730717 
L 100.353384 184.644883 
L 102.264342 183.351371 
L 104.175301 210.861404 
L 106.08626 220.792771 
L 107.997219 222.705329 
L 109.908178 217.726553 
L 111.819137 203.842049 
L 113.730096 217.449877 
L 115.641055 220.605226 
L 117.552014 217.741736 
L 119.462973 224.264271 
L 121.373932 217.877805 
L 123.28489 226.878595 
L 125.195849 226.267859 
L 127.106808 202.493958 
L 129.017767 214.569896 
L 130.928726 217.923381 
L 132.839685 211.398768 
L 134.750644 205.716446 
L 136.661603 202.806852 
L 138.572562 202.955167 
L 140.483521 188.317664 
L 144.305438 208.763656 
L 146.216397 179.142096 
L 148.127356 192.325762 
L 150.038315 187.986583 
L 151.949274 184.118119 
L 153.860233 195.235006 
L 155.771192 209.719233 
L 157.682151 211.550461 
L 159.59311 214.872092 
L 161.504068 231.512867 
L 163.415027 229.184466 
L 165.325986 214.690202 
L 167.236945 233.516026 
L 169.147904 211.340978 
L 171.058863 199.713667 
L 172.969822 223.123701 
L 174.880781 211.022464 
L 176.79174 219.622311 
L 178.702699 218.001626 
L 180.613658 212.15668 
L 182.524616 214.687114 
L 184.435575 223.02871 
L 186.346534 235.621886 
L 188.257493 249.672492 
L 190.168452 254.041039 
L 192.079411 270.863977 
L 193.99037 254.349621 
L 195.901329 258.66333 
L 197.812288 238.002368 
L 199.723247 230.883361 
L 203.545164 211.306114 
L 205.456123 198.715739 
L 207.367082 172.167755 
L 209.278041 174.913039 
L 211.189 147.83472 
L 213.099959 132.701564 
L 215.010918 125.240042 
L 216.921877 125.218284 
L 218.832836 112.783333 
L 220.743795 98.589338 
L 222.654753 114.348825 
L 224.565712 108.945827 
L 226.476671 115.73858 
L 228.38763 109.347768 
L 230.298589 99.73356 
L 232.209548 123.175993 
L 234.120507 129.836425 
L 236.031466 127.045995 
L 237.942425 142.962997 
L 239.853384 141.717604 
L 241.764342 145.042139 
L 243.675301 121.668349 
L 245.58626 133.524021 
L 247.497219 116.969904 
L 249.408178 119.620813 
L 251.319137 127.351297 
L 253.230096 110.879604 
L 255.141055 114.488111 
L 257.052014 123.01862 
L 258.962973 110.815725 
L 262.78489 133.359689 
L 264.695849 138.951575 
L 266.606808 114.004891 
L 268.517767 117.527987 
L 270.428726 120.591429 
L 272.339685 113.177067 
L 274.250644 129.730838 
L 276.161603 122.986388 
L 278.072562 105.927946 
L 279.983521 79.181272 
L 281.894479 73.925562 
L 283.805438 81.566668 
L 285.716397 69.000365 
L 287.627356 73.901019 
L 289.538315 82.182122 
L 291.449274 77.276571 
L 293.360233 83.263001 
L 295.271192 70.329888 
L 297.182151 73.571205 
L 299.09311 93.488895 
L 301.004068 118.049288 
L 302.915027 110.784351 
L 304.825986 101.795846 
L 306.736945 131.390267 
L 308.647904 132.815603 
L 310.558863 128.407074 
L 312.469822 147.790402 
L 314.380781 138.417512 
L 316.29174 139.752037 
L 318.202699 128.610247 
L 320.113658 114.372022 
L 322.024616 92.015075 
L 323.935575 101.366037 
L 325.846534 116.442042 
L 327.757493 114.032448 
L 329.668452 103.43561 
L 331.579411 117.372588 
L 333.49037 117.443591 
L 335.401329 147.539007 
L 337.312288 150.667305 
L 339.223247 158.604099 
L 341.134205 163.078036 
L 343.045164 174.69813 
L 344.956123 177.026363 
L 346.867082 185.797701 
L 348.778041 192.776158 
L 350.689 206.092311 
L 350.689 206.092311 
" style="fill:none;stroke:#00008b;stroke-linecap:square;stroke-width:1.5;"/>
   </g>
   <g id="line2d_18">
    <path clip-path="url(#p9528dbc7ff)" d="M 71.689 163.862889 
L 85.065712 164.568705 
L 92.709548 165.136419 
L 100.353384 165.935944 
L 106.08626 166.768211 
L 111.819137 167.88701 
L 115.641055 168.842942 
L 119.462973 170.011105 
L 123.28489 171.436775 
L 127.106808 173.172146 
L 130.928726 175.276092 
L 134.750644 177.813109 
L 138.572562 180.85101 
L 140.483521 182.578922 
L 142.394479 184.4568 
L 144.305438 186.491813 
L 148.127356 191.056319 
L 151.949274 196.301416 
L 155.771192 202.216941 
L 159.59311 208.734018 
L 165.325986 219.281746 
L 171.058863 229.859472 
L 172.969822 233.135857 
L 174.880781 236.169802 
L 176.79174 238.880435 
L 178.702699 241.181804 
L 180.613658 242.984772 
L 182.524616 244.199381 
L 184.435575 244.737675 
L 186.346534 244.516891 
L 188.257493 243.462918 
L 190.168452 241.513886 
L 192.079411 238.623698 
L 193.99037 234.765324 
L 195.901329 229.933629 
L 197.812288 224.147543 
L 199.723247 217.451372 
L 201.634205 209.915122 
L 203.545164 201.633707 
L 207.367082 183.326954 
L 216.921877 134.652972 
L 218.832836 125.744293 
L 220.743795 117.462878 
L 222.654753 109.926628 
L 224.565712 103.230457 
L 226.476671 97.444371 
L 228.38763 92.612676 
L 230.298589 88.754302 
L 232.209548 85.864114 
L 234.120507 83.915082 
L 236.031466 82.861109 
L 237.942425 82.640325 
L 239.853384 83.178619 
L 241.764342 84.393228 
L 243.675301 86.196196 
L 245.58626 88.497565 
L 247.497219 91.208198 
L 249.408178 94.242143 
L 253.230096 100.962973 
L 262.78489 118.643982 
L 266.606808 125.161059 
L 270.428726 131.076584 
L 274.250644 136.321681 
L 278.072562 140.886187 
L 281.894479 144.799078 
L 285.716397 148.112821 
L 289.538315 150.891732 
L 293.360233 153.203872 
L 297.182151 155.115783 
L 301.004068 156.689348 
L 304.825986 157.980174 
L 308.647904 159.036988 
L 312.469822 159.901689 
L 318.202699 160.914623 
L 323.935575 161.670278 
L 331.579411 162.40095 
L 341.134205 163.037049 
L 350.689 163.515111 
L 350.689 163.515111 
" style="fill:none;stroke:#000000;stroke-linecap:square;stroke-width:1.5;"/>
   </g>
   <g id="patch_3">
    <path d="M 71.689 299.589 
L 71.689 27.789 
" style="fill:none;stroke:#000000;stroke-linecap:square;stroke-linejoin:miter;stroke-width:2;"/>
   </g>
   <g id="patch_4">
    <path d="M 71.689 299.589 
L 350.689 299.589 
" style="fill:none;stroke:#000000;stroke-linecap:square;stroke-linejoin:miter;stroke-width:2;"/>
   </g>
   <g id="text_19">
    <!-- Radiologists, Step = 10 -->
    <defs>
     <path d="M 45.40625 46.390625 
L 45.40625 75.984375 
L 54.390625 75.984375 
L 54.390625 0 
L 45.40625 0 
L 45.40625 8.203125 
Q 42.578125 3.328125 38.25 0.953125 
Q 33.9375 -1.421875 27.875 -1.421875 
Q 17.96875 -1.421875 11.734375 6.484375 
Q 5.515625 14.40625 5.515625 27.296875 
Q 5.515625 40.1875 11.734375 48.09375 
Q 17.96875 56 27.875 56 
Q 33.9375 56 38.25 53.625 
Q 42.578125 51.265625 45.40625 46.390625 
z
M 14.796875 27.296875 
Q 14.796875 17.390625 18.875 11.75 
Q 22.953125 6.109375 30.078125 6.109375 
Q 37.203125 6.109375 41.296875 11.75 
Q 45.40625 17.390625 45.40625 27.296875 
Q 45.40625 37.203125 41.296875 42.84375 
Q 37.203125 48.484375 30.078125 48.484375 
Q 22.953125 48.484375 18.875 42.84375 
Q 14.796875 37.203125 14.796875 27.296875 
z
" id="DejaVuSans-100"/>
     <path d="M 45.40625 27.984375 
Q 45.40625 37.75 41.375 43.109375 
Q 37.359375 48.484375 30.078125 48.484375 
Q 22.859375 48.484375 18.828125 43.109375 
Q 14.796875 37.75 14.796875 27.984375 
Q 14.796875 18.265625 18.828125 12.890625 
Q 22.859375 7.515625 30.078125 7.515625 
Q 37.359375 7.515625 41.375 12.890625 
Q 45.40625 18.265625 45.40625 27.984375 
z
M 54.390625 6.78125 
Q 54.390625 -7.171875 48.1875 -13.984375 
Q 42 -20.796875 29.203125 -20.796875 
Q 24.46875 -20.796875 20.265625 -20.09375 
Q 16.0625 -19.390625 12.109375 -17.921875 
L 12.109375 -9.1875 
Q 16.0625 -11.328125 19.921875 -12.34375 
Q 23.78125 -13.375 27.78125 -13.375 
Q 36.625 -13.375 41.015625 -8.765625 
Q 45.40625 -4.15625 45.40625 5.171875 
L 45.40625 9.625 
Q 42.625 4.78125 38.28125 2.390625 
Q 33.9375 0 27.875 0 
Q 17.828125 0 11.671875 7.65625 
Q 5.515625 15.328125 5.515625 27.984375 
Q 5.515625 40.671875 11.671875 48.328125 
Q 17.828125 56 27.875 56 
Q 33.9375 56 38.28125 53.609375 
Q 42.625 51.21875 45.40625 46.390625 
L 45.40625 54.6875 
L 54.390625 54.6875 
z
" id="DejaVuSans-103"/>
     <path d="M 11.71875 12.40625 
L 22.015625 12.40625 
L 22.015625 4 
L 14.015625 -11.625 
L 7.71875 -11.625 
L 11.71875 4 
z
" id="DejaVuSans-44"/>
     <path d="M 53.515625 70.515625 
L 53.515625 60.890625 
Q 47.90625 63.578125 42.921875 64.890625 
Q 37.9375 66.21875 33.296875 66.21875 
Q 25.25 66.21875 20.875 63.09375 
Q 16.5 59.96875 16.5 54.203125 
Q 16.5 49.359375 19.40625 46.890625 
Q 22.3125 44.4375 30.421875 42.921875 
L 36.375 41.703125 
Q 47.40625 39.59375 52.65625 34.296875 
Q 57.90625 29 57.90625 20.125 
Q 57.90625 9.515625 50.796875 4.046875 
Q 43.703125 -1.421875 29.984375 -1.421875 
Q 24.8125 -1.421875 18.96875 -0.25 
Q 13.140625 0.921875 6.890625 3.21875 
L 6.890625 13.375 
Q 12.890625 10.015625 18.65625 8.296875 
Q 24.421875 6.59375 29.984375 6.59375 
Q 38.421875 6.59375 43.015625 9.90625 
Q 47.609375 13.234375 47.609375 19.390625 
Q 47.609375 24.75 44.3125 27.78125 
Q 41.015625 30.8125 33.5 32.328125 
L 27.484375 33.5 
Q 16.453125 35.6875 11.515625 40.375 
Q 6.59375 45.0625 6.59375 53.421875 
Q 6.59375 63.09375 13.40625 68.65625 
Q 20.21875 74.21875 32.171875 74.21875 
Q 37.3125 74.21875 42.625 73.28125 
Q 47.953125 72.359375 53.515625 70.515625 
z
" id="DejaVuSans-83"/>
     <path d="M 10.59375 45.40625 
L 73.1875 45.40625 
L 73.1875 37.203125 
L 10.59375 37.203125 
z
M 10.59375 25.484375 
L 73.1875 25.484375 
L 73.1875 17.1875 
L 10.59375 17.1875 
z
" id="DejaVuSans-61"/>
    </defs>
    <g transform="translate(98.611 21.789)scale(0.192 -0.192)">
     <use xlink:href="#DejaVuSans-82"/>
     <use x="69.451172" xlink:href="#DejaVuSans-97"/>
     <use x="130.730469" xlink:href="#DejaVuSans-100"/>
     <use x="194.207031" xlink:href="#DejaVuSans-105"/>
     <use x="221.990234" xlink:href="#DejaVuSans-111"/>
     <use x="283.171875" xlink:href="#DejaVuSans-108"/>
     <use x="310.955078" xlink:href="#DejaVuSans-111"/>
     <use x="372.136719" xlink:href="#DejaVuSans-103"/>
     <use x="435.613281" xlink:href="#DejaVuSans-105"/>
     <use x="463.396484" xlink:href="#DejaVuSans-115"/>
     <use x="515.496094" xlink:href="#DejaVuSans-116"/>
     <use x="554.705078" xlink:href="#DejaVuSans-115"/>
     <use x="606.804688" xlink:href="#DejaVuSans-44"/>
     <use x="638.591797" xlink:href="#DejaVuSans-32"/>
     <use x="670.378906" xlink:href="#DejaVuSans-83"/>
     <use x="733.855469" xlink:href="#DejaVuSans-116"/>
     <use x="773.064453" xlink:href="#DejaVuSans-101"/>
     <use x="834.587891" xlink:href="#DejaVuSans-112"/>
     <use x="898.064453" xlink:href="#DejaVuSans-32"/>
     <use x="929.851562" xlink:href="#DejaVuSans-61"/>
     <use x="1013.640625" xlink:href="#DejaVuSans-32"/>
     <use x="1045.427734" xlink:href="#DejaVuSans-49"/>
     <use x="1109.050781" xlink:href="#DejaVuSans-48"/>
    </g>
   </g>
  </g>
 </g>
 <defs>
  <clipPath id="p9528dbc7ff">
   <rect height="271.8" width="279" x="71.689" y="27.789"/>
  </clipPath>
 </defs>
</svg>
