<?xml version="1.0" encoding="utf-8" standalone="no"?>
<!DOCTYPE svg PUBLIC "-//W3C//DTD SVG 1.1//EN"
  "http://www.w3.org/Graphics/SVG/1.1/DTD/svg11.dtd">
<!-- Created with matplotlib (https://matplotlib.org/) -->
<svg height="290.899pt" version="1.1" viewBox="0 0 416.989548 290.899" width="416.989548pt" xmlns="http://www.w3.org/2000/svg" xmlns:xlink="http://www.w3.org/1999/xlink">
 <defs>
  <style type="text/css">
*{stroke-linecap:butt;stroke-linejoin:round;}
  </style>
 </defs>
 <g id="figure_1">
  <g id="patch_1">
   <path d="M 0 290.899 
L 416.989548 290.899 
L 416.989548 0 
L 0 0 
z
" style="fill:#ffffff;"/>
  </g>
  <g id="axes_1">
   <g id="patch_2">
    <path d="M 71.689 245.229 
L 406.489 245.229 
L 406.489 27.789 
L 71.689 27.789 
z
" style="fill:#ffffff;"/>
   </g>
   <g id="PolyCollection_1">
    <defs>
     <path d="M 86.907182 -162.318164 
L 86.907182 -117.453348 
L 88.991864 -116.099985 
L 91.076547 -121.551462 
L 93.161229 -124.287975 
L 95.245912 -131.259629 
L 97.330594 -137.274692 
L 99.415276 -137.318119 
L 101.499959 -144.171562 
L 103.584641 -152.64941 
L 105.669324 -151.916579 
L 107.754006 -143.932995 
L 109.838689 -151.705632 
L 111.923371 -147.883976 
L 114.008054 -151.189047 
L 116.092736 -150.291972 
L 118.177418 -154.895601 
L 120.262101 -148.404874 
L 122.346783 -145.304316 
L 124.431466 -148.852078 
L 126.516148 -145.416282 
L 128.600831 -142.513103 
L 130.685513 -142.831768 
L 132.770196 -138.771054 
L 134.854878 -137.83846 
L 136.93956 -138.711111 
L 139.024243 -143.803235 
L 141.108925 -141.207247 
L 143.193608 -141.524516 
L 145.27829 -139.379497 
L 147.362973 -146.386846 
L 149.447655 -144.837755 
L 151.532337 -136.978659 
L 153.61702 -136.241571 
L 155.701702 -134.320636 
L 157.786385 -133.308757 
L 159.871067 -138.755177 
L 161.95575 -134.183513 
L 164.040432 -134.477349 
L 166.125115 -129.905811 
L 168.209797 -131.178122 
L 170.294479 -125.708988 
L 172.379162 -125.681349 
L 174.463844 -120.696913 
L 176.548527 -130.541167 
L 178.633209 -131.649088 
L 180.717892 -128.44361 
L 182.802574 -128.458765 
L 184.887257 -123.746532 
L 186.971939 -127.128377 
L 189.056621 -123.814671 
L 191.141304 -130.343548 
L 193.225986 -138.144991 
L 195.310669 -134.472742 
L 197.395351 -143.005638 
L 199.480034 -131.180725 
L 201.564716 -127.796072 
L 203.649399 -117.339911 
L 205.734081 -122.194753 
L 207.818763 -121.461811 
L 209.903446 -127.090523 
L 211.988128 -131.61133 
L 214.072811 -127.127939 
L 216.157493 -125.728271 
L 218.242176 -130.882162 
L 220.326858 -122.219208 
L 222.41154 -128.368122 
L 224.496223 -127.575302 
L 226.580905 -130.538437 
L 228.665588 -130.518568 
L 230.75027 -138.558618 
L 232.834953 -141.467698 
L 234.919635 -142.180386 
L 237.004318 -146.458543 
L 239.089 -154.763283 
L 241.173682 -149.094788 
L 243.258365 -150.490584 
L 245.343047 -154.603642 
L 247.42773 -152.613195 
L 249.512412 -161.318451 
L 251.597095 -156.427513 
L 253.681777 -153.997478 
L 255.76646 -156.545126 
L 257.851142 -148.876019 
L 259.935824 -149.505307 
L 262.020507 -140.199841 
L 264.105189 -145.706299 
L 266.189872 -152.109673 
L 268.274554 -158.208588 
L 270.359237 -150.181282 
L 272.443919 -151.892947 
L 274.528601 -149.333496 
L 276.613284 -154.932139 
L 278.697966 -156.546271 
L 280.782649 -153.321198 
L 282.867331 -150.563548 
L 284.952014 -151.758697 
L 287.036696 -152.077003 
L 289.121379 -152.270177 
L 291.206061 -154.658461 
L 293.290743 -153.518949 
L 295.375426 -151.082469 
L 297.460108 -147.076313 
L 299.544791 -156.867035 
L 301.629473 -148.135729 
L 303.714156 -148.069242 
L 305.798838 -151.572244 
L 307.883521 -146.375674 
L 309.968203 -153.979164 
L 312.052885 -146.388654 
L 314.137568 -147.969395 
L 316.22225 -144.494002 
L 318.306933 -136.555283 
L 320.391615 -137.363278 
L 322.476298 -139.452099 
L 324.56098 -149.371714 
L 326.645663 -147.764077 
L 328.730345 -150.3927 
L 330.815027 -149.754245 
L 332.89971 -148.468883 
L 334.984392 -155.042393 
L 337.069075 -151.392316 
L 339.153757 -146.302151 
L 341.23844 -140.111634 
L 343.323122 -137.491477 
L 345.407804 -136.653178 
L 347.492487 -137.032476 
L 349.577169 -148.58805 
L 351.661852 -140.089542 
L 353.746534 -136.566241 
L 355.831217 -135.608838 
L 357.915899 -131.692739 
L 360.000582 -130.744763 
L 362.085264 -139.557074 
L 364.169946 -129.224097 
L 366.254629 -130.910767 
L 368.339311 -124.473427 
L 370.423994 -120.068862 
L 372.508676 -119.933258 
L 374.593359 -118.303852 
L 376.678041 -118.564274 
L 378.762724 -110.416786 
L 380.847406 -113.030857 
L 382.932088 -123.570169 
L 385.016771 -121.107896 
L 387.101453 -123.698805 
L 389.186136 -107.224913 
L 391.270818 -117.453348 
L 391.270818 -162.318164 
L 391.270818 -162.318164 
L 389.186136 -147.722335 
L 387.101453 -163.600118 
L 385.016771 -160.3907 
L 382.932088 -169.799116 
L 380.847406 -160.52672 
L 378.762724 -153.332414 
L 376.678041 -160.927421 
L 374.593359 -155.842313 
L 372.508676 -157.540213 
L 370.423994 -158.133123 
L 368.339311 -163.188716 
L 366.254629 -166.273791 
L 364.169946 -163.573276 
L 362.085264 -173.41038 
L 360.000582 -164.744198 
L 357.915899 -163.002897 
L 355.831217 -164.448311 
L 353.746534 -167.650677 
L 351.661852 -167.717492 
L 349.577169 -174.052679 
L 347.492487 -164.847425 
L 345.407804 -163.652194 
L 343.323122 -162.178639 
L 341.23844 -165.630414 
L 339.153757 -174.075626 
L 337.069075 -176.973116 
L 334.984392 -184.314526 
L 332.89971 -182.27283 
L 330.815027 -185.717109 
L 328.730345 -182.865971 
L 326.645663 -180.509088 
L 324.56098 -182.072671 
L 322.476298 -175.226147 
L 320.391615 -171.581391 
L 318.306933 -174.464297 
L 316.22225 -179.852387 
L 314.137568 -180.802945 
L 312.052885 -179.064725 
L 309.968203 -181.152794 
L 307.883521 -177.989252 
L 305.798838 -184.321741 
L 303.714156 -181.495755 
L 301.629473 -181.75642 
L 299.544791 -191.762579 
L 297.460108 -177.188512 
L 295.375426 -185.045559 
L 293.290743 -185.460543 
L 291.206061 -187.151558 
L 289.121379 -186.496205 
L 287.036696 -185.731571 
L 284.952014 -183.428709 
L 282.867331 -184.397042 
L 280.782649 -185.376477 
L 278.697966 -189.697627 
L 276.613284 -187.304506 
L 274.528601 -184.346493 
L 272.443919 -188.084074 
L 270.359237 -190.165215 
L 268.274554 -192.984092 
L 266.189872 -188.84789 
L 264.105189 -184.268876 
L 262.020507 -179.247269 
L 259.935824 -185.499161 
L 257.851142 -175.922134 
L 255.76646 -179.557791 
L 253.681777 -174.712542 
L 251.597095 -183.057107 
L 249.512412 -184.624509 
L 247.42773 -175.900644 
L 245.343047 -180.30742 
L 243.258365 -174.528144 
L 241.173682 -174.635076 
L 239.089 -178.805512 
L 237.004318 -169.281294 
L 234.919635 -161.692236 
L 232.834953 -157.577935 
L 230.75027 -156.862122 
L 228.665588 -153.067352 
L 226.580905 -154.437618 
L 224.496223 -152.392702 
L 222.41154 -154.398304 
L 220.326858 -150.834955 
L 218.242176 -159.311523 
L 216.157493 -153.273024 
L 214.072811 -157.010921 
L 211.988128 -158.857643 
L 209.903446 -154.579139 
L 207.818763 -153.143168 
L 205.734081 -153.667938 
L 203.649399 -149.469193 
L 201.564716 -157.137446 
L 199.480034 -161.888211 
L 197.395351 -172.7136 
L 195.310669 -163.838845 
L 193.225986 -166.980878 
L 191.141304 -159.01219 
L 189.056621 -157.203249 
L 186.971939 -158.670604 
L 184.887257 -155.191128 
L 182.802574 -158.836097 
L 180.717892 -158.317942 
L 178.633209 -160.212808 
L 176.548527 -158.781573 
L 174.463844 -153.967425 
L 172.379162 -159.239791 
L 170.294479 -156.726856 
L 168.209797 -161.264663 
L 166.125115 -164.287836 
L 164.040432 -173.732898 
L 161.95575 -166.481058 
L 159.871067 -169.11143 
L 157.786385 -165.968543 
L 155.701702 -170.372006 
L 153.61702 -173.440266 
L 151.532337 -176.563396 
L 149.447655 -184.951156 
L 147.362973 -185.88796 
L 145.27829 -178.406095 
L 143.193608 -172.637621 
L 141.108925 -165.371204 
L 139.024243 -169.990127 
L 136.93956 -161.955397 
L 134.854878 -158.690183 
L 132.770196 -160.303394 
L 130.685513 -159.921961 
L 128.600831 -158.697437 
L 126.516148 -161.159575 
L 124.431466 -164.77801 
L 122.346783 -159.871436 
L 120.262101 -161.222889 
L 118.177418 -169.45657 
L 116.092736 -168.371944 
L 114.008054 -170.780038 
L 111.923371 -167.640189 
L 109.838689 -173.665779 
L 107.754006 -170.475397 
L 105.669324 -179.830829 
L 103.584641 -179.096719 
L 101.499959 -175.39374 
L 99.415276 -171.01786 
L 97.330594 -169.071365 
L 95.245912 -163.651434 
L 93.161229 -160.048481 
L 91.076547 -158.811448 
L 88.991864 -155.044991 
L 86.907182 -162.318164 
z
" id="m6b6dc72af2" style="stroke:#1e90ff;stroke-opacity:0.2;"/>
    </defs>
    <g clip-path="url(#pd45a9ea312)">
     <use style="fill:#1e90ff;fill-opacity:0.2;stroke:#1e90ff;stroke-opacity:0.2;" x="0" xlink:href="#m6b6dc72af2" y="290.899"/>
    </g>
   </g>
   <g id="matplotlib.axis_1">
    <g id="xtick_1">
     <g id="line2d_1">
      <defs>
       <path d="M 0 0 
L 0 -6 
" id="m28672ecf01" style="stroke:#000000;stroke-width:2;"/>
      </defs>
      <g>
       <use style="stroke:#000000;stroke-width:2;" x="86.907182" xlink:href="#m28672ecf01" y="245.229"/>
      </g>
     </g>
     <g id="text_1">
      <!-- -75 -->
      <defs>
       <path d="M 4.890625 31.390625 
L 31.203125 31.390625 
L 31.203125 23.390625 
L 4.890625 23.390625 
z
" id="DejaVuSans-45"/>
       <path d="M 8.203125 72.90625 
L 55.078125 72.90625 
L 55.078125 68.703125 
L 28.609375 0 
L 18.3125 0 
L 43.21875 64.59375 
L 8.203125 64.59375 
z
" id="DejaVuSans-55"/>
       <path d="M 10.796875 72.90625 
L 49.515625 72.90625 
L 49.515625 64.59375 
L 19.828125 64.59375 
L 19.828125 46.734375 
Q 21.96875 47.46875 24.109375 47.828125 
Q 26.265625 48.1875 28.421875 48.1875 
Q 40.625 48.1875 47.75 41.5 
Q 54.890625 34.8125 54.890625 23.390625 
Q 54.890625 11.625 47.5625 5.09375 
Q 40.234375 -1.421875 26.90625 -1.421875 
Q 22.3125 -1.421875 17.546875 -0.640625 
Q 12.796875 0.140625 7.71875 1.703125 
L 7.71875 11.625 
Q 12.109375 9.234375 16.796875 8.0625 
Q 21.484375 6.890625 26.703125 6.890625 
Q 35.15625 6.890625 40.078125 11.328125 
Q 45.015625 15.765625 45.015625 23.390625 
Q 45.015625 31 40.078125 35.4375 
Q 35.15625 39.890625 26.703125 39.890625 
Q 22.75 39.890625 18.8125 39.015625 
Q 14.890625 38.140625 10.796875 36.28125 
z
" id="DejaVuSans-53"/>
      </defs>
      <g transform="translate(73.840932 260.8865)scale(0.16 -0.16)">
       <use xlink:href="#DejaVuSans-45"/>
       <use x="36.083984" xlink:href="#DejaVuSans-55"/>
       <use x="99.707031" xlink:href="#DejaVuSans-53"/>
      </g>
     </g>
    </g>
    <g id="xtick_2">
     <g id="line2d_2">
      <g>
       <use style="stroke:#000000;stroke-width:2;" x="139.024243" xlink:href="#m28672ecf01" y="245.229"/>
      </g>
     </g>
     <g id="text_2">
      <!-- -50 -->
      <defs>
       <path d="M 31.78125 66.40625 
Q 24.171875 66.40625 20.328125 58.90625 
Q 16.5 51.421875 16.5 36.375 
Q 16.5 21.390625 20.328125 13.890625 
Q 24.171875 6.390625 31.78125 6.390625 
Q 39.453125 6.390625 43.28125 13.890625 
Q 47.125 21.390625 47.125 36.375 
Q 47.125 51.421875 43.28125 58.90625 
Q 39.453125 66.40625 31.78125 66.40625 
z
M 31.78125 74.21875 
Q 44.046875 74.21875 50.515625 64.515625 
Q 56.984375 54.828125 56.984375 36.375 
Q 56.984375 17.96875 50.515625 8.265625 
Q 44.046875 -1.421875 31.78125 -1.421875 
Q 19.53125 -1.421875 13.0625 8.265625 
Q 6.59375 17.96875 6.59375 36.375 
Q 6.59375 54.828125 13.0625 64.515625 
Q 19.53125 74.21875 31.78125 74.21875 
z
" id="DejaVuSans-48"/>
      </defs>
      <g transform="translate(125.957993 260.8865)scale(0.16 -0.16)">
       <use xlink:href="#DejaVuSans-45"/>
       <use x="36.083984" xlink:href="#DejaVuSans-53"/>
       <use x="99.707031" xlink:href="#DejaVuSans-48"/>
      </g>
     </g>
    </g>
    <g id="xtick_3">
     <g id="line2d_3">
      <g>
       <use style="stroke:#000000;stroke-width:2;" x="191.141304" xlink:href="#m28672ecf01" y="245.229"/>
      </g>
     </g>
     <g id="text_3">
      <!-- -25 -->
      <defs>
       <path d="M 19.1875 8.296875 
L 53.609375 8.296875 
L 53.609375 0 
L 7.328125 0 
L 7.328125 8.296875 
Q 12.9375 14.109375 22.625 23.890625 
Q 32.328125 33.6875 34.8125 36.53125 
Q 39.546875 41.84375 41.421875 45.53125 
Q 43.3125 49.21875 43.3125 52.78125 
Q 43.3125 58.59375 39.234375 62.25 
Q 35.15625 65.921875 28.609375 65.921875 
Q 23.96875 65.921875 18.8125 64.3125 
Q 13.671875 62.703125 7.8125 59.421875 
L 7.8125 69.390625 
Q 13.765625 71.78125 18.9375 73 
Q 24.125 74.21875 28.421875 74.21875 
Q 39.75 74.21875 46.484375 68.546875 
Q 53.21875 62.890625 53.21875 53.421875 
Q 53.21875 48.921875 51.53125 44.890625 
Q 49.859375 40.875 45.40625 35.40625 
Q 44.1875 33.984375 37.640625 27.21875 
Q 31.109375 20.453125 19.1875 8.296875 
z
" id="DejaVuSans-50"/>
      </defs>
      <g transform="translate(178.075054 260.8865)scale(0.16 -0.16)">
       <use xlink:href="#DejaVuSans-45"/>
       <use x="36.083984" xlink:href="#DejaVuSans-50"/>
       <use x="99.707031" xlink:href="#DejaVuSans-53"/>
      </g>
     </g>
    </g>
    <g id="xtick_4">
     <g id="line2d_4">
      <g>
       <use style="stroke:#000000;stroke-width:2;" x="243.258365" xlink:href="#m28672ecf01" y="245.229"/>
      </g>
     </g>
     <g id="text_4">
      <!-- 0 -->
      <g transform="translate(238.168365 260.8865)scale(0.16 -0.16)">
       <use xlink:href="#DejaVuSans-48"/>
      </g>
     </g>
    </g>
    <g id="xtick_5">
     <g id="line2d_5">
      <g>
       <use style="stroke:#000000;stroke-width:2;" x="295.375426" xlink:href="#m28672ecf01" y="245.229"/>
      </g>
     </g>
     <g id="text_5">
      <!-- 25 -->
      <g transform="translate(285.195426 260.8865)scale(0.16 -0.16)">
       <use xlink:href="#DejaVuSans-50"/>
       <use x="63.623047" xlink:href="#DejaVuSans-53"/>
      </g>
     </g>
    </g>
    <g id="xtick_6">
     <g id="line2d_6">
      <g>
       <use style="stroke:#000000;stroke-width:2;" x="347.492487" xlink:href="#m28672ecf01" y="245.229"/>
      </g>
     </g>
     <g id="text_6">
      <!-- 50 -->
      <g transform="translate(337.312487 260.8865)scale(0.16 -0.16)">
       <use xlink:href="#DejaVuSans-53"/>
       <use x="63.623047" xlink:href="#DejaVuSans-48"/>
      </g>
     </g>
    </g>
    <g id="xtick_7">
     <g id="line2d_7">
      <g>
       <use style="stroke:#000000;stroke-width:2;" x="399.609548" xlink:href="#m28672ecf01" y="245.229"/>
      </g>
     </g>
     <g id="text_7">
      <!-- 75 -->
      <g transform="translate(389.429548 260.8865)scale(0.16 -0.16)">
       <use xlink:href="#DejaVuSans-55"/>
       <use x="63.623047" xlink:href="#DejaVuSans-53"/>
      </g>
     </g>
    </g>
    <g id="text_8">
     <!-- Relative Orientation of Previous Trial -->
     <defs>
      <path d="M 44.390625 34.1875 
Q 47.5625 33.109375 50.5625 29.59375 
Q 53.5625 26.078125 56.59375 19.921875 
L 66.609375 0 
L 56 0 
L 46.6875 18.703125 
Q 43.0625 26.03125 39.671875 28.421875 
Q 36.28125 30.8125 30.421875 30.8125 
L 19.671875 30.8125 
L 19.671875 0 
L 9.8125 0 
L 9.8125 72.90625 
L 32.078125 72.90625 
Q 44.578125 72.90625 50.734375 67.671875 
Q 56.890625 62.453125 56.890625 51.90625 
Q 56.890625 45.015625 53.6875 40.46875 
Q 50.484375 35.9375 44.390625 34.1875 
z
M 19.671875 64.796875 
L 19.671875 38.921875 
L 32.078125 38.921875 
Q 39.203125 38.921875 42.84375 42.21875 
Q 46.484375 45.515625 46.484375 51.90625 
Q 46.484375 58.296875 42.84375 61.546875 
Q 39.203125 64.796875 32.078125 64.796875 
z
" id="DejaVuSans-82"/>
      <path d="M 56.203125 29.59375 
L 56.203125 25.203125 
L 14.890625 25.203125 
Q 15.484375 15.921875 20.484375 11.0625 
Q 25.484375 6.203125 34.421875 6.203125 
Q 39.59375 6.203125 44.453125 7.46875 
Q 49.3125 8.734375 54.109375 11.28125 
L 54.109375 2.78125 
Q 49.265625 0.734375 44.1875 -0.34375 
Q 39.109375 -1.421875 33.890625 -1.421875 
Q 20.796875 -1.421875 13.15625 6.1875 
Q 5.515625 13.8125 5.515625 26.8125 
Q 5.515625 40.234375 12.765625 48.109375 
Q 20.015625 56 32.328125 56 
Q 43.359375 56 49.78125 48.890625 
Q 56.203125 41.796875 56.203125 29.59375 
z
M 47.21875 32.234375 
Q 47.125 39.59375 43.09375 43.984375 
Q 39.0625 48.390625 32.421875 48.390625 
Q 24.90625 48.390625 20.390625 44.140625 
Q 15.875 39.890625 15.1875 32.171875 
z
" id="DejaVuSans-101"/>
      <path d="M 9.421875 75.984375 
L 18.40625 75.984375 
L 18.40625 0 
L 9.421875 0 
z
" id="DejaVuSans-108"/>
      <path d="M 34.28125 27.484375 
Q 23.390625 27.484375 19.1875 25 
Q 14.984375 22.515625 14.984375 16.5 
Q 14.984375 11.71875 18.140625 8.90625 
Q 21.296875 6.109375 26.703125 6.109375 
Q 34.1875 6.109375 38.703125 11.40625 
Q 43.21875 16.703125 43.21875 25.484375 
L 43.21875 27.484375 
z
M 52.203125 31.203125 
L 52.203125 0 
L 43.21875 0 
L 43.21875 8.296875 
Q 40.140625 3.328125 35.546875 0.953125 
Q 30.953125 -1.421875 24.3125 -1.421875 
Q 15.921875 -1.421875 10.953125 3.296875 
Q 6 8.015625 6 15.921875 
Q 6 25.140625 12.171875 29.828125 
Q 18.359375 34.515625 30.609375 34.515625 
L 43.21875 34.515625 
L 43.21875 35.40625 
Q 43.21875 41.609375 39.140625 45 
Q 35.0625 48.390625 27.6875 48.390625 
Q 23 48.390625 18.546875 47.265625 
Q 14.109375 46.140625 10.015625 43.890625 
L 10.015625 52.203125 
Q 14.9375 54.109375 19.578125 55.046875 
Q 24.21875 56 28.609375 56 
Q 40.484375 56 46.34375 49.84375 
Q 52.203125 43.703125 52.203125 31.203125 
z
" id="DejaVuSans-97"/>
      <path d="M 18.3125 70.21875 
L 18.3125 54.6875 
L 36.8125 54.6875 
L 36.8125 47.703125 
L 18.3125 47.703125 
L 18.3125 18.015625 
Q 18.3125 11.328125 20.140625 9.421875 
Q 21.96875 7.515625 27.59375 7.515625 
L 36.8125 7.515625 
L 36.8125 0 
L 27.59375 0 
Q 17.1875 0 13.234375 3.875 
Q 9.28125 7.765625 9.28125 18.015625 
L 9.28125 47.703125 
L 2.6875 47.703125 
L 2.6875 54.6875 
L 9.28125 54.6875 
L 9.28125 70.21875 
z
" id="DejaVuSans-116"/>
      <path d="M 9.421875 54.6875 
L 18.40625 54.6875 
L 18.40625 0 
L 9.421875 0 
z
M 9.421875 75.984375 
L 18.40625 75.984375 
L 18.40625 64.59375 
L 9.421875 64.59375 
z
" id="DejaVuSans-105"/>
      <path d="M 2.984375 54.6875 
L 12.5 54.6875 
L 29.59375 8.796875 
L 46.6875 54.6875 
L 56.203125 54.6875 
L 35.6875 0 
L 23.484375 0 
z
" id="DejaVuSans-118"/>
      <path id="DejaVuSans-32"/>
      <path d="M 39.40625 66.21875 
Q 28.65625 66.21875 22.328125 58.203125 
Q 16.015625 50.203125 16.015625 36.375 
Q 16.015625 22.609375 22.328125 14.59375 
Q 28.65625 6.59375 39.40625 6.59375 
Q 50.140625 6.59375 56.421875 14.59375 
Q 62.703125 22.609375 62.703125 36.375 
Q 62.703125 50.203125 56.421875 58.203125 
Q 50.140625 66.21875 39.40625 66.21875 
z
M 39.40625 74.21875 
Q 54.734375 74.21875 63.90625 63.9375 
Q 73.09375 53.65625 73.09375 36.375 
Q 73.09375 19.140625 63.90625 8.859375 
Q 54.734375 -1.421875 39.40625 -1.421875 
Q 24.03125 -1.421875 14.8125 8.828125 
Q 5.609375 19.09375 5.609375 36.375 
Q 5.609375 53.65625 14.8125 63.9375 
Q 24.03125 74.21875 39.40625 74.21875 
z
" id="DejaVuSans-79"/>
      <path d="M 41.109375 46.296875 
Q 39.59375 47.171875 37.8125 47.578125 
Q 36.03125 48 33.890625 48 
Q 26.265625 48 22.1875 43.046875 
Q 18.109375 38.09375 18.109375 28.8125 
L 18.109375 0 
L 9.078125 0 
L 9.078125 54.6875 
L 18.109375 54.6875 
L 18.109375 46.1875 
Q 20.953125 51.171875 25.484375 53.578125 
Q 30.03125 56 36.53125 56 
Q 37.453125 56 38.578125 55.875 
Q 39.703125 55.765625 41.0625 55.515625 
z
" id="DejaVuSans-114"/>
      <path d="M 54.890625 33.015625 
L 54.890625 0 
L 45.90625 0 
L 45.90625 32.71875 
Q 45.90625 40.484375 42.875 44.328125 
Q 39.84375 48.1875 33.796875 48.1875 
Q 26.515625 48.1875 22.3125 43.546875 
Q 18.109375 38.921875 18.109375 30.90625 
L 18.109375 0 
L 9.078125 0 
L 9.078125 54.6875 
L 18.109375 54.6875 
L 18.109375 46.1875 
Q 21.34375 51.125 25.703125 53.5625 
Q 30.078125 56 35.796875 56 
Q 45.21875 56 50.046875 50.171875 
Q 54.890625 44.34375 54.890625 33.015625 
z
" id="DejaVuSans-110"/>
      <path d="M 30.609375 48.390625 
Q 23.390625 48.390625 19.1875 42.75 
Q 14.984375 37.109375 14.984375 27.296875 
Q 14.984375 17.484375 19.15625 11.84375 
Q 23.34375 6.203125 30.609375 6.203125 
Q 37.796875 6.203125 41.984375 11.859375 
Q 46.1875 17.53125 46.1875 27.296875 
Q 46.1875 37.015625 41.984375 42.703125 
Q 37.796875 48.390625 30.609375 48.390625 
z
M 30.609375 56 
Q 42.328125 56 49.015625 48.375 
Q 55.71875 40.765625 55.71875 27.296875 
Q 55.71875 13.875 49.015625 6.21875 
Q 42.328125 -1.421875 30.609375 -1.421875 
Q 18.84375 -1.421875 12.171875 6.21875 
Q 5.515625 13.875 5.515625 27.296875 
Q 5.515625 40.765625 12.171875 48.375 
Q 18.84375 56 30.609375 56 
z
" id="DejaVuSans-111"/>
      <path d="M 37.109375 75.984375 
L 37.109375 68.5 
L 28.515625 68.5 
Q 23.6875 68.5 21.796875 66.546875 
Q 19.921875 64.59375 19.921875 59.515625 
L 19.921875 54.6875 
L 34.71875 54.6875 
L 34.71875 47.703125 
L 19.921875 47.703125 
L 19.921875 0 
L 10.890625 0 
L 10.890625 47.703125 
L 2.296875 47.703125 
L 2.296875 54.6875 
L 10.890625 54.6875 
L 10.890625 58.5 
Q 10.890625 67.625 15.140625 71.796875 
Q 19.390625 75.984375 28.609375 75.984375 
z
" id="DejaVuSans-102"/>
      <path d="M 19.671875 64.796875 
L 19.671875 37.40625 
L 32.078125 37.40625 
Q 38.96875 37.40625 42.71875 40.96875 
Q 46.484375 44.53125 46.484375 51.125 
Q 46.484375 57.671875 42.71875 61.234375 
Q 38.96875 64.796875 32.078125 64.796875 
z
M 9.8125 72.90625 
L 32.078125 72.90625 
Q 44.34375 72.90625 50.609375 67.359375 
Q 56.890625 61.8125 56.890625 51.125 
Q 56.890625 40.328125 50.609375 34.8125 
Q 44.34375 29.296875 32.078125 29.296875 
L 19.671875 29.296875 
L 19.671875 0 
L 9.8125 0 
z
" id="DejaVuSans-80"/>
      <path d="M 8.5 21.578125 
L 8.5 54.6875 
L 17.484375 54.6875 
L 17.484375 21.921875 
Q 17.484375 14.15625 20.5 10.265625 
Q 23.53125 6.390625 29.59375 6.390625 
Q 36.859375 6.390625 41.078125 11.03125 
Q 45.3125 15.671875 45.3125 23.6875 
L 45.3125 54.6875 
L 54.296875 54.6875 
L 54.296875 0 
L 45.3125 0 
L 45.3125 8.40625 
Q 42.046875 3.421875 37.71875 1 
Q 33.40625 -1.421875 27.6875 -1.421875 
Q 18.265625 -1.421875 13.375 4.4375 
Q 8.5 10.296875 8.5 21.578125 
z
M 31.109375 56 
z
" id="DejaVuSans-117"/>
      <path d="M 44.28125 53.078125 
L 44.28125 44.578125 
Q 40.484375 46.53125 36.375 47.5 
Q 32.28125 48.484375 27.875 48.484375 
Q 21.1875 48.484375 17.84375 46.4375 
Q 14.5 44.390625 14.5 40.28125 
Q 14.5 37.15625 16.890625 35.375 
Q 19.28125 33.59375 26.515625 31.984375 
L 29.59375 31.296875 
Q 39.15625 29.25 43.1875 25.515625 
Q 47.21875 21.78125 47.21875 15.09375 
Q 47.21875 7.46875 41.1875 3.015625 
Q 35.15625 -1.421875 24.609375 -1.421875 
Q 20.21875 -1.421875 15.453125 -0.5625 
Q 10.6875 0.296875 5.421875 2 
L 5.421875 11.28125 
Q 10.40625 8.6875 15.234375 7.390625 
Q 20.0625 6.109375 24.8125 6.109375 
Q 31.15625 6.109375 34.5625 8.28125 
Q 37.984375 10.453125 37.984375 14.40625 
Q 37.984375 18.0625 35.515625 20.015625 
Q 33.0625 21.96875 24.703125 23.78125 
L 21.578125 24.515625 
Q 13.234375 26.265625 9.515625 29.90625 
Q 5.8125 33.546875 5.8125 39.890625 
Q 5.8125 47.609375 11.28125 51.796875 
Q 16.75 56 26.8125 56 
Q 31.78125 56 36.171875 55.265625 
Q 40.578125 54.546875 44.28125 53.078125 
z
" id="DejaVuSans-115"/>
      <path d="M -0.296875 72.90625 
L 61.375 72.90625 
L 61.375 64.59375 
L 35.5 64.59375 
L 35.5 0 
L 25.59375 0 
L 25.59375 64.59375 
L -0.296875 64.59375 
z
" id="DejaVuSans-84"/>
     </defs>
     <g transform="translate(91.80025 280.3715)scale(0.16 -0.16)">
      <use xlink:href="#DejaVuSans-82"/>
      <use x="69.419922" xlink:href="#DejaVuSans-101"/>
      <use x="130.943359" xlink:href="#DejaVuSans-108"/>
      <use x="158.726562" xlink:href="#DejaVuSans-97"/>
      <use x="220.005859" xlink:href="#DejaVuSans-116"/>
      <use x="259.214844" xlink:href="#DejaVuSans-105"/>
      <use x="286.998047" xlink:href="#DejaVuSans-118"/>
      <use x="346.177734" xlink:href="#DejaVuSans-101"/>
      <use x="407.701172" xlink:href="#DejaVuSans-32"/>
      <use x="439.488281" xlink:href="#DejaVuSans-79"/>
      <use x="518.199219" xlink:href="#DejaVuSans-114"/>
      <use x="559.3125" xlink:href="#DejaVuSans-105"/>
      <use x="587.095703" xlink:href="#DejaVuSans-101"/>
      <use x="648.619141" xlink:href="#DejaVuSans-110"/>
      <use x="711.998047" xlink:href="#DejaVuSans-116"/>
      <use x="751.207031" xlink:href="#DejaVuSans-97"/>
      <use x="812.486328" xlink:href="#DejaVuSans-116"/>
      <use x="851.695312" xlink:href="#DejaVuSans-105"/>
      <use x="879.478516" xlink:href="#DejaVuSans-111"/>
      <use x="940.660156" xlink:href="#DejaVuSans-110"/>
      <use x="1004.039062" xlink:href="#DejaVuSans-32"/>
      <use x="1035.826172" xlink:href="#DejaVuSans-111"/>
      <use x="1097.007812" xlink:href="#DejaVuSans-102"/>
      <use x="1132.212891" xlink:href="#DejaVuSans-32"/>
      <use x="1164" xlink:href="#DejaVuSans-80"/>
      <use x="1224.287109" xlink:href="#DejaVuSans-114"/>
      <use x="1265.369141" xlink:href="#DejaVuSans-101"/>
      <use x="1326.892578" xlink:href="#DejaVuSans-118"/>
      <use x="1386.072266" xlink:href="#DejaVuSans-105"/>
      <use x="1413.855469" xlink:href="#DejaVuSans-111"/>
      <use x="1475.037109" xlink:href="#DejaVuSans-117"/>
      <use x="1538.416016" xlink:href="#DejaVuSans-115"/>
      <use x="1590.515625" xlink:href="#DejaVuSans-32"/>
      <use x="1622.302734" xlink:href="#DejaVuSans-84"/>
      <use x="1683.167969" xlink:href="#DejaVuSans-114"/>
      <use x="1724.28125" xlink:href="#DejaVuSans-105"/>
      <use x="1752.064453" xlink:href="#DejaVuSans-97"/>
      <use x="1813.34375" xlink:href="#DejaVuSans-108"/>
     </g>
    </g>
   </g>
   <g id="matplotlib.axis_2">
    <g id="ytick_1">
     <g id="line2d_8">
      <defs>
       <path d="M 0 0 
L 6 0 
" id="m7255f5fc06" style="stroke:#000000;stroke-width:2;"/>
      </defs>
      <g>
       <use style="stroke:#000000;stroke-width:2;" x="71.689" xlink:href="#m7255f5fc06" y="245.229"/>
      </g>
     </g>
     <g id="text_9">
      <!-- −3 -->
      <defs>
       <path d="M 10.59375 35.5 
L 73.1875 35.5 
L 73.1875 27.203125 
L 10.59375 27.203125 
z
" id="DejaVuSans-8722"/>
       <path d="M 40.578125 39.3125 
Q 47.65625 37.796875 51.625 33 
Q 55.609375 28.21875 55.609375 21.1875 
Q 55.609375 10.40625 48.1875 4.484375 
Q 40.765625 -1.421875 27.09375 -1.421875 
Q 22.515625 -1.421875 17.65625 -0.515625 
Q 12.796875 0.390625 7.625 2.203125 
L 7.625 11.71875 
Q 11.71875 9.328125 16.59375 8.109375 
Q 21.484375 6.890625 26.8125 6.890625 
Q 36.078125 6.890625 40.9375 10.546875 
Q 45.796875 14.203125 45.796875 21.1875 
Q 45.796875 27.640625 41.28125 31.265625 
Q 36.765625 34.90625 28.71875 34.90625 
L 20.21875 34.90625 
L 20.21875 43.015625 
L 29.109375 43.015625 
Q 36.375 43.015625 40.234375 45.921875 
Q 44.09375 48.828125 44.09375 54.296875 
Q 44.09375 59.90625 40.109375 62.90625 
Q 36.140625 65.921875 28.71875 65.921875 
Q 24.65625 65.921875 20.015625 65.03125 
Q 15.375 64.15625 9.8125 62.3125 
L 9.8125 71.09375 
Q 15.4375 72.65625 20.34375 73.4375 
Q 25.25 74.21875 29.59375 74.21875 
Q 40.828125 74.21875 47.359375 69.109375 
Q 53.90625 64.015625 53.90625 55.328125 
Q 53.90625 49.265625 50.4375 45.09375 
Q 46.96875 40.921875 40.578125 39.3125 
z
" id="DejaVuSans-51"/>
      </defs>
      <g transform="translate(44.6015 251.30775)scale(0.16 -0.16)">
       <use xlink:href="#DejaVuSans-8722"/>
       <use x="83.789062" xlink:href="#DejaVuSans-51"/>
      </g>
     </g>
    </g>
    <g id="ytick_2">
     <g id="line2d_9">
      <g>
       <use style="stroke:#000000;stroke-width:2;" x="71.689" xlink:href="#m7255f5fc06" y="208.989"/>
      </g>
     </g>
     <g id="text_10">
      <!-- −2 -->
      <g transform="translate(44.6015 215.06775)scale(0.16 -0.16)">
       <use xlink:href="#DejaVuSans-8722"/>
       <use x="83.789062" xlink:href="#DejaVuSans-50"/>
      </g>
     </g>
    </g>
    <g id="ytick_3">
     <g id="line2d_10">
      <g>
       <use style="stroke:#000000;stroke-width:2;" x="71.689" xlink:href="#m7255f5fc06" y="172.749"/>
      </g>
     </g>
     <g id="text_11">
      <!-- −1 -->
      <defs>
       <path d="M 12.40625 8.296875 
L 28.515625 8.296875 
L 28.515625 63.921875 
L 10.984375 60.40625 
L 10.984375 69.390625 
L 28.421875 72.90625 
L 38.28125 72.90625 
L 38.28125 8.296875 
L 54.390625 8.296875 
L 54.390625 0 
L 12.40625 0 
z
" id="DejaVuSans-49"/>
      </defs>
      <g transform="translate(44.6015 178.82775)scale(0.16 -0.16)">
       <use xlink:href="#DejaVuSans-8722"/>
       <use x="83.789062" xlink:href="#DejaVuSans-49"/>
      </g>
     </g>
    </g>
    <g id="ytick_4">
     <g id="line2d_11">
      <g>
       <use style="stroke:#000000;stroke-width:2;" x="71.689" xlink:href="#m7255f5fc06" y="136.509"/>
      </g>
     </g>
     <g id="text_12">
      <!-- 0 -->
      <g transform="translate(58.009 142.58775)scale(0.16 -0.16)">
       <use xlink:href="#DejaVuSans-48"/>
      </g>
     </g>
    </g>
    <g id="ytick_5">
     <g id="line2d_12">
      <g>
       <use style="stroke:#000000;stroke-width:2;" x="71.689" xlink:href="#m7255f5fc06" y="100.269"/>
      </g>
     </g>
     <g id="text_13">
      <!-- 1 -->
      <g transform="translate(58.009 106.34775)scale(0.16 -0.16)">
       <use xlink:href="#DejaVuSans-49"/>
      </g>
     </g>
    </g>
    <g id="ytick_6">
     <g id="line2d_13">
      <g>
       <use style="stroke:#000000;stroke-width:2;" x="71.689" xlink:href="#m7255f5fc06" y="64.029"/>
      </g>
     </g>
     <g id="text_14">
      <!-- 2 -->
      <g transform="translate(58.009 70.10775)scale(0.16 -0.16)">
       <use xlink:href="#DejaVuSans-50"/>
      </g>
     </g>
    </g>
    <g id="ytick_7">
     <g id="line2d_14">
      <g>
       <use style="stroke:#000000;stroke-width:2;" x="71.689" xlink:href="#m7255f5fc06" y="27.789"/>
      </g>
     </g>
     <g id="text_15">
      <!-- 3 -->
      <g transform="translate(58.009 33.86775)scale(0.16 -0.16)">
       <use xlink:href="#DejaVuSans-51"/>
      </g>
     </g>
    </g>
    <g id="text_16">
     <!-- Running Mean  -->
     <defs>
      <path d="M 45.40625 27.984375 
Q 45.40625 37.75 41.375 43.109375 
Q 37.359375 48.484375 30.078125 48.484375 
Q 22.859375 48.484375 18.828125 43.109375 
Q 14.796875 37.75 14.796875 27.984375 
Q 14.796875 18.265625 18.828125 12.890625 
Q 22.859375 7.515625 30.078125 7.515625 
Q 37.359375 7.515625 41.375 12.890625 
Q 45.40625 18.265625 45.40625 27.984375 
z
M 54.390625 6.78125 
Q 54.390625 -7.171875 48.1875 -13.984375 
Q 42 -20.796875 29.203125 -20.796875 
Q 24.46875 -20.796875 20.265625 -20.09375 
Q 16.0625 -19.390625 12.109375 -17.921875 
L 12.109375 -9.1875 
Q 16.0625 -11.328125 19.921875 -12.34375 
Q 23.78125 -13.375 27.78125 -13.375 
Q 36.625 -13.375 41.015625 -8.765625 
Q 45.40625 -4.15625 45.40625 5.171875 
L 45.40625 9.625 
Q 42.625 4.78125 38.28125 2.390625 
Q 33.9375 0 27.875 0 
Q 17.828125 0 11.671875 7.65625 
Q 5.515625 15.328125 5.515625 27.984375 
Q 5.515625 40.671875 11.671875 48.328125 
Q 17.828125 56 27.875 56 
Q 33.9375 56 38.28125 53.609375 
Q 42.625 51.21875 45.40625 46.390625 
L 45.40625 54.6875 
L 54.390625 54.6875 
z
" id="DejaVuSans-103"/>
      <path d="M 9.8125 72.90625 
L 24.515625 72.90625 
L 43.109375 23.296875 
L 61.8125 72.90625 
L 76.515625 72.90625 
L 76.515625 0 
L 66.890625 0 
L 66.890625 64.015625 
L 48.09375 14.015625 
L 38.1875 14.015625 
L 19.390625 64.015625 
L 19.390625 0 
L 9.8125 0 
z
" id="DejaVuSans-77"/>
     </defs>
     <g transform="translate(19.3575 196.5265)rotate(-90)scale(0.16 -0.16)">
      <use xlink:href="#DejaVuSans-82"/>
      <use x="69.419922" xlink:href="#DejaVuSans-117"/>
      <use x="132.798828" xlink:href="#DejaVuSans-110"/>
      <use x="196.177734" xlink:href="#DejaVuSans-110"/>
      <use x="259.556641" xlink:href="#DejaVuSans-105"/>
      <use x="287.339844" xlink:href="#DejaVuSans-110"/>
      <use x="350.71875" xlink:href="#DejaVuSans-103"/>
      <use x="414.195312" xlink:href="#DejaVuSans-32"/>
      <use x="445.982422" xlink:href="#DejaVuSans-77"/>
      <use x="532.261719" xlink:href="#DejaVuSans-101"/>
      <use x="593.785156" xlink:href="#DejaVuSans-97"/>
      <use x="655.064453" xlink:href="#DejaVuSans-110"/>
      <use x="718.443359" xlink:href="#DejaVuSans-32"/>
     </g>
     <!--  of Response Error -->
     <defs>
      <path d="M 18.109375 8.203125 
L 18.109375 -20.796875 
L 9.078125 -20.796875 
L 9.078125 54.6875 
L 18.109375 54.6875 
L 18.109375 46.390625 
Q 20.953125 51.265625 25.265625 53.625 
Q 29.59375 56 35.59375 56 
Q 45.5625 56 51.78125 48.09375 
Q 58.015625 40.1875 58.015625 27.296875 
Q 58.015625 14.40625 51.78125 6.484375 
Q 45.5625 -1.421875 35.59375 -1.421875 
Q 29.59375 -1.421875 25.265625 0.953125 
Q 20.953125 3.328125 18.109375 8.203125 
z
M 48.6875 27.296875 
Q 48.6875 37.203125 44.609375 42.84375 
Q 40.53125 48.484375 33.40625 48.484375 
Q 26.265625 48.484375 22.1875 42.84375 
Q 18.109375 37.203125 18.109375 27.296875 
Q 18.109375 17.390625 22.1875 11.75 
Q 26.265625 6.109375 33.40625 6.109375 
Q 40.53125 6.109375 44.609375 11.75 
Q 48.6875 17.390625 48.6875 27.296875 
z
" id="DejaVuSans-112"/>
      <path d="M 9.8125 72.90625 
L 55.90625 72.90625 
L 55.90625 64.59375 
L 19.671875 64.59375 
L 19.671875 43.015625 
L 54.390625 43.015625 
L 54.390625 34.71875 
L 19.671875 34.71875 
L 19.671875 8.296875 
L 56.78125 8.296875 
L 56.78125 0 
L 9.8125 0 
z
" id="DejaVuSans-69"/>
     </defs>
     <g transform="translate(37.274 210.43775)rotate(-90)scale(0.16 -0.16)">
      <use xlink:href="#DejaVuSans-32"/>
      <use x="31.787109" xlink:href="#DejaVuSans-111"/>
      <use x="92.96875" xlink:href="#DejaVuSans-102"/>
      <use x="128.173828" xlink:href="#DejaVuSans-32"/>
      <use x="159.960938" xlink:href="#DejaVuSans-82"/>
      <use x="229.380859" xlink:href="#DejaVuSans-101"/>
      <use x="290.904297" xlink:href="#DejaVuSans-115"/>
      <use x="343.003906" xlink:href="#DejaVuSans-112"/>
      <use x="406.480469" xlink:href="#DejaVuSans-111"/>
      <use x="467.662109" xlink:href="#DejaVuSans-110"/>
      <use x="531.041016" xlink:href="#DejaVuSans-115"/>
      <use x="583.140625" xlink:href="#DejaVuSans-101"/>
      <use x="644.664062" xlink:href="#DejaVuSans-32"/>
      <use x="676.451172" xlink:href="#DejaVuSans-69"/>
      <use x="739.634766" xlink:href="#DejaVuSans-114"/>
      <use x="780.732422" xlink:href="#DejaVuSans-114"/>
      <use x="821.814453" xlink:href="#DejaVuSans-111"/>
      <use x="882.996094" xlink:href="#DejaVuSans-114"/>
     </g>
    </g>
   </g>
   <g id="line2d_15">
    <path clip-path="url(#pd45a9ea312)" d="M 86.907182 151.013244 
L 88.991864 155.326512 
L 91.076547 150.717545 
L 93.161229 148.730772 
L 95.245912 143.443469 
L 97.330594 137.725972 
L 99.415276 136.73101 
L 101.499959 131.116349 
L 103.584641 125.025936 
L 105.669324 125.025296 
L 107.754006 133.694804 
L 109.838689 128.213294 
L 111.923371 133.136918 
L 114.008054 129.914458 
L 116.092736 131.567042 
L 118.177418 128.722915 
L 120.262101 136.085118 
L 122.346783 138.311124 
L 124.431466 134.083956 
L 126.516148 137.611071 
L 128.600831 140.29373 
L 130.685513 139.522135 
L 132.770196 141.361776 
L 134.854878 142.634679 
L 136.93956 140.565746 
L 139.024243 134.002319 
L 141.108925 137.609774 
L 143.193608 133.817931 
L 145.27829 132.006204 
L 147.362973 124.761597 
L 149.447655 126.004545 
L 151.532337 134.127972 
L 153.61702 136.058082 
L 155.701702 138.552679 
L 157.786385 141.26035 
L 159.871067 136.965696 
L 161.95575 140.566715 
L 164.040432 136.793877 
L 166.125115 143.802177 
L 168.209797 144.677607 
L 170.294479 149.681078 
L 172.379162 148.43843 
L 174.463844 153.566831 
L 176.548527 146.23763 
L 178.633209 144.968052 
L 180.717892 147.518224 
L 182.802574 147.251569 
L 184.887257 151.43017 
L 186.971939 147.99951 
L 189.056621 150.39004 
L 191.141304 146.221131 
L 193.225986 138.336066 
L 195.310669 141.743206 
L 197.395351 133.039381 
L 199.480034 144.364532 
L 201.564716 148.432241 
L 203.649399 157.494448 
L 205.734081 152.967655 
L 207.818763 153.59651 
L 209.903446 150.064169 
L 211.988128 145.664514 
L 214.072811 148.82957 
L 216.157493 151.398352 
L 218.242176 145.802158 
L 220.326858 154.371918 
L 222.41154 149.515787 
L 224.496223 150.914998 
L 226.580905 148.410973 
L 228.665588 149.10604 
L 230.75027 143.18863 
L 232.834953 141.376184 
L 234.919635 138.962689 
L 237.004318 133.029081 
L 239.089 124.114603 
L 241.173682 129.034068 
L 243.258365 128.389636 
L 245.343047 123.443469 
L 247.42773 126.642081 
L 249.512412 117.92752 
L 251.597095 121.15669 
L 253.681777 126.54399 
L 255.76646 122.847541 
L 257.851142 128.499924 
L 259.935824 123.396766 
L 262.020507 131.175445 
L 268.274554 115.30266 
L 270.359237 120.725751 
L 272.443919 120.91049 
L 274.528601 124.059006 
L 276.613284 119.780678 
L 278.697966 117.777051 
L 280.782649 121.550162 
L 282.867331 123.418705 
L 284.952014 123.305297 
L 287.036696 121.994713 
L 289.121379 121.515809 
L 291.206061 119.99399 
L 295.375426 122.834986 
L 297.460108 128.766587 
L 299.544791 116.584193 
L 301.629473 125.952925 
L 303.714156 126.116501 
L 305.798838 122.952008 
L 307.883521 128.716537 
L 309.968203 123.333021 
L 312.052885 128.17231 
L 314.137568 126.51283 
L 316.22225 128.725806 
L 318.306933 135.38921 
L 320.391615 136.426666 
L 322.476298 133.559877 
L 324.56098 125.176807 
L 326.645663 126.762417 
L 328.730345 124.269664 
L 330.815027 123.163323 
L 332.89971 125.528144 
L 334.984392 121.220541 
L 337.069075 126.716284 
L 339.153757 130.710112 
L 341.23844 138.027976 
L 343.323122 141.063942 
L 345.407804 140.746314 
L 347.492487 139.959049 
L 349.577169 129.578635 
L 351.661852 136.995483 
L 353.746534 138.790541 
L 355.831217 140.870426 
L 357.915899 143.551182 
L 360.000582 143.15452 
L 362.085264 134.415273 
L 364.169946 144.500313 
L 366.254629 142.306721 
L 370.423994 151.798007 
L 372.508676 152.162264 
L 374.593359 153.825918 
L 376.678041 151.153153 
L 378.762724 159.0244 
L 380.847406 154.120212 
L 382.932088 144.214357 
L 385.016771 150.149702 
L 387.101453 147.249538 
L 389.186136 163.425376 
L 391.270818 151.013244 
L 391.270818 151.013244 
" style="fill:none;stroke:#00008b;stroke-linecap:square;stroke-width:1.5;"/>
   </g>
   <g id="patch_3">
    <path d="M 71.689 245.229 
L 71.689 27.789 
" style="fill:none;stroke:#000000;stroke-linecap:square;stroke-linejoin:miter;stroke-width:2;"/>
   </g>
   <g id="patch_4">
    <path d="M 71.689 245.229 
L 406.489 245.229 
" style="fill:none;stroke:#000000;stroke-linecap:square;stroke-linejoin:miter;stroke-width:2;"/>
   </g>
   <g id="text_17">
    <!-- Trials-Forward Radiologists -->
    <defs>
     <path d="M 9.8125 72.90625 
L 51.703125 72.90625 
L 51.703125 64.59375 
L 19.671875 64.59375 
L 19.671875 43.109375 
L 48.578125 43.109375 
L 48.578125 34.8125 
L 19.671875 34.8125 
L 19.671875 0 
L 9.8125 0 
z
" id="DejaVuSans-70"/>
     <path d="M 4.203125 54.6875 
L 13.1875 54.6875 
L 24.421875 12.015625 
L 35.59375 54.6875 
L 46.1875 54.6875 
L 57.421875 12.015625 
L 68.609375 54.6875 
L 77.59375 54.6875 
L 63.28125 0 
L 52.6875 0 
L 40.921875 44.828125 
L 29.109375 0 
L 18.5 0 
z
" id="DejaVuSans-119"/>
     <path d="M 45.40625 46.390625 
L 45.40625 75.984375 
L 54.390625 75.984375 
L 54.390625 0 
L 45.40625 0 
L 45.40625 8.203125 
Q 42.578125 3.328125 38.25 0.953125 
Q 33.9375 -1.421875 27.875 -1.421875 
Q 17.96875 -1.421875 11.734375 6.484375 
Q 5.515625 14.40625 5.515625 27.296875 
Q 5.515625 40.1875 11.734375 48.09375 
Q 17.96875 56 27.875 56 
Q 33.9375 56 38.25 53.625 
Q 42.578125 51.265625 45.40625 46.390625 
z
M 14.796875 27.296875 
Q 14.796875 17.390625 18.875 11.75 
Q 22.953125 6.109375 30.078125 6.109375 
Q 37.203125 6.109375 41.296875 11.75 
Q 45.40625 17.390625 45.40625 27.296875 
Q 45.40625 37.203125 41.296875 42.84375 
Q 37.203125 48.484375 30.078125 48.484375 
Q 22.953125 48.484375 18.875 42.84375 
Q 14.796875 37.203125 14.796875 27.296875 
z
" id="DejaVuSans-100"/>
    </defs>
    <g transform="translate(109.2025 21.789)scale(0.192 -0.192)">
     <use xlink:href="#DejaVuSans-84"/>
     <use x="60.865234" xlink:href="#DejaVuSans-114"/>
     <use x="101.978516" xlink:href="#DejaVuSans-105"/>
     <use x="129.761719" xlink:href="#DejaVuSans-97"/>
     <use x="191.041016" xlink:href="#DejaVuSans-108"/>
     <use x="218.824219" xlink:href="#DejaVuSans-115"/>
     <use x="270.923828" xlink:href="#DejaVuSans-45"/>
     <use x="307.007812" xlink:href="#DejaVuSans-70"/>
     <use x="364.480469" xlink:href="#DejaVuSans-111"/>
     <use x="425.662109" xlink:href="#DejaVuSans-114"/>
     <use x="466.775391" xlink:href="#DejaVuSans-119"/>
     <use x="548.5625" xlink:href="#DejaVuSans-97"/>
     <use x="609.841797" xlink:href="#DejaVuSans-114"/>
     <use x="650.939453" xlink:href="#DejaVuSans-100"/>
     <use x="714.416016" xlink:href="#DejaVuSans-32"/>
     <use x="746.203125" xlink:href="#DejaVuSans-82"/>
     <use x="815.654297" xlink:href="#DejaVuSans-97"/>
     <use x="876.933594" xlink:href="#DejaVuSans-100"/>
     <use x="940.410156" xlink:href="#DejaVuSans-105"/>
     <use x="968.193359" xlink:href="#DejaVuSans-111"/>
     <use x="1029.375" xlink:href="#DejaVuSans-108"/>
     <use x="1057.158203" xlink:href="#DejaVuSans-111"/>
     <use x="1118.339844" xlink:href="#DejaVuSans-103"/>
     <use x="1181.816406" xlink:href="#DejaVuSans-105"/>
     <use x="1209.599609" xlink:href="#DejaVuSans-115"/>
     <use x="1261.699219" xlink:href="#DejaVuSans-116"/>
     <use x="1300.908203" xlink:href="#DejaVuSans-115"/>
    </g>
   </g>
  </g>
 </g>
 <defs>
  <clipPath id="pd45a9ea312">
   <rect height="217.44" width="334.8" x="71.689" y="27.789"/>
  </clipPath>
 </defs>
</svg>
