<?xml version="1.0" encoding="utf-8" standalone="no"?>
<!DOCTYPE svg PUBLIC "-//W3C//DTD SVG 1.1//EN"
  "http://www.w3.org/Graphics/SVG/1.1/DTD/svg11.dtd">
<!-- Created with matplotlib (https://matplotlib.org/) -->
<svg height="363.1755pt" version="1.1" viewBox="0 0 368.069 363.1755" width="368.069pt" xmlns="http://www.w3.org/2000/svg" xmlns:xlink="http://www.w3.org/1999/xlink">
 <defs>
  <style type="text/css">
*{stroke-linecap:butt;stroke-linejoin:round;}
  </style>
 </defs>
 <g id="figure_1">
  <g id="patch_1">
   <path d="M 0 363.1755 
L 368.069 363.1755 
L 368.069 0 
L 0 0 
z
" style="fill:#ffffff;"/>
  </g>
  <g id="axes_1">
   <g id="patch_2">
    <path d="M 71.689 299.589 
L 350.689 299.589 
L 350.689 27.789 
L 71.689 27.789 
z
" style="fill:#ffffff;"/>
   </g>
   <g id="PolyCollection_1">
    <defs>
     <path d="M 71.689 -201.670699 
L 71.689 -227.72774 
L 73.599959 -234.906467 
L 75.510918 -233.805114 
L 77.421877 -228.714139 
L 79.332836 -212.171099 
L 81.243795 -208.023873 
L 83.154753 -210.152143 
L 85.065712 -207.777148 
L 86.976671 -214.809333 
L 88.88763 -207.849025 
L 90.798589 -206.576381 
L 92.709548 -217.902069 
L 94.620507 -214.21733 
L 96.531466 -216.586911 
L 98.442425 -217.509819 
L 100.353384 -230.331783 
L 102.264342 -210.617363 
L 104.175301 -227.490018 
L 106.08626 -231.82935 
L 107.997219 -225.672255 
L 109.908178 -239.034488 
L 111.819137 -230.808208 
L 113.730096 -226.541767 
L 115.641055 -211.182172 
L 117.552014 -207.178143 
L 119.462973 -197.659352 
L 121.373932 -179.899089 
L 123.28489 -177.980845 
L 125.195849 -166.356641 
L 127.106808 -174.367376 
L 129.017767 -171.710255 
L 130.928726 -165.690672 
L 132.839685 -153.680275 
L 134.750644 -143.726599 
L 136.661603 -149.427213 
L 138.572562 -143.564342 
L 140.483521 -137.214574 
L 142.394479 -130.266377 
L 144.305438 -135.610005 
L 146.216397 -132.919893 
L 148.127356 -121.624727 
L 150.038315 -124.927921 
L 151.949274 -134.75746 
L 153.860233 -122.191544 
L 155.771192 -118.645856 
L 157.682151 -114.869335 
L 159.59311 -109.892403 
L 161.504068 -104.33683 
L 163.415027 -114.990537 
L 165.325986 -105.131433 
L 167.236945 -117.046383 
L 169.147904 -114.663554 
L 171.058863 -116.745 
L 172.969822 -120.844766 
L 174.880781 -129.097045 
L 176.79174 -134.266532 
L 178.702699 -129.843899 
L 180.613658 -134.655627 
L 182.524616 -145.06036 
L 184.435575 -140.160578 
L 186.346534 -151.059169 
L 188.257493 -149.030429 
L 190.168452 -159.905907 
L 192.079411 -164.47662 
L 193.99037 -169.634465 
L 195.901329 -178.535767 
L 197.812288 -193.041182 
L 199.723247 -180.164556 
L 201.634205 -182.421069 
L 203.545164 -199.57427 
L 205.456123 -209.097103 
L 207.367082 -221.310158 
L 209.278041 -237.925454 
L 211.189 -229.14765 
L 213.099959 -232.373257 
L 215.010918 -245.873974 
L 216.921877 -266.212578 
L 218.832836 -262.246076 
L 220.743795 -273.239974 
L 222.654753 -268.818441 
L 224.565712 -282.347844 
L 226.476671 -296.945124 
L 228.38763 -305.681033 
L 230.298589 -290.802927 
L 232.209548 -311.571855 
L 234.120507 -306.198401 
L 236.031466 -303.224048 
L 237.942425 -303.403509 
L 239.853384 -295.143124 
L 241.764342 -290.540209 
L 243.675301 -293.194566 
L 245.58626 -288.857887 
L 247.497219 -284.366085 
L 249.408178 -293.708466 
L 251.319137 -284.53617 
L 253.230096 -286.892926 
L 255.141055 -276.470961 
L 257.052014 -274.250191 
L 258.962973 -280.727898 
L 260.873932 -286.298213 
L 262.78489 -276.166783 
L 264.695849 -276.385442 
L 266.606808 -287.600035 
L 268.517767 -277.359135 
L 270.428726 -281.795907 
L 272.339685 -288.457632 
L 274.250644 -303.340293 
L 276.161603 -294.529571 
L 278.072562 -315.28557 
L 279.983521 -306.939325 
L 281.894479 -309.971532 
L 283.805438 -307.148333 
L 285.716397 -309.327021 
L 287.627356 -306.612031 
L 289.538315 -311.985863 
L 291.449274 -304.434722 
L 293.360233 -305.021125 
L 295.271192 -302.058082 
L 297.182151 -295.177338 
L 299.09311 -303.381695 
L 301.004068 -295.638642 
L 302.915027 -292.216225 
L 304.825986 -286.782244 
L 306.736945 -277.08061 
L 308.647904 -276.445855 
L 310.558863 -272.63255 
L 312.469822 -269.728606 
L 314.380781 -268.331264 
L 316.29174 -269.804399 
L 318.202699 -261.587236 
L 320.113658 -252.588101 
L 322.024616 -233.634836 
L 323.935575 -237.089295 
L 325.846534 -215.177655 
L 327.757493 -213.951049 
L 329.668452 -206.587587 
L 331.579411 -204.584356 
L 333.49037 -198.315818 
L 335.401329 -217.530669 
L 337.312288 -206.084408 
L 339.223247 -210.565547 
L 341.134205 -210.014837 
L 343.045164 -207.028596 
L 344.956123 -223.156339 
L 346.867082 -226.926147 
L 348.778041 -217.966746 
L 350.689 -227.72774 
L 350.689 -201.670699 
L 350.689 -201.670699 
L 348.778041 -184.313895 
L 346.867082 -179.196878 
L 344.956123 -177.585523 
L 343.045164 -165.811903 
L 341.134205 -166.45297 
L 339.223247 -162.638038 
L 337.312288 -148.71175 
L 335.401329 -168.613368 
L 333.49037 -152.292333 
L 331.579411 -165.310094 
L 329.668452 -163.28575 
L 327.757493 -173.164637 
L 325.846534 -180.01011 
L 323.935575 -193.098883 
L 322.024616 -193.163785 
L 320.113658 -207.855004 
L 318.202699 -215.803483 
L 316.29174 -217.714997 
L 314.380781 -214.310102 
L 312.469822 -216.819406 
L 310.558863 -211.586038 
L 308.647904 -212.755174 
L 306.736945 -220.417764 
L 304.825986 -226.40587 
L 302.915027 -233.592885 
L 301.004068 -231.839841 
L 299.09311 -235.246836 
L 297.182151 -234.917345 
L 295.271192 -249.730595 
L 293.360233 -245.681227 
L 291.449274 -246.524806 
L 289.538315 -261.748189 
L 287.627356 -253.637181 
L 285.716397 -258.828105 
L 283.805438 -260.60397 
L 281.894479 -266.945217 
L 279.983521 -252.268499 
L 278.072562 -268.994209 
L 276.161603 -259.160941 
L 274.250644 -264.612778 
L 272.339685 -254.699679 
L 270.428726 -253.814487 
L 268.517767 -250.284748 
L 266.606808 -264.705941 
L 264.695849 -252.1168 
L 262.78489 -255.173939 
L 260.873932 -257.017215 
L 258.962973 -251.255744 
L 257.052014 -251.409122 
L 255.141055 -259.029328 
L 253.230096 -265.506063 
L 251.319137 -266.00461 
L 249.408178 -275.237663 
L 247.497219 -261.994574 
L 245.58626 -264.707024 
L 243.675301 -270.821015 
L 241.764342 -264.708753 
L 239.853384 -269.332831 
L 237.942425 -272.521049 
L 236.031466 -267.874819 
L 234.120507 -263.113258 
L 232.209548 -266.243583 
L 230.298589 -251.806958 
L 228.38763 -259.17581 
L 226.476671 -248.857485 
L 224.565712 -231.256489 
L 222.654753 -214.283975 
L 220.743795 -216.103545 
L 218.832836 -206.769033 
L 216.921877 -207.351875 
L 215.010918 -188.623273 
L 213.099959 -181.054783 
L 211.189 -180.605365 
L 209.278041 -182.260477 
L 207.367082 -164.755272 
L 205.456123 -141.825522 
L 203.545164 -134.001223 
L 201.634205 -128.288808 
L 199.723247 -130.593403 
L 197.812288 -139.645722 
L 195.901329 -129.465272 
L 193.99037 -120.38636 
L 192.079411 -118.960885 
L 190.168452 -127.106521 
L 188.257493 -115.052152 
L 186.346534 -116.726731 
L 184.435575 -104.636865 
L 182.524616 -109.560353 
L 180.613658 -107.176604 
L 178.702699 -104.631575 
L 176.79174 -108.074718 
L 174.880781 -107.183877 
L 172.969822 -100.025492 
L 171.058863 -88.76139 
L 169.147904 -80.322985 
L 167.236945 -76.36482 
L 165.325986 -61.315472 
L 163.415027 -63.000572 
L 161.504068 -49.772888 
L 159.59311 -58.827815 
L 157.682151 -67.546499 
L 155.771192 -68.63674 
L 153.860233 -67.58285 
L 151.949274 -86.467104 
L 150.038315 -77.911946 
L 148.127356 -75.272918 
L 146.216397 -84.082232 
L 144.305438 -77.068895 
L 142.394479 -79.705434 
L 140.483521 -90.065888 
L 138.572562 -92.702036 
L 136.661603 -96.598606 
L 134.750644 -88.873286 
L 132.839685 -100.962659 
L 130.928726 -105.388138 
L 129.017767 -109.980572 
L 127.106808 -116.348492 
L 125.195849 -110.922829 
L 123.28489 -113.899269 
L 121.373932 -120.814656 
L 119.462973 -139.715084 
L 117.552014 -154.356691 
L 115.641055 -159.881924 
L 113.730096 -176.105508 
L 111.819137 -179.428662 
L 109.908178 -188.651965 
L 107.997219 -185.397911 
L 106.08626 -192.380675 
L 104.175301 -188.097075 
L 102.264342 -175.007131 
L 100.353384 -195.852489 
L 98.442425 -181.26579 
L 96.531466 -179.82652 
L 94.620507 -176.810757 
L 92.709548 -178.647031 
L 90.798589 -164.98528 
L 88.88763 -169.436393 
L 86.976671 -178.299167 
L 85.065712 -173.444479 
L 83.154753 -175.750803 
L 81.243795 -171.411864 
L 79.332836 -178.532785 
L 77.421877 -193.872061 
L 75.510918 -196.453323 
L 73.599959 -206.050732 
L 71.689 -201.670699 
z
" id="me38266cc0a" style="stroke:#1e90ff;stroke-opacity:0.2;"/>
    </defs>
    <g clip-path="url(#p2cf07f4578)">
     <use style="fill:#1e90ff;fill-opacity:0.2;stroke:#1e90ff;stroke-opacity:0.2;" x="0" xlink:href="#me38266cc0a" y="363.1755"/>
    </g>
   </g>
   <g id="matplotlib.axis_1">
    <g id="xtick_1">
     <g id="line2d_1">
      <defs>
       <path d="M 0 0 
L 0 -6 
" id="m23184259da" style="stroke:#000000;stroke-width:2;"/>
      </defs>
      <g>
       <use style="stroke:#000000;stroke-width:2;" x="71.689" xlink:href="#m23184259da" y="299.589"/>
      </g>
     </g>
     <g id="text_1">
      <!-- -73 -->
      <defs>
       <path d="M 4.890625 31.390625 
L 31.203125 31.390625 
L 31.203125 23.390625 
L 4.890625 23.390625 
z
" id="DejaVuSans-45"/>
       <path d="M 8.203125 72.90625 
L 55.078125 72.90625 
L 55.078125 68.703125 
L 28.609375 0 
L 18.3125 0 
L 43.21875 64.59375 
L 8.203125 64.59375 
z
" id="DejaVuSans-55"/>
       <path d="M 40.578125 39.3125 
Q 47.65625 37.796875 51.625 33 
Q 55.609375 28.21875 55.609375 21.1875 
Q 55.609375 10.40625 48.1875 4.484375 
Q 40.765625 -1.421875 27.09375 -1.421875 
Q 22.515625 -1.421875 17.65625 -0.515625 
Q 12.796875 0.390625 7.625 2.203125 
L 7.625 11.71875 
Q 11.71875 9.328125 16.59375 8.109375 
Q 21.484375 6.890625 26.8125 6.890625 
Q 36.078125 6.890625 40.9375 10.546875 
Q 45.796875 14.203125 45.796875 21.1875 
Q 45.796875 27.640625 41.28125 31.265625 
Q 36.765625 34.90625 28.71875 34.90625 
L 20.21875 34.90625 
L 20.21875 43.015625 
L 29.109375 43.015625 
Q 36.375 43.015625 40.234375 45.921875 
Q 44.09375 48.828125 44.09375 54.296875 
Q 44.09375 59.90625 40.109375 62.90625 
Q 36.140625 65.921875 28.71875 65.921875 
Q 24.65625 65.921875 20.015625 65.03125 
Q 15.375 64.15625 9.8125 62.3125 
L 9.8125 71.09375 
Q 15.4375 72.65625 20.34375 73.4375 
Q 25.25 74.21875 29.59375 74.21875 
Q 40.828125 74.21875 47.359375 69.109375 
Q 53.90625 64.015625 53.90625 55.328125 
Q 53.90625 49.265625 50.4375 45.09375 
Q 46.96875 40.921875 40.578125 39.3125 
z
" id="DejaVuSans-51"/>
      </defs>
      <g transform="translate(58.62275 315.2465)scale(0.16 -0.16)">
       <use xlink:href="#DejaVuSans-45"/>
       <use x="36.083984" xlink:href="#DejaVuSans-55"/>
       <use x="99.707031" xlink:href="#DejaVuSans-51"/>
      </g>
     </g>
    </g>
    <g id="xtick_2">
     <g id="line2d_2">
      <g>
       <use style="stroke:#000000;stroke-width:2;" x="115.641055" xlink:href="#m23184259da" y="299.589"/>
      </g>
     </g>
     <g id="text_2">
      <!-- -50 -->
      <defs>
       <path d="M 10.796875 72.90625 
L 49.515625 72.90625 
L 49.515625 64.59375 
L 19.828125 64.59375 
L 19.828125 46.734375 
Q 21.96875 47.46875 24.109375 47.828125 
Q 26.265625 48.1875 28.421875 48.1875 
Q 40.625 48.1875 47.75 41.5 
Q 54.890625 34.8125 54.890625 23.390625 
Q 54.890625 11.625 47.5625 5.09375 
Q 40.234375 -1.421875 26.90625 -1.421875 
Q 22.3125 -1.421875 17.546875 -0.640625 
Q 12.796875 0.140625 7.71875 1.703125 
L 7.71875 11.625 
Q 12.109375 9.234375 16.796875 8.0625 
Q 21.484375 6.890625 26.703125 6.890625 
Q 35.15625 6.890625 40.078125 11.328125 
Q 45.015625 15.765625 45.015625 23.390625 
Q 45.015625 31 40.078125 35.4375 
Q 35.15625 39.890625 26.703125 39.890625 
Q 22.75 39.890625 18.8125 39.015625 
Q 14.890625 38.140625 10.796875 36.28125 
z
" id="DejaVuSans-53"/>
       <path d="M 31.78125 66.40625 
Q 24.171875 66.40625 20.328125 58.90625 
Q 16.5 51.421875 16.5 36.375 
Q 16.5 21.390625 20.328125 13.890625 
Q 24.171875 6.390625 31.78125 6.390625 
Q 39.453125 6.390625 43.28125 13.890625 
Q 47.125 21.390625 47.125 36.375 
Q 47.125 51.421875 43.28125 58.90625 
Q 39.453125 66.40625 31.78125 66.40625 
z
M 31.78125 74.21875 
Q 44.046875 74.21875 50.515625 64.515625 
Q 56.984375 54.828125 56.984375 36.375 
Q 56.984375 17.96875 50.515625 8.265625 
Q 44.046875 -1.421875 31.78125 -1.421875 
Q 19.53125 -1.421875 13.0625 8.265625 
Q 6.59375 17.96875 6.59375 36.375 
Q 6.59375 54.828125 13.0625 64.515625 
Q 19.53125 74.21875 31.78125 74.21875 
z
" id="DejaVuSans-48"/>
      </defs>
      <g transform="translate(102.574805 315.2465)scale(0.16 -0.16)">
       <use xlink:href="#DejaVuSans-45"/>
       <use x="36.083984" xlink:href="#DejaVuSans-53"/>
       <use x="99.707031" xlink:href="#DejaVuSans-48"/>
      </g>
     </g>
    </g>
    <g id="xtick_3">
     <g id="line2d_3">
      <g>
       <use style="stroke:#000000;stroke-width:2;" x="163.415027" xlink:href="#m23184259da" y="299.589"/>
      </g>
     </g>
     <g id="text_3">
      <!-- -25 -->
      <defs>
       <path d="M 19.1875 8.296875 
L 53.609375 8.296875 
L 53.609375 0 
L 7.328125 0 
L 7.328125 8.296875 
Q 12.9375 14.109375 22.625 23.890625 
Q 32.328125 33.6875 34.8125 36.53125 
Q 39.546875 41.84375 41.421875 45.53125 
Q 43.3125 49.21875 43.3125 52.78125 
Q 43.3125 58.59375 39.234375 62.25 
Q 35.15625 65.921875 28.609375 65.921875 
Q 23.96875 65.921875 18.8125 64.3125 
Q 13.671875 62.703125 7.8125 59.421875 
L 7.8125 69.390625 
Q 13.765625 71.78125 18.9375 73 
Q 24.125 74.21875 28.421875 74.21875 
Q 39.75 74.21875 46.484375 68.546875 
Q 53.21875 62.890625 53.21875 53.421875 
Q 53.21875 48.921875 51.53125 44.890625 
Q 49.859375 40.875 45.40625 35.40625 
Q 44.1875 33.984375 37.640625 27.21875 
Q 31.109375 20.453125 19.1875 8.296875 
z
" id="DejaVuSans-50"/>
      </defs>
      <g transform="translate(150.348777 315.2465)scale(0.16 -0.16)">
       <use xlink:href="#DejaVuSans-45"/>
       <use x="36.083984" xlink:href="#DejaVuSans-50"/>
       <use x="99.707031" xlink:href="#DejaVuSans-53"/>
      </g>
     </g>
    </g>
    <g id="xtick_4">
     <g id="line2d_4">
      <g>
       <use style="stroke:#000000;stroke-width:2;" x="211.189" xlink:href="#m23184259da" y="299.589"/>
      </g>
     </g>
     <g id="text_4">
      <!-- 0 -->
      <g transform="translate(206.099 315.2465)scale(0.16 -0.16)">
       <use xlink:href="#DejaVuSans-48"/>
      </g>
     </g>
    </g>
    <g id="xtick_5">
     <g id="line2d_5">
      <g>
       <use style="stroke:#000000;stroke-width:2;" x="258.962973" xlink:href="#m23184259da" y="299.589"/>
      </g>
     </g>
     <g id="text_5">
      <!-- 25 -->
      <g transform="translate(248.782973 315.2465)scale(0.16 -0.16)">
       <use xlink:href="#DejaVuSans-50"/>
       <use x="63.623047" xlink:href="#DejaVuSans-53"/>
      </g>
     </g>
    </g>
    <g id="xtick_6">
     <g id="line2d_6">
      <g>
       <use style="stroke:#000000;stroke-width:2;" x="306.736945" xlink:href="#m23184259da" y="299.589"/>
      </g>
     </g>
     <g id="text_6">
      <!-- 50 -->
      <g transform="translate(296.556945 315.2465)scale(0.16 -0.16)">
       <use xlink:href="#DejaVuSans-53"/>
       <use x="63.623047" xlink:href="#DejaVuSans-48"/>
      </g>
     </g>
    </g>
    <g id="xtick_7">
     <g id="line2d_7">
      <g>
       <use style="stroke:#000000;stroke-width:2;" x="350.689" xlink:href="#m23184259da" y="299.589"/>
      </g>
     </g>
     <g id="text_7">
      <!-- 73 -->
      <g transform="translate(340.509 315.2465)scale(0.16 -0.16)">
       <use xlink:href="#DejaVuSans-55"/>
       <use x="63.623047" xlink:href="#DejaVuSans-51"/>
      </g>
     </g>
    </g>
    <g id="text_8">
     <!-- Previous Tumor - Current Tumor -->
     <defs>
      <path d="M 19.671875 64.796875 
L 19.671875 37.40625 
L 32.078125 37.40625 
Q 38.96875 37.40625 42.71875 40.96875 
Q 46.484375 44.53125 46.484375 51.125 
Q 46.484375 57.671875 42.71875 61.234375 
Q 38.96875 64.796875 32.078125 64.796875 
z
M 9.8125 72.90625 
L 32.078125 72.90625 
Q 44.34375 72.90625 50.609375 67.359375 
Q 56.890625 61.8125 56.890625 51.125 
Q 56.890625 40.328125 50.609375 34.8125 
Q 44.34375 29.296875 32.078125 29.296875 
L 19.671875 29.296875 
L 19.671875 0 
L 9.8125 0 
z
" id="DejaVuSans-80"/>
      <path d="M 41.109375 46.296875 
Q 39.59375 47.171875 37.8125 47.578125 
Q 36.03125 48 33.890625 48 
Q 26.265625 48 22.1875 43.046875 
Q 18.109375 38.09375 18.109375 28.8125 
L 18.109375 0 
L 9.078125 0 
L 9.078125 54.6875 
L 18.109375 54.6875 
L 18.109375 46.1875 
Q 20.953125 51.171875 25.484375 53.578125 
Q 30.03125 56 36.53125 56 
Q 37.453125 56 38.578125 55.875 
Q 39.703125 55.765625 41.0625 55.515625 
z
" id="DejaVuSans-114"/>
      <path d="M 56.203125 29.59375 
L 56.203125 25.203125 
L 14.890625 25.203125 
Q 15.484375 15.921875 20.484375 11.0625 
Q 25.484375 6.203125 34.421875 6.203125 
Q 39.59375 6.203125 44.453125 7.46875 
Q 49.3125 8.734375 54.109375 11.28125 
L 54.109375 2.78125 
Q 49.265625 0.734375 44.1875 -0.34375 
Q 39.109375 -1.421875 33.890625 -1.421875 
Q 20.796875 -1.421875 13.15625 6.1875 
Q 5.515625 13.8125 5.515625 26.8125 
Q 5.515625 40.234375 12.765625 48.109375 
Q 20.015625 56 32.328125 56 
Q 43.359375 56 49.78125 48.890625 
Q 56.203125 41.796875 56.203125 29.59375 
z
M 47.21875 32.234375 
Q 47.125 39.59375 43.09375 43.984375 
Q 39.0625 48.390625 32.421875 48.390625 
Q 24.90625 48.390625 20.390625 44.140625 
Q 15.875 39.890625 15.1875 32.171875 
z
" id="DejaVuSans-101"/>
      <path d="M 2.984375 54.6875 
L 12.5 54.6875 
L 29.59375 8.796875 
L 46.6875 54.6875 
L 56.203125 54.6875 
L 35.6875 0 
L 23.484375 0 
z
" id="DejaVuSans-118"/>
      <path d="M 9.421875 54.6875 
L 18.40625 54.6875 
L 18.40625 0 
L 9.421875 0 
z
M 9.421875 75.984375 
L 18.40625 75.984375 
L 18.40625 64.59375 
L 9.421875 64.59375 
z
" id="DejaVuSans-105"/>
      <path d="M 30.609375 48.390625 
Q 23.390625 48.390625 19.1875 42.75 
Q 14.984375 37.109375 14.984375 27.296875 
Q 14.984375 17.484375 19.15625 11.84375 
Q 23.34375 6.203125 30.609375 6.203125 
Q 37.796875 6.203125 41.984375 11.859375 
Q 46.1875 17.53125 46.1875 27.296875 
Q 46.1875 37.015625 41.984375 42.703125 
Q 37.796875 48.390625 30.609375 48.390625 
z
M 30.609375 56 
Q 42.328125 56 49.015625 48.375 
Q 55.71875 40.765625 55.71875 27.296875 
Q 55.71875 13.875 49.015625 6.21875 
Q 42.328125 -1.421875 30.609375 -1.421875 
Q 18.84375 -1.421875 12.171875 6.21875 
Q 5.515625 13.875 5.515625 27.296875 
Q 5.515625 40.765625 12.171875 48.375 
Q 18.84375 56 30.609375 56 
z
" id="DejaVuSans-111"/>
      <path d="M 8.5 21.578125 
L 8.5 54.6875 
L 17.484375 54.6875 
L 17.484375 21.921875 
Q 17.484375 14.15625 20.5 10.265625 
Q 23.53125 6.390625 29.59375 6.390625 
Q 36.859375 6.390625 41.078125 11.03125 
Q 45.3125 15.671875 45.3125 23.6875 
L 45.3125 54.6875 
L 54.296875 54.6875 
L 54.296875 0 
L 45.3125 0 
L 45.3125 8.40625 
Q 42.046875 3.421875 37.71875 1 
Q 33.40625 -1.421875 27.6875 -1.421875 
Q 18.265625 -1.421875 13.375 4.4375 
Q 8.5 10.296875 8.5 21.578125 
z
M 31.109375 56 
z
" id="DejaVuSans-117"/>
      <path d="M 44.28125 53.078125 
L 44.28125 44.578125 
Q 40.484375 46.53125 36.375 47.5 
Q 32.28125 48.484375 27.875 48.484375 
Q 21.1875 48.484375 17.84375 46.4375 
Q 14.5 44.390625 14.5 40.28125 
Q 14.5 37.15625 16.890625 35.375 
Q 19.28125 33.59375 26.515625 31.984375 
L 29.59375 31.296875 
Q 39.15625 29.25 43.1875 25.515625 
Q 47.21875 21.78125 47.21875 15.09375 
Q 47.21875 7.46875 41.1875 3.015625 
Q 35.15625 -1.421875 24.609375 -1.421875 
Q 20.21875 -1.421875 15.453125 -0.5625 
Q 10.6875 0.296875 5.421875 2 
L 5.421875 11.28125 
Q 10.40625 8.6875 15.234375 7.390625 
Q 20.0625 6.109375 24.8125 6.109375 
Q 31.15625 6.109375 34.5625 8.28125 
Q 37.984375 10.453125 37.984375 14.40625 
Q 37.984375 18.0625 35.515625 20.015625 
Q 33.0625 21.96875 24.703125 23.78125 
L 21.578125 24.515625 
Q 13.234375 26.265625 9.515625 29.90625 
Q 5.8125 33.546875 5.8125 39.890625 
Q 5.8125 47.609375 11.28125 51.796875 
Q 16.75 56 26.8125 56 
Q 31.78125 56 36.171875 55.265625 
Q 40.578125 54.546875 44.28125 53.078125 
z
" id="DejaVuSans-115"/>
      <path id="DejaVuSans-32"/>
      <path d="M -0.296875 72.90625 
L 61.375 72.90625 
L 61.375 64.59375 
L 35.5 64.59375 
L 35.5 0 
L 25.59375 0 
L 25.59375 64.59375 
L -0.296875 64.59375 
z
" id="DejaVuSans-84"/>
      <path d="M 52 44.1875 
Q 55.375 50.25 60.0625 53.125 
Q 64.75 56 71.09375 56 
Q 79.640625 56 84.28125 50.015625 
Q 88.921875 44.046875 88.921875 33.015625 
L 88.921875 0 
L 79.890625 0 
L 79.890625 32.71875 
Q 79.890625 40.578125 77.09375 44.375 
Q 74.3125 48.1875 68.609375 48.1875 
Q 61.625 48.1875 57.5625 43.546875 
Q 53.515625 38.921875 53.515625 30.90625 
L 53.515625 0 
L 44.484375 0 
L 44.484375 32.71875 
Q 44.484375 40.625 41.703125 44.40625 
Q 38.921875 48.1875 33.109375 48.1875 
Q 26.21875 48.1875 22.15625 43.53125 
Q 18.109375 38.875 18.109375 30.90625 
L 18.109375 0 
L 9.078125 0 
L 9.078125 54.6875 
L 18.109375 54.6875 
L 18.109375 46.1875 
Q 21.1875 51.21875 25.484375 53.609375 
Q 29.78125 56 35.6875 56 
Q 41.65625 56 45.828125 52.96875 
Q 50 49.953125 52 44.1875 
z
" id="DejaVuSans-109"/>
      <path d="M 64.40625 67.28125 
L 64.40625 56.890625 
Q 59.421875 61.53125 53.78125 63.8125 
Q 48.140625 66.109375 41.796875 66.109375 
Q 29.296875 66.109375 22.65625 58.46875 
Q 16.015625 50.828125 16.015625 36.375 
Q 16.015625 21.96875 22.65625 14.328125 
Q 29.296875 6.6875 41.796875 6.6875 
Q 48.140625 6.6875 53.78125 8.984375 
Q 59.421875 11.28125 64.40625 15.921875 
L 64.40625 5.609375 
Q 59.234375 2.09375 53.4375 0.328125 
Q 47.65625 -1.421875 41.21875 -1.421875 
Q 24.65625 -1.421875 15.125 8.703125 
Q 5.609375 18.84375 5.609375 36.375 
Q 5.609375 53.953125 15.125 64.078125 
Q 24.65625 74.21875 41.21875 74.21875 
Q 47.75 74.21875 53.53125 72.484375 
Q 59.328125 70.75 64.40625 67.28125 
z
" id="DejaVuSans-67"/>
      <path d="M 54.890625 33.015625 
L 54.890625 0 
L 45.90625 0 
L 45.90625 32.71875 
Q 45.90625 40.484375 42.875 44.328125 
Q 39.84375 48.1875 33.796875 48.1875 
Q 26.515625 48.1875 22.3125 43.546875 
Q 18.109375 38.921875 18.109375 30.90625 
L 18.109375 0 
L 9.078125 0 
L 9.078125 54.6875 
L 18.109375 54.6875 
L 18.109375 46.1875 
Q 21.34375 51.125 25.703125 53.5625 
Q 30.078125 56 35.796875 56 
Q 45.21875 56 50.046875 50.171875 
Q 54.890625 44.34375 54.890625 33.015625 
z
" id="DejaVuSans-110"/>
      <path d="M 18.3125 70.21875 
L 18.3125 54.6875 
L 36.8125 54.6875 
L 36.8125 47.703125 
L 18.3125 47.703125 
L 18.3125 18.015625 
Q 18.3125 11.328125 20.140625 9.421875 
Q 21.96875 7.515625 27.59375 7.515625 
L 36.8125 7.515625 
L 36.8125 0 
L 27.59375 0 
Q 17.1875 0 13.234375 3.875 
Q 9.28125 7.765625 9.28125 18.015625 
L 9.28125 47.703125 
L 2.6875 47.703125 
L 2.6875 54.6875 
L 9.28125 54.6875 
L 9.28125 70.21875 
z
" id="DejaVuSans-116"/>
     </defs>
     <g transform="translate(81.82525 334.7315)scale(0.16 -0.16)">
      <use xlink:href="#DejaVuSans-80"/>
      <use x="60.287109" xlink:href="#DejaVuSans-114"/>
      <use x="101.369141" xlink:href="#DejaVuSans-101"/>
      <use x="162.892578" xlink:href="#DejaVuSans-118"/>
      <use x="222.072266" xlink:href="#DejaVuSans-105"/>
      <use x="249.855469" xlink:href="#DejaVuSans-111"/>
      <use x="311.037109" xlink:href="#DejaVuSans-117"/>
      <use x="374.416016" xlink:href="#DejaVuSans-115"/>
      <use x="426.515625" xlink:href="#DejaVuSans-32"/>
      <use x="458.302734" xlink:href="#DejaVuSans-84"/>
      <use x="519.152344" xlink:href="#DejaVuSans-117"/>
      <use x="582.53125" xlink:href="#DejaVuSans-109"/>
      <use x="679.943359" xlink:href="#DejaVuSans-111"/>
      <use x="741.125" xlink:href="#DejaVuSans-114"/>
      <use x="782.238281" xlink:href="#DejaVuSans-32"/>
      <use x="814.025391" xlink:href="#DejaVuSans-45"/>
      <use x="850.109375" xlink:href="#DejaVuSans-32"/>
      <use x="881.896484" xlink:href="#DejaVuSans-67"/>
      <use x="951.720703" xlink:href="#DejaVuSans-117"/>
      <use x="1015.099609" xlink:href="#DejaVuSans-114"/>
      <use x="1056.197266" xlink:href="#DejaVuSans-114"/>
      <use x="1097.279297" xlink:href="#DejaVuSans-101"/>
      <use x="1158.802734" xlink:href="#DejaVuSans-110"/>
      <use x="1222.181641" xlink:href="#DejaVuSans-116"/>
      <use x="1261.390625" xlink:href="#DejaVuSans-32"/>
      <use x="1293.177734" xlink:href="#DejaVuSans-84"/>
      <use x="1354.027344" xlink:href="#DejaVuSans-117"/>
      <use x="1417.40625" xlink:href="#DejaVuSans-109"/>
      <use x="1514.818359" xlink:href="#DejaVuSans-111"/>
      <use x="1576" xlink:href="#DejaVuSans-114"/>
     </g>
     <!--  (morph units) -->
     <defs>
      <path d="M 31 75.875 
Q 24.46875 64.65625 21.28125 53.65625 
Q 18.109375 42.671875 18.109375 31.390625 
Q 18.109375 20.125 21.3125 9.0625 
Q 24.515625 -2 31 -13.1875 
L 23.1875 -13.1875 
Q 15.875 -1.703125 12.234375 9.375 
Q 8.59375 20.453125 8.59375 31.390625 
Q 8.59375 42.28125 12.203125 53.3125 
Q 15.828125 64.359375 23.1875 75.875 
z
" id="DejaVuSans-40"/>
      <path d="M 18.109375 8.203125 
L 18.109375 -20.796875 
L 9.078125 -20.796875 
L 9.078125 54.6875 
L 18.109375 54.6875 
L 18.109375 46.390625 
Q 20.953125 51.265625 25.265625 53.625 
Q 29.59375 56 35.59375 56 
Q 45.5625 56 51.78125 48.09375 
Q 58.015625 40.1875 58.015625 27.296875 
Q 58.015625 14.40625 51.78125 6.484375 
Q 45.5625 -1.421875 35.59375 -1.421875 
Q 29.59375 -1.421875 25.265625 0.953125 
Q 20.953125 3.328125 18.109375 8.203125 
z
M 48.6875 27.296875 
Q 48.6875 37.203125 44.609375 42.84375 
Q 40.53125 48.484375 33.40625 48.484375 
Q 26.265625 48.484375 22.1875 42.84375 
Q 18.109375 37.203125 18.109375 27.296875 
Q 18.109375 17.390625 22.1875 11.75 
Q 26.265625 6.109375 33.40625 6.109375 
Q 40.53125 6.109375 44.609375 11.75 
Q 48.6875 17.390625 48.6875 27.296875 
z
" id="DejaVuSans-112"/>
      <path d="M 54.890625 33.015625 
L 54.890625 0 
L 45.90625 0 
L 45.90625 32.71875 
Q 45.90625 40.484375 42.875 44.328125 
Q 39.84375 48.1875 33.796875 48.1875 
Q 26.515625 48.1875 22.3125 43.546875 
Q 18.109375 38.921875 18.109375 30.90625 
L 18.109375 0 
L 9.078125 0 
L 9.078125 75.984375 
L 18.109375 75.984375 
L 18.109375 46.1875 
Q 21.34375 51.125 25.703125 53.5625 
Q 30.078125 56 35.796875 56 
Q 45.21875 56 50.046875 50.171875 
Q 54.890625 44.34375 54.890625 33.015625 
z
" id="DejaVuSans-104"/>
      <path d="M 8.015625 75.875 
L 15.828125 75.875 
Q 23.140625 64.359375 26.78125 53.3125 
Q 30.421875 42.28125 30.421875 31.390625 
Q 30.421875 20.453125 26.78125 9.375 
Q 23.140625 -1.703125 15.828125 -13.1875 
L 8.015625 -13.1875 
Q 14.5 -2 17.703125 9.0625 
Q 20.90625 20.125 20.90625 31.390625 
Q 20.90625 42.671875 17.703125 53.65625 
Q 14.5 64.65625 8.015625 75.875 
z
" id="DejaVuSans-41"/>
     </defs>
     <g transform="translate(154.07025 352.648)scale(0.16 -0.16)">
      <use xlink:href="#DejaVuSans-32"/>
      <use x="31.787109" xlink:href="#DejaVuSans-40"/>
      <use x="70.800781" xlink:href="#DejaVuSans-109"/>
      <use x="168.212891" xlink:href="#DejaVuSans-111"/>
      <use x="229.394531" xlink:href="#DejaVuSans-114"/>
      <use x="270.507812" xlink:href="#DejaVuSans-112"/>
      <use x="333.984375" xlink:href="#DejaVuSans-104"/>
      <use x="397.363281" xlink:href="#DejaVuSans-32"/>
      <use x="429.150391" xlink:href="#DejaVuSans-117"/>
      <use x="492.529297" xlink:href="#DejaVuSans-110"/>
      <use x="555.908203" xlink:href="#DejaVuSans-105"/>
      <use x="583.691406" xlink:href="#DejaVuSans-116"/>
      <use x="622.900391" xlink:href="#DejaVuSans-115"/>
      <use x="675" xlink:href="#DejaVuSans-41"/>
     </g>
    </g>
   </g>
   <g id="matplotlib.axis_2">
    <g id="ytick_1">
     <g id="line2d_8">
      <defs>
       <path d="M 0 0 
L 6 0 
" id="m623f9fdd44" style="stroke:#000000;stroke-width:2;"/>
      </defs>
      <g>
       <use style="stroke:#000000;stroke-width:2;" x="71.689" xlink:href="#m623f9fdd44" y="299.589"/>
      </g>
     </g>
     <g id="text_9">
      <!-- −3 -->
      <defs>
       <path d="M 10.59375 35.5 
L 73.1875 35.5 
L 73.1875 27.203125 
L 10.59375 27.203125 
z
" id="DejaVuSans-8722"/>
      </defs>
      <g transform="translate(44.6015 305.66775)scale(0.16 -0.16)">
       <use xlink:href="#DejaVuSans-8722"/>
       <use x="83.789062" xlink:href="#DejaVuSans-51"/>
      </g>
     </g>
    </g>
    <g id="ytick_2">
     <g id="line2d_9">
      <g>
       <use style="stroke:#000000;stroke-width:2;" x="71.689" xlink:href="#m623f9fdd44" y="254.289"/>
      </g>
     </g>
     <g id="text_10">
      <!-- −2 -->
      <g transform="translate(44.6015 260.36775)scale(0.16 -0.16)">
       <use xlink:href="#DejaVuSans-8722"/>
       <use x="83.789062" xlink:href="#DejaVuSans-50"/>
      </g>
     </g>
    </g>
    <g id="ytick_3">
     <g id="line2d_10">
      <g>
       <use style="stroke:#000000;stroke-width:2;" x="71.689" xlink:href="#m623f9fdd44" y="208.989"/>
      </g>
     </g>
     <g id="text_11">
      <!-- −1 -->
      <defs>
       <path d="M 12.40625 8.296875 
L 28.515625 8.296875 
L 28.515625 63.921875 
L 10.984375 60.40625 
L 10.984375 69.390625 
L 28.421875 72.90625 
L 38.28125 72.90625 
L 38.28125 8.296875 
L 54.390625 8.296875 
L 54.390625 0 
L 12.40625 0 
z
" id="DejaVuSans-49"/>
      </defs>
      <g transform="translate(44.6015 215.06775)scale(0.16 -0.16)">
       <use xlink:href="#DejaVuSans-8722"/>
       <use x="83.789062" xlink:href="#DejaVuSans-49"/>
      </g>
     </g>
    </g>
    <g id="ytick_4">
     <g id="line2d_11">
      <g>
       <use style="stroke:#000000;stroke-width:2;" x="71.689" xlink:href="#m623f9fdd44" y="163.689"/>
      </g>
     </g>
     <g id="text_12">
      <!-- 0 -->
      <g transform="translate(58.009 169.76775)scale(0.16 -0.16)">
       <use xlink:href="#DejaVuSans-48"/>
      </g>
     </g>
    </g>
    <g id="ytick_5">
     <g id="line2d_12">
      <g>
       <use style="stroke:#000000;stroke-width:2;" x="71.689" xlink:href="#m623f9fdd44" y="118.389"/>
      </g>
     </g>
     <g id="text_13">
      <!-- 1 -->
      <g transform="translate(58.009 124.46775)scale(0.16 -0.16)">
       <use xlink:href="#DejaVuSans-49"/>
      </g>
     </g>
    </g>
    <g id="ytick_6">
     <g id="line2d_13">
      <g>
       <use style="stroke:#000000;stroke-width:2;" x="71.689" xlink:href="#m623f9fdd44" y="73.089"/>
      </g>
     </g>
     <g id="text_14">
      <!-- 2 -->
      <g transform="translate(58.009 79.16775)scale(0.16 -0.16)">
       <use xlink:href="#DejaVuSans-50"/>
      </g>
     </g>
    </g>
    <g id="ytick_7">
     <g id="line2d_14">
      <g>
       <use style="stroke:#000000;stroke-width:2;" x="71.689" xlink:href="#m623f9fdd44" y="27.789"/>
      </g>
     </g>
     <g id="text_15">
      <!-- 3 -->
      <g transform="translate(58.009 33.86775)scale(0.16 -0.16)">
       <use xlink:href="#DejaVuSans-51"/>
      </g>
     </g>
    </g>
    <g id="text_16">
     <!-- Response Error on Current Trial -->
     <defs>
      <path d="M 44.390625 34.1875 
Q 47.5625 33.109375 50.5625 29.59375 
Q 53.5625 26.078125 56.59375 19.921875 
L 66.609375 0 
L 56 0 
L 46.6875 18.703125 
Q 43.0625 26.03125 39.671875 28.421875 
Q 36.28125 30.8125 30.421875 30.8125 
L 19.671875 30.8125 
L 19.671875 0 
L 9.8125 0 
L 9.8125 72.90625 
L 32.078125 72.90625 
Q 44.578125 72.90625 50.734375 67.671875 
Q 56.890625 62.453125 56.890625 51.90625 
Q 56.890625 45.015625 53.6875 40.46875 
Q 50.484375 35.9375 44.390625 34.1875 
z
M 19.671875 64.796875 
L 19.671875 38.921875 
L 32.078125 38.921875 
Q 39.203125 38.921875 42.84375 42.21875 
Q 46.484375 45.515625 46.484375 51.90625 
Q 46.484375 58.296875 42.84375 61.546875 
Q 39.203125 64.796875 32.078125 64.796875 
z
" id="DejaVuSans-82"/>
      <path d="M 9.8125 72.90625 
L 55.90625 72.90625 
L 55.90625 64.59375 
L 19.671875 64.59375 
L 19.671875 43.015625 
L 54.390625 43.015625 
L 54.390625 34.71875 
L 19.671875 34.71875 
L 19.671875 8.296875 
L 56.78125 8.296875 
L 56.78125 0 
L 9.8125 0 
z
" id="DejaVuSans-69"/>
      <path d="M 34.28125 27.484375 
Q 23.390625 27.484375 19.1875 25 
Q 14.984375 22.515625 14.984375 16.5 
Q 14.984375 11.71875 18.140625 8.90625 
Q 21.296875 6.109375 26.703125 6.109375 
Q 34.1875 6.109375 38.703125 11.40625 
Q 43.21875 16.703125 43.21875 25.484375 
L 43.21875 27.484375 
z
M 52.203125 31.203125 
L 52.203125 0 
L 43.21875 0 
L 43.21875 8.296875 
Q 40.140625 3.328125 35.546875 0.953125 
Q 30.953125 -1.421875 24.3125 -1.421875 
Q 15.921875 -1.421875 10.953125 3.296875 
Q 6 8.015625 6 15.921875 
Q 6 25.140625 12.171875 29.828125 
Q 18.359375 34.515625 30.609375 34.515625 
L 43.21875 34.515625 
L 43.21875 35.40625 
Q 43.21875 41.609375 39.140625 45 
Q 35.0625 48.390625 27.6875 48.390625 
Q 23 48.390625 18.546875 47.265625 
Q 14.109375 46.140625 10.015625 43.890625 
L 10.015625 52.203125 
Q 14.9375 54.109375 19.578125 55.046875 
Q 24.21875 56 28.609375 56 
Q 40.484375 56 46.34375 49.84375 
Q 52.203125 43.703125 52.203125 31.203125 
z
" id="DejaVuSans-97"/>
      <path d="M 9.421875 75.984375 
L 18.40625 75.984375 
L 18.40625 0 
L 9.421875 0 
z
" id="DejaVuSans-108"/>
     </defs>
     <g transform="translate(19.3575 290.27775)rotate(-90)scale(0.16 -0.16)">
      <use xlink:href="#DejaVuSans-82"/>
      <use x="69.419922" xlink:href="#DejaVuSans-101"/>
      <use x="130.943359" xlink:href="#DejaVuSans-115"/>
      <use x="183.042969" xlink:href="#DejaVuSans-112"/>
      <use x="246.519531" xlink:href="#DejaVuSans-111"/>
      <use x="307.701172" xlink:href="#DejaVuSans-110"/>
      <use x="371.080078" xlink:href="#DejaVuSans-115"/>
      <use x="423.179688" xlink:href="#DejaVuSans-101"/>
      <use x="484.703125" xlink:href="#DejaVuSans-32"/>
      <use x="516.490234" xlink:href="#DejaVuSans-69"/>
      <use x="579.673828" xlink:href="#DejaVuSans-114"/>
      <use x="620.771484" xlink:href="#DejaVuSans-114"/>
      <use x="661.853516" xlink:href="#DejaVuSans-111"/>
      <use x="723.035156" xlink:href="#DejaVuSans-114"/>
      <use x="764.148438" xlink:href="#DejaVuSans-32"/>
      <use x="795.935547" xlink:href="#DejaVuSans-111"/>
      <use x="857.117188" xlink:href="#DejaVuSans-110"/>
      <use x="920.496094" xlink:href="#DejaVuSans-32"/>
      <use x="952.283203" xlink:href="#DejaVuSans-67"/>
      <use x="1022.107422" xlink:href="#DejaVuSans-117"/>
      <use x="1085.486328" xlink:href="#DejaVuSans-114"/>
      <use x="1126.583984" xlink:href="#DejaVuSans-114"/>
      <use x="1167.666016" xlink:href="#DejaVuSans-101"/>
      <use x="1229.189453" xlink:href="#DejaVuSans-110"/>
      <use x="1292.568359" xlink:href="#DejaVuSans-116"/>
      <use x="1331.777344" xlink:href="#DejaVuSans-32"/>
      <use x="1363.564453" xlink:href="#DejaVuSans-84"/>
      <use x="1424.429688" xlink:href="#DejaVuSans-114"/>
      <use x="1465.542969" xlink:href="#DejaVuSans-105"/>
      <use x="1493.326172" xlink:href="#DejaVuSans-97"/>
      <use x="1554.605469" xlink:href="#DejaVuSans-108"/>
     </g>
     <!--  (morph units) -->
     <g transform="translate(37.274 220.80775)rotate(-90)scale(0.16 -0.16)">
      <use xlink:href="#DejaVuSans-32"/>
      <use x="31.787109" xlink:href="#DejaVuSans-40"/>
      <use x="70.800781" xlink:href="#DejaVuSans-109"/>
      <use x="168.212891" xlink:href="#DejaVuSans-111"/>
      <use x="229.394531" xlink:href="#DejaVuSans-114"/>
      <use x="270.507812" xlink:href="#DejaVuSans-112"/>
      <use x="333.984375" xlink:href="#DejaVuSans-104"/>
      <use x="397.363281" xlink:href="#DejaVuSans-32"/>
      <use x="429.150391" xlink:href="#DejaVuSans-117"/>
      <use x="492.529297" xlink:href="#DejaVuSans-110"/>
      <use x="555.908203" xlink:href="#DejaVuSans-105"/>
      <use x="583.691406" xlink:href="#DejaVuSans-116"/>
      <use x="622.900391" xlink:href="#DejaVuSans-115"/>
      <use x="675" xlink:href="#DejaVuSans-41"/>
     </g>
    </g>
   </g>
   <g id="line2d_15">
    <path clip-path="url(#p2cf07f4578)" d="M 71.689 148.47628 
L 73.599959 142.6969 
L 75.510918 148.046282 
L 77.421877 151.8824 
L 79.332836 167.823558 
L 81.243795 173.457632 
L 83.154753 170.224027 
L 85.065712 172.564687 
L 86.976671 166.62125 
L 88.88763 174.532791 
L 90.798589 177.394669 
L 92.709548 164.90095 
L 94.620507 167.661456 
L 96.531466 164.968785 
L 98.442425 163.787695 
L 100.353384 150.083364 
L 102.264342 170.363253 
L 104.175301 155.381953 
L 106.08626 151.070488 
L 107.997219 157.640417 
L 109.908178 149.332273 
L 111.819137 158.057065 
L 113.730096 161.851863 
L 115.641055 177.643452 
L 117.552014 182.408083 
L 119.462973 194.488282 
L 121.373932 212.818627 
L 123.28489 217.235443 
L 125.195849 224.535765 
L 127.106808 217.817566 
L 129.017767 222.330087 
L 130.928726 227.636095 
L 132.839685 235.854033 
L 134.750644 246.875558 
L 136.661603 240.162591 
L 138.572562 245.042311 
L 140.483521 249.535269 
L 142.394479 258.189594 
L 144.305438 256.83605 
L 146.216397 254.674437 
L 148.127356 264.726677 
L 150.038315 261.755566 
L 151.949274 252.563218 
L 153.860233 268.288303 
L 155.771192 269.534202 
L 157.682151 271.967583 
L 159.59311 278.815391 
L 161.504068 286.120641 
L 163.415027 274.179945 
L 165.325986 279.952047 
L 167.236945 266.469898 
L 169.147904 265.68223 
L 171.058863 260.422305 
L 174.880781 245.035039 
L 176.79174 242.004875 
L 178.702699 245.937763 
L 180.613658 242.259385 
L 182.524616 235.865143 
L 184.435575 240.776779 
L 186.346534 229.28255 
L 188.257493 231.13421 
L 190.168452 219.669286 
L 192.079411 221.456747 
L 193.99037 218.165087 
L 195.901329 209.17498 
L 197.812288 196.832048 
L 199.723247 207.79652 
L 201.634205 207.820562 
L 203.545164 196.387753 
L 205.456123 187.714188 
L 209.278041 153.082535 
L 211.189 158.298992 
L 213.099959 156.46148 
L 215.010918 145.926877 
L 216.921877 126.393274 
L 218.832836 128.667946 
L 220.743795 118.50374 
L 222.654753 121.624292 
L 226.476671 90.274195 
L 228.38763 80.747079 
L 230.298589 91.870558 
L 232.209548 74.267781 
L 234.120507 78.51967 
L 236.031466 77.626066 
L 237.942425 75.213221 
L 239.853384 80.937522 
L 241.764342 85.551019 
L 243.675301 81.167709 
L 245.58626 86.393045 
L 247.497219 89.99517 
L 249.408178 78.702435 
L 251.319137 87.90511 
L 253.230096 86.976005 
L 255.141055 95.425356 
L 257.052014 100.345843 
L 258.962973 97.183679 
L 260.873932 91.517786 
L 262.78489 97.505139 
L 264.695849 98.924379 
L 266.606808 87.022512 
L 268.517767 99.353558 
L 272.339685 91.596845 
L 274.250644 79.198964 
L 276.161603 86.330244 
L 278.072562 71.03561 
L 279.983521 83.571588 
L 281.894479 74.717125 
L 283.805438 79.299348 
L 285.716397 79.097937 
L 287.627356 83.050894 
L 289.538315 76.308474 
L 291.449274 87.695736 
L 293.360233 87.824324 
L 295.271192 87.281162 
L 297.182151 98.128159 
L 299.09311 93.861234 
L 301.004068 99.436258 
L 302.915027 100.270945 
L 304.825986 106.581443 
L 306.736945 114.426313 
L 308.647904 118.574985 
L 310.558863 121.066206 
L 312.469822 119.901494 
L 314.380781 121.854817 
L 316.29174 119.415802 
L 318.202699 124.48014 
L 320.113658 132.953948 
L 322.024616 149.776189 
L 323.935575 148.081411 
L 325.846534 165.581618 
L 327.757493 169.617657 
L 329.668452 178.238831 
L 331.579411 178.228275 
L 333.49037 187.871424 
L 335.401329 170.103482 
L 337.312288 185.777421 
L 339.223247 176.573708 
L 341.134205 174.941596 
L 343.045164 176.75525 
L 344.956123 162.804569 
L 346.867082 160.113987 
L 348.778041 162.035179 
L 350.689 148.47628 
L 350.689 148.47628 
" style="fill:none;stroke:#00008b;stroke-linecap:square;stroke-width:1.5;"/>
   </g>
   <g id="patch_3">
    <path d="M 71.689 299.589 
L 71.689 27.789 
" style="fill:none;stroke:#000000;stroke-linecap:square;stroke-linejoin:miter;stroke-width:2;"/>
   </g>
   <g id="patch_4">
    <path d="M 71.689 299.589 
L 350.689 299.589 
" style="fill:none;stroke:#000000;stroke-linecap:square;stroke-linejoin:miter;stroke-width:2;"/>
   </g>
   <g id="text_17">
    <!-- Naive, Step = 25 -->
    <defs>
     <path d="M 9.8125 72.90625 
L 23.09375 72.90625 
L 55.421875 11.921875 
L 55.421875 72.90625 
L 64.984375 72.90625 
L 64.984375 0 
L 51.703125 0 
L 19.390625 60.984375 
L 19.390625 0 
L 9.8125 0 
z
" id="DejaVuSans-78"/>
     <path d="M 11.71875 12.40625 
L 22.015625 12.40625 
L 22.015625 4 
L 14.015625 -11.625 
L 7.71875 -11.625 
L 11.71875 4 
z
" id="DejaVuSans-44"/>
     <path d="M 53.515625 70.515625 
L 53.515625 60.890625 
Q 47.90625 63.578125 42.921875 64.890625 
Q 37.9375 66.21875 33.296875 66.21875 
Q 25.25 66.21875 20.875 63.09375 
Q 16.5 59.96875 16.5 54.203125 
Q 16.5 49.359375 19.40625 46.890625 
Q 22.3125 44.4375 30.421875 42.921875 
L 36.375 41.703125 
Q 47.40625 39.59375 52.65625 34.296875 
Q 57.90625 29 57.90625 20.125 
Q 57.90625 9.515625 50.796875 4.046875 
Q 43.703125 -1.421875 29.984375 -1.421875 
Q 24.8125 -1.421875 18.96875 -0.25 
Q 13.140625 0.921875 6.890625 3.21875 
L 6.890625 13.375 
Q 12.890625 10.015625 18.65625 8.296875 
Q 24.421875 6.59375 29.984375 6.59375 
Q 38.421875 6.59375 43.015625 9.90625 
Q 47.609375 13.234375 47.609375 19.390625 
Q 47.609375 24.75 44.3125 27.78125 
Q 41.015625 30.8125 33.5 32.328125 
L 27.484375 33.5 
Q 16.453125 35.6875 11.515625 40.375 
Q 6.59375 45.0625 6.59375 53.421875 
Q 6.59375 63.09375 13.40625 68.65625 
Q 20.21875 74.21875 32.171875 74.21875 
Q 37.3125 74.21875 42.625 73.28125 
Q 47.953125 72.359375 53.515625 70.515625 
z
" id="DejaVuSans-83"/>
     <path d="M 10.59375 45.40625 
L 73.1875 45.40625 
L 73.1875 37.203125 
L 10.59375 37.203125 
z
M 10.59375 25.484375 
L 73.1875 25.484375 
L 73.1875 17.1875 
L 10.59375 17.1875 
z
" id="DejaVuSans-61"/>
    </defs>
    <g transform="translate(129.544 21.789)scale(0.192 -0.192)">
     <use xlink:href="#DejaVuSans-78"/>
     <use x="74.804688" xlink:href="#DejaVuSans-97"/>
     <use x="136.083984" xlink:href="#DejaVuSans-105"/>
     <use x="163.867188" xlink:href="#DejaVuSans-118"/>
     <use x="223.046875" xlink:href="#DejaVuSans-101"/>
     <use x="284.570312" xlink:href="#DejaVuSans-44"/>
     <use x="316.357422" xlink:href="#DejaVuSans-32"/>
     <use x="348.144531" xlink:href="#DejaVuSans-83"/>
     <use x="411.621094" xlink:href="#DejaVuSans-116"/>
     <use x="450.830078" xlink:href="#DejaVuSans-101"/>
     <use x="512.353516" xlink:href="#DejaVuSans-112"/>
     <use x="575.830078" xlink:href="#DejaVuSans-32"/>
     <use x="607.617188" xlink:href="#DejaVuSans-61"/>
     <use x="691.40625" xlink:href="#DejaVuSans-32"/>
     <use x="723.193359" xlink:href="#DejaVuSans-50"/>
     <use x="786.816406" xlink:href="#DejaVuSans-53"/>
    </g>
   </g>
  </g>
 </g>
 <defs>
  <clipPath id="p2cf07f4578">
   <rect height="271.8" width="279" x="71.689" y="27.789"/>
  </clipPath>
 </defs>
</svg>
