<?xml version="1.0" encoding="utf-8" standalone="no"?>
<!DOCTYPE svg PUBLIC "-//W3C//DTD SVG 1.1//EN"
  "http://www.w3.org/Graphics/SVG/1.1/DTD/svg11.dtd">
<!-- Created with matplotlib (https://matplotlib.org/) -->
<svg height="363.1755pt" version="1.1" viewBox="0 0 379.312 363.1755" width="379.312pt" xmlns="http://www.w3.org/2000/svg" xmlns:xlink="http://www.w3.org/1999/xlink">
 <defs>
  <style type="text/css">
*{stroke-linecap:butt;stroke-linejoin:round;}
  </style>
 </defs>
 <g id="figure_1">
  <g id="patch_1">
   <path d="M 0 363.1755 
L 379.312 363.1755 
L 379.312 0 
L 0 0 
z
" style="fill:#ffffff;"/>
  </g>
  <g id="axes_1">
   <g id="patch_2">
    <path d="M 71.689 299.589 
L 350.689 299.589 
L 350.689 27.789 
L 71.689 27.789 
z
" style="fill:#ffffff;"/>
   </g>
   <g id="PolyCollection_1">
    <defs>
     <path d="M 71.689 -233.429356 
L 71.689 -176.80284 
L 73.599959 -170.14439 
L 75.510918 -165.398888 
L 77.421877 -172.417522 
L 79.332836 -173.345145 
L 81.243795 -175.767253 
L 83.154753 -168.624799 
L 85.065712 -170.765905 
L 86.976671 -170.729453 
L 88.88763 -175.921908 
L 90.798589 -181.965984 
L 92.709548 -182.923601 
L 94.620507 -181.515628 
L 96.531466 -192.116397 
L 98.442425 -192.820952 
L 100.353384 -185.233837 
L 102.264342 -187.226403 
L 104.175301 -177.107265 
L 106.08626 -178.296193 
L 107.997219 -171.834086 
L 109.908178 -177.512767 
L 111.819137 -171.521532 
L 113.730096 -178.474145 
L 115.641055 -179.469053 
L 117.552014 -170.785212 
L 119.462973 -173.570433 
L 121.373932 -180.178048 
L 123.28489 -175.412154 
L 125.195849 -172.901492 
L 127.106808 -172.91739 
L 129.017767 -169.930876 
L 130.928726 -176.786456 
L 132.839685 -163.537439 
L 134.750644 -170.181532 
L 136.661603 -163.058061 
L 138.572562 -174.775325 
L 140.483521 -175.575553 
L 142.394479 -181.604201 
L 144.305438 -175.596916 
L 146.216397 -168.805081 
L 148.127356 -166.358226 
L 150.038315 -171.002368 
L 151.949274 -175.41588 
L 153.860233 -172.312366 
L 155.771192 -159.342166 
L 157.682151 -154.204617 
L 159.59311 -157.390211 
L 161.504068 -154.267733 
L 163.415027 -163.834625 
L 165.325986 -174.083919 
L 167.236945 -177.629081 
L 169.147904 -180.927726 
L 171.058863 -188.586545 
L 172.969822 -187.451192 
L 174.880781 -186.454682 
L 176.79174 -192.082302 
L 178.702699 -197.757739 
L 180.613658 -193.93505 
L 182.524616 -195.961145 
L 184.435575 -200.128135 
L 186.346534 -199.728077 
L 188.257493 -194.311057 
L 190.168452 -187.800806 
L 192.079411 -194.6693 
L 193.99037 -176.94376 
L 195.901329 -178.391366 
L 197.812288 -176.084682 
L 199.723247 -176.835991 
L 201.634205 -170.363524 
L 203.545164 -172.238318 
L 205.456123 -169.504806 
L 207.367082 -168.660635 
L 209.278041 -168.636674 
L 211.189 -161.184039 
L 213.099959 -164.61778 
L 215.010918 -169.418526 
L 216.921877 -169.531083 
L 218.832836 -170.986339 
L 220.743795 -174.456179 
L 222.654753 -171.373905 
L 224.565712 -169.146676 
L 226.476671 -168.557714 
L 228.38763 -169.663924 
L 230.298589 -163.248926 
L 232.209548 -171.409554 
L 234.120507 -163.211393 
L 236.031466 -154.358262 
L 237.942425 -146.637502 
L 239.853384 -144.222896 
L 241.764342 -144.500427 
L 243.675301 -138.664119 
L 245.58626 -129.773009 
L 247.497219 -127.097607 
L 249.408178 -135.17413 
L 251.319137 -140.269676 
L 253.230096 -159.128665 
L 255.141055 -164.034378 
L 257.052014 -155.30247 
L 258.962973 -158.134678 
L 260.873932 -159.624391 
L 262.78489 -166.889012 
L 264.695849 -170.629999 
L 266.606808 -180.68221 
L 268.517767 -173.830603 
L 270.428726 -174.969011 
L 272.339685 -167.869716 
L 274.250644 -158.395814 
L 276.161603 -155.361381 
L 278.072562 -161.806458 
L 279.983521 -160.305415 
L 281.894479 -157.090944 
L 283.805438 -157.417309 
L 285.716397 -156.704843 
L 287.627356 -150.520885 
L 289.538315 -157.923403 
L 291.449274 -156.196931 
L 293.360233 -163.377455 
L 295.271192 -176.576269 
L 297.182151 -178.399313 
L 299.09311 -182.186495 
L 301.004068 -179.551137 
L 302.915027 -170.016523 
L 304.825986 -186.810433 
L 306.736945 -188.240284 
L 308.647904 -191.192974 
L 310.558863 -180.949609 
L 312.469822 -171.218207 
L 314.380781 -166.025271 
L 316.29174 -174.423013 
L 318.202699 -173.841536 
L 320.113658 -181.024243 
L 322.024616 -177.806646 
L 323.935575 -184.40206 
L 325.846534 -183.926128 
L 327.757493 -186.26551 
L 329.668452 -188.419268 
L 331.579411 -189.848806 
L 333.49037 -193.847407 
L 335.401329 -191.695864 
L 337.312288 -187.17141 
L 339.223247 -188.755538 
L 341.134205 -186.488831 
L 343.045164 -183.063499 
L 344.956123 -179.335912 
L 346.867082 -190.291915 
L 348.778041 -187.181089 
L 350.689 -176.80284 
L 350.689 -233.429356 
L 350.689 -233.429356 
L 348.778041 -235.837775 
L 346.867082 -239.50703 
L 344.956123 -228.965392 
L 343.045164 -228.736492 
L 341.134205 -229.947803 
L 339.223247 -234.119789 
L 337.312288 -234.901618 
L 335.401329 -239.683124 
L 333.49037 -237.509085 
L 331.579411 -232.72592 
L 329.668452 -232.788739 
L 327.757493 -232.059586 
L 325.846534 -236.047263 
L 323.935575 -235.468572 
L 322.024616 -237.544134 
L 320.113658 -238.719851 
L 318.202699 -234.005471 
L 316.29174 -237.262626 
L 314.380781 -229.573005 
L 312.469822 -229.869794 
L 310.558863 -243.187388 
L 308.647904 -251.855151 
L 306.736945 -246.00774 
L 304.825986 -249.448821 
L 302.915027 -233.819913 
L 301.004068 -237.769145 
L 299.09311 -235.902341 
L 297.182151 -235.404615 
L 295.271192 -232.965841 
L 293.360233 -214.640023 
L 291.449274 -208.786198 
L 289.538315 -210.829769 
L 287.627356 -196.007624 
L 285.716397 -201.527406 
L 283.805438 -205.857959 
L 281.894479 -208.239271 
L 279.983521 -209.422905 
L 278.072562 -207.262213 
L 276.161603 -194.513034 
L 274.250644 -198.266497 
L 272.339685 -204.914812 
L 270.428726 -211.727361 
L 268.517767 -211.656602 
L 266.606808 -217.39733 
L 264.695849 -210.799072 
L 262.78489 -205.753304 
L 260.873932 -200.926107 
L 258.962973 -200.556141 
L 257.052014 -199.812119 
L 255.141055 -202.134947 
L 253.230096 -199.583862 
L 251.319137 -180.321468 
L 249.408178 -178.564558 
L 247.497219 -183.344919 
L 245.58626 -181.680491 
L 243.675301 -192.230709 
L 241.764342 -194.945986 
L 239.853384 -197.260223 
L 237.942425 -195.596206 
L 236.031466 -199.826967 
L 234.120507 -209.812782 
L 232.209548 -217.422123 
L 230.298589 -208.79355 
L 228.38763 -212.380676 
L 226.476671 -208.621079 
L 224.565712 -204.901366 
L 222.654753 -213.554391 
L 220.743795 -216.350615 
L 218.832836 -212.47134 
L 216.921877 -208.59079 
L 215.010918 -206.526056 
L 213.099959 -203.951544 
L 211.189 -203.962913 
L 209.278041 -220.29751 
L 207.367082 -223.529473 
L 205.456123 -215.499661 
L 203.545164 -219.104643 
L 201.634205 -219.019655 
L 199.723247 -227.652143 
L 197.812288 -219.537832 
L 195.901329 -224.8298 
L 193.99037 -223.826778 
L 192.079411 -235.172279 
L 190.168452 -226.797817 
L 188.257493 -224.798026 
L 186.346534 -223.76071 
L 184.435575 -227.48737 
L 182.524616 -233.03015 
L 180.613658 -229.658697 
L 178.702699 -229.08146 
L 176.79174 -229.947623 
L 174.880781 -224.747891 
L 172.969822 -225.183122 
L 171.058863 -227.522567 
L 169.147904 -218.955515 
L 167.236945 -214.97778 
L 165.325986 -208.803515 
L 163.415027 -202.178367 
L 161.504068 -195.070894 
L 159.59311 -198.503885 
L 157.682151 -198.273214 
L 155.771192 -209.940165 
L 153.860233 -220.688717 
L 151.949274 -220.8216 
L 150.038315 -212.514811 
L 148.127356 -210.295759 
L 146.216397 -218.051979 
L 144.305438 -224.650869 
L 142.394479 -233.968671 
L 140.483521 -228.311994 
L 138.572562 -227.220744 
L 136.661603 -224.101502 
L 134.750644 -231.300977 
L 132.839685 -224.606143 
L 130.928726 -235.960616 
L 129.017767 -233.961322 
L 127.106808 -234.982451 
L 125.195849 -237.077704 
L 123.28489 -237.163398 
L 121.373932 -239.448096 
L 119.462973 -232.43352 
L 117.552014 -228.751233 
L 115.641055 -234.876337 
L 113.730096 -234.289161 
L 111.819137 -230.63795 
L 109.908178 -237.071098 
L 107.997219 -240.072147 
L 106.08626 -246.883892 
L 104.175301 -245.749724 
L 102.264342 -249.719235 
L 100.353384 -248.767098 
L 98.442425 -256.867059 
L 96.531466 -254.206898 
L 94.620507 -245.00739 
L 92.709548 -245.729253 
L 90.798589 -238.875857 
L 88.88763 -234.892246 
L 86.976671 -233.401228 
L 85.065712 -233.743668 
L 83.154753 -229.855933 
L 81.243795 -240.911251 
L 79.332836 -231.399917 
L 77.421877 -230.528057 
L 75.510918 -228.316434 
L 73.599959 -231.891131 
L 71.689 -233.429356 
z
" id="mb61bedb0c8" style="stroke:#1e90ff;stroke-opacity:0.2;"/>
    </defs>
    <g clip-path="url(#pb4924bb498)">
     <use style="fill:#1e90ff;fill-opacity:0.2;stroke:#1e90ff;stroke-opacity:0.2;" x="0" xlink:href="#mb61bedb0c8" y="363.1755"/>
    </g>
   </g>
   <g id="PolyCollection_2">
    <defs>
     <path d="M 71.689 -199.589787 
L 71.689 -199.479086 
L 73.599959 -199.475287 
L 75.510918 -199.471378 
L 77.421877 -199.467321 
L 79.332836 -199.463076 
L 81.243795 -199.458601 
L 83.154753 -199.453856 
L 85.065712 -199.448794 
L 86.976671 -199.443371 
L 88.88763 -199.437538 
L 90.798589 -199.431247 
L 92.709548 -199.424447 
L 94.620507 -199.417086 
L 96.531466 -199.409116 
L 98.442425 -199.400488 
L 100.353384 -199.391157 
L 102.264342 -199.381085 
L 104.175301 -199.370245 
L 106.08626 -199.358621 
L 107.997219 -199.346218 
L 109.908178 -199.333066 
L 111.819137 -199.319229 
L 113.730096 -199.304812 
L 115.641055 -199.289978 
L 117.552014 -199.274956 
L 119.462973 -199.26006 
L 121.373932 -199.245705 
L 123.28489 -199.23243 
L 125.195849 -199.220918 
L 127.106808 -199.21202 
L 129.017767 -199.206782 
L 130.928726 -199.206466 
L 132.839685 -199.212579 
L 134.750644 -199.226885 
L 136.661603 -199.251427 
L 138.572562 -199.288526 
L 140.483521 -199.340782 
L 142.394479 -199.411046 
L 144.305438 -199.502386 
L 146.216397 -199.618022 
L 148.127356 -199.761236 
L 150.038315 -199.935266 
L 151.949274 -200.143155 
L 153.860233 -200.387591 
L 155.771192 -200.670712 
L 157.682151 -200.993902 
L 159.59311 -201.357582 
L 161.504068 -201.760998 
L 163.415027 -202.202032 
L 165.325986 -202.677041 
L 167.236945 -203.18074 
L 169.147904 -203.706137 
L 171.058863 -204.24454 
L 172.969822 -204.78562 
L 174.880781 -205.317569 
L 176.79174 -205.827312 
L 178.702699 -206.300811 
L 180.613658 -206.723423 
L 182.524616 -207.080333 
L 184.435575 -207.357024 
L 186.346534 -207.5398 
L 188.257493 -207.616317 
L 190.168452 -207.576125 
L 192.079411 -207.411182 
L 193.99037 -207.116321 
L 195.901329 -206.689645 
L 197.812288 -206.132817 
L 199.723247 -205.45123 
L 201.634205 -204.654027 
L 203.545164 -203.753968 
L 205.456123 -202.767141 
L 207.367082 -201.712513 
L 209.278041 -200.611346 
L 211.189 -199.4865 
L 213.099959 -193.041066 
L 215.010918 -186.722245 
L 216.921877 -180.651829 
L 218.832836 -174.942243 
L 220.743795 -169.692551 
L 222.654753 -164.98521 
L 224.565712 -160.883748 
L 226.476671 -157.43144 
L 228.38763 -154.651021 
L 230.298589 -152.545358 
L 232.209548 -151.098992 
L 234.120507 -150.280376 
L 236.031466 -150.044624 
L 237.942425 -150.336562 
L 239.853384 -151.093887 
L 241.764342 -152.250238 
L 243.675301 -153.738029 
L 245.58626 -155.490926 
L 247.497219 -157.445886 
L 249.408178 -159.544715 
L 251.319137 -161.735154 
L 253.230096 -163.971504 
L 255.141055 -166.214864 
L 257.052014 -168.433025 
L 258.962973 -170.600121 
L 260.873932 -172.69609 
L 262.78489 -174.706028 
L 264.695849 -176.619492 
L 266.606808 -178.429803 
L 268.517767 -180.133378 
L 270.428726 -181.729122 
L 272.339685 -183.217889 
L 274.250644 -184.602018 
L 276.161603 -185.884948 
L 278.072562 -187.070895 
L 279.983521 -188.164594 
L 281.894479 -189.171098 
L 283.805438 -190.095618 
L 285.716397 -190.943399 
L 287.627356 -191.719633 
L 289.538315 -192.42939 
L 291.449274 -193.077565 
L 293.360233 -193.668851 
L 295.271192 -194.207715 
L 297.182151 -194.69838 
L 299.09311 -195.144825 
L 301.004068 -195.550779 
L 302.915027 -195.919725 
L 304.825986 -196.254906 
L 306.736945 -196.559333 
L 308.647904 -196.835792 
L 310.558863 -197.086856 
L 312.469822 -197.314896 
L 314.380781 -197.522094 
L 316.29174 -197.710449 
L 318.202699 -197.881799 
L 320.113658 -198.037822 
L 322.024616 -198.180055 
L 323.935575 -198.309903 
L 325.846534 -198.428648 
L 327.757493 -198.537461 
L 329.668452 -198.637415 
L 331.579411 -198.729487 
L 333.49037 -198.814575 
L 335.401329 -198.8935 
L 337.312288 -198.967019 
L 339.223247 -199.035829 
L 341.134205 -199.100576 
L 343.045164 -199.161863 
L 344.956123 -199.220252 
L 346.867082 -199.276274 
L 348.778041 -199.330433 
L 350.689 -199.383213 
L 350.689 -199.493914 
L 350.689 -199.493914 
L 348.778041 -199.497713 
L 346.867082 -199.501622 
L 344.956123 -199.505679 
L 343.045164 -199.509924 
L 341.134205 -199.514399 
L 339.223247 -199.519144 
L 337.312288 -199.524206 
L 335.401329 -199.529629 
L 333.49037 -199.535462 
L 331.579411 -199.541753 
L 329.668452 -199.548553 
L 327.757493 -199.555914 
L 325.846534 -199.563884 
L 323.935575 -199.572512 
L 322.024616 -199.581843 
L 320.113658 -199.591915 
L 318.202699 -199.602755 
L 316.29174 -199.614379 
L 314.380781 -199.626782 
L 312.469822 -199.639934 
L 310.558863 -199.653771 
L 308.647904 -199.668188 
L 306.736945 -199.683022 
L 304.825986 -199.698044 
L 302.915027 -199.71294 
L 301.004068 -199.727295 
L 299.09311 -199.74057 
L 297.182151 -199.752082 
L 295.271192 -199.76098 
L 293.360233 -199.766218 
L 291.449274 -199.766534 
L 289.538315 -199.760421 
L 287.627356 -199.746115 
L 285.716397 -199.721573 
L 283.805438 -199.684474 
L 281.894479 -199.632218 
L 279.983521 -199.561954 
L 278.072562 -199.470614 
L 276.161603 -199.354978 
L 274.250644 -199.211764 
L 272.339685 -199.037734 
L 270.428726 -198.829845 
L 268.517767 -198.585409 
L 266.606808 -198.302288 
L 264.695849 -197.979098 
L 262.78489 -197.615418 
L 260.873932 -197.212002 
L 258.962973 -196.770968 
L 257.052014 -196.295959 
L 255.141055 -195.79226 
L 253.230096 -195.266863 
L 251.319137 -194.72846 
L 249.408178 -194.18738 
L 247.497219 -193.655431 
L 245.58626 -193.145688 
L 243.675301 -192.672189 
L 241.764342 -192.249577 
L 239.853384 -191.892667 
L 237.942425 -191.615976 
L 236.031466 -191.4332 
L 234.120507 -191.356683 
L 232.209548 -191.396875 
L 230.298589 -191.561818 
L 228.38763 -191.856679 
L 226.476671 -192.283355 
L 224.565712 -192.840183 
L 222.654753 -193.52177 
L 220.743795 -194.318973 
L 218.832836 -195.219032 
L 216.921877 -196.205859 
L 215.010918 -197.260487 
L 213.099959 -198.361654 
L 211.189 -199.4865 
L 209.278041 -205.931934 
L 207.367082 -212.250755 
L 205.456123 -218.321171 
L 203.545164 -224.030757 
L 201.634205 -229.280449 
L 199.723247 -233.98779 
L 197.812288 -238.089252 
L 195.901329 -241.54156 
L 193.99037 -244.321979 
L 192.079411 -246.427642 
L 190.168452 -247.874008 
L 188.257493 -248.692624 
L 186.346534 -248.928376 
L 184.435575 -248.636438 
L 182.524616 -247.879113 
L 180.613658 -246.722762 
L 178.702699 -245.234971 
L 176.79174 -243.482074 
L 174.880781 -241.527114 
L 172.969822 -239.428285 
L 171.058863 -237.237846 
L 169.147904 -235.001496 
L 167.236945 -232.758136 
L 165.325986 -230.539975 
L 163.415027 -228.372879 
L 161.504068 -226.27691 
L 159.59311 -224.266972 
L 157.682151 -222.353508 
L 155.771192 -220.543197 
L 153.860233 -218.839622 
L 151.949274 -217.243878 
L 150.038315 -215.755111 
L 148.127356 -214.370982 
L 146.216397 -213.088052 
L 144.305438 -211.902105 
L 142.394479 -210.808406 
L 140.483521 -209.801902 
L 138.572562 -208.877382 
L 136.661603 -208.029601 
L 134.750644 -207.253367 
L 132.839685 -206.54361 
L 130.928726 -205.895435 
L 129.017767 -205.304149 
L 127.106808 -204.765285 
L 125.195849 -204.27462 
L 123.28489 -203.828175 
L 121.373932 -203.422221 
L 119.462973 -203.053275 
L 117.552014 -202.718094 
L 115.641055 -202.413667 
L 113.730096 -202.137208 
L 111.819137 -201.886144 
L 109.908178 -201.658104 
L 107.997219 -201.450906 
L 106.08626 -201.262551 
L 104.175301 -201.091201 
L 102.264342 -200.935178 
L 100.353384 -200.792945 
L 98.442425 -200.663097 
L 96.531466 -200.544352 
L 94.620507 -200.435539 
L 92.709548 -200.335585 
L 90.798589 -200.243513 
L 88.88763 -200.158425 
L 86.976671 -200.0795 
L 85.065712 -200.005981 
L 83.154753 -199.937171 
L 81.243795 -199.872424 
L 79.332836 -199.811137 
L 77.421877 -199.752748 
L 75.510918 -199.696726 
L 73.599959 -199.642567 
L 71.689 -199.589787 
z
" id="m8298e34e92" style="stroke:#006400;stroke-opacity:0.2;"/>
    </defs>
    <g clip-path="url(#pb4924bb498)">
     <use style="fill:#006400;fill-opacity:0.2;stroke:#006400;stroke-opacity:0.2;" x="0" xlink:href="#m8298e34e92" y="363.1755"/>
    </g>
   </g>
   <g id="matplotlib.axis_1">
    <g id="xtick_1">
     <g id="line2d_1">
      <defs>
       <path d="M 0 0 
L 0 -6 
" id="m29715b7f34" style="stroke:#000000;stroke-width:2;"/>
      </defs>
      <g>
       <use style="stroke:#000000;stroke-width:2;" x="71.689" xlink:href="#m29715b7f34" y="299.589"/>
      </g>
     </g>
     <g id="text_1">
      <!-- -73 -->
      <defs>
       <path d="M 4.890625 31.390625 
L 31.203125 31.390625 
L 31.203125 23.390625 
L 4.890625 23.390625 
z
" id="DejaVuSans-45"/>
       <path d="M 8.203125 72.90625 
L 55.078125 72.90625 
L 55.078125 68.703125 
L 28.609375 0 
L 18.3125 0 
L 43.21875 64.59375 
L 8.203125 64.59375 
z
" id="DejaVuSans-55"/>
       <path d="M 40.578125 39.3125 
Q 47.65625 37.796875 51.625 33 
Q 55.609375 28.21875 55.609375 21.1875 
Q 55.609375 10.40625 48.1875 4.484375 
Q 40.765625 -1.421875 27.09375 -1.421875 
Q 22.515625 -1.421875 17.65625 -0.515625 
Q 12.796875 0.390625 7.625 2.203125 
L 7.625 11.71875 
Q 11.71875 9.328125 16.59375 8.109375 
Q 21.484375 6.890625 26.8125 6.890625 
Q 36.078125 6.890625 40.9375 10.546875 
Q 45.796875 14.203125 45.796875 21.1875 
Q 45.796875 27.640625 41.28125 31.265625 
Q 36.765625 34.90625 28.71875 34.90625 
L 20.21875 34.90625 
L 20.21875 43.015625 
L 29.109375 43.015625 
Q 36.375 43.015625 40.234375 45.921875 
Q 44.09375 48.828125 44.09375 54.296875 
Q 44.09375 59.90625 40.109375 62.90625 
Q 36.140625 65.921875 28.71875 65.921875 
Q 24.65625 65.921875 20.015625 65.03125 
Q 15.375 64.15625 9.8125 62.3125 
L 9.8125 71.09375 
Q 15.4375 72.65625 20.34375 73.4375 
Q 25.25 74.21875 29.59375 74.21875 
Q 40.828125 74.21875 47.359375 69.109375 
Q 53.90625 64.015625 53.90625 55.328125 
Q 53.90625 49.265625 50.4375 45.09375 
Q 46.96875 40.921875 40.578125 39.3125 
z
" id="DejaVuSans-51"/>
      </defs>
      <g transform="translate(58.62275 315.2465)scale(0.16 -0.16)">
       <use xlink:href="#DejaVuSans-45"/>
       <use x="36.083984" xlink:href="#DejaVuSans-55"/>
       <use x="99.707031" xlink:href="#DejaVuSans-51"/>
      </g>
     </g>
    </g>
    <g id="xtick_2">
     <g id="line2d_2">
      <g>
       <use style="stroke:#000000;stroke-width:2;" x="115.641055" xlink:href="#m29715b7f34" y="299.589"/>
      </g>
     </g>
     <g id="text_2">
      <!-- -50 -->
      <defs>
       <path d="M 10.796875 72.90625 
L 49.515625 72.90625 
L 49.515625 64.59375 
L 19.828125 64.59375 
L 19.828125 46.734375 
Q 21.96875 47.46875 24.109375 47.828125 
Q 26.265625 48.1875 28.421875 48.1875 
Q 40.625 48.1875 47.75 41.5 
Q 54.890625 34.8125 54.890625 23.390625 
Q 54.890625 11.625 47.5625 5.09375 
Q 40.234375 -1.421875 26.90625 -1.421875 
Q 22.3125 -1.421875 17.546875 -0.640625 
Q 12.796875 0.140625 7.71875 1.703125 
L 7.71875 11.625 
Q 12.109375 9.234375 16.796875 8.0625 
Q 21.484375 6.890625 26.703125 6.890625 
Q 35.15625 6.890625 40.078125 11.328125 
Q 45.015625 15.765625 45.015625 23.390625 
Q 45.015625 31 40.078125 35.4375 
Q 35.15625 39.890625 26.703125 39.890625 
Q 22.75 39.890625 18.8125 39.015625 
Q 14.890625 38.140625 10.796875 36.28125 
z
" id="DejaVuSans-53"/>
       <path d="M 31.78125 66.40625 
Q 24.171875 66.40625 20.328125 58.90625 
Q 16.5 51.421875 16.5 36.375 
Q 16.5 21.390625 20.328125 13.890625 
Q 24.171875 6.390625 31.78125 6.390625 
Q 39.453125 6.390625 43.28125 13.890625 
Q 47.125 21.390625 47.125 36.375 
Q 47.125 51.421875 43.28125 58.90625 
Q 39.453125 66.40625 31.78125 66.40625 
z
M 31.78125 74.21875 
Q 44.046875 74.21875 50.515625 64.515625 
Q 56.984375 54.828125 56.984375 36.375 
Q 56.984375 17.96875 50.515625 8.265625 
Q 44.046875 -1.421875 31.78125 -1.421875 
Q 19.53125 -1.421875 13.0625 8.265625 
Q 6.59375 17.96875 6.59375 36.375 
Q 6.59375 54.828125 13.0625 64.515625 
Q 19.53125 74.21875 31.78125 74.21875 
z
" id="DejaVuSans-48"/>
      </defs>
      <g transform="translate(102.574805 315.2465)scale(0.16 -0.16)">
       <use xlink:href="#DejaVuSans-45"/>
       <use x="36.083984" xlink:href="#DejaVuSans-53"/>
       <use x="99.707031" xlink:href="#DejaVuSans-48"/>
      </g>
     </g>
    </g>
    <g id="xtick_3">
     <g id="line2d_3">
      <g>
       <use style="stroke:#000000;stroke-width:2;" x="163.415027" xlink:href="#m29715b7f34" y="299.589"/>
      </g>
     </g>
     <g id="text_3">
      <!-- -25 -->
      <defs>
       <path d="M 19.1875 8.296875 
L 53.609375 8.296875 
L 53.609375 0 
L 7.328125 0 
L 7.328125 8.296875 
Q 12.9375 14.109375 22.625 23.890625 
Q 32.328125 33.6875 34.8125 36.53125 
Q 39.546875 41.84375 41.421875 45.53125 
Q 43.3125 49.21875 43.3125 52.78125 
Q 43.3125 58.59375 39.234375 62.25 
Q 35.15625 65.921875 28.609375 65.921875 
Q 23.96875 65.921875 18.8125 64.3125 
Q 13.671875 62.703125 7.8125 59.421875 
L 7.8125 69.390625 
Q 13.765625 71.78125 18.9375 73 
Q 24.125 74.21875 28.421875 74.21875 
Q 39.75 74.21875 46.484375 68.546875 
Q 53.21875 62.890625 53.21875 53.421875 
Q 53.21875 48.921875 51.53125 44.890625 
Q 49.859375 40.875 45.40625 35.40625 
Q 44.1875 33.984375 37.640625 27.21875 
Q 31.109375 20.453125 19.1875 8.296875 
z
" id="DejaVuSans-50"/>
      </defs>
      <g transform="translate(150.348777 315.2465)scale(0.16 -0.16)">
       <use xlink:href="#DejaVuSans-45"/>
       <use x="36.083984" xlink:href="#DejaVuSans-50"/>
       <use x="99.707031" xlink:href="#DejaVuSans-53"/>
      </g>
     </g>
    </g>
    <g id="xtick_4">
     <g id="line2d_4">
      <g>
       <use style="stroke:#000000;stroke-width:2;" x="211.189" xlink:href="#m29715b7f34" y="299.589"/>
      </g>
     </g>
     <g id="text_4">
      <!-- 0 -->
      <g transform="translate(206.099 315.2465)scale(0.16 -0.16)">
       <use xlink:href="#DejaVuSans-48"/>
      </g>
     </g>
    </g>
    <g id="xtick_5">
     <g id="line2d_5">
      <g>
       <use style="stroke:#000000;stroke-width:2;" x="258.962973" xlink:href="#m29715b7f34" y="299.589"/>
      </g>
     </g>
     <g id="text_5">
      <!-- 25 -->
      <g transform="translate(248.782973 315.2465)scale(0.16 -0.16)">
       <use xlink:href="#DejaVuSans-50"/>
       <use x="63.623047" xlink:href="#DejaVuSans-53"/>
      </g>
     </g>
    </g>
    <g id="xtick_6">
     <g id="line2d_6">
      <g>
       <use style="stroke:#000000;stroke-width:2;" x="306.736945" xlink:href="#m29715b7f34" y="299.589"/>
      </g>
     </g>
     <g id="text_6">
      <!-- 50 -->
      <g transform="translate(296.556945 315.2465)scale(0.16 -0.16)">
       <use xlink:href="#DejaVuSans-53"/>
       <use x="63.623047" xlink:href="#DejaVuSans-48"/>
      </g>
     </g>
    </g>
    <g id="xtick_7">
     <g id="line2d_7">
      <g>
       <use style="stroke:#000000;stroke-width:2;" x="350.689" xlink:href="#m29715b7f34" y="299.589"/>
      </g>
     </g>
     <g id="text_7">
      <!-- 73 -->
      <g transform="translate(340.509 315.2465)scale(0.16 -0.16)">
       <use xlink:href="#DejaVuSans-55"/>
       <use x="63.623047" xlink:href="#DejaVuSans-51"/>
      </g>
     </g>
    </g>
    <g id="text_8">
     <!-- Previous Tumor - Current Tumor -->
     <defs>
      <path d="M 19.671875 64.796875 
L 19.671875 37.40625 
L 32.078125 37.40625 
Q 38.96875 37.40625 42.71875 40.96875 
Q 46.484375 44.53125 46.484375 51.125 
Q 46.484375 57.671875 42.71875 61.234375 
Q 38.96875 64.796875 32.078125 64.796875 
z
M 9.8125 72.90625 
L 32.078125 72.90625 
Q 44.34375 72.90625 50.609375 67.359375 
Q 56.890625 61.8125 56.890625 51.125 
Q 56.890625 40.328125 50.609375 34.8125 
Q 44.34375 29.296875 32.078125 29.296875 
L 19.671875 29.296875 
L 19.671875 0 
L 9.8125 0 
z
" id="DejaVuSans-80"/>
      <path d="M 41.109375 46.296875 
Q 39.59375 47.171875 37.8125 47.578125 
Q 36.03125 48 33.890625 48 
Q 26.265625 48 22.1875 43.046875 
Q 18.109375 38.09375 18.109375 28.8125 
L 18.109375 0 
L 9.078125 0 
L 9.078125 54.6875 
L 18.109375 54.6875 
L 18.109375 46.1875 
Q 20.953125 51.171875 25.484375 53.578125 
Q 30.03125 56 36.53125 56 
Q 37.453125 56 38.578125 55.875 
Q 39.703125 55.765625 41.0625 55.515625 
z
" id="DejaVuSans-114"/>
      <path d="M 56.203125 29.59375 
L 56.203125 25.203125 
L 14.890625 25.203125 
Q 15.484375 15.921875 20.484375 11.0625 
Q 25.484375 6.203125 34.421875 6.203125 
Q 39.59375 6.203125 44.453125 7.46875 
Q 49.3125 8.734375 54.109375 11.28125 
L 54.109375 2.78125 
Q 49.265625 0.734375 44.1875 -0.34375 
Q 39.109375 -1.421875 33.890625 -1.421875 
Q 20.796875 -1.421875 13.15625 6.1875 
Q 5.515625 13.8125 5.515625 26.8125 
Q 5.515625 40.234375 12.765625 48.109375 
Q 20.015625 56 32.328125 56 
Q 43.359375 56 49.78125 48.890625 
Q 56.203125 41.796875 56.203125 29.59375 
z
M 47.21875 32.234375 
Q 47.125 39.59375 43.09375 43.984375 
Q 39.0625 48.390625 32.421875 48.390625 
Q 24.90625 48.390625 20.390625 44.140625 
Q 15.875 39.890625 15.1875 32.171875 
z
" id="DejaVuSans-101"/>
      <path d="M 2.984375 54.6875 
L 12.5 54.6875 
L 29.59375 8.796875 
L 46.6875 54.6875 
L 56.203125 54.6875 
L 35.6875 0 
L 23.484375 0 
z
" id="DejaVuSans-118"/>
      <path d="M 9.421875 54.6875 
L 18.40625 54.6875 
L 18.40625 0 
L 9.421875 0 
z
M 9.421875 75.984375 
L 18.40625 75.984375 
L 18.40625 64.59375 
L 9.421875 64.59375 
z
" id="DejaVuSans-105"/>
      <path d="M 30.609375 48.390625 
Q 23.390625 48.390625 19.1875 42.75 
Q 14.984375 37.109375 14.984375 27.296875 
Q 14.984375 17.484375 19.15625 11.84375 
Q 23.34375 6.203125 30.609375 6.203125 
Q 37.796875 6.203125 41.984375 11.859375 
Q 46.1875 17.53125 46.1875 27.296875 
Q 46.1875 37.015625 41.984375 42.703125 
Q 37.796875 48.390625 30.609375 48.390625 
z
M 30.609375 56 
Q 42.328125 56 49.015625 48.375 
Q 55.71875 40.765625 55.71875 27.296875 
Q 55.71875 13.875 49.015625 6.21875 
Q 42.328125 -1.421875 30.609375 -1.421875 
Q 18.84375 -1.421875 12.171875 6.21875 
Q 5.515625 13.875 5.515625 27.296875 
Q 5.515625 40.765625 12.171875 48.375 
Q 18.84375 56 30.609375 56 
z
" id="DejaVuSans-111"/>
      <path d="M 8.5 21.578125 
L 8.5 54.6875 
L 17.484375 54.6875 
L 17.484375 21.921875 
Q 17.484375 14.15625 20.5 10.265625 
Q 23.53125 6.390625 29.59375 6.390625 
Q 36.859375 6.390625 41.078125 11.03125 
Q 45.3125 15.671875 45.3125 23.6875 
L 45.3125 54.6875 
L 54.296875 54.6875 
L 54.296875 0 
L 45.3125 0 
L 45.3125 8.40625 
Q 42.046875 3.421875 37.71875 1 
Q 33.40625 -1.421875 27.6875 -1.421875 
Q 18.265625 -1.421875 13.375 4.4375 
Q 8.5 10.296875 8.5 21.578125 
z
M 31.109375 56 
z
" id="DejaVuSans-117"/>
      <path d="M 44.28125 53.078125 
L 44.28125 44.578125 
Q 40.484375 46.53125 36.375 47.5 
Q 32.28125 48.484375 27.875 48.484375 
Q 21.1875 48.484375 17.84375 46.4375 
Q 14.5 44.390625 14.5 40.28125 
Q 14.5 37.15625 16.890625 35.375 
Q 19.28125 33.59375 26.515625 31.984375 
L 29.59375 31.296875 
Q 39.15625 29.25 43.1875 25.515625 
Q 47.21875 21.78125 47.21875 15.09375 
Q 47.21875 7.46875 41.1875 3.015625 
Q 35.15625 -1.421875 24.609375 -1.421875 
Q 20.21875 -1.421875 15.453125 -0.5625 
Q 10.6875 0.296875 5.421875 2 
L 5.421875 11.28125 
Q 10.40625 8.6875 15.234375 7.390625 
Q 20.0625 6.109375 24.8125 6.109375 
Q 31.15625 6.109375 34.5625 8.28125 
Q 37.984375 10.453125 37.984375 14.40625 
Q 37.984375 18.0625 35.515625 20.015625 
Q 33.0625 21.96875 24.703125 23.78125 
L 21.578125 24.515625 
Q 13.234375 26.265625 9.515625 29.90625 
Q 5.8125 33.546875 5.8125 39.890625 
Q 5.8125 47.609375 11.28125 51.796875 
Q 16.75 56 26.8125 56 
Q 31.78125 56 36.171875 55.265625 
Q 40.578125 54.546875 44.28125 53.078125 
z
" id="DejaVuSans-115"/>
      <path id="DejaVuSans-32"/>
      <path d="M -0.296875 72.90625 
L 61.375 72.90625 
L 61.375 64.59375 
L 35.5 64.59375 
L 35.5 0 
L 25.59375 0 
L 25.59375 64.59375 
L -0.296875 64.59375 
z
" id="DejaVuSans-84"/>
      <path d="M 52 44.1875 
Q 55.375 50.25 60.0625 53.125 
Q 64.75 56 71.09375 56 
Q 79.640625 56 84.28125 50.015625 
Q 88.921875 44.046875 88.921875 33.015625 
L 88.921875 0 
L 79.890625 0 
L 79.890625 32.71875 
Q 79.890625 40.578125 77.09375 44.375 
Q 74.3125 48.1875 68.609375 48.1875 
Q 61.625 48.1875 57.5625 43.546875 
Q 53.515625 38.921875 53.515625 30.90625 
L 53.515625 0 
L 44.484375 0 
L 44.484375 32.71875 
Q 44.484375 40.625 41.703125 44.40625 
Q 38.921875 48.1875 33.109375 48.1875 
Q 26.21875 48.1875 22.15625 43.53125 
Q 18.109375 38.875 18.109375 30.90625 
L 18.109375 0 
L 9.078125 0 
L 9.078125 54.6875 
L 18.109375 54.6875 
L 18.109375 46.1875 
Q 21.1875 51.21875 25.484375 53.609375 
Q 29.78125 56 35.6875 56 
Q 41.65625 56 45.828125 52.96875 
Q 50 49.953125 52 44.1875 
z
" id="DejaVuSans-109"/>
      <path d="M 64.40625 67.28125 
L 64.40625 56.890625 
Q 59.421875 61.53125 53.78125 63.8125 
Q 48.140625 66.109375 41.796875 66.109375 
Q 29.296875 66.109375 22.65625 58.46875 
Q 16.015625 50.828125 16.015625 36.375 
Q 16.015625 21.96875 22.65625 14.328125 
Q 29.296875 6.6875 41.796875 6.6875 
Q 48.140625 6.6875 53.78125 8.984375 
Q 59.421875 11.28125 64.40625 15.921875 
L 64.40625 5.609375 
Q 59.234375 2.09375 53.4375 0.328125 
Q 47.65625 -1.421875 41.21875 -1.421875 
Q 24.65625 -1.421875 15.125 8.703125 
Q 5.609375 18.84375 5.609375 36.375 
Q 5.609375 53.953125 15.125 64.078125 
Q 24.65625 74.21875 41.21875 74.21875 
Q 47.75 74.21875 53.53125 72.484375 
Q 59.328125 70.75 64.40625 67.28125 
z
" id="DejaVuSans-67"/>
      <path d="M 54.890625 33.015625 
L 54.890625 0 
L 45.90625 0 
L 45.90625 32.71875 
Q 45.90625 40.484375 42.875 44.328125 
Q 39.84375 48.1875 33.796875 48.1875 
Q 26.515625 48.1875 22.3125 43.546875 
Q 18.109375 38.921875 18.109375 30.90625 
L 18.109375 0 
L 9.078125 0 
L 9.078125 54.6875 
L 18.109375 54.6875 
L 18.109375 46.1875 
Q 21.34375 51.125 25.703125 53.5625 
Q 30.078125 56 35.796875 56 
Q 45.21875 56 50.046875 50.171875 
Q 54.890625 44.34375 54.890625 33.015625 
z
" id="DejaVuSans-110"/>
      <path d="M 18.3125 70.21875 
L 18.3125 54.6875 
L 36.8125 54.6875 
L 36.8125 47.703125 
L 18.3125 47.703125 
L 18.3125 18.015625 
Q 18.3125 11.328125 20.140625 9.421875 
Q 21.96875 7.515625 27.59375 7.515625 
L 36.8125 7.515625 
L 36.8125 0 
L 27.59375 0 
Q 17.1875 0 13.234375 3.875 
Q 9.28125 7.765625 9.28125 18.015625 
L 9.28125 47.703125 
L 2.6875 47.703125 
L 2.6875 54.6875 
L 9.28125 54.6875 
L 9.28125 70.21875 
z
" id="DejaVuSans-116"/>
     </defs>
     <g transform="translate(81.82525 334.7315)scale(0.16 -0.16)">
      <use xlink:href="#DejaVuSans-80"/>
      <use x="60.287109" xlink:href="#DejaVuSans-114"/>
      <use x="101.369141" xlink:href="#DejaVuSans-101"/>
      <use x="162.892578" xlink:href="#DejaVuSans-118"/>
      <use x="222.072266" xlink:href="#DejaVuSans-105"/>
      <use x="249.855469" xlink:href="#DejaVuSans-111"/>
      <use x="311.037109" xlink:href="#DejaVuSans-117"/>
      <use x="374.416016" xlink:href="#DejaVuSans-115"/>
      <use x="426.515625" xlink:href="#DejaVuSans-32"/>
      <use x="458.302734" xlink:href="#DejaVuSans-84"/>
      <use x="519.152344" xlink:href="#DejaVuSans-117"/>
      <use x="582.53125" xlink:href="#DejaVuSans-109"/>
      <use x="679.943359" xlink:href="#DejaVuSans-111"/>
      <use x="741.125" xlink:href="#DejaVuSans-114"/>
      <use x="782.238281" xlink:href="#DejaVuSans-32"/>
      <use x="814.025391" xlink:href="#DejaVuSans-45"/>
      <use x="850.109375" xlink:href="#DejaVuSans-32"/>
      <use x="881.896484" xlink:href="#DejaVuSans-67"/>
      <use x="951.720703" xlink:href="#DejaVuSans-117"/>
      <use x="1015.099609" xlink:href="#DejaVuSans-114"/>
      <use x="1056.197266" xlink:href="#DejaVuSans-114"/>
      <use x="1097.279297" xlink:href="#DejaVuSans-101"/>
      <use x="1158.802734" xlink:href="#DejaVuSans-110"/>
      <use x="1222.181641" xlink:href="#DejaVuSans-116"/>
      <use x="1261.390625" xlink:href="#DejaVuSans-32"/>
      <use x="1293.177734" xlink:href="#DejaVuSans-84"/>
      <use x="1354.027344" xlink:href="#DejaVuSans-117"/>
      <use x="1417.40625" xlink:href="#DejaVuSans-109"/>
      <use x="1514.818359" xlink:href="#DejaVuSans-111"/>
      <use x="1576" xlink:href="#DejaVuSans-114"/>
     </g>
     <!--  (morph units) -->
     <defs>
      <path d="M 31 75.875 
Q 24.46875 64.65625 21.28125 53.65625 
Q 18.109375 42.671875 18.109375 31.390625 
Q 18.109375 20.125 21.3125 9.0625 
Q 24.515625 -2 31 -13.1875 
L 23.1875 -13.1875 
Q 15.875 -1.703125 12.234375 9.375 
Q 8.59375 20.453125 8.59375 31.390625 
Q 8.59375 42.28125 12.203125 53.3125 
Q 15.828125 64.359375 23.1875 75.875 
z
" id="DejaVuSans-40"/>
      <path d="M 18.109375 8.203125 
L 18.109375 -20.796875 
L 9.078125 -20.796875 
L 9.078125 54.6875 
L 18.109375 54.6875 
L 18.109375 46.390625 
Q 20.953125 51.265625 25.265625 53.625 
Q 29.59375 56 35.59375 56 
Q 45.5625 56 51.78125 48.09375 
Q 58.015625 40.1875 58.015625 27.296875 
Q 58.015625 14.40625 51.78125 6.484375 
Q 45.5625 -1.421875 35.59375 -1.421875 
Q 29.59375 -1.421875 25.265625 0.953125 
Q 20.953125 3.328125 18.109375 8.203125 
z
M 48.6875 27.296875 
Q 48.6875 37.203125 44.609375 42.84375 
Q 40.53125 48.484375 33.40625 48.484375 
Q 26.265625 48.484375 22.1875 42.84375 
Q 18.109375 37.203125 18.109375 27.296875 
Q 18.109375 17.390625 22.1875 11.75 
Q 26.265625 6.109375 33.40625 6.109375 
Q 40.53125 6.109375 44.609375 11.75 
Q 48.6875 17.390625 48.6875 27.296875 
z
" id="DejaVuSans-112"/>
      <path d="M 54.890625 33.015625 
L 54.890625 0 
L 45.90625 0 
L 45.90625 32.71875 
Q 45.90625 40.484375 42.875 44.328125 
Q 39.84375 48.1875 33.796875 48.1875 
Q 26.515625 48.1875 22.3125 43.546875 
Q 18.109375 38.921875 18.109375 30.90625 
L 18.109375 0 
L 9.078125 0 
L 9.078125 75.984375 
L 18.109375 75.984375 
L 18.109375 46.1875 
Q 21.34375 51.125 25.703125 53.5625 
Q 30.078125 56 35.796875 56 
Q 45.21875 56 50.046875 50.171875 
Q 54.890625 44.34375 54.890625 33.015625 
z
" id="DejaVuSans-104"/>
      <path d="M 8.015625 75.875 
L 15.828125 75.875 
Q 23.140625 64.359375 26.78125 53.3125 
Q 30.421875 42.28125 30.421875 31.390625 
Q 30.421875 20.453125 26.78125 9.375 
Q 23.140625 -1.703125 15.828125 -13.1875 
L 8.015625 -13.1875 
Q 14.5 -2 17.703125 9.0625 
Q 20.90625 20.125 20.90625 31.390625 
Q 20.90625 42.671875 17.703125 53.65625 
Q 14.5 64.65625 8.015625 75.875 
z
" id="DejaVuSans-41"/>
     </defs>
     <g transform="translate(154.07025 352.648)scale(0.16 -0.16)">
      <use xlink:href="#DejaVuSans-32"/>
      <use x="31.787109" xlink:href="#DejaVuSans-40"/>
      <use x="70.800781" xlink:href="#DejaVuSans-109"/>
      <use x="168.212891" xlink:href="#DejaVuSans-111"/>
      <use x="229.394531" xlink:href="#DejaVuSans-114"/>
      <use x="270.507812" xlink:href="#DejaVuSans-112"/>
      <use x="333.984375" xlink:href="#DejaVuSans-104"/>
      <use x="397.363281" xlink:href="#DejaVuSans-32"/>
      <use x="429.150391" xlink:href="#DejaVuSans-117"/>
      <use x="492.529297" xlink:href="#DejaVuSans-110"/>
      <use x="555.908203" xlink:href="#DejaVuSans-105"/>
      <use x="583.691406" xlink:href="#DejaVuSans-116"/>
      <use x="622.900391" xlink:href="#DejaVuSans-115"/>
      <use x="675" xlink:href="#DejaVuSans-41"/>
     </g>
    </g>
   </g>
   <g id="matplotlib.axis_2">
    <g id="ytick_1">
     <g id="line2d_8">
      <defs>
       <path d="M 0 0 
L 6 0 
" id="m5108af36a1" style="stroke:#000000;stroke-width:2;"/>
      </defs>
      <g>
       <use style="stroke:#000000;stroke-width:2;" x="71.689" xlink:href="#m5108af36a1" y="299.589"/>
      </g>
     </g>
     <g id="text_9">
      <!-- −3 -->
      <defs>
       <path d="M 10.59375 35.5 
L 73.1875 35.5 
L 73.1875 27.203125 
L 10.59375 27.203125 
z
" id="DejaVuSans-8722"/>
      </defs>
      <g transform="translate(44.6015 305.66775)scale(0.16 -0.16)">
       <use xlink:href="#DejaVuSans-8722"/>
       <use x="83.789062" xlink:href="#DejaVuSans-51"/>
      </g>
     </g>
    </g>
    <g id="ytick_2">
     <g id="line2d_9">
      <g>
       <use style="stroke:#000000;stroke-width:2;" x="71.689" xlink:href="#m5108af36a1" y="254.289"/>
      </g>
     </g>
     <g id="text_10">
      <!-- −2 -->
      <g transform="translate(44.6015 260.36775)scale(0.16 -0.16)">
       <use xlink:href="#DejaVuSans-8722"/>
       <use x="83.789062" xlink:href="#DejaVuSans-50"/>
      </g>
     </g>
    </g>
    <g id="ytick_3">
     <g id="line2d_10">
      <g>
       <use style="stroke:#000000;stroke-width:2;" x="71.689" xlink:href="#m5108af36a1" y="208.989"/>
      </g>
     </g>
     <g id="text_11">
      <!-- −1 -->
      <defs>
       <path d="M 12.40625 8.296875 
L 28.515625 8.296875 
L 28.515625 63.921875 
L 10.984375 60.40625 
L 10.984375 69.390625 
L 28.421875 72.90625 
L 38.28125 72.90625 
L 38.28125 8.296875 
L 54.390625 8.296875 
L 54.390625 0 
L 12.40625 0 
z
" id="DejaVuSans-49"/>
      </defs>
      <g transform="translate(44.6015 215.06775)scale(0.16 -0.16)">
       <use xlink:href="#DejaVuSans-8722"/>
       <use x="83.789062" xlink:href="#DejaVuSans-49"/>
      </g>
     </g>
    </g>
    <g id="ytick_4">
     <g id="line2d_11">
      <g>
       <use style="stroke:#000000;stroke-width:2;" x="71.689" xlink:href="#m5108af36a1" y="163.689"/>
      </g>
     </g>
     <g id="text_12">
      <!-- 0 -->
      <g transform="translate(58.009 169.76775)scale(0.16 -0.16)">
       <use xlink:href="#DejaVuSans-48"/>
      </g>
     </g>
    </g>
    <g id="ytick_5">
     <g id="line2d_12">
      <g>
       <use style="stroke:#000000;stroke-width:2;" x="71.689" xlink:href="#m5108af36a1" y="118.389"/>
      </g>
     </g>
     <g id="text_13">
      <!-- 1 -->
      <g transform="translate(58.009 124.46775)scale(0.16 -0.16)">
       <use xlink:href="#DejaVuSans-49"/>
      </g>
     </g>
    </g>
    <g id="ytick_6">
     <g id="line2d_13">
      <g>
       <use style="stroke:#000000;stroke-width:2;" x="71.689" xlink:href="#m5108af36a1" y="73.089"/>
      </g>
     </g>
     <g id="text_14">
      <!-- 2 -->
      <g transform="translate(58.009 79.16775)scale(0.16 -0.16)">
       <use xlink:href="#DejaVuSans-50"/>
      </g>
     </g>
    </g>
    <g id="ytick_7">
     <g id="line2d_14">
      <g>
       <use style="stroke:#000000;stroke-width:2;" x="71.689" xlink:href="#m5108af36a1" y="27.789"/>
      </g>
     </g>
     <g id="text_15">
      <!-- 3 -->
      <g transform="translate(58.009 33.86775)scale(0.16 -0.16)">
       <use xlink:href="#DejaVuSans-51"/>
      </g>
     </g>
    </g>
    <g id="text_16">
     <!-- Response Error on Current Trial -->
     <defs>
      <path d="M 44.390625 34.1875 
Q 47.5625 33.109375 50.5625 29.59375 
Q 53.5625 26.078125 56.59375 19.921875 
L 66.609375 0 
L 56 0 
L 46.6875 18.703125 
Q 43.0625 26.03125 39.671875 28.421875 
Q 36.28125 30.8125 30.421875 30.8125 
L 19.671875 30.8125 
L 19.671875 0 
L 9.8125 0 
L 9.8125 72.90625 
L 32.078125 72.90625 
Q 44.578125 72.90625 50.734375 67.671875 
Q 56.890625 62.453125 56.890625 51.90625 
Q 56.890625 45.015625 53.6875 40.46875 
Q 50.484375 35.9375 44.390625 34.1875 
z
M 19.671875 64.796875 
L 19.671875 38.921875 
L 32.078125 38.921875 
Q 39.203125 38.921875 42.84375 42.21875 
Q 46.484375 45.515625 46.484375 51.90625 
Q 46.484375 58.296875 42.84375 61.546875 
Q 39.203125 64.796875 32.078125 64.796875 
z
" id="DejaVuSans-82"/>
      <path d="M 9.8125 72.90625 
L 55.90625 72.90625 
L 55.90625 64.59375 
L 19.671875 64.59375 
L 19.671875 43.015625 
L 54.390625 43.015625 
L 54.390625 34.71875 
L 19.671875 34.71875 
L 19.671875 8.296875 
L 56.78125 8.296875 
L 56.78125 0 
L 9.8125 0 
z
" id="DejaVuSans-69"/>
      <path d="M 34.28125 27.484375 
Q 23.390625 27.484375 19.1875 25 
Q 14.984375 22.515625 14.984375 16.5 
Q 14.984375 11.71875 18.140625 8.90625 
Q 21.296875 6.109375 26.703125 6.109375 
Q 34.1875 6.109375 38.703125 11.40625 
Q 43.21875 16.703125 43.21875 25.484375 
L 43.21875 27.484375 
z
M 52.203125 31.203125 
L 52.203125 0 
L 43.21875 0 
L 43.21875 8.296875 
Q 40.140625 3.328125 35.546875 0.953125 
Q 30.953125 -1.421875 24.3125 -1.421875 
Q 15.921875 -1.421875 10.953125 3.296875 
Q 6 8.015625 6 15.921875 
Q 6 25.140625 12.171875 29.828125 
Q 18.359375 34.515625 30.609375 34.515625 
L 43.21875 34.515625 
L 43.21875 35.40625 
Q 43.21875 41.609375 39.140625 45 
Q 35.0625 48.390625 27.6875 48.390625 
Q 23 48.390625 18.546875 47.265625 
Q 14.109375 46.140625 10.015625 43.890625 
L 10.015625 52.203125 
Q 14.9375 54.109375 19.578125 55.046875 
Q 24.21875 56 28.609375 56 
Q 40.484375 56 46.34375 49.84375 
Q 52.203125 43.703125 52.203125 31.203125 
z
" id="DejaVuSans-97"/>
      <path d="M 9.421875 75.984375 
L 18.40625 75.984375 
L 18.40625 0 
L 9.421875 0 
z
" id="DejaVuSans-108"/>
     </defs>
     <g transform="translate(19.3575 290.27775)rotate(-90)scale(0.16 -0.16)">
      <use xlink:href="#DejaVuSans-82"/>
      <use x="69.419922" xlink:href="#DejaVuSans-101"/>
      <use x="130.943359" xlink:href="#DejaVuSans-115"/>
      <use x="183.042969" xlink:href="#DejaVuSans-112"/>
      <use x="246.519531" xlink:href="#DejaVuSans-111"/>
      <use x="307.701172" xlink:href="#DejaVuSans-110"/>
      <use x="371.080078" xlink:href="#DejaVuSans-115"/>
      <use x="423.179688" xlink:href="#DejaVuSans-101"/>
      <use x="484.703125" xlink:href="#DejaVuSans-32"/>
      <use x="516.490234" xlink:href="#DejaVuSans-69"/>
      <use x="579.673828" xlink:href="#DejaVuSans-114"/>
      <use x="620.771484" xlink:href="#DejaVuSans-114"/>
      <use x="661.853516" xlink:href="#DejaVuSans-111"/>
      <use x="723.035156" xlink:href="#DejaVuSans-114"/>
      <use x="764.148438" xlink:href="#DejaVuSans-32"/>
      <use x="795.935547" xlink:href="#DejaVuSans-111"/>
      <use x="857.117188" xlink:href="#DejaVuSans-110"/>
      <use x="920.496094" xlink:href="#DejaVuSans-32"/>
      <use x="952.283203" xlink:href="#DejaVuSans-67"/>
      <use x="1022.107422" xlink:href="#DejaVuSans-117"/>
      <use x="1085.486328" xlink:href="#DejaVuSans-114"/>
      <use x="1126.583984" xlink:href="#DejaVuSans-114"/>
      <use x="1167.666016" xlink:href="#DejaVuSans-101"/>
      <use x="1229.189453" xlink:href="#DejaVuSans-110"/>
      <use x="1292.568359" xlink:href="#DejaVuSans-116"/>
      <use x="1331.777344" xlink:href="#DejaVuSans-32"/>
      <use x="1363.564453" xlink:href="#DejaVuSans-84"/>
      <use x="1424.429688" xlink:href="#DejaVuSans-114"/>
      <use x="1465.542969" xlink:href="#DejaVuSans-105"/>
      <use x="1493.326172" xlink:href="#DejaVuSans-97"/>
      <use x="1554.605469" xlink:href="#DejaVuSans-108"/>
     </g>
     <!--  (morph units) -->
     <g transform="translate(37.274 220.80775)rotate(-90)scale(0.16 -0.16)">
      <use xlink:href="#DejaVuSans-32"/>
      <use x="31.787109" xlink:href="#DejaVuSans-40"/>
      <use x="70.800781" xlink:href="#DejaVuSans-109"/>
      <use x="168.212891" xlink:href="#DejaVuSans-111"/>
      <use x="229.394531" xlink:href="#DejaVuSans-114"/>
      <use x="270.507812" xlink:href="#DejaVuSans-112"/>
      <use x="333.984375" xlink:href="#DejaVuSans-104"/>
      <use x="397.363281" xlink:href="#DejaVuSans-32"/>
      <use x="429.150391" xlink:href="#DejaVuSans-117"/>
      <use x="492.529297" xlink:href="#DejaVuSans-110"/>
      <use x="555.908203" xlink:href="#DejaVuSans-105"/>
      <use x="583.691406" xlink:href="#DejaVuSans-116"/>
      <use x="622.900391" xlink:href="#DejaVuSans-115"/>
      <use x="675" xlink:href="#DejaVuSans-41"/>
     </g>
    </g>
   </g>
   <g id="line2d_15">
    <path clip-path="url(#pb4924bb498)" d="M 71.689 158.059402 
L 75.510918 166.317839 
L 77.421877 161.70271 
L 79.332836 160.802969 
L 81.243795 154.836248 
L 83.154753 163.935134 
L 85.065712 160.920713 
L 86.976671 161.110159 
L 88.88763 157.768423 
L 90.798589 152.75458 
L 92.709548 148.849073 
L 94.620507 149.913991 
L 96.531466 140.013853 
L 98.442425 138.331494 
L 100.353384 146.175032 
L 102.264342 144.702681 
L 104.175301 151.747006 
L 106.08626 150.585457 
L 107.997219 157.222383 
L 109.908178 155.883568 
L 111.819137 162.095759 
L 113.730096 156.793847 
L 115.641055 156.002805 
L 117.552014 163.407278 
L 119.462973 160.173524 
L 121.373932 153.362428 
L 123.28489 156.887724 
L 125.195849 158.185902 
L 127.106808 159.22558 
L 129.017767 161.229401 
L 130.928726 156.801964 
L 132.839685 169.103709 
L 134.750644 162.434245 
L 136.661603 169.595718 
L 138.572562 162.177465 
L 140.483521 161.231727 
L 142.394479 155.389064 
L 144.305438 163.051607 
L 146.216397 169.74697 
L 148.127356 174.848507 
L 150.038315 171.416911 
L 151.949274 165.05676 
L 153.860233 166.674958 
L 155.771192 178.534334 
L 157.682151 186.936585 
L 159.59311 185.228452 
L 161.504068 188.506186 
L 165.325986 171.731783 
L 167.236945 166.872069 
L 169.147904 163.233879 
L 171.058863 155.120944 
L 172.969822 156.858343 
L 174.880781 157.574213 
L 176.79174 152.160537 
L 178.702699 149.7559 
L 180.613658 151.378627 
L 182.524616 148.679853 
L 184.435575 149.367747 
L 188.257493 153.620958 
L 190.168452 155.876189 
L 192.079411 148.254711 
L 193.99037 162.790231 
L 195.901329 161.564917 
L 197.812288 165.364243 
L 199.723247 160.931433 
L 201.634205 168.48391 
L 203.545164 167.50402 
L 205.456123 170.673267 
L 207.367082 167.080446 
L 209.278041 168.708408 
L 211.189 180.602024 
L 213.099959 178.890838 
L 215.010918 175.203209 
L 216.921877 174.114563 
L 218.832836 171.446661 
L 220.743795 167.772103 
L 222.654753 170.711352 
L 224.565712 176.151479 
L 226.476671 174.586104 
L 228.38763 172.1532 
L 230.298589 177.154262 
L 232.209548 168.759662 
L 234.120507 176.663413 
L 236.031466 186.082885 
L 237.942425 192.058646 
L 239.853384 192.433941 
L 241.764342 193.452294 
L 243.675301 197.728086 
L 245.58626 207.44875 
L 247.497219 207.954237 
L 249.408178 206.306156 
L 251.319137 202.879928 
L 253.230096 183.819237 
L 255.141055 180.090837 
L 257.052014 185.618206 
L 258.962973 183.830091 
L 260.873932 182.900251 
L 262.78489 176.854342 
L 264.695849 172.460965 
L 266.606808 164.13573 
L 268.517767 170.431897 
L 270.428726 169.827314 
L 272.339685 176.783236 
L 274.250644 184.844344 
L 276.161603 188.238292 
L 278.072562 178.641164 
L 279.983521 178.31134 
L 281.894479 180.510393 
L 283.805438 181.537866 
L 285.716397 184.059375 
L 287.627356 189.911245 
L 289.538315 178.798914 
L 291.449274 180.683936 
L 293.360233 174.166761 
L 295.271192 158.404445 
L 299.09311 154.131082 
L 301.004068 154.515359 
L 302.915027 161.257282 
L 304.825986 145.045873 
L 306.736945 146.051488 
L 308.647904 141.651437 
L 310.558863 151.107002 
L 312.469822 162.6315 
L 314.380781 165.376362 
L 316.29174 157.33268 
L 318.202699 159.251997 
L 320.113658 153.303453 
L 322.024616 155.50011 
L 323.935575 153.240184 
L 325.846534 153.188805 
L 327.757493 154.012952 
L 329.668452 152.571496 
L 331.579411 151.888137 
L 333.49037 147.497254 
L 335.401329 147.486006 
L 337.312288 152.138986 
L 339.223247 151.737837 
L 341.134205 154.957183 
L 343.045164 157.275504 
L 344.956123 159.024848 
L 346.867082 148.276027 
L 348.778041 151.666068 
L 350.689 158.059402 
L 350.689 158.059402 
" style="fill:none;stroke:#00008b;stroke-linecap:square;stroke-width:1.5;"/>
   </g>
   <g id="line2d_16">
    <path clip-path="url(#pb4924bb498)" d="M 71.689 163.641064 
L 94.620507 163.249188 
L 106.08626 162.864914 
L 115.641055 162.323677 
L 123.28489 161.645197 
L 129.017767 160.920035 
L 134.750644 159.935374 
L 138.572562 159.092546 
L 142.394479 158.065774 
L 146.216397 156.822463 
L 150.038315 155.330311 
L 153.860233 153.561894 
L 157.682151 151.501795 
L 161.504068 149.156546 
L 165.325986 146.566992 
L 176.79174 138.520807 
L 178.702699 137.407609 
L 180.613658 136.452407 
L 182.524616 135.695777 
L 184.435575 135.178769 
L 186.346534 134.941412 
L 188.257493 135.02103 
L 190.168452 135.450433 
L 192.079411 136.256088 
L 193.99037 137.45635 
L 195.901329 139.059898 
L 197.812288 141.064465 
L 199.723247 143.45599 
L 201.634205 146.208262 
L 203.545164 149.283137 
L 207.367082 156.193866 
L 216.921877 174.746656 
L 218.832836 178.094863 
L 220.743795 181.169738 
L 222.654753 183.92201 
L 224.565712 186.313535 
L 226.476671 188.318102 
L 228.38763 189.92165 
L 230.298589 191.121912 
L 232.209548 191.927567 
L 234.120507 192.35697 
L 236.031466 192.436588 
L 237.942425 192.199231 
L 239.853384 191.682223 
L 241.764342 190.925593 
L 243.675301 189.970391 
L 247.497219 187.624841 
L 253.230096 183.556317 
L 258.962973 179.489956 
L 262.78489 177.014777 
L 266.606808 174.809454 
L 270.428726 172.896017 
L 274.250644 171.268609 
L 278.072562 169.904746 
L 281.894479 168.773842 
L 285.716397 167.843014 
L 291.449274 166.753451 
L 297.182151 165.950269 
L 302.915027 165.359168 
L 310.558863 164.805186 
L 320.113658 164.360632 
L 333.49037 164.000482 
L 350.689 163.736936 
L 350.689 163.736936 
" style="fill:none;stroke:#006400;stroke-linecap:square;stroke-width:1.5;"/>
   </g>
   <g id="patch_3">
    <path d="M 71.689 299.589 
L 71.689 27.789 
" style="fill:none;stroke:#000000;stroke-linecap:square;stroke-linejoin:miter;stroke-width:2;"/>
   </g>
   <g id="patch_4">
    <path d="M 71.689 299.589 
L 350.689 299.589 
" style="fill:none;stroke:#000000;stroke-linecap:square;stroke-linejoin:miter;stroke-width:2;"/>
   </g>
   <g id="text_17">
    <!-- 1TrialsForward Naives, Step = 30 -->
    <defs>
     <path d="M 9.8125 72.90625 
L 51.703125 72.90625 
L 51.703125 64.59375 
L 19.671875 64.59375 
L 19.671875 43.109375 
L 48.578125 43.109375 
L 48.578125 34.8125 
L 19.671875 34.8125 
L 19.671875 0 
L 9.8125 0 
z
" id="DejaVuSans-70"/>
     <path d="M 4.203125 54.6875 
L 13.1875 54.6875 
L 24.421875 12.015625 
L 35.59375 54.6875 
L 46.1875 54.6875 
L 57.421875 12.015625 
L 68.609375 54.6875 
L 77.59375 54.6875 
L 63.28125 0 
L 52.6875 0 
L 40.921875 44.828125 
L 29.109375 0 
L 18.5 0 
z
" id="DejaVuSans-119"/>
     <path d="M 45.40625 46.390625 
L 45.40625 75.984375 
L 54.390625 75.984375 
L 54.390625 0 
L 45.40625 0 
L 45.40625 8.203125 
Q 42.578125 3.328125 38.25 0.953125 
Q 33.9375 -1.421875 27.875 -1.421875 
Q 17.96875 -1.421875 11.734375 6.484375 
Q 5.515625 14.40625 5.515625 27.296875 
Q 5.515625 40.1875 11.734375 48.09375 
Q 17.96875 56 27.875 56 
Q 33.9375 56 38.25 53.625 
Q 42.578125 51.265625 45.40625 46.390625 
z
M 14.796875 27.296875 
Q 14.796875 17.390625 18.875 11.75 
Q 22.953125 6.109375 30.078125 6.109375 
Q 37.203125 6.109375 41.296875 11.75 
Q 45.40625 17.390625 45.40625 27.296875 
Q 45.40625 37.203125 41.296875 42.84375 
Q 37.203125 48.484375 30.078125 48.484375 
Q 22.953125 48.484375 18.875 42.84375 
Q 14.796875 37.203125 14.796875 27.296875 
z
" id="DejaVuSans-100"/>
     <path d="M 9.8125 72.90625 
L 23.09375 72.90625 
L 55.421875 11.921875 
L 55.421875 72.90625 
L 64.984375 72.90625 
L 64.984375 0 
L 51.703125 0 
L 19.390625 60.984375 
L 19.390625 0 
L 9.8125 0 
z
" id="DejaVuSans-78"/>
     <path d="M 11.71875 12.40625 
L 22.015625 12.40625 
L 22.015625 4 
L 14.015625 -11.625 
L 7.71875 -11.625 
L 11.71875 4 
z
" id="DejaVuSans-44"/>
     <path d="M 53.515625 70.515625 
L 53.515625 60.890625 
Q 47.90625 63.578125 42.921875 64.890625 
Q 37.9375 66.21875 33.296875 66.21875 
Q 25.25 66.21875 20.875 63.09375 
Q 16.5 59.96875 16.5 54.203125 
Q 16.5 49.359375 19.40625 46.890625 
Q 22.3125 44.4375 30.421875 42.921875 
L 36.375 41.703125 
Q 47.40625 39.59375 52.65625 34.296875 
Q 57.90625 29 57.90625 20.125 
Q 57.90625 9.515625 50.796875 4.046875 
Q 43.703125 -1.421875 29.984375 -1.421875 
Q 24.8125 -1.421875 18.96875 -0.25 
Q 13.140625 0.921875 6.890625 3.21875 
L 6.890625 13.375 
Q 12.890625 10.015625 18.65625 8.296875 
Q 24.421875 6.59375 29.984375 6.59375 
Q 38.421875 6.59375 43.015625 9.90625 
Q 47.609375 13.234375 47.609375 19.390625 
Q 47.609375 24.75 44.3125 27.78125 
Q 41.015625 30.8125 33.5 32.328125 
L 27.484375 33.5 
Q 16.453125 35.6875 11.515625 40.375 
Q 6.59375 45.0625 6.59375 53.421875 
Q 6.59375 63.09375 13.40625 68.65625 
Q 20.21875 74.21875 32.171875 74.21875 
Q 37.3125 74.21875 42.625 73.28125 
Q 47.953125 72.359375 53.515625 70.515625 
z
" id="DejaVuSans-83"/>
     <path d="M 10.59375 45.40625 
L 73.1875 45.40625 
L 73.1875 37.203125 
L 10.59375 37.203125 
z
M 10.59375 25.484375 
L 73.1875 25.484375 
L 73.1875 17.1875 
L 10.59375 17.1875 
z
" id="DejaVuSans-61"/>
    </defs>
    <g transform="translate(50.266 21.789)scale(0.192 -0.192)">
     <use xlink:href="#DejaVuSans-49"/>
     <use x="63.623047" xlink:href="#DejaVuSans-84"/>
     <use x="124.488281" xlink:href="#DejaVuSans-114"/>
     <use x="165.601562" xlink:href="#DejaVuSans-105"/>
     <use x="193.384766" xlink:href="#DejaVuSans-97"/>
     <use x="254.664062" xlink:href="#DejaVuSans-108"/>
     <use x="282.447266" xlink:href="#DejaVuSans-115"/>
     <use x="334.546875" xlink:href="#DejaVuSans-70"/>
     <use x="392.019531" xlink:href="#DejaVuSans-111"/>
     <use x="453.201172" xlink:href="#DejaVuSans-114"/>
     <use x="494.314453" xlink:href="#DejaVuSans-119"/>
     <use x="576.101562" xlink:href="#DejaVuSans-97"/>
     <use x="637.380859" xlink:href="#DejaVuSans-114"/>
     <use x="678.478516" xlink:href="#DejaVuSans-100"/>
     <use x="741.955078" xlink:href="#DejaVuSans-32"/>
     <use x="773.742188" xlink:href="#DejaVuSans-78"/>
     <use x="848.546875" xlink:href="#DejaVuSans-97"/>
     <use x="909.826172" xlink:href="#DejaVuSans-105"/>
     <use x="937.609375" xlink:href="#DejaVuSans-118"/>
     <use x="996.789062" xlink:href="#DejaVuSans-101"/>
     <use x="1058.3125" xlink:href="#DejaVuSans-115"/>
     <use x="1110.412109" xlink:href="#DejaVuSans-44"/>
     <use x="1142.199219" xlink:href="#DejaVuSans-32"/>
     <use x="1173.986328" xlink:href="#DejaVuSans-83"/>
     <use x="1237.462891" xlink:href="#DejaVuSans-116"/>
     <use x="1276.671875" xlink:href="#DejaVuSans-101"/>
     <use x="1338.195312" xlink:href="#DejaVuSans-112"/>
     <use x="1401.671875" xlink:href="#DejaVuSans-32"/>
     <use x="1433.458984" xlink:href="#DejaVuSans-61"/>
     <use x="1517.248047" xlink:href="#DejaVuSans-32"/>
     <use x="1549.035156" xlink:href="#DejaVuSans-51"/>
     <use x="1612.658203" xlink:href="#DejaVuSans-48"/>
    </g>
   </g>
  </g>
 </g>
 <defs>
  <clipPath id="pb4924bb498">
   <rect height="271.8" width="279" x="71.689" y="27.789"/>
  </clipPath>
 </defs>
</svg>
