<?xml version="1.0" encoding="utf-8" standalone="no"?>
<!DOCTYPE svg PUBLIC "-//W3C//DTD SVG 1.1//EN"
  "http://www.w3.org/Graphics/SVG/1.1/DTD/svg11.dtd">
<!-- Created with matplotlib (https://matplotlib.org/) -->
<svg height="290.899pt" version="1.1" viewBox="0 0 416.989548 290.899" width="416.989548pt" xmlns="http://www.w3.org/2000/svg" xmlns:xlink="http://www.w3.org/1999/xlink">
 <defs>
  <style type="text/css">
*{stroke-linecap:butt;stroke-linejoin:round;}
  </style>
 </defs>
 <g id="figure_1">
  <g id="patch_1">
   <path d="M 0 290.899 
L 416.989548 290.899 
L 416.989548 0 
L 0 0 
z
" style="fill:#ffffff;"/>
  </g>
  <g id="axes_1">
   <g id="patch_2">
    <path d="M 71.689 245.229 
L 406.489 245.229 
L 406.489 27.789 
L 71.689 27.789 
z
" style="fill:#ffffff;"/>
   </g>
   <g id="PolyCollection_1">
    <defs>
     <path d="M 86.907182 -165.523032 
L 86.907182 -139.059698 
L 88.991864 -137.295708 
L 91.076547 -130.524387 
L 93.161229 -134.147089 
L 95.245912 -132.384653 
L 97.330594 -129.933096 
L 99.415276 -126.211939 
L 101.499959 -126.412199 
L 103.584641 -127.501617 
L 105.669324 -138.657324 
L 107.754006 -137.52078 
L 109.838689 -135.896039 
L 111.923371 -133.240867 
L 114.008054 -145.408885 
L 116.092736 -148.363895 
L 118.177418 -143.150623 
L 120.262101 -144.493665 
L 122.346783 -138.327632 
L 124.431466 -137.397316 
L 126.516148 -138.224962 
L 128.600831 -140.456099 
L 130.685513 -134.410442 
L 132.770196 -143.952083 
L 134.854878 -144.56367 
L 136.93956 -141.538058 
L 139.024243 -143.154454 
L 141.108925 -149.774326 
L 143.193608 -149.576638 
L 145.27829 -150.332246 
L 147.362973 -149.883475 
L 149.447655 -147.967594 
L 151.532337 -151.214333 
L 153.61702 -142.009736 
L 155.701702 -152.513241 
L 157.786385 -145.772782 
L 159.871067 -152.209052 
L 161.95575 -152.93591 
L 164.040432 -160.596583 
L 166.125115 -156.716246 
L 168.209797 -152.412628 
L 170.294479 -149.124468 
L 172.379162 -156.910913 
L 174.463844 -157.617203 
L 176.548527 -155.826357 
L 178.633209 -146.797668 
L 180.717892 -142.523477 
L 182.802574 -145.126869 
L 184.887257 -142.593346 
L 186.971939 -148.596496 
L 189.056621 -152.288436 
L 191.141304 -155.737826 
L 193.225986 -156.312399 
L 195.310669 -164.420571 
L 197.395351 -160.100097 
L 199.480034 -157.722747 
L 201.564716 -158.577828 
L 203.649399 -160.088827 
L 205.734081 -155.905161 
L 207.818763 -156.537681 
L 209.903446 -155.18538 
L 211.988128 -152.520741 
L 214.072811 -155.980935 
L 216.157493 -154.834202 
L 218.242176 -161.466555 
L 220.326858 -152.29146 
L 222.41154 -152.216396 
L 224.496223 -149.886292 
L 226.580905 -148.819903 
L 228.665588 -140.48456 
L 230.75027 -144.761969 
L 232.834953 -136.798995 
L 234.919635 -132.857813 
L 237.004318 -130.918921 
L 239.089 -120.344742 
L 241.173682 -120.756607 
L 243.258365 -129.547949 
L 245.343047 -130.671106 
L 247.42773 -130.451678 
L 249.512412 -135.652855 
L 251.597095 -134.346903 
L 253.681777 -133.397026 
L 255.76646 -131.714983 
L 257.851142 -140.163038 
L 259.935824 -137.312323 
L 262.020507 -145.442394 
L 264.105189 -136.409734 
L 266.189872 -129.27102 
L 268.274554 -127.704259 
L 270.359237 -125.727231 
L 272.443919 -128.029684 
L 274.528601 -124.541437 
L 276.613284 -121.742142 
L 278.697966 -115.38837 
L 280.782649 -118.417615 
L 282.867331 -120.160386 
L 284.952014 -130.713041 
L 287.036696 -132.36231 
L 289.121379 -128.792604 
L 291.206061 -129.065339 
L 293.290743 -132.150469 
L 295.375426 -135.473233 
L 297.460108 -140.666773 
L 299.544791 -145.844841 
L 301.629473 -142.447415 
L 303.714156 -145.662912 
L 305.798838 -142.672268 
L 307.883521 -134.513671 
L 309.968203 -131.347674 
L 312.052885 -132.937475 
L 314.137568 -130.548839 
L 316.22225 -131.232023 
L 318.306933 -130.094049 
L 320.391615 -125.221631 
L 322.476298 -116.027389 
L 324.56098 -123.443758 
L 326.645663 -119.371776 
L 328.730345 -129.468097 
L 330.815027 -135.891463 
L 332.89971 -135.509626 
L 334.984392 -137.824313 
L 337.069075 -134.861624 
L 339.153757 -130.930949 
L 341.23844 -137.246247 
L 343.323122 -141.279685 
L 345.407804 -143.561374 
L 347.492487 -133.630731 
L 349.577169 -128.965296 
L 351.661852 -130.250976 
L 353.746534 -140.151464 
L 355.831217 -137.443277 
L 357.915899 -142.261662 
L 360.000582 -138.26107 
L 362.085264 -143.455588 
L 364.169946 -148.807351 
L 366.254629 -153.667724 
L 368.339311 -149.564468 
L 370.423994 -153.810311 
L 372.508676 -154.309339 
L 374.593359 -151.73513 
L 376.678041 -153.288926 
L 378.762724 -151.782463 
L 380.847406 -149.900911 
L 382.932088 -145.90552 
L 385.016771 -142.873224 
L 387.101453 -147.773894 
L 389.186136 -148.969453 
L 391.270818 -139.059698 
L 391.270818 -165.523032 
L 391.270818 -165.523032 
L 389.186136 -173.130976 
L 387.101453 -174.348496 
L 385.016771 -165.872106 
L 382.932088 -164.159742 
L 380.847406 -164.153436 
L 378.762724 -168.67608 
L 376.678041 -170.496437 
L 374.593359 -170.703967 
L 372.508676 -172.380899 
L 370.423994 -173.309184 
L 368.339311 -172.554435 
L 366.254629 -177.66785 
L 364.169946 -178.991425 
L 362.085264 -171.909273 
L 360.000582 -171.8163 
L 357.915899 -171.8179 
L 355.831217 -170.670543 
L 353.746534 -170.423942 
L 351.661852 -164.80869 
L 349.577169 -164.032878 
L 347.492487 -170.029952 
L 345.407804 -181.976826 
L 343.323122 -179.453503 
L 341.23844 -177.214167 
L 339.153757 -169.801818 
L 337.069075 -169.173854 
L 334.984392 -169.725819 
L 332.89971 -170.765325 
L 330.815027 -168.194678 
L 328.730345 -157.64613 
L 326.645663 -151.738969 
L 324.56098 -148.993521 
L 322.476298 -143.482889 
L 320.391615 -150.723335 
L 318.306933 -152.873732 
L 316.22225 -154.925073 
L 314.137568 -156.266217 
L 312.052885 -154.552978 
L 309.968203 -151.830653 
L 307.883521 -153.623613 
L 305.798838 -162.102965 
L 303.714156 -166.52237 
L 301.629473 -163.361423 
L 299.544791 -167.084299 
L 297.460108 -163.174201 
L 295.375426 -161.808408 
L 293.290743 -158.876245 
L 291.206061 -158.459501 
L 289.121379 -162.028688 
L 287.036696 -163.07479 
L 284.952014 -155.990927 
L 282.867331 -144.635682 
L 280.782649 -142.090235 
L 278.697966 -144.427738 
L 276.613284 -151.493585 
L 274.528601 -154.318417 
L 272.443919 -155.569838 
L 270.359237 -154.801541 
L 268.274554 -154.654208 
L 266.189872 -155.586493 
L 264.105189 -162.815393 
L 262.020507 -170.279855 
L 259.935824 -160.546306 
L 257.851142 -161.519735 
L 255.76646 -151.20155 
L 253.681777 -150.465875 
L 251.597095 -154.826611 
L 249.512412 -153.209212 
L 247.42773 -147.446544 
L 245.343047 -146.124402 
L 243.258365 -145.729652 
L 241.173682 -140.369397 
L 239.089 -144.919863 
L 237.004318 -155.437254 
L 234.919635 -159.680997 
L 232.834953 -159.130634 
L 230.75027 -164.286155 
L 228.665588 -164.473722 
L 226.580905 -175.704202 
L 224.496223 -170.897955 
L 222.41154 -176.264888 
L 220.326858 -175.876139 
L 218.242176 -185.607945 
L 216.157493 -179.407185 
L 214.072811 -179.522373 
L 211.988128 -176.088763 
L 209.903446 -182.330506 
L 207.818763 -187.422847 
L 205.734081 -185.519132 
L 203.649399 -184.827353 
L 201.564716 -185.303343 
L 199.480034 -183.84122 
L 197.395351 -185.775011 
L 195.310669 -191.631945 
L 193.225986 -184.598907 
L 191.141304 -187.64431 
L 189.056621 -185.073787 
L 186.971939 -179.898272 
L 184.887257 -176.2415 
L 182.802574 -178.933525 
L 180.717892 -177.188297 
L 178.633209 -184.297474 
L 176.548527 -193.954759 
L 174.463844 -196.572887 
L 172.379162 -188.949468 
L 170.294479 -184.292761 
L 168.209797 -187.579979 
L 166.125115 -191.871272 
L 164.040432 -196.390416 
L 161.95575 -193.105942 
L 159.871067 -189.17362 
L 157.786385 -186.304926 
L 155.701702 -190.16907 
L 153.61702 -183.269288 
L 151.532337 -189.274038 
L 149.447655 -187.568848 
L 147.362973 -187.960138 
L 145.27829 -188.762378 
L 143.193608 -185.921419 
L 141.108925 -186.069264 
L 139.024243 -179.020024 
L 136.93956 -175.193274 
L 134.854878 -174.851855 
L 132.770196 -176.358989 
L 130.685513 -171.698805 
L 128.600831 -178.053258 
L 126.516148 -182.401855 
L 124.431466 -181.859648 
L 122.346783 -185.239019 
L 120.262101 -184.980502 
L 118.177418 -184.910731 
L 116.092736 -188.467399 
L 114.008054 -185.848699 
L 111.923371 -174.983149 
L 109.838689 -175.541856 
L 107.754006 -173.607115 
L 105.669324 -172.42448 
L 103.584641 -169.498482 
L 101.499959 -167.584861 
L 99.415276 -166.090291 
L 97.330594 -170.296654 
L 95.245912 -165.370482 
L 93.161229 -163.100159 
L 91.076547 -160.59644 
L 88.991864 -165.779441 
L 86.907182 -165.523032 
z
" id="me80310a07b" style="stroke:#1e90ff;stroke-opacity:0.2;"/>
    </defs>
    <g clip-path="url(#p95bf607e16)">
     <use style="fill:#1e90ff;fill-opacity:0.2;stroke:#1e90ff;stroke-opacity:0.2;" x="0" xlink:href="#me80310a07b" y="290.899"/>
    </g>
   </g>
   <g id="matplotlib.axis_1">
    <g id="xtick_1">
     <g id="line2d_1">
      <defs>
       <path d="M 0 0 
L 0 -6 
" id="m06a337d1b6" style="stroke:#000000;stroke-width:2;"/>
      </defs>
      <g>
       <use style="stroke:#000000;stroke-width:2;" x="86.907182" xlink:href="#m06a337d1b6" y="245.229"/>
      </g>
     </g>
     <g id="text_1">
      <!-- -75 -->
      <defs>
       <path d="M 4.890625 31.390625 
L 31.203125 31.390625 
L 31.203125 23.390625 
L 4.890625 23.390625 
z
" id="DejaVuSans-45"/>
       <path d="M 8.203125 72.90625 
L 55.078125 72.90625 
L 55.078125 68.703125 
L 28.609375 0 
L 18.3125 0 
L 43.21875 64.59375 
L 8.203125 64.59375 
z
" id="DejaVuSans-55"/>
       <path d="M 10.796875 72.90625 
L 49.515625 72.90625 
L 49.515625 64.59375 
L 19.828125 64.59375 
L 19.828125 46.734375 
Q 21.96875 47.46875 24.109375 47.828125 
Q 26.265625 48.1875 28.421875 48.1875 
Q 40.625 48.1875 47.75 41.5 
Q 54.890625 34.8125 54.890625 23.390625 
Q 54.890625 11.625 47.5625 5.09375 
Q 40.234375 -1.421875 26.90625 -1.421875 
Q 22.3125 -1.421875 17.546875 -0.640625 
Q 12.796875 0.140625 7.71875 1.703125 
L 7.71875 11.625 
Q 12.109375 9.234375 16.796875 8.0625 
Q 21.484375 6.890625 26.703125 6.890625 
Q 35.15625 6.890625 40.078125 11.328125 
Q 45.015625 15.765625 45.015625 23.390625 
Q 45.015625 31 40.078125 35.4375 
Q 35.15625 39.890625 26.703125 39.890625 
Q 22.75 39.890625 18.8125 39.015625 
Q 14.890625 38.140625 10.796875 36.28125 
z
" id="DejaVuSans-53"/>
      </defs>
      <g transform="translate(73.840932 260.8865)scale(0.16 -0.16)">
       <use xlink:href="#DejaVuSans-45"/>
       <use x="36.083984" xlink:href="#DejaVuSans-55"/>
       <use x="99.707031" xlink:href="#DejaVuSans-53"/>
      </g>
     </g>
    </g>
    <g id="xtick_2">
     <g id="line2d_2">
      <g>
       <use style="stroke:#000000;stroke-width:2;" x="139.024243" xlink:href="#m06a337d1b6" y="245.229"/>
      </g>
     </g>
     <g id="text_2">
      <!-- -50 -->
      <defs>
       <path d="M 31.78125 66.40625 
Q 24.171875 66.40625 20.328125 58.90625 
Q 16.5 51.421875 16.5 36.375 
Q 16.5 21.390625 20.328125 13.890625 
Q 24.171875 6.390625 31.78125 6.390625 
Q 39.453125 6.390625 43.28125 13.890625 
Q 47.125 21.390625 47.125 36.375 
Q 47.125 51.421875 43.28125 58.90625 
Q 39.453125 66.40625 31.78125 66.40625 
z
M 31.78125 74.21875 
Q 44.046875 74.21875 50.515625 64.515625 
Q 56.984375 54.828125 56.984375 36.375 
Q 56.984375 17.96875 50.515625 8.265625 
Q 44.046875 -1.421875 31.78125 -1.421875 
Q 19.53125 -1.421875 13.0625 8.265625 
Q 6.59375 17.96875 6.59375 36.375 
Q 6.59375 54.828125 13.0625 64.515625 
Q 19.53125 74.21875 31.78125 74.21875 
z
" id="DejaVuSans-48"/>
      </defs>
      <g transform="translate(125.957993 260.8865)scale(0.16 -0.16)">
       <use xlink:href="#DejaVuSans-45"/>
       <use x="36.083984" xlink:href="#DejaVuSans-53"/>
       <use x="99.707031" xlink:href="#DejaVuSans-48"/>
      </g>
     </g>
    </g>
    <g id="xtick_3">
     <g id="line2d_3">
      <g>
       <use style="stroke:#000000;stroke-width:2;" x="191.141304" xlink:href="#m06a337d1b6" y="245.229"/>
      </g>
     </g>
     <g id="text_3">
      <!-- -25 -->
      <defs>
       <path d="M 19.1875 8.296875 
L 53.609375 8.296875 
L 53.609375 0 
L 7.328125 0 
L 7.328125 8.296875 
Q 12.9375 14.109375 22.625 23.890625 
Q 32.328125 33.6875 34.8125 36.53125 
Q 39.546875 41.84375 41.421875 45.53125 
Q 43.3125 49.21875 43.3125 52.78125 
Q 43.3125 58.59375 39.234375 62.25 
Q 35.15625 65.921875 28.609375 65.921875 
Q 23.96875 65.921875 18.8125 64.3125 
Q 13.671875 62.703125 7.8125 59.421875 
L 7.8125 69.390625 
Q 13.765625 71.78125 18.9375 73 
Q 24.125 74.21875 28.421875 74.21875 
Q 39.75 74.21875 46.484375 68.546875 
Q 53.21875 62.890625 53.21875 53.421875 
Q 53.21875 48.921875 51.53125 44.890625 
Q 49.859375 40.875 45.40625 35.40625 
Q 44.1875 33.984375 37.640625 27.21875 
Q 31.109375 20.453125 19.1875 8.296875 
z
" id="DejaVuSans-50"/>
      </defs>
      <g transform="translate(178.075054 260.8865)scale(0.16 -0.16)">
       <use xlink:href="#DejaVuSans-45"/>
       <use x="36.083984" xlink:href="#DejaVuSans-50"/>
       <use x="99.707031" xlink:href="#DejaVuSans-53"/>
      </g>
     </g>
    </g>
    <g id="xtick_4">
     <g id="line2d_4">
      <g>
       <use style="stroke:#000000;stroke-width:2;" x="243.258365" xlink:href="#m06a337d1b6" y="245.229"/>
      </g>
     </g>
     <g id="text_4">
      <!-- 0 -->
      <g transform="translate(238.168365 260.8865)scale(0.16 -0.16)">
       <use xlink:href="#DejaVuSans-48"/>
      </g>
     </g>
    </g>
    <g id="xtick_5">
     <g id="line2d_5">
      <g>
       <use style="stroke:#000000;stroke-width:2;" x="295.375426" xlink:href="#m06a337d1b6" y="245.229"/>
      </g>
     </g>
     <g id="text_5">
      <!-- 25 -->
      <g transform="translate(285.195426 260.8865)scale(0.16 -0.16)">
       <use xlink:href="#DejaVuSans-50"/>
       <use x="63.623047" xlink:href="#DejaVuSans-53"/>
      </g>
     </g>
    </g>
    <g id="xtick_6">
     <g id="line2d_6">
      <g>
       <use style="stroke:#000000;stroke-width:2;" x="347.492487" xlink:href="#m06a337d1b6" y="245.229"/>
      </g>
     </g>
     <g id="text_6">
      <!-- 50 -->
      <g transform="translate(337.312487 260.8865)scale(0.16 -0.16)">
       <use xlink:href="#DejaVuSans-53"/>
       <use x="63.623047" xlink:href="#DejaVuSans-48"/>
      </g>
     </g>
    </g>
    <g id="xtick_7">
     <g id="line2d_7">
      <g>
       <use style="stroke:#000000;stroke-width:2;" x="399.609548" xlink:href="#m06a337d1b6" y="245.229"/>
      </g>
     </g>
     <g id="text_7">
      <!-- 75 -->
      <g transform="translate(389.429548 260.8865)scale(0.16 -0.16)">
       <use xlink:href="#DejaVuSans-55"/>
       <use x="63.623047" xlink:href="#DejaVuSans-53"/>
      </g>
     </g>
    </g>
    <g id="text_8">
     <!-- Relative Orientation of Previous Trial -->
     <defs>
      <path d="M 44.390625 34.1875 
Q 47.5625 33.109375 50.5625 29.59375 
Q 53.5625 26.078125 56.59375 19.921875 
L 66.609375 0 
L 56 0 
L 46.6875 18.703125 
Q 43.0625 26.03125 39.671875 28.421875 
Q 36.28125 30.8125 30.421875 30.8125 
L 19.671875 30.8125 
L 19.671875 0 
L 9.8125 0 
L 9.8125 72.90625 
L 32.078125 72.90625 
Q 44.578125 72.90625 50.734375 67.671875 
Q 56.890625 62.453125 56.890625 51.90625 
Q 56.890625 45.015625 53.6875 40.46875 
Q 50.484375 35.9375 44.390625 34.1875 
z
M 19.671875 64.796875 
L 19.671875 38.921875 
L 32.078125 38.921875 
Q 39.203125 38.921875 42.84375 42.21875 
Q 46.484375 45.515625 46.484375 51.90625 
Q 46.484375 58.296875 42.84375 61.546875 
Q 39.203125 64.796875 32.078125 64.796875 
z
" id="DejaVuSans-82"/>
      <path d="M 56.203125 29.59375 
L 56.203125 25.203125 
L 14.890625 25.203125 
Q 15.484375 15.921875 20.484375 11.0625 
Q 25.484375 6.203125 34.421875 6.203125 
Q 39.59375 6.203125 44.453125 7.46875 
Q 49.3125 8.734375 54.109375 11.28125 
L 54.109375 2.78125 
Q 49.265625 0.734375 44.1875 -0.34375 
Q 39.109375 -1.421875 33.890625 -1.421875 
Q 20.796875 -1.421875 13.15625 6.1875 
Q 5.515625 13.8125 5.515625 26.8125 
Q 5.515625 40.234375 12.765625 48.109375 
Q 20.015625 56 32.328125 56 
Q 43.359375 56 49.78125 48.890625 
Q 56.203125 41.796875 56.203125 29.59375 
z
M 47.21875 32.234375 
Q 47.125 39.59375 43.09375 43.984375 
Q 39.0625 48.390625 32.421875 48.390625 
Q 24.90625 48.390625 20.390625 44.140625 
Q 15.875 39.890625 15.1875 32.171875 
z
" id="DejaVuSans-101"/>
      <path d="M 9.421875 75.984375 
L 18.40625 75.984375 
L 18.40625 0 
L 9.421875 0 
z
" id="DejaVuSans-108"/>
      <path d="M 34.28125 27.484375 
Q 23.390625 27.484375 19.1875 25 
Q 14.984375 22.515625 14.984375 16.5 
Q 14.984375 11.71875 18.140625 8.90625 
Q 21.296875 6.109375 26.703125 6.109375 
Q 34.1875 6.109375 38.703125 11.40625 
Q 43.21875 16.703125 43.21875 25.484375 
L 43.21875 27.484375 
z
M 52.203125 31.203125 
L 52.203125 0 
L 43.21875 0 
L 43.21875 8.296875 
Q 40.140625 3.328125 35.546875 0.953125 
Q 30.953125 -1.421875 24.3125 -1.421875 
Q 15.921875 -1.421875 10.953125 3.296875 
Q 6 8.015625 6 15.921875 
Q 6 25.140625 12.171875 29.828125 
Q 18.359375 34.515625 30.609375 34.515625 
L 43.21875 34.515625 
L 43.21875 35.40625 
Q 43.21875 41.609375 39.140625 45 
Q 35.0625 48.390625 27.6875 48.390625 
Q 23 48.390625 18.546875 47.265625 
Q 14.109375 46.140625 10.015625 43.890625 
L 10.015625 52.203125 
Q 14.9375 54.109375 19.578125 55.046875 
Q 24.21875 56 28.609375 56 
Q 40.484375 56 46.34375 49.84375 
Q 52.203125 43.703125 52.203125 31.203125 
z
" id="DejaVuSans-97"/>
      <path d="M 18.3125 70.21875 
L 18.3125 54.6875 
L 36.8125 54.6875 
L 36.8125 47.703125 
L 18.3125 47.703125 
L 18.3125 18.015625 
Q 18.3125 11.328125 20.140625 9.421875 
Q 21.96875 7.515625 27.59375 7.515625 
L 36.8125 7.515625 
L 36.8125 0 
L 27.59375 0 
Q 17.1875 0 13.234375 3.875 
Q 9.28125 7.765625 9.28125 18.015625 
L 9.28125 47.703125 
L 2.6875 47.703125 
L 2.6875 54.6875 
L 9.28125 54.6875 
L 9.28125 70.21875 
z
" id="DejaVuSans-116"/>
      <path d="M 9.421875 54.6875 
L 18.40625 54.6875 
L 18.40625 0 
L 9.421875 0 
z
M 9.421875 75.984375 
L 18.40625 75.984375 
L 18.40625 64.59375 
L 9.421875 64.59375 
z
" id="DejaVuSans-105"/>
      <path d="M 2.984375 54.6875 
L 12.5 54.6875 
L 29.59375 8.796875 
L 46.6875 54.6875 
L 56.203125 54.6875 
L 35.6875 0 
L 23.484375 0 
z
" id="DejaVuSans-118"/>
      <path id="DejaVuSans-32"/>
      <path d="M 39.40625 66.21875 
Q 28.65625 66.21875 22.328125 58.203125 
Q 16.015625 50.203125 16.015625 36.375 
Q 16.015625 22.609375 22.328125 14.59375 
Q 28.65625 6.59375 39.40625 6.59375 
Q 50.140625 6.59375 56.421875 14.59375 
Q 62.703125 22.609375 62.703125 36.375 
Q 62.703125 50.203125 56.421875 58.203125 
Q 50.140625 66.21875 39.40625 66.21875 
z
M 39.40625 74.21875 
Q 54.734375 74.21875 63.90625 63.9375 
Q 73.09375 53.65625 73.09375 36.375 
Q 73.09375 19.140625 63.90625 8.859375 
Q 54.734375 -1.421875 39.40625 -1.421875 
Q 24.03125 -1.421875 14.8125 8.828125 
Q 5.609375 19.09375 5.609375 36.375 
Q 5.609375 53.65625 14.8125 63.9375 
Q 24.03125 74.21875 39.40625 74.21875 
z
" id="DejaVuSans-79"/>
      <path d="M 41.109375 46.296875 
Q 39.59375 47.171875 37.8125 47.578125 
Q 36.03125 48 33.890625 48 
Q 26.265625 48 22.1875 43.046875 
Q 18.109375 38.09375 18.109375 28.8125 
L 18.109375 0 
L 9.078125 0 
L 9.078125 54.6875 
L 18.109375 54.6875 
L 18.109375 46.1875 
Q 20.953125 51.171875 25.484375 53.578125 
Q 30.03125 56 36.53125 56 
Q 37.453125 56 38.578125 55.875 
Q 39.703125 55.765625 41.0625 55.515625 
z
" id="DejaVuSans-114"/>
      <path d="M 54.890625 33.015625 
L 54.890625 0 
L 45.90625 0 
L 45.90625 32.71875 
Q 45.90625 40.484375 42.875 44.328125 
Q 39.84375 48.1875 33.796875 48.1875 
Q 26.515625 48.1875 22.3125 43.546875 
Q 18.109375 38.921875 18.109375 30.90625 
L 18.109375 0 
L 9.078125 0 
L 9.078125 54.6875 
L 18.109375 54.6875 
L 18.109375 46.1875 
Q 21.34375 51.125 25.703125 53.5625 
Q 30.078125 56 35.796875 56 
Q 45.21875 56 50.046875 50.171875 
Q 54.890625 44.34375 54.890625 33.015625 
z
" id="DejaVuSans-110"/>
      <path d="M 30.609375 48.390625 
Q 23.390625 48.390625 19.1875 42.75 
Q 14.984375 37.109375 14.984375 27.296875 
Q 14.984375 17.484375 19.15625 11.84375 
Q 23.34375 6.203125 30.609375 6.203125 
Q 37.796875 6.203125 41.984375 11.859375 
Q 46.1875 17.53125 46.1875 27.296875 
Q 46.1875 37.015625 41.984375 42.703125 
Q 37.796875 48.390625 30.609375 48.390625 
z
M 30.609375 56 
Q 42.328125 56 49.015625 48.375 
Q 55.71875 40.765625 55.71875 27.296875 
Q 55.71875 13.875 49.015625 6.21875 
Q 42.328125 -1.421875 30.609375 -1.421875 
Q 18.84375 -1.421875 12.171875 6.21875 
Q 5.515625 13.875 5.515625 27.296875 
Q 5.515625 40.765625 12.171875 48.375 
Q 18.84375 56 30.609375 56 
z
" id="DejaVuSans-111"/>
      <path d="M 37.109375 75.984375 
L 37.109375 68.5 
L 28.515625 68.5 
Q 23.6875 68.5 21.796875 66.546875 
Q 19.921875 64.59375 19.921875 59.515625 
L 19.921875 54.6875 
L 34.71875 54.6875 
L 34.71875 47.703125 
L 19.921875 47.703125 
L 19.921875 0 
L 10.890625 0 
L 10.890625 47.703125 
L 2.296875 47.703125 
L 2.296875 54.6875 
L 10.890625 54.6875 
L 10.890625 58.5 
Q 10.890625 67.625 15.140625 71.796875 
Q 19.390625 75.984375 28.609375 75.984375 
z
" id="DejaVuSans-102"/>
      <path d="M 19.671875 64.796875 
L 19.671875 37.40625 
L 32.078125 37.40625 
Q 38.96875 37.40625 42.71875 40.96875 
Q 46.484375 44.53125 46.484375 51.125 
Q 46.484375 57.671875 42.71875 61.234375 
Q 38.96875 64.796875 32.078125 64.796875 
z
M 9.8125 72.90625 
L 32.078125 72.90625 
Q 44.34375 72.90625 50.609375 67.359375 
Q 56.890625 61.8125 56.890625 51.125 
Q 56.890625 40.328125 50.609375 34.8125 
Q 44.34375 29.296875 32.078125 29.296875 
L 19.671875 29.296875 
L 19.671875 0 
L 9.8125 0 
z
" id="DejaVuSans-80"/>
      <path d="M 8.5 21.578125 
L 8.5 54.6875 
L 17.484375 54.6875 
L 17.484375 21.921875 
Q 17.484375 14.15625 20.5 10.265625 
Q 23.53125 6.390625 29.59375 6.390625 
Q 36.859375 6.390625 41.078125 11.03125 
Q 45.3125 15.671875 45.3125 23.6875 
L 45.3125 54.6875 
L 54.296875 54.6875 
L 54.296875 0 
L 45.3125 0 
L 45.3125 8.40625 
Q 42.046875 3.421875 37.71875 1 
Q 33.40625 -1.421875 27.6875 -1.421875 
Q 18.265625 -1.421875 13.375 4.4375 
Q 8.5 10.296875 8.5 21.578125 
z
M 31.109375 56 
z
" id="DejaVuSans-117"/>
      <path d="M 44.28125 53.078125 
L 44.28125 44.578125 
Q 40.484375 46.53125 36.375 47.5 
Q 32.28125 48.484375 27.875 48.484375 
Q 21.1875 48.484375 17.84375 46.4375 
Q 14.5 44.390625 14.5 40.28125 
Q 14.5 37.15625 16.890625 35.375 
Q 19.28125 33.59375 26.515625 31.984375 
L 29.59375 31.296875 
Q 39.15625 29.25 43.1875 25.515625 
Q 47.21875 21.78125 47.21875 15.09375 
Q 47.21875 7.46875 41.1875 3.015625 
Q 35.15625 -1.421875 24.609375 -1.421875 
Q 20.21875 -1.421875 15.453125 -0.5625 
Q 10.6875 0.296875 5.421875 2 
L 5.421875 11.28125 
Q 10.40625 8.6875 15.234375 7.390625 
Q 20.0625 6.109375 24.8125 6.109375 
Q 31.15625 6.109375 34.5625 8.28125 
Q 37.984375 10.453125 37.984375 14.40625 
Q 37.984375 18.0625 35.515625 20.015625 
Q 33.0625 21.96875 24.703125 23.78125 
L 21.578125 24.515625 
Q 13.234375 26.265625 9.515625 29.90625 
Q 5.8125 33.546875 5.8125 39.890625 
Q 5.8125 47.609375 11.28125 51.796875 
Q 16.75 56 26.8125 56 
Q 31.78125 56 36.171875 55.265625 
Q 40.578125 54.546875 44.28125 53.078125 
z
" id="DejaVuSans-115"/>
      <path d="M -0.296875 72.90625 
L 61.375 72.90625 
L 61.375 64.59375 
L 35.5 64.59375 
L 35.5 0 
L 25.59375 0 
L 25.59375 64.59375 
L -0.296875 64.59375 
z
" id="DejaVuSans-84"/>
     </defs>
     <g transform="translate(91.80025 280.3715)scale(0.16 -0.16)">
      <use xlink:href="#DejaVuSans-82"/>
      <use x="69.419922" xlink:href="#DejaVuSans-101"/>
      <use x="130.943359" xlink:href="#DejaVuSans-108"/>
      <use x="158.726562" xlink:href="#DejaVuSans-97"/>
      <use x="220.005859" xlink:href="#DejaVuSans-116"/>
      <use x="259.214844" xlink:href="#DejaVuSans-105"/>
      <use x="286.998047" xlink:href="#DejaVuSans-118"/>
      <use x="346.177734" xlink:href="#DejaVuSans-101"/>
      <use x="407.701172" xlink:href="#DejaVuSans-32"/>
      <use x="439.488281" xlink:href="#DejaVuSans-79"/>
      <use x="518.199219" xlink:href="#DejaVuSans-114"/>
      <use x="559.3125" xlink:href="#DejaVuSans-105"/>
      <use x="587.095703" xlink:href="#DejaVuSans-101"/>
      <use x="648.619141" xlink:href="#DejaVuSans-110"/>
      <use x="711.998047" xlink:href="#DejaVuSans-116"/>
      <use x="751.207031" xlink:href="#DejaVuSans-97"/>
      <use x="812.486328" xlink:href="#DejaVuSans-116"/>
      <use x="851.695312" xlink:href="#DejaVuSans-105"/>
      <use x="879.478516" xlink:href="#DejaVuSans-111"/>
      <use x="940.660156" xlink:href="#DejaVuSans-110"/>
      <use x="1004.039062" xlink:href="#DejaVuSans-32"/>
      <use x="1035.826172" xlink:href="#DejaVuSans-111"/>
      <use x="1097.007812" xlink:href="#DejaVuSans-102"/>
      <use x="1132.212891" xlink:href="#DejaVuSans-32"/>
      <use x="1164" xlink:href="#DejaVuSans-80"/>
      <use x="1224.287109" xlink:href="#DejaVuSans-114"/>
      <use x="1265.369141" xlink:href="#DejaVuSans-101"/>
      <use x="1326.892578" xlink:href="#DejaVuSans-118"/>
      <use x="1386.072266" xlink:href="#DejaVuSans-105"/>
      <use x="1413.855469" xlink:href="#DejaVuSans-111"/>
      <use x="1475.037109" xlink:href="#DejaVuSans-117"/>
      <use x="1538.416016" xlink:href="#DejaVuSans-115"/>
      <use x="1590.515625" xlink:href="#DejaVuSans-32"/>
      <use x="1622.302734" xlink:href="#DejaVuSans-84"/>
      <use x="1683.167969" xlink:href="#DejaVuSans-114"/>
      <use x="1724.28125" xlink:href="#DejaVuSans-105"/>
      <use x="1752.064453" xlink:href="#DejaVuSans-97"/>
      <use x="1813.34375" xlink:href="#DejaVuSans-108"/>
     </g>
    </g>
   </g>
   <g id="matplotlib.axis_2">
    <g id="ytick_1">
     <g id="line2d_8">
      <defs>
       <path d="M 0 0 
L 6 0 
" id="ma80cca93a0" style="stroke:#000000;stroke-width:2;"/>
      </defs>
      <g>
       <use style="stroke:#000000;stroke-width:2;" x="71.689" xlink:href="#ma80cca93a0" y="245.229"/>
      </g>
     </g>
     <g id="text_9">
      <!-- −3 -->
      <defs>
       <path d="M 10.59375 35.5 
L 73.1875 35.5 
L 73.1875 27.203125 
L 10.59375 27.203125 
z
" id="DejaVuSans-8722"/>
       <path d="M 40.578125 39.3125 
Q 47.65625 37.796875 51.625 33 
Q 55.609375 28.21875 55.609375 21.1875 
Q 55.609375 10.40625 48.1875 4.484375 
Q 40.765625 -1.421875 27.09375 -1.421875 
Q 22.515625 -1.421875 17.65625 -0.515625 
Q 12.796875 0.390625 7.625 2.203125 
L 7.625 11.71875 
Q 11.71875 9.328125 16.59375 8.109375 
Q 21.484375 6.890625 26.8125 6.890625 
Q 36.078125 6.890625 40.9375 10.546875 
Q 45.796875 14.203125 45.796875 21.1875 
Q 45.796875 27.640625 41.28125 31.265625 
Q 36.765625 34.90625 28.71875 34.90625 
L 20.21875 34.90625 
L 20.21875 43.015625 
L 29.109375 43.015625 
Q 36.375 43.015625 40.234375 45.921875 
Q 44.09375 48.828125 44.09375 54.296875 
Q 44.09375 59.90625 40.109375 62.90625 
Q 36.140625 65.921875 28.71875 65.921875 
Q 24.65625 65.921875 20.015625 65.03125 
Q 15.375 64.15625 9.8125 62.3125 
L 9.8125 71.09375 
Q 15.4375 72.65625 20.34375 73.4375 
Q 25.25 74.21875 29.59375 74.21875 
Q 40.828125 74.21875 47.359375 69.109375 
Q 53.90625 64.015625 53.90625 55.328125 
Q 53.90625 49.265625 50.4375 45.09375 
Q 46.96875 40.921875 40.578125 39.3125 
z
" id="DejaVuSans-51"/>
      </defs>
      <g transform="translate(44.6015 251.30775)scale(0.16 -0.16)">
       <use xlink:href="#DejaVuSans-8722"/>
       <use x="83.789062" xlink:href="#DejaVuSans-51"/>
      </g>
     </g>
    </g>
    <g id="ytick_2">
     <g id="line2d_9">
      <g>
       <use style="stroke:#000000;stroke-width:2;" x="71.689" xlink:href="#ma80cca93a0" y="208.989"/>
      </g>
     </g>
     <g id="text_10">
      <!-- −2 -->
      <g transform="translate(44.6015 215.06775)scale(0.16 -0.16)">
       <use xlink:href="#DejaVuSans-8722"/>
       <use x="83.789062" xlink:href="#DejaVuSans-50"/>
      </g>
     </g>
    </g>
    <g id="ytick_3">
     <g id="line2d_10">
      <g>
       <use style="stroke:#000000;stroke-width:2;" x="71.689" xlink:href="#ma80cca93a0" y="172.749"/>
      </g>
     </g>
     <g id="text_11">
      <!-- −1 -->
      <defs>
       <path d="M 12.40625 8.296875 
L 28.515625 8.296875 
L 28.515625 63.921875 
L 10.984375 60.40625 
L 10.984375 69.390625 
L 28.421875 72.90625 
L 38.28125 72.90625 
L 38.28125 8.296875 
L 54.390625 8.296875 
L 54.390625 0 
L 12.40625 0 
z
" id="DejaVuSans-49"/>
      </defs>
      <g transform="translate(44.6015 178.82775)scale(0.16 -0.16)">
       <use xlink:href="#DejaVuSans-8722"/>
       <use x="83.789062" xlink:href="#DejaVuSans-49"/>
      </g>
     </g>
    </g>
    <g id="ytick_4">
     <g id="line2d_11">
      <g>
       <use style="stroke:#000000;stroke-width:2;" x="71.689" xlink:href="#ma80cca93a0" y="136.509"/>
      </g>
     </g>
     <g id="text_12">
      <!-- 0 -->
      <g transform="translate(58.009 142.58775)scale(0.16 -0.16)">
       <use xlink:href="#DejaVuSans-48"/>
      </g>
     </g>
    </g>
    <g id="ytick_5">
     <g id="line2d_12">
      <g>
       <use style="stroke:#000000;stroke-width:2;" x="71.689" xlink:href="#ma80cca93a0" y="100.269"/>
      </g>
     </g>
     <g id="text_13">
      <!-- 1 -->
      <g transform="translate(58.009 106.34775)scale(0.16 -0.16)">
       <use xlink:href="#DejaVuSans-49"/>
      </g>
     </g>
    </g>
    <g id="ytick_6">
     <g id="line2d_13">
      <g>
       <use style="stroke:#000000;stroke-width:2;" x="71.689" xlink:href="#ma80cca93a0" y="64.029"/>
      </g>
     </g>
     <g id="text_14">
      <!-- 2 -->
      <g transform="translate(58.009 70.10775)scale(0.16 -0.16)">
       <use xlink:href="#DejaVuSans-50"/>
      </g>
     </g>
    </g>
    <g id="ytick_7">
     <g id="line2d_14">
      <g>
       <use style="stroke:#000000;stroke-width:2;" x="71.689" xlink:href="#ma80cca93a0" y="27.789"/>
      </g>
     </g>
     <g id="text_15">
      <!-- 3 -->
      <g transform="translate(58.009 33.86775)scale(0.16 -0.16)">
       <use xlink:href="#DejaVuSans-51"/>
      </g>
     </g>
    </g>
    <g id="text_16">
     <!-- Running Mean  -->
     <defs>
      <path d="M 45.40625 27.984375 
Q 45.40625 37.75 41.375 43.109375 
Q 37.359375 48.484375 30.078125 48.484375 
Q 22.859375 48.484375 18.828125 43.109375 
Q 14.796875 37.75 14.796875 27.984375 
Q 14.796875 18.265625 18.828125 12.890625 
Q 22.859375 7.515625 30.078125 7.515625 
Q 37.359375 7.515625 41.375 12.890625 
Q 45.40625 18.265625 45.40625 27.984375 
z
M 54.390625 6.78125 
Q 54.390625 -7.171875 48.1875 -13.984375 
Q 42 -20.796875 29.203125 -20.796875 
Q 24.46875 -20.796875 20.265625 -20.09375 
Q 16.0625 -19.390625 12.109375 -17.921875 
L 12.109375 -9.1875 
Q 16.0625 -11.328125 19.921875 -12.34375 
Q 23.78125 -13.375 27.78125 -13.375 
Q 36.625 -13.375 41.015625 -8.765625 
Q 45.40625 -4.15625 45.40625 5.171875 
L 45.40625 9.625 
Q 42.625 4.78125 38.28125 2.390625 
Q 33.9375 0 27.875 0 
Q 17.828125 0 11.671875 7.65625 
Q 5.515625 15.328125 5.515625 27.984375 
Q 5.515625 40.671875 11.671875 48.328125 
Q 17.828125 56 27.875 56 
Q 33.9375 56 38.28125 53.609375 
Q 42.625 51.21875 45.40625 46.390625 
L 45.40625 54.6875 
L 54.390625 54.6875 
z
" id="DejaVuSans-103"/>
      <path d="M 9.8125 72.90625 
L 24.515625 72.90625 
L 43.109375 23.296875 
L 61.8125 72.90625 
L 76.515625 72.90625 
L 76.515625 0 
L 66.890625 0 
L 66.890625 64.015625 
L 48.09375 14.015625 
L 38.1875 14.015625 
L 19.390625 64.015625 
L 19.390625 0 
L 9.8125 0 
z
" id="DejaVuSans-77"/>
     </defs>
     <g transform="translate(19.3575 196.5265)rotate(-90)scale(0.16 -0.16)">
      <use xlink:href="#DejaVuSans-82"/>
      <use x="69.419922" xlink:href="#DejaVuSans-117"/>
      <use x="132.798828" xlink:href="#DejaVuSans-110"/>
      <use x="196.177734" xlink:href="#DejaVuSans-110"/>
      <use x="259.556641" xlink:href="#DejaVuSans-105"/>
      <use x="287.339844" xlink:href="#DejaVuSans-110"/>
      <use x="350.71875" xlink:href="#DejaVuSans-103"/>
      <use x="414.195312" xlink:href="#DejaVuSans-32"/>
      <use x="445.982422" xlink:href="#DejaVuSans-77"/>
      <use x="532.261719" xlink:href="#DejaVuSans-101"/>
      <use x="593.785156" xlink:href="#DejaVuSans-97"/>
      <use x="655.064453" xlink:href="#DejaVuSans-110"/>
      <use x="718.443359" xlink:href="#DejaVuSans-32"/>
     </g>
     <!--  of Response Error -->
     <defs>
      <path d="M 18.109375 8.203125 
L 18.109375 -20.796875 
L 9.078125 -20.796875 
L 9.078125 54.6875 
L 18.109375 54.6875 
L 18.109375 46.390625 
Q 20.953125 51.265625 25.265625 53.625 
Q 29.59375 56 35.59375 56 
Q 45.5625 56 51.78125 48.09375 
Q 58.015625 40.1875 58.015625 27.296875 
Q 58.015625 14.40625 51.78125 6.484375 
Q 45.5625 -1.421875 35.59375 -1.421875 
Q 29.59375 -1.421875 25.265625 0.953125 
Q 20.953125 3.328125 18.109375 8.203125 
z
M 48.6875 27.296875 
Q 48.6875 37.203125 44.609375 42.84375 
Q 40.53125 48.484375 33.40625 48.484375 
Q 26.265625 48.484375 22.1875 42.84375 
Q 18.109375 37.203125 18.109375 27.296875 
Q 18.109375 17.390625 22.1875 11.75 
Q 26.265625 6.109375 33.40625 6.109375 
Q 40.53125 6.109375 44.609375 11.75 
Q 48.6875 17.390625 48.6875 27.296875 
z
" id="DejaVuSans-112"/>
      <path d="M 9.8125 72.90625 
L 55.90625 72.90625 
L 55.90625 64.59375 
L 19.671875 64.59375 
L 19.671875 43.015625 
L 54.390625 43.015625 
L 54.390625 34.71875 
L 19.671875 34.71875 
L 19.671875 8.296875 
L 56.78125 8.296875 
L 56.78125 0 
L 9.8125 0 
z
" id="DejaVuSans-69"/>
     </defs>
     <g transform="translate(37.274 210.43775)rotate(-90)scale(0.16 -0.16)">
      <use xlink:href="#DejaVuSans-32"/>
      <use x="31.787109" xlink:href="#DejaVuSans-111"/>
      <use x="92.96875" xlink:href="#DejaVuSans-102"/>
      <use x="128.173828" xlink:href="#DejaVuSans-32"/>
      <use x="159.960938" xlink:href="#DejaVuSans-82"/>
      <use x="229.380859" xlink:href="#DejaVuSans-101"/>
      <use x="290.904297" xlink:href="#DejaVuSans-115"/>
      <use x="343.003906" xlink:href="#DejaVuSans-112"/>
      <use x="406.480469" xlink:href="#DejaVuSans-111"/>
      <use x="467.662109" xlink:href="#DejaVuSans-110"/>
      <use x="531.041016" xlink:href="#DejaVuSans-115"/>
      <use x="583.140625" xlink:href="#DejaVuSans-101"/>
      <use x="644.664062" xlink:href="#DejaVuSans-32"/>
      <use x="676.451172" xlink:href="#DejaVuSans-69"/>
      <use x="739.634766" xlink:href="#DejaVuSans-114"/>
      <use x="780.732422" xlink:href="#DejaVuSans-114"/>
      <use x="821.814453" xlink:href="#DejaVuSans-111"/>
      <use x="882.996094" xlink:href="#DejaVuSans-114"/>
     </g>
    </g>
   </g>
   <g id="line2d_15">
    <path clip-path="url(#p95bf607e16)" d="M 86.907182 138.607635 
L 88.991864 139.361425 
L 91.076547 145.338587 
L 93.161229 142.275376 
L 95.245912 142.021433 
L 97.330594 140.784125 
L 99.415276 144.747885 
L 101.499959 143.90047 
L 103.584641 142.39895 
L 105.669324 135.358098 
L 107.754006 135.335052 
L 109.838689 135.180052 
L 111.923371 136.786992 
L 114.008054 125.270208 
L 116.092736 122.483353 
L 118.177418 126.868323 
L 120.262101 126.161916 
L 122.346783 129.115674 
L 124.431466 131.270518 
L 126.516148 130.585592 
L 128.600831 131.644322 
L 130.685513 137.844377 
L 132.770196 130.743464 
L 134.854878 131.191238 
L 136.93956 132.533334 
L 139.024243 129.811761 
L 141.108925 122.977205 
L 143.193608 123.149971 
L 145.27829 121.351688 
L 147.362973 121.977194 
L 149.447655 123.130779 
L 151.532337 120.654815 
L 153.61702 128.259488 
L 155.701702 119.557844 
L 157.786385 124.860146 
L 159.871067 120.207664 
L 161.95575 117.878074 
L 164.040432 112.405501 
L 168.209797 120.902697 
L 170.294479 124.190385 
L 172.379162 117.96881 
L 174.463844 113.803955 
L 176.548527 116.008442 
L 178.633209 125.351429 
L 180.717892 131.043113 
L 182.802574 128.868803 
L 184.887257 131.481577 
L 186.971939 126.651616 
L 189.056621 122.217888 
L 191.141304 119.207932 
L 193.225986 120.443347 
L 195.310669 112.872742 
L 197.395351 117.961446 
L 199.480034 120.117016 
L 201.564716 118.958415 
L 203.649399 118.44091 
L 205.734081 120.186853 
L 207.818763 118.918736 
L 209.903446 122.141057 
L 211.988128 126.594248 
L 214.072811 123.147346 
L 216.157493 123.778306 
L 218.242176 117.36175 
L 220.326858 126.8152 
L 222.41154 126.658358 
L 224.496223 130.506877 
L 226.580905 128.636948 
L 228.665588 138.419859 
L 230.75027 136.374938 
L 232.834953 142.934185 
L 234.919635 144.629595 
L 237.004318 147.720913 
L 239.089 158.266697 
L 241.173682 160.335998 
L 243.258365 153.260199 
L 245.343047 152.501246 
L 247.42773 151.949889 
L 249.512412 146.467967 
L 251.597095 146.312243 
L 253.681777 148.967549 
L 255.76646 149.440734 
L 257.851142 140.057614 
L 259.935824 141.969686 
L 262.020507 133.037875 
L 264.105189 141.286436 
L 266.189872 148.470243 
L 268.274554 149.719766 
L 270.359237 150.634614 
L 272.443919 149.099239 
L 274.528601 151.469073 
L 276.613284 154.281136 
L 278.697966 160.990946 
L 280.782649 160.645075 
L 282.867331 158.500966 
L 284.952014 147.547016 
L 287.036696 143.18045 
L 289.121379 145.488354 
L 291.206061 147.13658 
L 293.290743 145.385643 
L 297.460108 138.978513 
L 299.544791 134.43443 
L 301.629473 137.994581 
L 303.714156 134.806359 
L 305.798838 138.511384 
L 307.883521 146.830358 
L 309.968203 149.309836 
L 312.052885 147.153774 
L 316.22225 147.820452 
L 318.306933 149.41511 
L 320.391615 152.926517 
L 322.476298 161.143861 
L 324.56098 154.680361 
L 326.645663 155.343627 
L 328.730345 147.341886 
L 330.815027 138.855929 
L 332.89971 137.761524 
L 334.984392 137.123934 
L 339.153757 140.532617 
L 341.23844 133.668793 
L 343.323122 130.532406 
L 345.407804 128.1299 
L 347.492487 139.068658 
L 349.577169 144.399913 
L 351.661852 143.369167 
L 353.746534 135.611297 
L 355.831217 136.84209 
L 357.915899 133.859219 
L 360.000582 135.860315 
L 362.085264 133.21657 
L 364.169946 126.999612 
L 366.254629 125.231213 
L 368.339311 129.839549 
L 370.423994 127.339252 
L 372.508676 127.553881 
L 374.593359 129.679451 
L 376.678041 129.006319 
L 378.762724 130.669728 
L 380.847406 133.871826 
L 382.932088 135.866369 
L 385.016771 136.526335 
L 387.101453 129.837805 
L 389.186136 129.848786 
L 391.270818 138.607635 
L 391.270818 138.607635 
" style="fill:none;stroke:#00008b;stroke-linecap:square;stroke-width:1.5;"/>
   </g>
   <g id="patch_3">
    <path d="M 71.689 245.229 
L 71.689 27.789 
" style="fill:none;stroke:#000000;stroke-linecap:square;stroke-linejoin:miter;stroke-width:2;"/>
   </g>
   <g id="patch_4">
    <path d="M 71.689 245.229 
L 406.489 245.229 
" style="fill:none;stroke:#000000;stroke-linecap:square;stroke-linejoin:miter;stroke-width:2;"/>
   </g>
   <g id="text_17">
    <!-- TrialsForward Naive -->
    <defs>
     <path d="M 9.8125 72.90625 
L 51.703125 72.90625 
L 51.703125 64.59375 
L 19.671875 64.59375 
L 19.671875 43.109375 
L 48.578125 43.109375 
L 48.578125 34.8125 
L 19.671875 34.8125 
L 19.671875 0 
L 9.8125 0 
z
" id="DejaVuSans-70"/>
     <path d="M 4.203125 54.6875 
L 13.1875 54.6875 
L 24.421875 12.015625 
L 35.59375 54.6875 
L 46.1875 54.6875 
L 57.421875 12.015625 
L 68.609375 54.6875 
L 77.59375 54.6875 
L 63.28125 0 
L 52.6875 0 
L 40.921875 44.828125 
L 29.109375 0 
L 18.5 0 
z
" id="DejaVuSans-119"/>
     <path d="M 45.40625 46.390625 
L 45.40625 75.984375 
L 54.390625 75.984375 
L 54.390625 0 
L 45.40625 0 
L 45.40625 8.203125 
Q 42.578125 3.328125 38.25 0.953125 
Q 33.9375 -1.421875 27.875 -1.421875 
Q 17.96875 -1.421875 11.734375 6.484375 
Q 5.515625 14.40625 5.515625 27.296875 
Q 5.515625 40.1875 11.734375 48.09375 
Q 17.96875 56 27.875 56 
Q 33.9375 56 38.25 53.625 
Q 42.578125 51.265625 45.40625 46.390625 
z
M 14.796875 27.296875 
Q 14.796875 17.390625 18.875 11.75 
Q 22.953125 6.109375 30.078125 6.109375 
Q 37.203125 6.109375 41.296875 11.75 
Q 45.40625 17.390625 45.40625 27.296875 
Q 45.40625 37.203125 41.296875 42.84375 
Q 37.203125 48.484375 30.078125 48.484375 
Q 22.953125 48.484375 18.875 42.84375 
Q 14.796875 37.203125 14.796875 27.296875 
z
" id="DejaVuSans-100"/>
     <path d="M 9.8125 72.90625 
L 23.09375 72.90625 
L 55.421875 11.921875 
L 55.421875 72.90625 
L 64.984375 72.90625 
L 64.984375 0 
L 51.703125 0 
L 19.390625 60.984375 
L 19.390625 0 
L 9.8125 0 
z
" id="DejaVuSans-78"/>
    </defs>
    <g transform="translate(143.599 21.789)scale(0.192 -0.192)">
     <use xlink:href="#DejaVuSans-84"/>
     <use x="60.865234" xlink:href="#DejaVuSans-114"/>
     <use x="101.978516" xlink:href="#DejaVuSans-105"/>
     <use x="129.761719" xlink:href="#DejaVuSans-97"/>
     <use x="191.041016" xlink:href="#DejaVuSans-108"/>
     <use x="218.824219" xlink:href="#DejaVuSans-115"/>
     <use x="270.923828" xlink:href="#DejaVuSans-70"/>
     <use x="328.396484" xlink:href="#DejaVuSans-111"/>
     <use x="389.578125" xlink:href="#DejaVuSans-114"/>
     <use x="430.691406" xlink:href="#DejaVuSans-119"/>
     <use x="512.478516" xlink:href="#DejaVuSans-97"/>
     <use x="573.757812" xlink:href="#DejaVuSans-114"/>
     <use x="614.855469" xlink:href="#DejaVuSans-100"/>
     <use x="678.332031" xlink:href="#DejaVuSans-32"/>
     <use x="710.119141" xlink:href="#DejaVuSans-78"/>
     <use x="784.923828" xlink:href="#DejaVuSans-97"/>
     <use x="846.203125" xlink:href="#DejaVuSans-105"/>
     <use x="873.986328" xlink:href="#DejaVuSans-118"/>
     <use x="933.166016" xlink:href="#DejaVuSans-101"/>
    </g>
   </g>
  </g>
 </g>
 <defs>
  <clipPath id="p95bf607e16">
   <rect height="217.44" width="334.8" x="71.689" y="27.789"/>
  </clipPath>
 </defs>
</svg>
