<?xml version="1.0" encoding="utf-8" standalone="no"?>
<!DOCTYPE svg PUBLIC "-//W3C//DTD SVG 1.1//EN"
  "http://www.w3.org/Graphics/SVG/1.1/DTD/svg11.dtd">
<!-- Created with matplotlib (https://matplotlib.org/) -->
<svg height="290.899pt" version="1.1" viewBox="0 0 416.989548 290.899" width="416.989548pt" xmlns="http://www.w3.org/2000/svg" xmlns:xlink="http://www.w3.org/1999/xlink">
 <defs>
  <style type="text/css">
*{stroke-linecap:butt;stroke-linejoin:round;}
  </style>
 </defs>
 <g id="figure_1">
  <g id="patch_1">
   <path d="M 0 290.899 
L 416.989548 290.899 
L 416.989548 0 
L 0 0 
z
" style="fill:#ffffff;"/>
  </g>
  <g id="axes_1">
   <g id="patch_2">
    <path d="M 71.689 245.229 
L 406.489 245.229 
L 406.489 27.789 
L 71.689 27.789 
z
" style="fill:#ffffff;"/>
   </g>
   <g id="PolyCollection_1">
    <defs>
     <path d="M 86.907182 -123.981277 
L 86.907182 -158.581223 
L 88.991864 -164.967912 
L 91.076547 -169.638586 
L 93.161229 -164.520458 
L 95.245912 -151.679528 
L 97.330594 -143.243758 
L 99.415276 -149.160501 
L 101.499959 -158.063683 
L 103.584641 -152.591983 
L 105.669324 -154.676493 
L 107.754006 -153.761655 
L 109.838689 -155.323343 
L 111.923371 -148.632831 
L 114.008054 -147.154955 
L 116.092736 -148.55074 
L 118.177418 -142.87255 
L 120.262101 -145.563281 
L 122.346783 -138.66712 
L 124.431466 -138.965613 
L 126.516148 -139.482326 
L 128.600831 -135.852835 
L 130.685513 -133.560992 
L 132.770196 -126.064845 
L 134.854878 -123.998257 
L 136.93956 -126.324526 
L 139.024243 -126.643493 
L 141.108925 -125.450085 
L 143.193608 -127.423563 
L 145.27829 -132.920202 
L 147.362973 -130.784868 
L 149.447655 -122.737332 
L 151.532337 -126.907163 
L 153.61702 -121.045349 
L 155.701702 -122.888874 
L 157.786385 -138.283941 
L 159.871067 -125.368725 
L 161.95575 -123.080659 
L 164.040432 -123.383192 
L 166.125115 -125.575684 
L 168.209797 -128.774607 
L 170.294479 -125.117683 
L 172.379162 -121.247125 
L 174.463844 -114.243368 
L 176.548527 -121.598365 
L 178.633209 -129.897913 
L 180.717892 -130.55752 
L 182.802574 -134.415954 
L 184.887257 -137.473055 
L 186.971939 -120.859218 
L 189.056621 -118.915365 
L 191.141304 -113.133286 
L 193.225986 -110.065664 
L 195.310669 -99.038177 
L 197.395351 -94.791513 
L 199.480034 -101.636353 
L 201.564716 -93.414709 
L 203.649399 -100.95257 
L 205.734081 -99.641614 
L 207.818763 -91.12262 
L 209.903446 -91.362284 
L 211.988128 -99.225185 
L 214.072811 -107.225681 
L 216.157493 -112.490211 
L 218.242176 -115.117688 
L 220.326858 -112.418815 
L 222.41154 -114.294402 
L 224.496223 -124.117367 
L 226.580905 -118.087463 
L 228.665588 -123.40637 
L 230.75027 -135.528057 
L 232.834953 -138.570233 
L 234.919635 -149.949933 
L 237.004318 -160.320819 
L 239.089 -174.160245 
L 241.173682 -178.899307 
L 243.258365 -188.151598 
L 245.343047 -188.494782 
L 247.42773 -209.550626 
L 249.512412 -214.420504 
L 251.597095 -210.859975 
L 253.681777 -213.251609 
L 255.76646 -218.992577 
L 257.851142 -208.789684 
L 259.935824 -218.359158 
L 262.020507 -219.417588 
L 264.105189 -230.033474 
L 266.189872 -231.815558 
L 268.274554 -228.653395 
L 270.359237 -235.374797 
L 272.443919 -224.289319 
L 274.528601 -220.368429 
L 276.613284 -216.257032 
L 278.697966 -214.941911 
L 280.782649 -208.139668 
L 282.867331 -201.466825 
L 284.952014 -202.340652 
L 287.036696 -208.048159 
L 289.121379 -220.74437 
L 291.206061 -214.988942 
L 293.290743 -217.258591 
L 295.375426 -226.324012 
L 297.460108 -219.063335 
L 299.544791 -217.25004 
L 301.629473 -231.798084 
L 303.714156 -233.251101 
L 305.798838 -235.128437 
L 307.883521 -224.404567 
L 309.968203 -248.682947 
L 312.052885 -252.557828 
L 314.137568 -249.329456 
L 316.22225 -252.217962 
L 318.306933 -245.944125 
L 320.391615 -247.529976 
L 322.476298 -246.486781 
L 324.56098 -247.281717 
L 326.645663 -242.197031 
L 328.730345 -244.836034 
L 330.815027 -242.707337 
L 332.89971 -239.852938 
L 334.984392 -239.141738 
L 337.069075 -241.376771 
L 339.153757 -236.395923 
L 341.23844 -239.993318 
L 343.323122 -236.69926 
L 345.407804 -235.033036 
L 347.492487 -228.152098 
L 349.577169 -236.791341 
L 351.661852 -238.587496 
L 353.746534 -216.551452 
L 355.831217 -211.455286 
L 357.915899 -219.260653 
L 360.000582 -210.993464 
L 362.085264 -211.873871 
L 364.169946 -194.012794 
L 366.254629 -194.475732 
L 368.339311 -201.530232 
L 370.423994 -205.053672 
L 372.508676 -203.864124 
L 374.593359 -193.360613 
L 376.678041 -183.7298 
L 378.762724 -178.927856 
L 380.847406 -179.530678 
L 382.932088 -175.979876 
L 385.016771 -178.60931 
L 387.101453 -171.873584 
L 389.186136 -163.093464 
L 391.270818 -158.581223 
L 391.270818 -123.981277 
L 391.270818 -123.981277 
L 389.186136 -125.670874 
L 387.101453 -135.699131 
L 385.016771 -143.226155 
L 382.932088 -145.754744 
L 380.847406 -143.505694 
L 378.762724 -150.631988 
L 376.678041 -160.168386 
L 374.593359 -173.226363 
L 372.508676 -174.013682 
L 370.423994 -174.503145 
L 368.339311 -171.277478 
L 366.254629 -163.998116 
L 364.169946 -164.560829 
L 362.085264 -175.871474 
L 360.000582 -180.591472 
L 357.915899 -183.760733 
L 355.831217 -176.401903 
L 353.746534 -180.276709 
L 351.661852 -200.529511 
L 349.577169 -196.373194 
L 347.492487 -189.884117 
L 345.407804 -194.245404 
L 343.323122 -195.540984 
L 341.23844 -198.552005 
L 339.153757 -192.952435 
L 337.069075 -202.215237 
L 334.984392 -196.269873 
L 332.89971 -195.935146 
L 330.815027 -204.231304 
L 328.730345 -208.275955 
L 326.645663 -200.763672 
L 324.56098 -203.009848 
L 322.476298 -206.206164 
L 320.391615 -207.52235 
L 318.306933 -203.718662 
L 316.22225 -213.104166 
L 314.137568 -203.776624 
L 312.052885 -208.418361 
L 309.968203 -210.93444 
L 307.883521 -187.085957 
L 305.798838 -203.286679 
L 303.714156 -206.549031 
L 301.629473 -199.693073 
L 299.544791 -175.493466 
L 297.460108 -180.032795 
L 295.375426 -185.265418 
L 293.290743 -176.202973 
L 291.206061 -174.91563 
L 289.121379 -180.395858 
L 287.036696 -170.473267 
L 284.952014 -167.10963 
L 282.867331 -161.838549 
L 280.782649 -170.093268 
L 278.697966 -177.988421 
L 276.613284 -179.257065 
L 274.528601 -182.066358 
L 272.443919 -183.028219 
L 270.359237 -192.32474 
L 268.274554 -180.282057 
L 266.189872 -179.150679 
L 264.105189 -184.424865 
L 262.020507 -174.946183 
L 259.935824 -170.693258 
L 257.851142 -164.585266 
L 255.76646 -173.101182 
L 253.681777 -168.999126 
L 251.597095 -164.462217 
L 249.512412 -164.32734 
L 247.42773 -163.516389 
L 245.343047 -146.393366 
L 243.258365 -144.620714 
L 241.173682 -138.601221 
L 239.089 -141.470053 
L 237.004318 -126.369618 
L 234.919635 -113.405872 
L 232.834953 -103.688361 
L 230.75027 -96.077955 
L 228.665588 -80.491432 
L 226.580905 -75.24456 
L 224.496223 -79.69832 
L 222.41154 -66.878777 
L 220.326858 -65.187113 
L 218.242176 -65.616055 
L 216.157493 -67.602135 
L 214.072811 -65.964243 
L 211.988128 -55.707041 
L 209.903446 -56.681773 
L 207.818763 -50.567655 
L 205.734081 -54.129236 
L 203.649399 -56.709337 
L 201.564716 -53.238289 
L 199.480034 -73.232145 
L 197.395351 -72.889053 
L 195.310669 -75.299021 
L 193.225986 -88.014414 
L 191.141304 -91.496179 
L 189.056621 -91.911528 
L 186.971939 -90.435038 
L 184.887257 -102.761051 
L 182.802574 -98.393099 
L 180.717892 -92.370786 
L 178.633209 -92.579909 
L 176.548527 -84.888719 
L 174.463844 -83.543107 
L 172.379162 -90.823373 
L 170.294479 -93.288193 
L 168.209797 -99.753181 
L 166.125115 -97.093707 
L 164.040432 -96.864434 
L 161.95575 -98.718735 
L 159.871067 -94.418909 
L 157.786385 -102.737624 
L 155.701702 -86.550443 
L 153.61702 -83.258779 
L 151.532337 -84.115356 
L 149.447655 -80.9957 
L 147.362973 -80.40244 
L 145.27829 -78.949336 
L 143.193608 -74.716105 
L 141.108925 -76.023588 
L 139.024243 -69.666618 
L 136.93956 -69.594548 
L 134.854878 -71.342801 
L 132.770196 -77.252245 
L 130.685513 -86.631421 
L 128.600831 -83.148748 
L 126.516148 -87.141008 
L 124.431466 -88.237437 
L 122.346783 -89.548095 
L 120.262101 -98.453685 
L 118.177418 -95.455664 
L 116.092736 -108.891654 
L 114.008054 -108.575854 
L 111.923371 -108.630593 
L 109.838689 -117.29495 
L 107.754006 -115.880935 
L 105.669324 -113.383226 
L 103.584641 -114.257219 
L 101.499959 -122.566661 
L 99.415276 -108.408618 
L 97.330594 -98.786883 
L 95.245912 -107.731006 
L 93.161229 -132.211713 
L 91.076547 -132.954749 
L 88.991864 -129.264038 
L 86.907182 -123.981277 
z
" id="mca74366b12" style="stroke:#1e90ff;stroke-opacity:0.2;"/>
    </defs>
    <g clip-path="url(#p788b2cae95)">
     <use style="fill:#1e90ff;fill-opacity:0.2;stroke:#1e90ff;stroke-opacity:0.2;" x="0" xlink:href="#mca74366b12" y="290.899"/>
    </g>
   </g>
   <g id="matplotlib.axis_1">
    <g id="xtick_1">
     <g id="line2d_1">
      <defs>
       <path d="M 0 0 
L 0 -6 
" id="mc0fae37a06" style="stroke:#000000;stroke-width:2;"/>
      </defs>
      <g>
       <use style="stroke:#000000;stroke-width:2;" x="86.907182" xlink:href="#mc0fae37a06" y="245.229"/>
      </g>
     </g>
     <g id="text_1">
      <!-- -75 -->
      <defs>
       <path d="M 4.890625 31.390625 
L 31.203125 31.390625 
L 31.203125 23.390625 
L 4.890625 23.390625 
z
" id="DejaVuSans-45"/>
       <path d="M 8.203125 72.90625 
L 55.078125 72.90625 
L 55.078125 68.703125 
L 28.609375 0 
L 18.3125 0 
L 43.21875 64.59375 
L 8.203125 64.59375 
z
" id="DejaVuSans-55"/>
       <path d="M 10.796875 72.90625 
L 49.515625 72.90625 
L 49.515625 64.59375 
L 19.828125 64.59375 
L 19.828125 46.734375 
Q 21.96875 47.46875 24.109375 47.828125 
Q 26.265625 48.1875 28.421875 48.1875 
Q 40.625 48.1875 47.75 41.5 
Q 54.890625 34.8125 54.890625 23.390625 
Q 54.890625 11.625 47.5625 5.09375 
Q 40.234375 -1.421875 26.90625 -1.421875 
Q 22.3125 -1.421875 17.546875 -0.640625 
Q 12.796875 0.140625 7.71875 1.703125 
L 7.71875 11.625 
Q 12.109375 9.234375 16.796875 8.0625 
Q 21.484375 6.890625 26.703125 6.890625 
Q 35.15625 6.890625 40.078125 11.328125 
Q 45.015625 15.765625 45.015625 23.390625 
Q 45.015625 31 40.078125 35.4375 
Q 35.15625 39.890625 26.703125 39.890625 
Q 22.75 39.890625 18.8125 39.015625 
Q 14.890625 38.140625 10.796875 36.28125 
z
" id="DejaVuSans-53"/>
      </defs>
      <g transform="translate(73.840932 260.8865)scale(0.16 -0.16)">
       <use xlink:href="#DejaVuSans-45"/>
       <use x="36.083984" xlink:href="#DejaVuSans-55"/>
       <use x="99.707031" xlink:href="#DejaVuSans-53"/>
      </g>
     </g>
    </g>
    <g id="xtick_2">
     <g id="line2d_2">
      <g>
       <use style="stroke:#000000;stroke-width:2;" x="139.024243" xlink:href="#mc0fae37a06" y="245.229"/>
      </g>
     </g>
     <g id="text_2">
      <!-- -50 -->
      <defs>
       <path d="M 31.78125 66.40625 
Q 24.171875 66.40625 20.328125 58.90625 
Q 16.5 51.421875 16.5 36.375 
Q 16.5 21.390625 20.328125 13.890625 
Q 24.171875 6.390625 31.78125 6.390625 
Q 39.453125 6.390625 43.28125 13.890625 
Q 47.125 21.390625 47.125 36.375 
Q 47.125 51.421875 43.28125 58.90625 
Q 39.453125 66.40625 31.78125 66.40625 
z
M 31.78125 74.21875 
Q 44.046875 74.21875 50.515625 64.515625 
Q 56.984375 54.828125 56.984375 36.375 
Q 56.984375 17.96875 50.515625 8.265625 
Q 44.046875 -1.421875 31.78125 -1.421875 
Q 19.53125 -1.421875 13.0625 8.265625 
Q 6.59375 17.96875 6.59375 36.375 
Q 6.59375 54.828125 13.0625 64.515625 
Q 19.53125 74.21875 31.78125 74.21875 
z
" id="DejaVuSans-48"/>
      </defs>
      <g transform="translate(125.957993 260.8865)scale(0.16 -0.16)">
       <use xlink:href="#DejaVuSans-45"/>
       <use x="36.083984" xlink:href="#DejaVuSans-53"/>
       <use x="99.707031" xlink:href="#DejaVuSans-48"/>
      </g>
     </g>
    </g>
    <g id="xtick_3">
     <g id="line2d_3">
      <g>
       <use style="stroke:#000000;stroke-width:2;" x="191.141304" xlink:href="#mc0fae37a06" y="245.229"/>
      </g>
     </g>
     <g id="text_3">
      <!-- -25 -->
      <defs>
       <path d="M 19.1875 8.296875 
L 53.609375 8.296875 
L 53.609375 0 
L 7.328125 0 
L 7.328125 8.296875 
Q 12.9375 14.109375 22.625 23.890625 
Q 32.328125 33.6875 34.8125 36.53125 
Q 39.546875 41.84375 41.421875 45.53125 
Q 43.3125 49.21875 43.3125 52.78125 
Q 43.3125 58.59375 39.234375 62.25 
Q 35.15625 65.921875 28.609375 65.921875 
Q 23.96875 65.921875 18.8125 64.3125 
Q 13.671875 62.703125 7.8125 59.421875 
L 7.8125 69.390625 
Q 13.765625 71.78125 18.9375 73 
Q 24.125 74.21875 28.421875 74.21875 
Q 39.75 74.21875 46.484375 68.546875 
Q 53.21875 62.890625 53.21875 53.421875 
Q 53.21875 48.921875 51.53125 44.890625 
Q 49.859375 40.875 45.40625 35.40625 
Q 44.1875 33.984375 37.640625 27.21875 
Q 31.109375 20.453125 19.1875 8.296875 
z
" id="DejaVuSans-50"/>
      </defs>
      <g transform="translate(178.075054 260.8865)scale(0.16 -0.16)">
       <use xlink:href="#DejaVuSans-45"/>
       <use x="36.083984" xlink:href="#DejaVuSans-50"/>
       <use x="99.707031" xlink:href="#DejaVuSans-53"/>
      </g>
     </g>
    </g>
    <g id="xtick_4">
     <g id="line2d_4">
      <g>
       <use style="stroke:#000000;stroke-width:2;" x="243.258365" xlink:href="#mc0fae37a06" y="245.229"/>
      </g>
     </g>
     <g id="text_4">
      <!-- 0 -->
      <g transform="translate(238.168365 260.8865)scale(0.16 -0.16)">
       <use xlink:href="#DejaVuSans-48"/>
      </g>
     </g>
    </g>
    <g id="xtick_5">
     <g id="line2d_5">
      <g>
       <use style="stroke:#000000;stroke-width:2;" x="295.375426" xlink:href="#mc0fae37a06" y="245.229"/>
      </g>
     </g>
     <g id="text_5">
      <!-- 25 -->
      <g transform="translate(285.195426 260.8865)scale(0.16 -0.16)">
       <use xlink:href="#DejaVuSans-50"/>
       <use x="63.623047" xlink:href="#DejaVuSans-53"/>
      </g>
     </g>
    </g>
    <g id="xtick_6">
     <g id="line2d_6">
      <g>
       <use style="stroke:#000000;stroke-width:2;" x="347.492487" xlink:href="#mc0fae37a06" y="245.229"/>
      </g>
     </g>
     <g id="text_6">
      <!-- 50 -->
      <g transform="translate(337.312487 260.8865)scale(0.16 -0.16)">
       <use xlink:href="#DejaVuSans-53"/>
       <use x="63.623047" xlink:href="#DejaVuSans-48"/>
      </g>
     </g>
    </g>
    <g id="xtick_7">
     <g id="line2d_7">
      <g>
       <use style="stroke:#000000;stroke-width:2;" x="399.609548" xlink:href="#mc0fae37a06" y="245.229"/>
      </g>
     </g>
     <g id="text_7">
      <!-- 75 -->
      <g transform="translate(389.429548 260.8865)scale(0.16 -0.16)">
       <use xlink:href="#DejaVuSans-55"/>
       <use x="63.623047" xlink:href="#DejaVuSans-53"/>
      </g>
     </g>
    </g>
    <g id="text_8">
     <!-- Relative Orientation of Previous Trial -->
     <defs>
      <path d="M 44.390625 34.1875 
Q 47.5625 33.109375 50.5625 29.59375 
Q 53.5625 26.078125 56.59375 19.921875 
L 66.609375 0 
L 56 0 
L 46.6875 18.703125 
Q 43.0625 26.03125 39.671875 28.421875 
Q 36.28125 30.8125 30.421875 30.8125 
L 19.671875 30.8125 
L 19.671875 0 
L 9.8125 0 
L 9.8125 72.90625 
L 32.078125 72.90625 
Q 44.578125 72.90625 50.734375 67.671875 
Q 56.890625 62.453125 56.890625 51.90625 
Q 56.890625 45.015625 53.6875 40.46875 
Q 50.484375 35.9375 44.390625 34.1875 
z
M 19.671875 64.796875 
L 19.671875 38.921875 
L 32.078125 38.921875 
Q 39.203125 38.921875 42.84375 42.21875 
Q 46.484375 45.515625 46.484375 51.90625 
Q 46.484375 58.296875 42.84375 61.546875 
Q 39.203125 64.796875 32.078125 64.796875 
z
" id="DejaVuSans-82"/>
      <path d="M 56.203125 29.59375 
L 56.203125 25.203125 
L 14.890625 25.203125 
Q 15.484375 15.921875 20.484375 11.0625 
Q 25.484375 6.203125 34.421875 6.203125 
Q 39.59375 6.203125 44.453125 7.46875 
Q 49.3125 8.734375 54.109375 11.28125 
L 54.109375 2.78125 
Q 49.265625 0.734375 44.1875 -0.34375 
Q 39.109375 -1.421875 33.890625 -1.421875 
Q 20.796875 -1.421875 13.15625 6.1875 
Q 5.515625 13.8125 5.515625 26.8125 
Q 5.515625 40.234375 12.765625 48.109375 
Q 20.015625 56 32.328125 56 
Q 43.359375 56 49.78125 48.890625 
Q 56.203125 41.796875 56.203125 29.59375 
z
M 47.21875 32.234375 
Q 47.125 39.59375 43.09375 43.984375 
Q 39.0625 48.390625 32.421875 48.390625 
Q 24.90625 48.390625 20.390625 44.140625 
Q 15.875 39.890625 15.1875 32.171875 
z
" id="DejaVuSans-101"/>
      <path d="M 9.421875 75.984375 
L 18.40625 75.984375 
L 18.40625 0 
L 9.421875 0 
z
" id="DejaVuSans-108"/>
      <path d="M 34.28125 27.484375 
Q 23.390625 27.484375 19.1875 25 
Q 14.984375 22.515625 14.984375 16.5 
Q 14.984375 11.71875 18.140625 8.90625 
Q 21.296875 6.109375 26.703125 6.109375 
Q 34.1875 6.109375 38.703125 11.40625 
Q 43.21875 16.703125 43.21875 25.484375 
L 43.21875 27.484375 
z
M 52.203125 31.203125 
L 52.203125 0 
L 43.21875 0 
L 43.21875 8.296875 
Q 40.140625 3.328125 35.546875 0.953125 
Q 30.953125 -1.421875 24.3125 -1.421875 
Q 15.921875 -1.421875 10.953125 3.296875 
Q 6 8.015625 6 15.921875 
Q 6 25.140625 12.171875 29.828125 
Q 18.359375 34.515625 30.609375 34.515625 
L 43.21875 34.515625 
L 43.21875 35.40625 
Q 43.21875 41.609375 39.140625 45 
Q 35.0625 48.390625 27.6875 48.390625 
Q 23 48.390625 18.546875 47.265625 
Q 14.109375 46.140625 10.015625 43.890625 
L 10.015625 52.203125 
Q 14.9375 54.109375 19.578125 55.046875 
Q 24.21875 56 28.609375 56 
Q 40.484375 56 46.34375 49.84375 
Q 52.203125 43.703125 52.203125 31.203125 
z
" id="DejaVuSans-97"/>
      <path d="M 18.3125 70.21875 
L 18.3125 54.6875 
L 36.8125 54.6875 
L 36.8125 47.703125 
L 18.3125 47.703125 
L 18.3125 18.015625 
Q 18.3125 11.328125 20.140625 9.421875 
Q 21.96875 7.515625 27.59375 7.515625 
L 36.8125 7.515625 
L 36.8125 0 
L 27.59375 0 
Q 17.1875 0 13.234375 3.875 
Q 9.28125 7.765625 9.28125 18.015625 
L 9.28125 47.703125 
L 2.6875 47.703125 
L 2.6875 54.6875 
L 9.28125 54.6875 
L 9.28125 70.21875 
z
" id="DejaVuSans-116"/>
      <path d="M 9.421875 54.6875 
L 18.40625 54.6875 
L 18.40625 0 
L 9.421875 0 
z
M 9.421875 75.984375 
L 18.40625 75.984375 
L 18.40625 64.59375 
L 9.421875 64.59375 
z
" id="DejaVuSans-105"/>
      <path d="M 2.984375 54.6875 
L 12.5 54.6875 
L 29.59375 8.796875 
L 46.6875 54.6875 
L 56.203125 54.6875 
L 35.6875 0 
L 23.484375 0 
z
" id="DejaVuSans-118"/>
      <path id="DejaVuSans-32"/>
      <path d="M 39.40625 66.21875 
Q 28.65625 66.21875 22.328125 58.203125 
Q 16.015625 50.203125 16.015625 36.375 
Q 16.015625 22.609375 22.328125 14.59375 
Q 28.65625 6.59375 39.40625 6.59375 
Q 50.140625 6.59375 56.421875 14.59375 
Q 62.703125 22.609375 62.703125 36.375 
Q 62.703125 50.203125 56.421875 58.203125 
Q 50.140625 66.21875 39.40625 66.21875 
z
M 39.40625 74.21875 
Q 54.734375 74.21875 63.90625 63.9375 
Q 73.09375 53.65625 73.09375 36.375 
Q 73.09375 19.140625 63.90625 8.859375 
Q 54.734375 -1.421875 39.40625 -1.421875 
Q 24.03125 -1.421875 14.8125 8.828125 
Q 5.609375 19.09375 5.609375 36.375 
Q 5.609375 53.65625 14.8125 63.9375 
Q 24.03125 74.21875 39.40625 74.21875 
z
" id="DejaVuSans-79"/>
      <path d="M 41.109375 46.296875 
Q 39.59375 47.171875 37.8125 47.578125 
Q 36.03125 48 33.890625 48 
Q 26.265625 48 22.1875 43.046875 
Q 18.109375 38.09375 18.109375 28.8125 
L 18.109375 0 
L 9.078125 0 
L 9.078125 54.6875 
L 18.109375 54.6875 
L 18.109375 46.1875 
Q 20.953125 51.171875 25.484375 53.578125 
Q 30.03125 56 36.53125 56 
Q 37.453125 56 38.578125 55.875 
Q 39.703125 55.765625 41.0625 55.515625 
z
" id="DejaVuSans-114"/>
      <path d="M 54.890625 33.015625 
L 54.890625 0 
L 45.90625 0 
L 45.90625 32.71875 
Q 45.90625 40.484375 42.875 44.328125 
Q 39.84375 48.1875 33.796875 48.1875 
Q 26.515625 48.1875 22.3125 43.546875 
Q 18.109375 38.921875 18.109375 30.90625 
L 18.109375 0 
L 9.078125 0 
L 9.078125 54.6875 
L 18.109375 54.6875 
L 18.109375 46.1875 
Q 21.34375 51.125 25.703125 53.5625 
Q 30.078125 56 35.796875 56 
Q 45.21875 56 50.046875 50.171875 
Q 54.890625 44.34375 54.890625 33.015625 
z
" id="DejaVuSans-110"/>
      <path d="M 30.609375 48.390625 
Q 23.390625 48.390625 19.1875 42.75 
Q 14.984375 37.109375 14.984375 27.296875 
Q 14.984375 17.484375 19.15625 11.84375 
Q 23.34375 6.203125 30.609375 6.203125 
Q 37.796875 6.203125 41.984375 11.859375 
Q 46.1875 17.53125 46.1875 27.296875 
Q 46.1875 37.015625 41.984375 42.703125 
Q 37.796875 48.390625 30.609375 48.390625 
z
M 30.609375 56 
Q 42.328125 56 49.015625 48.375 
Q 55.71875 40.765625 55.71875 27.296875 
Q 55.71875 13.875 49.015625 6.21875 
Q 42.328125 -1.421875 30.609375 -1.421875 
Q 18.84375 -1.421875 12.171875 6.21875 
Q 5.515625 13.875 5.515625 27.296875 
Q 5.515625 40.765625 12.171875 48.375 
Q 18.84375 56 30.609375 56 
z
" id="DejaVuSans-111"/>
      <path d="M 37.109375 75.984375 
L 37.109375 68.5 
L 28.515625 68.5 
Q 23.6875 68.5 21.796875 66.546875 
Q 19.921875 64.59375 19.921875 59.515625 
L 19.921875 54.6875 
L 34.71875 54.6875 
L 34.71875 47.703125 
L 19.921875 47.703125 
L 19.921875 0 
L 10.890625 0 
L 10.890625 47.703125 
L 2.296875 47.703125 
L 2.296875 54.6875 
L 10.890625 54.6875 
L 10.890625 58.5 
Q 10.890625 67.625 15.140625 71.796875 
Q 19.390625 75.984375 28.609375 75.984375 
z
" id="DejaVuSans-102"/>
      <path d="M 19.671875 64.796875 
L 19.671875 37.40625 
L 32.078125 37.40625 
Q 38.96875 37.40625 42.71875 40.96875 
Q 46.484375 44.53125 46.484375 51.125 
Q 46.484375 57.671875 42.71875 61.234375 
Q 38.96875 64.796875 32.078125 64.796875 
z
M 9.8125 72.90625 
L 32.078125 72.90625 
Q 44.34375 72.90625 50.609375 67.359375 
Q 56.890625 61.8125 56.890625 51.125 
Q 56.890625 40.328125 50.609375 34.8125 
Q 44.34375 29.296875 32.078125 29.296875 
L 19.671875 29.296875 
L 19.671875 0 
L 9.8125 0 
z
" id="DejaVuSans-80"/>
      <path d="M 8.5 21.578125 
L 8.5 54.6875 
L 17.484375 54.6875 
L 17.484375 21.921875 
Q 17.484375 14.15625 20.5 10.265625 
Q 23.53125 6.390625 29.59375 6.390625 
Q 36.859375 6.390625 41.078125 11.03125 
Q 45.3125 15.671875 45.3125 23.6875 
L 45.3125 54.6875 
L 54.296875 54.6875 
L 54.296875 0 
L 45.3125 0 
L 45.3125 8.40625 
Q 42.046875 3.421875 37.71875 1 
Q 33.40625 -1.421875 27.6875 -1.421875 
Q 18.265625 -1.421875 13.375 4.4375 
Q 8.5 10.296875 8.5 21.578125 
z
M 31.109375 56 
z
" id="DejaVuSans-117"/>
      <path d="M 44.28125 53.078125 
L 44.28125 44.578125 
Q 40.484375 46.53125 36.375 47.5 
Q 32.28125 48.484375 27.875 48.484375 
Q 21.1875 48.484375 17.84375 46.4375 
Q 14.5 44.390625 14.5 40.28125 
Q 14.5 37.15625 16.890625 35.375 
Q 19.28125 33.59375 26.515625 31.984375 
L 29.59375 31.296875 
Q 39.15625 29.25 43.1875 25.515625 
Q 47.21875 21.78125 47.21875 15.09375 
Q 47.21875 7.46875 41.1875 3.015625 
Q 35.15625 -1.421875 24.609375 -1.421875 
Q 20.21875 -1.421875 15.453125 -0.5625 
Q 10.6875 0.296875 5.421875 2 
L 5.421875 11.28125 
Q 10.40625 8.6875 15.234375 7.390625 
Q 20.0625 6.109375 24.8125 6.109375 
Q 31.15625 6.109375 34.5625 8.28125 
Q 37.984375 10.453125 37.984375 14.40625 
Q 37.984375 18.0625 35.515625 20.015625 
Q 33.0625 21.96875 24.703125 23.78125 
L 21.578125 24.515625 
Q 13.234375 26.265625 9.515625 29.90625 
Q 5.8125 33.546875 5.8125 39.890625 
Q 5.8125 47.609375 11.28125 51.796875 
Q 16.75 56 26.8125 56 
Q 31.78125 56 36.171875 55.265625 
Q 40.578125 54.546875 44.28125 53.078125 
z
" id="DejaVuSans-115"/>
      <path d="M -0.296875 72.90625 
L 61.375 72.90625 
L 61.375 64.59375 
L 35.5 64.59375 
L 35.5 0 
L 25.59375 0 
L 25.59375 64.59375 
L -0.296875 64.59375 
z
" id="DejaVuSans-84"/>
     </defs>
     <g transform="translate(91.80025 280.3715)scale(0.16 -0.16)">
      <use xlink:href="#DejaVuSans-82"/>
      <use x="69.419922" xlink:href="#DejaVuSans-101"/>
      <use x="130.943359" xlink:href="#DejaVuSans-108"/>
      <use x="158.726562" xlink:href="#DejaVuSans-97"/>
      <use x="220.005859" xlink:href="#DejaVuSans-116"/>
      <use x="259.214844" xlink:href="#DejaVuSans-105"/>
      <use x="286.998047" xlink:href="#DejaVuSans-118"/>
      <use x="346.177734" xlink:href="#DejaVuSans-101"/>
      <use x="407.701172" xlink:href="#DejaVuSans-32"/>
      <use x="439.488281" xlink:href="#DejaVuSans-79"/>
      <use x="518.199219" xlink:href="#DejaVuSans-114"/>
      <use x="559.3125" xlink:href="#DejaVuSans-105"/>
      <use x="587.095703" xlink:href="#DejaVuSans-101"/>
      <use x="648.619141" xlink:href="#DejaVuSans-110"/>
      <use x="711.998047" xlink:href="#DejaVuSans-116"/>
      <use x="751.207031" xlink:href="#DejaVuSans-97"/>
      <use x="812.486328" xlink:href="#DejaVuSans-116"/>
      <use x="851.695312" xlink:href="#DejaVuSans-105"/>
      <use x="879.478516" xlink:href="#DejaVuSans-111"/>
      <use x="940.660156" xlink:href="#DejaVuSans-110"/>
      <use x="1004.039062" xlink:href="#DejaVuSans-32"/>
      <use x="1035.826172" xlink:href="#DejaVuSans-111"/>
      <use x="1097.007812" xlink:href="#DejaVuSans-102"/>
      <use x="1132.212891" xlink:href="#DejaVuSans-32"/>
      <use x="1164" xlink:href="#DejaVuSans-80"/>
      <use x="1224.287109" xlink:href="#DejaVuSans-114"/>
      <use x="1265.369141" xlink:href="#DejaVuSans-101"/>
      <use x="1326.892578" xlink:href="#DejaVuSans-118"/>
      <use x="1386.072266" xlink:href="#DejaVuSans-105"/>
      <use x="1413.855469" xlink:href="#DejaVuSans-111"/>
      <use x="1475.037109" xlink:href="#DejaVuSans-117"/>
      <use x="1538.416016" xlink:href="#DejaVuSans-115"/>
      <use x="1590.515625" xlink:href="#DejaVuSans-32"/>
      <use x="1622.302734" xlink:href="#DejaVuSans-84"/>
      <use x="1683.167969" xlink:href="#DejaVuSans-114"/>
      <use x="1724.28125" xlink:href="#DejaVuSans-105"/>
      <use x="1752.064453" xlink:href="#DejaVuSans-97"/>
      <use x="1813.34375" xlink:href="#DejaVuSans-108"/>
     </g>
    </g>
   </g>
   <g id="matplotlib.axis_2">
    <g id="ytick_1">
     <g id="line2d_8">
      <defs>
       <path d="M 0 0 
L 6 0 
" id="m51a7bfe412" style="stroke:#000000;stroke-width:2;"/>
      </defs>
      <g>
       <use style="stroke:#000000;stroke-width:2;" x="71.689" xlink:href="#m51a7bfe412" y="245.229"/>
      </g>
     </g>
     <g id="text_9">
      <!-- −3 -->
      <defs>
       <path d="M 10.59375 35.5 
L 73.1875 35.5 
L 73.1875 27.203125 
L 10.59375 27.203125 
z
" id="DejaVuSans-8722"/>
       <path d="M 40.578125 39.3125 
Q 47.65625 37.796875 51.625 33 
Q 55.609375 28.21875 55.609375 21.1875 
Q 55.609375 10.40625 48.1875 4.484375 
Q 40.765625 -1.421875 27.09375 -1.421875 
Q 22.515625 -1.421875 17.65625 -0.515625 
Q 12.796875 0.390625 7.625 2.203125 
L 7.625 11.71875 
Q 11.71875 9.328125 16.59375 8.109375 
Q 21.484375 6.890625 26.8125 6.890625 
Q 36.078125 6.890625 40.9375 10.546875 
Q 45.796875 14.203125 45.796875 21.1875 
Q 45.796875 27.640625 41.28125 31.265625 
Q 36.765625 34.90625 28.71875 34.90625 
L 20.21875 34.90625 
L 20.21875 43.015625 
L 29.109375 43.015625 
Q 36.375 43.015625 40.234375 45.921875 
Q 44.09375 48.828125 44.09375 54.296875 
Q 44.09375 59.90625 40.109375 62.90625 
Q 36.140625 65.921875 28.71875 65.921875 
Q 24.65625 65.921875 20.015625 65.03125 
Q 15.375 64.15625 9.8125 62.3125 
L 9.8125 71.09375 
Q 15.4375 72.65625 20.34375 73.4375 
Q 25.25 74.21875 29.59375 74.21875 
Q 40.828125 74.21875 47.359375 69.109375 
Q 53.90625 64.015625 53.90625 55.328125 
Q 53.90625 49.265625 50.4375 45.09375 
Q 46.96875 40.921875 40.578125 39.3125 
z
" id="DejaVuSans-51"/>
      </defs>
      <g transform="translate(44.6015 251.30775)scale(0.16 -0.16)">
       <use xlink:href="#DejaVuSans-8722"/>
       <use x="83.789062" xlink:href="#DejaVuSans-51"/>
      </g>
     </g>
    </g>
    <g id="ytick_2">
     <g id="line2d_9">
      <g>
       <use style="stroke:#000000;stroke-width:2;" x="71.689" xlink:href="#m51a7bfe412" y="208.989"/>
      </g>
     </g>
     <g id="text_10">
      <!-- −2 -->
      <g transform="translate(44.6015 215.06775)scale(0.16 -0.16)">
       <use xlink:href="#DejaVuSans-8722"/>
       <use x="83.789062" xlink:href="#DejaVuSans-50"/>
      </g>
     </g>
    </g>
    <g id="ytick_3">
     <g id="line2d_10">
      <g>
       <use style="stroke:#000000;stroke-width:2;" x="71.689" xlink:href="#m51a7bfe412" y="172.749"/>
      </g>
     </g>
     <g id="text_11">
      <!-- −1 -->
      <defs>
       <path d="M 12.40625 8.296875 
L 28.515625 8.296875 
L 28.515625 63.921875 
L 10.984375 60.40625 
L 10.984375 69.390625 
L 28.421875 72.90625 
L 38.28125 72.90625 
L 38.28125 8.296875 
L 54.390625 8.296875 
L 54.390625 0 
L 12.40625 0 
z
" id="DejaVuSans-49"/>
      </defs>
      <g transform="translate(44.6015 178.82775)scale(0.16 -0.16)">
       <use xlink:href="#DejaVuSans-8722"/>
       <use x="83.789062" xlink:href="#DejaVuSans-49"/>
      </g>
     </g>
    </g>
    <g id="ytick_4">
     <g id="line2d_11">
      <g>
       <use style="stroke:#000000;stroke-width:2;" x="71.689" xlink:href="#m51a7bfe412" y="136.509"/>
      </g>
     </g>
     <g id="text_12">
      <!-- 0 -->
      <g transform="translate(58.009 142.58775)scale(0.16 -0.16)">
       <use xlink:href="#DejaVuSans-48"/>
      </g>
     </g>
    </g>
    <g id="ytick_5">
     <g id="line2d_12">
      <g>
       <use style="stroke:#000000;stroke-width:2;" x="71.689" xlink:href="#m51a7bfe412" y="100.269"/>
      </g>
     </g>
     <g id="text_13">
      <!-- 1 -->
      <g transform="translate(58.009 106.34775)scale(0.16 -0.16)">
       <use xlink:href="#DejaVuSans-49"/>
      </g>
     </g>
    </g>
    <g id="ytick_6">
     <g id="line2d_13">
      <g>
       <use style="stroke:#000000;stroke-width:2;" x="71.689" xlink:href="#m51a7bfe412" y="64.029"/>
      </g>
     </g>
     <g id="text_14">
      <!-- 2 -->
      <g transform="translate(58.009 70.10775)scale(0.16 -0.16)">
       <use xlink:href="#DejaVuSans-50"/>
      </g>
     </g>
    </g>
    <g id="ytick_7">
     <g id="line2d_14">
      <g>
       <use style="stroke:#000000;stroke-width:2;" x="71.689" xlink:href="#m51a7bfe412" y="27.789"/>
      </g>
     </g>
     <g id="text_15">
      <!-- 3 -->
      <g transform="translate(58.009 33.86775)scale(0.16 -0.16)">
       <use xlink:href="#DejaVuSans-51"/>
      </g>
     </g>
    </g>
    <g id="text_16">
     <!-- Running Mean  -->
     <defs>
      <path d="M 45.40625 27.984375 
Q 45.40625 37.75 41.375 43.109375 
Q 37.359375 48.484375 30.078125 48.484375 
Q 22.859375 48.484375 18.828125 43.109375 
Q 14.796875 37.75 14.796875 27.984375 
Q 14.796875 18.265625 18.828125 12.890625 
Q 22.859375 7.515625 30.078125 7.515625 
Q 37.359375 7.515625 41.375 12.890625 
Q 45.40625 18.265625 45.40625 27.984375 
z
M 54.390625 6.78125 
Q 54.390625 -7.171875 48.1875 -13.984375 
Q 42 -20.796875 29.203125 -20.796875 
Q 24.46875 -20.796875 20.265625 -20.09375 
Q 16.0625 -19.390625 12.109375 -17.921875 
L 12.109375 -9.1875 
Q 16.0625 -11.328125 19.921875 -12.34375 
Q 23.78125 -13.375 27.78125 -13.375 
Q 36.625 -13.375 41.015625 -8.765625 
Q 45.40625 -4.15625 45.40625 5.171875 
L 45.40625 9.625 
Q 42.625 4.78125 38.28125 2.390625 
Q 33.9375 0 27.875 0 
Q 17.828125 0 11.671875 7.65625 
Q 5.515625 15.328125 5.515625 27.984375 
Q 5.515625 40.671875 11.671875 48.328125 
Q 17.828125 56 27.875 56 
Q 33.9375 56 38.28125 53.609375 
Q 42.625 51.21875 45.40625 46.390625 
L 45.40625 54.6875 
L 54.390625 54.6875 
z
" id="DejaVuSans-103"/>
      <path d="M 9.8125 72.90625 
L 24.515625 72.90625 
L 43.109375 23.296875 
L 61.8125 72.90625 
L 76.515625 72.90625 
L 76.515625 0 
L 66.890625 0 
L 66.890625 64.015625 
L 48.09375 14.015625 
L 38.1875 14.015625 
L 19.390625 64.015625 
L 19.390625 0 
L 9.8125 0 
z
" id="DejaVuSans-77"/>
     </defs>
     <g transform="translate(19.3575 196.5265)rotate(-90)scale(0.16 -0.16)">
      <use xlink:href="#DejaVuSans-82"/>
      <use x="69.419922" xlink:href="#DejaVuSans-117"/>
      <use x="132.798828" xlink:href="#DejaVuSans-110"/>
      <use x="196.177734" xlink:href="#DejaVuSans-110"/>
      <use x="259.556641" xlink:href="#DejaVuSans-105"/>
      <use x="287.339844" xlink:href="#DejaVuSans-110"/>
      <use x="350.71875" xlink:href="#DejaVuSans-103"/>
      <use x="414.195312" xlink:href="#DejaVuSans-32"/>
      <use x="445.982422" xlink:href="#DejaVuSans-77"/>
      <use x="532.261719" xlink:href="#DejaVuSans-101"/>
      <use x="593.785156" xlink:href="#DejaVuSans-97"/>
      <use x="655.064453" xlink:href="#DejaVuSans-110"/>
      <use x="718.443359" xlink:href="#DejaVuSans-32"/>
     </g>
     <!--  of Response Error -->
     <defs>
      <path d="M 18.109375 8.203125 
L 18.109375 -20.796875 
L 9.078125 -20.796875 
L 9.078125 54.6875 
L 18.109375 54.6875 
L 18.109375 46.390625 
Q 20.953125 51.265625 25.265625 53.625 
Q 29.59375 56 35.59375 56 
Q 45.5625 56 51.78125 48.09375 
Q 58.015625 40.1875 58.015625 27.296875 
Q 58.015625 14.40625 51.78125 6.484375 
Q 45.5625 -1.421875 35.59375 -1.421875 
Q 29.59375 -1.421875 25.265625 0.953125 
Q 20.953125 3.328125 18.109375 8.203125 
z
M 48.6875 27.296875 
Q 48.6875 37.203125 44.609375 42.84375 
Q 40.53125 48.484375 33.40625 48.484375 
Q 26.265625 48.484375 22.1875 42.84375 
Q 18.109375 37.203125 18.109375 27.296875 
Q 18.109375 17.390625 22.1875 11.75 
Q 26.265625 6.109375 33.40625 6.109375 
Q 40.53125 6.109375 44.609375 11.75 
Q 48.6875 17.390625 48.6875 27.296875 
z
" id="DejaVuSans-112"/>
      <path d="M 9.8125 72.90625 
L 55.90625 72.90625 
L 55.90625 64.59375 
L 19.671875 64.59375 
L 19.671875 43.015625 
L 54.390625 43.015625 
L 54.390625 34.71875 
L 19.671875 34.71875 
L 19.671875 8.296875 
L 56.78125 8.296875 
L 56.78125 0 
L 9.8125 0 
z
" id="DejaVuSans-69"/>
     </defs>
     <g transform="translate(37.274 210.43775)rotate(-90)scale(0.16 -0.16)">
      <use xlink:href="#DejaVuSans-32"/>
      <use x="31.787109" xlink:href="#DejaVuSans-111"/>
      <use x="92.96875" xlink:href="#DejaVuSans-102"/>
      <use x="128.173828" xlink:href="#DejaVuSans-32"/>
      <use x="159.960938" xlink:href="#DejaVuSans-82"/>
      <use x="229.380859" xlink:href="#DejaVuSans-101"/>
      <use x="290.904297" xlink:href="#DejaVuSans-115"/>
      <use x="343.003906" xlink:href="#DejaVuSans-112"/>
      <use x="406.480469" xlink:href="#DejaVuSans-111"/>
      <use x="467.662109" xlink:href="#DejaVuSans-110"/>
      <use x="531.041016" xlink:href="#DejaVuSans-115"/>
      <use x="583.140625" xlink:href="#DejaVuSans-101"/>
      <use x="644.664062" xlink:href="#DejaVuSans-32"/>
      <use x="676.451172" xlink:href="#DejaVuSans-69"/>
      <use x="739.634766" xlink:href="#DejaVuSans-114"/>
      <use x="780.732422" xlink:href="#DejaVuSans-114"/>
      <use x="821.814453" xlink:href="#DejaVuSans-111"/>
      <use x="882.996094" xlink:href="#DejaVuSans-114"/>
     </g>
    </g>
   </g>
   <g id="line2d_15">
    <path clip-path="url(#p788b2cae95)" d="M 86.907182 149.61775 
L 88.991864 143.783025 
L 91.076547 139.602332 
L 93.161229 142.532914 
L 95.245912 161.193733 
L 97.330594 169.88368 
L 99.415276 162.11444 
L 101.499959 150.583828 
L 103.584641 157.474399 
L 105.669324 156.86914 
L 107.754006 156.077705 
L 109.838689 154.589854 
L 111.923371 162.267288 
L 114.008054 163.033595 
L 116.092736 162.177803 
L 118.177418 171.734893 
L 120.262101 168.890517 
L 122.346783 176.791393 
L 124.431466 177.297475 
L 126.516148 177.587333 
L 128.600831 181.398208 
L 130.685513 180.802793 
L 132.770196 189.240455 
L 134.854878 193.228471 
L 139.024243 192.743944 
L 141.108925 190.162163 
L 143.193608 189.829166 
L 145.27829 184.964231 
L 147.362973 185.305346 
L 149.447655 189.032484 
L 151.532337 185.38774 
L 153.61702 188.746936 
L 155.701702 186.179342 
L 157.786385 170.388217 
L 159.871067 181.005183 
L 161.95575 179.999303 
L 164.040432 180.775187 
L 166.125115 179.564305 
L 168.209797 176.635106 
L 170.294479 181.696062 
L 172.379162 184.863751 
L 174.463844 192.005763 
L 176.548527 187.655458 
L 178.633209 179.660089 
L 180.717892 179.434847 
L 182.802574 174.494474 
L 184.887257 170.781947 
L 186.971939 185.251872 
L 189.056621 185.485554 
L 193.225986 191.858961 
L 195.310669 203.730401 
L 197.395351 207.058717 
L 199.480034 203.464751 
L 201.564716 217.572501 
L 203.649399 212.068047 
L 205.734081 214.013575 
L 207.818763 220.053862 
L 209.903446 216.876972 
L 211.988128 213.432887 
L 214.072811 204.304038 
L 216.157493 200.852827 
L 218.242176 200.532129 
L 220.326858 202.096036 
L 222.41154 200.312411 
L 224.496223 188.991156 
L 226.580905 194.232989 
L 228.665588 188.950099 
L 230.75027 175.095994 
L 232.834953 169.769703 
L 234.919635 159.221098 
L 237.004318 147.553781 
L 239.089 133.083851 
L 241.173682 132.148736 
L 243.258365 124.512844 
L 245.343047 123.454926 
L 247.42773 104.365493 
L 249.512412 101.525078 
L 251.597095 103.237904 
L 253.681777 99.773633 
L 255.76646 94.85212 
L 257.851142 104.211525 
L 259.935824 96.372792 
L 262.020507 93.717115 
L 264.105189 83.66983 
L 266.189872 85.415882 
L 268.274554 86.431274 
L 270.359237 77.049232 
L 272.443919 87.240231 
L 274.528601 89.681606 
L 276.613284 93.141951 
L 278.697966 94.433834 
L 282.867331 109.246313 
L 284.952014 106.173859 
L 287.036696 101.638287 
L 289.121379 90.328886 
L 291.206061 95.946714 
L 293.290743 94.168218 
L 295.375426 85.104285 
L 297.460108 91.350935 
L 299.544791 94.527247 
L 301.629473 75.153422 
L 303.714156 70.998934 
L 305.798838 71.691442 
L 307.883521 85.153738 
L 309.968203 61.090307 
L 312.052885 60.410905 
L 314.137568 64.34596 
L 316.22225 58.237936 
L 318.306933 66.067607 
L 320.391615 63.372837 
L 324.56098 65.753217 
L 326.645663 69.418648 
L 328.730345 64.343006 
L 330.815027 67.429679 
L 332.89971 73.004958 
L 334.984392 73.193195 
L 337.069075 69.102996 
L 339.153757 76.224821 
L 341.23844 71.626338 
L 343.323122 74.778878 
L 345.407804 76.25978 
L 347.492487 81.880892 
L 349.577169 74.316732 
L 351.661852 71.340497 
L 353.746534 92.484919 
L 355.831217 96.970405 
L 357.915899 89.388307 
L 360.000582 95.106532 
L 362.085264 97.026328 
L 364.169946 111.612189 
L 366.254629 111.662076 
L 368.339311 104.495145 
L 370.423994 101.120591 
L 372.508676 101.960097 
L 374.593359 107.605512 
L 376.678041 118.949907 
L 378.762724 126.119078 
L 380.847406 129.380814 
L 382.932088 130.03169 
L 385.016771 129.981268 
L 387.101453 137.112643 
L 389.186136 146.516831 
L 391.270818 149.61775 
L 391.270818 149.61775 
" style="fill:none;stroke:#00008b;stroke-linecap:square;stroke-width:1.5;"/>
   </g>
   <g id="patch_3">
    <path d="M 71.689 245.229 
L 71.689 27.789 
" style="fill:none;stroke:#000000;stroke-linecap:square;stroke-linejoin:miter;stroke-width:2;"/>
   </g>
   <g id="patch_4">
    <path d="M 71.689 245.229 
L 406.489 245.229 
" style="fill:none;stroke:#000000;stroke-linecap:square;stroke-linejoin:miter;stroke-width:2;"/>
   </g>
   <g id="text_17">
    <!-- Radiologists -->
    <defs>
     <path d="M 45.40625 46.390625 
L 45.40625 75.984375 
L 54.390625 75.984375 
L 54.390625 0 
L 45.40625 0 
L 45.40625 8.203125 
Q 42.578125 3.328125 38.25 0.953125 
Q 33.9375 -1.421875 27.875 -1.421875 
Q 17.96875 -1.421875 11.734375 6.484375 
Q 5.515625 14.40625 5.515625 27.296875 
Q 5.515625 40.1875 11.734375 48.09375 
Q 17.96875 56 27.875 56 
Q 33.9375 56 38.25 53.625 
Q 42.578125 51.265625 45.40625 46.390625 
z
M 14.796875 27.296875 
Q 14.796875 17.390625 18.875 11.75 
Q 22.953125 6.109375 30.078125 6.109375 
Q 37.203125 6.109375 41.296875 11.75 
Q 45.40625 17.390625 45.40625 27.296875 
Q 45.40625 37.203125 41.296875 42.84375 
Q 37.203125 48.484375 30.078125 48.484375 
Q 22.953125 48.484375 18.875 42.84375 
Q 14.796875 37.203125 14.796875 27.296875 
z
" id="DejaVuSans-100"/>
    </defs>
    <g transform="translate(180.835 21.789)scale(0.192 -0.192)">
     <use xlink:href="#DejaVuSans-82"/>
     <use x="69.451172" xlink:href="#DejaVuSans-97"/>
     <use x="130.730469" xlink:href="#DejaVuSans-100"/>
     <use x="194.207031" xlink:href="#DejaVuSans-105"/>
     <use x="221.990234" xlink:href="#DejaVuSans-111"/>
     <use x="283.171875" xlink:href="#DejaVuSans-108"/>
     <use x="310.955078" xlink:href="#DejaVuSans-111"/>
     <use x="372.136719" xlink:href="#DejaVuSans-103"/>
     <use x="435.613281" xlink:href="#DejaVuSans-105"/>
     <use x="463.396484" xlink:href="#DejaVuSans-115"/>
     <use x="515.496094" xlink:href="#DejaVuSans-116"/>
     <use x="554.705078" xlink:href="#DejaVuSans-115"/>
    </g>
   </g>
  </g>
 </g>
 <defs>
  <clipPath id="p788b2cae95">
   <rect height="217.44" width="334.8" x="71.689" y="27.789"/>
  </clipPath>
 </defs>
</svg>
