<?xml version="1.0" encoding="utf-8" standalone="no"?>
<!DOCTYPE svg PUBLIC "-//W3C//DTD SVG 1.1//EN"
  "http://www.w3.org/Graphics/SVG/1.1/DTD/svg11.dtd">
<!-- Created with matplotlib (https://matplotlib.org/) -->
<svg height="363.1755pt" version="1.1" viewBox="0 0 383.334 363.1755" width="383.334pt" xmlns="http://www.w3.org/2000/svg" xmlns:xlink="http://www.w3.org/1999/xlink">
 <defs>
  <style type="text/css">
*{stroke-linecap:butt;stroke-linejoin:round;}
  </style>
 </defs>
 <g id="figure_1">
  <g id="patch_1">
   <path d="M 0 363.1755 
L 383.334 363.1755 
L 383.334 0 
L 0 0 
z
" style="fill:#ffffff;"/>
  </g>
  <g id="axes_1">
   <g id="patch_2">
    <path d="M 86.954 299.589 
L 365.954 299.589 
L 365.954 27.789 
L 86.954 27.789 
z
" style="fill:#ffffff;"/>
   </g>
   <g id="PolyCollection_1">
    <defs>
     <path d="M 86.954 -179.29051 
L 86.954 -215.643995 
L 88.864959 -217.360892 
L 90.775918 -214.98858 
L 92.686877 -204.653827 
L 94.597836 -203.223271 
L 96.508795 -194.946381 
L 98.419753 -197.215087 
L 100.330712 -195.067619 
L 102.241671 -186.090259 
L 104.15263 -178.763311 
L 106.063589 -177.556573 
L 107.974548 -181.85011 
L 109.885507 -188.931899 
L 111.796466 -184.792695 
L 113.707425 -184.861154 
L 115.618384 -182.328332 
L 117.529342 -184.659677 
L 119.440301 -182.410052 
L 121.35126 -186.821968 
L 123.262219 -187.738942 
L 125.173178 -176.662479 
L 127.084137 -172.078171 
L 128.995096 -173.197864 
L 130.906055 -178.470198 
L 132.817014 -173.889976 
L 134.727973 -168.170853 
L 136.638932 -169.702927 
L 138.54989 -165.546082 
L 140.460849 -161.16718 
L 142.371808 -167.185034 
L 144.282767 -161.930531 
L 146.193726 -165.050783 
L 148.104685 -161.225109 
L 150.015644 -159.906406 
L 151.926603 -162.878207 
L 153.837562 -154.777901 
L 155.748521 -144.94554 
L 157.659479 -139.412338 
L 159.570438 -147.325017 
L 161.481397 -156.436602 
L 163.392356 -152.754311 
L 165.303315 -155.576713 
L 167.214274 -157.323347 
L 169.125233 -152.782197 
L 171.036192 -160.679146 
L 172.947151 -155.242812 
L 174.85811 -155.641458 
L 176.769068 -148.183025 
L 178.680027 -146.141292 
L 180.590986 -148.474539 
L 182.501945 -144.285012 
L 184.412904 -143.766802 
L 186.323863 -143.281238 
L 188.234822 -136.256247 
L 190.145781 -133.548259 
L 192.05674 -136.493874 
L 193.967699 -139.275117 
L 195.878658 -135.694118 
L 197.789616 -131.536299 
L 199.700575 -141.771054 
L 201.611534 -138.11009 
L 203.522493 -156.073211 
L 205.433452 -151.870601 
L 207.344411 -155.978555 
L 209.25537 -160.083435 
L 211.166329 -169.551329 
L 213.077288 -176.413449 
L 214.988247 -184.598464 
L 216.899205 -191.584671 
L 218.810164 -185.688268 
L 220.721123 -189.660773 
L 222.632082 -190.022347 
L 224.543041 -199.065572 
L 226.454 -200.041108 
L 228.364959 -204.121056 
L 230.275918 -203.213021 
L 232.186877 -216.268841 
L 234.097836 -216.939861 
L 236.008795 -231.345701 
L 237.919753 -239.676199 
L 239.830712 -253.434182 
L 241.741671 -253.302204 
L 243.65263 -267.954626 
L 245.563589 -272.862043 
L 247.474548 -274.309686 
L 249.385507 -281.042086 
L 251.296466 -282.567182 
L 253.207425 -280.776144 
L 255.118384 -278.191352 
L 257.029342 -275.637824 
L 258.940301 -273.170799 
L 260.85126 -282.23616 
L 262.762219 -281.843737 
L 264.673178 -286.014255 
L 266.584137 -280.519605 
L 268.495096 -276.253448 
L 270.406055 -268.309509 
L 272.317014 -268.571506 
L 274.227973 -268.628976 
L 276.138932 -270.933137 
L 278.04989 -277.983295 
L 279.960849 -275.482763 
L 281.871808 -292.088993 
L 283.782767 -290.500022 
L 285.693726 -292.251812 
L 287.604685 -301.878711 
L 289.515644 -294.88606 
L 291.426603 -291.192793 
L 293.337562 -300.012175 
L 295.248521 -291.537943 
L 297.159479 -284.404139 
L 299.070438 -282.250922 
L 300.981397 -293.300566 
L 302.892356 -291.577949 
L 304.803315 -290.861754 
L 306.714274 -296.875811 
L 308.625233 -287.777272 
L 310.536192 -288.577723 
L 312.447151 -289.476695 
L 314.35811 -299.619111 
L 316.269068 -305.576251 
L 318.180027 -313.184256 
L 320.090986 -306.315934 
L 322.001945 -297.024637 
L 323.912904 -293.770848 
L 325.823863 -301.963799 
L 327.734822 -295.820076 
L 329.645781 -292.934941 
L 331.55674 -274.73982 
L 333.467699 -270.119567 
L 335.378658 -262.786686 
L 337.289616 -266.640511 
L 339.200575 -270.699129 
L 341.111534 -254.627231 
L 343.022493 -242.156599 
L 344.933452 -237.609422 
L 346.844411 -238.065453 
L 348.75537 -232.97286 
L 350.666329 -231.69064 
L 352.577288 -227.3155 
L 354.488247 -228.143164 
L 356.399205 -231.725316 
L 358.310164 -233.252005 
L 360.221123 -236.892243 
L 362.132082 -238.334048 
L 364.043041 -232.946048 
L 365.954 -215.643995 
L 365.954 -179.29051 
L 365.954 -179.29051 
L 364.043041 -197.426509 
L 362.132082 -200.289666 
L 360.221123 -208.06569 
L 358.310164 -206.014944 
L 356.399205 -204.014992 
L 354.488247 -202.189547 
L 352.577288 -198.718986 
L 350.666329 -202.246457 
L 348.75537 -199.364614 
L 346.844411 -201.327011 
L 344.933452 -204.348447 
L 343.022493 -207.327909 
L 341.111534 -222.842712 
L 339.200575 -237.689926 
L 337.289616 -231.344252 
L 335.378658 -235.123258 
L 333.467699 -242.266415 
L 331.55674 -247.501192 
L 329.645781 -256.755397 
L 327.734822 -255.164812 
L 325.823863 -256.946345 
L 323.912904 -253.896097 
L 322.001945 -255.731081 
L 320.090986 -264.913309 
L 318.180027 -270.964079 
L 316.269068 -260.344041 
L 314.35811 -257.245986 
L 312.447151 -249.860513 
L 310.536192 -252.0596 
L 308.625233 -250.745401 
L 306.714274 -259.070079 
L 304.803315 -249.652109 
L 302.892356 -249.72247 
L 300.981397 -257.851739 
L 299.070438 -249.812069 
L 297.159479 -255.030845 
L 295.248521 -261.067965 
L 293.337562 -273.313411 
L 291.426603 -265.083061 
L 289.515644 -266.428477 
L 287.604685 -267.332996 
L 285.693726 -258.225554 
L 283.782767 -260.092258 
L 281.871808 -259.437089 
L 279.960849 -242.679301 
L 278.04989 -248.040982 
L 276.138932 -242.79869 
L 274.227973 -237.973042 
L 272.317014 -233.497635 
L 270.406055 -232.29001 
L 268.495096 -235.274092 
L 266.584137 -236.669401 
L 264.673178 -239.051864 
L 262.762219 -231.491216 
L 260.85126 -231.207993 
L 258.940301 -226.835987 
L 257.029342 -225.334491 
L 255.118384 -227.440561 
L 253.207425 -229.148052 
L 251.296466 -230.448284 
L 249.385507 -231.089846 
L 247.474548 -227.909593 
L 245.563589 -226.662201 
L 243.65263 -219.364135 
L 241.741671 -208.673047 
L 239.830712 -206.509789 
L 237.919753 -196.475003 
L 236.008795 -188.520541 
L 234.097836 -177.258441 
L 232.186877 -180.260644 
L 230.275918 -167.498327 
L 228.364959 -163.091308 
L 226.454 -159.502498 
L 224.543041 -164.828447 
L 222.632082 -156.273587 
L 220.721123 -156.447286 
L 218.810164 -153.743516 
L 216.899205 -157.464437 
L 214.988247 -150.521029 
L 213.077288 -138.54516 
L 211.166329 -130.802413 
L 209.25537 -122.914703 
L 207.344411 -112.535974 
L 205.433452 -101.808367 
L 203.522493 -105.860161 
L 201.611534 -87.189386 
L 199.700575 -98.487773 
L 197.789616 -93.791799 
L 195.878658 -95.671379 
L 193.967699 -103.891358 
L 192.05674 -101.392743 
L 190.145781 -95.801737 
L 188.234822 -97.920978 
L 186.323863 -103.350667 
L 184.412904 -104.43546 
L 182.501945 -105.728832 
L 180.590986 -111.28186 
L 178.680027 -109.876833 
L 176.769068 -108.954182 
L 174.85811 -119.775415 
L 172.947151 -122.24023 
L 171.036192 -129.692368 
L 169.125233 -121.659253 
L 167.214274 -126.060373 
L 165.303315 -125.919963 
L 163.392356 -120.863372 
L 161.481397 -122.164725 
L 159.570438 -115.394114 
L 157.659479 -107.739193 
L 155.748521 -113.019104 
L 153.837562 -117.116366 
L 151.926603 -122.856468 
L 150.015644 -119.638177 
L 148.104685 -119.025114 
L 146.193726 -122.951941 
L 144.282767 -116.704443 
L 142.371808 -120.790996 
L 140.460849 -116.344821 
L 138.54989 -119.895163 
L 136.638932 -123.921195 
L 134.727973 -122.851298 
L 132.817014 -125.765887 
L 130.906055 -124.93373 
L 128.995096 -118.168807 
L 127.084137 -119.987195 
L 125.173178 -121.312166 
L 123.262219 -129.862673 
L 121.35126 -129.654529 
L 119.440301 -127.630118 
L 117.529342 -129.930308 
L 115.618384 -127.911194 
L 113.707425 -129.599372 
L 111.796466 -134.797132 
L 109.885507 -139.396363 
L 107.974548 -131.262536 
L 106.063589 -127.700963 
L 104.15263 -133.573816 
L 102.241671 -148.663198 
L 100.330712 -158.201854 
L 98.419753 -160.198792 
L 96.508795 -156.884867 
L 94.597836 -162.857243 
L 92.686877 -161.777449 
L 90.775918 -172.646328 
L 88.864959 -176.402297 
L 86.954 -179.29051 
z
" id="m9952d5ffc9" style="stroke:#1e90ff;stroke-opacity:0.2;"/>
    </defs>
    <g clip-path="url(#p5a4081a32d)">
     <use style="fill:#1e90ff;fill-opacity:0.2;stroke:#1e90ff;stroke-opacity:0.2;" x="0" xlink:href="#m9952d5ffc9" y="363.1755"/>
    </g>
   </g>
   <g id="PolyCollection_2">
    <defs>
     <path d="M 86.954 -199.191805 
L 86.954 -199.317492 
L 88.864959 -199.230994 
L 90.775918 -199.142076 
L 92.686877 -199.049883 
L 94.597836 -198.953519 
L 96.508795 -198.852039 
L 98.419753 -198.744429 
L 100.330712 -198.6296 
L 102.241671 -198.506376 
L 104.15263 -198.373471 
L 106.063589 -198.229484 
L 107.974548 -198.072875 
L 109.885507 -197.901949 
L 111.796466 -197.714838 
L 113.707425 -197.509478 
L 115.618384 -197.283589 
L 117.529342 -197.034646 
L 119.440301 -196.759859 
L 121.35126 -196.45614 
L 123.262219 -196.120078 
L 125.173178 -195.747906 
L 127.084137 -195.33547 
L 128.995096 -194.8782 
L 130.906055 -194.371072 
L 132.817014 -193.808583 
L 134.727973 -193.18472 
L 136.638932 -192.492933 
L 138.54989 -191.726119 
L 140.460849 -190.876613 
L 142.371808 -189.936182 
L 144.282767 -188.896048 
L 146.193726 -187.746924 
L 148.104685 -186.479077 
L 150.015644 -185.082426 
L 151.926603 -183.546682 
L 153.837562 -181.861533 
L 155.748521 -180.016897 
L 157.659479 -178.003233 
L 159.570438 -175.811937 
L 161.481397 -173.435815 
L 163.392356 -170.869641 
L 165.303315 -168.110809 
L 167.214274 -165.160047 
L 169.125233 -162.0222 
L 171.036192 -158.707042 
L 172.947151 -155.230086 
L 174.85811 -151.613349 
L 176.769068 -147.886016 
L 178.680027 -144.084963 
L 180.590986 -140.25507 
L 182.501945 -136.449295 
L 184.412904 -132.728468 
L 186.323863 -129.160776 
L 188.234822 -125.820937 
L 190.145781 -122.789037 
L 192.05674 -120.149055 
L 193.967699 -117.987058 
L 195.878658 -116.389108 
L 197.789616 -115.438892 
L 199.700575 -115.215124 
L 201.611534 -115.788793 
L 203.522493 -117.220328 
L 205.433452 -119.556808 
L 207.344411 -122.829319 
L 209.25537 -127.050624 
L 211.166329 -132.213262 
L 213.077288 -138.288231 
L 214.988247 -145.224367 
L 216.899205 -152.948511 
L 218.810164 -161.366524 
L 220.721123 -170.365146 
L 222.632082 -179.814679 
L 224.543041 -189.572388 
L 226.454 -199.4865 
L 228.364959 -215.983853 
L 230.275918 -232.182556 
L 232.186877 -247.794555 
L 234.097836 -262.552409 
L 236.008795 -276.218171 
L 237.919753 -288.590693 
L 239.830712 -299.511011 
L 241.741671 -308.865607 
L 243.65263 -316.587488 
L 245.563589 -322.655179 
L 247.474548 -327.089836 
L 249.385507 -329.950777 
L 251.296466 -331.329836 
L 253.207425 -331.344925 
L 255.118384 -330.133241 
L 257.029342 -327.844499 
L 258.940301 -324.634536 
L 260.85126 -320.659547 
L 262.762219 -316.071176 
L 264.673178 -311.012556 
L 266.584137 -305.615367 
L 268.495096 -299.997873 
L 270.406055 -294.263864 
L 272.317014 -288.502392 
L 274.227973 -282.78813 
L 276.138932 -277.182213 
L 278.04989 -271.733396 
L 279.960849 -266.479382 
L 281.871808 -261.448219 
L 283.782767 -256.659669 
L 285.693726 -252.126489 
L 287.604685 -247.855608 
L 289.515644 -243.849158 
L 291.426603 -240.105386 
L 293.337562 -236.61944 
L 295.248521 -233.384033 
L 297.159479 -230.390023 
L 299.070438 -227.626892 
L 300.981397 -225.083159 
L 302.892356 -222.746718 
L 304.803315 -220.605125 
L 306.714274 -218.645835 
L 308.625233 -216.856389 
L 310.536192 -215.224571 
L 312.447151 -213.738526 
L 314.35811 -212.386853 
L 316.269068 -211.158671 
L 318.180027 -210.043666 
L 320.090986 -209.032118 
L 322.001945 -208.114918 
L 323.912904 -207.283565 
L 325.823863 -206.530163 
L 327.734822 -205.847403 
L 329.645781 -205.228539 
L 331.55674 -204.667368 
L 333.467699 -204.158196 
L 335.378658 -203.695809 
L 337.289616 -203.27544 
L 339.200575 -202.892737 
L 341.111534 -202.543732 
L 343.022493 -202.224805 
L 344.933452 -201.932658 
L 346.844411 -201.664284 
L 348.75537 -201.416935 
L 350.666329 -201.188102 
L 352.577288 -200.975481 
L 354.488247 -200.776957 
L 356.399205 -200.590575 
L 358.310164 -200.414524 
L 360.221123 -200.247111 
L 362.132082 -200.086746 
L 364.043041 -199.931921 
L 365.954 -199.781195 
L 365.954 -199.655508 
L 365.954 -199.655508 
L 364.043041 -199.742006 
L 362.132082 -199.830924 
L 360.221123 -199.923117 
L 358.310164 -200.019481 
L 356.399205 -200.120961 
L 354.488247 -200.228571 
L 352.577288 -200.3434 
L 350.666329 -200.466624 
L 348.75537 -200.599529 
L 346.844411 -200.743516 
L 344.933452 -200.900125 
L 343.022493 -201.071051 
L 341.111534 -201.258162 
L 339.200575 -201.463522 
L 337.289616 -201.689411 
L 335.378658 -201.938354 
L 333.467699 -202.213141 
L 331.55674 -202.51686 
L 329.645781 -202.852922 
L 327.734822 -203.225094 
L 325.823863 -203.63753 
L 323.912904 -204.0948 
L 322.001945 -204.601928 
L 320.090986 -205.164417 
L 318.180027 -205.78828 
L 316.269068 -206.480067 
L 314.35811 -207.246881 
L 312.447151 -208.096387 
L 310.536192 -209.036818 
L 308.625233 -210.076952 
L 306.714274 -211.226076 
L 304.803315 -212.493923 
L 302.892356 -213.890574 
L 300.981397 -215.426318 
L 299.070438 -217.111467 
L 297.159479 -218.956103 
L 295.248521 -220.969767 
L 293.337562 -223.161063 
L 291.426603 -225.537185 
L 289.515644 -228.103359 
L 287.604685 -230.862191 
L 285.693726 -233.812953 
L 283.782767 -236.9508 
L 281.871808 -240.265958 
L 279.960849 -243.742914 
L 278.04989 -247.359651 
L 276.138932 -251.086984 
L 274.227973 -254.888037 
L 272.317014 -258.71793 
L 270.406055 -262.523705 
L 268.495096 -266.244532 
L 266.584137 -269.812224 
L 264.673178 -273.152063 
L 262.762219 -276.183963 
L 260.85126 -278.823945 
L 258.940301 -280.985942 
L 257.029342 -282.583892 
L 255.118384 -283.534108 
L 253.207425 -283.757876 
L 251.296466 -283.184207 
L 249.385507 -281.752672 
L 247.474548 -279.416192 
L 245.563589 -276.143681 
L 243.65263 -271.922376 
L 241.741671 -266.759738 
L 239.830712 -260.684769 
L 237.919753 -253.748633 
L 236.008795 -246.024489 
L 234.097836 -237.606476 
L 232.186877 -228.607854 
L 230.275918 -219.158321 
L 228.364959 -209.400612 
L 226.454 -199.4865 
L 224.543041 -182.989147 
L 222.632082 -166.790444 
L 220.721123 -151.178445 
L 218.810164 -136.420591 
L 216.899205 -122.754829 
L 214.988247 -110.382307 
L 213.077288 -99.461989 
L 211.166329 -90.107393 
L 209.25537 -82.385512 
L 207.344411 -76.317821 
L 205.433452 -71.883164 
L 203.522493 -69.022223 
L 201.611534 -67.643164 
L 199.700575 -67.628075 
L 197.789616 -68.839759 
L 195.878658 -71.128501 
L 193.967699 -74.338464 
L 192.05674 -78.313453 
L 190.145781 -82.901824 
L 188.234822 -87.960444 
L 186.323863 -93.357633 
L 184.412904 -98.975127 
L 182.501945 -104.709136 
L 180.590986 -110.470608 
L 178.680027 -116.18487 
L 176.769068 -121.790787 
L 174.85811 -127.239604 
L 172.947151 -132.493618 
L 171.036192 -137.524781 
L 169.125233 -142.313331 
L 167.214274 -146.846511 
L 165.303315 -151.117392 
L 163.392356 -155.123842 
L 161.481397 -158.867614 
L 159.570438 -162.35356 
L 157.659479 -165.588967 
L 155.748521 -168.582977 
L 153.837562 -171.346108 
L 151.926603 -173.889841 
L 150.015644 -176.226282 
L 148.104685 -178.367875 
L 146.193726 -180.327165 
L 144.282767 -182.116611 
L 142.371808 -183.748429 
L 140.460849 -185.234474 
L 138.54989 -186.586147 
L 136.638932 -187.814329 
L 134.727973 -188.929334 
L 132.817014 -189.940882 
L 130.906055 -190.858082 
L 128.995096 -191.689435 
L 127.084137 -192.442837 
L 125.173178 -193.125597 
L 123.262219 -193.744461 
L 121.35126 -194.305632 
L 119.440301 -194.814804 
L 117.529342 -195.277191 
L 115.618384 -195.69756 
L 113.707425 -196.080263 
L 111.796466 -196.429268 
L 109.885507 -196.748195 
L 107.974548 -197.040342 
L 106.063589 -197.308716 
L 104.15263 -197.556065 
L 102.241671 -197.784898 
L 100.330712 -197.997519 
L 98.419753 -198.196043 
L 96.508795 -198.382425 
L 94.597836 -198.558476 
L 92.686877 -198.725889 
L 90.775918 -198.886254 
L 88.864959 -199.041079 
L 86.954 -199.191805 
z
" id="ma6ee1350a7" style="stroke:#006400;stroke-opacity:0.2;"/>
    </defs>
    <g clip-path="url(#p5a4081a32d)">
     <use style="fill:#006400;fill-opacity:0.2;stroke:#006400;stroke-opacity:0.2;" x="0" xlink:href="#ma6ee1350a7" y="363.1755"/>
    </g>
   </g>
   <g id="matplotlib.axis_1">
    <g id="xtick_1">
     <g id="line2d_1">
      <defs>
       <path d="M 0 0 
L 0 -6 
" id="m9f09cdaee6" style="stroke:#000000;stroke-width:2;"/>
      </defs>
      <g>
       <use style="stroke:#000000;stroke-width:2;" x="86.954" xlink:href="#m9f09cdaee6" y="299.589"/>
      </g>
     </g>
     <g id="text_1">
      <!-- -73 -->
      <defs>
       <path d="M 4.890625 31.390625 
L 31.203125 31.390625 
L 31.203125 23.390625 
L 4.890625 23.390625 
z
" id="DejaVuSans-45"/>
       <path d="M 8.203125 72.90625 
L 55.078125 72.90625 
L 55.078125 68.703125 
L 28.609375 0 
L 18.3125 0 
L 43.21875 64.59375 
L 8.203125 64.59375 
z
" id="DejaVuSans-55"/>
       <path d="M 40.578125 39.3125 
Q 47.65625 37.796875 51.625 33 
Q 55.609375 28.21875 55.609375 21.1875 
Q 55.609375 10.40625 48.1875 4.484375 
Q 40.765625 -1.421875 27.09375 -1.421875 
Q 22.515625 -1.421875 17.65625 -0.515625 
Q 12.796875 0.390625 7.625 2.203125 
L 7.625 11.71875 
Q 11.71875 9.328125 16.59375 8.109375 
Q 21.484375 6.890625 26.8125 6.890625 
Q 36.078125 6.890625 40.9375 10.546875 
Q 45.796875 14.203125 45.796875 21.1875 
Q 45.796875 27.640625 41.28125 31.265625 
Q 36.765625 34.90625 28.71875 34.90625 
L 20.21875 34.90625 
L 20.21875 43.015625 
L 29.109375 43.015625 
Q 36.375 43.015625 40.234375 45.921875 
Q 44.09375 48.828125 44.09375 54.296875 
Q 44.09375 59.90625 40.109375 62.90625 
Q 36.140625 65.921875 28.71875 65.921875 
Q 24.65625 65.921875 20.015625 65.03125 
Q 15.375 64.15625 9.8125 62.3125 
L 9.8125 71.09375 
Q 15.4375 72.65625 20.34375 73.4375 
Q 25.25 74.21875 29.59375 74.21875 
Q 40.828125 74.21875 47.359375 69.109375 
Q 53.90625 64.015625 53.90625 55.328125 
Q 53.90625 49.265625 50.4375 45.09375 
Q 46.96875 40.921875 40.578125 39.3125 
z
" id="DejaVuSans-51"/>
      </defs>
      <g transform="translate(73.88775 315.2465)scale(0.16 -0.16)">
       <use xlink:href="#DejaVuSans-45"/>
       <use x="36.083984" xlink:href="#DejaVuSans-55"/>
       <use x="99.707031" xlink:href="#DejaVuSans-51"/>
      </g>
     </g>
    </g>
    <g id="xtick_2">
     <g id="line2d_2">
      <g>
       <use style="stroke:#000000;stroke-width:2;" x="130.906055" xlink:href="#m9f09cdaee6" y="299.589"/>
      </g>
     </g>
     <g id="text_2">
      <!-- -50 -->
      <defs>
       <path d="M 10.796875 72.90625 
L 49.515625 72.90625 
L 49.515625 64.59375 
L 19.828125 64.59375 
L 19.828125 46.734375 
Q 21.96875 47.46875 24.109375 47.828125 
Q 26.265625 48.1875 28.421875 48.1875 
Q 40.625 48.1875 47.75 41.5 
Q 54.890625 34.8125 54.890625 23.390625 
Q 54.890625 11.625 47.5625 5.09375 
Q 40.234375 -1.421875 26.90625 -1.421875 
Q 22.3125 -1.421875 17.546875 -0.640625 
Q 12.796875 0.140625 7.71875 1.703125 
L 7.71875 11.625 
Q 12.109375 9.234375 16.796875 8.0625 
Q 21.484375 6.890625 26.703125 6.890625 
Q 35.15625 6.890625 40.078125 11.328125 
Q 45.015625 15.765625 45.015625 23.390625 
Q 45.015625 31 40.078125 35.4375 
Q 35.15625 39.890625 26.703125 39.890625 
Q 22.75 39.890625 18.8125 39.015625 
Q 14.890625 38.140625 10.796875 36.28125 
z
" id="DejaVuSans-53"/>
       <path d="M 31.78125 66.40625 
Q 24.171875 66.40625 20.328125 58.90625 
Q 16.5 51.421875 16.5 36.375 
Q 16.5 21.390625 20.328125 13.890625 
Q 24.171875 6.390625 31.78125 6.390625 
Q 39.453125 6.390625 43.28125 13.890625 
Q 47.125 21.390625 47.125 36.375 
Q 47.125 51.421875 43.28125 58.90625 
Q 39.453125 66.40625 31.78125 66.40625 
z
M 31.78125 74.21875 
Q 44.046875 74.21875 50.515625 64.515625 
Q 56.984375 54.828125 56.984375 36.375 
Q 56.984375 17.96875 50.515625 8.265625 
Q 44.046875 -1.421875 31.78125 -1.421875 
Q 19.53125 -1.421875 13.0625 8.265625 
Q 6.59375 17.96875 6.59375 36.375 
Q 6.59375 54.828125 13.0625 64.515625 
Q 19.53125 74.21875 31.78125 74.21875 
z
" id="DejaVuSans-48"/>
      </defs>
      <g transform="translate(117.839805 315.2465)scale(0.16 -0.16)">
       <use xlink:href="#DejaVuSans-45"/>
       <use x="36.083984" xlink:href="#DejaVuSans-53"/>
       <use x="99.707031" xlink:href="#DejaVuSans-48"/>
      </g>
     </g>
    </g>
    <g id="xtick_3">
     <g id="line2d_3">
      <g>
       <use style="stroke:#000000;stroke-width:2;" x="178.680027" xlink:href="#m9f09cdaee6" y="299.589"/>
      </g>
     </g>
     <g id="text_3">
      <!-- -25 -->
      <defs>
       <path d="M 19.1875 8.296875 
L 53.609375 8.296875 
L 53.609375 0 
L 7.328125 0 
L 7.328125 8.296875 
Q 12.9375 14.109375 22.625 23.890625 
Q 32.328125 33.6875 34.8125 36.53125 
Q 39.546875 41.84375 41.421875 45.53125 
Q 43.3125 49.21875 43.3125 52.78125 
Q 43.3125 58.59375 39.234375 62.25 
Q 35.15625 65.921875 28.609375 65.921875 
Q 23.96875 65.921875 18.8125 64.3125 
Q 13.671875 62.703125 7.8125 59.421875 
L 7.8125 69.390625 
Q 13.765625 71.78125 18.9375 73 
Q 24.125 74.21875 28.421875 74.21875 
Q 39.75 74.21875 46.484375 68.546875 
Q 53.21875 62.890625 53.21875 53.421875 
Q 53.21875 48.921875 51.53125 44.890625 
Q 49.859375 40.875 45.40625 35.40625 
Q 44.1875 33.984375 37.640625 27.21875 
Q 31.109375 20.453125 19.1875 8.296875 
z
" id="DejaVuSans-50"/>
      </defs>
      <g transform="translate(165.613777 315.2465)scale(0.16 -0.16)">
       <use xlink:href="#DejaVuSans-45"/>
       <use x="36.083984" xlink:href="#DejaVuSans-50"/>
       <use x="99.707031" xlink:href="#DejaVuSans-53"/>
      </g>
     </g>
    </g>
    <g id="xtick_4">
     <g id="line2d_4">
      <g>
       <use style="stroke:#000000;stroke-width:2;" x="226.454" xlink:href="#m9f09cdaee6" y="299.589"/>
      </g>
     </g>
     <g id="text_4">
      <!-- 0 -->
      <g transform="translate(221.364 315.2465)scale(0.16 -0.16)">
       <use xlink:href="#DejaVuSans-48"/>
      </g>
     </g>
    </g>
    <g id="xtick_5">
     <g id="line2d_5">
      <g>
       <use style="stroke:#000000;stroke-width:2;" x="274.227973" xlink:href="#m9f09cdaee6" y="299.589"/>
      </g>
     </g>
     <g id="text_5">
      <!-- 25 -->
      <g transform="translate(264.047973 315.2465)scale(0.16 -0.16)">
       <use xlink:href="#DejaVuSans-50"/>
       <use x="63.623047" xlink:href="#DejaVuSans-53"/>
      </g>
     </g>
    </g>
    <g id="xtick_6">
     <g id="line2d_6">
      <g>
       <use style="stroke:#000000;stroke-width:2;" x="322.001945" xlink:href="#m9f09cdaee6" y="299.589"/>
      </g>
     </g>
     <g id="text_6">
      <!-- 50 -->
      <g transform="translate(311.821945 315.2465)scale(0.16 -0.16)">
       <use xlink:href="#DejaVuSans-53"/>
       <use x="63.623047" xlink:href="#DejaVuSans-48"/>
      </g>
     </g>
    </g>
    <g id="xtick_7">
     <g id="line2d_7">
      <g>
       <use style="stroke:#000000;stroke-width:2;" x="365.954" xlink:href="#m9f09cdaee6" y="299.589"/>
      </g>
     </g>
     <g id="text_7">
      <!-- 73 -->
      <g transform="translate(355.774 315.2465)scale(0.16 -0.16)">
       <use xlink:href="#DejaVuSans-55"/>
       <use x="63.623047" xlink:href="#DejaVuSans-51"/>
      </g>
     </g>
    </g>
    <g id="text_8">
     <!-- Previous Tumor - Current Tumor -->
     <defs>
      <path d="M 19.671875 64.796875 
L 19.671875 37.40625 
L 32.078125 37.40625 
Q 38.96875 37.40625 42.71875 40.96875 
Q 46.484375 44.53125 46.484375 51.125 
Q 46.484375 57.671875 42.71875 61.234375 
Q 38.96875 64.796875 32.078125 64.796875 
z
M 9.8125 72.90625 
L 32.078125 72.90625 
Q 44.34375 72.90625 50.609375 67.359375 
Q 56.890625 61.8125 56.890625 51.125 
Q 56.890625 40.328125 50.609375 34.8125 
Q 44.34375 29.296875 32.078125 29.296875 
L 19.671875 29.296875 
L 19.671875 0 
L 9.8125 0 
z
" id="DejaVuSans-80"/>
      <path d="M 41.109375 46.296875 
Q 39.59375 47.171875 37.8125 47.578125 
Q 36.03125 48 33.890625 48 
Q 26.265625 48 22.1875 43.046875 
Q 18.109375 38.09375 18.109375 28.8125 
L 18.109375 0 
L 9.078125 0 
L 9.078125 54.6875 
L 18.109375 54.6875 
L 18.109375 46.1875 
Q 20.953125 51.171875 25.484375 53.578125 
Q 30.03125 56 36.53125 56 
Q 37.453125 56 38.578125 55.875 
Q 39.703125 55.765625 41.0625 55.515625 
z
" id="DejaVuSans-114"/>
      <path d="M 56.203125 29.59375 
L 56.203125 25.203125 
L 14.890625 25.203125 
Q 15.484375 15.921875 20.484375 11.0625 
Q 25.484375 6.203125 34.421875 6.203125 
Q 39.59375 6.203125 44.453125 7.46875 
Q 49.3125 8.734375 54.109375 11.28125 
L 54.109375 2.78125 
Q 49.265625 0.734375 44.1875 -0.34375 
Q 39.109375 -1.421875 33.890625 -1.421875 
Q 20.796875 -1.421875 13.15625 6.1875 
Q 5.515625 13.8125 5.515625 26.8125 
Q 5.515625 40.234375 12.765625 48.109375 
Q 20.015625 56 32.328125 56 
Q 43.359375 56 49.78125 48.890625 
Q 56.203125 41.796875 56.203125 29.59375 
z
M 47.21875 32.234375 
Q 47.125 39.59375 43.09375 43.984375 
Q 39.0625 48.390625 32.421875 48.390625 
Q 24.90625 48.390625 20.390625 44.140625 
Q 15.875 39.890625 15.1875 32.171875 
z
" id="DejaVuSans-101"/>
      <path d="M 2.984375 54.6875 
L 12.5 54.6875 
L 29.59375 8.796875 
L 46.6875 54.6875 
L 56.203125 54.6875 
L 35.6875 0 
L 23.484375 0 
z
" id="DejaVuSans-118"/>
      <path d="M 9.421875 54.6875 
L 18.40625 54.6875 
L 18.40625 0 
L 9.421875 0 
z
M 9.421875 75.984375 
L 18.40625 75.984375 
L 18.40625 64.59375 
L 9.421875 64.59375 
z
" id="DejaVuSans-105"/>
      <path d="M 30.609375 48.390625 
Q 23.390625 48.390625 19.1875 42.75 
Q 14.984375 37.109375 14.984375 27.296875 
Q 14.984375 17.484375 19.15625 11.84375 
Q 23.34375 6.203125 30.609375 6.203125 
Q 37.796875 6.203125 41.984375 11.859375 
Q 46.1875 17.53125 46.1875 27.296875 
Q 46.1875 37.015625 41.984375 42.703125 
Q 37.796875 48.390625 30.609375 48.390625 
z
M 30.609375 56 
Q 42.328125 56 49.015625 48.375 
Q 55.71875 40.765625 55.71875 27.296875 
Q 55.71875 13.875 49.015625 6.21875 
Q 42.328125 -1.421875 30.609375 -1.421875 
Q 18.84375 -1.421875 12.171875 6.21875 
Q 5.515625 13.875 5.515625 27.296875 
Q 5.515625 40.765625 12.171875 48.375 
Q 18.84375 56 30.609375 56 
z
" id="DejaVuSans-111"/>
      <path d="M 8.5 21.578125 
L 8.5 54.6875 
L 17.484375 54.6875 
L 17.484375 21.921875 
Q 17.484375 14.15625 20.5 10.265625 
Q 23.53125 6.390625 29.59375 6.390625 
Q 36.859375 6.390625 41.078125 11.03125 
Q 45.3125 15.671875 45.3125 23.6875 
L 45.3125 54.6875 
L 54.296875 54.6875 
L 54.296875 0 
L 45.3125 0 
L 45.3125 8.40625 
Q 42.046875 3.421875 37.71875 1 
Q 33.40625 -1.421875 27.6875 -1.421875 
Q 18.265625 -1.421875 13.375 4.4375 
Q 8.5 10.296875 8.5 21.578125 
z
M 31.109375 56 
z
" id="DejaVuSans-117"/>
      <path d="M 44.28125 53.078125 
L 44.28125 44.578125 
Q 40.484375 46.53125 36.375 47.5 
Q 32.28125 48.484375 27.875 48.484375 
Q 21.1875 48.484375 17.84375 46.4375 
Q 14.5 44.390625 14.5 40.28125 
Q 14.5 37.15625 16.890625 35.375 
Q 19.28125 33.59375 26.515625 31.984375 
L 29.59375 31.296875 
Q 39.15625 29.25 43.1875 25.515625 
Q 47.21875 21.78125 47.21875 15.09375 
Q 47.21875 7.46875 41.1875 3.015625 
Q 35.15625 -1.421875 24.609375 -1.421875 
Q 20.21875 -1.421875 15.453125 -0.5625 
Q 10.6875 0.296875 5.421875 2 
L 5.421875 11.28125 
Q 10.40625 8.6875 15.234375 7.390625 
Q 20.0625 6.109375 24.8125 6.109375 
Q 31.15625 6.109375 34.5625 8.28125 
Q 37.984375 10.453125 37.984375 14.40625 
Q 37.984375 18.0625 35.515625 20.015625 
Q 33.0625 21.96875 24.703125 23.78125 
L 21.578125 24.515625 
Q 13.234375 26.265625 9.515625 29.90625 
Q 5.8125 33.546875 5.8125 39.890625 
Q 5.8125 47.609375 11.28125 51.796875 
Q 16.75 56 26.8125 56 
Q 31.78125 56 36.171875 55.265625 
Q 40.578125 54.546875 44.28125 53.078125 
z
" id="DejaVuSans-115"/>
      <path id="DejaVuSans-32"/>
      <path d="M -0.296875 72.90625 
L 61.375 72.90625 
L 61.375 64.59375 
L 35.5 64.59375 
L 35.5 0 
L 25.59375 0 
L 25.59375 64.59375 
L -0.296875 64.59375 
z
" id="DejaVuSans-84"/>
      <path d="M 52 44.1875 
Q 55.375 50.25 60.0625 53.125 
Q 64.75 56 71.09375 56 
Q 79.640625 56 84.28125 50.015625 
Q 88.921875 44.046875 88.921875 33.015625 
L 88.921875 0 
L 79.890625 0 
L 79.890625 32.71875 
Q 79.890625 40.578125 77.09375 44.375 
Q 74.3125 48.1875 68.609375 48.1875 
Q 61.625 48.1875 57.5625 43.546875 
Q 53.515625 38.921875 53.515625 30.90625 
L 53.515625 0 
L 44.484375 0 
L 44.484375 32.71875 
Q 44.484375 40.625 41.703125 44.40625 
Q 38.921875 48.1875 33.109375 48.1875 
Q 26.21875 48.1875 22.15625 43.53125 
Q 18.109375 38.875 18.109375 30.90625 
L 18.109375 0 
L 9.078125 0 
L 9.078125 54.6875 
L 18.109375 54.6875 
L 18.109375 46.1875 
Q 21.1875 51.21875 25.484375 53.609375 
Q 29.78125 56 35.6875 56 
Q 41.65625 56 45.828125 52.96875 
Q 50 49.953125 52 44.1875 
z
" id="DejaVuSans-109"/>
      <path d="M 64.40625 67.28125 
L 64.40625 56.890625 
Q 59.421875 61.53125 53.78125 63.8125 
Q 48.140625 66.109375 41.796875 66.109375 
Q 29.296875 66.109375 22.65625 58.46875 
Q 16.015625 50.828125 16.015625 36.375 
Q 16.015625 21.96875 22.65625 14.328125 
Q 29.296875 6.6875 41.796875 6.6875 
Q 48.140625 6.6875 53.78125 8.984375 
Q 59.421875 11.28125 64.40625 15.921875 
L 64.40625 5.609375 
Q 59.234375 2.09375 53.4375 0.328125 
Q 47.65625 -1.421875 41.21875 -1.421875 
Q 24.65625 -1.421875 15.125 8.703125 
Q 5.609375 18.84375 5.609375 36.375 
Q 5.609375 53.953125 15.125 64.078125 
Q 24.65625 74.21875 41.21875 74.21875 
Q 47.75 74.21875 53.53125 72.484375 
Q 59.328125 70.75 64.40625 67.28125 
z
" id="DejaVuSans-67"/>
      <path d="M 54.890625 33.015625 
L 54.890625 0 
L 45.90625 0 
L 45.90625 32.71875 
Q 45.90625 40.484375 42.875 44.328125 
Q 39.84375 48.1875 33.796875 48.1875 
Q 26.515625 48.1875 22.3125 43.546875 
Q 18.109375 38.921875 18.109375 30.90625 
L 18.109375 0 
L 9.078125 0 
L 9.078125 54.6875 
L 18.109375 54.6875 
L 18.109375 46.1875 
Q 21.34375 51.125 25.703125 53.5625 
Q 30.078125 56 35.796875 56 
Q 45.21875 56 50.046875 50.171875 
Q 54.890625 44.34375 54.890625 33.015625 
z
" id="DejaVuSans-110"/>
      <path d="M 18.3125 70.21875 
L 18.3125 54.6875 
L 36.8125 54.6875 
L 36.8125 47.703125 
L 18.3125 47.703125 
L 18.3125 18.015625 
Q 18.3125 11.328125 20.140625 9.421875 
Q 21.96875 7.515625 27.59375 7.515625 
L 36.8125 7.515625 
L 36.8125 0 
L 27.59375 0 
Q 17.1875 0 13.234375 3.875 
Q 9.28125 7.765625 9.28125 18.015625 
L 9.28125 47.703125 
L 2.6875 47.703125 
L 2.6875 54.6875 
L 9.28125 54.6875 
L 9.28125 70.21875 
z
" id="DejaVuSans-116"/>
     </defs>
     <g transform="translate(97.09025 334.7315)scale(0.16 -0.16)">
      <use xlink:href="#DejaVuSans-80"/>
      <use x="60.287109" xlink:href="#DejaVuSans-114"/>
      <use x="101.369141" xlink:href="#DejaVuSans-101"/>
      <use x="162.892578" xlink:href="#DejaVuSans-118"/>
      <use x="222.072266" xlink:href="#DejaVuSans-105"/>
      <use x="249.855469" xlink:href="#DejaVuSans-111"/>
      <use x="311.037109" xlink:href="#DejaVuSans-117"/>
      <use x="374.416016" xlink:href="#DejaVuSans-115"/>
      <use x="426.515625" xlink:href="#DejaVuSans-32"/>
      <use x="458.302734" xlink:href="#DejaVuSans-84"/>
      <use x="519.152344" xlink:href="#DejaVuSans-117"/>
      <use x="582.53125" xlink:href="#DejaVuSans-109"/>
      <use x="679.943359" xlink:href="#DejaVuSans-111"/>
      <use x="741.125" xlink:href="#DejaVuSans-114"/>
      <use x="782.238281" xlink:href="#DejaVuSans-32"/>
      <use x="814.025391" xlink:href="#DejaVuSans-45"/>
      <use x="850.109375" xlink:href="#DejaVuSans-32"/>
      <use x="881.896484" xlink:href="#DejaVuSans-67"/>
      <use x="951.720703" xlink:href="#DejaVuSans-117"/>
      <use x="1015.099609" xlink:href="#DejaVuSans-114"/>
      <use x="1056.197266" xlink:href="#DejaVuSans-114"/>
      <use x="1097.279297" xlink:href="#DejaVuSans-101"/>
      <use x="1158.802734" xlink:href="#DejaVuSans-110"/>
      <use x="1222.181641" xlink:href="#DejaVuSans-116"/>
      <use x="1261.390625" xlink:href="#DejaVuSans-32"/>
      <use x="1293.177734" xlink:href="#DejaVuSans-84"/>
      <use x="1354.027344" xlink:href="#DejaVuSans-117"/>
      <use x="1417.40625" xlink:href="#DejaVuSans-109"/>
      <use x="1514.818359" xlink:href="#DejaVuSans-111"/>
      <use x="1576" xlink:href="#DejaVuSans-114"/>
     </g>
     <!--  (morph units) -->
     <defs>
      <path d="M 31 75.875 
Q 24.46875 64.65625 21.28125 53.65625 
Q 18.109375 42.671875 18.109375 31.390625 
Q 18.109375 20.125 21.3125 9.0625 
Q 24.515625 -2 31 -13.1875 
L 23.1875 -13.1875 
Q 15.875 -1.703125 12.234375 9.375 
Q 8.59375 20.453125 8.59375 31.390625 
Q 8.59375 42.28125 12.203125 53.3125 
Q 15.828125 64.359375 23.1875 75.875 
z
" id="DejaVuSans-40"/>
      <path d="M 18.109375 8.203125 
L 18.109375 -20.796875 
L 9.078125 -20.796875 
L 9.078125 54.6875 
L 18.109375 54.6875 
L 18.109375 46.390625 
Q 20.953125 51.265625 25.265625 53.625 
Q 29.59375 56 35.59375 56 
Q 45.5625 56 51.78125 48.09375 
Q 58.015625 40.1875 58.015625 27.296875 
Q 58.015625 14.40625 51.78125 6.484375 
Q 45.5625 -1.421875 35.59375 -1.421875 
Q 29.59375 -1.421875 25.265625 0.953125 
Q 20.953125 3.328125 18.109375 8.203125 
z
M 48.6875 27.296875 
Q 48.6875 37.203125 44.609375 42.84375 
Q 40.53125 48.484375 33.40625 48.484375 
Q 26.265625 48.484375 22.1875 42.84375 
Q 18.109375 37.203125 18.109375 27.296875 
Q 18.109375 17.390625 22.1875 11.75 
Q 26.265625 6.109375 33.40625 6.109375 
Q 40.53125 6.109375 44.609375 11.75 
Q 48.6875 17.390625 48.6875 27.296875 
z
" id="DejaVuSans-112"/>
      <path d="M 54.890625 33.015625 
L 54.890625 0 
L 45.90625 0 
L 45.90625 32.71875 
Q 45.90625 40.484375 42.875 44.328125 
Q 39.84375 48.1875 33.796875 48.1875 
Q 26.515625 48.1875 22.3125 43.546875 
Q 18.109375 38.921875 18.109375 30.90625 
L 18.109375 0 
L 9.078125 0 
L 9.078125 75.984375 
L 18.109375 75.984375 
L 18.109375 46.1875 
Q 21.34375 51.125 25.703125 53.5625 
Q 30.078125 56 35.796875 56 
Q 45.21875 56 50.046875 50.171875 
Q 54.890625 44.34375 54.890625 33.015625 
z
" id="DejaVuSans-104"/>
      <path d="M 8.015625 75.875 
L 15.828125 75.875 
Q 23.140625 64.359375 26.78125 53.3125 
Q 30.421875 42.28125 30.421875 31.390625 
Q 30.421875 20.453125 26.78125 9.375 
Q 23.140625 -1.703125 15.828125 -13.1875 
L 8.015625 -13.1875 
Q 14.5 -2 17.703125 9.0625 
Q 20.90625 20.125 20.90625 31.390625 
Q 20.90625 42.671875 17.703125 53.65625 
Q 14.5 64.65625 8.015625 75.875 
z
" id="DejaVuSans-41"/>
     </defs>
     <g transform="translate(169.33525 352.648)scale(0.16 -0.16)">
      <use xlink:href="#DejaVuSans-32"/>
      <use x="31.787109" xlink:href="#DejaVuSans-40"/>
      <use x="70.800781" xlink:href="#DejaVuSans-109"/>
      <use x="168.212891" xlink:href="#DejaVuSans-111"/>
      <use x="229.394531" xlink:href="#DejaVuSans-114"/>
      <use x="270.507812" xlink:href="#DejaVuSans-112"/>
      <use x="333.984375" xlink:href="#DejaVuSans-104"/>
      <use x="397.363281" xlink:href="#DejaVuSans-32"/>
      <use x="429.150391" xlink:href="#DejaVuSans-117"/>
      <use x="492.529297" xlink:href="#DejaVuSans-110"/>
      <use x="555.908203" xlink:href="#DejaVuSans-105"/>
      <use x="583.691406" xlink:href="#DejaVuSans-116"/>
      <use x="622.900391" xlink:href="#DejaVuSans-115"/>
      <use x="675" xlink:href="#DejaVuSans-41"/>
     </g>
    </g>
   </g>
   <g id="matplotlib.axis_2">
    <g id="ytick_1">
     <g id="line2d_8">
      <defs>
       <path d="M 0 0 
L 6 0 
" id="m6ae3100556" style="stroke:#000000;stroke-width:2;"/>
      </defs>
      <g>
       <use style="stroke:#000000;stroke-width:2;" x="86.954" xlink:href="#m6ae3100556" y="276.939"/>
      </g>
     </g>
     <g id="text_9">
      <!-- −2.5 -->
      <defs>
       <path d="M 10.59375 35.5 
L 73.1875 35.5 
L 73.1875 27.203125 
L 10.59375 27.203125 
z
" id="DejaVuSans-8722"/>
       <path d="M 10.6875 12.40625 
L 21 12.40625 
L 21 0 
L 10.6875 0 
z
" id="DejaVuSans-46"/>
      </defs>
      <g transform="translate(44.6015 283.01775)scale(0.16 -0.16)">
       <use xlink:href="#DejaVuSans-8722"/>
       <use x="83.789062" xlink:href="#DejaVuSans-50"/>
       <use x="147.412109" xlink:href="#DejaVuSans-46"/>
       <use x="179.199219" xlink:href="#DejaVuSans-53"/>
      </g>
     </g>
    </g>
    <g id="ytick_2">
     <g id="line2d_9">
      <g>
       <use style="stroke:#000000;stroke-width:2;" x="86.954" xlink:href="#m6ae3100556" y="231.639"/>
      </g>
     </g>
     <g id="text_10">
      <!-- −1.5 -->
      <defs>
       <path d="M 12.40625 8.296875 
L 28.515625 8.296875 
L 28.515625 63.921875 
L 10.984375 60.40625 
L 10.984375 69.390625 
L 28.421875 72.90625 
L 38.28125 72.90625 
L 38.28125 8.296875 
L 54.390625 8.296875 
L 54.390625 0 
L 12.40625 0 
z
" id="DejaVuSans-49"/>
      </defs>
      <g transform="translate(44.6015 237.71775)scale(0.16 -0.16)">
       <use xlink:href="#DejaVuSans-8722"/>
       <use x="83.789062" xlink:href="#DejaVuSans-49"/>
       <use x="147.412109" xlink:href="#DejaVuSans-46"/>
       <use x="179.199219" xlink:href="#DejaVuSans-53"/>
      </g>
     </g>
    </g>
    <g id="ytick_3">
     <g id="line2d_10">
      <g>
       <use style="stroke:#000000;stroke-width:2;" x="86.954" xlink:href="#m6ae3100556" y="186.339"/>
      </g>
     </g>
     <g id="text_11">
      <!-- −0.5 -->
      <g transform="translate(44.6015 192.41775)scale(0.16 -0.16)">
       <use xlink:href="#DejaVuSans-8722"/>
       <use x="83.789062" xlink:href="#DejaVuSans-48"/>
       <use x="147.412109" xlink:href="#DejaVuSans-46"/>
       <use x="179.199219" xlink:href="#DejaVuSans-53"/>
      </g>
     </g>
    </g>
    <g id="ytick_4">
     <g id="line2d_11">
      <g>
       <use style="stroke:#000000;stroke-width:2;" x="86.954" xlink:href="#m6ae3100556" y="141.039"/>
      </g>
     </g>
     <g id="text_12">
      <!-- 0.5 -->
      <g transform="translate(58.009 147.11775)scale(0.16 -0.16)">
       <use xlink:href="#DejaVuSans-48"/>
       <use x="63.623047" xlink:href="#DejaVuSans-46"/>
       <use x="95.410156" xlink:href="#DejaVuSans-53"/>
      </g>
     </g>
    </g>
    <g id="ytick_5">
     <g id="line2d_12">
      <g>
       <use style="stroke:#000000;stroke-width:2;" x="86.954" xlink:href="#m6ae3100556" y="95.739"/>
      </g>
     </g>
     <g id="text_13">
      <!-- 1.5 -->
      <g transform="translate(58.009 101.81775)scale(0.16 -0.16)">
       <use xlink:href="#DejaVuSans-49"/>
       <use x="63.623047" xlink:href="#DejaVuSans-46"/>
       <use x="95.410156" xlink:href="#DejaVuSans-53"/>
      </g>
     </g>
    </g>
    <g id="ytick_6">
     <g id="line2d_13">
      <g>
       <use style="stroke:#000000;stroke-width:2;" x="86.954" xlink:href="#m6ae3100556" y="50.439"/>
      </g>
     </g>
     <g id="text_14">
      <!-- 2.5 -->
      <g transform="translate(58.009 56.51775)scale(0.16 -0.16)">
       <use xlink:href="#DejaVuSans-50"/>
       <use x="63.623047" xlink:href="#DejaVuSans-46"/>
       <use x="95.410156" xlink:href="#DejaVuSans-53"/>
      </g>
     </g>
    </g>
    <g id="text_15">
     <!-- Response Error on Current Trial -->
     <defs>
      <path d="M 44.390625 34.1875 
Q 47.5625 33.109375 50.5625 29.59375 
Q 53.5625 26.078125 56.59375 19.921875 
L 66.609375 0 
L 56 0 
L 46.6875 18.703125 
Q 43.0625 26.03125 39.671875 28.421875 
Q 36.28125 30.8125 30.421875 30.8125 
L 19.671875 30.8125 
L 19.671875 0 
L 9.8125 0 
L 9.8125 72.90625 
L 32.078125 72.90625 
Q 44.578125 72.90625 50.734375 67.671875 
Q 56.890625 62.453125 56.890625 51.90625 
Q 56.890625 45.015625 53.6875 40.46875 
Q 50.484375 35.9375 44.390625 34.1875 
z
M 19.671875 64.796875 
L 19.671875 38.921875 
L 32.078125 38.921875 
Q 39.203125 38.921875 42.84375 42.21875 
Q 46.484375 45.515625 46.484375 51.90625 
Q 46.484375 58.296875 42.84375 61.546875 
Q 39.203125 64.796875 32.078125 64.796875 
z
" id="DejaVuSans-82"/>
      <path d="M 9.8125 72.90625 
L 55.90625 72.90625 
L 55.90625 64.59375 
L 19.671875 64.59375 
L 19.671875 43.015625 
L 54.390625 43.015625 
L 54.390625 34.71875 
L 19.671875 34.71875 
L 19.671875 8.296875 
L 56.78125 8.296875 
L 56.78125 0 
L 9.8125 0 
z
" id="DejaVuSans-69"/>
      <path d="M 34.28125 27.484375 
Q 23.390625 27.484375 19.1875 25 
Q 14.984375 22.515625 14.984375 16.5 
Q 14.984375 11.71875 18.140625 8.90625 
Q 21.296875 6.109375 26.703125 6.109375 
Q 34.1875 6.109375 38.703125 11.40625 
Q 43.21875 16.703125 43.21875 25.484375 
L 43.21875 27.484375 
z
M 52.203125 31.203125 
L 52.203125 0 
L 43.21875 0 
L 43.21875 8.296875 
Q 40.140625 3.328125 35.546875 0.953125 
Q 30.953125 -1.421875 24.3125 -1.421875 
Q 15.921875 -1.421875 10.953125 3.296875 
Q 6 8.015625 6 15.921875 
Q 6 25.140625 12.171875 29.828125 
Q 18.359375 34.515625 30.609375 34.515625 
L 43.21875 34.515625 
L 43.21875 35.40625 
Q 43.21875 41.609375 39.140625 45 
Q 35.0625 48.390625 27.6875 48.390625 
Q 23 48.390625 18.546875 47.265625 
Q 14.109375 46.140625 10.015625 43.890625 
L 10.015625 52.203125 
Q 14.9375 54.109375 19.578125 55.046875 
Q 24.21875 56 28.609375 56 
Q 40.484375 56 46.34375 49.84375 
Q 52.203125 43.703125 52.203125 31.203125 
z
" id="DejaVuSans-97"/>
      <path d="M 9.421875 75.984375 
L 18.40625 75.984375 
L 18.40625 0 
L 9.421875 0 
z
" id="DejaVuSans-108"/>
     </defs>
     <g transform="translate(19.3575 290.27775)rotate(-90)scale(0.16 -0.16)">
      <use xlink:href="#DejaVuSans-82"/>
      <use x="69.419922" xlink:href="#DejaVuSans-101"/>
      <use x="130.943359" xlink:href="#DejaVuSans-115"/>
      <use x="183.042969" xlink:href="#DejaVuSans-112"/>
      <use x="246.519531" xlink:href="#DejaVuSans-111"/>
      <use x="307.701172" xlink:href="#DejaVuSans-110"/>
      <use x="371.080078" xlink:href="#DejaVuSans-115"/>
      <use x="423.179688" xlink:href="#DejaVuSans-101"/>
      <use x="484.703125" xlink:href="#DejaVuSans-32"/>
      <use x="516.490234" xlink:href="#DejaVuSans-69"/>
      <use x="579.673828" xlink:href="#DejaVuSans-114"/>
      <use x="620.771484" xlink:href="#DejaVuSans-114"/>
      <use x="661.853516" xlink:href="#DejaVuSans-111"/>
      <use x="723.035156" xlink:href="#DejaVuSans-114"/>
      <use x="764.148438" xlink:href="#DejaVuSans-32"/>
      <use x="795.935547" xlink:href="#DejaVuSans-111"/>
      <use x="857.117188" xlink:href="#DejaVuSans-110"/>
      <use x="920.496094" xlink:href="#DejaVuSans-32"/>
      <use x="952.283203" xlink:href="#DejaVuSans-67"/>
      <use x="1022.107422" xlink:href="#DejaVuSans-117"/>
      <use x="1085.486328" xlink:href="#DejaVuSans-114"/>
      <use x="1126.583984" xlink:href="#DejaVuSans-114"/>
      <use x="1167.666016" xlink:href="#DejaVuSans-101"/>
      <use x="1229.189453" xlink:href="#DejaVuSans-110"/>
      <use x="1292.568359" xlink:href="#DejaVuSans-116"/>
      <use x="1331.777344" xlink:href="#DejaVuSans-32"/>
      <use x="1363.564453" xlink:href="#DejaVuSans-84"/>
      <use x="1424.429688" xlink:href="#DejaVuSans-114"/>
      <use x="1465.542969" xlink:href="#DejaVuSans-105"/>
      <use x="1493.326172" xlink:href="#DejaVuSans-97"/>
      <use x="1554.605469" xlink:href="#DejaVuSans-108"/>
     </g>
     <!--  (morph units) -->
     <g transform="translate(37.274 220.80775)rotate(-90)scale(0.16 -0.16)">
      <use xlink:href="#DejaVuSans-32"/>
      <use x="31.787109" xlink:href="#DejaVuSans-40"/>
      <use x="70.800781" xlink:href="#DejaVuSans-109"/>
      <use x="168.212891" xlink:href="#DejaVuSans-111"/>
      <use x="229.394531" xlink:href="#DejaVuSans-114"/>
      <use x="270.507812" xlink:href="#DejaVuSans-112"/>
      <use x="333.984375" xlink:href="#DejaVuSans-104"/>
      <use x="397.363281" xlink:href="#DejaVuSans-32"/>
      <use x="429.150391" xlink:href="#DejaVuSans-117"/>
      <use x="492.529297" xlink:href="#DejaVuSans-110"/>
      <use x="555.908203" xlink:href="#DejaVuSans-105"/>
      <use x="583.691406" xlink:href="#DejaVuSans-116"/>
      <use x="622.900391" xlink:href="#DejaVuSans-115"/>
      <use x="675" xlink:href="#DejaVuSans-41"/>
     </g>
    </g>
   </g>
   <g id="line2d_14">
    <path clip-path="url(#p5a4081a32d)" d="M 86.954 165.708247 
L 88.864959 166.293905 
L 90.775918 169.358046 
L 92.686877 179.959862 
L 94.597836 180.135243 
L 96.508795 187.259876 
L 98.419753 184.46856 
L 100.330712 186.540763 
L 102.241671 195.798772 
L 104.15263 207.006937 
L 106.063589 210.546732 
L 107.974548 206.619177 
L 109.885507 199.011369 
L 111.796466 203.380587 
L 113.707425 205.945237 
L 115.618384 208.055737 
L 117.529342 205.880507 
L 119.440301 208.155415 
L 121.35126 204.937252 
L 123.262219 204.374692 
L 125.173178 214.188177 
L 127.084137 217.142817 
L 128.995096 217.492164 
L 130.906055 211.473536 
L 132.817014 213.347569 
L 134.727973 217.664425 
L 136.638932 216.363439 
L 140.460849 224.4195 
L 142.371808 219.187485 
L 144.282767 223.858013 
L 146.193726 219.174138 
L 148.104685 223.050388 
L 150.015644 223.403208 
L 151.926603 220.308163 
L 155.748521 234.193178 
L 157.659479 239.599734 
L 161.481397 223.874837 
L 163.392356 226.366659 
L 165.303315 222.427162 
L 167.214274 221.48364 
L 169.125233 225.954775 
L 171.036192 217.989743 
L 172.947151 224.433979 
L 174.85811 225.467064 
L 176.769068 234.606896 
L 178.680027 235.166437 
L 180.590986 233.2973 
L 182.501945 238.168578 
L 186.323863 239.859547 
L 188.234822 246.086887 
L 190.145781 248.500502 
L 192.05674 244.232192 
L 193.967699 241.592263 
L 195.878658 247.492751 
L 197.789616 250.511451 
L 199.700575 243.046087 
L 201.611534 250.525762 
L 203.522493 232.208814 
L 205.433452 236.336016 
L 209.25537 221.676431 
L 211.166329 212.998629 
L 213.077288 205.696196 
L 214.988247 195.615753 
L 216.899205 188.650946 
L 218.810164 193.459608 
L 220.721123 190.12147 
L 222.632082 190.027533 
L 224.543041 181.228491 
L 226.454 183.403697 
L 228.364959 179.569318 
L 230.275918 177.819826 
L 232.186877 164.910757 
L 234.097836 166.076349 
L 236.008795 153.242379 
L 237.919753 145.099899 
L 239.830712 133.203515 
L 241.741671 132.187875 
L 243.65263 119.51612 
L 245.563589 113.413378 
L 247.474548 112.06586 
L 249.385507 107.109534 
L 251.296466 106.667767 
L 253.207425 108.213402 
L 255.118384 110.359544 
L 257.029342 112.689342 
L 258.940301 113.172107 
L 260.85126 106.453423 
L 262.762219 106.508024 
L 264.673178 100.64244 
L 266.584137 104.580997 
L 268.495096 107.41173 
L 270.406055 112.87574 
L 272.317014 112.14093 
L 274.227973 109.874491 
L 276.138932 106.309586 
L 278.04989 100.163361 
L 279.960849 104.094468 
L 281.871808 87.412459 
L 283.782767 87.87936 
L 285.693726 87.936817 
L 287.604685 78.569647 
L 289.515644 82.518231 
L 291.426603 85.037573 
L 293.337562 76.512707 
L 295.248521 86.872546 
L 297.159479 93.458008 
L 299.070438 97.144004 
L 300.981397 87.599348 
L 302.892356 92.525291 
L 304.803315 92.918568 
L 306.714274 85.202555 
L 308.625233 93.914164 
L 310.536192 92.856839 
L 312.447151 93.506896 
L 314.35811 84.742951 
L 316.269068 80.215354 
L 318.180027 71.101332 
L 320.090986 77.560879 
L 322.001945 86.797641 
L 323.912904 89.342028 
L 325.823863 83.720428 
L 327.734822 87.683056 
L 329.645781 88.330331 
L 331.55674 102.054994 
L 333.467699 106.982509 
L 335.378658 114.220528 
L 337.289616 114.183118 
L 339.200575 108.980973 
L 341.111534 124.440529 
L 343.022493 138.433246 
L 344.933452 142.196566 
L 346.844411 143.479268 
L 348.75537 147.006763 
L 350.666329 146.206951 
L 352.577288 150.158257 
L 354.488247 148.009145 
L 356.399205 145.305346 
L 358.310164 143.542026 
L 360.221123 140.696534 
L 362.132082 143.863643 
L 364.043041 147.989222 
L 365.954 165.708247 
L 365.954 165.708247 
" style="fill:none;stroke:#00008b;stroke-linecap:square;stroke-width:1.5;"/>
   </g>
   <g id="line2d_15">
    <path clip-path="url(#p5a4081a32d)" d="M 86.954 163.920852 
L 100.330712 164.86194 
L 107.974548 165.618892 
L 113.707425 166.38063 
L 119.440301 167.388169 
L 123.262219 168.243231 
L 127.084137 169.286347 
L 130.906055 170.560923 
L 134.727973 172.118473 
L 138.54989 174.019367 
L 142.371808 176.333195 
L 146.193726 179.138455 
L 148.104685 180.752024 
L 150.015644 182.521146 
L 151.926603 184.457239 
L 153.837562 186.57168 
L 155.748521 188.875563 
L 157.659479 191.3794 
L 159.570438 194.092751 
L 161.481397 197.023786 
L 163.392356 200.178758 
L 165.303315 203.5614 
L 169.125233 211.007734 
L 172.947151 219.313648 
L 176.769068 228.337098 
L 188.234822 256.28481 
L 190.145781 260.330069 
L 192.05674 263.944246 
L 193.967699 267.012739 
L 195.878658 269.416696 
L 197.789616 271.036174 
L 199.700575 271.7539 
L 201.611534 271.459522 
L 203.522493 270.054225 
L 205.433452 267.455514 
L 207.344411 263.60193 
L 209.25537 258.457432 
L 211.166329 252.015172 
L 213.077288 244.30039 
L 214.988247 235.372163 
L 216.899205 225.32383 
L 218.810164 214.281943 
L 222.632082 189.872938 
L 232.186877 124.974296 
L 234.097836 113.096057 
L 236.008795 102.05417 
L 237.919753 92.005837 
L 239.830712 83.07761 
L 241.741671 75.362828 
L 243.65263 68.920568 
L 245.563589 63.77607 
L 247.474548 59.922486 
L 249.385507 57.323775 
L 251.296466 55.918478 
L 253.207425 55.6241 
L 255.118384 56.341826 
L 257.029342 57.961304 
L 258.940301 60.365261 
L 260.85126 63.433754 
L 262.762219 67.047931 
L 264.673178 71.09319 
L 268.495096 80.054297 
L 278.04989 103.628977 
L 281.871808 112.318412 
L 285.693726 120.205779 
L 289.515644 127.199242 
L 291.426603 130.354214 
L 293.337562 133.285249 
L 295.248521 135.9986 
L 297.159479 138.502437 
L 299.070438 140.80632 
L 300.981397 142.920761 
L 302.892356 144.856854 
L 304.803315 146.625976 
L 308.625233 149.70883 
L 312.447151 152.258043 
L 316.269068 154.356131 
L 320.090986 156.077232 
L 323.912904 157.486317 
L 327.734822 158.639251 
L 331.55674 159.583386 
L 337.289616 160.693074 
L 343.022493 161.527572 
L 350.666329 162.348137 
L 360.221123 163.090386 
L 365.954 163.457148 
L 365.954 163.457148 
" style="fill:none;stroke:#006400;stroke-linecap:square;stroke-width:1.5;"/>
   </g>
   <g id="patch_3">
    <path d="M 86.954 299.589 
L 86.954 27.789 
" style="fill:none;stroke:#000000;stroke-linecap:square;stroke-linejoin:miter;stroke-width:2;"/>
   </g>
   <g id="patch_4">
    <path d="M 86.954 299.589 
L 365.954 299.589 
" style="fill:none;stroke:#000000;stroke-linecap:square;stroke-linejoin:miter;stroke-width:2;"/>
   </g>
   <g id="text_16">
    <!-- Radiologists, Step = 30 -->
    <defs>
     <path d="M 45.40625 46.390625 
L 45.40625 75.984375 
L 54.390625 75.984375 
L 54.390625 0 
L 45.40625 0 
L 45.40625 8.203125 
Q 42.578125 3.328125 38.25 0.953125 
Q 33.9375 -1.421875 27.875 -1.421875 
Q 17.96875 -1.421875 11.734375 6.484375 
Q 5.515625 14.40625 5.515625 27.296875 
Q 5.515625 40.1875 11.734375 48.09375 
Q 17.96875 56 27.875 56 
Q 33.9375 56 38.25 53.625 
Q 42.578125 51.265625 45.40625 46.390625 
z
M 14.796875 27.296875 
Q 14.796875 17.390625 18.875 11.75 
Q 22.953125 6.109375 30.078125 6.109375 
Q 37.203125 6.109375 41.296875 11.75 
Q 45.40625 17.390625 45.40625 27.296875 
Q 45.40625 37.203125 41.296875 42.84375 
Q 37.203125 48.484375 30.078125 48.484375 
Q 22.953125 48.484375 18.875 42.84375 
Q 14.796875 37.203125 14.796875 27.296875 
z
" id="DejaVuSans-100"/>
     <path d="M 45.40625 27.984375 
Q 45.40625 37.75 41.375 43.109375 
Q 37.359375 48.484375 30.078125 48.484375 
Q 22.859375 48.484375 18.828125 43.109375 
Q 14.796875 37.75 14.796875 27.984375 
Q 14.796875 18.265625 18.828125 12.890625 
Q 22.859375 7.515625 30.078125 7.515625 
Q 37.359375 7.515625 41.375 12.890625 
Q 45.40625 18.265625 45.40625 27.984375 
z
M 54.390625 6.78125 
Q 54.390625 -7.171875 48.1875 -13.984375 
Q 42 -20.796875 29.203125 -20.796875 
Q 24.46875 -20.796875 20.265625 -20.09375 
Q 16.0625 -19.390625 12.109375 -17.921875 
L 12.109375 -9.1875 
Q 16.0625 -11.328125 19.921875 -12.34375 
Q 23.78125 -13.375 27.78125 -13.375 
Q 36.625 -13.375 41.015625 -8.765625 
Q 45.40625 -4.15625 45.40625 5.171875 
L 45.40625 9.625 
Q 42.625 4.78125 38.28125 2.390625 
Q 33.9375 0 27.875 0 
Q 17.828125 0 11.671875 7.65625 
Q 5.515625 15.328125 5.515625 27.984375 
Q 5.515625 40.671875 11.671875 48.328125 
Q 17.828125 56 27.875 56 
Q 33.9375 56 38.28125 53.609375 
Q 42.625 51.21875 45.40625 46.390625 
L 45.40625 54.6875 
L 54.390625 54.6875 
z
" id="DejaVuSans-103"/>
     <path d="M 11.71875 12.40625 
L 22.015625 12.40625 
L 22.015625 4 
L 14.015625 -11.625 
L 7.71875 -11.625 
L 11.71875 4 
z
" id="DejaVuSans-44"/>
     <path d="M 53.515625 70.515625 
L 53.515625 60.890625 
Q 47.90625 63.578125 42.921875 64.890625 
Q 37.9375 66.21875 33.296875 66.21875 
Q 25.25 66.21875 20.875 63.09375 
Q 16.5 59.96875 16.5 54.203125 
Q 16.5 49.359375 19.40625 46.890625 
Q 22.3125 44.4375 30.421875 42.921875 
L 36.375 41.703125 
Q 47.40625 39.59375 52.65625 34.296875 
Q 57.90625 29 57.90625 20.125 
Q 57.90625 9.515625 50.796875 4.046875 
Q 43.703125 -1.421875 29.984375 -1.421875 
Q 24.8125 -1.421875 18.96875 -0.25 
Q 13.140625 0.921875 6.890625 3.21875 
L 6.890625 13.375 
Q 12.890625 10.015625 18.65625 8.296875 
Q 24.421875 6.59375 29.984375 6.59375 
Q 38.421875 6.59375 43.015625 9.90625 
Q 47.609375 13.234375 47.609375 19.390625 
Q 47.609375 24.75 44.3125 27.78125 
Q 41.015625 30.8125 33.5 32.328125 
L 27.484375 33.5 
Q 16.453125 35.6875 11.515625 40.375 
Q 6.59375 45.0625 6.59375 53.421875 
Q 6.59375 63.09375 13.40625 68.65625 
Q 20.21875 74.21875 32.171875 74.21875 
Q 37.3125 74.21875 42.625 73.28125 
Q 47.953125 72.359375 53.515625 70.515625 
z
" id="DejaVuSans-83"/>
     <path d="M 10.59375 45.40625 
L 73.1875 45.40625 
L 73.1875 37.203125 
L 10.59375 37.203125 
z
M 10.59375 25.484375 
L 73.1875 25.484375 
L 73.1875 17.1875 
L 10.59375 17.1875 
z
" id="DejaVuSans-61"/>
    </defs>
    <g transform="translate(113.876 21.789)scale(0.192 -0.192)">
     <use xlink:href="#DejaVuSans-82"/>
     <use x="69.451172" xlink:href="#DejaVuSans-97"/>
     <use x="130.730469" xlink:href="#DejaVuSans-100"/>
     <use x="194.207031" xlink:href="#DejaVuSans-105"/>
     <use x="221.990234" xlink:href="#DejaVuSans-111"/>
     <use x="283.171875" xlink:href="#DejaVuSans-108"/>
     <use x="310.955078" xlink:href="#DejaVuSans-111"/>
     <use x="372.136719" xlink:href="#DejaVuSans-103"/>
     <use x="435.613281" xlink:href="#DejaVuSans-105"/>
     <use x="463.396484" xlink:href="#DejaVuSans-115"/>
     <use x="515.496094" xlink:href="#DejaVuSans-116"/>
     <use x="554.705078" xlink:href="#DejaVuSans-115"/>
     <use x="606.804688" xlink:href="#DejaVuSans-44"/>
     <use x="638.591797" xlink:href="#DejaVuSans-32"/>
     <use x="670.378906" xlink:href="#DejaVuSans-83"/>
     <use x="733.855469" xlink:href="#DejaVuSans-116"/>
     <use x="773.064453" xlink:href="#DejaVuSans-101"/>
     <use x="834.587891" xlink:href="#DejaVuSans-112"/>
     <use x="898.064453" xlink:href="#DejaVuSans-32"/>
     <use x="929.851562" xlink:href="#DejaVuSans-61"/>
     <use x="1013.640625" xlink:href="#DejaVuSans-32"/>
     <use x="1045.427734" xlink:href="#DejaVuSans-51"/>
     <use x="1109.050781" xlink:href="#DejaVuSans-48"/>
    </g>
   </g>
  </g>
 </g>
 <defs>
  <clipPath id="p5a4081a32d">
   <rect height="271.8" width="279" x="86.954" y="27.789"/>
  </clipPath>
 </defs>
</svg>
