<?xml version="1.0" encoding="utf-8" standalone="no"?>
<!DOCTYPE svg PUBLIC "-//W3C//DTD SVG 1.1//EN"
  "http://www.w3.org/Graphics/SVG/1.1/DTD/svg11.dtd">
<!-- Created with matplotlib (https://matplotlib.org/) -->
<svg height="363.1755pt" version="1.1" viewBox="0 0 454.2775 363.1755" width="454.2775pt" xmlns="http://www.w3.org/2000/svg" xmlns:xlink="http://www.w3.org/1999/xlink">
 <defs>
  <style type="text/css">
*{stroke-linecap:butt;stroke-linejoin:round;}
  </style>
 </defs>
 <g id="figure_1">
  <g id="patch_1">
   <path d="M 0 363.1755 
L 454.2775 363.1755 
L 454.2775 0 
L 0 0 
z
" style="fill:#ffffff;"/>
  </g>
  <g id="axes_1">
   <g id="patch_2">
    <path d="M 157.8975 299.589 
L 436.8975 299.589 
L 436.8975 27.789 
L 157.8975 27.789 
z
" style="fill:#ffffff;"/>
   </g>
   <g id="PolyCollection_1">
    <defs>
     <path d="M 157.8975 -179.29051 
L 157.8975 -215.643995 
L 159.808459 -217.360892 
L 161.719418 -214.98858 
L 163.630377 -204.653827 
L 165.541336 -203.223271 
L 167.452295 -194.946381 
L 169.363253 -197.215087 
L 171.274212 -195.067619 
L 173.185171 -186.090259 
L 175.09613 -178.763311 
L 177.007089 -177.556573 
L 178.918048 -181.85011 
L 180.829007 -188.931899 
L 182.739966 -184.792695 
L 184.650925 -184.861154 
L 186.561884 -182.328332 
L 188.472842 -184.659677 
L 190.383801 -182.410052 
L 192.29476 -186.821968 
L 194.205719 -187.738942 
L 196.116678 -176.662479 
L 198.027637 -172.078171 
L 199.938596 -173.197864 
L 201.849555 -178.470198 
L 203.760514 -173.889976 
L 205.671473 -168.170853 
L 207.582432 -169.702927 
L 209.49339 -165.546082 
L 211.404349 -161.16718 
L 213.315308 -167.185034 
L 215.226267 -161.930531 
L 217.137226 -165.050783 
L 219.048185 -161.225109 
L 220.959144 -159.906406 
L 222.870103 -162.878207 
L 224.781062 -154.777901 
L 226.692021 -144.94554 
L 228.602979 -139.412338 
L 230.513938 -147.325017 
L 232.424897 -156.436602 
L 234.335856 -152.754311 
L 236.246815 -155.576713 
L 238.157774 -157.323347 
L 240.068733 -152.782197 
L 241.979692 -160.679146 
L 243.890651 -155.242812 
L 245.80161 -155.641458 
L 247.712568 -148.183025 
L 249.623527 -146.141292 
L 251.534486 -148.474539 
L 253.445445 -144.285012 
L 255.356404 -143.766802 
L 257.267363 -143.281238 
L 259.178322 -136.256247 
L 261.089281 -133.548259 
L 263.00024 -136.493874 
L 264.911199 -139.275117 
L 266.822158 -135.694118 
L 268.733116 -131.536299 
L 270.644075 -141.771054 
L 272.555034 -138.11009 
L 274.465993 -156.073211 
L 276.376952 -151.870601 
L 278.287911 -155.978555 
L 280.19887 -160.083435 
L 282.109829 -169.551329 
L 284.020788 -176.413449 
L 285.931747 -184.598464 
L 287.842705 -191.584671 
L 289.753664 -185.688268 
L 291.664623 -189.660773 
L 293.575582 -190.022347 
L 295.486541 -199.065572 
L 297.3975 -200.041108 
L 299.308459 -204.121056 
L 301.219418 -203.213021 
L 303.130377 -216.268841 
L 305.041336 -216.939861 
L 306.952295 -231.345701 
L 308.863253 -239.676199 
L 310.774212 -253.434182 
L 312.685171 -253.302204 
L 314.59613 -267.954626 
L 316.507089 -272.862043 
L 318.418048 -274.309686 
L 320.329007 -281.042086 
L 322.239966 -282.567182 
L 324.150925 -280.776144 
L 326.061884 -278.191352 
L 327.972842 -275.637824 
L 329.883801 -273.170799 
L 331.79476 -282.23616 
L 333.705719 -281.843737 
L 335.616678 -286.014255 
L 337.527637 -280.519605 
L 339.438596 -276.253448 
L 341.349555 -268.309509 
L 343.260514 -268.571506 
L 345.171473 -268.628976 
L 347.082432 -270.933137 
L 348.99339 -277.983295 
L 350.904349 -275.482763 
L 352.815308 -292.088993 
L 354.726267 -290.500022 
L 356.637226 -292.251812 
L 358.548185 -301.878711 
L 360.459144 -294.88606 
L 362.370103 -291.192793 
L 364.281062 -300.012175 
L 366.192021 -291.537943 
L 368.102979 -284.404139 
L 370.013938 -282.250922 
L 371.924897 -293.300566 
L 373.835856 -291.577949 
L 375.746815 -290.861754 
L 377.657774 -296.875811 
L 379.568733 -287.777272 
L 381.479692 -288.577723 
L 383.390651 -289.476695 
L 385.30161 -299.619111 
L 387.212568 -305.576251 
L 389.123527 -313.184256 
L 391.034486 -306.315934 
L 392.945445 -297.024637 
L 394.856404 -293.770848 
L 396.767363 -301.963799 
L 398.678322 -295.820076 
L 400.589281 -292.934941 
L 402.50024 -274.73982 
L 404.411199 -270.119567 
L 406.322158 -262.786686 
L 408.233116 -266.640511 
L 410.144075 -270.699129 
L 412.055034 -254.627231 
L 413.965993 -242.156599 
L 415.876952 -237.609422 
L 417.787911 -238.065453 
L 419.69887 -232.97286 
L 421.609829 -231.69064 
L 423.520788 -227.3155 
L 425.431747 -228.143164 
L 427.342705 -231.725316 
L 429.253664 -233.252005 
L 431.164623 -236.892243 
L 433.075582 -238.334048 
L 434.986541 -232.946048 
L 436.8975 -215.643995 
L 436.8975 -179.29051 
L 436.8975 -179.29051 
L 434.986541 -197.426509 
L 433.075582 -200.289666 
L 431.164623 -208.06569 
L 429.253664 -206.014944 
L 427.342705 -204.014992 
L 425.431747 -202.189547 
L 423.520788 -198.718986 
L 421.609829 -202.246457 
L 419.69887 -199.364614 
L 417.787911 -201.327011 
L 415.876952 -204.348447 
L 413.965993 -207.327909 
L 412.055034 -222.842712 
L 410.144075 -237.689926 
L 408.233116 -231.344252 
L 406.322158 -235.123258 
L 404.411199 -242.266415 
L 402.50024 -247.501192 
L 400.589281 -256.755397 
L 398.678322 -255.164812 
L 396.767363 -256.946345 
L 394.856404 -253.896097 
L 392.945445 -255.731081 
L 391.034486 -264.913309 
L 389.123527 -270.964079 
L 387.212568 -260.344041 
L 385.30161 -257.245986 
L 383.390651 -249.860513 
L 381.479692 -252.0596 
L 379.568733 -250.745401 
L 377.657774 -259.070079 
L 375.746815 -249.652109 
L 373.835856 -249.72247 
L 371.924897 -257.851739 
L 370.013938 -249.812069 
L 368.102979 -255.030845 
L 366.192021 -261.067965 
L 364.281062 -273.313411 
L 362.370103 -265.083061 
L 360.459144 -266.428477 
L 358.548185 -267.332996 
L 356.637226 -258.225554 
L 354.726267 -260.092258 
L 352.815308 -259.437089 
L 350.904349 -242.679301 
L 348.99339 -248.040982 
L 347.082432 -242.79869 
L 345.171473 -237.973042 
L 343.260514 -233.497635 
L 341.349555 -232.29001 
L 339.438596 -235.274092 
L 337.527637 -236.669401 
L 335.616678 -239.051864 
L 333.705719 -231.491216 
L 331.79476 -231.207993 
L 329.883801 -226.835987 
L 327.972842 -225.334491 
L 326.061884 -227.440561 
L 324.150925 -229.148052 
L 322.239966 -230.448284 
L 320.329007 -231.089846 
L 318.418048 -227.909593 
L 316.507089 -226.662201 
L 314.59613 -219.364135 
L 312.685171 -208.673047 
L 310.774212 -206.509789 
L 308.863253 -196.475003 
L 306.952295 -188.520541 
L 305.041336 -177.258441 
L 303.130377 -180.260644 
L 301.219418 -167.498327 
L 299.308459 -163.091308 
L 297.3975 -159.502498 
L 295.486541 -164.828447 
L 293.575582 -156.273587 
L 291.664623 -156.447286 
L 289.753664 -153.743516 
L 287.842705 -157.464437 
L 285.931747 -150.521029 
L 284.020788 -138.54516 
L 282.109829 -130.802413 
L 280.19887 -122.914703 
L 278.287911 -112.535974 
L 276.376952 -101.808367 
L 274.465993 -105.860161 
L 272.555034 -87.189386 
L 270.644075 -98.487773 
L 268.733116 -93.791799 
L 266.822158 -95.671379 
L 264.911199 -103.891358 
L 263.00024 -101.392743 
L 261.089281 -95.801737 
L 259.178322 -97.920978 
L 257.267363 -103.350667 
L 255.356404 -104.43546 
L 253.445445 -105.728832 
L 251.534486 -111.28186 
L 249.623527 -109.876833 
L 247.712568 -108.954182 
L 245.80161 -119.775415 
L 243.890651 -122.24023 
L 241.979692 -129.692368 
L 240.068733 -121.659253 
L 238.157774 -126.060373 
L 236.246815 -125.919963 
L 234.335856 -120.863372 
L 232.424897 -122.164725 
L 230.513938 -115.394114 
L 228.602979 -107.739193 
L 226.692021 -113.019104 
L 224.781062 -117.116366 
L 222.870103 -122.856468 
L 220.959144 -119.638177 
L 219.048185 -119.025114 
L 217.137226 -122.951941 
L 215.226267 -116.704443 
L 213.315308 -120.790996 
L 211.404349 -116.344821 
L 209.49339 -119.895163 
L 207.582432 -123.921195 
L 205.671473 -122.851298 
L 203.760514 -125.765887 
L 201.849555 -124.93373 
L 199.938596 -118.168807 
L 198.027637 -119.987195 
L 196.116678 -121.312166 
L 194.205719 -129.862673 
L 192.29476 -129.654529 
L 190.383801 -127.630118 
L 188.472842 -129.930308 
L 186.561884 -127.911194 
L 184.650925 -129.599372 
L 182.739966 -134.797132 
L 180.829007 -139.396363 
L 178.918048 -131.262536 
L 177.007089 -127.700963 
L 175.09613 -133.573816 
L 173.185171 -148.663198 
L 171.274212 -158.201854 
L 169.363253 -160.198792 
L 167.452295 -156.884867 
L 165.541336 -162.857243 
L 163.630377 -161.777449 
L 161.719418 -172.646328 
L 159.808459 -176.402297 
L 157.8975 -179.29051 
z
" id="m8d6cd32a9b" style="stroke:#87ceeb;stroke-opacity:0.2;"/>
    </defs>
    <g clip-path="url(#pbb12bfc7d0)">
     <use style="fill:#87ceeb;fill-opacity:0.2;stroke:#87ceeb;stroke-opacity:0.2;" x="0" xlink:href="#m8d6cd32a9b" y="363.1755"/>
    </g>
   </g>
   <g id="patch_3">
    <path clip-path="url(#pbb12bfc7d0)" d="M 263.00024 299.589 
L 263.00024 27.789 
L 331.79476 27.789 
L 331.79476 299.589 
z
" style="fill:#ff7f50;opacity:0.1;stroke:#ff7f50;stroke-linejoin:miter;"/>
   </g>
   <g id="matplotlib.axis_1">
    <g id="xtick_1">
     <g id="line2d_1">
      <defs>
       <path d="M 0 0 
L 0 -6 
" id="m7c3f22ed70" style="stroke:#000000;stroke-width:2;"/>
      </defs>
      <g>
       <use style="stroke:#000000;stroke-width:2;" x="157.8975" xlink:href="#m7c3f22ed70" y="299.589"/>
      </g>
     </g>
     <g id="text_1">
      <!-- -73 -->
      <defs>
       <path d="M 4.890625 31.390625 
L 31.203125 31.390625 
L 31.203125 23.390625 
L 4.890625 23.390625 
z
" id="DejaVuSans-45"/>
       <path d="M 8.203125 72.90625 
L 55.078125 72.90625 
L 55.078125 68.703125 
L 28.609375 0 
L 18.3125 0 
L 43.21875 64.59375 
L 8.203125 64.59375 
z
" id="DejaVuSans-55"/>
       <path d="M 40.578125 39.3125 
Q 47.65625 37.796875 51.625 33 
Q 55.609375 28.21875 55.609375 21.1875 
Q 55.609375 10.40625 48.1875 4.484375 
Q 40.765625 -1.421875 27.09375 -1.421875 
Q 22.515625 -1.421875 17.65625 -0.515625 
Q 12.796875 0.390625 7.625 2.203125 
L 7.625 11.71875 
Q 11.71875 9.328125 16.59375 8.109375 
Q 21.484375 6.890625 26.8125 6.890625 
Q 36.078125 6.890625 40.9375 10.546875 
Q 45.796875 14.203125 45.796875 21.1875 
Q 45.796875 27.640625 41.28125 31.265625 
Q 36.765625 34.90625 28.71875 34.90625 
L 20.21875 34.90625 
L 20.21875 43.015625 
L 29.109375 43.015625 
Q 36.375 43.015625 40.234375 45.921875 
Q 44.09375 48.828125 44.09375 54.296875 
Q 44.09375 59.90625 40.109375 62.90625 
Q 36.140625 65.921875 28.71875 65.921875 
Q 24.65625 65.921875 20.015625 65.03125 
Q 15.375 64.15625 9.8125 62.3125 
L 9.8125 71.09375 
Q 15.4375 72.65625 20.34375 73.4375 
Q 25.25 74.21875 29.59375 74.21875 
Q 40.828125 74.21875 47.359375 69.109375 
Q 53.90625 64.015625 53.90625 55.328125 
Q 53.90625 49.265625 50.4375 45.09375 
Q 46.96875 40.921875 40.578125 39.3125 
z
" id="DejaVuSans-51"/>
      </defs>
      <g transform="translate(144.83125 315.2465)scale(0.16 -0.16)">
       <use xlink:href="#DejaVuSans-45"/>
       <use x="36.083984" xlink:href="#DejaVuSans-55"/>
       <use x="99.707031" xlink:href="#DejaVuSans-51"/>
      </g>
     </g>
    </g>
    <g id="xtick_2">
     <g id="line2d_2">
      <g>
       <use style="stroke:#000000;stroke-width:2;" x="201.849555" xlink:href="#m7c3f22ed70" y="299.589"/>
      </g>
     </g>
     <g id="text_2">
      <!-- -50 -->
      <defs>
       <path d="M 10.796875 72.90625 
L 49.515625 72.90625 
L 49.515625 64.59375 
L 19.828125 64.59375 
L 19.828125 46.734375 
Q 21.96875 47.46875 24.109375 47.828125 
Q 26.265625 48.1875 28.421875 48.1875 
Q 40.625 48.1875 47.75 41.5 
Q 54.890625 34.8125 54.890625 23.390625 
Q 54.890625 11.625 47.5625 5.09375 
Q 40.234375 -1.421875 26.90625 -1.421875 
Q 22.3125 -1.421875 17.546875 -0.640625 
Q 12.796875 0.140625 7.71875 1.703125 
L 7.71875 11.625 
Q 12.109375 9.234375 16.796875 8.0625 
Q 21.484375 6.890625 26.703125 6.890625 
Q 35.15625 6.890625 40.078125 11.328125 
Q 45.015625 15.765625 45.015625 23.390625 
Q 45.015625 31 40.078125 35.4375 
Q 35.15625 39.890625 26.703125 39.890625 
Q 22.75 39.890625 18.8125 39.015625 
Q 14.890625 38.140625 10.796875 36.28125 
z
" id="DejaVuSans-53"/>
       <path d="M 31.78125 66.40625 
Q 24.171875 66.40625 20.328125 58.90625 
Q 16.5 51.421875 16.5 36.375 
Q 16.5 21.390625 20.328125 13.890625 
Q 24.171875 6.390625 31.78125 6.390625 
Q 39.453125 6.390625 43.28125 13.890625 
Q 47.125 21.390625 47.125 36.375 
Q 47.125 51.421875 43.28125 58.90625 
Q 39.453125 66.40625 31.78125 66.40625 
z
M 31.78125 74.21875 
Q 44.046875 74.21875 50.515625 64.515625 
Q 56.984375 54.828125 56.984375 36.375 
Q 56.984375 17.96875 50.515625 8.265625 
Q 44.046875 -1.421875 31.78125 -1.421875 
Q 19.53125 -1.421875 13.0625 8.265625 
Q 6.59375 17.96875 6.59375 36.375 
Q 6.59375 54.828125 13.0625 64.515625 
Q 19.53125 74.21875 31.78125 74.21875 
z
" id="DejaVuSans-48"/>
      </defs>
      <g transform="translate(188.783305 315.2465)scale(0.16 -0.16)">
       <use xlink:href="#DejaVuSans-45"/>
       <use x="36.083984" xlink:href="#DejaVuSans-53"/>
       <use x="99.707031" xlink:href="#DejaVuSans-48"/>
      </g>
     </g>
    </g>
    <g id="xtick_3">
     <g id="line2d_3">
      <g>
       <use style="stroke:#000000;stroke-width:2;" x="249.623527" xlink:href="#m7c3f22ed70" y="299.589"/>
      </g>
     </g>
     <g id="text_3">
      <!-- -25 -->
      <defs>
       <path d="M 19.1875 8.296875 
L 53.609375 8.296875 
L 53.609375 0 
L 7.328125 0 
L 7.328125 8.296875 
Q 12.9375 14.109375 22.625 23.890625 
Q 32.328125 33.6875 34.8125 36.53125 
Q 39.546875 41.84375 41.421875 45.53125 
Q 43.3125 49.21875 43.3125 52.78125 
Q 43.3125 58.59375 39.234375 62.25 
Q 35.15625 65.921875 28.609375 65.921875 
Q 23.96875 65.921875 18.8125 64.3125 
Q 13.671875 62.703125 7.8125 59.421875 
L 7.8125 69.390625 
Q 13.765625 71.78125 18.9375 73 
Q 24.125 74.21875 28.421875 74.21875 
Q 39.75 74.21875 46.484375 68.546875 
Q 53.21875 62.890625 53.21875 53.421875 
Q 53.21875 48.921875 51.53125 44.890625 
Q 49.859375 40.875 45.40625 35.40625 
Q 44.1875 33.984375 37.640625 27.21875 
Q 31.109375 20.453125 19.1875 8.296875 
z
" id="DejaVuSans-50"/>
      </defs>
      <g transform="translate(236.557277 315.2465)scale(0.16 -0.16)">
       <use xlink:href="#DejaVuSans-45"/>
       <use x="36.083984" xlink:href="#DejaVuSans-50"/>
       <use x="99.707031" xlink:href="#DejaVuSans-53"/>
      </g>
     </g>
    </g>
    <g id="xtick_4">
     <g id="line2d_4">
      <g>
       <use style="stroke:#000000;stroke-width:2;" x="297.3975" xlink:href="#m7c3f22ed70" y="299.589"/>
      </g>
     </g>
     <g id="text_4">
      <!-- 0 -->
      <g transform="translate(292.3075 315.2465)scale(0.16 -0.16)">
       <use xlink:href="#DejaVuSans-48"/>
      </g>
     </g>
    </g>
    <g id="xtick_5">
     <g id="line2d_5">
      <g>
       <use style="stroke:#000000;stroke-width:2;" x="345.171473" xlink:href="#m7c3f22ed70" y="299.589"/>
      </g>
     </g>
     <g id="text_5">
      <!-- 25 -->
      <g transform="translate(334.991473 315.2465)scale(0.16 -0.16)">
       <use xlink:href="#DejaVuSans-50"/>
       <use x="63.623047" xlink:href="#DejaVuSans-53"/>
      </g>
     </g>
    </g>
    <g id="xtick_6">
     <g id="line2d_6">
      <g>
       <use style="stroke:#000000;stroke-width:2;" x="392.945445" xlink:href="#m7c3f22ed70" y="299.589"/>
      </g>
     </g>
     <g id="text_6">
      <!-- 50 -->
      <g transform="translate(382.765445 315.2465)scale(0.16 -0.16)">
       <use xlink:href="#DejaVuSans-53"/>
       <use x="63.623047" xlink:href="#DejaVuSans-48"/>
      </g>
     </g>
    </g>
    <g id="xtick_7">
     <g id="line2d_7">
      <g>
       <use style="stroke:#000000;stroke-width:2;" x="436.8975" xlink:href="#m7c3f22ed70" y="299.589"/>
      </g>
     </g>
     <g id="text_7">
      <!-- 73 -->
      <g transform="translate(426.7175 315.2465)scale(0.16 -0.16)">
       <use xlink:href="#DejaVuSans-55"/>
       <use x="63.623047" xlink:href="#DejaVuSans-51"/>
      </g>
     </g>
    </g>
    <g id="text_8">
     <!-- Previous Tumor - Current Tumor -->
     <defs>
      <path d="M 19.671875 64.796875 
L 19.671875 37.40625 
L 32.078125 37.40625 
Q 38.96875 37.40625 42.71875 40.96875 
Q 46.484375 44.53125 46.484375 51.125 
Q 46.484375 57.671875 42.71875 61.234375 
Q 38.96875 64.796875 32.078125 64.796875 
z
M 9.8125 72.90625 
L 32.078125 72.90625 
Q 44.34375 72.90625 50.609375 67.359375 
Q 56.890625 61.8125 56.890625 51.125 
Q 56.890625 40.328125 50.609375 34.8125 
Q 44.34375 29.296875 32.078125 29.296875 
L 19.671875 29.296875 
L 19.671875 0 
L 9.8125 0 
z
" id="DejaVuSans-80"/>
      <path d="M 41.109375 46.296875 
Q 39.59375 47.171875 37.8125 47.578125 
Q 36.03125 48 33.890625 48 
Q 26.265625 48 22.1875 43.046875 
Q 18.109375 38.09375 18.109375 28.8125 
L 18.109375 0 
L 9.078125 0 
L 9.078125 54.6875 
L 18.109375 54.6875 
L 18.109375 46.1875 
Q 20.953125 51.171875 25.484375 53.578125 
Q 30.03125 56 36.53125 56 
Q 37.453125 56 38.578125 55.875 
Q 39.703125 55.765625 41.0625 55.515625 
z
" id="DejaVuSans-114"/>
      <path d="M 56.203125 29.59375 
L 56.203125 25.203125 
L 14.890625 25.203125 
Q 15.484375 15.921875 20.484375 11.0625 
Q 25.484375 6.203125 34.421875 6.203125 
Q 39.59375 6.203125 44.453125 7.46875 
Q 49.3125 8.734375 54.109375 11.28125 
L 54.109375 2.78125 
Q 49.265625 0.734375 44.1875 -0.34375 
Q 39.109375 -1.421875 33.890625 -1.421875 
Q 20.796875 -1.421875 13.15625 6.1875 
Q 5.515625 13.8125 5.515625 26.8125 
Q 5.515625 40.234375 12.765625 48.109375 
Q 20.015625 56 32.328125 56 
Q 43.359375 56 49.78125 48.890625 
Q 56.203125 41.796875 56.203125 29.59375 
z
M 47.21875 32.234375 
Q 47.125 39.59375 43.09375 43.984375 
Q 39.0625 48.390625 32.421875 48.390625 
Q 24.90625 48.390625 20.390625 44.140625 
Q 15.875 39.890625 15.1875 32.171875 
z
" id="DejaVuSans-101"/>
      <path d="M 2.984375 54.6875 
L 12.5 54.6875 
L 29.59375 8.796875 
L 46.6875 54.6875 
L 56.203125 54.6875 
L 35.6875 0 
L 23.484375 0 
z
" id="DejaVuSans-118"/>
      <path d="M 9.421875 54.6875 
L 18.40625 54.6875 
L 18.40625 0 
L 9.421875 0 
z
M 9.421875 75.984375 
L 18.40625 75.984375 
L 18.40625 64.59375 
L 9.421875 64.59375 
z
" id="DejaVuSans-105"/>
      <path d="M 30.609375 48.390625 
Q 23.390625 48.390625 19.1875 42.75 
Q 14.984375 37.109375 14.984375 27.296875 
Q 14.984375 17.484375 19.15625 11.84375 
Q 23.34375 6.203125 30.609375 6.203125 
Q 37.796875 6.203125 41.984375 11.859375 
Q 46.1875 17.53125 46.1875 27.296875 
Q 46.1875 37.015625 41.984375 42.703125 
Q 37.796875 48.390625 30.609375 48.390625 
z
M 30.609375 56 
Q 42.328125 56 49.015625 48.375 
Q 55.71875 40.765625 55.71875 27.296875 
Q 55.71875 13.875 49.015625 6.21875 
Q 42.328125 -1.421875 30.609375 -1.421875 
Q 18.84375 -1.421875 12.171875 6.21875 
Q 5.515625 13.875 5.515625 27.296875 
Q 5.515625 40.765625 12.171875 48.375 
Q 18.84375 56 30.609375 56 
z
" id="DejaVuSans-111"/>
      <path d="M 8.5 21.578125 
L 8.5 54.6875 
L 17.484375 54.6875 
L 17.484375 21.921875 
Q 17.484375 14.15625 20.5 10.265625 
Q 23.53125 6.390625 29.59375 6.390625 
Q 36.859375 6.390625 41.078125 11.03125 
Q 45.3125 15.671875 45.3125 23.6875 
L 45.3125 54.6875 
L 54.296875 54.6875 
L 54.296875 0 
L 45.3125 0 
L 45.3125 8.40625 
Q 42.046875 3.421875 37.71875 1 
Q 33.40625 -1.421875 27.6875 -1.421875 
Q 18.265625 -1.421875 13.375 4.4375 
Q 8.5 10.296875 8.5 21.578125 
z
M 31.109375 56 
z
" id="DejaVuSans-117"/>
      <path d="M 44.28125 53.078125 
L 44.28125 44.578125 
Q 40.484375 46.53125 36.375 47.5 
Q 32.28125 48.484375 27.875 48.484375 
Q 21.1875 48.484375 17.84375 46.4375 
Q 14.5 44.390625 14.5 40.28125 
Q 14.5 37.15625 16.890625 35.375 
Q 19.28125 33.59375 26.515625 31.984375 
L 29.59375 31.296875 
Q 39.15625 29.25 43.1875 25.515625 
Q 47.21875 21.78125 47.21875 15.09375 
Q 47.21875 7.46875 41.1875 3.015625 
Q 35.15625 -1.421875 24.609375 -1.421875 
Q 20.21875 -1.421875 15.453125 -0.5625 
Q 10.6875 0.296875 5.421875 2 
L 5.421875 11.28125 
Q 10.40625 8.6875 15.234375 7.390625 
Q 20.0625 6.109375 24.8125 6.109375 
Q 31.15625 6.109375 34.5625 8.28125 
Q 37.984375 10.453125 37.984375 14.40625 
Q 37.984375 18.0625 35.515625 20.015625 
Q 33.0625 21.96875 24.703125 23.78125 
L 21.578125 24.515625 
Q 13.234375 26.265625 9.515625 29.90625 
Q 5.8125 33.546875 5.8125 39.890625 
Q 5.8125 47.609375 11.28125 51.796875 
Q 16.75 56 26.8125 56 
Q 31.78125 56 36.171875 55.265625 
Q 40.578125 54.546875 44.28125 53.078125 
z
" id="DejaVuSans-115"/>
      <path id="DejaVuSans-32"/>
      <path d="M -0.296875 72.90625 
L 61.375 72.90625 
L 61.375 64.59375 
L 35.5 64.59375 
L 35.5 0 
L 25.59375 0 
L 25.59375 64.59375 
L -0.296875 64.59375 
z
" id="DejaVuSans-84"/>
      <path d="M 52 44.1875 
Q 55.375 50.25 60.0625 53.125 
Q 64.75 56 71.09375 56 
Q 79.640625 56 84.28125 50.015625 
Q 88.921875 44.046875 88.921875 33.015625 
L 88.921875 0 
L 79.890625 0 
L 79.890625 32.71875 
Q 79.890625 40.578125 77.09375 44.375 
Q 74.3125 48.1875 68.609375 48.1875 
Q 61.625 48.1875 57.5625 43.546875 
Q 53.515625 38.921875 53.515625 30.90625 
L 53.515625 0 
L 44.484375 0 
L 44.484375 32.71875 
Q 44.484375 40.625 41.703125 44.40625 
Q 38.921875 48.1875 33.109375 48.1875 
Q 26.21875 48.1875 22.15625 43.53125 
Q 18.109375 38.875 18.109375 30.90625 
L 18.109375 0 
L 9.078125 0 
L 9.078125 54.6875 
L 18.109375 54.6875 
L 18.109375 46.1875 
Q 21.1875 51.21875 25.484375 53.609375 
Q 29.78125 56 35.6875 56 
Q 41.65625 56 45.828125 52.96875 
Q 50 49.953125 52 44.1875 
z
" id="DejaVuSans-109"/>
      <path d="M 64.40625 67.28125 
L 64.40625 56.890625 
Q 59.421875 61.53125 53.78125 63.8125 
Q 48.140625 66.109375 41.796875 66.109375 
Q 29.296875 66.109375 22.65625 58.46875 
Q 16.015625 50.828125 16.015625 36.375 
Q 16.015625 21.96875 22.65625 14.328125 
Q 29.296875 6.6875 41.796875 6.6875 
Q 48.140625 6.6875 53.78125 8.984375 
Q 59.421875 11.28125 64.40625 15.921875 
L 64.40625 5.609375 
Q 59.234375 2.09375 53.4375 0.328125 
Q 47.65625 -1.421875 41.21875 -1.421875 
Q 24.65625 -1.421875 15.125 8.703125 
Q 5.609375 18.84375 5.609375 36.375 
Q 5.609375 53.953125 15.125 64.078125 
Q 24.65625 74.21875 41.21875 74.21875 
Q 47.75 74.21875 53.53125 72.484375 
Q 59.328125 70.75 64.40625 67.28125 
z
" id="DejaVuSans-67"/>
      <path d="M 54.890625 33.015625 
L 54.890625 0 
L 45.90625 0 
L 45.90625 32.71875 
Q 45.90625 40.484375 42.875 44.328125 
Q 39.84375 48.1875 33.796875 48.1875 
Q 26.515625 48.1875 22.3125 43.546875 
Q 18.109375 38.921875 18.109375 30.90625 
L 18.109375 0 
L 9.078125 0 
L 9.078125 54.6875 
L 18.109375 54.6875 
L 18.109375 46.1875 
Q 21.34375 51.125 25.703125 53.5625 
Q 30.078125 56 35.796875 56 
Q 45.21875 56 50.046875 50.171875 
Q 54.890625 44.34375 54.890625 33.015625 
z
" id="DejaVuSans-110"/>
      <path d="M 18.3125 70.21875 
L 18.3125 54.6875 
L 36.8125 54.6875 
L 36.8125 47.703125 
L 18.3125 47.703125 
L 18.3125 18.015625 
Q 18.3125 11.328125 20.140625 9.421875 
Q 21.96875 7.515625 27.59375 7.515625 
L 36.8125 7.515625 
L 36.8125 0 
L 27.59375 0 
Q 17.1875 0 13.234375 3.875 
Q 9.28125 7.765625 9.28125 18.015625 
L 9.28125 47.703125 
L 2.6875 47.703125 
L 2.6875 54.6875 
L 9.28125 54.6875 
L 9.28125 70.21875 
z
" id="DejaVuSans-116"/>
     </defs>
     <g transform="translate(168.03375 334.7315)scale(0.16 -0.16)">
      <use xlink:href="#DejaVuSans-80"/>
      <use x="60.287109" xlink:href="#DejaVuSans-114"/>
      <use x="101.369141" xlink:href="#DejaVuSans-101"/>
      <use x="162.892578" xlink:href="#DejaVuSans-118"/>
      <use x="222.072266" xlink:href="#DejaVuSans-105"/>
      <use x="249.855469" xlink:href="#DejaVuSans-111"/>
      <use x="311.037109" xlink:href="#DejaVuSans-117"/>
      <use x="374.416016" xlink:href="#DejaVuSans-115"/>
      <use x="426.515625" xlink:href="#DejaVuSans-32"/>
      <use x="458.302734" xlink:href="#DejaVuSans-84"/>
      <use x="519.152344" xlink:href="#DejaVuSans-117"/>
      <use x="582.53125" xlink:href="#DejaVuSans-109"/>
      <use x="679.943359" xlink:href="#DejaVuSans-111"/>
      <use x="741.125" xlink:href="#DejaVuSans-114"/>
      <use x="782.238281" xlink:href="#DejaVuSans-32"/>
      <use x="814.025391" xlink:href="#DejaVuSans-45"/>
      <use x="850.109375" xlink:href="#DejaVuSans-32"/>
      <use x="881.896484" xlink:href="#DejaVuSans-67"/>
      <use x="951.720703" xlink:href="#DejaVuSans-117"/>
      <use x="1015.099609" xlink:href="#DejaVuSans-114"/>
      <use x="1056.197266" xlink:href="#DejaVuSans-114"/>
      <use x="1097.279297" xlink:href="#DejaVuSans-101"/>
      <use x="1158.802734" xlink:href="#DejaVuSans-110"/>
      <use x="1222.181641" xlink:href="#DejaVuSans-116"/>
      <use x="1261.390625" xlink:href="#DejaVuSans-32"/>
      <use x="1293.177734" xlink:href="#DejaVuSans-84"/>
      <use x="1354.027344" xlink:href="#DejaVuSans-117"/>
      <use x="1417.40625" xlink:href="#DejaVuSans-109"/>
      <use x="1514.818359" xlink:href="#DejaVuSans-111"/>
      <use x="1576" xlink:href="#DejaVuSans-114"/>
     </g>
     <!--  (morph units) -->
     <defs>
      <path d="M 31 75.875 
Q 24.46875 64.65625 21.28125 53.65625 
Q 18.109375 42.671875 18.109375 31.390625 
Q 18.109375 20.125 21.3125 9.0625 
Q 24.515625 -2 31 -13.1875 
L 23.1875 -13.1875 
Q 15.875 -1.703125 12.234375 9.375 
Q 8.59375 20.453125 8.59375 31.390625 
Q 8.59375 42.28125 12.203125 53.3125 
Q 15.828125 64.359375 23.1875 75.875 
z
" id="DejaVuSans-40"/>
      <path d="M 18.109375 8.203125 
L 18.109375 -20.796875 
L 9.078125 -20.796875 
L 9.078125 54.6875 
L 18.109375 54.6875 
L 18.109375 46.390625 
Q 20.953125 51.265625 25.265625 53.625 
Q 29.59375 56 35.59375 56 
Q 45.5625 56 51.78125 48.09375 
Q 58.015625 40.1875 58.015625 27.296875 
Q 58.015625 14.40625 51.78125 6.484375 
Q 45.5625 -1.421875 35.59375 -1.421875 
Q 29.59375 -1.421875 25.265625 0.953125 
Q 20.953125 3.328125 18.109375 8.203125 
z
M 48.6875 27.296875 
Q 48.6875 37.203125 44.609375 42.84375 
Q 40.53125 48.484375 33.40625 48.484375 
Q 26.265625 48.484375 22.1875 42.84375 
Q 18.109375 37.203125 18.109375 27.296875 
Q 18.109375 17.390625 22.1875 11.75 
Q 26.265625 6.109375 33.40625 6.109375 
Q 40.53125 6.109375 44.609375 11.75 
Q 48.6875 17.390625 48.6875 27.296875 
z
" id="DejaVuSans-112"/>
      <path d="M 54.890625 33.015625 
L 54.890625 0 
L 45.90625 0 
L 45.90625 32.71875 
Q 45.90625 40.484375 42.875 44.328125 
Q 39.84375 48.1875 33.796875 48.1875 
Q 26.515625 48.1875 22.3125 43.546875 
Q 18.109375 38.921875 18.109375 30.90625 
L 18.109375 0 
L 9.078125 0 
L 9.078125 75.984375 
L 18.109375 75.984375 
L 18.109375 46.1875 
Q 21.34375 51.125 25.703125 53.5625 
Q 30.078125 56 35.796875 56 
Q 45.21875 56 50.046875 50.171875 
Q 54.890625 44.34375 54.890625 33.015625 
z
" id="DejaVuSans-104"/>
      <path d="M 8.015625 75.875 
L 15.828125 75.875 
Q 23.140625 64.359375 26.78125 53.3125 
Q 30.421875 42.28125 30.421875 31.390625 
Q 30.421875 20.453125 26.78125 9.375 
Q 23.140625 -1.703125 15.828125 -13.1875 
L 8.015625 -13.1875 
Q 14.5 -2 17.703125 9.0625 
Q 20.90625 20.125 20.90625 31.390625 
Q 20.90625 42.671875 17.703125 53.65625 
Q 14.5 64.65625 8.015625 75.875 
z
" id="DejaVuSans-41"/>
     </defs>
     <g transform="translate(240.27875 352.648)scale(0.16 -0.16)">
      <use xlink:href="#DejaVuSans-32"/>
      <use x="31.787109" xlink:href="#DejaVuSans-40"/>
      <use x="70.800781" xlink:href="#DejaVuSans-109"/>
      <use x="168.212891" xlink:href="#DejaVuSans-111"/>
      <use x="229.394531" xlink:href="#DejaVuSans-114"/>
      <use x="270.507812" xlink:href="#DejaVuSans-112"/>
      <use x="333.984375" xlink:href="#DejaVuSans-104"/>
      <use x="397.363281" xlink:href="#DejaVuSans-32"/>
      <use x="429.150391" xlink:href="#DejaVuSans-117"/>
      <use x="492.529297" xlink:href="#DejaVuSans-110"/>
      <use x="555.908203" xlink:href="#DejaVuSans-105"/>
      <use x="583.691406" xlink:href="#DejaVuSans-116"/>
      <use x="622.900391" xlink:href="#DejaVuSans-115"/>
      <use x="675" xlink:href="#DejaVuSans-41"/>
     </g>
    </g>
   </g>
   <g id="matplotlib.axis_2">
    <g id="ytick_1">
     <g id="line2d_8">
      <defs>
       <path d="M 0 0 
L 6 0 
" id="m013f687cd3" style="stroke:#000000;stroke-width:2;"/>
      </defs>
      <g>
       <use style="stroke:#000000;stroke-width:2;" x="157.8975" xlink:href="#m013f687cd3" y="299.589"/>
      </g>
     </g>
     <g id="text_9">
      <!-- −3 -->
      <defs>
       <path d="M 10.59375 35.5 
L 73.1875 35.5 
L 73.1875 27.203125 
L 10.59375 27.203125 
z
" id="DejaVuSans-8722"/>
      </defs>
      <g transform="translate(130.81 305.66775)scale(0.16 -0.16)">
       <use xlink:href="#DejaVuSans-8722"/>
       <use x="83.789062" xlink:href="#DejaVuSans-51"/>
      </g>
     </g>
    </g>
    <g id="ytick_2">
     <g id="line2d_9">
      <g>
       <use style="stroke:#000000;stroke-width:2;" x="157.8975" xlink:href="#m013f687cd3" y="254.289"/>
      </g>
     </g>
     <g id="text_10">
      <!-- −2 -->
      <g transform="translate(130.81 260.36775)scale(0.16 -0.16)">
       <use xlink:href="#DejaVuSans-8722"/>
       <use x="83.789062" xlink:href="#DejaVuSans-50"/>
      </g>
     </g>
    </g>
    <g id="ytick_3">
     <g id="line2d_10">
      <g>
       <use style="stroke:#000000;stroke-width:2;" x="157.8975" xlink:href="#m013f687cd3" y="208.989"/>
      </g>
     </g>
     <g id="text_11">
      <!-- −1 -->
      <defs>
       <path d="M 12.40625 8.296875 
L 28.515625 8.296875 
L 28.515625 63.921875 
L 10.984375 60.40625 
L 10.984375 69.390625 
L 28.421875 72.90625 
L 38.28125 72.90625 
L 38.28125 8.296875 
L 54.390625 8.296875 
L 54.390625 0 
L 12.40625 0 
z
" id="DejaVuSans-49"/>
      </defs>
      <g transform="translate(130.81 215.06775)scale(0.16 -0.16)">
       <use xlink:href="#DejaVuSans-8722"/>
       <use x="83.789062" xlink:href="#DejaVuSans-49"/>
      </g>
     </g>
    </g>
    <g id="ytick_4">
     <g id="line2d_11">
      <g>
       <use style="stroke:#000000;stroke-width:2;" x="157.8975" xlink:href="#m013f687cd3" y="163.689"/>
      </g>
     </g>
     <g id="text_12">
      <!-- 0 -->
      <g transform="translate(144.2175 169.76775)scale(0.16 -0.16)">
       <use xlink:href="#DejaVuSans-48"/>
      </g>
     </g>
    </g>
    <g id="ytick_5">
     <g id="line2d_12">
      <g>
       <use style="stroke:#000000;stroke-width:2;" x="157.8975" xlink:href="#m013f687cd3" y="118.389"/>
      </g>
     </g>
     <g id="text_13">
      <!-- 1 -->
      <g transform="translate(144.2175 124.46775)scale(0.16 -0.16)">
       <use xlink:href="#DejaVuSans-49"/>
      </g>
     </g>
    </g>
    <g id="ytick_6">
     <g id="line2d_13">
      <g>
       <use style="stroke:#000000;stroke-width:2;" x="157.8975" xlink:href="#m013f687cd3" y="73.089"/>
      </g>
     </g>
     <g id="text_14">
      <!-- 2 -->
      <g transform="translate(144.2175 79.16775)scale(0.16 -0.16)">
       <use xlink:href="#DejaVuSans-50"/>
      </g>
     </g>
    </g>
    <g id="ytick_7">
     <g id="line2d_14">
      <g>
       <use style="stroke:#000000;stroke-width:2;" x="157.8975" xlink:href="#m013f687cd3" y="27.789"/>
      </g>
     </g>
     <g id="text_15">
      <!-- 3 -->
      <g transform="translate(144.2175 33.86775)scale(0.16 -0.16)">
       <use xlink:href="#DejaVuSans-51"/>
      </g>
     </g>
    </g>
    <g id="text_16">
     <!-- Response Error                        -->
     <defs>
      <path d="M 44.390625 34.1875 
Q 47.5625 33.109375 50.5625 29.59375 
Q 53.5625 26.078125 56.59375 19.921875 
L 66.609375 0 
L 56 0 
L 46.6875 18.703125 
Q 43.0625 26.03125 39.671875 28.421875 
Q 36.28125 30.8125 30.421875 30.8125 
L 19.671875 30.8125 
L 19.671875 0 
L 9.8125 0 
L 9.8125 72.90625 
L 32.078125 72.90625 
Q 44.578125 72.90625 50.734375 67.671875 
Q 56.890625 62.453125 56.890625 51.90625 
Q 56.890625 45.015625 53.6875 40.46875 
Q 50.484375 35.9375 44.390625 34.1875 
z
M 19.671875 64.796875 
L 19.671875 38.921875 
L 32.078125 38.921875 
Q 39.203125 38.921875 42.84375 42.21875 
Q 46.484375 45.515625 46.484375 51.90625 
Q 46.484375 58.296875 42.84375 61.546875 
Q 39.203125 64.796875 32.078125 64.796875 
z
" id="DejaVuSans-82"/>
      <path d="M 9.8125 72.90625 
L 55.90625 72.90625 
L 55.90625 64.59375 
L 19.671875 64.59375 
L 19.671875 43.015625 
L 54.390625 43.015625 
L 54.390625 34.71875 
L 19.671875 34.71875 
L 19.671875 8.296875 
L 56.78125 8.296875 
L 56.78125 0 
L 9.8125 0 
z
" id="DejaVuSans-69"/>
     </defs>
     <g transform="translate(7.2 106.612)scale(0.16 -0.16)">
      <use xlink:href="#DejaVuSans-82"/>
      <use x="69.419922" xlink:href="#DejaVuSans-101"/>
      <use x="130.943359" xlink:href="#DejaVuSans-115"/>
      <use x="183.042969" xlink:href="#DejaVuSans-112"/>
      <use x="246.519531" xlink:href="#DejaVuSans-111"/>
      <use x="307.701172" xlink:href="#DejaVuSans-110"/>
      <use x="371.080078" xlink:href="#DejaVuSans-115"/>
      <use x="423.179688" xlink:href="#DejaVuSans-101"/>
      <use x="484.703125" xlink:href="#DejaVuSans-32"/>
      <use x="516.490234" xlink:href="#DejaVuSans-69"/>
      <use x="579.673828" xlink:href="#DejaVuSans-114"/>
      <use x="620.771484" xlink:href="#DejaVuSans-114"/>
      <use x="661.853516" xlink:href="#DejaVuSans-111"/>
      <use x="723.035156" xlink:href="#DejaVuSans-114"/>
      <use x="764.148438" xlink:href="#DejaVuSans-32"/>
      <use x="795.935547" xlink:href="#DejaVuSans-32"/>
      <use x="827.722656" xlink:href="#DejaVuSans-32"/>
      <use x="859.509766" xlink:href="#DejaVuSans-32"/>
      <use x="891.296875" xlink:href="#DejaVuSans-32"/>
      <use x="923.083984" xlink:href="#DejaVuSans-32"/>
      <use x="954.871094" xlink:href="#DejaVuSans-32"/>
      <use x="986.658203" xlink:href="#DejaVuSans-32"/>
      <use x="1018.445312" xlink:href="#DejaVuSans-32"/>
      <use x="1050.232422" xlink:href="#DejaVuSans-32"/>
      <use x="1082.019531" xlink:href="#DejaVuSans-32"/>
      <use x="1113.806641" xlink:href="#DejaVuSans-32"/>
      <use x="1145.59375" xlink:href="#DejaVuSans-32"/>
      <use x="1177.380859" xlink:href="#DejaVuSans-32"/>
      <use x="1209.167969" xlink:href="#DejaVuSans-32"/>
      <use x="1240.955078" xlink:href="#DejaVuSans-32"/>
      <use x="1272.742188" xlink:href="#DejaVuSans-32"/>
      <use x="1304.529297" xlink:href="#DejaVuSans-32"/>
      <use x="1336.316406" xlink:href="#DejaVuSans-32"/>
      <use x="1368.103516" xlink:href="#DejaVuSans-32"/>
      <use x="1399.890625" xlink:href="#DejaVuSans-32"/>
      <use x="1431.677734" xlink:href="#DejaVuSans-32"/>
      <use x="1463.464844" xlink:href="#DejaVuSans-32"/>
     </g>
     <!-- on                        -->
     <g transform="translate(58.3675 124.5285)scale(0.16 -0.16)">
      <use xlink:href="#DejaVuSans-111"/>
      <use x="61.181641" xlink:href="#DejaVuSans-110"/>
      <use x="124.560547" xlink:href="#DejaVuSans-32"/>
      <use x="156.347656" xlink:href="#DejaVuSans-32"/>
      <use x="188.134766" xlink:href="#DejaVuSans-32"/>
      <use x="219.921875" xlink:href="#DejaVuSans-32"/>
      <use x="251.708984" xlink:href="#DejaVuSans-32"/>
      <use x="283.496094" xlink:href="#DejaVuSans-32"/>
      <use x="315.283203" xlink:href="#DejaVuSans-32"/>
      <use x="347.070312" xlink:href="#DejaVuSans-32"/>
      <use x="378.857422" xlink:href="#DejaVuSans-32"/>
      <use x="410.644531" xlink:href="#DejaVuSans-32"/>
      <use x="442.431641" xlink:href="#DejaVuSans-32"/>
      <use x="474.21875" xlink:href="#DejaVuSans-32"/>
      <use x="506.005859" xlink:href="#DejaVuSans-32"/>
      <use x="537.792969" xlink:href="#DejaVuSans-32"/>
      <use x="569.580078" xlink:href="#DejaVuSans-32"/>
      <use x="601.367188" xlink:href="#DejaVuSans-32"/>
      <use x="633.154297" xlink:href="#DejaVuSans-32"/>
      <use x="664.941406" xlink:href="#DejaVuSans-32"/>
      <use x="696.728516" xlink:href="#DejaVuSans-32"/>
      <use x="728.515625" xlink:href="#DejaVuSans-32"/>
      <use x="760.302734" xlink:href="#DejaVuSans-32"/>
      <use x="792.089844" xlink:href="#DejaVuSans-32"/>
      <use x="823.876953" xlink:href="#DejaVuSans-32"/>
     </g>
     <!-- Current Trial                        -->
     <defs>
      <path d="M 34.28125 27.484375 
Q 23.390625 27.484375 19.1875 25 
Q 14.984375 22.515625 14.984375 16.5 
Q 14.984375 11.71875 18.140625 8.90625 
Q 21.296875 6.109375 26.703125 6.109375 
Q 34.1875 6.109375 38.703125 11.40625 
Q 43.21875 16.703125 43.21875 25.484375 
L 43.21875 27.484375 
z
M 52.203125 31.203125 
L 52.203125 0 
L 43.21875 0 
L 43.21875 8.296875 
Q 40.140625 3.328125 35.546875 0.953125 
Q 30.953125 -1.421875 24.3125 -1.421875 
Q 15.921875 -1.421875 10.953125 3.296875 
Q 6 8.015625 6 15.921875 
Q 6 25.140625 12.171875 29.828125 
Q 18.359375 34.515625 30.609375 34.515625 
L 43.21875 34.515625 
L 43.21875 35.40625 
Q 43.21875 41.609375 39.140625 45 
Q 35.0625 48.390625 27.6875 48.390625 
Q 23 48.390625 18.546875 47.265625 
Q 14.109375 46.140625 10.015625 43.890625 
L 10.015625 52.203125 
Q 14.9375 54.109375 19.578125 55.046875 
Q 24.21875 56 28.609375 56 
Q 40.484375 56 46.34375 49.84375 
Q 52.203125 43.703125 52.203125 31.203125 
z
" id="DejaVuSans-97"/>
      <path d="M 9.421875 75.984375 
L 18.40625 75.984375 
L 18.40625 0 
L 9.421875 0 
z
" id="DejaVuSans-108"/>
     </defs>
     <g transform="translate(17.92625 142.445)scale(0.16 -0.16)">
      <use xlink:href="#DejaVuSans-67"/>
      <use x="69.824219" xlink:href="#DejaVuSans-117"/>
      <use x="133.203125" xlink:href="#DejaVuSans-114"/>
      <use x="174.300781" xlink:href="#DejaVuSans-114"/>
      <use x="215.382812" xlink:href="#DejaVuSans-101"/>
      <use x="276.90625" xlink:href="#DejaVuSans-110"/>
      <use x="340.285156" xlink:href="#DejaVuSans-116"/>
      <use x="379.494141" xlink:href="#DejaVuSans-32"/>
      <use x="411.28125" xlink:href="#DejaVuSans-84"/>
      <use x="472.146484" xlink:href="#DejaVuSans-114"/>
      <use x="513.259766" xlink:href="#DejaVuSans-105"/>
      <use x="541.042969" xlink:href="#DejaVuSans-97"/>
      <use x="602.322266" xlink:href="#DejaVuSans-108"/>
      <use x="630.105469" xlink:href="#DejaVuSans-32"/>
      <use x="661.892578" xlink:href="#DejaVuSans-32"/>
      <use x="693.679688" xlink:href="#DejaVuSans-32"/>
      <use x="725.466797" xlink:href="#DejaVuSans-32"/>
      <use x="757.253906" xlink:href="#DejaVuSans-32"/>
      <use x="789.041016" xlink:href="#DejaVuSans-32"/>
      <use x="820.828125" xlink:href="#DejaVuSans-32"/>
      <use x="852.615234" xlink:href="#DejaVuSans-32"/>
      <use x="884.402344" xlink:href="#DejaVuSans-32"/>
      <use x="916.189453" xlink:href="#DejaVuSans-32"/>
      <use x="947.976562" xlink:href="#DejaVuSans-32"/>
      <use x="979.763672" xlink:href="#DejaVuSans-32"/>
      <use x="1011.550781" xlink:href="#DejaVuSans-32"/>
      <use x="1043.337891" xlink:href="#DejaVuSans-32"/>
      <use x="1075.125" xlink:href="#DejaVuSans-32"/>
      <use x="1106.912109" xlink:href="#DejaVuSans-32"/>
      <use x="1138.699219" xlink:href="#DejaVuSans-32"/>
      <use x="1170.486328" xlink:href="#DejaVuSans-32"/>
      <use x="1202.273438" xlink:href="#DejaVuSans-32"/>
      <use x="1234.060547" xlink:href="#DejaVuSans-32"/>
      <use x="1265.847656" xlink:href="#DejaVuSans-32"/>
      <use x="1297.634766" xlink:href="#DejaVuSans-32"/>
      <use x="1329.421875" xlink:href="#DejaVuSans-32"/>
     </g>
     <!-- (morph units)                        -->
     <g transform="translate(13.75625 160.3615)scale(0.16 -0.16)">
      <use xlink:href="#DejaVuSans-40"/>
      <use x="39.013672" xlink:href="#DejaVuSans-109"/>
      <use x="136.425781" xlink:href="#DejaVuSans-111"/>
      <use x="197.607422" xlink:href="#DejaVuSans-114"/>
      <use x="238.720703" xlink:href="#DejaVuSans-112"/>
      <use x="302.197266" xlink:href="#DejaVuSans-104"/>
      <use x="365.576172" xlink:href="#DejaVuSans-32"/>
      <use x="397.363281" xlink:href="#DejaVuSans-117"/>
      <use x="460.742188" xlink:href="#DejaVuSans-110"/>
      <use x="524.121094" xlink:href="#DejaVuSans-105"/>
      <use x="551.904297" xlink:href="#DejaVuSans-116"/>
      <use x="591.113281" xlink:href="#DejaVuSans-115"/>
      <use x="643.212891" xlink:href="#DejaVuSans-41"/>
      <use x="682.226562" xlink:href="#DejaVuSans-32"/>
      <use x="714.013672" xlink:href="#DejaVuSans-32"/>
      <use x="745.800781" xlink:href="#DejaVuSans-32"/>
      <use x="777.587891" xlink:href="#DejaVuSans-32"/>
      <use x="809.375" xlink:href="#DejaVuSans-32"/>
      <use x="841.162109" xlink:href="#DejaVuSans-32"/>
      <use x="872.949219" xlink:href="#DejaVuSans-32"/>
      <use x="904.736328" xlink:href="#DejaVuSans-32"/>
      <use x="936.523438" xlink:href="#DejaVuSans-32"/>
      <use x="968.310547" xlink:href="#DejaVuSans-32"/>
      <use x="1000.097656" xlink:href="#DejaVuSans-32"/>
      <use x="1031.884766" xlink:href="#DejaVuSans-32"/>
      <use x="1063.671875" xlink:href="#DejaVuSans-32"/>
      <use x="1095.458984" xlink:href="#DejaVuSans-32"/>
      <use x="1127.246094" xlink:href="#DejaVuSans-32"/>
      <use x="1159.033203" xlink:href="#DejaVuSans-32"/>
      <use x="1190.820312" xlink:href="#DejaVuSans-32"/>
      <use x="1222.607422" xlink:href="#DejaVuSans-32"/>
      <use x="1254.394531" xlink:href="#DejaVuSans-32"/>
      <use x="1286.181641" xlink:href="#DejaVuSans-32"/>
      <use x="1317.96875" xlink:href="#DejaVuSans-32"/>
      <use x="1349.755859" xlink:href="#DejaVuSans-32"/>
      <use x="1381.542969" xlink:href="#DejaVuSans-32"/>
     </g>
    </g>
   </g>
   <g id="line2d_15">
    <path clip-path="url(#pbb12bfc7d0)" d="M 157.8975 165.708247 
L 159.808459 166.293905 
L 161.719418 169.358046 
L 163.630377 179.959862 
L 165.541336 180.135243 
L 167.452295 187.259876 
L 169.363253 184.46856 
L 171.274212 186.540763 
L 173.185171 195.798772 
L 175.09613 207.006937 
L 177.007089 210.546732 
L 178.918048 206.619177 
L 180.829007 199.011369 
L 182.739966 203.380587 
L 184.650925 205.945237 
L 186.561884 208.055737 
L 188.472842 205.880507 
L 190.383801 208.155415 
L 192.29476 204.937252 
L 194.205719 204.374692 
L 196.116678 214.188177 
L 198.027637 217.142817 
L 199.938596 217.492164 
L 201.849555 211.473536 
L 203.760514 213.347569 
L 205.671473 217.664425 
L 207.582432 216.363439 
L 211.404349 224.4195 
L 213.315308 219.187485 
L 215.226267 223.858013 
L 217.137226 219.174138 
L 219.048185 223.050388 
L 220.959144 223.403208 
L 222.870103 220.308163 
L 226.692021 234.193178 
L 228.602979 239.599734 
L 232.424897 223.874837 
L 234.335856 226.366659 
L 236.246815 222.427162 
L 238.157774 221.48364 
L 240.068733 225.954775 
L 241.979692 217.989743 
L 243.890651 224.433979 
L 245.80161 225.467064 
L 247.712568 234.606896 
L 249.623527 235.166437 
L 251.534486 233.2973 
L 253.445445 238.168578 
L 257.267363 239.859547 
L 259.178322 246.086887 
L 261.089281 248.500502 
L 263.00024 244.232192 
L 264.911199 241.592263 
L 266.822158 247.492751 
L 268.733116 250.511451 
L 270.644075 243.046087 
L 272.555034 250.525762 
L 274.465993 232.208814 
L 276.376952 236.336016 
L 280.19887 221.676431 
L 282.109829 212.998629 
L 284.020788 205.696196 
L 285.931747 195.615753 
L 287.842705 188.650946 
L 289.753664 193.459608 
L 291.664623 190.12147 
L 293.575582 190.027533 
L 295.486541 181.228491 
L 297.3975 183.403697 
L 299.308459 179.569318 
L 301.219418 177.819826 
L 303.130377 164.910757 
L 305.041336 166.076349 
L 306.952295 153.242379 
L 308.863253 145.099899 
L 310.774212 133.203515 
L 312.685171 132.187875 
L 314.59613 119.51612 
L 316.507089 113.413378 
L 318.418048 112.06586 
L 320.329007 107.109534 
L 322.239966 106.667767 
L 324.150925 108.213402 
L 326.061884 110.359544 
L 327.972842 112.689342 
L 329.883801 113.172107 
L 331.79476 106.453423 
L 333.705719 106.508024 
L 335.616678 100.64244 
L 337.527637 104.580997 
L 339.438596 107.41173 
L 341.349555 112.87574 
L 343.260514 112.14093 
L 345.171473 109.874491 
L 347.082432 106.309586 
L 348.99339 100.163361 
L 350.904349 104.094468 
L 352.815308 87.412459 
L 354.726267 87.87936 
L 356.637226 87.936817 
L 358.548185 78.569647 
L 360.459144 82.518231 
L 362.370103 85.037573 
L 364.281062 76.512707 
L 366.192021 86.872546 
L 368.102979 93.458008 
L 370.013938 97.144004 
L 371.924897 87.599348 
L 373.835856 92.525291 
L 375.746815 92.918568 
L 377.657774 85.202555 
L 379.568733 93.914164 
L 381.479692 92.856839 
L 383.390651 93.506896 
L 385.30161 84.742951 
L 387.212568 80.215354 
L 389.123527 71.101332 
L 391.034486 77.560879 
L 392.945445 86.797641 
L 394.856404 89.342028 
L 396.767363 83.720428 
L 398.678322 87.683056 
L 400.589281 88.330331 
L 402.50024 102.054994 
L 404.411199 106.982509 
L 406.322158 114.220528 
L 408.233116 114.183118 
L 410.144075 108.980973 
L 412.055034 124.440529 
L 413.965993 138.433246 
L 415.876952 142.196566 
L 417.787911 143.479268 
L 419.69887 147.006763 
L 421.609829 146.206951 
L 423.520788 150.158257 
L 425.431747 148.009145 
L 427.342705 145.305346 
L 429.253664 143.542026 
L 431.164623 140.696534 
L 433.075582 143.863643 
L 434.986541 147.989222 
L 436.8975 165.708247 
L 436.8975 165.708247 
" style="fill:none;stroke:#4169e1;stroke-linecap:square;stroke-width:3;"/>
   </g>
   <g id="line2d_16">
    <path clip-path="url(#pbb12bfc7d0)" d="M 263.00024 290.035892 
L 264.911199 284.151012 
L 266.822158 278.266131 
L 268.733116 272.381251 
L 270.644075 266.496371 
L 272.555034 260.61149 
L 274.465993 254.72661 
L 276.376952 248.84173 
L 278.287911 242.95685 
L 280.19887 237.071969 
L 282.109829 231.187089 
L 284.020788 225.302209 
L 285.931747 219.417329 
L 287.842705 213.532448 
L 289.753664 207.647568 
L 291.664623 201.762688 
L 293.575582 195.877807 
L 295.486541 189.992927 
L 297.3975 184.108047 
L 299.308459 178.223167 
L 301.219418 172.338286 
L 303.130377 166.453406 
L 305.041336 160.568526 
L 306.952295 154.683646 
L 308.863253 148.798765 
L 310.774212 142.913885 
L 312.685171 137.029005 
L 314.59613 131.144124 
L 316.507089 125.259244 
L 318.418048 119.374364 
L 320.329007 113.489484 
L 322.239966 107.604603 
L 324.150925 101.719723 
L 326.061884 95.834843 
L 327.972842 89.949962 
L 329.883801 84.065082 
L 331.79476 78.180202 
" style="fill:none;stroke:#8b0000;stroke-dasharray:11.1,4.8;stroke-dashoffset:0;stroke-opacity:0.5;stroke-width:3;"/>
   </g>
   <g id="patch_4">
    <path d="M 157.8975 299.589 
L 157.8975 27.789 
" style="fill:none;stroke:#000000;stroke-linecap:square;stroke-linejoin:miter;stroke-width:2;"/>
   </g>
   <g id="patch_5">
    <path d="M 157.8975 299.589 
L 436.8975 299.589 
" style="fill:none;stroke:#000000;stroke-linecap:square;stroke-linejoin:miter;stroke-width:2;"/>
   </g>
   <g id="text_17">
    <!-- Radiologists -->
    <defs>
     <path d="M 45.40625 46.390625 
L 45.40625 75.984375 
L 54.390625 75.984375 
L 54.390625 0 
L 45.40625 0 
L 45.40625 8.203125 
Q 42.578125 3.328125 38.25 0.953125 
Q 33.9375 -1.421875 27.875 -1.421875 
Q 17.96875 -1.421875 11.734375 6.484375 
Q 5.515625 14.40625 5.515625 27.296875 
Q 5.515625 40.1875 11.734375 48.09375 
Q 17.96875 56 27.875 56 
Q 33.9375 56 38.25 53.625 
Q 42.578125 51.265625 45.40625 46.390625 
z
M 14.796875 27.296875 
Q 14.796875 17.390625 18.875 11.75 
Q 22.953125 6.109375 30.078125 6.109375 
Q 37.203125 6.109375 41.296875 11.75 
Q 45.40625 17.390625 45.40625 27.296875 
Q 45.40625 37.203125 41.296875 42.84375 
Q 37.203125 48.484375 30.078125 48.484375 
Q 22.953125 48.484375 18.875 42.84375 
Q 14.796875 37.203125 14.796875 27.296875 
z
" id="DejaVuSans-100"/>
     <path d="M 45.40625 27.984375 
Q 45.40625 37.75 41.375 43.109375 
Q 37.359375 48.484375 30.078125 48.484375 
Q 22.859375 48.484375 18.828125 43.109375 
Q 14.796875 37.75 14.796875 27.984375 
Q 14.796875 18.265625 18.828125 12.890625 
Q 22.859375 7.515625 30.078125 7.515625 
Q 37.359375 7.515625 41.375 12.890625 
Q 45.40625 18.265625 45.40625 27.984375 
z
M 54.390625 6.78125 
Q 54.390625 -7.171875 48.1875 -13.984375 
Q 42 -20.796875 29.203125 -20.796875 
Q 24.46875 -20.796875 20.265625 -20.09375 
Q 16.0625 -19.390625 12.109375 -17.921875 
L 12.109375 -9.1875 
Q 16.0625 -11.328125 19.921875 -12.34375 
Q 23.78125 -13.375 27.78125 -13.375 
Q 36.625 -13.375 41.015625 -8.765625 
Q 45.40625 -4.15625 45.40625 5.171875 
L 45.40625 9.625 
Q 42.625 4.78125 38.28125 2.390625 
Q 33.9375 0 27.875 0 
Q 17.828125 0 11.671875 7.65625 
Q 5.515625 15.328125 5.515625 27.984375 
Q 5.515625 40.671875 11.671875 48.328125 
Q 17.828125 56 27.875 56 
Q 33.9375 56 38.28125 53.609375 
Q 42.625 51.21875 45.40625 46.390625 
L 45.40625 54.6875 
L 54.390625 54.6875 
z
" id="DejaVuSans-103"/>
    </defs>
    <g transform="translate(239.1435 21.789)scale(0.192 -0.192)">
     <use xlink:href="#DejaVuSans-82"/>
     <use x="69.451172" xlink:href="#DejaVuSans-97"/>
     <use x="130.730469" xlink:href="#DejaVuSans-100"/>
     <use x="194.207031" xlink:href="#DejaVuSans-105"/>
     <use x="221.990234" xlink:href="#DejaVuSans-111"/>
     <use x="283.171875" xlink:href="#DejaVuSans-108"/>
     <use x="310.955078" xlink:href="#DejaVuSans-111"/>
     <use x="372.136719" xlink:href="#DejaVuSans-103"/>
     <use x="435.613281" xlink:href="#DejaVuSans-105"/>
     <use x="463.396484" xlink:href="#DejaVuSans-115"/>
     <use x="515.496094" xlink:href="#DejaVuSans-116"/>
     <use x="554.705078" xlink:href="#DejaVuSans-115"/>
    </g>
   </g>
  </g>
 </g>
 <defs>
  <clipPath id="pbb12bfc7d0">
   <rect height="271.8" width="279" x="157.8975" y="27.789"/>
  </clipPath>
 </defs>
</svg>
