<?xml version="1.0" encoding="utf-8" standalone="no"?>
<!DOCTYPE svg PUBLIC "-//W3C//DTD SVG 1.1//EN"
  "http://www.w3.org/Graphics/SVG/1.1/DTD/svg11.dtd">
<!-- Created with matplotlib (https://matplotlib.org/) -->
<svg height="363.1755pt" version="1.1" viewBox="0 0 454.2775 363.1755" width="454.2775pt" xmlns="http://www.w3.org/2000/svg" xmlns:xlink="http://www.w3.org/1999/xlink">
 <defs>
  <style type="text/css">
*{stroke-linecap:butt;stroke-linejoin:round;}
  </style>
 </defs>
 <g id="figure_1">
  <g id="patch_1">
   <path d="M 0 363.1755 
L 454.2775 363.1755 
L 454.2775 0 
L 0 0 
z
" style="fill:#ffffff;"/>
  </g>
  <g id="axes_1">
   <g id="patch_2">
    <path d="M 157.8975 299.589 
L 436.8975 299.589 
L 436.8975 27.789 
L 157.8975 27.789 
z
" style="fill:#ffffff;"/>
   </g>
   <g id="PolyCollection_1">
    <defs>
     <path d="M 157.8975 -235.880145 
L 157.8975 -183.748282 
L 159.808459 -185.668591 
L 161.719418 -177.952228 
L 163.630377 -173.273509 
L 165.541336 -173.683771 
L 167.452295 -166.798794 
L 169.363253 -166.675368 
L 171.274212 -162.032093 
L 173.185171 -152.801057 
L 175.09613 -144.608384 
L 177.007089 -133.733392 
L 178.918048 -140.199851 
L 180.829007 -148.162272 
L 182.739966 -150.090398 
L 184.650925 -144.844669 
L 186.561884 -143.067957 
L 188.472842 -149.519157 
L 190.383801 -143.704734 
L 192.29476 -145.394177 
L 194.205719 -150.047127 
L 196.116678 -140.964714 
L 198.027637 -139.446145 
L 199.938596 -140.924725 
L 201.849555 -148.411384 
L 203.760514 -145.581695 
L 205.671473 -143.417836 
L 207.582432 -139.795283 
L 209.49339 -133.5036 
L 211.404349 -123.632876 
L 213.315308 -127.132261 
L 215.226267 -124.639823 
L 217.137226 -127.948885 
L 219.048185 -121.009971 
L 220.959144 -121.993772 
L 222.870103 -126.65488 
L 224.781062 -120.675672 
L 226.692021 -111.487362 
L 228.602979 -105.65832 
L 230.513938 -112.538546 
L 232.424897 -119.804278 
L 234.335856 -114.724045 
L 236.246815 -124.940583 
L 238.157774 -125.255243 
L 240.068733 -123.871637 
L 241.979692 -129.345361 
L 243.890651 -123.83066 
L 245.80161 -124.294304 
L 247.712568 -106.203327 
L 249.623527 -108.078792 
L 251.534486 -110.907561 
L 253.445445 -106.374555 
L 255.356404 -101.760721 
L 257.267363 -100.244365 
L 259.178322 -98.164409 
L 261.089281 -93.556436 
L 263.00024 -96.972312 
L 264.911199 -102.229123 
L 266.822158 -93.072405 
L 268.733116 -93.218904 
L 270.644075 -93.997628 
L 272.555034 -80.635035 
L 274.465993 -102.272872 
L 276.376952 -102.570462 
L 278.287911 -112.785566 
L 280.19887 -123.666376 
L 282.109829 -125.208672 
L 284.020788 -132.309836 
L 285.931747 -145.645548 
L 287.842705 -154.653713 
L 289.753664 -152.836088 
L 291.664623 -155.688588 
L 293.575582 -165.135843 
L 295.486541 -165.733871 
L 297.3975 -161.56696 
L 299.308459 -171.34934 
L 301.219418 -169.691379 
L 303.130377 -181.785244 
L 305.041336 -179.994661 
L 306.952295 -192.936778 
L 308.863253 -200.843207 
L 310.774212 -212.002179 
L 312.685171 -211.827493 
L 314.59613 -224.961184 
L 316.507089 -235.413539 
L 318.418048 -234.96469 
L 320.329007 -237.115651 
L 322.239966 -236.558377 
L 324.150925 -231.787266 
L 326.061884 -229.3289 
L 327.972842 -229.884749 
L 329.883801 -231.376559 
L 331.79476 -238.929828 
L 333.705719 -237.484882 
L 335.616678 -245.08169 
L 337.527637 -233.62844 
L 339.438596 -231.172787 
L 341.349555 -233.316088 
L 343.260514 -235.875652 
L 345.171473 -237.553922 
L 347.082432 -237.671028 
L 348.99339 -238.961293 
L 350.904349 -227.699881 
L 352.815308 -237.149257 
L 354.726267 -240.5834 
L 356.637226 -243.988385 
L 358.548185 -249.356893 
L 360.459144 -251.93813 
L 362.370103 -246.665113 
L 364.281062 -248.897669 
L 366.192021 -238.516941 
L 368.102979 -233.006075 
L 370.013938 -231.863573 
L 371.924897 -237.554351 
L 373.835856 -230.510436 
L 375.746815 -224.361408 
L 377.657774 -233.002034 
L 379.568733 -220.912622 
L 381.479692 -221.57592 
L 383.390651 -223.667562 
L 385.30161 -230.854229 
L 387.212568 -233.339712 
L 389.123527 -245.254056 
L 391.034486 -237.366 
L 392.945445 -228.784845 
L 394.856404 -229.08252 
L 396.767363 -234.188804 
L 398.678322 -233.330685 
L 400.589281 -231.350325 
L 402.50024 -219.259881 
L 404.411199 -212.354499 
L 406.322158 -210.209677 
L 408.233116 -212.666566 
L 410.144075 -220.209995 
L 412.055034 -209.645901 
L 413.965993 -193.933084 
L 415.876952 -189.063674 
L 417.787911 -188.071795 
L 419.69887 -183.278541 
L 421.609829 -184.025896 
L 423.520788 -180.284292 
L 425.431747 -184.560554 
L 427.342705 -187.125194 
L 429.253664 -188.277182 
L 431.164623 -195.784845 
L 433.075582 -188.093366 
L 434.986541 -194.15335 
L 436.8975 -183.748282 
L 436.8975 -235.880145 
L 436.8975 -235.880145 
L 434.986541 -245.089327 
L 433.075582 -241.388153 
L 431.164623 -237.470135 
L 429.253664 -239.710053 
L 427.342705 -230.02729 
L 425.431747 -230.748468 
L 423.520788 -227.642377 
L 421.609829 -228.341018 
L 419.69887 -229.716171 
L 417.787911 -237.372826 
L 415.876952 -231.673562 
L 413.965993 -240.896116 
L 412.055034 -252.394164 
L 410.144075 -267.606572 
L 408.233116 -260.86553 
L 406.322158 -257.384645 
L 404.411199 -262.729362 
L 402.50024 -268.412752 
L 400.589281 -288.259956 
L 398.678322 -290.369209 
L 396.767363 -298.570407 
L 394.856404 -292.877142 
L 392.945445 -292.986756 
L 391.034486 -302.815072 
L 389.123527 -307.002601 
L 387.212568 -301.432163 
L 385.30161 -295.771211 
L 383.390651 -283.673124 
L 381.479692 -279.977626 
L 379.568733 -277.766652 
L 377.657774 -286.410045 
L 375.746815 -281.89234 
L 373.835856 -288.291345 
L 371.924897 -292.250992 
L 370.013938 -284.585955 
L 368.102979 -288.180913 
L 366.192021 -293.475214 
L 364.281062 -298.811329 
L 362.370103 -297.236873 
L 360.459144 -301.150842 
L 358.548185 -305.661027 
L 356.637226 -303.857899 
L 354.726267 -296.953563 
L 352.815308 -295.386094 
L 350.904349 -282.100157 
L 348.99339 -288.488986 
L 347.082432 -279.728753 
L 345.171473 -276.344631 
L 343.260514 -278.28119 
L 341.349555 -274.373801 
L 339.438596 -277.902889 
L 337.527637 -276.615731 
L 335.616678 -283.152687 
L 333.705719 -281.757768 
L 331.79476 -281.595649 
L 329.883801 -275.889949 
L 327.972842 -275.454897 
L 326.061884 -278.871507 
L 324.150925 -284.195752 
L 322.239966 -288.444306 
L 320.329007 -284.182155 
L 318.418048 -277.421426 
L 316.507089 -279.714541 
L 314.59613 -269.434288 
L 312.685171 -253.86004 
L 310.774212 -256.659497 
L 308.863253 -247.776805 
L 306.952295 -239.486262 
L 305.041336 -223.499466 
L 303.130377 -222.059743 
L 301.219418 -209.606933 
L 299.308459 -204.392682 
L 297.3975 -197.749052 
L 295.486541 -202.251736 
L 293.575582 -203.000796 
L 291.664623 -197.723292 
L 289.753664 -193.450517 
L 287.842705 -201.384167 
L 285.931747 -193.137233 
L 284.020788 -180.183671 
L 282.109829 -173.2718 
L 280.19887 -164.781678 
L 278.287911 -166.213368 
L 276.376952 -163.763935 
L 274.465993 -165.937495 
L 272.555034 -147.534681 
L 270.644075 -151.642474 
L 268.733116 -143.153129 
L 266.822158 -146.86166 
L 264.911199 -149.347362 
L 263.00024 -144.008637 
L 261.089281 -141.930299 
L 259.178322 -146.609915 
L 257.267363 -151.428376 
L 255.356404 -152.66664 
L 253.445445 -153.318854 
L 251.534486 -155.803497 
L 249.623527 -152.175519 
L 247.712568 -152.835384 
L 245.80161 -171.185326 
L 243.890651 -170.821952 
L 241.979692 -177.145212 
L 240.068733 -171.447559 
L 238.157774 -174.900996 
L 236.246815 -172.471655 
L 234.335856 -164.800667 
L 232.424897 -173.879656 
L 230.513938 -165.363605 
L 228.602979 -155.042932 
L 226.692021 -162.010001 
L 224.781062 -176.885196 
L 222.870103 -185.78897 
L 220.959144 -187.740021 
L 219.048185 -182.938402 
L 217.137226 -185.586891 
L 215.226267 -188.201741 
L 213.315308 -196.22541 
L 211.404349 -196.437603 
L 209.49339 -204.964209 
L 207.582432 -208.183114 
L 205.671473 -214.064067 
L 203.760514 -223.99607 
L 201.849555 -230.582821 
L 199.938596 -221.615259 
L 198.027637 -218.675734 
L 196.116678 -221.759612 
L 194.205719 -233.771267 
L 192.29476 -231.703116 
L 190.383801 -226.314512 
L 188.472842 -225.737293 
L 186.561884 -215.576953 
L 184.650925 -216.278154 
L 182.739966 -215.772269 
L 180.829007 -217.867512 
L 178.918048 -207.266347 
L 177.007089 -203.903932 
L 175.09613 -203.553796 
L 173.185171 -206.918912 
L 171.274212 -216.10923 
L 169.363253 -220.846244 
L 167.452295 -218.896049 
L 165.541336 -217.627896 
L 163.630377 -219.511082 
L 161.719418 -225.230904 
L 159.808459 -235.431517 
L 157.8975 -235.880145 
z
" id="m3248c517e8" style="stroke:#87ceeb;stroke-opacity:0.2;"/>
    </defs>
    <g clip-path="url(#p1238be6115)">
     <use style="fill:#87ceeb;fill-opacity:0.2;stroke:#87ceeb;stroke-opacity:0.2;" x="0" xlink:href="#m3248c517e8" y="363.1755"/>
    </g>
   </g>
   <g id="matplotlib.axis_1">
    <g id="xtick_1">
     <g id="line2d_1">
      <defs>
       <path d="M 0 0 
L 0 -6 
" id="m5d0a5bea01" style="stroke:#000000;stroke-width:2;"/>
      </defs>
      <g>
       <use style="stroke:#000000;stroke-width:2;" x="157.8975" xlink:href="#m5d0a5bea01" y="299.589"/>
      </g>
     </g>
     <g id="text_1">
      <!-- -73 -->
      <defs>
       <path d="M 4.890625 31.390625 
L 31.203125 31.390625 
L 31.203125 23.390625 
L 4.890625 23.390625 
z
" id="DejaVuSans-45"/>
       <path d="M 8.203125 72.90625 
L 55.078125 72.90625 
L 55.078125 68.703125 
L 28.609375 0 
L 18.3125 0 
L 43.21875 64.59375 
L 8.203125 64.59375 
z
" id="DejaVuSans-55"/>
       <path d="M 40.578125 39.3125 
Q 47.65625 37.796875 51.625 33 
Q 55.609375 28.21875 55.609375 21.1875 
Q 55.609375 10.40625 48.1875 4.484375 
Q 40.765625 -1.421875 27.09375 -1.421875 
Q 22.515625 -1.421875 17.65625 -0.515625 
Q 12.796875 0.390625 7.625 2.203125 
L 7.625 11.71875 
Q 11.71875 9.328125 16.59375 8.109375 
Q 21.484375 6.890625 26.8125 6.890625 
Q 36.078125 6.890625 40.9375 10.546875 
Q 45.796875 14.203125 45.796875 21.1875 
Q 45.796875 27.640625 41.28125 31.265625 
Q 36.765625 34.90625 28.71875 34.90625 
L 20.21875 34.90625 
L 20.21875 43.015625 
L 29.109375 43.015625 
Q 36.375 43.015625 40.234375 45.921875 
Q 44.09375 48.828125 44.09375 54.296875 
Q 44.09375 59.90625 40.109375 62.90625 
Q 36.140625 65.921875 28.71875 65.921875 
Q 24.65625 65.921875 20.015625 65.03125 
Q 15.375 64.15625 9.8125 62.3125 
L 9.8125 71.09375 
Q 15.4375 72.65625 20.34375 73.4375 
Q 25.25 74.21875 29.59375 74.21875 
Q 40.828125 74.21875 47.359375 69.109375 
Q 53.90625 64.015625 53.90625 55.328125 
Q 53.90625 49.265625 50.4375 45.09375 
Q 46.96875 40.921875 40.578125 39.3125 
z
" id="DejaVuSans-51"/>
      </defs>
      <g transform="translate(144.83125 315.2465)scale(0.16 -0.16)">
       <use xlink:href="#DejaVuSans-45"/>
       <use x="36.083984" xlink:href="#DejaVuSans-55"/>
       <use x="99.707031" xlink:href="#DejaVuSans-51"/>
      </g>
     </g>
    </g>
    <g id="xtick_2">
     <g id="line2d_2">
      <g>
       <use style="stroke:#000000;stroke-width:2;" x="201.849555" xlink:href="#m5d0a5bea01" y="299.589"/>
      </g>
     </g>
     <g id="text_2">
      <!-- -50 -->
      <defs>
       <path d="M 10.796875 72.90625 
L 49.515625 72.90625 
L 49.515625 64.59375 
L 19.828125 64.59375 
L 19.828125 46.734375 
Q 21.96875 47.46875 24.109375 47.828125 
Q 26.265625 48.1875 28.421875 48.1875 
Q 40.625 48.1875 47.75 41.5 
Q 54.890625 34.8125 54.890625 23.390625 
Q 54.890625 11.625 47.5625 5.09375 
Q 40.234375 -1.421875 26.90625 -1.421875 
Q 22.3125 -1.421875 17.546875 -0.640625 
Q 12.796875 0.140625 7.71875 1.703125 
L 7.71875 11.625 
Q 12.109375 9.234375 16.796875 8.0625 
Q 21.484375 6.890625 26.703125 6.890625 
Q 35.15625 6.890625 40.078125 11.328125 
Q 45.015625 15.765625 45.015625 23.390625 
Q 45.015625 31 40.078125 35.4375 
Q 35.15625 39.890625 26.703125 39.890625 
Q 22.75 39.890625 18.8125 39.015625 
Q 14.890625 38.140625 10.796875 36.28125 
z
" id="DejaVuSans-53"/>
       <path d="M 31.78125 66.40625 
Q 24.171875 66.40625 20.328125 58.90625 
Q 16.5 51.421875 16.5 36.375 
Q 16.5 21.390625 20.328125 13.890625 
Q 24.171875 6.390625 31.78125 6.390625 
Q 39.453125 6.390625 43.28125 13.890625 
Q 47.125 21.390625 47.125 36.375 
Q 47.125 51.421875 43.28125 58.90625 
Q 39.453125 66.40625 31.78125 66.40625 
z
M 31.78125 74.21875 
Q 44.046875 74.21875 50.515625 64.515625 
Q 56.984375 54.828125 56.984375 36.375 
Q 56.984375 17.96875 50.515625 8.265625 
Q 44.046875 -1.421875 31.78125 -1.421875 
Q 19.53125 -1.421875 13.0625 8.265625 
Q 6.59375 17.96875 6.59375 36.375 
Q 6.59375 54.828125 13.0625 64.515625 
Q 19.53125 74.21875 31.78125 74.21875 
z
" id="DejaVuSans-48"/>
      </defs>
      <g transform="translate(188.783305 315.2465)scale(0.16 -0.16)">
       <use xlink:href="#DejaVuSans-45"/>
       <use x="36.083984" xlink:href="#DejaVuSans-53"/>
       <use x="99.707031" xlink:href="#DejaVuSans-48"/>
      </g>
     </g>
    </g>
    <g id="xtick_3">
     <g id="line2d_3">
      <g>
       <use style="stroke:#000000;stroke-width:2;" x="249.623527" xlink:href="#m5d0a5bea01" y="299.589"/>
      </g>
     </g>
     <g id="text_3">
      <!-- -25 -->
      <defs>
       <path d="M 19.1875 8.296875 
L 53.609375 8.296875 
L 53.609375 0 
L 7.328125 0 
L 7.328125 8.296875 
Q 12.9375 14.109375 22.625 23.890625 
Q 32.328125 33.6875 34.8125 36.53125 
Q 39.546875 41.84375 41.421875 45.53125 
Q 43.3125 49.21875 43.3125 52.78125 
Q 43.3125 58.59375 39.234375 62.25 
Q 35.15625 65.921875 28.609375 65.921875 
Q 23.96875 65.921875 18.8125 64.3125 
Q 13.671875 62.703125 7.8125 59.421875 
L 7.8125 69.390625 
Q 13.765625 71.78125 18.9375 73 
Q 24.125 74.21875 28.421875 74.21875 
Q 39.75 74.21875 46.484375 68.546875 
Q 53.21875 62.890625 53.21875 53.421875 
Q 53.21875 48.921875 51.53125 44.890625 
Q 49.859375 40.875 45.40625 35.40625 
Q 44.1875 33.984375 37.640625 27.21875 
Q 31.109375 20.453125 19.1875 8.296875 
z
" id="DejaVuSans-50"/>
      </defs>
      <g transform="translate(236.557277 315.2465)scale(0.16 -0.16)">
       <use xlink:href="#DejaVuSans-45"/>
       <use x="36.083984" xlink:href="#DejaVuSans-50"/>
       <use x="99.707031" xlink:href="#DejaVuSans-53"/>
      </g>
     </g>
    </g>
    <g id="xtick_4">
     <g id="line2d_4">
      <g>
       <use style="stroke:#000000;stroke-width:2;" x="297.3975" xlink:href="#m5d0a5bea01" y="299.589"/>
      </g>
     </g>
     <g id="text_4">
      <!-- 0 -->
      <g transform="translate(292.3075 315.2465)scale(0.16 -0.16)">
       <use xlink:href="#DejaVuSans-48"/>
      </g>
     </g>
    </g>
    <g id="xtick_5">
     <g id="line2d_5">
      <g>
       <use style="stroke:#000000;stroke-width:2;" x="345.171473" xlink:href="#m5d0a5bea01" y="299.589"/>
      </g>
     </g>
     <g id="text_5">
      <!-- 25 -->
      <g transform="translate(334.991473 315.2465)scale(0.16 -0.16)">
       <use xlink:href="#DejaVuSans-50"/>
       <use x="63.623047" xlink:href="#DejaVuSans-53"/>
      </g>
     </g>
    </g>
    <g id="xtick_6">
     <g id="line2d_6">
      <g>
       <use style="stroke:#000000;stroke-width:2;" x="392.945445" xlink:href="#m5d0a5bea01" y="299.589"/>
      </g>
     </g>
     <g id="text_6">
      <!-- 50 -->
      <g transform="translate(382.765445 315.2465)scale(0.16 -0.16)">
       <use xlink:href="#DejaVuSans-53"/>
       <use x="63.623047" xlink:href="#DejaVuSans-48"/>
      </g>
     </g>
    </g>
    <g id="xtick_7">
     <g id="line2d_7">
      <g>
       <use style="stroke:#000000;stroke-width:2;" x="436.8975" xlink:href="#m5d0a5bea01" y="299.589"/>
      </g>
     </g>
     <g id="text_7">
      <!-- 73 -->
      <g transform="translate(426.7175 315.2465)scale(0.16 -0.16)">
       <use xlink:href="#DejaVuSans-55"/>
       <use x="63.623047" xlink:href="#DejaVuSans-51"/>
      </g>
     </g>
    </g>
    <g id="text_8">
     <!-- Previous Tumor - Current Tumor -->
     <defs>
      <path d="M 19.671875 64.796875 
L 19.671875 37.40625 
L 32.078125 37.40625 
Q 38.96875 37.40625 42.71875 40.96875 
Q 46.484375 44.53125 46.484375 51.125 
Q 46.484375 57.671875 42.71875 61.234375 
Q 38.96875 64.796875 32.078125 64.796875 
z
M 9.8125 72.90625 
L 32.078125 72.90625 
Q 44.34375 72.90625 50.609375 67.359375 
Q 56.890625 61.8125 56.890625 51.125 
Q 56.890625 40.328125 50.609375 34.8125 
Q 44.34375 29.296875 32.078125 29.296875 
L 19.671875 29.296875 
L 19.671875 0 
L 9.8125 0 
z
" id="DejaVuSans-80"/>
      <path d="M 41.109375 46.296875 
Q 39.59375 47.171875 37.8125 47.578125 
Q 36.03125 48 33.890625 48 
Q 26.265625 48 22.1875 43.046875 
Q 18.109375 38.09375 18.109375 28.8125 
L 18.109375 0 
L 9.078125 0 
L 9.078125 54.6875 
L 18.109375 54.6875 
L 18.109375 46.1875 
Q 20.953125 51.171875 25.484375 53.578125 
Q 30.03125 56 36.53125 56 
Q 37.453125 56 38.578125 55.875 
Q 39.703125 55.765625 41.0625 55.515625 
z
" id="DejaVuSans-114"/>
      <path d="M 56.203125 29.59375 
L 56.203125 25.203125 
L 14.890625 25.203125 
Q 15.484375 15.921875 20.484375 11.0625 
Q 25.484375 6.203125 34.421875 6.203125 
Q 39.59375 6.203125 44.453125 7.46875 
Q 49.3125 8.734375 54.109375 11.28125 
L 54.109375 2.78125 
Q 49.265625 0.734375 44.1875 -0.34375 
Q 39.109375 -1.421875 33.890625 -1.421875 
Q 20.796875 -1.421875 13.15625 6.1875 
Q 5.515625 13.8125 5.515625 26.8125 
Q 5.515625 40.234375 12.765625 48.109375 
Q 20.015625 56 32.328125 56 
Q 43.359375 56 49.78125 48.890625 
Q 56.203125 41.796875 56.203125 29.59375 
z
M 47.21875 32.234375 
Q 47.125 39.59375 43.09375 43.984375 
Q 39.0625 48.390625 32.421875 48.390625 
Q 24.90625 48.390625 20.390625 44.140625 
Q 15.875 39.890625 15.1875 32.171875 
z
" id="DejaVuSans-101"/>
      <path d="M 2.984375 54.6875 
L 12.5 54.6875 
L 29.59375 8.796875 
L 46.6875 54.6875 
L 56.203125 54.6875 
L 35.6875 0 
L 23.484375 0 
z
" id="DejaVuSans-118"/>
      <path d="M 9.421875 54.6875 
L 18.40625 54.6875 
L 18.40625 0 
L 9.421875 0 
z
M 9.421875 75.984375 
L 18.40625 75.984375 
L 18.40625 64.59375 
L 9.421875 64.59375 
z
" id="DejaVuSans-105"/>
      <path d="M 30.609375 48.390625 
Q 23.390625 48.390625 19.1875 42.75 
Q 14.984375 37.109375 14.984375 27.296875 
Q 14.984375 17.484375 19.15625 11.84375 
Q 23.34375 6.203125 30.609375 6.203125 
Q 37.796875 6.203125 41.984375 11.859375 
Q 46.1875 17.53125 46.1875 27.296875 
Q 46.1875 37.015625 41.984375 42.703125 
Q 37.796875 48.390625 30.609375 48.390625 
z
M 30.609375 56 
Q 42.328125 56 49.015625 48.375 
Q 55.71875 40.765625 55.71875 27.296875 
Q 55.71875 13.875 49.015625 6.21875 
Q 42.328125 -1.421875 30.609375 -1.421875 
Q 18.84375 -1.421875 12.171875 6.21875 
Q 5.515625 13.875 5.515625 27.296875 
Q 5.515625 40.765625 12.171875 48.375 
Q 18.84375 56 30.609375 56 
z
" id="DejaVuSans-111"/>
      <path d="M 8.5 21.578125 
L 8.5 54.6875 
L 17.484375 54.6875 
L 17.484375 21.921875 
Q 17.484375 14.15625 20.5 10.265625 
Q 23.53125 6.390625 29.59375 6.390625 
Q 36.859375 6.390625 41.078125 11.03125 
Q 45.3125 15.671875 45.3125 23.6875 
L 45.3125 54.6875 
L 54.296875 54.6875 
L 54.296875 0 
L 45.3125 0 
L 45.3125 8.40625 
Q 42.046875 3.421875 37.71875 1 
Q 33.40625 -1.421875 27.6875 -1.421875 
Q 18.265625 -1.421875 13.375 4.4375 
Q 8.5 10.296875 8.5 21.578125 
z
M 31.109375 56 
z
" id="DejaVuSans-117"/>
      <path d="M 44.28125 53.078125 
L 44.28125 44.578125 
Q 40.484375 46.53125 36.375 47.5 
Q 32.28125 48.484375 27.875 48.484375 
Q 21.1875 48.484375 17.84375 46.4375 
Q 14.5 44.390625 14.5 40.28125 
Q 14.5 37.15625 16.890625 35.375 
Q 19.28125 33.59375 26.515625 31.984375 
L 29.59375 31.296875 
Q 39.15625 29.25 43.1875 25.515625 
Q 47.21875 21.78125 47.21875 15.09375 
Q 47.21875 7.46875 41.1875 3.015625 
Q 35.15625 -1.421875 24.609375 -1.421875 
Q 20.21875 -1.421875 15.453125 -0.5625 
Q 10.6875 0.296875 5.421875 2 
L 5.421875 11.28125 
Q 10.40625 8.6875 15.234375 7.390625 
Q 20.0625 6.109375 24.8125 6.109375 
Q 31.15625 6.109375 34.5625 8.28125 
Q 37.984375 10.453125 37.984375 14.40625 
Q 37.984375 18.0625 35.515625 20.015625 
Q 33.0625 21.96875 24.703125 23.78125 
L 21.578125 24.515625 
Q 13.234375 26.265625 9.515625 29.90625 
Q 5.8125 33.546875 5.8125 39.890625 
Q 5.8125 47.609375 11.28125 51.796875 
Q 16.75 56 26.8125 56 
Q 31.78125 56 36.171875 55.265625 
Q 40.578125 54.546875 44.28125 53.078125 
z
" id="DejaVuSans-115"/>
      <path id="DejaVuSans-32"/>
      <path d="M -0.296875 72.90625 
L 61.375 72.90625 
L 61.375 64.59375 
L 35.5 64.59375 
L 35.5 0 
L 25.59375 0 
L 25.59375 64.59375 
L -0.296875 64.59375 
z
" id="DejaVuSans-84"/>
      <path d="M 52 44.1875 
Q 55.375 50.25 60.0625 53.125 
Q 64.75 56 71.09375 56 
Q 79.640625 56 84.28125 50.015625 
Q 88.921875 44.046875 88.921875 33.015625 
L 88.921875 0 
L 79.890625 0 
L 79.890625 32.71875 
Q 79.890625 40.578125 77.09375 44.375 
Q 74.3125 48.1875 68.609375 48.1875 
Q 61.625 48.1875 57.5625 43.546875 
Q 53.515625 38.921875 53.515625 30.90625 
L 53.515625 0 
L 44.484375 0 
L 44.484375 32.71875 
Q 44.484375 40.625 41.703125 44.40625 
Q 38.921875 48.1875 33.109375 48.1875 
Q 26.21875 48.1875 22.15625 43.53125 
Q 18.109375 38.875 18.109375 30.90625 
L 18.109375 0 
L 9.078125 0 
L 9.078125 54.6875 
L 18.109375 54.6875 
L 18.109375 46.1875 
Q 21.1875 51.21875 25.484375 53.609375 
Q 29.78125 56 35.6875 56 
Q 41.65625 56 45.828125 52.96875 
Q 50 49.953125 52 44.1875 
z
" id="DejaVuSans-109"/>
      <path d="M 64.40625 67.28125 
L 64.40625 56.890625 
Q 59.421875 61.53125 53.78125 63.8125 
Q 48.140625 66.109375 41.796875 66.109375 
Q 29.296875 66.109375 22.65625 58.46875 
Q 16.015625 50.828125 16.015625 36.375 
Q 16.015625 21.96875 22.65625 14.328125 
Q 29.296875 6.6875 41.796875 6.6875 
Q 48.140625 6.6875 53.78125 8.984375 
Q 59.421875 11.28125 64.40625 15.921875 
L 64.40625 5.609375 
Q 59.234375 2.09375 53.4375 0.328125 
Q 47.65625 -1.421875 41.21875 -1.421875 
Q 24.65625 -1.421875 15.125 8.703125 
Q 5.609375 18.84375 5.609375 36.375 
Q 5.609375 53.953125 15.125 64.078125 
Q 24.65625 74.21875 41.21875 74.21875 
Q 47.75 74.21875 53.53125 72.484375 
Q 59.328125 70.75 64.40625 67.28125 
z
" id="DejaVuSans-67"/>
      <path d="M 54.890625 33.015625 
L 54.890625 0 
L 45.90625 0 
L 45.90625 32.71875 
Q 45.90625 40.484375 42.875 44.328125 
Q 39.84375 48.1875 33.796875 48.1875 
Q 26.515625 48.1875 22.3125 43.546875 
Q 18.109375 38.921875 18.109375 30.90625 
L 18.109375 0 
L 9.078125 0 
L 9.078125 54.6875 
L 18.109375 54.6875 
L 18.109375 46.1875 
Q 21.34375 51.125 25.703125 53.5625 
Q 30.078125 56 35.796875 56 
Q 45.21875 56 50.046875 50.171875 
Q 54.890625 44.34375 54.890625 33.015625 
z
" id="DejaVuSans-110"/>
      <path d="M 18.3125 70.21875 
L 18.3125 54.6875 
L 36.8125 54.6875 
L 36.8125 47.703125 
L 18.3125 47.703125 
L 18.3125 18.015625 
Q 18.3125 11.328125 20.140625 9.421875 
Q 21.96875 7.515625 27.59375 7.515625 
L 36.8125 7.515625 
L 36.8125 0 
L 27.59375 0 
Q 17.1875 0 13.234375 3.875 
Q 9.28125 7.765625 9.28125 18.015625 
L 9.28125 47.703125 
L 2.6875 47.703125 
L 2.6875 54.6875 
L 9.28125 54.6875 
L 9.28125 70.21875 
z
" id="DejaVuSans-116"/>
     </defs>
     <g transform="translate(168.03375 334.7315)scale(0.16 -0.16)">
      <use xlink:href="#DejaVuSans-80"/>
      <use x="60.287109" xlink:href="#DejaVuSans-114"/>
      <use x="101.369141" xlink:href="#DejaVuSans-101"/>
      <use x="162.892578" xlink:href="#DejaVuSans-118"/>
      <use x="222.072266" xlink:href="#DejaVuSans-105"/>
      <use x="249.855469" xlink:href="#DejaVuSans-111"/>
      <use x="311.037109" xlink:href="#DejaVuSans-117"/>
      <use x="374.416016" xlink:href="#DejaVuSans-115"/>
      <use x="426.515625" xlink:href="#DejaVuSans-32"/>
      <use x="458.302734" xlink:href="#DejaVuSans-84"/>
      <use x="519.152344" xlink:href="#DejaVuSans-117"/>
      <use x="582.53125" xlink:href="#DejaVuSans-109"/>
      <use x="679.943359" xlink:href="#DejaVuSans-111"/>
      <use x="741.125" xlink:href="#DejaVuSans-114"/>
      <use x="782.238281" xlink:href="#DejaVuSans-32"/>
      <use x="814.025391" xlink:href="#DejaVuSans-45"/>
      <use x="850.109375" xlink:href="#DejaVuSans-32"/>
      <use x="881.896484" xlink:href="#DejaVuSans-67"/>
      <use x="951.720703" xlink:href="#DejaVuSans-117"/>
      <use x="1015.099609" xlink:href="#DejaVuSans-114"/>
      <use x="1056.197266" xlink:href="#DejaVuSans-114"/>
      <use x="1097.279297" xlink:href="#DejaVuSans-101"/>
      <use x="1158.802734" xlink:href="#DejaVuSans-110"/>
      <use x="1222.181641" xlink:href="#DejaVuSans-116"/>
      <use x="1261.390625" xlink:href="#DejaVuSans-32"/>
      <use x="1293.177734" xlink:href="#DejaVuSans-84"/>
      <use x="1354.027344" xlink:href="#DejaVuSans-117"/>
      <use x="1417.40625" xlink:href="#DejaVuSans-109"/>
      <use x="1514.818359" xlink:href="#DejaVuSans-111"/>
      <use x="1576" xlink:href="#DejaVuSans-114"/>
     </g>
     <!--  (morph units) -->
     <defs>
      <path d="M 31 75.875 
Q 24.46875 64.65625 21.28125 53.65625 
Q 18.109375 42.671875 18.109375 31.390625 
Q 18.109375 20.125 21.3125 9.0625 
Q 24.515625 -2 31 -13.1875 
L 23.1875 -13.1875 
Q 15.875 -1.703125 12.234375 9.375 
Q 8.59375 20.453125 8.59375 31.390625 
Q 8.59375 42.28125 12.203125 53.3125 
Q 15.828125 64.359375 23.1875 75.875 
z
" id="DejaVuSans-40"/>
      <path d="M 18.109375 8.203125 
L 18.109375 -20.796875 
L 9.078125 -20.796875 
L 9.078125 54.6875 
L 18.109375 54.6875 
L 18.109375 46.390625 
Q 20.953125 51.265625 25.265625 53.625 
Q 29.59375 56 35.59375 56 
Q 45.5625 56 51.78125 48.09375 
Q 58.015625 40.1875 58.015625 27.296875 
Q 58.015625 14.40625 51.78125 6.484375 
Q 45.5625 -1.421875 35.59375 -1.421875 
Q 29.59375 -1.421875 25.265625 0.953125 
Q 20.953125 3.328125 18.109375 8.203125 
z
M 48.6875 27.296875 
Q 48.6875 37.203125 44.609375 42.84375 
Q 40.53125 48.484375 33.40625 48.484375 
Q 26.265625 48.484375 22.1875 42.84375 
Q 18.109375 37.203125 18.109375 27.296875 
Q 18.109375 17.390625 22.1875 11.75 
Q 26.265625 6.109375 33.40625 6.109375 
Q 40.53125 6.109375 44.609375 11.75 
Q 48.6875 17.390625 48.6875 27.296875 
z
" id="DejaVuSans-112"/>
      <path d="M 54.890625 33.015625 
L 54.890625 0 
L 45.90625 0 
L 45.90625 32.71875 
Q 45.90625 40.484375 42.875 44.328125 
Q 39.84375 48.1875 33.796875 48.1875 
Q 26.515625 48.1875 22.3125 43.546875 
Q 18.109375 38.921875 18.109375 30.90625 
L 18.109375 0 
L 9.078125 0 
L 9.078125 75.984375 
L 18.109375 75.984375 
L 18.109375 46.1875 
Q 21.34375 51.125 25.703125 53.5625 
Q 30.078125 56 35.796875 56 
Q 45.21875 56 50.046875 50.171875 
Q 54.890625 44.34375 54.890625 33.015625 
z
" id="DejaVuSans-104"/>
      <path d="M 8.015625 75.875 
L 15.828125 75.875 
Q 23.140625 64.359375 26.78125 53.3125 
Q 30.421875 42.28125 30.421875 31.390625 
Q 30.421875 20.453125 26.78125 9.375 
Q 23.140625 -1.703125 15.828125 -13.1875 
L 8.015625 -13.1875 
Q 14.5 -2 17.703125 9.0625 
Q 20.90625 20.125 20.90625 31.390625 
Q 20.90625 42.671875 17.703125 53.65625 
Q 14.5 64.65625 8.015625 75.875 
z
" id="DejaVuSans-41"/>
     </defs>
     <g transform="translate(240.27875 352.648)scale(0.16 -0.16)">
      <use xlink:href="#DejaVuSans-32"/>
      <use x="31.787109" xlink:href="#DejaVuSans-40"/>
      <use x="70.800781" xlink:href="#DejaVuSans-109"/>
      <use x="168.212891" xlink:href="#DejaVuSans-111"/>
      <use x="229.394531" xlink:href="#DejaVuSans-114"/>
      <use x="270.507812" xlink:href="#DejaVuSans-112"/>
      <use x="333.984375" xlink:href="#DejaVuSans-104"/>
      <use x="397.363281" xlink:href="#DejaVuSans-32"/>
      <use x="429.150391" xlink:href="#DejaVuSans-117"/>
      <use x="492.529297" xlink:href="#DejaVuSans-110"/>
      <use x="555.908203" xlink:href="#DejaVuSans-105"/>
      <use x="583.691406" xlink:href="#DejaVuSans-116"/>
      <use x="622.900391" xlink:href="#DejaVuSans-115"/>
      <use x="675" xlink:href="#DejaVuSans-41"/>
     </g>
    </g>
   </g>
   <g id="matplotlib.axis_2">
    <g id="ytick_1">
     <g id="line2d_8">
      <defs>
       <path d="M 0 0 
L 6 0 
" id="mc337697736" style="stroke:#000000;stroke-width:2;"/>
      </defs>
      <g>
       <use style="stroke:#000000;stroke-width:2;" x="157.8975" xlink:href="#mc337697736" y="299.589"/>
      </g>
     </g>
     <g id="text_9">
      <!-- −3 -->
      <defs>
       <path d="M 10.59375 35.5 
L 73.1875 35.5 
L 73.1875 27.203125 
L 10.59375 27.203125 
z
" id="DejaVuSans-8722"/>
      </defs>
      <g transform="translate(130.81 305.66775)scale(0.16 -0.16)">
       <use xlink:href="#DejaVuSans-8722"/>
       <use x="83.789062" xlink:href="#DejaVuSans-51"/>
      </g>
     </g>
    </g>
    <g id="ytick_2">
     <g id="line2d_9">
      <g>
       <use style="stroke:#000000;stroke-width:2;" x="157.8975" xlink:href="#mc337697736" y="254.289"/>
      </g>
     </g>
     <g id="text_10">
      <!-- −2 -->
      <g transform="translate(130.81 260.36775)scale(0.16 -0.16)">
       <use xlink:href="#DejaVuSans-8722"/>
       <use x="83.789062" xlink:href="#DejaVuSans-50"/>
      </g>
     </g>
    </g>
    <g id="ytick_3">
     <g id="line2d_10">
      <g>
       <use style="stroke:#000000;stroke-width:2;" x="157.8975" xlink:href="#mc337697736" y="208.989"/>
      </g>
     </g>
     <g id="text_11">
      <!-- −1 -->
      <defs>
       <path d="M 12.40625 8.296875 
L 28.515625 8.296875 
L 28.515625 63.921875 
L 10.984375 60.40625 
L 10.984375 69.390625 
L 28.421875 72.90625 
L 38.28125 72.90625 
L 38.28125 8.296875 
L 54.390625 8.296875 
L 54.390625 0 
L 12.40625 0 
z
" id="DejaVuSans-49"/>
      </defs>
      <g transform="translate(130.81 215.06775)scale(0.16 -0.16)">
       <use xlink:href="#DejaVuSans-8722"/>
       <use x="83.789062" xlink:href="#DejaVuSans-49"/>
      </g>
     </g>
    </g>
    <g id="ytick_4">
     <g id="line2d_11">
      <g>
       <use style="stroke:#000000;stroke-width:2;" x="157.8975" xlink:href="#mc337697736" y="163.689"/>
      </g>
     </g>
     <g id="text_12">
      <!-- 0 -->
      <g transform="translate(144.2175 169.76775)scale(0.16 -0.16)">
       <use xlink:href="#DejaVuSans-48"/>
      </g>
     </g>
    </g>
    <g id="ytick_5">
     <g id="line2d_12">
      <g>
       <use style="stroke:#000000;stroke-width:2;" x="157.8975" xlink:href="#mc337697736" y="118.389"/>
      </g>
     </g>
     <g id="text_13">
      <!-- 1 -->
      <g transform="translate(144.2175 124.46775)scale(0.16 -0.16)">
       <use xlink:href="#DejaVuSans-49"/>
      </g>
     </g>
    </g>
    <g id="ytick_6">
     <g id="line2d_13">
      <g>
       <use style="stroke:#000000;stroke-width:2;" x="157.8975" xlink:href="#mc337697736" y="73.089"/>
      </g>
     </g>
     <g id="text_14">
      <!-- 2 -->
      <g transform="translate(144.2175 79.16775)scale(0.16 -0.16)">
       <use xlink:href="#DejaVuSans-50"/>
      </g>
     </g>
    </g>
    <g id="ytick_7">
     <g id="line2d_14">
      <g>
       <use style="stroke:#000000;stroke-width:2;" x="157.8975" xlink:href="#mc337697736" y="27.789"/>
      </g>
     </g>
     <g id="text_15">
      <!-- 3 -->
      <g transform="translate(144.2175 33.86775)scale(0.16 -0.16)">
       <use xlink:href="#DejaVuSans-51"/>
      </g>
     </g>
    </g>
    <g id="text_16">
     <!-- Response Error                        -->
     <defs>
      <path d="M 44.390625 34.1875 
Q 47.5625 33.109375 50.5625 29.59375 
Q 53.5625 26.078125 56.59375 19.921875 
L 66.609375 0 
L 56 0 
L 46.6875 18.703125 
Q 43.0625 26.03125 39.671875 28.421875 
Q 36.28125 30.8125 30.421875 30.8125 
L 19.671875 30.8125 
L 19.671875 0 
L 9.8125 0 
L 9.8125 72.90625 
L 32.078125 72.90625 
Q 44.578125 72.90625 50.734375 67.671875 
Q 56.890625 62.453125 56.890625 51.90625 
Q 56.890625 45.015625 53.6875 40.46875 
Q 50.484375 35.9375 44.390625 34.1875 
z
M 19.671875 64.796875 
L 19.671875 38.921875 
L 32.078125 38.921875 
Q 39.203125 38.921875 42.84375 42.21875 
Q 46.484375 45.515625 46.484375 51.90625 
Q 46.484375 58.296875 42.84375 61.546875 
Q 39.203125 64.796875 32.078125 64.796875 
z
" id="DejaVuSans-82"/>
      <path d="M 9.8125 72.90625 
L 55.90625 72.90625 
L 55.90625 64.59375 
L 19.671875 64.59375 
L 19.671875 43.015625 
L 54.390625 43.015625 
L 54.390625 34.71875 
L 19.671875 34.71875 
L 19.671875 8.296875 
L 56.78125 8.296875 
L 56.78125 0 
L 9.8125 0 
z
" id="DejaVuSans-69"/>
     </defs>
     <g transform="translate(7.2 106.612)scale(0.16 -0.16)">
      <use xlink:href="#DejaVuSans-82"/>
      <use x="69.419922" xlink:href="#DejaVuSans-101"/>
      <use x="130.943359" xlink:href="#DejaVuSans-115"/>
      <use x="183.042969" xlink:href="#DejaVuSans-112"/>
      <use x="246.519531" xlink:href="#DejaVuSans-111"/>
      <use x="307.701172" xlink:href="#DejaVuSans-110"/>
      <use x="371.080078" xlink:href="#DejaVuSans-115"/>
      <use x="423.179688" xlink:href="#DejaVuSans-101"/>
      <use x="484.703125" xlink:href="#DejaVuSans-32"/>
      <use x="516.490234" xlink:href="#DejaVuSans-69"/>
      <use x="579.673828" xlink:href="#DejaVuSans-114"/>
      <use x="620.771484" xlink:href="#DejaVuSans-114"/>
      <use x="661.853516" xlink:href="#DejaVuSans-111"/>
      <use x="723.035156" xlink:href="#DejaVuSans-114"/>
      <use x="764.148438" xlink:href="#DejaVuSans-32"/>
      <use x="795.935547" xlink:href="#DejaVuSans-32"/>
      <use x="827.722656" xlink:href="#DejaVuSans-32"/>
      <use x="859.509766" xlink:href="#DejaVuSans-32"/>
      <use x="891.296875" xlink:href="#DejaVuSans-32"/>
      <use x="923.083984" xlink:href="#DejaVuSans-32"/>
      <use x="954.871094" xlink:href="#DejaVuSans-32"/>
      <use x="986.658203" xlink:href="#DejaVuSans-32"/>
      <use x="1018.445312" xlink:href="#DejaVuSans-32"/>
      <use x="1050.232422" xlink:href="#DejaVuSans-32"/>
      <use x="1082.019531" xlink:href="#DejaVuSans-32"/>
      <use x="1113.806641" xlink:href="#DejaVuSans-32"/>
      <use x="1145.59375" xlink:href="#DejaVuSans-32"/>
      <use x="1177.380859" xlink:href="#DejaVuSans-32"/>
      <use x="1209.167969" xlink:href="#DejaVuSans-32"/>
      <use x="1240.955078" xlink:href="#DejaVuSans-32"/>
      <use x="1272.742188" xlink:href="#DejaVuSans-32"/>
      <use x="1304.529297" xlink:href="#DejaVuSans-32"/>
      <use x="1336.316406" xlink:href="#DejaVuSans-32"/>
      <use x="1368.103516" xlink:href="#DejaVuSans-32"/>
      <use x="1399.890625" xlink:href="#DejaVuSans-32"/>
      <use x="1431.677734" xlink:href="#DejaVuSans-32"/>
      <use x="1463.464844" xlink:href="#DejaVuSans-32"/>
     </g>
     <!-- on                        -->
     <g transform="translate(58.3675 124.5285)scale(0.16 -0.16)">
      <use xlink:href="#DejaVuSans-111"/>
      <use x="61.181641" xlink:href="#DejaVuSans-110"/>
      <use x="124.560547" xlink:href="#DejaVuSans-32"/>
      <use x="156.347656" xlink:href="#DejaVuSans-32"/>
      <use x="188.134766" xlink:href="#DejaVuSans-32"/>
      <use x="219.921875" xlink:href="#DejaVuSans-32"/>
      <use x="251.708984" xlink:href="#DejaVuSans-32"/>
      <use x="283.496094" xlink:href="#DejaVuSans-32"/>
      <use x="315.283203" xlink:href="#DejaVuSans-32"/>
      <use x="347.070312" xlink:href="#DejaVuSans-32"/>
      <use x="378.857422" xlink:href="#DejaVuSans-32"/>
      <use x="410.644531" xlink:href="#DejaVuSans-32"/>
      <use x="442.431641" xlink:href="#DejaVuSans-32"/>
      <use x="474.21875" xlink:href="#DejaVuSans-32"/>
      <use x="506.005859" xlink:href="#DejaVuSans-32"/>
      <use x="537.792969" xlink:href="#DejaVuSans-32"/>
      <use x="569.580078" xlink:href="#DejaVuSans-32"/>
      <use x="601.367188" xlink:href="#DejaVuSans-32"/>
      <use x="633.154297" xlink:href="#DejaVuSans-32"/>
      <use x="664.941406" xlink:href="#DejaVuSans-32"/>
      <use x="696.728516" xlink:href="#DejaVuSans-32"/>
      <use x="728.515625" xlink:href="#DejaVuSans-32"/>
      <use x="760.302734" xlink:href="#DejaVuSans-32"/>
      <use x="792.089844" xlink:href="#DejaVuSans-32"/>
      <use x="823.876953" xlink:href="#DejaVuSans-32"/>
     </g>
     <!-- Current Trial                        -->
     <defs>
      <path d="M 34.28125 27.484375 
Q 23.390625 27.484375 19.1875 25 
Q 14.984375 22.515625 14.984375 16.5 
Q 14.984375 11.71875 18.140625 8.90625 
Q 21.296875 6.109375 26.703125 6.109375 
Q 34.1875 6.109375 38.703125 11.40625 
Q 43.21875 16.703125 43.21875 25.484375 
L 43.21875 27.484375 
z
M 52.203125 31.203125 
L 52.203125 0 
L 43.21875 0 
L 43.21875 8.296875 
Q 40.140625 3.328125 35.546875 0.953125 
Q 30.953125 -1.421875 24.3125 -1.421875 
Q 15.921875 -1.421875 10.953125 3.296875 
Q 6 8.015625 6 15.921875 
Q 6 25.140625 12.171875 29.828125 
Q 18.359375 34.515625 30.609375 34.515625 
L 43.21875 34.515625 
L 43.21875 35.40625 
Q 43.21875 41.609375 39.140625 45 
Q 35.0625 48.390625 27.6875 48.390625 
Q 23 48.390625 18.546875 47.265625 
Q 14.109375 46.140625 10.015625 43.890625 
L 10.015625 52.203125 
Q 14.9375 54.109375 19.578125 55.046875 
Q 24.21875 56 28.609375 56 
Q 40.484375 56 46.34375 49.84375 
Q 52.203125 43.703125 52.203125 31.203125 
z
" id="DejaVuSans-97"/>
      <path d="M 9.421875 75.984375 
L 18.40625 75.984375 
L 18.40625 0 
L 9.421875 0 
z
" id="DejaVuSans-108"/>
     </defs>
     <g transform="translate(17.92625 142.445)scale(0.16 -0.16)">
      <use xlink:href="#DejaVuSans-67"/>
      <use x="69.824219" xlink:href="#DejaVuSans-117"/>
      <use x="133.203125" xlink:href="#DejaVuSans-114"/>
      <use x="174.300781" xlink:href="#DejaVuSans-114"/>
      <use x="215.382812" xlink:href="#DejaVuSans-101"/>
      <use x="276.90625" xlink:href="#DejaVuSans-110"/>
      <use x="340.285156" xlink:href="#DejaVuSans-116"/>
      <use x="379.494141" xlink:href="#DejaVuSans-32"/>
      <use x="411.28125" xlink:href="#DejaVuSans-84"/>
      <use x="472.146484" xlink:href="#DejaVuSans-114"/>
      <use x="513.259766" xlink:href="#DejaVuSans-105"/>
      <use x="541.042969" xlink:href="#DejaVuSans-97"/>
      <use x="602.322266" xlink:href="#DejaVuSans-108"/>
      <use x="630.105469" xlink:href="#DejaVuSans-32"/>
      <use x="661.892578" xlink:href="#DejaVuSans-32"/>
      <use x="693.679688" xlink:href="#DejaVuSans-32"/>
      <use x="725.466797" xlink:href="#DejaVuSans-32"/>
      <use x="757.253906" xlink:href="#DejaVuSans-32"/>
      <use x="789.041016" xlink:href="#DejaVuSans-32"/>
      <use x="820.828125" xlink:href="#DejaVuSans-32"/>
      <use x="852.615234" xlink:href="#DejaVuSans-32"/>
      <use x="884.402344" xlink:href="#DejaVuSans-32"/>
      <use x="916.189453" xlink:href="#DejaVuSans-32"/>
      <use x="947.976562" xlink:href="#DejaVuSans-32"/>
      <use x="979.763672" xlink:href="#DejaVuSans-32"/>
      <use x="1011.550781" xlink:href="#DejaVuSans-32"/>
      <use x="1043.337891" xlink:href="#DejaVuSans-32"/>
      <use x="1075.125" xlink:href="#DejaVuSans-32"/>
      <use x="1106.912109" xlink:href="#DejaVuSans-32"/>
      <use x="1138.699219" xlink:href="#DejaVuSans-32"/>
      <use x="1170.486328" xlink:href="#DejaVuSans-32"/>
      <use x="1202.273438" xlink:href="#DejaVuSans-32"/>
      <use x="1234.060547" xlink:href="#DejaVuSans-32"/>
      <use x="1265.847656" xlink:href="#DejaVuSans-32"/>
      <use x="1297.634766" xlink:href="#DejaVuSans-32"/>
      <use x="1329.421875" xlink:href="#DejaVuSans-32"/>
     </g>
     <!-- (morph units)                        -->
     <g transform="translate(13.75625 160.3615)scale(0.16 -0.16)">
      <use xlink:href="#DejaVuSans-40"/>
      <use x="39.013672" xlink:href="#DejaVuSans-109"/>
      <use x="136.425781" xlink:href="#DejaVuSans-111"/>
      <use x="197.607422" xlink:href="#DejaVuSans-114"/>
      <use x="238.720703" xlink:href="#DejaVuSans-112"/>
      <use x="302.197266" xlink:href="#DejaVuSans-104"/>
      <use x="365.576172" xlink:href="#DejaVuSans-32"/>
      <use x="397.363281" xlink:href="#DejaVuSans-117"/>
      <use x="460.742188" xlink:href="#DejaVuSans-110"/>
      <use x="524.121094" xlink:href="#DejaVuSans-105"/>
      <use x="551.904297" xlink:href="#DejaVuSans-116"/>
      <use x="591.113281" xlink:href="#DejaVuSans-115"/>
      <use x="643.212891" xlink:href="#DejaVuSans-41"/>
      <use x="682.226562" xlink:href="#DejaVuSans-32"/>
      <use x="714.013672" xlink:href="#DejaVuSans-32"/>
      <use x="745.800781" xlink:href="#DejaVuSans-32"/>
      <use x="777.587891" xlink:href="#DejaVuSans-32"/>
      <use x="809.375" xlink:href="#DejaVuSans-32"/>
      <use x="841.162109" xlink:href="#DejaVuSans-32"/>
      <use x="872.949219" xlink:href="#DejaVuSans-32"/>
      <use x="904.736328" xlink:href="#DejaVuSans-32"/>
      <use x="936.523438" xlink:href="#DejaVuSans-32"/>
      <use x="968.310547" xlink:href="#DejaVuSans-32"/>
      <use x="1000.097656" xlink:href="#DejaVuSans-32"/>
      <use x="1031.884766" xlink:href="#DejaVuSans-32"/>
      <use x="1063.671875" xlink:href="#DejaVuSans-32"/>
      <use x="1095.458984" xlink:href="#DejaVuSans-32"/>
      <use x="1127.246094" xlink:href="#DejaVuSans-32"/>
      <use x="1159.033203" xlink:href="#DejaVuSans-32"/>
      <use x="1190.820312" xlink:href="#DejaVuSans-32"/>
      <use x="1222.607422" xlink:href="#DejaVuSans-32"/>
      <use x="1254.394531" xlink:href="#DejaVuSans-32"/>
      <use x="1286.181641" xlink:href="#DejaVuSans-32"/>
      <use x="1317.96875" xlink:href="#DejaVuSans-32"/>
      <use x="1349.755859" xlink:href="#DejaVuSans-32"/>
      <use x="1381.542969" xlink:href="#DejaVuSans-32"/>
     </g>
    </g>
   </g>
   <g id="line2d_15">
    <path clip-path="url(#p1238be6115)" d="M 157.8975 153.361287 
L 159.808459 152.625446 
L 161.719418 161.583934 
L 163.630377 166.783204 
L 165.541336 167.519666 
L 167.452295 170.328079 
L 169.363253 169.414694 
L 171.274212 174.104839 
L 173.185171 183.315516 
L 175.09613 189.09441 
L 177.007089 194.356838 
L 178.918048 189.442401 
L 180.829007 180.160608 
L 182.739966 180.244166 
L 184.650925 182.614089 
L 186.561884 183.853045 
L 188.472842 175.547275 
L 190.383801 178.165877 
L 194.205719 171.266303 
L 196.116678 181.813337 
L 198.027637 184.114561 
L 199.938596 181.905508 
L 201.849555 173.678397 
L 203.760514 178.386618 
L 205.671473 184.434549 
L 209.49339 193.941596 
L 211.404349 203.14026 
L 213.315308 201.496664 
L 215.226267 206.754718 
L 217.137226 206.407612 
L 219.048185 211.201314 
L 220.959144 208.308604 
L 222.870103 206.953575 
L 224.781062 214.395066 
L 226.692021 226.426819 
L 228.602979 232.824874 
L 230.513938 224.224425 
L 232.424897 216.333533 
L 234.335856 223.413144 
L 236.246815 214.469381 
L 238.157774 213.097381 
L 240.068733 215.515902 
L 241.979692 209.930214 
L 243.890651 215.849194 
L 245.80161 215.435685 
L 247.712568 233.656144 
L 249.623527 233.048344 
L 251.534486 229.819971 
L 253.445445 233.328795 
L 255.356404 235.961819 
L 257.267363 237.339129 
L 259.178322 240.788338 
L 261.089281 245.432132 
L 263.00024 242.685025 
L 264.911199 237.387257 
L 266.822158 243.208468 
L 268.733116 244.989484 
L 270.644075 240.355449 
L 272.555034 249.090642 
L 274.465993 229.070317 
L 276.376952 230.008302 
L 278.287911 223.676033 
L 282.109829 213.935264 
L 284.020788 206.928746 
L 285.931747 193.784109 
L 287.842705 185.15656 
L 289.753664 190.032198 
L 291.664623 186.46956 
L 293.575582 179.107181 
L 295.486541 179.182696 
L 297.3975 183.517494 
L 299.308459 175.304489 
L 301.219418 173.526344 
L 303.130377 161.253007 
L 305.041336 161.428437 
L 306.952295 146.96398 
L 308.863253 138.865494 
L 310.774212 128.844662 
L 312.685171 130.331734 
L 314.59613 115.977764 
L 316.507089 105.61146 
L 318.418048 106.982442 
L 320.329007 102.526597 
L 322.239966 100.674159 
L 324.150925 105.183991 
L 326.061884 109.075296 
L 327.972842 110.505677 
L 329.883801 109.542246 
L 331.79476 102.912761 
L 333.705719 103.554175 
L 335.616678 99.058311 
L 337.527637 108.053414 
L 341.349555 109.330556 
L 343.260514 106.097079 
L 345.171473 106.226223 
L 347.082432 104.475609 
L 348.99339 99.450361 
L 350.904349 108.275481 
L 352.815308 96.907824 
L 354.726267 94.407019 
L 356.637226 89.252358 
L 358.548185 85.66654 
L 360.459144 86.631014 
L 362.370103 91.224507 
L 364.281062 89.321001 
L 366.192021 97.179422 
L 368.102979 102.582006 
L 370.013938 104.950736 
L 371.924897 98.272828 
L 373.835856 103.77461 
L 375.746815 110.048626 
L 377.657774 103.469461 
L 379.568733 113.835863 
L 381.479692 112.398727 
L 383.390651 109.505157 
L 385.30161 99.86278 
L 387.212568 95.789562 
L 389.123527 87.047171 
L 391.034486 93.084964 
L 392.945445 102.2897 
L 394.856404 102.195669 
L 396.767363 96.795894 
L 398.678322 101.325553 
L 400.589281 103.37036 
L 402.50024 119.339183 
L 404.411199 125.63357 
L 406.322158 129.378339 
L 408.233116 126.409452 
L 410.144075 119.267217 
L 413.965993 145.7609 
L 415.876952 152.806882 
L 417.787911 150.45319 
L 419.69887 156.678144 
L 421.609829 156.992043 
L 423.520788 159.212165 
L 425.431747 155.520989 
L 427.342705 154.599258 
L 429.253664 149.181883 
L 431.164623 146.54801 
L 433.075582 148.434741 
L 434.986541 143.554162 
L 436.8975 153.361287 
L 436.8975 153.361287 
" style="fill:none;stroke:#4169e1;stroke-linecap:square;stroke-width:1.5;"/>
   </g>
   <g id="line2d_16">
    <path clip-path="url(#p1238be6115)" d="M 157.8975 163.689 
L 171.274212 174.471017 
L 178.918048 180.914993 
L 186.561884 187.708269 
L 192.29476 193.077254 
L 198.027637 198.691912 
L 205.671473 206.523125 
L 224.781062 226.534979 
L 228.602979 230.209615 
L 232.424897 233.596133 
L 236.246815 236.594408 
L 238.157774 237.913963 
L 240.068733 239.09467 
L 241.979692 240.121731 
L 243.890651 240.980128 
L 245.80161 241.654765 
L 247.712568 242.130617 
L 249.623527 242.392904 
L 251.534486 242.427274 
L 253.445445 242.219996 
L 255.356404 241.75817 
L 257.267363 241.029934 
L 259.178322 240.024684 
L 261.089281 238.733288 
L 263.00024 237.1483 
L 264.911199 235.264161 
L 266.822158 233.077393 
L 268.733116 230.586772 
L 270.644075 227.793477 
L 272.555034 224.701216 
L 274.465993 221.316318 
L 276.376952 217.647795 
L 278.287911 213.707359 
L 282.109829 205.070936 
L 285.931747 195.552941 
L 289.753664 185.336779 
L 295.486541 169.178474 
L 305.041336 142.041221 
L 308.863253 131.825059 
L 312.685171 122.307064 
L 316.507089 113.670641 
L 318.418048 109.730205 
L 320.329007 106.061682 
L 322.239966 102.676784 
L 324.150925 99.584523 
L 326.061884 96.791228 
L 327.972842 94.300607 
L 329.883801 92.113839 
L 331.79476 90.2297 
L 333.705719 88.644712 
L 335.616678 87.353316 
L 337.527637 86.348066 
L 339.438596 85.61983 
L 341.349555 85.158004 
L 343.260514 84.950726 
L 345.171473 84.985096 
L 347.082432 85.247383 
L 348.99339 85.723235 
L 350.904349 86.397872 
L 352.815308 87.256269 
L 354.726267 88.28333 
L 356.637226 89.464037 
L 360.459144 92.227539 
L 364.281062 95.433103 
L 368.102979 98.975517 
L 373.835856 104.71696 
L 383.390651 114.80093 
L 392.945445 124.814398 
L 400.589281 132.456189 
L 406.322158 137.907341 
L 412.055034 143.115638 
L 419.69887 149.722444 
L 427.342705 156.03151 
L 436.8975 163.689 
L 436.8975 163.689 
" style="fill:none;stroke:#ff0000;stroke-linecap:square;stroke-width:3.5;"/>
   </g>
   <g id="patch_3">
    <path d="M 157.8975 299.589 
L 157.8975 27.789 
" style="fill:none;stroke:#000000;stroke-linecap:square;stroke-linejoin:miter;stroke-width:2;"/>
   </g>
   <g id="patch_4">
    <path d="M 157.8975 299.589 
L 436.8975 299.589 
" style="fill:none;stroke:#000000;stroke-linecap:square;stroke-linejoin:miter;stroke-width:2;"/>
   </g>
   <g id="text_17">
    <!-- Radiologists -->
    <defs>
     <path d="M 45.40625 46.390625 
L 45.40625 75.984375 
L 54.390625 75.984375 
L 54.390625 0 
L 45.40625 0 
L 45.40625 8.203125 
Q 42.578125 3.328125 38.25 0.953125 
Q 33.9375 -1.421875 27.875 -1.421875 
Q 17.96875 -1.421875 11.734375 6.484375 
Q 5.515625 14.40625 5.515625 27.296875 
Q 5.515625 40.1875 11.734375 48.09375 
Q 17.96875 56 27.875 56 
Q 33.9375 56 38.25 53.625 
Q 42.578125 51.265625 45.40625 46.390625 
z
M 14.796875 27.296875 
Q 14.796875 17.390625 18.875 11.75 
Q 22.953125 6.109375 30.078125 6.109375 
Q 37.203125 6.109375 41.296875 11.75 
Q 45.40625 17.390625 45.40625 27.296875 
Q 45.40625 37.203125 41.296875 42.84375 
Q 37.203125 48.484375 30.078125 48.484375 
Q 22.953125 48.484375 18.875 42.84375 
Q 14.796875 37.203125 14.796875 27.296875 
z
" id="DejaVuSans-100"/>
     <path d="M 45.40625 27.984375 
Q 45.40625 37.75 41.375 43.109375 
Q 37.359375 48.484375 30.078125 48.484375 
Q 22.859375 48.484375 18.828125 43.109375 
Q 14.796875 37.75 14.796875 27.984375 
Q 14.796875 18.265625 18.828125 12.890625 
Q 22.859375 7.515625 30.078125 7.515625 
Q 37.359375 7.515625 41.375 12.890625 
Q 45.40625 18.265625 45.40625 27.984375 
z
M 54.390625 6.78125 
Q 54.390625 -7.171875 48.1875 -13.984375 
Q 42 -20.796875 29.203125 -20.796875 
Q 24.46875 -20.796875 20.265625 -20.09375 
Q 16.0625 -19.390625 12.109375 -17.921875 
L 12.109375 -9.1875 
Q 16.0625 -11.328125 19.921875 -12.34375 
Q 23.78125 -13.375 27.78125 -13.375 
Q 36.625 -13.375 41.015625 -8.765625 
Q 45.40625 -4.15625 45.40625 5.171875 
L 45.40625 9.625 
Q 42.625 4.78125 38.28125 2.390625 
Q 33.9375 0 27.875 0 
Q 17.828125 0 11.671875 7.65625 
Q 5.515625 15.328125 5.515625 27.984375 
Q 5.515625 40.671875 11.671875 48.328125 
Q 17.828125 56 27.875 56 
Q 33.9375 56 38.28125 53.609375 
Q 42.625 51.21875 45.40625 46.390625 
L 45.40625 54.6875 
L 54.390625 54.6875 
z
" id="DejaVuSans-103"/>
    </defs>
    <g transform="translate(239.1435 21.789)scale(0.192 -0.192)">
     <use xlink:href="#DejaVuSans-82"/>
     <use x="69.451172" xlink:href="#DejaVuSans-97"/>
     <use x="130.730469" xlink:href="#DejaVuSans-100"/>
     <use x="194.207031" xlink:href="#DejaVuSans-105"/>
     <use x="221.990234" xlink:href="#DejaVuSans-111"/>
     <use x="283.171875" xlink:href="#DejaVuSans-108"/>
     <use x="310.955078" xlink:href="#DejaVuSans-111"/>
     <use x="372.136719" xlink:href="#DejaVuSans-103"/>
     <use x="435.613281" xlink:href="#DejaVuSans-105"/>
     <use x="463.396484" xlink:href="#DejaVuSans-115"/>
     <use x="515.496094" xlink:href="#DejaVuSans-116"/>
     <use x="554.705078" xlink:href="#DejaVuSans-115"/>
    </g>
   </g>
  </g>
 </g>
 <defs>
  <clipPath id="p1238be6115">
   <rect height="271.8" width="279" x="157.8975" y="27.789"/>
  </clipPath>
 </defs>
</svg>
