<?xml version="1.0" encoding="utf-8"?>
<!-- Generator: Adobe Illustrator 24.1.2, SVG Export Plug-In . SVG Version: 6.00 Build 0)  -->
<svg version="1.1" id="Layer_1" xmlns="http://www.w3.org/2000/svg" xmlns:xlink="http://www.w3.org/1999/xlink" x="0px" y="0px"
	 viewBox="0 0 1500 1500" style="enable-background:new 0 0 1500 1500;" xml:space="preserve">
<style type="text/css">
	.st0{fill:#FFFFFF;}
	.st1{clip-path:url(#SVGID_2_);}
	.st2{fill:#88CDEA;fill-opacity:0.2;stroke:#88CDEA;stroke-linejoin:round;stroke-opacity:0.2;}
	.st3{fill:#010101;stroke:#010101;stroke-width:2;stroke-linejoin:round;}
	.st4{fill:#010101;}
	.st5{clip-path:url(#SVGID_4_);fill:none;stroke:#4E69B2;stroke-width:3;stroke-linecap:square;stroke-linejoin:round;}
	.st6{clip-path:url(#SVGID_6_);fill:none;stroke:#196533;stroke-width:3.5;stroke-linecap:square;stroke-linejoin:round;}
	.st7{fill:none;stroke:#010101;stroke-width:2;stroke-linecap:square;}
	.st8{font-family:'MyriadPro-Regular';}
	.st9{font-size:18px;}
	.st10{fill:none;stroke:#4E69B2;stroke-width:3;stroke-linecap:square;stroke-linejoin:round;}
	.st11{fill:none;stroke:#006033;stroke-width:3;stroke-linecap:square;stroke-linejoin:round;}
</style>
<g id="figure_1">
	<g id="patch_1">
		<path class="st0" d="M206.1,800.01h620.99V323.87H206.1V800.01z"/>
	</g>
	<g id="axes_1">
		<g id="patch_2">
			<path class="st0" d="M421.94,716.64h381.39V360.3H421.94V716.64z"/>
		</g>
		<g id="PolyCollection_1">
			<g>
				<defs>
					<rect id="SVGID_1_" x="421.94" y="360.3" width="381.39" height="356.34"/>
				</defs>
				<clipPath id="SVGID_2_">
					<use xlink:href="#SVGID_1_"  style="overflow:visible;"/>
				</clipPath>
				<g class="st1">
					<g>
						<path id="mf78ba1fe29" class="st2" d="M421.94,564.95v-47.66l2.61-2.25l2.61,3.11l2.61,13.55l2.61,1.88l2.61,10.85l2.61-2.97
							l2.61,2.82l2.61,11.77l2.61,9.61l2.61,1.58l2.61-5.63l2.61-9.28l2.61,5.43l2.61-0.09l2.61,3.32l2.61-3.06l2.61,2.95l2.61-5.78
							l2.61-1.2l2.61,14.52l2.61,6.01l2.61-1.47l2.61-6.91l2.61,6l2.61,7.5l2.61-2.01l2.61,5.45l2.61,5.74l2.61-7.89l2.61,6.89
							l2.61-4.09l2.61,5.02l2.61,1.73l2.61-3.9l2.61,10.62l2.61,12.89l2.61,7.25l2.61-10.37l2.61-11.95l2.61,4.83l2.61-3.7
							l2.61-2.29l2.61,5.95l2.61-10.35l2.61,7.13l2.61-0.52l2.61,9.78l2.61,2.68l2.61-3.06l2.61,5.49l2.61,0.68l2.61,0.64l2.61,9.21
							l2.61,3.55l2.61-3.86l2.61-3.65l2.61,4.69l2.61,5.45l2.61-13.42l2.61,4.8l2.61-23.55l2.61,5.51l2.61-5.39l2.61-5.38
							l2.61-12.41l2.61-9l2.61-10.73l2.61-9.16l2.61,7.73l2.61-5.21l2.61-0.47l2.61-11.86l2.61-1.28l2.61-5.35l2.61,1.19l2.61-17.12
							l2.61-0.88l2.61-18.89l2.61-10.92l2.61-18.04l2.61,0.17l2.61-19.21l2.61-6.43l2.61-1.9l2.61-8.83l2.61-2l2.61,2.35l2.61,3.39
							l2.61,3.35l2.61,3.23l2.61-11.88l2.61,0.51l2.61-5.47l2.61,7.2l2.61,5.59l2.61,10.41l2.61-0.34l2.61-0.08l2.61-3.02l2.61-9.24
							l2.61,3.28l2.61-21.77l2.61,2.08l2.61-2.3l2.61-12.62l2.61,9.17l2.61,4.84l2.61-11.56l2.61,11.11l2.61,9.35l2.61,2.82
							l2.61-14.49l2.61,2.26l2.61,0.94l2.61-7.88l2.61,11.93l2.61-1.05l2.61-1.18l2.61-13.3l2.61-7.81l2.61-9.97l2.61,9l2.61,12.18
							l2.61,4.27l2.61-10.74l2.61,8.05l2.61,3.78l2.61,23.85l2.61,6.06l2.61,9.61l2.61-5.05l2.61-5.32l2.61,21.07l2.61,16.35
							l2.61,5.96l2.61-0.6l2.61,6.68l2.61,1.68l2.61,5.74l2.61-1.09l2.61-4.7l2.61-2l2.61-4.77l2.61-1.89l2.61,7.06l2.61,22.68
							v47.66l0,0l-2.61-23.78l-2.61-3.75l-2.61-10.19l-2.61,2.69l-2.61,2.62l-2.61,2.39l-2.61,4.55l-2.61-4.62l-2.61,3.78
							l-2.61-2.57l-2.61-3.96l-2.61-3.91l-2.61-20.34l-2.61-19.47l-2.61,8.32l-2.61-4.95l-2.61-9.36l-2.61-6.86l-2.61-12.13
							l-2.61,2.09l-2.61-2.34l-2.61,4l-2.61-2.41l-2.61-12.04l-2.61-7.93l-2.61,13.92l-2.61,4.06l-2.61,9.68l-2.61-2.88l-2.61,1.72
							l-2.61-10.91l-2.61,12.35l-2.61-0.09l-2.61-10.66l-2.61,10.54l-2.61-6.84l-2.61-7.91l-2.61-16.05l-2.61,10.79l-2.61-1.76
							l-2.61-1.19l-2.61,11.94l-2.61-2.45l-2.61,0.86l-2.61,21.97l-2.61-7.03l-2.61,6.87l-2.61,6.33l-2.61,5.87l-2.61,1.58
							l-2.61-3.91l-2.61-1.83l-2.61-3.12l-2.61,9.91l-2.61,0.37l-2.61,5.73l-2.61,1.97l-2.61-2.76l-2.61-2.24l-2.61-1.7l-2.61-0.84
							l-2.61,4.17l-2.61,1.64l-2.61,9.57l-2.61,14.02l-2.61,2.84l-2.61,13.16l-2.61,10.43l-2.61,14.76l-2.61-3.94l-2.61,16.73
							l-2.61,5.78l-2.61,4.71l-2.61-6.98l-2.61,11.22l-2.61-0.23l-2.61,3.54l-2.61-4.88l-2.61,9.1l-2.61,15.7l-2.61,10.15
							l-2.61,10.34l-2.61,13.61l-2.61,14.06l-2.61-5.31l-2.61,24.48l-2.61-14.81l-2.61,6.16l-2.61-2.46l-2.61-10.78l-2.61,3.28
							l-2.61,7.33l-2.61-2.78l-2.61-7.12l-2.61-1.42l-2.61-1.7l-2.61-7.28l-2.61,1.84l-2.61,1.21l-2.61-14.19l-2.61-3.23l-2.61-9.77
							l-2.61,10.53l-2.61-5.77l-2.61,0.18l-2.61,6.63l-2.61-1.71l-2.61,8.88l-2.61,10.04l-2.61-6.92l-2.61-5.37l-2.61-7.53
							l-2.61,4.22l-2.61,0.8l-2.61-5.15l-2.61,8.19l-2.61-5.36l-2.61,5.83l-2.61-4.65l-2.61-5.28l-2.61,1.4l-2.61-3.82l-2.61,1.09
							l-2.61,8.87l-2.61-2.38l-2.61-1.74l-2.61-11.21l-2.61,0.27l-2.61,2.65l-2.61-3.02l-2.61,2.65l-2.61-2.21l-2.61-6.81
							l-2.61-6.03l-2.61,10.66l-2.61,4.67l-2.61-7.7l-2.61-19.78l-2.61-12.51l-2.61-2.62l-2.61,4.34l-2.61-7.83l-2.61,1.42
							l-2.61-14.25l-2.61-4.92L421.94,564.95z"/>
					</g>
				</g>
			</g>
		</g>
		<g id="matplotlib.axis_1">
			<g id="xtick_1">
				<g id="line2d_1">
					<g>
						<g>
							<path id="md84410b78d" class="st3" d="M421.94,716.64v-7.87"/>
						</g>
					</g>
				</g>
				<g id="text_1">
					<g transform="translate(144.83125 315.2465)scale(0.16 -0.16)">
						<g>
							<path id="DejaVuSans-45" class="st4" d="M1626.99-2595.86h35.97v-10.49h-35.97V-2595.86z"/>
						</g>
						<g>
							<path id="DejaVuSans-55" class="st4" d="M1680.84-2541.44h64.08v-5.51l-36.18-90.07h-14.08l34.05,84.68h-47.87V-2541.44z"/>
						</g>
						<g>
							<path id="DejaVuSans-51" class="st4" d="M1812.07-2585.48c6.45-1.32,11.48-4.08,15.1-8.28c3.63-4.18,5.45-9.34,5.45-15.49
								c0-9.42-3.38-16.72-10.15-21.9c-6.76-5.16-16.38-7.74-28.83-7.74c-4.17,0-8.47,0.4-12.9,1.19s-9,1.98-13.71,3.56v12.48
								c3.73-2.09,7.82-3.67,12.26-4.73c4.46-1.07,9.11-1.6,13.97-1.6c8.44,0,14.88,1.6,19.31,4.79c4.43,3.2,6.64,7.85,6.64,13.95
								c0,5.64-2.06,10.04-6.17,13.21c-4.12,3.18-9.84,4.77-17.17,4.77h-11.62v10.63h12.15c6.62,0,11.69,1.27,15.21,3.81
								c3.52,2.54,5.28,6.2,5.28,10.98c0,4.9-1.82,8.67-5.45,11.29c-3.62,2.64-8.81,3.95-15.57,3.95c-3.7,0-7.67-0.39-11.9-1.17
								c-4.23-0.76-8.88-1.95-13.95-3.56v11.51c5.13,1.37,9.92,2.39,14.4,3.07c4.47,0.68,8.69,1.02,12.64,1.02
								c10.24,0,18.33-2.23,24.29-6.7c5.97-4.45,8.95-10.47,8.95-18.07c0-5.3-1.58-9.77-4.74-13.42
								C1822.39-2581.55,1817.89-2584.07,1812.07-2585.48z"/>
						</g>
					</g>
				</g>
			</g>
			<g id="xtick_2">
				<g id="line2d_2">
					<g>
						<g>
							<path id="md84410b78d_1_" class="st3" d="M482.02,716.64v-7.87"/>
						</g>
					</g>
				</g>
				<g id="text_2">
					<g transform="translate(188.783305 315.2465)scale(0.16 -0.16)">
						<g>
							<path id="DejaVuSans-45_1_" class="st4" d="M1727.8-2595.86h35.97v-10.49h-35.97V-2595.86z"/>
						</g>
						<g>
							<path id="DejaVuSans-53" class="st4" d="M1785.2-2541.44h52.93v-10.9h-40.58v-23.41c1.95,0.64,3.9,1.12,5.85,1.43
								c1.96,0.31,3.93,0.47,5.9,0.47c11.12,0,19.93-2.92,26.42-8.77c6.51-5.84,9.76-13.76,9.76-23.74
								c0-10.28-3.34-18.28-10.02-23.99c-6.68-5.69-16.09-8.54-28.24-8.54c-4.19,0-8.45,0.34-12.79,1.02
								c-4.33,0.68-8.81,1.71-13.43,3.07v13.01c4-2.09,8.14-3.65,12.41-4.67c4.27-1.02,8.79-1.54,13.54-1.54
								c7.7,0,13.8,1.94,18.28,5.82c4.5,3.88,6.75,9.15,6.75,15.81c0,6.65-2.25,11.92-6.75,15.79c-4.49,3.89-10.58,5.84-18.28,5.84
								c-3.6,0-7.2-0.38-10.79-1.15c-3.57-0.76-7.23-1.96-10.96-3.58V-2541.44z"/>
						</g>
						<g>
							<path id="DejaVuSans-48" class="st4" d="M1900.86-2549.96c-6.93,0-12.15-3.28-15.66-9.83c-3.49-6.54-5.23-16.39-5.23-29.54
								c0-13.1,1.74-22.92,5.23-29.48c3.5-6.56,8.72-9.83,15.66-9.83c6.99,0,12.23,3.28,15.72,9.83c3.5,6.56,5.25,16.38,5.25,29.48
								c0,13.15-1.75,23-5.25,29.54C1913.09-2553.24,1907.85-2549.96,1900.86-2549.96z M1900.86-2539.72
								c11.18,0,19.71-4.24,25.61-12.72c5.9-8.47,8.84-20.76,8.84-36.89c0-16.09-2.95-28.37-8.84-36.85
								c-5.9-8.47-14.43-12.7-25.61-12.7c-11.16,0-19.69,4.23-25.59,12.7c-5.9,8.48-8.84,20.76-8.84,36.85
								c0,16.13,2.95,28.43,8.84,36.89C1881.16-2543.96,1889.69-2539.72,1900.86-2539.72z"/>
						</g>
					</g>
				</g>
			</g>
			<g id="xtick_3">
				<g id="line2d_3">
					<g>
						<g>
							<path id="md84410b78d_2_" class="st3" d="M547.33,716.64v-7.87"/>
						</g>
					</g>
				</g>
				<g id="text_3">
					<g transform="translate(236.557277 315.2465)scale(0.16 -0.16)">
						<g>
							<path id="DejaVuSans-45_2_" class="st4" d="M1837.38-2595.86h35.97v-10.49h-35.97V-2595.86z"/>
						</g>
						<g>
							<path id="DejaVuSans-50" class="st4" d="M1906.25-2626.14h47.05v-10.88h-63.27v10.88c5.11,5.08,12.08,11.89,20.91,20.44
								c8.84,8.56,14.4,14.09,16.66,16.57c4.31,4.64,7.33,8.58,9.03,11.8c1.72,3.22,2.58,6.39,2.58,9.5c0,5.08-1.86,9.22-5.57,12.41
								c-3.72,3.21-8.56,4.81-14.52,4.81c-4.23,0-8.69-0.7-13.39-2.11c-4.68-1.41-9.7-3.54-15.04-6.41v13.07
								c5.43,2.09,10.49,3.67,15.21,4.73c4.73,1.07,9.05,1.6,12.97,1.6c10.32,0,18.55-2.48,24.69-7.44
								c6.14-4.94,9.21-11.55,9.21-19.83c0-3.93-0.77-7.66-2.31-11.18c-1.52-3.51-4.31-7.65-8.37-12.43
								c-1.11-1.24-4.65-4.82-10.62-10.73C1925.52-2607.25,1917.11-2615.52,1906.25-2626.14z"/>
						</g>
						<g>
							<path id="DejaVuSans-53_1_" class="st4" d="M1981.75-2541.44h52.93v-10.9h-40.58v-23.41c1.95,0.64,3.9,1.12,5.85,1.43
								c1.97,0.31,3.93,0.47,5.9,0.47c11.12,0,19.93-2.92,26.42-8.77c6.51-5.84,9.76-13.76,9.76-23.74
								c0-10.28-3.34-18.28-10.02-23.99c-6.68-5.69-16.09-8.54-28.24-8.54c-4.19,0-8.45,0.34-12.79,1.02
								c-4.33,0.68-8.81,1.71-13.43,3.07v13.01c4-2.09,8.14-3.65,12.41-4.67c4.27-1.02,8.79-1.54,13.54-1.54
								c7.7,0,13.8,1.94,18.28,5.82c4.5,3.88,6.75,9.15,6.75,15.81c0,6.65-2.25,11.92-6.75,15.79c-4.49,3.89-10.58,5.84-18.28,5.84
								c-3.6,0-7.2-0.38-10.79-1.15c-3.57-0.76-7.23-1.96-10.96-3.58V-2541.44z"/>
						</g>
					</g>
				</g>
			</g>
			<g id="xtick_4">
				<g id="line2d_4">
					<g>
						<g>
							<path id="md84410b78d_3_" class="st3" d="M612.64,716.64v-7.87"/>
						</g>
					</g>
				</g>
				<g id="text_4">
					<g transform="translate(292.3075 315.2465)scale(0.16 -0.16)">
						<g>
							<path id="DejaVuSans-48_1_" class="st4" d="M2002.01-2549.96c-6.93,0-12.15-3.28-15.66-9.83
								c-3.49-6.54-5.23-16.39-5.23-29.54c0-13.1,1.74-22.92,5.23-29.48c3.5-6.56,8.72-9.83,15.66-9.83
								c6.99,0,12.23,3.28,15.72,9.83c3.5,6.56,5.25,16.38,5.25,29.48c0,13.15-1.75,23-5.25,29.54
								C2014.24-2553.24,2009-2549.96,2002.01-2549.96z M2002.01-2539.72c11.18,0,19.71-4.24,25.61-12.72
								c5.9-8.47,8.84-20.76,8.84-36.89c0-16.09-2.95-28.37-8.84-36.85c-5.9-8.47-14.43-12.7-25.61-12.7
								c-11.16,0-19.69,4.23-25.59,12.7c-5.9,8.48-8.84,20.76-8.84,36.85c0,16.13,2.95,28.43,8.84,36.89
								C1982.32-2543.96,1990.85-2539.72,2002.01-2539.72z"/>
						</g>
					</g>
				</g>
			</g>
			<g id="xtick_5">
				<g id="line2d_5">
					<g>
						<g>
							<path id="md84410b78d_4_" class="st3" d="M677.94,716.64v-7.87"/>
						</g>
					</g>
				</g>
				<g id="text_5">
					<g transform="translate(334.991473 315.2465)scale(0.16 -0.16)">
						<g>
							<path id="DejaVuSans-50_1_" class="st4" d="M2082.7-2626.14h47.05v-10.88h-63.27v10.88c5.11,5.08,12.08,11.89,20.91,20.44
								c8.84,8.56,14.4,14.09,16.66,16.57c4.31,4.64,7.33,8.58,9.03,11.8c1.72,3.22,2.58,6.39,2.58,9.5c0,5.08-1.86,9.22-5.57,12.41
								c-3.72,3.21-8.56,4.81-14.52,4.81c-4.23,0-8.69-0.7-13.39-2.11c-4.68-1.41-9.7-3.54-15.04-6.41v13.07
								c5.43,2.09,10.49,3.67,15.21,4.73c4.73,1.07,9.05,1.6,12.97,1.6c10.32,0,18.55-2.48,24.69-7.44
								c6.14-4.94,9.21-11.55,9.21-19.83c0-3.93-0.77-7.66-2.31-11.18c-1.52-3.51-4.31-7.65-8.37-12.43
								c-1.11-1.24-4.65-4.82-10.62-10.73C2101.97-2607.25,2093.56-2615.52,2082.7-2626.14z"/>
						</g>
						<g>
							<path id="DejaVuSans-53_2_" class="st4" d="M2158.2-2541.44h52.93v-10.9h-40.58v-23.41c1.95,0.64,3.9,1.12,5.85,1.43
								c1.97,0.31,3.93,0.47,5.9,0.47c11.12,0,19.93-2.92,26.42-8.77c6.51-5.84,9.76-13.76,9.76-23.74
								c0-10.28-3.34-18.28-10.02-23.99c-6.68-5.69-16.09-8.54-28.24-8.54c-4.19,0-8.45,0.34-12.79,1.02
								c-4.33,0.68-8.81,1.71-13.43,3.07v13.01c4-2.09,8.14-3.65,12.41-4.67c4.27-1.02,8.79-1.54,13.54-1.54
								c7.7,0,13.8,1.94,18.28,5.82c4.5,3.88,6.75,9.15,6.75,15.81c0,6.65-2.25,11.92-6.75,15.79c-4.49,3.89-10.58,5.84-18.28,5.84
								c-3.6,0-7.2-0.38-10.79-1.15c-3.57-0.76-7.23-1.96-10.96-3.58V-2541.44z"/>
						</g>
					</g>
				</g>
			</g>
			<g id="xtick_6">
				<g id="line2d_6">
					<g>
						<g>
							<path id="md84410b78d_5_" class="st3" d="M743.25,716.64v-7.87"/>
						</g>
					</g>
				</g>
				<g id="text_6">
					<g transform="translate(382.765445 315.2465)scale(0.16 -0.16)">
						<g>
							<path id="DejaVuSans-53_3_" class="st4" d="M2180.81-2541.44h52.93v-10.9h-40.58v-23.41c1.95,0.64,3.9,1.12,5.85,1.43
								c1.96,0.31,3.93,0.47,5.9,0.47c11.12,0,19.93-2.92,26.42-8.77c6.51-5.84,9.76-13.76,9.76-23.74
								c0-10.28-3.34-18.28-10.02-23.99c-6.68-5.69-16.09-8.54-28.24-8.54c-4.19,0-8.45,0.34-12.79,1.02
								c-4.33,0.68-8.81,1.71-13.44,3.07v13.01c4-2.09,8.14-3.65,12.41-4.67c4.27-1.02,8.79-1.54,13.54-1.54
								c7.7,0,13.8,1.94,18.28,5.82c4.5,3.88,6.75,9.15,6.75,15.81c0,6.65-2.25,11.92-6.75,15.79c-4.49,3.89-10.58,5.84-18.28,5.84
								c-3.6,0-7.2-0.38-10.79-1.15c-3.57-0.76-7.23-1.96-10.96-3.58V-2541.44z"/>
						</g>
						<g>
							<path id="DejaVuSans-48_2_" class="st4" d="M2296.47-2549.96c-6.93,0-12.15-3.28-15.66-9.83
								c-3.49-6.54-5.23-16.39-5.23-29.54c0-13.1,1.74-22.92,5.23-29.48c3.5-6.56,8.72-9.83,15.66-9.83
								c6.99,0,12.23,3.28,15.72,9.83c3.5,6.56,5.25,16.38,5.25,29.48c0,13.15-1.75,23-5.25,29.54
								C2308.7-2553.24,2303.46-2549.96,2296.47-2549.96z M2296.47-2539.72c11.18,0,19.71-4.24,25.61-12.72
								c5.9-8.47,8.84-20.76,8.84-36.89c0-16.09-2.95-28.37-8.84-36.85c-5.9-8.47-14.43-12.7-25.61-12.7
								c-11.16,0-19.69,4.23-25.59,12.7c-5.9,8.48-8.84,20.76-8.84,36.85c0,16.13,2.95,28.43,8.84,36.89
								C2276.77-2543.96,2285.3-2539.72,2296.47-2539.72z"/>
						</g>
					</g>
				</g>
			</g>
			<g id="xtick_7">
				<g id="line2d_7">
					<g>
						<g>
							<path id="md84410b78d_6_" class="st3" d="M803.33,716.64v-7.87"/>
						</g>
					</g>
				</g>
				<g id="text_7">
					<g transform="translate(426.7175 315.2465)scale(0.16 -0.16)">
						<g>
							<path id="DejaVuSans-55_1_" class="st4" d="M2278.08-2541.44h64.08v-5.51l-36.18-90.07h-14.08l34.05,84.68h-47.87V-2541.44z"
								/>
						</g>
						<g>
							<path id="DejaVuSans-51_1_" class="st4" d="M2409.31-2585.48c6.45-1.32,11.48-4.08,15.1-8.28c3.63-4.18,5.45-9.34,5.45-15.49
								c0-9.42-3.38-16.72-10.15-21.9c-6.76-5.16-16.38-7.74-28.83-7.74c-4.17,0-8.47,0.4-12.9,1.19c-4.43,0.79-9,1.98-13.71,3.56
								v12.48c3.73-2.09,7.82-3.67,12.26-4.73c4.46-1.07,9.11-1.6,13.97-1.6c8.44,0,14.88,1.6,19.31,4.79
								c4.43,3.2,6.64,7.85,6.64,13.95c0,5.64-2.06,10.04-6.17,13.21c-4.12,3.18-9.84,4.77-17.17,4.77h-11.62v10.63h12.15
								c6.62,0,11.69,1.27,15.21,3.81s5.28,6.2,5.28,10.98c0,4.9-1.82,8.67-5.45,11.29c-3.62,2.64-8.81,3.95-15.57,3.95
								c-3.7,0-7.67-0.39-11.9-1.17c-4.23-0.76-8.88-1.95-13.95-3.56v11.51c5.13,1.37,9.92,2.39,14.4,3.07
								c4.47,0.68,8.69,1.02,12.64,1.02c10.24,0,18.33-2.23,24.29-6.7c5.97-4.45,8.95-10.47,8.95-18.07c0-5.3-1.58-9.77-4.74-13.42
								S2415.13-2584.07,2409.31-2585.48z"/>
						</g>
					</g>
				</g>
			</g>
			<g id="text_8">
				<g transform="translate(168.03375 334.7315)scale(0.16 -0.16)">
					<g>
						<path id="DejaVuSans-80" class="st4" d="M1700.41-2589.95v-35.91h16.96c6.28,0,11.13,1.56,14.55,4.67
							c3.43,3.11,5.15,7.55,5.15,13.32c0,5.72-1.72,10.14-5.15,13.25c-3.42,3.11-8.27,4.67-14.55,4.67H1700.41z M1686.93-2579.31
							h30.44c11.18,0,19.62-2.42,25.33-7.27c5.72-4.85,8.59-11.94,8.59-21.28c0-9.44-2.86-16.57-8.59-21.39
							c-5.71-4.82-14.15-7.23-25.33-7.23h-16.96v-38.41h-13.48V-2579.31z"/>
					</g>
					<g>
						<path id="DejaVuSans-114" class="st4" d="M1812.13-2614.2c-1.38,0.76-2.88,1.32-4.51,1.68c-1.62,0.37-3.41,0.55-5.36,0.55
							c-6.95,0-12.28-2.16-16-6.49c-3.72-4.33-5.57-10.55-5.57-18.66v-37.77h-12.35v71.7h12.35v-11.14
							c2.59,4.36,5.95,7.59,10.08,9.69c4.14,2.12,9.18,3.18,15.1,3.18c0.84,0,1.77-0.05,2.8-0.16c1.03-0.1,2.16-0.25,3.4-0.47
							L1812.13-2614.2z"/>
					</g>
					<g>
						<path id="DejaVuSans-101" class="st4" d="M1888.92-2636.1v-5.76h-56.47c0.54-8.11,3.09-14.29,7.65-18.54
							c4.56-4.25,10.91-6.37,19.05-6.37c4.71,0,9.28,0.55,13.71,1.66c4.43,1.11,8.83,2.77,13.2,5v-11.14
							c-4.41-1.79-8.94-3.15-13.56-4.1c-4.63-0.94-9.32-1.41-14.08-1.41c-11.93,0-21.38,3.33-28.34,9.98
							c-6.96,6.66-10.44,15.68-10.44,27.04c0,11.73,3.3,21.04,9.91,27.92c6.61,6.9,15.52,10.34,26.74,10.34
							c10.05,0,18.01-3.11,23.86-9.32C1885.99-2617,1888.92-2625.43,1888.92-2636.1z M1876.64-2632.64
							c-0.09,6.43-1.97,11.57-5.64,15.4c-3.67,3.85-8.54,5.78-14.59,5.78c-6.85,0-12.33-1.86-16.45-5.57s-6.49-8.95-7.11-15.69
							L1876.64-2632.64z"/>
					</g>
					<g>
						<path id="DejaVuSans-118" class="st4" d="M1900.27-2603.2h13.01l23.37-60.16l23.37,60.16h13.01l-28.04-71.7h-16.68
							L1900.27-2603.2z"/>
					</g>
					<g>
						<path id="DejaVuSans-105" class="st4" d="M1989.97-2603.2h12.28v-71.7h-12.28V-2603.2z M1989.97-2575.28h12.28v-14.93h-12.28
							V-2575.28z"/>
					</g>
					<g>
						<path id="DejaVuSans-111" class="st4" d="M2056.91-2611.45c-6.58,0-11.78-2.47-15.61-7.4c-3.83-4.93-5.75-11.68-5.75-20.26
							c0-8.58,1.9-15.33,5.7-20.26c3.82-4.93,9.04-7.4,15.66-7.4c6.55,0,11.73,2.47,15.55,7.42c3.83,4.96,5.75,11.7,5.75,20.24
							c0,8.49-1.92,15.23-5.75,20.2C2068.65-2613.94,2063.46-2611.45,2056.91-2611.45z M2056.91-2601.48
							c10.68,0,19.07-3.33,25.16-10c6.11-6.65,9.16-15.86,9.16-27.63c0-11.73-3.05-20.94-9.16-27.63
							c-6.09-6.68-14.48-10.02-25.16-10.02c-10.72,0-19.12,3.34-25.2,10.02c-6.07,6.69-9.1,15.9-9.1,27.63
							c0,11.77,3.03,20.98,9.1,27.63C2037.79-2604.81,2046.19-2601.48,2056.91-2601.48z"/>
					</g>
					<g>
						<path id="DejaVuSans-117" class="st4" d="M2110.32-2646.61v43.41h12.28v-42.96c0-6.79,1.37-11.88,4.12-15.28
							c2.76-3.39,6.91-5.08,12.43-5.08c6.62,0,11.85,2.03,15.7,6.08c3.86,4.06,5.79,9.59,5.79,16.59v40.64h12.28v-71.7h-12.28v11.02
							c-2.98-4.36-6.44-7.59-10.38-9.71c-3.93-2.12-8.5-3.18-13.71-3.18c-8.59,0-15.11,2.56-19.57,7.68
							C2112.55-2663.96,2110.32-2656.47,2110.32-2646.61z"/>
					</g>
					<g>
						<path id="DejaVuSans-115" class="st4" d="M2245.88-2605.31v-11.14c-3.46,1.71-7.06,2.98-10.81,3.83
							c-3.73,0.86-7.6,1.29-11.62,1.29c-6.09,0-10.67-0.89-13.71-2.68c-3.05-1.79-4.57-4.48-4.57-8.07c0-2.73,1.09-4.88,3.27-6.43
							s6.56-3.04,13.16-4.45l4.21-0.9c8.71-1.79,14.91-4.32,18.58-7.58s5.51-7.82,5.51-13.66c0-6.66-2.75-11.94-8.24-15.83
							c-5.5-3.88-13.05-5.82-22.66-5.82c-4,0-8.17,0.38-12.52,1.13c-4.34,0.75-8.91,1.87-13.71,3.36v12.17
							c4.54-2.27,9.01-3.97,13.41-5.1c4.4-1.12,8.76-1.68,13.09-1.68c5.78,0,10.22,0.95,13.33,2.85c3.12,1.9,4.68,4.57,4.68,8.03
							c0,3.2-1.12,5.65-3.37,7.35c-2.24,1.71-7.16,3.35-14.78,4.94l-4.27,0.96c-7.6,1.53-13.1,3.89-16.49,7.07
							c-3.37,3.18-5.06,7.55-5.06,13.09c0,6.75,2.49,11.95,7.48,15.61c4.98,3.67,12.06,5.51,21.23,5.51c4.53,0,8.79-0.32,12.79-0.96
							C2238.81-2603.07,2242.5-2604.03,2245.88-2605.31z"/>
					</g>
					<g>
						<path id="DejaVuSans-32" class="st4" d="M2256.56-2674.9"/>
					</g>
					<g>
						<path id="DejaVuSans-84" class="st4" d="M2299.61-2579.31h84.3v-10.9h-35.37v-84.68H2335v84.68h-35.39V-2579.31z"/>
					</g>
					<g>
						<path id="DejaVuSans-117_1_" class="st4" d="M2394.82-2646.61v43.41h12.28v-42.96c0-6.79,1.37-11.88,4.12-15.28
							c2.76-3.39,6.91-5.08,12.43-5.08c6.62,0,11.85,2.03,15.7,6.08c3.86,4.06,5.79,9.59,5.79,16.59v40.64h12.28v-71.7h-12.28v11.02
							c-2.98-4.36-6.44-7.59-10.38-9.71c-3.93-2.12-8.5-3.18-13.71-3.18c-8.59,0-15.11,2.56-19.56,7.68
							C2397.04-2663.96,2394.82-2656.47,2394.82-2646.61z"/>
					</g>
					<g>
						<path id="DejaVuSans-109" class="st4" d="M2540.92-2616.96c3.08,5.3,6.75,9.2,11.02,11.72c4.27,2.51,9.3,3.77,15.08,3.77
							c7.79,0,13.8-2.62,18.03-7.85c4.23-5.22,6.34-12.65,6.34-22.29v-43.28h-12.35v42.9c0,6.87-1.27,11.96-3.82,15.28
							c-2.53,3.33-6.4,5-11.6,5c-6.36,0-11.4-2.03-15.1-6.08c-3.69-4.04-5.53-9.57-5.53-16.57v-40.52h-12.35v42.9
							c0,6.91-1.27,12.02-3.8,15.32c-2.53,3.3-6.45,4.96-11.75,4.96c-6.28,0-11.27-2.03-14.97-6.1c-3.69-4.07-5.53-9.59-5.53-16.55
							v-40.52h-12.35v71.7h12.35v-11.14c2.81,4.4,6.17,7.64,10.08,9.73c3.92,2.09,8.57,3.13,13.95,3.13
							c5.44,0,10.06-1.32,13.86-3.97C2536.28-2608.09,2539.1-2611.93,2540.92-2616.96z"/>
					</g>
					<g>
						<path id="DejaVuSans-111_1_" class="st4" d="M2644.84-2611.45c-6.58,0-11.78-2.47-15.61-7.4c-3.83-4.93-5.75-11.68-5.75-20.26
							c0-8.58,1.9-15.33,5.7-20.26c3.82-4.93,9.03-7.4,15.66-7.4c6.55,0,11.73,2.47,15.55,7.42c3.83,4.96,5.75,11.7,5.75,20.24
							c0,8.49-1.92,15.23-5.75,20.2C2656.57-2613.94,2651.39-2611.45,2644.84-2611.45z M2644.84-2601.48
							c10.68,0,19.07-3.33,25.16-10c6.11-6.65,9.16-15.86,9.16-27.63c0-11.73-3.05-20.94-9.16-27.63
							c-6.09-6.68-14.48-10.02-25.16-10.02c-10.72,0-19.12,3.34-25.2,10.02c-6.07,6.69-9.1,15.9-9.1,27.63
							c0,11.77,3.03,20.98,9.1,27.63C2625.72-2604.81,2634.12-2601.48,2644.84-2601.48z"/>
					</g>
					<g>
						<path id="DejaVuSans-114_1_" class="st4" d="M2742.83-2614.2c-1.38,0.76-2.88,1.32-4.51,1.68c-1.62,0.37-3.41,0.55-5.36,0.55
							c-6.95,0-12.28-2.16-16-6.49c-3.72-4.33-5.57-10.55-5.57-18.66v-37.77h-12.35v71.7h12.35v-11.14
							c2.59,4.36,5.95,7.59,10.08,9.69c4.14,2.12,9.18,3.18,15.1,3.18c0.84,0,1.77-0.05,2.8-0.16c1.03-0.1,2.16-0.25,3.4-0.47
							L2742.83-2614.2z"/>
					</g>
					<g>
						<path id="DejaVuSans-32_1_" class="st4" d="M2742.83-2674.9"/>
					</g>
					<g>
						<path id="DejaVuSans-45_3_" class="st4" d="M2792.97-2633.74h35.97v-10.49h-35.97V-2633.74z"/>
					</g>
					<g>
						<path id="DejaVuSans-32_2_" class="st4" d="M2835.61-2674.9"/>
					</g>
					<g>
						<path id="DejaVuSans-67" class="st4" d="M2967.11-2586.69v-13.62c-4.54,4.06-9.38,7.08-14.52,9.07
							c-5.14,2.01-10.6,3.01-16.38,3.01c-11.39,0-20.11-3.34-26.17-10.02c-6.05-6.68-9.08-16.33-9.08-28.97
							c0-12.59,3.03-22.23,9.08-28.9c6.05-6.68,14.77-10.02,26.17-10.02c5.78,0,11.24,1,16.38,3.01c5.14,2.01,9.98,5.04,14.52,9.1
							v-13.52c-4.71-3.07-9.71-5.38-14.99-6.92c-5.27-1.53-10.84-2.29-16.7-2.29c-15.09,0-26.98,4.42-35.67,13.27
							c-8.67,8.86-13.01,20.96-13.01,36.28c0,15.36,4.34,27.47,13.01,36.32c8.69,8.86,20.58,13.29,35.67,13.29
							c5.95,0,11.56-0.76,16.83-2.27C2957.53-2581.38,2962.48-2583.66,2967.11-2586.69z"/>
					</g>
					<g>
						<path id="DejaVuSans-117_2_" class="st4" d="M2986.13-2646.61v43.41h12.28v-42.96c0-6.79,1.37-11.88,4.12-15.28
							c2.76-3.39,6.91-5.08,12.43-5.08c6.62,0,11.85,2.03,15.7,6.08c3.86,4.06,5.79,9.59,5.79,16.59v40.64h12.28v-71.7h-12.28v11.02
							c-2.98-4.36-6.44-7.59-10.38-9.71c-3.93-2.12-8.5-3.18-13.71-3.18c-8.59,0-15.11,2.56-19.56,7.68
							C2988.36-2663.96,2986.13-2656.47,2986.13-2646.61z"/>
					</g>
					<g>
						<path id="DejaVuSans-114_2_" class="st4" d="M3117.35-2614.2c-1.38,0.76-2.88,1.32-4.51,1.68c-1.62,0.37-3.41,0.55-5.36,0.55
							c-6.95,0-12.28-2.16-16-6.49c-3.72-4.33-5.57-10.55-5.57-18.66v-37.77h-12.35v71.7h12.35v-11.14
							c2.59,4.36,5.95,7.59,10.08,9.69c4.14,2.12,9.18,3.18,15.1,3.18c0.84,0,1.77-0.05,2.8-0.16c1.03-0.1,2.16-0.25,3.4-0.47
							L3117.35-2614.2z"/>
					</g>
					<g>
						<path id="DejaVuSans-114_3_" class="st4" d="M3173.53-2614.2c-1.38,0.76-2.88,1.32-4.51,1.68c-1.62,0.37-3.41,0.55-5.36,0.55
							c-6.95,0-12.28-2.16-16-6.49c-3.72-4.33-5.57-10.55-5.57-18.66v-37.77h-12.35v71.7h12.35v-11.14
							c2.59,4.36,5.95,7.59,10.08,9.69c4.14,2.12,9.18,3.18,15.1,3.18c0.84,0,1.77-0.05,2.8-0.16c1.03-0.1,2.16-0.25,3.4-0.47
							L3173.53-2614.2z"/>
					</g>
					<g>
						<path id="DejaVuSans-101_1_" class="st4" d="M3250.32-2636.1v-5.76h-56.47c0.54-8.11,3.09-14.29,7.65-18.54
							c4.56-4.25,10.91-6.37,19.05-6.37c4.71,0,9.28,0.55,13.71,1.66s8.83,2.77,13.2,5v-11.14c-4.41-1.79-8.94-3.15-13.56-4.1
							c-4.63-0.94-9.32-1.41-14.08-1.41c-11.93,0-21.38,3.33-28.34,9.98c-6.96,6.66-10.44,15.68-10.44,27.04
							c0,11.73,3.3,21.04,9.91,27.92c6.61,6.9,15.52,10.34,26.74,10.34c10.05,0,18.01-3.11,23.86-9.32
							C3247.4-2617,3250.32-2625.43,3250.32-2636.1z M3238.04-2632.64c-0.09,6.43-1.97,11.57-5.64,15.4
							c-3.67,3.85-8.54,5.78-14.59,5.78c-6.85,0-12.33-1.86-16.45-5.57s-6.49-8.95-7.11-15.69L3238.04-2632.64z"/>
					</g>
					<g>
						<path id="DejaVuSans-110" class="st4" d="M3332.63-2631.61v-43.28h-12.28v42.9c0,6.79-1.38,11.86-4.14,15.22
							c-2.76,3.37-6.9,5.06-12.41,5.06c-6.64,0-11.87-2.03-15.7-6.08c-3.83-4.04-5.75-9.57-5.75-16.57v-40.52H3270v71.7h12.35
							v-11.14c2.95,4.32,6.41,7.54,10.38,9.67c3.99,2.13,8.59,3.2,13.8,3.2c8.59,0,15.08-2.55,19.48-7.64
							C3330.42-2614.21,3332.63-2621.71,3332.63-2631.61z"/>
					</g>
					<g>
						<path id="DejaVuSans-116" class="st4" d="M3369.27-2582.84v-20.36h25.29v-9.16h-25.29v-38.92c0-5.84,0.83-9.6,2.5-11.27
							c1.67-1.67,5.06-2.5,10.19-2.5h12.6v-9.85h-12.6c-9.48,0-16.03,1.69-19.63,5.08c-3.6,3.4-5.4,9.58-5.4,18.54v38.92h-9.01v9.16
							h9.01v20.36H3369.27z"/>
					</g>
					<g>
						<path id="DejaVuSans-32_3_" class="st4" d="M3397.83-2674.9"/>
					</g>
					<g>
						<path id="DejaVuSans-84_1_" class="st4" d="M3440.88-2579.31h84.3v-10.9h-35.37v-84.68h-13.54v84.68h-35.39V-2579.31z"/>
					</g>
					<g>
						<path id="DejaVuSans-117_3_" class="st4" d="M3536.08-2646.61v43.41h12.28v-42.96c0-6.79,1.37-11.88,4.12-15.28
							c2.76-3.39,6.91-5.08,12.43-5.08c6.62,0,11.85,2.03,15.7,6.08c3.86,4.06,5.79,9.59,5.79,16.59v40.64h12.28v-71.7h-12.28v11.02
							c-2.98-4.36-6.44-7.59-10.38-9.71c-3.93-2.12-8.5-3.18-13.71-3.18c-8.59,0-15.11,2.56-19.57,7.68
							C3538.31-2663.96,3536.08-2656.47,3536.08-2646.61z"/>
					</g>
					<g>
						<path id="DejaVuSans-109_1_" class="st4" d="M3682.19-2616.96c3.08,5.3,6.75,9.2,11.02,11.72c4.27,2.51,9.3,3.77,15.08,3.77
							c7.79,0,13.8-2.62,18.03-7.85c4.23-5.22,6.34-12.65,6.34-22.29v-43.28h-12.35v42.9c0,6.87-1.27,11.96-3.82,15.28
							c-2.53,3.33-6.4,5-11.6,5c-6.37,0-11.4-2.03-15.1-6.08c-3.69-4.04-5.53-9.57-5.53-16.57v-40.52h-12.35v42.9
							c0,6.91-1.27,12.02-3.8,15.32s-6.45,4.96-11.75,4.96c-6.28,0-11.27-2.03-14.97-6.1c-3.69-4.07-5.53-9.59-5.53-16.55v-40.52
							h-12.35v71.7h12.35v-11.14c2.81,4.4,6.17,7.64,10.08,9.73c3.92,2.09,8.57,3.13,13.95,3.13c5.44,0,10.06-1.32,13.86-3.97
							C3677.55-2608.09,3680.36-2611.93,3682.19-2616.96z"/>
					</g>
					<g>
						<path id="DejaVuSans-111_2_" class="st4" d="M3786.11-2611.45c-6.58,0-11.78-2.47-15.61-7.4c-3.83-4.93-5.75-11.68-5.75-20.26
							c0-8.58,1.9-15.33,5.7-20.26c3.82-4.93,9.04-7.4,15.66-7.4c6.55,0,11.73,2.47,15.55,7.42c3.83,4.96,5.75,11.7,5.75,20.24
							c0,8.49-1.92,15.23-5.75,20.2C3797.84-2613.94,3792.66-2611.45,3786.11-2611.45z M3786.11-2601.48
							c10.68,0,19.07-3.33,25.16-10c6.11-6.65,9.16-15.86,9.16-27.63c0-11.73-3.05-20.94-9.16-27.63
							c-6.09-6.68-14.48-10.02-25.16-10.02c-10.72,0-19.12,3.34-25.2,10.02c-6.07,6.69-9.1,15.9-9.1,27.63
							c0,11.77,3.03,20.98,9.1,27.63C3766.98-2604.81,3775.39-2601.48,3786.11-2601.48z"/>
					</g>
					<g>
						<path id="DejaVuSans-114_4_" class="st4" d="M3884.1-2614.2c-1.38,0.76-2.88,1.32-4.51,1.68c-1.62,0.37-3.41,0.55-5.36,0.55
							c-6.95,0-12.28-2.16-16-6.49s-5.57-10.55-5.57-18.66v-37.77h-12.35v71.7h12.35v-11.14c2.59,4.36,5.95,7.59,10.08,9.69
							c4.14,2.12,9.18,3.18,15.1,3.18c0.84,0,1.77-0.05,2.8-0.16c1.03-0.1,2.16-0.25,3.4-0.47L3884.1-2614.2z"/>
					</g>
				</g>
				<g transform="translate(240.27875 352.648)scale(0.16 -0.16)">
					<g>
						<path id="DejaVuSans-32_4_" class="st4" d="M1839.23-2709.72"/>
					</g>
					<g>
						<path id="DejaVuSans-40" class="st4" d="M1925.06-2610.25c-5.95-9.81-10.38-19.52-13.29-29.13
							c-2.89-9.6-4.34-19.33-4.34-29.19c0-9.85,1.46-19.6,4.38-29.27c2.92-9.67,7.33-19.39,13.24-29.17h-10.68
							c-6.66,10.04-11.66,19.9-14.97,29.58c-3.32,9.68-4.98,19.3-4.98,28.86c0,9.52,1.64,19.1,4.93,28.74
							c3.3,9.66,8.31,19.52,15.02,29.58H1925.06z"/>
					</g>
					<g>
						<path id="DejaVuSans-109_2_" class="st4" d="M2007.1-2651.79c3.08,5.3,6.75,9.2,11.02,11.72c4.27,2.51,9.3,3.77,15.08,3.77
							c7.79,0,13.8-2.62,18.03-7.85c4.23-5.22,6.34-12.65,6.34-22.29v-43.28h-12.35v42.9c0,6.87-1.27,11.96-3.82,15.28
							c-2.53,3.33-6.4,5-11.6,5c-6.36,0-11.4-2.03-15.1-6.08c-3.69-4.04-5.53-9.57-5.53-16.57v-40.52h-12.35v42.9
							c0,6.91-1.27,12.02-3.8,15.32c-2.53,3.3-6.45,4.96-11.75,4.96c-6.28,0-11.27-2.03-14.97-6.1c-3.69-4.07-5.53-9.59-5.53-16.55
							v-40.52h-12.35v71.7h12.35v-11.14c2.81,4.4,6.17,7.64,10.08,9.73c3.92,2.09,8.57,3.13,13.95,3.13
							c5.44,0,10.06-1.32,13.86-3.97C2002.46-2642.92,2005.27-2646.75,2007.1-2651.79z"/>
					</g>
					<g>
						<path id="DejaVuSans-111_3_" class="st4" d="M2111.02-2646.28c-6.58,0-11.78-2.47-15.61-7.4c-3.83-4.93-5.75-11.68-5.75-20.26
							c0-8.58,1.9-15.33,5.7-20.26c3.82-4.93,9.04-7.4,15.66-7.4c6.55,0,11.73,2.47,15.55,7.42c3.83,4.96,5.75,11.7,5.75,20.24
							c0,8.49-1.92,15.23-5.75,20.2C2122.75-2648.77,2117.57-2646.28,2111.02-2646.28z M2111.02-2636.31
							c10.68,0,19.07-3.33,25.16-10c6.11-6.65,9.16-15.86,9.16-27.63c0-11.73-3.05-20.94-9.16-27.63
							c-6.09-6.68-14.48-10.02-25.16-10.02c-10.72,0-19.12,3.34-25.2,10.02c-6.07,6.69-9.1,15.9-9.1,27.63
							c0,11.77,3.03,20.98,9.1,27.63C2091.89-2639.64,2100.29-2636.31,2111.02-2636.31z"/>
					</g>
					<g>
						<path id="DejaVuSans-114_5_" class="st4" d="M2209.01-2649.03c-1.38,0.76-2.88,1.32-4.51,1.68c-1.62,0.37-3.41,0.55-5.36,0.55
							c-6.95,0-12.28-2.16-16-6.49s-5.57-10.55-5.57-18.66v-37.77h-12.35v71.7h12.35v-11.14c2.59,4.36,5.95,7.59,10.08,9.69
							c4.14,2.12,9.18,3.18,15.1,3.18c0.84,0,1.77-0.05,2.8-0.16c1.03-0.1,2.16-0.25,3.4-0.47L2209.01-2649.03z"/>
					</g>
					<g>
						<path id="DejaVuSans-112" class="st4" d="M2233.77-2698.97v-38.02h-12.35v98.96h12.35v-10.88c2.59,4.26,5.85,7.42,9.78,9.48
							c3.94,2.08,8.65,3.11,14.12,3.11c9.08,0,16.46-3.46,22.13-10.37c5.68-6.91,8.52-16,8.52-27.27s-2.84-20.36-8.52-27.29
							c-5.67-6.91-13.04-10.37-22.13-10.37c-5.47,0-10.17,1.04-14.12,3.11C2239.62-2706.4,2236.36-2703.23,2233.77-2698.97z
							 M2275.57-2673.94c0,8.66-1.86,15.45-5.57,20.38c-3.72,4.93-8.82,7.4-15.31,7.4c-6.51,0-11.62-2.47-15.34-7.4
							c-3.72-4.93-5.57-11.72-5.57-20.38s1.86-15.45,5.57-20.38c3.72-4.93,8.83-7.4,15.34-7.4c6.49,0,11.6,2.47,15.31,7.4
							S2275.57-2682.6,2275.57-2673.94z"/>
					</g>
					<g>
						<path id="DejaVuSans-104" class="st4" d="M2370.82-2666.44v-43.28h-12.28v42.9c0,6.79-1.38,11.86-4.14,15.22
							c-2.76,3.37-6.9,5.06-12.41,5.06c-6.64,0-11.87-2.03-15.7-6.08c-3.83-4.04-5.75-9.57-5.75-16.57v-40.52h-12.35v99.62h12.35
							v-39.06c2.95,4.32,6.41,7.54,10.38,9.67c3.99,2.13,8.59,3.2,13.8,3.2c8.59,0,15.08-2.55,19.48-7.64
							C2368.61-2649.04,2370.82-2656.54,2370.82-2666.44z"/>
					</g>
					<g>
						<path id="DejaVuSans-32_5_" class="st4" d="M2382.42-2709.72"/>
					</g>
					<g>
						<path id="DejaVuSans-117_4_" class="st4" d="M2437.49-2681.43v43.41h12.28v-42.96c0-6.79,1.37-11.88,4.12-15.28
							c2.76-3.39,6.91-5.08,12.43-5.08c6.62,0,11.85,2.03,15.7,6.08c3.86,4.06,5.79,9.59,5.79,16.59v40.64h12.28v-71.7h-12.28v11.02
							c-2.98-4.36-6.44-7.59-10.38-9.71c-3.93-2.12-8.5-3.18-13.71-3.18c-8.59,0-15.11,2.56-19.56,7.68
							C2439.71-2698.79,2437.49-2691.29,2437.49-2681.43z"/>
					</g>
					<g>
						<path id="DejaVuSans-110_1_" class="st4" d="M2587.55-2666.44v-43.28h-12.28v42.9c0,6.79-1.38,11.86-4.14,15.22
							c-2.76,3.37-6.9,5.06-12.41,5.06c-6.64,0-11.87-2.03-15.7-6.08c-3.83-4.04-5.75-9.57-5.75-16.57v-40.52h-12.35v71.7h12.35
							v-11.14c2.95,4.32,6.41,7.54,10.38,9.67c3.99,2.13,8.59,3.2,13.8,3.2c8.59,0,15.08-2.55,19.48-7.64
							C2585.34-2649.04,2587.55-2656.54,2587.55-2666.44z"/>
					</g>
					<g>
						<path id="DejaVuSans-105_1_" class="st4" d="M2612.03-2638.03h12.28v-71.7h-12.28V-2638.03z M2612.03-2610.11h12.28v-14.93
							h-12.28V-2610.11z"/>
					</g>
					<g>
						<path id="DejaVuSans-116_1_" class="st4" d="M2662.16-2617.67v-20.36h25.29v-9.16h-25.29v-38.92c0-5.84,0.83-9.6,2.5-11.27
							s5.06-2.5,10.19-2.5h12.6v-9.85h-12.6c-9.48,0-16.03,1.69-19.63,5.08c-3.6,3.4-5.4,9.58-5.4,18.54v38.92h-9.01v9.16h9.01
							v20.36H2662.16z"/>
					</g>
					<g>
						<path id="DejaVuSans-115_1_" class="st4" d="M2751.26-2640.14v-11.14c-3.46,1.71-7.06,2.98-10.81,3.83
							c-3.73,0.86-7.6,1.29-11.62,1.29c-6.09,0-10.67-0.89-13.71-2.68c-3.05-1.79-4.57-4.48-4.57-8.07c0-2.73,1.09-4.88,3.27-6.43
							c2.18-1.56,6.56-3.04,13.16-4.45l4.21-0.9c8.71-1.79,14.91-4.32,18.58-7.58c3.67-3.26,5.51-7.82,5.51-13.66
							c0-6.66-2.75-11.94-8.24-15.83c-5.5-3.88-13.05-5.82-22.66-5.82c-4,0-8.17,0.38-12.52,1.13s-8.91,1.87-13.71,3.36v12.17
							c4.54-2.27,9.01-3.97,13.41-5.1c4.4-1.12,8.76-1.68,13.09-1.68c5.78,0,10.22,0.95,13.33,2.85c3.12,1.9,4.68,4.57,4.68,8.03
							c0,3.2-1.12,5.65-3.37,7.35c-2.24,1.71-7.16,3.35-14.78,4.94l-4.27,0.96c-7.6,1.53-13.1,3.89-16.49,7.07
							c-3.37,3.18-5.06,7.55-5.06,13.09c0,6.75,2.49,11.95,7.48,15.61c4.98,3.67,12.06,5.51,21.23,5.51c4.53,0,8.79-0.32,12.79-0.96
							C2744.19-2637.9,2747.89-2638.85,2751.26-2640.14z"/>
					</g>
					<g>
						<path id="DejaVuSans-41" class="st4" d="M2772.91-2610.25h10.68c6.66-10.06,11.66-19.93,14.97-29.58
							c3.32-9.64,4.98-19.22,4.98-28.74c0-9.56-1.66-19.18-4.98-28.86c-3.32-9.68-8.31-19.54-14.97-29.58h-10.68
							c5.91,9.78,10.32,19.5,13.24,29.17c2.92,9.67,4.38,19.43,4.38,29.27c0,9.86-1.46,19.59-4.38,29.19
							C2783.23-2629.77,2778.81-2620.06,2772.91-2610.25z"/>
					</g>
				</g>
			</g>
		</g>
		<g id="matplotlib.axis_2">
			<g id="ytick_1">
				<g id="line2d_8">
					<g>
						<g>
							<path id="m8c87b02cde" class="st3" d="M421.94,716.64h8.2"/>
						</g>
					</g>
				</g>
				<g id="text_9">
					<g transform="translate(130.81 305.66775)scale(0.16 -0.16)">
						<g>
							<path id="DejaVuSans-8722" class="st4" d="M1602.62-2571.86h85.57v-10.88h-85.57V-2571.86z"/>
						</g>
						<g>
							<path id="DejaVuSans-51_2_" class="st4" d="M1758.15-2566.86c6.45-1.32,11.48-4.08,15.1-8.28c3.63-4.18,5.45-9.34,5.45-15.49
								c0-9.42-3.38-16.72-10.15-21.9c-6.76-5.16-16.38-7.74-28.83-7.74c-4.17,0-8.47,0.4-12.9,1.19c-4.43,0.79-9,1.98-13.71,3.56
								v12.48c3.73-2.09,7.82-3.67,12.26-4.73c4.46-1.07,9.11-1.6,13.97-1.6c8.44,0,14.88,1.6,19.31,4.79
								c4.43,3.2,6.64,7.85,6.64,13.95c0,5.64-2.06,10.04-6.17,13.21c-4.12,3.18-9.84,4.77-17.17,4.77h-11.62v10.63h12.15
								c6.62,0,11.69,1.27,15.21,3.81c3.52,2.54,5.28,6.2,5.28,10.98c0,4.9-1.82,8.67-5.45,11.29c-3.62,2.64-8.81,3.95-15.57,3.95
								c-3.7,0-7.67-0.39-11.9-1.17c-4.23-0.76-8.88-1.95-13.95-3.56v11.51c5.13,1.37,9.92,2.39,14.4,3.07s8.69,1.02,12.64,1.02
								c10.24,0,18.33-2.23,24.29-6.7c5.97-4.45,8.95-10.47,8.95-18.07c0-5.3-1.58-9.77-4.74-13.42
								C1768.47-2562.93,1763.97-2565.45,1758.15-2566.86z"/>
						</g>
					</g>
				</g>
			</g>
			<g id="ytick_2">
				<g id="line2d_9">
					<g>
						<g>
							<path id="m8c87b02cde_1_" class="st3" d="M421.94,657.25h8.2"/>
						</g>
					</g>
				</g>
				<g id="text_10">
					<g transform="translate(130.81 260.36775)scale(0.16 -0.16)">
						<g>
							<path id="DejaVuSans-8722_1_" class="st4" d="M1602.62-2483.8h85.57v-10.88h-85.57V-2483.8z"/>
						</g>
						<g>
							<path id="DejaVuSans-50_2_" class="st4" d="M1728.91-2519.46h47.05v-10.88h-63.27v10.88c5.11,5.08,12.08,11.89,20.91,20.44
								c8.84,8.56,14.4,14.09,16.66,16.57c4.31,4.64,7.33,8.58,9.03,11.8c1.72,3.22,2.58,6.39,2.58,9.5c0,5.08-1.86,9.22-5.57,12.41
								c-3.72,3.21-8.56,4.81-14.52,4.81c-4.23,0-8.69-0.7-13.39-2.11c-4.68-1.41-9.7-3.54-15.04-6.41v13.07
								c5.43,2.09,10.49,3.67,15.21,4.73c4.73,1.07,9.05,1.6,12.97,1.6c10.32,0,18.55-2.48,24.69-7.44
								c6.14-4.94,9.21-11.55,9.21-19.83c0-3.93-0.77-7.66-2.31-11.18c-1.52-3.51-4.31-7.65-8.37-12.43
								c-1.11-1.24-4.65-4.82-10.62-10.73C1748.18-2500.57,1739.77-2508.84,1728.91-2519.46z"/>
						</g>
					</g>
				</g>
			</g>
			<g id="ytick_3">
				<g id="line2d_10">
					<g>
						<g>
							<path id="m8c87b02cde_2_" class="st3" d="M421.94,597.86h8.2"/>
						</g>
					</g>
				</g>
				<g id="text_11">
					<g transform="translate(130.81 215.06775)scale(0.16 -0.16)">
						<g>
							<path id="DejaVuSans-8722_2_" class="st4" d="M1602.62-2395.74h85.57v-10.88h-85.57V-2395.74z"/>
						</g>
						<g>
							<path id="DejaVuSans-49" class="st4" d="M1719.64-2431.4h22.02v72.93l-23.97-4.61v11.78l23.84,4.61h13.48v-84.7h22.02v-10.88
								h-57.39V-2431.4z"/>
						</g>
					</g>
				</g>
			</g>
			<g id="ytick_4">
				<g id="line2d_11">
					<g>
						<g>
							<path id="m8c87b02cde_3_" class="st3" d="M421.94,538.47h8.2"/>
						</g>
					</g>
				</g>
				<g id="text_12">
					<g transform="translate(144.2175 169.76775)scale(0.16 -0.16)">
						<g>
							<path id="DejaVuSans-48_3_" class="st4" d="M1662.34-2267.16c-6.93,0-12.15-3.28-15.66-9.83
								c-3.49-6.54-5.23-16.39-5.23-29.54c0-13.1,1.74-22.92,5.23-29.48c3.5-6.55,8.72-9.83,15.66-9.83
								c6.99,0,12.23,3.28,15.72,9.83c3.5,6.56,5.25,16.38,5.25,29.48c0,13.15-1.75,23-5.25,29.54
								C1674.57-2270.43,1669.33-2267.16,1662.34-2267.16z M1662.34-2256.91c11.18,0,19.71-4.24,25.61-12.72
								c5.9-8.47,8.84-20.76,8.84-36.89c0-16.09-2.95-28.37-8.84-36.85c-5.9-8.47-14.43-12.7-25.61-12.7
								c-11.16,0-19.69,4.23-25.59,12.7c-5.9,8.48-8.84,20.76-8.84,36.85c0,16.13,2.95,28.43,8.84,36.89
								C1642.64-2261.15,1651.17-2256.91,1662.34-2256.91z"/>
						</g>
					</g>
				</g>
			</g>
			<g id="ytick_5">
				<g id="line2d_12">
					<g>
						<g>
							<path id="m8c87b02cde_4_" class="st3" d="M421.94,479.08h8.2"/>
						</g>
					</g>
				</g>
				<g id="text_13">
					<g transform="translate(144.2175 124.46775)scale(0.16 -0.16)">
						<g>
							<path id="DejaVuSans-49_1_" class="st4" d="M1635.85-2255.28h22.02v72.93l-23.97-4.61v11.78l23.84,4.61h13.48v-84.7h22.02
								v-10.88h-57.39V-2255.28z"/>
						</g>
					</g>
				</g>
			</g>
			<g id="ytick_6">
				<g id="line2d_13">
					<g>
						<g>
							<path id="m8c87b02cde_5_" class="st3" d="M421.94,419.69h8.2"/>
						</g>
					</g>
				</g>
				<g id="text_14">
					<g transform="translate(144.2175 79.16775)scale(0.16 -0.16)">
						<g>
							<path id="DejaVuSans-50_3_" class="st4" d="M1645.12-2167.22h47.05v-10.88h-63.27v10.88c5.11,5.08,12.08,11.9,20.91,20.44
								c8.84,8.56,14.4,14.09,16.66,16.57c4.31,4.64,7.33,8.58,9.04,11.8c1.72,3.22,2.58,6.39,2.58,9.5c0,5.08-1.86,9.22-5.57,12.41
								c-3.72,3.21-8.56,4.81-14.52,4.81c-4.23,0-8.69-0.7-13.39-2.11c-4.68-1.41-9.7-3.54-15.04-6.41v13.07
								c5.43,2.09,10.49,3.67,15.21,4.73c4.73,1.07,9.05,1.6,12.96,1.6c10.32,0,18.55-2.48,24.69-7.44
								c6.14-4.94,9.21-11.55,9.21-19.83c0-3.93-0.77-7.66-2.31-11.18c-1.52-3.51-4.31-7.65-8.37-12.43
								c-1.11-1.24-4.65-4.82-10.62-10.73C1664.4-2148.33,1655.99-2156.59,1645.12-2167.22z"/>
						</g>
					</g>
				</g>
			</g>
			<g id="ytick_7">
				<g id="line2d_14">
					<g>
						<g>
							<path id="m8c87b02cde_6_" class="st3" d="M421.94,360.3h8.2"/>
						</g>
					</g>
				</g>
				<g id="text_15">
					<g transform="translate(144.2175 33.86775)scale(0.16 -0.16)">
						<g>
							<path id="DejaVuSans-51_3_" class="st4" d="M1674.36-2038.5c6.45-1.32,11.48-4.08,15.1-8.28c3.63-4.18,5.45-9.34,5.45-15.49
								c0-9.42-3.38-16.72-10.15-21.9c-6.76-5.16-16.38-7.74-28.83-7.74c-4.17,0-8.47,0.4-12.9,1.19s-9,1.98-13.71,3.56v12.48
								c3.73-2.09,7.82-3.67,12.26-4.73c4.46-1.07,9.11-1.6,13.97-1.6c8.44,0,14.88,1.6,19.31,4.79c4.43,3.2,6.64,7.85,6.64,13.95
								c0,5.64-2.06,10.04-6.17,13.21c-4.12,3.18-9.84,4.77-17.17,4.77h-11.62v10.63h12.15c6.62,0,11.69,1.27,15.21,3.81
								c3.52,2.54,5.28,6.2,5.28,10.98c0,4.9-1.82,8.67-5.45,11.29c-3.62,2.64-8.81,3.95-15.57,3.95c-3.7,0-7.67-0.39-11.9-1.17
								c-4.23-0.76-8.88-1.95-13.95-3.56v11.51c5.13,1.37,9.92,2.39,14.4,3.07c4.47,0.68,8.69,1.02,12.64,1.02
								c10.24,0,18.33-2.23,24.29-6.7c5.97-4.45,8.95-10.47,8.95-18.07c0-5.3-1.58-9.77-4.74-13.42
								C1684.68-2034.56,1680.19-2037.09,1674.36-2038.5z"/>
						</g>
					</g>
				</g>
			</g>
			<g id="text_16">
				<g transform="translate(7.2 106.612)scale(0.16 -0.16)">
					<g>
						<path id="DejaVuSans-82" class="st4" d="M1365.3-2186.63c2.89-0.94,5.7-2.95,8.44-6.02s5.48-7.3,8.24-12.68l13.69-26.12h-14.5
							l-12.73,24.52c-3.3,6.4-6.5,10.65-9.59,12.74c-3.09,2.09-7.3,3.13-12.64,3.13h-14.7v-40.4h-13.48v95.58h30.44
							c11.39,0,19.89-2.29,25.5-6.86c5.61-4.56,8.42-11.45,8.42-20.67c0-6.02-1.46-11.02-4.38-14.99
							C1375.09-2182.35,1370.85-2185.1,1365.3-2186.63z M1331.51-2146.5v-33.92h16.96c6.49,0,11.4,1.44,14.72,4.32
							c3.32,2.88,4.98,7.12,4.98,12.7s-1.66,9.8-4.98,12.64c-3.32,2.84-8.22,4.26-14.72,4.26H1331.51z"/>
					</g>
					<g>
						<path id="DejaVuSans-101_2_" class="st4" d="M1476.34-2192.65v-5.76h-56.47c0.54-8.11,3.09-14.29,7.65-18.54
							c4.56-4.25,10.91-6.37,19.05-6.37c4.71,0,9.28,0.55,13.71,1.66c4.43,1.11,8.83,2.77,13.2,5v-11.14
							c-4.41-1.79-8.94-3.15-13.56-4.1c-4.63-0.94-9.32-1.41-14.08-1.41c-11.93,0-21.38,3.33-28.34,9.98
							c-6.96,6.66-10.44,15.68-10.44,27.04c0,11.73,3.3,21.04,9.91,27.92c6.61,6.9,15.52,10.34,26.74,10.34
							c10.05,0,18.01-3.11,23.86-9.32C1473.42-2173.55,1476.34-2181.98,1476.34-2192.65z M1464.06-2189.19
							c-0.09,6.43-1.97,11.57-5.64,15.4c-3.67,3.85-8.54,5.78-14.59,5.78c-6.85,0-12.33-1.86-16.45-5.57s-6.49-8.95-7.11-15.69
							L1464.06-2189.19z"/>
					</g>
					<g>
						<path id="DejaVuSans-115_2_" class="st4" d="M1544.15-2161.86V-2173c-3.46,1.71-7.06,2.98-10.81,3.83
							c-3.73,0.86-7.6,1.29-11.62,1.29c-6.09,0-10.67-0.89-13.71-2.68s-4.57-4.48-4.57-8.07c0-2.73,1.09-4.88,3.27-6.43
							c2.18-1.56,6.56-3.04,13.16-4.45l4.21-0.9c8.71-1.79,14.91-4.32,18.58-7.58c3.67-3.26,5.51-7.82,5.51-13.66
							c0-6.66-2.75-11.94-8.24-15.83c-5.5-3.88-13.05-5.82-22.66-5.82c-4,0-8.17,0.38-12.52,1.13c-4.34,0.75-8.91,1.87-13.71,3.36
							v12.17c4.54-2.27,9.01-3.97,13.41-5.1c4.4-1.12,8.76-1.68,13.09-1.68c5.78,0,10.22,0.95,13.33,2.85
							c3.12,1.9,4.68,4.57,4.68,8.03c0,3.2-1.12,5.65-3.37,7.35c-2.24,1.71-7.16,3.35-14.78,4.94l-4.27,0.96
							c-7.6,1.53-13.1,3.89-16.49,7.07c-3.37,3.18-5.06,7.55-5.06,13.09c0,6.75,2.49,11.95,7.48,15.61
							c4.98,3.67,12.06,5.51,21.23,5.51c4.53,0,8.79-0.32,12.79-0.96C1537.08-2159.62,1540.77-2160.58,1544.15-2161.86z"/>
					</g>
					<g>
						<path id="DejaVuSans-112_1_" class="st4" d="M1579.59-2220.69v-38.02h-12.35v98.96h12.35v-10.88
							c2.59,4.26,5.85,7.42,9.78,9.48c3.94,2.08,8.65,3.11,14.12,3.11c9.08,0,16.46-3.46,22.13-10.37c5.68-6.91,8.52-16,8.52-27.27
							s-2.84-20.36-8.52-27.29c-5.67-6.91-13.04-10.37-22.13-10.37c-5.47,0-10.17,1.04-14.12,3.11
							C1585.44-2228.12,1582.18-2224.95,1579.59-2220.69z M1621.39-2195.66c0,8.66-1.86,15.45-5.57,20.38
							c-3.72,4.93-8.82,7.4-15.31,7.4c-6.51,0-11.62-2.46-15.34-7.4c-3.72-4.93-5.57-11.72-5.57-20.38s1.86-15.45,5.57-20.38
							c3.72-4.93,8.83-7.4,15.34-7.4c6.49,0,11.6,2.46,15.31,7.4C1619.53-2211.11,1621.39-2204.32,1621.39-2195.66z"/>
					</g>
					<g>
						<path id="DejaVuSans-111_4_" class="st4" d="M1683.45-2168.01c-6.58,0-11.78-2.47-15.61-7.4s-5.75-11.68-5.75-20.26
							c0-8.58,1.9-15.33,5.7-20.26c3.82-4.93,9.03-7.4,15.66-7.4c6.55,0,11.73,2.47,15.55,7.42c3.83,4.96,5.75,11.7,5.75,20.24
							c0,8.49-1.92,15.23-5.75,20.2C1695.18-2170.49,1690-2168.01,1683.45-2168.01z M1683.45-2158.03c10.68,0,19.07-3.33,25.16-10
							c6.11-6.65,9.16-15.86,9.16-27.63c0-11.73-3.05-20.94-9.16-27.63c-6.09-6.68-14.48-10.02-25.16-10.02
							c-10.72,0-19.12,3.34-25.2,10.02c-6.07,6.69-9.1,15.9-9.1,27.63c0,11.77,3.03,20.98,9.1,27.63
							C1664.33-2161.36,1672.73-2158.03,1683.45-2158.03z"/>
					</g>
					<g>
						<path id="DejaVuSans-110_2_" class="st4" d="M1800.28-2188.16v-43.28h-12.28v42.9c0,6.79-1.38,11.86-4.14,15.22
							c-2.76,3.37-6.9,5.06-12.41,5.06c-6.64,0-11.87-2.03-15.7-6.08c-3.83-4.04-5.75-9.57-5.75-16.57v-40.52h-12.35v71.7H1750
							v-11.14c2.95,4.32,6.41,7.54,10.38,9.67c3.99,2.13,8.59,3.2,13.8,3.2c8.59,0,15.08-2.55,19.48-7.64
							C1798.07-2170.76,1800.28-2178.26,1800.28-2188.16z"/>
					</g>
					<g>
						<path id="DejaVuSans-115_3_" class="st4" d="M1872.41-2161.86V-2173c-3.46,1.71-7.06,2.98-10.81,3.83
							c-3.73,0.86-7.6,1.29-11.62,1.29c-6.09,0-10.67-0.89-13.71-2.68s-4.57-4.48-4.57-8.07c0-2.73,1.09-4.88,3.27-6.43
							c2.18-1.56,6.56-3.04,13.16-4.45l4.21-0.9c8.71-1.79,14.91-4.32,18.58-7.58c3.67-3.26,5.51-7.82,5.51-13.66
							c0-6.66-2.75-11.94-8.24-15.83c-5.5-3.88-13.05-5.82-22.66-5.82c-4,0-8.17,0.38-12.52,1.13c-4.34,0.75-8.91,1.87-13.71,3.36
							v12.17c4.54-2.27,9.01-3.97,13.41-5.1c4.4-1.12,8.76-1.68,13.09-1.68c5.78,0,10.22,0.95,13.33,2.85
							c3.12,1.9,4.68,4.57,4.68,8.03c0,3.2-1.12,5.65-3.37,7.35c-2.24,1.71-7.16,3.35-14.78,4.94l-4.27,0.96
							c-7.6,1.53-13.1,3.89-16.49,7.07c-3.37,3.18-5.06,7.55-5.06,13.09c0,6.75,2.49,11.95,7.48,15.61
							c4.98,3.67,12.06,5.51,21.23,5.51c4.53,0,8.79-0.32,12.79-0.96C1865.34-2159.62,1869.04-2160.58,1872.41-2161.86z"/>
					</g>
					<g>
						<path id="DejaVuSans-101_3_" class="st4" d="M1959.93-2192.65v-5.76h-56.47c0.54-8.11,3.09-14.29,7.65-18.54
							c4.56-4.25,10.91-6.37,19.05-6.37c4.71,0,9.28,0.55,13.71,1.66c4.43,1.11,8.83,2.77,13.2,5v-11.14
							c-4.41-1.79-8.94-3.15-13.56-4.1c-4.63-0.94-9.32-1.41-14.08-1.41c-11.93,0-21.38,3.33-28.34,9.98
							c-6.96,6.66-10.44,15.68-10.44,27.04c0,11.73,3.3,21.04,9.91,27.92c6.61,6.9,15.52,10.34,26.74,10.34
							c10.05,0,18.01-3.11,23.86-9.32C1957-2173.55,1959.93-2181.98,1959.93-2192.65z M1947.65-2189.19
							c-0.09,6.43-1.97,11.57-5.64,15.4c-3.67,3.85-8.54,5.78-14.59,5.78c-6.85,0-12.33-1.86-16.45-5.57s-6.49-8.95-7.11-15.69
							L1947.65-2189.19z"/>
					</g>
					<g>
						<path id="DejaVuSans-32_6_" class="st4" d="M1967.2-2231.45"/>
					</g>
					<g>
						<path id="DejaVuSans-69" class="st4" d="M2024.07-2135.86h63.01v-10.9h-49.53v-28.29h47.46v-10.88h-47.46v-34.64h50.73v-10.88
							h-64.21V-2135.86z"/>
					</g>
					<g>
						<path id="DejaVuSans-114_6_" class="st4" d="M2153.22-2170.75c-1.38,0.76-2.88,1.32-4.51,1.68c-1.62,0.37-3.41,0.55-5.36,0.55
							c-6.95,0-12.28-2.16-16-6.49s-5.57-10.55-5.57-18.66v-37.77h-12.35v71.7h12.35v-11.14c2.59,4.36,5.95,7.59,10.08,9.69
							c4.14,2.12,9.18,3.18,15.1,3.18c0.84,0,1.77-0.05,2.8-0.16c1.03-0.1,2.16-0.25,3.4-0.47L2153.22-2170.75z"/>
					</g>
					<g>
						<path id="DejaVuSans-114_7_" class="st4" d="M2209.4-2170.75c-1.38,0.76-2.88,1.32-4.51,1.68c-1.62,0.37-3.41,0.55-5.36,0.55
							c-6.95,0-12.28-2.16-16-6.49s-5.57-10.55-5.57-18.66v-37.77h-12.35v71.7h12.35v-11.14c2.59,4.36,5.95,7.59,10.08,9.69
							c4.14,2.12,9.18,3.18,15.1,3.18c0.84,0,1.77-0.05,2.8-0.16c1.03-0.1,2.16-0.25,3.4-0.47L2209.4-2170.75z"/>
					</g>
					<g>
						<path id="DejaVuSans-111_5_" class="st4" d="M2251.21-2168.01c-6.58,0-11.78-2.47-15.61-7.4c-3.83-4.93-5.75-11.68-5.75-20.26
							c0-8.58,1.9-15.33,5.7-20.26c3.82-4.93,9.03-7.4,15.66-7.4c6.55,0,11.73,2.47,15.55,7.42c3.83,4.96,5.75,11.7,5.75,20.24
							c0,8.49-1.92,15.23-5.75,20.2C2262.94-2170.49,2257.76-2168.01,2251.21-2168.01z M2251.21-2158.03
							c10.68,0,19.07-3.33,25.16-10c6.11-6.65,9.16-15.86,9.16-27.63c0-11.73-3.05-20.94-9.16-27.63
							c-6.09-6.68-14.48-10.02-25.16-10.02c-10.72,0-19.12,3.34-25.2,10.02c-6.07,6.69-9.1,15.9-9.1,27.63
							c0,11.77,3.03,20.98,9.1,27.63C2232.08-2161.36,2240.48-2158.03,2251.21-2158.03z"/>
					</g>
					<g>
						<path id="DejaVuSans-114_8_" class="st4" d="M2349.2-2170.75c-1.38,0.76-2.88,1.32-4.51,1.68c-1.62,0.37-3.41,0.55-5.36,0.55
							c-6.95,0-12.28-2.16-16-6.49c-3.72-4.33-5.57-10.55-5.57-18.66v-37.77h-12.35v71.7h12.35v-11.14
							c2.59,4.36,5.95,7.59,10.08,9.69c4.14,2.12,9.18,3.18,15.1,3.18c0.84,0,1.77-0.05,2.8-0.16c1.03-0.1,2.16-0.25,3.4-0.47
							L2349.2-2170.75z"/>
					</g>
					<g>
						<path id="DejaVuSans-32_7_" class="st4" d="M2349.2-2231.45"/>
					</g>
					<g>
						<path id="DejaVuSans-32_8_" class="st4" d="M2392.65-2231.45"/>
					</g>
					<g>
						<path id="DejaVuSans-32_9_" class="st4" d="M2436.11-2231.45"/>
					</g>
					<g>
						<path id="DejaVuSans-32_10_" class="st4" d="M2479.56-2231.45"/>
					</g>
					<g>
						<path id="DejaVuSans-32_11_" class="st4" d="M2523.01-2231.45"/>
					</g>
					<g>
						<path id="DejaVuSans-32_12_" class="st4" d="M2566.46-2231.45"/>
					</g>
					<g>
						<path id="DejaVuSans-32_13_" class="st4" d="M2609.92-2231.45"/>
					</g>
					<g>
						<path id="DejaVuSans-32_14_" class="st4" d="M2653.37-2231.45"/>
					</g>
					<g>
						<path id="DejaVuSans-32_15_" class="st4" d="M2696.82-2231.45"/>
					</g>
					<g>
						<path id="DejaVuSans-32_16_" class="st4" d="M2740.28-2231.45"/>
					</g>
					<g>
						<path id="DejaVuSans-32_17_" class="st4" d="M2783.73-2231.45"/>
					</g>
					<g>
						<path id="DejaVuSans-32_18_" class="st4" d="M2827.18-2231.45"/>
					</g>
					<g>
						<path id="DejaVuSans-32_19_" class="st4" d="M2870.63-2231.45"/>
					</g>
					<g>
						<path id="DejaVuSans-32_20_" class="st4" d="M2914.09-2231.45"/>
					</g>
					<g>
						<path id="DejaVuSans-32_21_" class="st4" d="M2957.54-2231.45"/>
					</g>
					<g>
						<path id="DejaVuSans-32_22_" class="st4" d="M3000.99-2231.45"/>
					</g>
					<g>
						<path id="DejaVuSans-32_23_" class="st4" d="M3044.44-2231.45"/>
					</g>
					<g>
						<path id="DejaVuSans-32_24_" class="st4" d="M3087.9-2231.45"/>
					</g>
					<g>
						<path id="DejaVuSans-32_25_" class="st4" d="M3131.35-2231.45"/>
					</g>
					<g>
						<path id="DejaVuSans-32_26_" class="st4" d="M3174.8-2231.45"/>
					</g>
					<g>
						<path id="DejaVuSans-32_27_" class="st4" d="M3218.26-2231.45"/>
					</g>
					<g>
						<path id="DejaVuSans-32_28_" class="st4" d="M3261.71-2231.45"/>
					</g>
					<g>
						<path id="DejaVuSans-32_29_" class="st4" d="M3305.16-2231.45"/>
					</g>
				</g>
				<g transform="translate(58.3675 124.5285)scale(0.16 -0.16)">
					<g>
						<path id="DejaVuSans-111_6_" class="st4" d="M1463.82-2202.83c-6.58,0-11.78-2.46-15.61-7.4c-3.83-4.93-5.75-11.68-5.75-20.26
							c0-8.58,1.9-15.33,5.7-20.26c3.82-4.93,9.03-7.4,15.66-7.4c6.55,0,11.73,2.47,15.55,7.42c3.83,4.96,5.75,11.7,5.75,20.24
							c0,8.49-1.92,15.23-5.75,20.2C1475.56-2205.32,1470.37-2202.83,1463.82-2202.83z M1463.82-2192.86
							c10.68,0,19.07-3.33,25.16-10c6.11-6.65,9.16-15.86,9.16-27.63c0-11.73-3.05-20.94-9.16-27.63
							c-6.09-6.68-14.48-10.02-25.16-10.02c-10.72,0-19.12,3.34-25.2,10.02c-6.07,6.69-9.1,15.9-9.1,27.63
							c0,11.77,3.03,20.98,9.1,27.63C1444.7-2196.19,1453.1-2192.86,1463.82-2192.86z"/>
					</g>
					<g>
						<path id="DejaVuSans-110_3_" class="st4" d="M1580.65-2222.99v-43.28h-12.28v42.9c0,6.79-1.38,11.86-4.14,15.22
							c-2.76,3.37-6.9,5.06-12.41,5.06c-6.64,0-11.87-2.03-15.7-6.08c-3.83-4.04-5.75-9.57-5.75-16.57v-40.52h-12.35v71.7h12.35
							v-11.14c2.95,4.32,6.41,7.54,10.38,9.67c3.99,2.13,8.59,3.2,13.8,3.2c8.59,0,15.08-2.55,19.48-7.64
							C1578.44-2205.59,1580.65-2213.09,1580.65-2222.99z"/>
					</g>
					<g>
						<path id="DejaVuSans-32_30_" class="st4" d="M1592.25-2266.28"/>
					</g>
					<g>
						<path id="DejaVuSans-32_31_" class="st4" d="M1635.7-2266.28"/>
					</g>
					<g>
						<path id="DejaVuSans-32_32_" class="st4" d="M1679.16-2266.28"/>
					</g>
					<g>
						<path id="DejaVuSans-32_33_" class="st4" d="M1722.61-2266.28"/>
					</g>
					<g>
						<path id="DejaVuSans-32_34_" class="st4" d="M1766.06-2266.28"/>
					</g>
					<g>
						<path id="DejaVuSans-32_35_" class="st4" d="M1809.52-2266.28"/>
					</g>
					<g>
						<path id="DejaVuSans-32_36_" class="st4" d="M1852.97-2266.28"/>
					</g>
					<g>
						<path id="DejaVuSans-32_37_" class="st4" d="M1896.42-2266.28"/>
					</g>
					<g>
						<path id="DejaVuSans-32_38_" class="st4" d="M1939.87-2266.28"/>
					</g>
					<g>
						<path id="DejaVuSans-32_39_" class="st4" d="M1983.33-2266.28"/>
					</g>
					<g>
						<path id="DejaVuSans-32_40_" class="st4" d="M2026.78-2266.28"/>
					</g>
					<g>
						<path id="DejaVuSans-32_41_" class="st4" d="M2070.23-2266.28"/>
					</g>
					<g>
						<path id="DejaVuSans-32_42_" class="st4" d="M2113.68-2266.28"/>
					</g>
					<g>
						<path id="DejaVuSans-32_43_" class="st4" d="M2157.14-2266.28"/>
					</g>
					<g>
						<path id="DejaVuSans-32_44_" class="st4" d="M2200.59-2266.28"/>
					</g>
					<g>
						<path id="DejaVuSans-32_45_" class="st4" d="M2244.04-2266.28"/>
					</g>
					<g>
						<path id="DejaVuSans-32_46_" class="st4" d="M2287.5-2266.28"/>
					</g>
					<g>
						<path id="DejaVuSans-32_47_" class="st4" d="M2330.95-2266.28"/>
					</g>
					<g>
						<path id="DejaVuSans-32_48_" class="st4" d="M2374.4-2266.28"/>
					</g>
					<g>
						<path id="DejaVuSans-32_49_" class="st4" d="M2417.85-2266.28"/>
					</g>
					<g>
						<path id="DejaVuSans-32_50_" class="st4" d="M2461.31-2266.28"/>
					</g>
					<g>
						<path id="DejaVuSans-32_51_" class="st4" d="M2504.76-2266.28"/>
					</g>
					<g>
						<path id="DejaVuSans-32_52_" class="st4" d="M2548.21-2266.28"/>
					</g>
				</g>
				<g transform="translate(17.92625 142.445)scale(0.16 -0.16)">
					<g>
						<path id="DejaVuSans-67_1_" class="st4" d="M1417.26-2212.9v-13.62c-4.54,4.06-9.38,7.08-14.52,9.07
							c-5.14,2.01-10.6,3.01-16.38,3.01c-11.39,0-20.11-3.34-26.17-10.02c-6.05-6.68-9.08-16.33-9.08-28.97
							c0-12.59,3.03-22.23,9.08-28.9c6.05-6.68,14.77-10.02,26.17-10.02c5.78,0,11.24,1,16.38,3.01c5.14,2.01,9.98,5.04,14.52,9.1
							v-13.52c-4.71-3.07-9.71-5.38-14.99-6.92c-5.27-1.53-10.84-2.29-16.7-2.29c-15.09,0-26.98,4.42-35.67,13.27
							c-8.67,8.86-13.01,20.96-13.01,36.28c0,15.36,4.34,27.47,13.01,36.32c8.69,8.86,20.58,13.29,35.67,13.29
							c5.95,0,11.56-0.76,16.83-2.27C1407.68-2207.59,1412.63-2209.86,1417.26-2212.9z"/>
					</g>
					<g>
						<path id="DejaVuSans-117_5_" class="st4" d="M1436.29-2272.81v43.41h12.28v-42.96c0-6.79,1.37-11.88,4.12-15.28
							c2.76-3.39,6.91-5.08,12.43-5.08c6.62,0,11.85,2.03,15.7,6.08c3.86,4.06,5.79,9.59,5.79,16.59v40.64h12.28v-71.7h-12.28v11.02
							c-2.98-4.36-6.44-7.59-10.38-9.71c-3.93-2.12-8.5-3.18-13.71-3.18c-8.59,0-15.11,2.56-19.57,7.68
							C1438.51-2290.16,1436.29-2282.67,1436.29-2272.81z"/>
					</g>
					<g>
						<path id="DejaVuSans-114_9_" class="st4" d="M1567.5-2240.41c-1.38,0.76-2.88,1.32-4.51,1.68c-1.62,0.37-3.41,0.55-5.36,0.55
							c-6.95,0-12.28-2.16-16-6.49s-5.57-10.55-5.57-18.66v-37.77h-12.35v71.7h12.35v-11.14c2.59,4.36,5.95,7.59,10.08,9.69
							c4.14,2.12,9.18,3.18,15.1,3.18c0.84,0,1.77-0.05,2.8-0.16c1.03-0.1,2.16-0.25,3.4-0.47L1567.5-2240.41z"/>
					</g>
					<g>
						<path id="DejaVuSans-114_10_" class="st4" d="M1623.68-2240.41c-1.38,0.76-2.88,1.32-4.51,1.68
							c-1.62,0.37-3.41,0.55-5.36,0.55c-6.95,0-12.28-2.16-16-6.49c-3.72-4.33-5.57-10.55-5.57-18.66v-37.77h-12.35v71.7h12.35
							v-11.14c2.59,4.36,5.95,7.59,10.08,9.69c4.14,2.12,9.18,3.18,15.1,3.18c0.84,0,1.77-0.05,2.8-0.16
							c1.03-0.1,2.16-0.25,3.4-0.47L1623.68-2240.41z"/>
					</g>
					<g>
						<path id="DejaVuSans-101_4_" class="st4" d="M1700.47-2262.31v-5.76H1644c0.54-8.11,3.09-14.29,7.65-18.54
							c4.56-4.25,10.91-6.37,19.05-6.37c4.71,0,9.28,0.55,13.71,1.66c4.43,1.11,8.83,2.77,13.2,5v-11.14
							c-4.41-1.79-8.94-3.15-13.56-4.1c-4.63-0.94-9.32-1.41-14.08-1.41c-11.93,0-21.38,3.33-28.34,9.98
							c-6.96,6.66-10.44,15.68-10.44,27.04c0,11.73,3.3,21.04,9.91,27.92c6.61,6.9,15.52,10.34,26.74,10.34
							c10.05,0,18.01-3.11,23.86-9.32C1697.55-2243.21,1700.47-2251.64,1700.47-2262.31z M1688.19-2258.84
							c-0.09,6.43-1.96,11.57-5.64,15.4c-3.67,3.85-8.54,5.78-14.59,5.78c-6.85,0-12.33-1.86-16.45-5.57
							c-4.12-3.71-6.49-8.95-7.11-15.69L1688.19-2258.84z"/>
					</g>
					<g>
						<path id="DejaVuSans-110_4_" class="st4" d="M1782.78-2257.82v-43.28h-12.28v42.9c0,6.79-1.38,11.86-4.14,15.22
							c-2.76,3.37-6.9,5.06-12.41,5.06c-6.64,0-11.87-2.03-15.7-6.08c-3.83-4.04-5.75-9.57-5.75-16.57v-40.52h-12.35v71.7h12.35
							v-11.14c2.95,4.32,6.41,7.54,10.38,9.67c3.99,2.13,8.59,3.2,13.8,3.2c8.59,0,15.08-2.55,19.48-7.64
							C1780.58-2240.42,1782.78-2247.92,1782.78-2257.82z"/>
					</g>
					<g>
						<path id="DejaVuSans-116_2_" class="st4" d="M1819.42-2209.04v-20.36h25.29v-9.16h-25.29v-38.92c0-5.84,0.83-9.6,2.5-11.27
							c1.67-1.67,5.06-2.5,10.19-2.5h12.6v-9.85h-12.6c-9.48,0-16.03,1.69-19.63,5.08c-3.6,3.4-5.4,9.58-5.4,18.54v38.92h-9.01v9.16
							h9.01v20.36H1819.42z"/>
					</g>
					<g>
						<path id="DejaVuSans-32_53_" class="st4" d="M1847.98-2301.1"/>
					</g>
					<g>
						<path id="DejaVuSans-84_2_" class="st4" d="M1891.03-2205.52h84.3v-10.9h-35.37v-84.68h-13.54v84.68h-35.39V-2205.52z"/>
					</g>
					<g>
						<path id="DejaVuSans-114_11_" class="st4" d="M2030.84-2240.41c-1.38,0.76-2.88,1.32-4.51,1.68
							c-1.62,0.37-3.41,0.55-5.36,0.55c-6.95,0-12.28-2.16-16-6.49s-5.57-10.55-5.57-18.66v-37.77h-12.35v71.7h12.35v-11.14
							c2.59,4.36,5.95,7.59,10.08,9.69c4.14,2.12,9.18,3.18,15.1,3.18c0.84,0,1.77-0.05,2.8-0.16c1.03-0.1,2.16-0.25,3.4-0.47
							L2030.84-2240.41z"/>
					</g>
					<g>
						<path id="DejaVuSans-105_2_" class="st4" d="M2043.72-2229.41H2056v-71.7h-12.28V-2229.41z M2043.72-2201.49H2056v-14.93
							h-12.28V-2201.49z"/>
					</g>
					<g>
						<path id="DejaVuSans-97" class="st4" d="M2115.68-2265.07c-9.92,0-16.8-1.09-20.63-3.26c-3.83-2.17-5.75-5.89-5.75-11.14
							c0-4.18,1.44-7.5,4.31-9.96c2.88-2.44,6.78-3.67,11.7-3.67c6.82,0,12.29,2.31,16.4,6.94c4.12,4.63,6.17,10.78,6.17,18.46v2.62
							H2115.68z M2140.18-2260.2v-40.91h-12.28v10.88c-2.81-4.34-6.3-7.55-10.49-9.63c-4.19-2.08-9.31-3.11-15.36-3.11
							c-7.65,0-13.73,2.06-18.26,6.19c-4.51,4.12-6.77,9.64-6.77,16.55c0,8.06,2.81,14.13,8.44,18.23c5.64,4.1,14.04,6.15,25.2,6.15
							h17.24v1.17c0,5.42-1.86,9.61-5.57,12.58c-3.72,2.96-8.94,4.45-15.66,4.45c-4.27,0-8.44-0.49-12.5-1.47
							c-4.04-0.98-7.93-2.46-11.66-4.42v10.9c4.49,1.67,8.84,2.91,13.07,3.73c4.23,0.83,8.34,1.25,12.35,1.25
							c10.82,0,18.9-2.69,24.24-8.07C2137.51-2241.12,2140.18-2249.27,2140.18-2260.2z"/>
					</g>
					<g>
						<path id="DejaVuSans-108" class="st4" d="M2165.47-2201.49h12.28v-99.62h-12.28V-2201.49z"/>
					</g>
					<g>
						<path id="DejaVuSans-32_54_" class="st4" d="M2190.57-2301.1"/>
					</g>
					<g>
						<path id="DejaVuSans-32_55_" class="st4" d="M2234.02-2301.1"/>
					</g>
					<g>
						<path id="DejaVuSans-32_56_" class="st4" d="M2277.47-2301.1"/>
					</g>
					<g>
						<path id="DejaVuSans-32_57_" class="st4" d="M2320.93-2301.1"/>
					</g>
					<g>
						<path id="DejaVuSans-32_58_" class="st4" d="M2364.38-2301.1"/>
					</g>
					<g>
						<path id="DejaVuSans-32_59_" class="st4" d="M2407.83-2301.1"/>
					</g>
					<g>
						<path id="DejaVuSans-32_60_" class="st4" d="M2451.28-2301.1"/>
					</g>
					<g>
						<path id="DejaVuSans-32_61_" class="st4" d="M2494.74-2301.1"/>
					</g>
					<g>
						<path id="DejaVuSans-32_62_" class="st4" d="M2538.19-2301.1"/>
					</g>
					<g>
						<path id="DejaVuSans-32_63_" class="st4" d="M2581.64-2301.1"/>
					</g>
					<g>
						<path id="DejaVuSans-32_64_" class="st4" d="M2625.1-2301.1"/>
					</g>
					<g>
						<path id="DejaVuSans-32_65_" class="st4" d="M2668.55-2301.1"/>
					</g>
					<g>
						<path id="DejaVuSans-32_66_" class="st4" d="M2712-2301.1"/>
					</g>
					<g>
						<path id="DejaVuSans-32_67_" class="st4" d="M2755.45-2301.1"/>
					</g>
					<g>
						<path id="DejaVuSans-32_68_" class="st4" d="M2798.91-2301.1"/>
					</g>
					<g>
						<path id="DejaVuSans-32_69_" class="st4" d="M2842.36-2301.1"/>
					</g>
					<g>
						<path id="DejaVuSans-32_70_" class="st4" d="M2885.81-2301.1"/>
					</g>
					<g>
						<path id="DejaVuSans-32_71_" class="st4" d="M2929.26-2301.1"/>
					</g>
					<g>
						<path id="DejaVuSans-32_72_" class="st4" d="M2972.72-2301.1"/>
					</g>
					<g>
						<path id="DejaVuSans-32_73_" class="st4" d="M3016.17-2301.1"/>
					</g>
					<g>
						<path id="DejaVuSans-32_74_" class="st4" d="M3059.62-2301.1"/>
					</g>
					<g>
						<path id="DejaVuSans-32_75_" class="st4" d="M3103.07-2301.1"/>
					</g>
					<g>
						<path id="DejaVuSans-32_76_" class="st4" d="M3146.53-2301.1"/>
					</g>
				</g>
				<g transform="translate(13.75625 160.3615)scale(0.16 -0.16)">
					<g>
						<path id="DejaVuSans-40_1_" class="st4" d="M1362.03-2236.46c-5.95-9.81-10.38-19.52-13.29-29.13
							c-2.89-9.6-4.34-19.33-4.34-29.19c0-9.85,1.46-19.6,4.38-29.27c2.92-9.67,7.33-19.39,13.24-29.17h-10.68
							c-6.66,10.04-11.66,19.9-14.97,29.58c-3.32,9.68-4.98,19.3-4.98,28.86c0,9.52,1.64,19.1,4.93,28.74
							c3.3,9.66,8.31,19.52,15.02,29.58H1362.03z"/>
					</g>
					<g>
						<path id="DejaVuSans-109_3_" class="st4" d="M1444.07-2278c3.08,5.3,6.75,9.2,11.02,11.72s9.3,3.77,15.08,3.77
							c7.79,0,13.8-2.62,18.03-7.85c4.23-5.22,6.34-12.65,6.34-22.29v-43.28h-12.35v42.9c0,6.87-1.27,11.96-3.82,15.28
							c-2.53,3.33-6.4,5-11.6,5c-6.36,0-11.4-2.03-15.1-6.08c-3.69-4.04-5.53-9.57-5.53-16.57v-40.52h-12.35v42.9
							c0,6.91-1.27,12.02-3.8,15.32c-2.53,3.3-6.45,4.96-11.75,4.96c-6.28,0-11.27-2.03-14.97-6.1c-3.69-4.07-5.53-9.59-5.53-16.55
							v-40.52h-12.35v71.7h12.35v-11.14c2.81,4.4,6.17,7.64,10.08,9.73c3.92,2.09,8.56,3.13,13.95,3.13
							c5.44,0,10.06-1.32,13.86-3.97C1439.43-2269.12,1442.25-2272.96,1444.07-2278z"/>
					</g>
					<g>
						<path id="DejaVuSans-111_7_" class="st4" d="M1547.99-2272.49c-6.58,0-11.78-2.47-15.61-7.4c-3.83-4.93-5.75-11.68-5.75-20.26
							c0-8.58,1.9-15.33,5.7-20.26c3.82-4.93,9.04-7.4,15.66-7.4c6.55,0,11.73,2.47,15.55,7.42c3.83,4.96,5.75,11.7,5.75,20.24
							c0,8.49-1.92,15.23-5.75,20.2C1559.72-2274.98,1554.54-2272.49,1547.99-2272.49z M1547.99-2262.51
							c10.68,0,19.07-3.33,25.16-10c6.11-6.65,9.16-15.86,9.16-27.63c0-11.73-3.05-20.94-9.16-27.63
							c-6.09-6.68-14.48-10.02-25.16-10.02c-10.72,0-19.12,3.34-25.2,10.02c-6.07,6.69-9.1,15.9-9.1,27.63
							c0,11.77,3.03,20.98,9.1,27.63C1528.87-2265.85,1537.27-2262.51,1547.99-2262.51z"/>
					</g>
					<g>
						<path id="DejaVuSans-114_12_" class="st4" d="M1645.98-2275.24c-1.38,0.76-2.88,1.32-4.51,1.68
							c-1.62,0.37-3.41,0.55-5.36,0.55c-6.95,0-12.28-2.16-16-6.49c-3.72-4.33-5.57-10.55-5.57-18.66v-37.77h-12.35v71.7h12.35
							v-11.14c2.59,4.36,5.95,7.59,10.08,9.69c4.14,2.12,9.18,3.18,15.1,3.18c0.84,0,1.77-0.05,2.8-0.16
							c1.03-0.1,2.16-0.25,3.4-0.47L1645.98-2275.24z"/>
					</g>
					<g>
						<path id="DejaVuSans-112_2_" class="st4" d="M1670.74-2325.18v-38.02h-12.35v98.96h12.35v-10.88
							c2.59,4.26,5.85,7.42,9.78,9.48c3.94,2.08,8.65,3.11,14.12,3.11c9.08,0,16.46-3.46,22.13-10.37c5.68-6.91,8.52-16,8.52-27.27
							c0-11.27-2.84-20.36-8.52-27.29c-5.67-6.91-13.04-10.37-22.13-10.37c-5.47,0-10.17,1.04-14.12,3.11
							C1676.59-2332.61,1673.33-2329.44,1670.74-2325.18z M1712.54-2300.15c0,8.66-1.86,15.45-5.57,20.38
							c-3.72,4.93-8.82,7.4-15.31,7.4c-6.51,0-11.62-2.47-15.34-7.4c-3.72-4.93-5.57-11.72-5.57-20.38c0-8.66,1.86-15.45,5.57-20.38
							c3.72-4.93,8.83-7.4,15.34-7.4c6.49,0,11.6,2.47,15.31,7.4C1710.68-2315.6,1712.54-2308.8,1712.54-2300.15z"/>
					</g>
					<g>
						<path id="DejaVuSans-104_1_" class="st4" d="M1807.79-2292.65v-43.28h-12.28v42.9c0,6.79-1.38,11.86-4.14,15.22
							c-2.76,3.37-6.9,5.06-12.41,5.06c-6.64,0-11.87-2.03-15.7-6.08c-3.83-4.04-5.75-9.57-5.75-16.57v-40.52h-12.35v99.62h12.35
							v-39.06c2.95,4.32,6.41,7.54,10.38,9.67c3.99,2.13,8.59,3.2,13.8,3.2c8.59,0,15.08-2.55,19.48-7.64
							C1805.58-2275.25,1807.79-2282.75,1807.79-2292.65z"/>
					</g>
					<g>
						<path id="DejaVuSans-32_77_" class="st4" d="M1819.39-2335.93"/>
					</g>
					<g>
						<path id="DejaVuSans-117_6_" class="st4" d="M1874.47-2307.64v43.41h12.28v-42.96c0-6.79,1.37-11.88,4.12-15.28
							c2.76-3.39,6.91-5.08,12.43-5.08c6.62,0,11.85,2.03,15.7,6.08c3.86,4.06,5.79,9.59,5.79,16.59v40.64h12.28v-71.7h-12.28v11.02
							c-2.98-4.36-6.44-7.59-10.38-9.71c-3.93-2.12-8.5-3.18-13.71-3.18c-8.59,0-15.11,2.56-19.57,7.68
							C1876.69-2324.99,1874.47-2317.5,1874.47-2307.64z"/>
					</g>
					<g>
						<path id="DejaVuSans-110_5_" class="st4" d="M2024.52-2292.65v-43.28h-12.28v42.9c0,6.79-1.38,11.86-4.14,15.22
							c-2.76,3.37-6.9,5.06-12.41,5.06c-6.64,0-11.87-2.03-15.7-6.08c-3.83-4.04-5.75-9.57-5.75-16.57v-40.52h-12.35v71.7h12.35
							v-11.14c2.95,4.32,6.41,7.54,10.38,9.67c3.99,2.13,8.59,3.2,13.8,3.2c8.59,0,15.08-2.55,19.48-7.64
							C2022.31-2275.25,2024.52-2282.75,2024.52-2292.65z"/>
					</g>
					<g>
						<path id="DejaVuSans-105_3_" class="st4" d="M2049-2264.24h12.28v-71.7H2049V-2264.24z M2049-2236.31h12.28v-14.93H2049
							V-2236.31z"/>
					</g>
					<g>
						<path id="DejaVuSans-116_3_" class="st4" d="M2099.14-2243.87v-20.36h25.29v-9.16h-25.29v-38.92c0-5.84,0.83-9.6,2.5-11.27
							c1.67-1.67,5.06-2.5,10.19-2.5h12.6v-9.85h-12.6c-9.48,0-16.03,1.69-19.63,5.08c-3.6,3.4-5.4,9.58-5.4,18.54v38.92h-9.01v9.16
							h9.01v20.36H2099.14z"/>
					</g>
					<g>
						<path id="DejaVuSans-115_4_" class="st4" d="M2188.23-2266.35v-11.14c-3.46,1.71-7.06,2.98-10.81,3.83
							c-3.73,0.86-7.6,1.29-11.62,1.29c-6.09,0-10.67-0.89-13.71-2.68c-3.05-1.79-4.57-4.48-4.57-8.07c0-2.73,1.09-4.88,3.27-6.43
							c2.18-1.56,6.56-3.04,13.16-4.45l4.21-0.9c8.71-1.79,14.91-4.32,18.58-7.58s5.51-7.82,5.51-13.66
							c0-6.66-2.75-11.94-8.24-15.83c-5.5-3.88-13.05-5.82-22.66-5.82c-4,0-8.17,0.38-12.52,1.13c-4.34,0.75-8.91,1.87-13.71,3.36
							v12.17c4.54-2.27,9.01-3.97,13.41-5.1c4.4-1.12,8.76-1.68,13.09-1.68c5.78,0,10.22,0.95,13.33,2.85
							c3.12,1.9,4.68,4.57,4.68,8.03c0,3.2-1.12,5.65-3.37,7.35c-2.24,1.71-7.16,3.35-14.78,4.94l-4.27,0.96
							c-7.6,1.53-13.1,3.89-16.49,7.07c-3.37,3.18-5.06,7.55-5.06,13.09c0,6.75,2.49,11.95,7.48,15.61
							c4.98,3.67,12.06,5.51,21.23,5.51c4.53,0,8.79-0.32,12.79-0.96C2181.16-2264.11,2184.86-2265.06,2188.23-2266.35z"/>
					</g>
					<g>
						<path id="DejaVuSans-41_1_" class="st4" d="M2209.88-2236.46h10.68c6.66-10.06,11.66-19.93,14.97-29.58
							c3.32-9.64,4.98-19.22,4.98-28.74c0-9.56-1.66-19.18-4.98-28.86c-3.32-9.68-8.31-19.54-14.97-29.58h-10.68
							c5.91,9.78,10.32,19.5,13.24,29.17c2.92,9.67,4.38,19.43,4.38,29.27c0,9.86-1.46,19.59-4.38,29.19
							C2220.2-2255.97,2215.79-2246.26,2209.88-2236.46z"/>
					</g>
					<g>
						<path id="DejaVuSans-32_78_" class="st4" d="M2252.25-2335.93"/>
					</g>
					<g>
						<path id="DejaVuSans-32_79_" class="st4" d="M2295.71-2335.93"/>
					</g>
					<g>
						<path id="DejaVuSans-32_80_" class="st4" d="M2339.16-2335.93"/>
					</g>
					<g>
						<path id="DejaVuSans-32_81_" class="st4" d="M2382.61-2335.93"/>
					</g>
					<g>
						<path id="DejaVuSans-32_82_" class="st4" d="M2426.06-2335.93"/>
					</g>
					<g>
						<path id="DejaVuSans-32_83_" class="st4" d="M2469.52-2335.93"/>
					</g>
					<g>
						<path id="DejaVuSans-32_84_" class="st4" d="M2512.97-2335.93"/>
					</g>
					<g>
						<path id="DejaVuSans-32_85_" class="st4" d="M2556.42-2335.93"/>
					</g>
					<g>
						<path id="DejaVuSans-32_86_" class="st4" d="M2599.87-2335.93"/>
					</g>
					<g>
						<path id="DejaVuSans-32_87_" class="st4" d="M2643.33-2335.93"/>
					</g>
					<g>
						<path id="DejaVuSans-32_88_" class="st4" d="M2686.78-2335.93"/>
					</g>
					<g>
						<path id="DejaVuSans-32_89_" class="st4" d="M2730.23-2335.93"/>
					</g>
					<g>
						<path id="DejaVuSans-32_90_" class="st4" d="M2773.69-2335.93"/>
					</g>
					<g>
						<path id="DejaVuSans-32_91_" class="st4" d="M2817.14-2335.93"/>
					</g>
					<g>
						<path id="DejaVuSans-32_92_" class="st4" d="M2860.59-2335.93"/>
					</g>
					<g>
						<path id="DejaVuSans-32_93_" class="st4" d="M2904.04-2335.93"/>
					</g>
					<g>
						<path id="DejaVuSans-32_94_" class="st4" d="M2947.5-2335.93"/>
					</g>
					<g>
						<path id="DejaVuSans-32_95_" class="st4" d="M2990.95-2335.93"/>
					</g>
					<g>
						<path id="DejaVuSans-32_96_" class="st4" d="M3034.4-2335.93"/>
					</g>
					<g>
						<path id="DejaVuSans-32_97_" class="st4" d="M3077.85-2335.93"/>
					</g>
					<g>
						<path id="DejaVuSans-32_98_" class="st4" d="M3121.31-2335.93"/>
					</g>
					<g>
						<path id="DejaVuSans-32_99_" class="st4" d="M3164.76-2335.93"/>
					</g>
					<g>
						<path id="DejaVuSans-32_100_" class="st4" d="M3208.21-2335.93"/>
					</g>
				</g>
			</g>
		</g>
		<g id="line2d_15">
			<g>
				<defs>
					<rect id="SVGID_3_" x="421.94" y="360.3" width="381.39" height="356.34"/>
				</defs>
				<clipPath id="SVGID_4_">
					<use xlink:href="#SVGID_3_"  style="overflow:visible;"/>
				</clipPath>
				<path class="st5" d="M421.94,541.12l2.61,0.77l2.61,4.02l2.61,13.9l2.61,0.23l2.61,9.34l2.61-3.66l2.61,2.72l2.61,12.14
					l2.61,14.69l2.61,4.64l2.61-5.15l2.61-9.97l2.61,5.73l2.61,3.36l2.61,2.77l2.61-2.85l2.61,2.98l2.61-4.22l2.61-0.74l2.61,12.87
					l2.61,3.87l2.61,0.46l2.61-7.89l2.61,2.46l2.61,5.66l2.61-1.71l5.22,10.56l2.61-6.86l2.61,6.12l2.61-6.14l2.61,5.08l2.61,0.46
					l2.61-4.06l5.22,18.2l2.61,7.09l5.22-20.62l2.61,3.27l2.61-5.16l2.61-1.24l2.61,5.86l2.61-10.44l2.61,8.45l2.61,1.35l2.61,11.98
					l2.61,0.73l2.61-2.45l2.61,6.39l5.22,2.22l2.61,8.16l2.61,3.16l2.61-5.6l2.61-3.46l2.61,7.74l2.61,3.96l2.61-9.79l2.61,9.81
					l2.61-24.01l2.61,5.41l5.22-19.22l2.61-11.38l2.61-9.57l2.61-13.22l2.61-9.13l2.61,6.3l2.61-4.38l2.61-0.12l2.61-11.54
					l2.61,2.85l2.61-5.03l2.61-2.29l2.61-16.92l2.61,1.53l2.61-16.83l2.61-10.68l2.61-15.6l2.61-1.33l2.61-16.61l2.61-8l2.61-1.77
					l2.61-6.5l2.61-0.58l2.61,2.03l2.61,2.81l2.61,3.05l2.61,0.63l2.61-8.81l2.61,0.07l2.61-7.69l2.61,5.16l2.61,3.71l2.61,7.16
					l2.61-0.96l2.61-2.97l2.61-4.67l2.61-8.06l2.61,5.15l2.61-21.87l2.61,0.61l2.61,0.08l2.61-12.28l2.61,5.18l2.61,3.3l2.61-11.18
					l2.61,13.58l2.61,8.63l2.61,4.83l2.61-12.51l2.61,6.46l2.61,0.52l2.61-10.12l2.61,11.42l2.61-1.39l2.61,0.85l2.61-11.49
					l2.61-5.94l2.61-11.95l2.61,8.47l2.61,12.11l2.61,3.34l2.61-7.37l2.61,5.2l2.61,0.85l2.61,17.99l2.61,6.46l2.61,9.49l2.61-0.05
					l2.61-6.82l2.61,20.27l2.61,18.34l2.61,4.93l2.61,1.68l2.61,4.62l2.61-1.05l2.61,5.18l2.61-2.82l2.61-3.54l2.61-2.31l2.61-3.73
					l2.61,4.15l2.61,5.41l2.61,23.23l0,0"/>
			</g>
		</g>
		<g id="line2d_16">
			<g>
				<defs>
					<rect id="SVGID_5_" x="421.94" y="360.3" width="381.39" height="356.34"/>
				</defs>
				<clipPath id="SVGID_6_">
					<use xlink:href="#SVGID_5_"  style="overflow:visible;"/>
				</clipPath>
				<path class="st6" d="M421.94,540.82l10.45,4.83l7.84,3.87l7.84,4.2l7.84,4.65l5.22,3.4l5.22,3.68l5.22,3.98l5.22,4.31l5.22,4.65
					l5.22,5l5.22,5.35l5.22,5.67l7.84,9.02l13.06,15.8l7.84,9.27l5.22,5.75l5.22,5.15l2.61,2.28l2.61,2.04l2.61,1.77l2.61,1.47
					l2.61,1.14l2.61,0.78l2.61,0.38l2.61-0.04l2.61-0.49l2.61-0.97l2.61-1.46l2.61-1.98l2.61-2.51l2.61-3.04l2.61-3.58l2.61-4.13
					l2.61-4.66l2.61-5.18l2.61-5.69l2.61-6.17l2.61-6.63l5.22-14.47l5.22-15.81l7.84-25.33l10.45-34.33l5.22-16.33l5.22-15.19
					l5.22-13.68l2.61-6.17l2.61-5.69l2.61-5.18l2.61-4.66l2.61-4.13l2.61-3.58l2.61-3.04l2.61-2.51l2.61-1.98l2.61-1.46l2.61-0.97
					l2.61-0.49l2.61-0.04l2.61,0.38l2.61,0.78l2.61,1.14l2.61,1.47l2.61,1.77l2.61,2.04l2.61,2.28l5.22,5.15l5.22,5.75l7.84,9.27
					l15.67,18.86l7.84,8.83l5.22,5.51l5.22,5.17l5.22,4.83l5.22,4.48l5.22,4.14l5.22,3.83l5.22,3.54l5.22,3.27l7.84,4.49l7.84,4.08
					l10.45,4.99l5.22,2.38l0,0"/>
			</g>
		</g>
		<g id="patch_3">
			<path class="st7" d="M421.94,716.64V360.3"/>
		</g>
		<g id="patch_4">
			<path class="st7" d="M421.94,716.64h381.39"/>
		</g>
		<g id="text_17">
			<g transform="translate(239.1435 21.789)scale(0.192 -0.192)">
				<g>
					<path id="DejaVuSans-82_1_" class="st4" d="M1591.2-1677.31c2.89-0.94,5.7-2.95,8.44-6.02c2.73-3.07,5.48-7.3,8.24-12.68
						l13.69-26.12h-14.5l-12.73,24.52c-3.3,6.4-6.5,10.65-9.59,12.74c-3.09,2.09-7.3,3.13-12.64,3.13h-14.7v-40.4h-13.48v95.58
						h30.44c11.39,0,19.89-2.29,25.5-6.86c5.61-4.56,8.42-11.45,8.42-20.67c0-6.02-1.46-11.02-4.38-14.99
						C1600.99-1673.03,1596.76-1675.78,1591.2-1677.31z M1557.41-1637.18v-33.92h16.96c6.49,0,11.4,1.44,14.72,4.32
						c3.32,2.88,4.98,7.12,4.98,12.7c0,5.59-1.66,9.8-4.98,12.64c-3.32,2.84-8.22,4.26-14.72,4.26H1557.41z"/>
				</g>
				<g>
					<path id="DejaVuSans-97_1_" class="st4" d="M1672.32-1686.1c-9.92,0-16.8-1.09-20.63-3.26c-3.83-2.17-5.75-5.89-5.75-11.14
						c0-4.18,1.44-7.5,4.31-9.96c2.88-2.44,6.78-3.67,11.7-3.67c6.82,0,12.29,2.31,16.4,6.94c4.12,4.63,6.17,10.78,6.17,18.46v2.62
						H1672.32z M1696.82-1681.22v-40.91h-12.28v10.88c-2.81-4.34-6.3-7.55-10.49-9.63s-9.31-3.11-15.36-3.11
						c-7.65,0-13.73,2.06-18.26,6.19c-4.51,4.12-6.77,9.64-6.77,16.55c0,8.06,2.81,14.13,8.44,18.23c5.64,4.1,14.04,6.15,25.2,6.15
						h17.24v1.17c0,5.42-1.86,9.61-5.57,12.58c-3.72,2.96-8.94,4.45-15.66,4.45c-4.27,0-8.44-0.49-12.5-1.47
						c-4.04-0.98-7.93-2.46-11.66-4.42v10.9c4.49,1.67,8.84,2.91,13.07,3.73c4.23,0.83,8.34,1.25,12.35,1.25
						c10.82,0,18.9-2.69,24.24-8.07C1694.15-1662.15,1696.82-1670.3,1696.82-1681.22z"/>
				</g>
				<g>
					<path id="DejaVuSans-100" class="st4" d="M1771.3-1661.31v38.8h12.28v-99.62h-12.28v10.75c-2.58-4.26-5.84-7.43-9.78-9.51
						c-3.93-2.08-8.66-3.11-14.18-3.11c-9.03,0-16.38,3.46-22.06,10.37c-5.67,6.92-8.5,16.02-8.5,27.29s2.83,20.36,8.5,27.27
						c5.68,6.91,13.04,10.37,22.06,10.37c5.52,0,10.25-1.04,14.18-3.11C1765.46-1653.89,1768.72-1657.05,1771.3-1661.31z
						 M1729.46-1686.34c0-8.66,1.86-15.45,5.57-20.38c3.72-4.93,8.82-7.4,15.31-7.4s11.61,2.47,15.34,7.4
						c3.74,4.93,5.62,11.72,5.62,20.38s-1.87,15.45-5.62,20.38c-3.73,4.93-8.84,7.4-15.34,7.4s-11.6-2.47-15.31-7.4
						C1731.31-1670.89,1729.46-1677.69,1729.46-1686.34z"/>
				</g>
				<g>
					<path id="DejaVuSans-105_4_" class="st4" d="M1808.88-1650.43h12.28v-71.7h-12.28V-1650.43z M1808.88-1622.51h12.28v-14.93
						h-12.28V-1622.51z"/>
				</g>
				<g>
					<path id="DejaVuSans-111_8_" class="st4" d="M1875.82-1658.69c-6.58,0-11.78-2.46-15.61-7.4c-3.83-4.93-5.75-11.68-5.75-20.26
						s1.9-15.33,5.7-20.26c3.82-4.93,9.03-7.4,15.66-7.4c6.55,0,11.73,2.47,15.55,7.42c3.83,4.96,5.75,11.7,5.75,20.24
						c0,8.49-1.92,15.23-5.75,20.2C1887.56-1661.17,1882.37-1658.69,1875.82-1658.69z M1875.82-1648.71c10.68,0,19.07-3.33,25.16-10
						c6.11-6.65,9.16-15.86,9.16-27.63c0-11.73-3.05-20.94-9.16-27.63c-6.09-6.68-14.48-10.02-25.16-10.02
						c-10.72,0-19.12,3.34-25.2,10.02c-6.07,6.69-9.1,15.9-9.1,27.63c0,11.77,3.03,20.98,9.1,27.63
						C1856.7-1652.04,1865.1-1648.71,1875.82-1648.71z"/>
				</g>
				<g>
					<path id="DejaVuSans-108_1_" class="st4" d="M1930.49-1622.51h12.28v-99.62h-12.28V-1622.51z"/>
				</g>
				<g>
					<path id="DejaVuSans-111_9_" class="st4" d="M1997.44-1658.69c-6.58,0-11.78-2.46-15.61-7.4s-5.75-11.68-5.75-20.26
						s1.9-15.33,5.7-20.26c3.82-4.93,9.04-7.4,15.66-7.4c6.55,0,11.73,2.47,15.55,7.42c3.83,4.96,5.75,11.7,5.75,20.24
						c0,8.49-1.92,15.23-5.75,20.2C2009.17-1661.17,2003.99-1658.69,1997.44-1658.69z M1997.44-1648.71c10.68,0,19.07-3.33,25.16-10
						c6.11-6.65,9.16-15.86,9.16-27.63c0-11.73-3.05-20.94-9.16-27.63c-6.09-6.68-14.48-10.02-25.16-10.02
						c-10.72,0-19.12,3.34-25.2,10.02c-6.07,6.69-9.1,15.9-9.1,27.63c0,11.77,3.03,20.98,9.1,27.63
						C1978.31-1652.04,1986.71-1648.71,1997.44-1648.71z"/>
				</g>
				<g>
					<path id="DejaVuSans-103" class="st4" d="M2101.3-1685.44c0,8.54-1.84,15.15-5.51,19.83c-3.66,4.7-8.81,7.05-15.44,7.05
						c-6.58,0-11.7-2.35-15.38-7.05c-3.67-4.68-5.51-11.29-5.51-19.83c0-8.49,1.84-15.09,5.51-19.79c3.67-4.7,8.8-7.05,15.38-7.05
						c6.64,0,11.78,2.35,15.44,7.05C2099.46-1700.53,2101.3-1693.94,2101.3-1685.44z M2113.58-1713.24c0-12.2-2.83-21.27-8.48-27.22
						c-5.64-5.95-14.29-8.93-25.95-8.93c-4.31,0-8.39,0.31-12.22,0.92c-3.83,0.61-7.55,1.56-11.15,2.85v11.45
						c3.6-1.87,7.16-3.25,10.68-4.14c3.52-0.9,7.1-1.35,10.74-1.35c8.06,0,14.09,2.01,18.09,6.04c4,4.03,6,10.12,6,18.27v5.84
						c-2.53-4.23-5.78-7.4-9.74-9.48s-8.7-3.13-14.23-3.13c-9.16,0-16.54,3.35-22.15,10.04c-5.61,6.71-8.42,15.59-8.42,26.65
						c0,11.09,2.81,19.98,8.42,26.67c5.61,6.71,12.99,10.06,22.15,10.06c5.52,0,10.27-1.04,14.23-3.13s7.21-5.24,9.74-9.46v10.88
						h12.28V-1713.24z"/>
				</g>
				<g>
					<path id="DejaVuSans-105_5_" class="st4" d="M2138.88-1650.43h12.28v-71.7h-12.28V-1650.43z M2138.88-1622.51h12.28v-14.93
						h-12.28V-1622.51z"/>
				</g>
				<g>
					<path id="DejaVuSans-115_5_" class="st4" d="M2224.51-1652.54v-11.14c-3.46,1.71-7.06,2.98-10.81,3.83
						c-3.73,0.86-7.6,1.29-11.62,1.29c-6.09,0-10.67-0.89-13.71-2.68c-3.05-1.79-4.57-4.48-4.57-8.07c0-2.73,1.09-4.88,3.27-6.43
						c2.18-1.56,6.56-3.04,13.16-4.45l4.21-0.9c8.71-1.79,14.91-4.32,18.58-7.58c3.67-3.26,5.51-7.82,5.51-13.66
						c0-6.66-2.75-11.94-8.24-15.83c-5.5-3.88-13.05-5.82-22.66-5.82c-4,0-8.17,0.38-12.52,1.13s-8.91,1.87-13.71,3.36v12.17
						c4.54-2.27,9.01-3.97,13.41-5.1c4.4-1.12,8.76-1.68,13.09-1.68c5.78,0,10.22,0.95,13.33,2.85c3.12,1.9,4.68,4.57,4.68,8.03
						c0,3.2-1.12,5.65-3.37,7.35c-2.24,1.71-7.16,3.35-14.78,4.94l-4.27,0.96c-7.6,1.53-13.1,3.89-16.49,7.07
						c-3.37,3.18-5.06,7.55-5.06,13.09c0,6.75,2.49,11.95,7.48,15.61c4.98,3.67,12.06,5.51,21.23,5.51c4.53,0,8.79-0.32,12.79-0.96
						C2217.44-1650.3,2221.14-1651.26,2224.51-1652.54z"/>
				</g>
				<g>
					<path id="DejaVuSans-116_4_" class="st4" d="M2260.23-1630.07v-20.36h25.29v-9.16h-25.29v-38.92c0-5.84,0.83-9.6,2.5-11.27
						c1.67-1.67,5.06-2.5,10.19-2.5h12.6v-9.85h-12.6c-9.48,0-16.03,1.69-19.63,5.08c-3.6,3.4-5.4,9.58-5.4,18.54v38.92h-9.01v9.16
						h9.01v20.36H2260.23z"/>
				</g>
				<g>
					<path id="DejaVuSans-115_6_" class="st4" d="M2349.33-1652.54v-11.14c-3.46,1.71-7.06,2.98-10.81,3.83
						c-3.73,0.86-7.6,1.29-11.62,1.29c-6.09,0-10.67-0.89-13.71-2.68c-3.05-1.79-4.57-4.48-4.57-8.07c0-2.73,1.09-4.88,3.27-6.43
						c2.18-1.56,6.56-3.04,13.16-4.45l4.21-0.9c8.71-1.79,14.91-4.32,18.58-7.58c3.67-3.26,5.51-7.82,5.51-13.66
						c0-6.66-2.75-11.94-8.24-15.83c-5.5-3.88-13.05-5.82-22.66-5.82c-4,0-8.17,0.38-12.52,1.13s-8.91,1.87-13.71,3.36v12.17
						c4.54-2.27,9.01-3.97,13.41-5.1c4.4-1.12,8.76-1.68,13.09-1.68c5.78,0,10.22,0.95,13.33,2.85c3.12,1.9,4.68,4.57,4.68,8.03
						c0,3.2-1.12,5.65-3.37,7.35c-2.24,1.71-7.16,3.35-14.78,4.94l-4.27,0.96c-7.6,1.53-13.1,3.89-16.49,7.07
						c-3.37,3.18-5.06,7.55-5.06,13.09c0,6.75,2.49,11.95,7.48,15.61c4.98,3.67,12.06,5.51,21.23,5.51c4.53,0,8.79-0.32,12.79-0.96
						C2342.26-1650.3,2345.96-1651.26,2349.33-1652.54z"/>
				</g>
			</g>
		</g>
	</g>
</g>
<text transform="matrix(1 0 0 1 673.4856 611.6072)" class="st8 st9">Average</text>
<text transform="matrix(1 0 0 1 659.1863 637.7834)" class="st8 st9">von Mises</text>
<rect x="744.69" y="600.13" class="st2" width="65.56" height="15.99"/>
<line class="st10" x1="744.69" y1="608.12" x2="810.25" y2="608.12"/>
<line class="st11" x1="744.44" y1="633.01" x2="810" y2="633.01"/>
</svg>
